<?xml version="1.0" encoding="iso-8859-1"?>
<!-- Generator: Adobe Illustrator 17.1.0, SVG Export Plug-In . SVG Version: 6.00 Build 0)  -->
<!DOCTYPE svg PUBLIC "-//W3C//DTD SVG 1.1//EN" "http://www.w3.org/Graphics/SVG/1.1/DTD/svg11.dtd">
<svg xmlns="http://www.w3.org/2000/svg" xmlns:xlink="http://www.w3.org/1999/xlink" version="1.1" id="Capa_1" x="0px" y="0px" viewBox="0 0 370.082 370.082" style="enable-background:new 0 0 370.082 370.082;" xml:space="preserve" width="512px" height="512px">
<g>
	<path d="M73.391,77.937l-22.394-4.99c-4.692-1.047-8.977,0.413-11.144,3.74c-1.841,2.828-1.943,6.449-0.288,10.198l2.063,4.665   C15.154,116.217,0,150.93,0,187.036c0,43.376,21.484,83.787,57.471,108.098c2.279,1.539,4.935,2.353,7.679,2.353   c4.571,0,8.827-2.259,11.384-6.044c1.54-2.279,2.354-4.935,2.354-7.68c0-4.572-2.261-8.827-6.046-11.383   c-28.417-19.198-45.382-51.103-45.382-85.345c0-25.046,9.454-49.666,26.117-68.451c1.892,4.058,5.052,6.378,8.711,6.378   c3.653,0,6.861-2.348,8.802-6.442l10.895-22.998c1.729-3.649,1.763-7.535,0.097-10.941C80.418,81.176,77.331,78.816,73.391,77.937z   " fill="#FFFFFF"/>
	<path d="M328.453,278.533c26.475-24.669,41.629-59.381,41.629-95.487c0-43.376-21.484-83.787-57.471-108.098   c-2.279-1.54-4.935-2.354-7.679-2.354c-4.572,0-8.828,2.26-11.383,6.043c-1.541,2.28-2.355,4.936-2.355,7.681   c0,4.572,2.261,8.827,6.046,11.383c28.417,19.197,45.382,51.102,45.382,85.345c0,25.05-9.453,49.669-26.117,68.452   c-1.892-4.059-5.053-6.378-8.711-6.378c-3.654,0-6.862,2.348-8.801,6.442l-10.896,22.998c-1.728,3.649-1.764,7.535-0.098,10.939   c1.664,3.407,4.75,5.768,8.69,6.647l22.396,4.99c1.049,0.234,2.076,0.352,3.054,0.352c3.446,0,6.395-1.491,8.089-4.092   c1.841-2.828,1.943-6.448,0.288-10.197L328.453,278.533z" fill="#FFFFFF"/>
	<path d="M185.041,4.832c-46.447,0-84.235,37.788-84.235,84.235c0,46.448,37.788,84.237,84.235,84.237s84.235-37.789,84.235-84.237   C269.276,42.62,231.488,4.832,185.041,4.832z M194.021,126.468c-0.126,0.03-0.98,0.103-0.98,0.934v8.879   c0,2.428-1.544,4.26-4.035,4.26h-4.029c-2.49,0-4.936-1.831-4.936-4.26v-8.438c0-0.623-0.474-0.865-0.609-0.885   c-0.499-0.077-11.623-1.848-17.425-4.87c-1.454-0.758-2.538-2.461-1.799-4.56l2.101-5.619c0.627-1.684,2.207-2.771,4.004-2.771   c0.66,0,1.306,0.145,1.91,0.432c0.094,0.044,9.546,4.47,16.528,4.47c8.176,0,13.884-4.383,13.884-10.66   c0-5.768-4.029-9.7-13.907-13.578c-12.355-4.696-23.8-10.953-23.8-24.799c0-11.107,7.513-19.911,19.532-22.773   c0.257-0.061,0.96-0.343,0.96-0.992l-0.01-8.383c0-2.43,2.027-4.314,4.513-4.314h3.899c2.488,0,4.516,1.885,4.516,4.312l0.03,8.015   c0,0.625,0.534,0.715,0.687,0.742c0.097,0.017,9.619,1.646,14.491,3.768c1.465,0.633,2.612,2.391,1.855,4.416l-2.173,5.555   c-0.635,1.622-2.167,2.668-3.899,2.668c-0.71,0-1.425-0.182-2.064-0.522c-0.054-0.029-6.123-3.149-14.036-3.149   c-8.946,0-12.119,4.894-12.119,9.084c0,5.236,3.457,8.135,15.415,12.929c15.719,6.209,22.308,14.017,22.308,26.1   C214.835,114.223,206.826,123.591,194.021,126.468z" fill="#FFFFFF"/>
	<path d="M185.042,196.778c-46.448,0-84.236,37.788-84.236,84.235c0,46.449,37.788,84.237,84.236,84.237   c46.447,0,84.234-37.789,84.234-84.237C269.276,234.565,231.489,196.778,185.042,196.778z M220.038,316.204   c-8.037,7.037-17.124,10.912-27.816,10.912c-17.945,0-32.187-10.931-39.066-26.349c-0.158-0.355-0.134-1.227-1.465-1.227h-11.165   c-3.454,0-6.254-2.545-6.254-6c0-3.454,2.8-6,6.254-6h8.02c1.112,0,0.954-0.759,0.929-1.089c-0.084-1.103-0.128-2.266-0.128-3.389   c0-1.235,0.019-2.112,0.121-3.322c0.018-0.222,0.281-1.2-0.742-1.2h-5.314c-3.454,0-6.255-2.546-6.255-5.999   c0-3.454,2.8-6.001,6.255-6.001h8.024c1.534,0,1.918-1.709,2.279-2.456c7.133-14.773,21.033-25.082,38.507-25.082   c7.761,0,14.166,1.999,20.848,5.869c2.989,1.731,4.008,5.535,2.277,8.523c-1.732,2.99-5.559,3.997-8.548,2.266   c-4.778-2.766-9.016-4.236-14.578-4.236c-10.313,0-18.254,5.151-24.023,12.82c-0.515,0.683-1.522,2.295,0.626,2.295h16.424   c3.454,0,6.254,2.546,6.254,6.001c0,3.453-2.8,5.999-6.254,5.999h-21.743c-1.278,0-1.469,1.124-1.495,1.343   c-0.143,1.206-0.155,1.851-0.155,3.094c0,1.048,0.055,2.197,0.158,3.217c0.041,0.412,0.148,1.346,1.184,1.346h19.164   c3.454,0,6.255,2.546,6.255,6c0,3.455-2.8,6-6.255,6h-14.305c-1.227,0-0.858,0.869-0.617,1.218   c5.703,8.264,14.004,13.77,24.782,13.77c7.659,0,13.82-2.736,19.575-7.775c2.601-2.277,6.552-1.994,8.827,0.604   C222.898,309.957,222.636,313.929,220.038,316.204z" fill="#FFFFFF"/>
</g>
<g>
</g>
<g>
</g>
<g>
</g>
<g>
</g>
<g>
</g>
<g>
</g>
<g>
</g>
<g>
</g>
<g>
</g>
<g>
</g>
<g>
</g>
<g>
</g>
<g>
</g>
<g>
</g>
<g>
</g>
</svg>
