
<svg xmlns="http://www.w3.org/2000/svg" version="1.1" xmlns:xlink="http://www.w3.org/1999/xlink" preserveAspectRatio="none" x="0px" y="0px" width="500px" height="356px" viewBox="-13628 -13582 23700 23556">
<defs>
<path id="Layer0_0_1_STROKES" stroke="#000000" stroke-width="1" stroke-linejoin="round" stroke-linecap="round"  d="
M 114.95 295.9
Q 113.3 294.85 113.3 293.85 113.3 292.3 113.55 291.85 114.25 291.1 114.4 290.6 114.5 290.3 114.25 289.75 113.8 288.6 113.75 288.5 113.35 287.3 113.1 286.9 112.85 286.5 112.9 285.55 112.95 284.65 113.2 284.05 113.8 282.5 114.2 281.9
L 115.35 280.3 115.85 280.45
Q 116.4 280.6 116.75 280.9 117.7 281.65 119.25 282.2 119.65 282.35 120.85 282.4 121.8 281.5 121.95 281 122 280.85 121.95 279.7 121.9 278.65 122.1 278.3 122.5 277.55 122.55 277.5 122.75 277.2 123.05 277.35
L 124.5 278.05
Q 125.55 278.65 125.7 278 125.75 277.85 126.2 276.8 126.35 276.45 126.7 276.05 127.1 275.6 127.35 275.5 127.7 275.35 128.7 274.5 129.2 274.2 128.9 273.3 128.8 273.05 128.85 272.45 128.9 271.85 129.05 271.6 129.15 271.45 129.3 271.45 129.5 271.4 129.85 271.1 130.55 270.55 131.6 270.2 132.35 269.95 133.1 270.25 133.4 270.4 134.1 269.65 134.9 268.7 135.2 268.4 135.45 268.15 136.25 267.65 136.85 267.25 136.95 267 137.2 266.25 137.2 265.25 137.3 264.9 137.35 264.7 137.4 264.35 137.05 263.9 136.75 263.5 136.25 263.1 135.75 262.7 135.6 262.45 132.65 259.15 132.4 258.9 131.85 258.35 131.85 257.55 131.85 257.3 132.3 256.8 132.85 256.25 133.05 256 133.25 255.8 133.7 255.5 134.1 255.25 134.3 255 135 254.15 135.45 254.35 135.65 254.45 135.9 254.6 136.05 254.6 136.25 254.35 136.5 253.95 136.65 253.75 136.9 253.35 137.15 253.25 138.05 252.85 138.75 252.8 139.3 252.75 139.85 252 140.35 251.3 140.45 250.7 140.6 250 140.6 249.7 140.65 249.1 140.45 248.7 139.9 247.7 139.25 247.1 138.75 246.75 138.5 246.6 138.1 246.3 138 245.75 137.75 244.65 138.15 243.8 138.45 243.25 138.55 243 138.75 242.6 138.75 241.95 138.75 241.45 139 240.2 139.3 239 139.25 238.6 139.25 238.3 139 237.7 138.8 237.25 138.95 236.9 139.1 236.5 139.55 236.05 140.05 235.55 140.2 235.35 140.55 234.95 140.6 234.85 140.75 234.55 140.8 233.8 140.95 232.4 141.4 232.1 142.3 231.75 143 231.3 143.9 230.7 144.45 230.35 145.45 229.7 146.1 229.55 147.1 229.35 148.2 229.15 148.6 229 148.85 228.5 149.15 228 149 227.55 148.95 227.45 148.5 226.75 148.25 226.4 148.55 226.2 148.85 226 149.65 225.9 150.05 225.85 150.35 225.85 151.85 226.05 150.95 225.25 150.2 224.65 150 224.45 149.7 224.2 149.6 223.9 149.45 223.45 149.45 222.7
L 149.4 221.05
Q 149.3 219.2 149.75 218.45 150.15 217.8 150.3 217.65 150.6 217.3 151.35 216.8 151.7 216.55 152.55 215.65 153.1 215.05 153.65 215.05 154.15 215.05 154.85 215.1 155.4 215.1 155.9 214.9 156.4 214.7 157.05 213.7 157.8 212.45 158.05 212 158.55 211.3 158.75 211.05 159.1 210.55 159.25 209.75 159.4 209 159.65 208.4 159.85 207.8 159.85 207.65 159.9 207.05 159.15 206.3 158.6 205.75 158.5 205.55 158.25 205.1 158.5 204.6 158.95 203.9 159.1 203.65 159.4 203.15 159.05 202.8
L 157.35 201.25
Q 156.5 200.5 156 198.35 155.95 198.05 156.25 197.35 156.4 197 155.3 195.75 154.25 194.55 153.3 193.9 152.45 193.3 152.3 193.1 152 192.7 152.15 192.25 152.4 191.4 152.4 191.3 152.5 190 151.95 189.2 151.9 189.1 151.5 188.35 151.35 188 150.85 187.75
L 149.95 187.15
Q 149.55 186.9 149.15 187 148.3 187.25 147.75 188.05 147.55 188.35 146.05 187.55 144.55 186.8 144.25 186.15 144.05 185.7 144 185.05 143.95 184.4 143.75 183.9 143.5 183.1 143.35 182.9 143.2 182.6 142.65 182.55 142 182.55 141.75 182.55 141.35 182.55 140.75 182.2 140.05 181.75 139.1 180.8 138.55 180.25 137.75 180.25 136.05 180.25 135.1 179.5
L 134.3 179.1
Q 134.05 178.95 134.05 178.4 134.05 178.15 134.3 177.35 134.4 176.95 134.05 176.55 133.9 176.4 132.7 175.4
L 131.9 174.75
Q 131.65 174.6 131.3 174.55 131.1 174.55 130.8 174.7 130.5 174.85 129.95 174.75 127.75 174.3 127.2 172.75 126.95 172 126.4 171 125.8 170 125.6 169.6 125.25 168.9 124.4 167.65 122.35 164.65 122 164.3 121.45 163.75 121.35 163.55 121.2 163.25 121.15 162.5 121.1 161 121.3 160.4 121.55 159.2 121.9 158.7 122.55 157.25 123.2 156.55 123.75 156.05 123.95 155.9 124.2 155.65 124.4 155.1 124.55 154.7 124.55 154.1 124.55 153.5 124.75 152.9 125.4 151.15 125.95 150.6 128.3 148.25 129.25 148.1 130.45 147.9 131.9 147.4 134.55 146.7 134.7 146.7 134.9 146.7 135.55 146.55 136.25 146.45 136.8 146.8 137.7 147.4 137.95 147.5 138.4 147.75 138.65 147.55 138.8 147.45 138.95 146.9 139.05 146.45 139.35 146.4 139.9 146.35 140.75 146.4 141.15 146.35 141.95 145.9 142.2 145.75 142.35 145.4 142.55 144.95 142.45 144.55 142.2 143.65 142.2 142.85 142.15 142 142.2 141.65 142.25 141.1 142.7 140.65 143.35 140 144.35 139.3 145.55 138.5 146.4 138.25 147 138.1 148.45 138.05 149.6 138 149.85 137.8 150.05 137.65 150.35 136.8 150.7 135.9 151.15 135.35 151.6 134.85 152.05 134.2 152.45 133.8 153.1 133.75 154.9 133.6 155.9 132.8 156.25 132.55 156.8 132.1 157.25 131.75 157.6 131.15
L 158.7 129.45 160.15 127.9
Q 161.7 126.3 162.05 125.75 162.45 125.2 163.4 124.95 164.1 124.75 164.55 124.8 164.75 124.85 165.5 125.05 166.25 125.2 166.75 125.15 168.3 124.95 168.9 124.4 169.2 124.15 169.6 123.85 169.9 123.6 169.95 122.85 170 122.4 169.65 121.4 169.4 120.65 169.8 120.25 170.55 119.55 172.25 118.75 172.4 118.65 173.2 118.3 173.6 118.15 173.8 117.6 174.1 116.75 174.2 115.65 174.35 114.3 174.05 113.65 173.8 113.05 173.05 112.45 172.15 111.7 172.05 111.6 171.15 110.5 170.95 109.85 170.65 109.2 170.55 108.95 170.4 108.5 170.6 107.8 170.9 106.8 171.55 105.8 171.75 105.55 172.25 105.2 172.55 104.95 172.75 104.25 173.3 102.3 173.3 100.6 173.25 99.95 173.25 99.65 173.25 99.1 173.45 98.65 174.1 97.2 174.55 96.6 174.75 96.35 175.25 95.8 175.65 95.3 175.7 94.85 175.75 93.95 175.8 93.85 175.9 93.35 176.3 92.75 177.45 91.15 176.45 90.25 175.75 89.7 175.6 89.5 175.4 89.25 175.45 88.55
L 175.65 85.9
Q 175.8 84.75 175.8 84.6 175.75 83.75 175.15 82.85 174.4 81.7 174.3 81.15 174.15 80.4 174.7 79.75 175.1 79.3 175.55 78.7 175.9 78.3 176.8 77.9 178.35 77.2 179.2 76.6 180.85 75.45 180.7 73.8 180.6 72.5 179.95 71.7
L 179.9 71.25
Q 179.85 71.1 179 70.85 176.7 70.2 176.7 69.6 176.7 69.35 176.95 68.7 177.15 68.1 177.15 67.95 176.9 67.55 176.75 66.9 176.55 66.05 177.65 65.65 179.2 65.1 179.8 65.1 180 65.1 180.4 65.05 180.75 65.1 181.25 65.4 182.3 66.05 183.35 64.4 184.35 62.8 184.55 62.15 184.7 61.35 184.85 60.85 185.05 59.85 185.25 59.7 185.8 59.3 187 59.15 188.1 59 189.05 58.5 190.55 57.7 191.25 58 191.4 58.05 192 58.45 192.45 58.75 192.85 58.85 193.55 59 195.75 59.05
L 196.1 59.25
Q 196.5 59.4 196.7 59.25 198.15 58.3 198.45 58.25 198.65 58.25 199.05 58.1 199.5 58.05 200.2 58.3 200.35 58.35 202.1 58.9 203.25 59.25 203.6 59.5 204.6 60.15 205.2 59.65 205.6 59.3 206.2 58.2 206.95 57.3 207.4 57.15
L 209.5 56.45 210.45 55.95
Q 211.5 55.35 211.95 54.95 212.05 54.85 212.8 54.1 213.2 53.65 213.7 53.45 214.55 53.1 215.55 53.1 215.95 52.95 216.9 52.55 218.2 52.55 218.65 52.5 219 52.45 219.2 51.8 219.4 51.1 220.35 51 221.2 50.9 222.15 50.4 222.7 50.15 223.05 51.25 223.5 52.8 223.75 53.3 224.1 53.95 224.6 54 224.9 54 226.25 53.7 227.5 53.4 229.4 53.5 229.9 53.55 230.2 53.5 230.5 53.5 231.25 53.75 231.9 54 232.95 54.5 233.8 54.8 234.25 54.6 235.35 54.05 235.85 53.5 236.4 52.9 237.5 52.05 237.85 51.8 238.7 51.5 239.6 51.25 240.2 51.25 242.05 51.25 242.65 51.6 243.35 52 245.2 53.65 245.6 53.95 247.2 54.1 248.5 54.4 248.95 55.05 249.4 55.65 250.45 56.1
L 251.35 55.65
Q 252.25 55.15 252.55 54.85 253.6 53.7 254.8 53.65 255.15 53.65 255.85 53.4 256.2 53.3 256.35 53.6
L 257.15 55.5
Q 257.7 56.6 258.2 57.05 258.5 57.3 260.7 57.1 262.8 56.95 263.45 56.7 263.85 56.55 264.4 56.25 265 56 266.1 56 266.8 56 267.8 55.95 268.25 55.9 268.75 56 270.65 56.45 271.1 57.05 271.3 57.3 271.5 57.7 271.7 58.05 272.2 58.15 272.6 58.25 273.3 58.5 273.85 58.6 274.1 58.2
L 275 56.7
Q 275.3 56.15 276.15 55
L 277.35 53.35
Q 279.2 50.85 280 50.2 280.6 49.7 280.9 49.55 281.4 49.3 281.95 49.45 282.35 49.55 283.5 50.05 284.8 50.6 285.7 50.85 289.75 52.05 292.8 53.45 293.55 53.8 294.7 54 296.15 54.25 296.5 54.35 297.2 54.55 312 54.5 319.35 54.5 326.6 54.4
L 327 35.4 328.05 24.65
Q 328.2 23.95 328.55 20.35
L 328.85 16.9 329.8 16.8
Q 330.75 16.75 331 16.8 332.1 17.1 332.95 16.9 334.45 16.6 334.8 16.8 335.3 17.1 336 17.95 336.5 18.35 337.05 18.6 337.6 18.85 337.8 19.05 338.3 19.45 339.05 19.9 339.9 20.45 340.15 20.45 341 20.45 341.55 19.9 342.45 19 343 18.9 343.4 18.8 344.2 18.95 344.65 19.05 345.6 19.25 345.8 19.3 348.5 19.9 351.1 20.45 352.55 20.65 354.1 20.85 366.9 20.85 373.3 20.9 379.4 20.85
L 387.1 20.65
Q 386 30 385.75 30.95 385.5 31.9 383.85 39.4 383.65 40.25 382.5 42 381.5 43.65 381.4 44.3 381.05 47.2 380.75 47.75 380.15 48.9 379.9 49.8
L 378.3 55
Q 377.85 56.5 376.8 59.4 375.7 62.4 375.2 63.35 373.1 67.4 373 68.35 372.95 68.8 372.8 69.5 372.7 70.1 372.8 70.7 373.05 72.35 372.8 73.75 372.75 74.1 372.25 74.95 371.8 75.75 371.7 76.35 371.6 76.9 371.3 79.3 370.95 81.55 370.7 82.15 370.5 82.65 370.25 83 370.1 83.4 369.95 84.55 369.85 85.4 368.85 88.95 367.95 92.3 367.9 93.2 367.85 94.85 367.2 102.95 367.15 104.2 366.45 106.15 365.75 108.05 365.75 109.05 365.75 112.1 365.2 116.2 365.05 117.45 364.2 119.7 363.95 120.35 363 122.45 362.6 123.35 361 126.1 359.45 128.8 358.9 129.55 358.15 130.65 357.2 132.65 356.05 135.1 356.05 136.3 356.05 140.05 355.35 143 354.9 144.95 354.45 145.95 353.75 147.65 352.55 148.6 351.5 149.45 349.45 151.85 347.2 154.45 347.05 154.6 346.6 155.05 344.6 156.4 343.7 157 342.9 157.9 339.95 161.45 338.2 163.1 335.8 165.35 331.05 170.2 329.35 171.9 327.25 172.95 325.05 173.85 324.3 174.2 321.2 175.75 318.45 176.8 317.5 177.15 316.7 177.25 315.85 177.3 315.4 177.45 313.45 178.05 312.9 178.55 312.8 178.65 311.3 180.35
L 308.1 184.05
Q 307.4 184.85 306.2 185.95 305.15 186.9 304.75 187.4 303.85 188.35 303.1 189.4 301.75 190.9 301.3 191.55 300.15 193.2 295.65 198.3 295.05 199 293.5 200.4 291.95 201.9 291.5 202.35 287.95 206.7 286.85 207.55 286.05 208.2 281.05 215.2 278 219.05 277.25 220.55 276.9 221.3 276.65 222 276.4 222.5 275.55 223.5 274.6 224.6 272.3 228.45 270.1 232 269.15 233.9 269.05 234.1 266.85 238.1 265.3 240.9 264.9 242.05 264.25 243.95 264.05 245.5 263.8 246.45 264.75 246.8 265.7 247.15 265.55 248.15 265.5 248.7 263.9 250.85 262.35 252.95 261.35 253.9 258.6 256.55 255.8 259.9 255.05 260.8 254.75 261.4 254.4 262.1 253.95 262.8 253.65 263.35 252.2 266.55 250.9 269.6 250.15 270.65 249.45 271.7 248.25 274.45 247.05 277.2 246.75 277.65 246.25 278.3 245.6 279.95
L 244.7 282.4
Q 244.55 282.75 244.35 283.25 244.15 283.65 243.55 284.35 242.95 285.05 241.35 287.95 239.9 290.6 239.5 291.55 239.4 291.8 235.95 298.15 234.75 300.35 233.65 301.95 233.45 302.3 232.4 304.35 231.25 306.55 230.25 307.8 229 309.35 227.4 311.9 225.75 314.5 224.95 316.15 224.1 318 222.45 320.75 220.65 323.7 219.65 324.8 218.85 325.7 217.3 328.2 215.6 331 215.2 331.5 214.35 332.65 213.45 334 213.15 334.45 212.3 335.4 211.6 336.25 211.4 336.65 211.3 336.9 211.1 337.95 210.95 338.8 210.6 339.2 210 339.85 209.8 340 209.4 340.3 208.9 340.3 208.15 340.3 208 340.25 207.6 340.1 207.15 339.45 206.4 338.3 206.45 337.35 206.5 336.8 206.4 336.6 206.25 336.4 205.85 336.25 205.15 336.15 204.8 336.05 204.15 335.85 204.1 335.4 204.05 334.95 204.25 334.5 204.45 333.9 204.45 333.7 204.5 333.1 204.5 333 204.45 332.7 204.2 332.45 203.5 331.85 203.5 331.25
L 203.55 329.7
Q 203.65 329.3 203.7 329.1 203.75 328.65 203.3 328 202.8 327.25 202.05 326.65 201.3 326.05 200.9 326.05 200.05 326.05 200.05 325.05 200.1 324.5 200.1 324.2 200 323.7 199.5 323.2 199.15 322.9 199.15 322.45 199.1 322.3 198.45 322.4 197.35 322.65 197 322.7 196.4 322.85 196.25 322.5 196.2 322.4 196.15 321.9 196.15 321.7 195.75 321.7 194.05 321.7 193.65 321.4 193.5 321.3 193.25 320.75
L 193.05 320.2 192.15 319.5
Q 191.6 318.8 191.6 318.35 191.65 317.85 191.65 317.65 191.6 317.25 191.4 317.2 191.2 317.15 190.65 317.35 190 317.55 189.9 317.55 189.25 317.55 188.3 317.15 187.55 316.85 187.1 316.45
L 184.25 314.35
Q 184 314.15 183.2 313.75 182.8 313.55 182.7 313.1 182.5 312.25 182.4 312.1 182.15 311.65 181.55 311.5 180.8 311.25 180.55 311.2 180.2 311.15 180.1 311.6 180.05 312 180 312.5 180 312.85 179.7 312.8 179.55 312.8 179.2 312.5 178.9 312.25 178.4 312.2 176.7 312 176.4 311.65 176.1 311.3 176 311.25 175.85 311.15 175.25 311 174.75 310.9 174.25 310.55 173.6 310.1 173.4 310 172.4 309.55 171.65 309.9 171.45 310 171.15 310.5 170.8 310.85 170.2 310.65 169.25 310.4 168.9 310.3 168.3 310.15 168.05 309.8 168.05 309.75 167.85 309.25 167.8 309.05 167.15 308.85 165.75 308.4 164.75 307.85 163.95 307.45 162.65 306.3 161.5 305.35 161.05 305.25 159.15 304.85 158.65 304.9 158.3 304.95 158 305.45 157.7 305.95 157.2 306.05 156.65 306.15 155.7 306.1 154.35 306 154.3 306 153.25 306 152.65 306.8 152 307.65 151.4 307.85 150.8 308.05 148.95 307.35 148.65 307.3 148.5 307.2 148.25 307.1 147.4 306.45 146.25 305.55 146.05 305.45 145.6 305.2 144.7 305.05 138.4 303.65 137.25 303.4 136.15 303.2 135.75 303.15 135.1 303 134.95 302.7 134.75 302.35 134.7 302.2 134.65 301.95 134.7 301.4 134.9 299.75 134.8 299.4 134.65 298.75 134.55 298.6 134.3 298.15 133.7 297.9 132.1 297.3 131.25 296.95 131.1 296.9 130.4 296.5 130.05 296.3 129.4 296.2 128.6 296.1 128.35 296.4 128.15 296.6 128.15 297.45 128.15 298.65 127.45 300.3 127.25 300.85 127.1 301.65 126.85 302.1 125.9 301.8 124.5 301.35 123.95 301.15 123 300.9 122.2 300.9 121.35 300.9 120.45 300.45 119.7 300.05 119.25 299.55 118.55 298.35 118.05 297.65 117.75 297.2 117.1 296.75
L 116.5 296.15
Q 115.45 296.25 114.95 295.9 Z"/>
</defs>


<g id = '17604'  fill="white"  transform="matrix( 1, 0, 0, 1, 0,0) ">
<use xlink:href="#Layer0_0_1_STROKES"/>
</g>
</svg>
