<svg xmlns="http://www.w3.org/2000/svg" version="1.1" xmlns:xlink="http://www.w3.org/1999/xlink" preserveAspectRatio="none" x="0px" y="0px" width="500px" height="356px" viewBox="-12195 -12632 21700 21556">
<defs>
<path id="Layer0_0_1_STROKES" stroke="#000000" stroke-width="1" stroke-linejoin="round" stroke-linecap="round"  d="
M 26.85 268.4
Q 26.65 267.7 26.1 266.55 25.7 265.75 25.65 264.7 25.6 263.75 25.9 263.4 26.25 263 27.35 262.85 27.85 262.8 27.9 262.75 28.2 262.65 28.45 262.1 29.8 259.45 29.85 259.25 30.1 258.35 30.3 257.85 30.65 256.95 31.2 256.45 31.45 256.2 32.85 255.15 33.25 254.85 33.4 254.35 33.5 253.7 33.6 253.25 33.9 252.75 34.25 251.55 34.4 251.1 34.45 250.45 34.45 250.2 34.75 249.9 35.95 249.05 36.7 248.5 37.6 247.85 38.35 246.25 39 244.9 39 244.1 39 243.15 38.3 242.5 37.7 242 37.45 241.8 37.05 241.45 37.05 241.25 37.05 241.1 37.6 240.75 38.25 240.35 38.35 240.25 38.7 239.95 38.85 239.8 39.15 239.45 39.25 239 39.35 238.6 39.2 238.2 39 237.6 38.95 237.35
L 38.75 236.45
Q 38.7 236.05 38.8 235.85 38.85 235.75 40.25 234.45 41.6 233.2 41.8 232.7 42.25 231.6 43.2 231.6
L 45.55 231.65
Q 46.2 231.7 47.2 231.5
L 46.95 228.5
Q 46.9 227.95 46.7 227.35 46.35 226.35 46.25 226.05 46.05 225.35 45.95 224.4
L 45.9 223.55 47.85 226.2
Q 48.8 227.7 49.2 228.15 49.55 228.55 49.8 228.5 50 228.45 50.35 228.1 51.1 227.2 51.7 226.5 52.3 225.8 52.6 225.6 53.1 225.2 53.75 225.2 54.25 225.2 55 225.4 55.85 225.6 56.5 225.65 57.45 225.7 59.5 226.3 61.45 226.85 62.15 227.2 63.65 227.9 63.8 227.9 64.35 227.9 64.35 226.3 64.45 224.2 64.45 223.95 64.5 223.75 64.45 223.65 64.4 223.5 63.95 223.25 63.35 222.95 62.65 222.25 62.05 221.65 62 221.15 61.75 220.05 61.65 219.6 61.55 219.25 60.45 218.15 59.3 217 58.6 216.65 57.55 216.2 57.2 216.05 56.65 215.75 57.15 215.45 58.6 214.85 58.95 214.65 59.35 214.4 59.35 213.05
L 59.05 209.75
Q 59.05 209.25 58.55 208 57.95 206.5 57.3 206.25 56.35 205.95 56 205.75 55.45 205.5 55.45 205 55.45 203.65 55.6 202.95 55.85 202.45 55.9 202.25 56 201.9 55.55 201.2 54.8 200.25 54.6 199.95 54.25 199.5 54.6 199.2 54.95 198.9 55.65 198.65 56.05 198.5 56.9 198.15 60.8 196.4 61.1 195.65 61.45 194.75 61.5 194.7 61.65 194.45 62 194.45 62.6 194.45 63.45 195.05 64.7 195.9 65 195.9 65.25 195.9 65.6 195.9 65.85 195.8 66.15 195.2
L 67.3 193.15
Q 67.75 192.45 69.65 192.3 72.1 192.15 73.35 192.35 73.9 192.45 76.4 192.7 79.15 192.95 79.95 192.9 80.85 192.85 81.15 192.75 81.45 192.65 81.65 192.3 82.05 192.1 82.05 192 82.1 191.9 81.35 190.8 80.35 189.6 80.15 189.3 79.95 189 80.3 188.25 80.5 187.8 80.65 186.8 80.75 186.15 81.3 185.8 82.1 185.15 82.45 184.85 83.1 184.35 83.9 184.2 84.75 184.05 85.85 183.35 86.65 182.8 87 182.45 87.2 182.25 88.35 182.55 89.5 182.85 90.05 183.15 91.65 184.05 91.95 184.9 92.2 185.65 92.55 185.85 93 186.2 94.3 186.2 95.45 186.2 97 185.2 99.1 183.85 99.25 183.8 99.9 183.55 100.65 183.05 101.4 182.6 101.85 182.45 102.35 182.3 102.95 182.1 103.3 181.95 103.4 181.6 103.45 181.4 103.25 180.55 103.05 179.9 103.4 179.8 104.05 179.65 105.35 179.8 105.75 179.85 106.4 179.95 106.95 180 107.15 179.75 107.85 179.2 108.3 178.75 109.15 177.9 109.2 177.4 109.35 175.3 109.05 175.2
L 107.25 175.15
Q 106.75 174.45 106.85 173.8 106.85 173.2 106.85 173 106.85 172.7 107.35 172.7 108.4 172.7 108.9 172.75 110.35 172.9 110.1 172.15 110 171.8 109.55 171.25
L 109.15 170.8
Q 108.35 170.2 108.55 169.75 108.95 168.85 109.75 168.85
L 111 168.9
Q 111.9 169.05 112.25 168.6
L 114.1 166.15
Q 114.4 165.75 114.25 165.45 114.2 165.25 113.8 164.9 113.25 164.4 113.35 163.85 113.5 163.25 112.6 162.65 111.65 162 111.2 162 110.25 162 109.25 162.3 108.65 162.55 108.4 162.6 108 162.7 107.95 162.5 107.85 162.1 108.25 160.9 108.45 159.6 108.8 159 109.25 158.2 110.5 158.15 111.85 158.05 111.55 157.4 111.25 157.05 111.15 156.9 111 156.7 111.35 156.5 112.05 156.1 112.1 156.05 112.3 155.85 112.05 155.4
L 110.95 153.55
Q 110.1 151.95 110.35 151.3 110.6 150.7 110.75 150.6 111.05 150.4 111.85 150.6 113.25 150.95 114.5 151.55
L 116.2 152.25
Q 116.9 152.5 118.2 152.6 118.5 152.15 119.15 151.55 119.75 151.1 119.95 150.95 120.3 150.65 120.4 150.2 120.45 150.1 120.5 149.1 120.55 148.55 120.75 148.45 121.35 148.1 123.15 148.25 124.55 148.35 132.2 148 132.85 139.8 132.8 138.85
L 132.75 136
Q 132.75 135.35 133 134 133.05 133.25 133.1 133 133.2 132.6 133.65 132.45 134 132.35 134.65 132.2 135.15 132 135.3 131.65 135.4 131.35 135.45 130.15 135.45 128.6 135.5 128.25 135.6 127.05 135.65 127 135.9 126.5 137.25 126.5 139.3 126.5 140.85 126.45 141.9 126.55 142.1 126.55 142.35 126.6 143.65 127.05 144.85 127.45 146.65 127.15 148.2 126.9 148.7 126.55 149.1 126.3 149.85 125.2 150.15 124.8 150.45 124.2 150.65 123.85 151 123.8 151.35 123.75 151.75 124.1 152.25 124.6 152.4 124.65 153.65 125.15 153.65 124.7
L 153.5 122.35
Q 153.5 121.6 154.55 121.6 155.2 121.6 156.25 121.25 156.7 121.2 157.75 120.35 158.3 119.9 159.2 119.1 159.55 118.85 159.95 118.35 160.35 118.05 160.95 118.05
L 163.95 118.05
Q 166.05 117.9 169.5 116.05 170.3 115.65 172.35 114.2 174 113.1 174.45 113.05 175.05 113 177.3 113.35 179.35 113.65 180.3 113.9 180.85 114.05 182.15 114.5 183.3 114.85 183.7 114.65 184.8 114.15 185 113.2 185.1 112.7 185.1 112.15 185 111.2 185 110.95 185 110.65 184.65 109.85 184.45 109.45 185.05 109.2 185.55 109 186.25 108.85 186.8 108.75 187.1 108.55 187.55 108.3 188.3 107.4 188.55 107.1 189.05 106.3 189.6 105.4 189.65 105.05 189.75 104.55 188.85 103.5
L 189 103.15
Q 189.2 102.85 189.65 102.8 190.2 102.75 190.3 102.65 190.45 102.55 190.8 101.85 190.95 101.6 191.3 101 191.45 100.75 191.5 100.4 191.55 100.1 191.25 99.75 190.95 99.4 190.9 99.1 190.8 98.5 190.75 98.25 190.75 97.8 191.1 97.55 191.9 97 192.55 96.05 193.8 94.2 193.55 93.45 193.3 92.65 192.65 91.6 191.95 90.4 191.4 90 190.8 89.55 190.7 89 190.55 88.4 191.05 88.05
L 192.65 86.95
Q 193.15 86.65 193.65 86.35 193.9 86.15 194.15 85.6
L 194.8 84.35
Q 192.65 83.85 192.05 83.8 191.1 83.6 190.85 83.6 190.65 83.6 190.5 82.95 190.3 82.35 190.3 81.75
L 189.8 72.55 190.4 72.05
Q 191.15 71.6 191.95 71.55 194.3 71.45 194.9 71.3 195.4 71.15 196 70.85 196.6 70.5 196.9 70.45 197.4 70.35 198.05 70.55 198.7 70.75 198.9 71.2 199.4 72.25 199.55 72.8 200 74.6 200.55 75 200.6 75.05 201.55 75.15 202.45 75.2 202.9 75.6 203.55 76.1 203.85 76.25 204.25 76.4 205.05 76.45 205.5 76.45 206.05 76.55 206.3 76.6 206.6 76.5 206.75 76.45 208.25 75.3 209.75 74.15 210.55 73.9 212.05 73.5 213.05 72.65 214.35 71.6 214.35 70.95 214.35 70.35 214.1 68.85 213.7 68.2 213.55 67.9 213.3 67.35 214.3 67.25 214.65 67.2 215.8 66.85 216.25 66.7 216.8 67.2 217.25 67.65 217.85 68.2 218.25 68.55 218.65 68.5 219 68.45 219.3 68.15 219.45 67.95 219.75 67.45 220.15 66.95 220.95 66.25 224 65.95 224.45 65.45 224.7 65.2 224.9 64.35 225.25 63.75 226.3 64.45 227.6 65.3 228.8 65.9 230.05 66.45 230.4 66.3 230.7 66.15 230.85 65.65 230.95 65.15 230.8 64.8 230.55 64.3 230.45 64.05 230.2 63.5 230.4 63.3 230.65 63 231.55 62.9 232.45 62.8 232.75 63.2
L 233.95 64.75
Q 234.25 65.1 234.45 65.5 234.65 65.7 235.2 65.8 235.95 65.95 237.1 66.6 238.3 67.35 238.45 67.85 238.55 68.25 238.6 68.7 238.7 68.95 239.4 69.1 240.5 69.3 241 69.3 241.35 69.4 241.9 69.5 242.35 69.6 243 69.4 243.5 69.25 243.95 69 244.3 68.85 244.7 68.75 244.85 68.7 245.45 68.5 245.8 68.4 246.55 68.4 247.7 68.4 249.1 68.85 250.7 69.4 250.9 70.1 251.05 70.65 251.05 71.25 251.05 71.8 251.15 72.15 251.25 72.6 251.85 72.9 252.55 73.35 252.65 73.45 252.85 73.7 253.2 74.2 253.55 74.6 254.05 74.7 254.9 74.85 257.65 74.9 257.85 74.95 259.15 75.05 260.4 75.3 260.35 75.85 260.3 76.5 260.5 76.75 260.65 77 260.9 76.7 260.95 76.65 261.15 76.05 261.25 75.7 261.7 75.7 262.45 75.7 263.2 76.5
L 263.85 76.4
Q 264.55 76.25 264.9 76 265.2 75.8 265.55 75.5 265.85 75.25 266.6 75.25 267.3 75.25 267.75 74.9 268.05 74.7 268.6 74.25 268.95 74.05 269.45 73.5 269.85 73.15 270.3 73.55 270.9 74.1 272.1 75.75 272.75 76.65 274 75.6 274.65 75 274.8 74.95 275.1 74.75 275.65 74.8 277.05 74.9 277.25 74.85 278.75 74.6 278.7 73.65 278.55 72.85 278.5 72.5 278.4 71.95 278.8 71.6 279.15 71.35 279.45 70.95 279.8 70.65 280.5 70.6 281.65 70.5 282.7 70.4 283 70.45 283.7 69.95 284.45 69.4 284.1 69.1 282.75 68.45 282.3 67.65 281.45 66.15 282.75 66.15 283.35 66.15 285.25 65.85 286.8 65.6 287.4 66.35 287.7 66.75 288.1 66.9 288.5 67.1 288.7 66.95 288.85 66.85 289.25 66.7 289.6 66.55 289.65 66.3 289.8 65.65 289.8 64.6 289.7 64.3 289.7 64.15 289.75 63.95 290.4 63.95
L 291.9 64
Q 293.05 64 294.55 63 295 62.7 295.65 62.3 296.1 62.05 296.4 62.45 296.95 63.1 297.15 63.25 297.65 63.55 298.45 63.45 299.6 63.3 299.75 63.3 300.1 63.2 300.4 62.85 301 62.2 299.65 60.75 299.1 60.15 299.05 59.75 298.95 59.25 299.55 59.3 300 59.35 300.65 59.55 301.3 59.8 301.7 59.8 302.1 59.85 302.8 60 303.35 60.1 303.45 59.75 303.65 59.1 303.65 59 303.65 58.65 303 58.55 302.2 58.5 301.95 58.5 301.55 58.4 301.5 57.95 301.45 57.5 301.55 56.75
L 301.7 56.15 304.05 56.25
Q 304.85 56.35 305.75 55.75 306.65 55.1 306.25 54.7 305.75 54.2 305.55 54.05 305.25 53.85 304.95 54 304.5 54.2 304.3 54.2 304 54.2 303.8 53.65 302.95 52.25 302.95 51.65 302.95 51.15 303.45 50.85 304 50.5 304.45 50.8
L 306 51.85
Q 306.35 52.05 307.6 51.6 308.25 51.35 309.35 50.9 310.95 50.4 311.3 52.1 311.55 53.3 311.65 53.6 311.8 54.05 312.2 54.55 312.6 55.05 312.9 55.15 313.05 55.2 313.9 55.35 315.75 55.65 316.3 56.7 316.6 57.3 316.9 58.8 317 59.25 317.25 59.4 317.4 59.45 317.95 59.7 319.15 60.45 319.25 61.1 319.25 61.2 319.25 61.95 319.2 62.4 319.5 62.8 319.85 63.25 320.25 63.55
L 321.3 64.15
Q 324.1 65.75 324.7 66.75
L 326.15 68.95
Q 326.6 69.65 327.55 70.3 328.9 71.25 330.45 71.4 332.6 71.6 332.75 71.6 333.35 71.6 334.05 71.35 334.45 71.2 334.85 70.85 335 70.65 335.5 70.9 336.65 71.45 337.1 72.45 337.35 72.95 338.85 73.65 340.25 74.3 340.8 74.3 341.45 74.3 343.25 74.5 344.6 74.55 345.8 74.55 345.9 74.55 346.55 74.5 346.85 74.45 347.4 74.85 348.3 75.55 349.15 75.7 348.6 73.15 348.6 72.35 348.6 71.35 348.65 71.15 348.75 70.55 349.3 70.2 351.25 69.05 351.7 68.65 352.25 68.15 352.25 66.65 352.1 66.2 352 65.85 351.9 65.2 352.35 64.65 353.7 63.05 353.05 62.75 352.45 62.5 352.15 62.35 351.65 62.1 351.5 61.8 350.8 60.4 351.6 60.05 351.95 59.9 353.2 59.25 354.55 58.6 355.55 58.4 356.75 58.2 357.3 57.8 357.85 57.4 358.2 56.6 358.8 55.15 358.8 54.1 358.8 53.6 358.35 52.6 357.8 51.35 357.15 51 354.9 49.75 354.9 49.4 354.9 49.05 355.25 48.55 355.6 48.05 356.15 47.75 356.55 47.55 357.2 47.25 357.75 47 358.5 47 359.1 47 360.15 47 360.95 46.95 361.2 46.65 362.55 44.95 363.6 43.25 363.85 42.8 363.85 42.15 363.85 41.55 364.2 41.15 364.55 40.75 364.85 40.25 365.1 39.8 365.75 39.45 366.5 39.05 367.35 39.05 368.05 39.1 368.45 39.4 369.25 40 371.4 39.8 372.3 39.7 373.35 38.9 373.9 38.45 374.65 37.8 375.6 37.25 376.9 37.7 379.55 38.6 379.95 38.6 380.65 38.65 382.45 38.35 384.35 38.05 384.9 37.75 385.3 37.55 385.7 37.1 386.2 36.8 387.65 36.85 388.3 36.9 390.1 37.05 390.85 37.1 391.05 36.95 391.25 36.85 392.1 36.1 393 35.4 393.5 35.2 395.1 34.5 396.05 33.85 397.15 33.1 403.05 29.6 403.65 29.15 404.2 29.45 404.65 29.7 405.3 30.7 406.75 32.85 407.7 33.75 407.9 33.9 408.65 34.4 409.1 34.7 409.35 35.2 409.75 36.05 409.8 36.35 409.95 36.85 409.7 37.2 409.55 37.45 408.9 38 408.3 38.55 408.15 38.75 408.1 38.85 407.5 39.35 407.1 39.75 407.05 40.1 407 40.5 406.2 40.75 405.5 40.95 404.9 40.95 403.6 40.95 403 41.25 402.3 41.55 402 41.75 401.4 42 401.4 42.2 401.4 42.5 401.65 43.55 401.7 43.75 401.95 44.3 402.15 44.85 401.6 45.15 399.45 46.4 399.35 47.25 399.3 47.8 398.05 47.8 396.7 47.7 396.4 47.7 396 47.7 395.8 48 395.65 48.2 395.35 49.1 394.55 51.45 394.45 51.65 394.2 52.05 393.55 51.75 392.7 51.15 392.05 50.9 390.05 50.1 389.35 50.1 389.2 50.1 389.05 50.6 388.8 51.25 388.75 51.35 388.25 51.7 387.85 52.05 387.15 52.75 387.25 53.9 387.35 54.85 387.35 55.8 387.4 56.35 387.95 56.9 389.15 58.1 389.2 58.8 389.25 59.05 388.8 59.45 388.3 59.95 388.2 60.35 387.9 61.95 387.9 62.5 387.9 63.25 387.95 63.5 388.1 64 388.6 64.15 388.95 64.25 389.8 64.15 390.55 64.1 390.8 64.3 391.45 64.8 392.25 66.25 392.5 66.7 393.45 67.25 394.45 67.9 395.65 68.25 397.15 68.7 398.4 68.85 399.05 68.95 399.6 69.05 399.95 69.05 400.2 68.85 400.8 68.35 400.8 67.1 401.05 65.5 401.05 64.75 401.05 64.15 401.4 63.8 401.7 63.45 402.15 63.75 402.45 63.95 403.2 64.3 404.1 64.65 404.7 65 405.25 65.3 406.05 65.7 406.65 65.95 406.8 66.15 407.35 66.9 407.05 68.25 406.95 68.7 406.75 69.3 406.65 69.7 406.95 69.85 407.7 70.2 408.8 70.4 409.8 70.55 413.1 71.35 417.3 72.3 418.1 72.75 418.75 73.1 419.8 74 420.75 74.8 421.1 74.95 421.55 75.15 422.1 74.75 422.4 74.5 423.1 73.9 423.5 73.7 423.9 73.4 424.2 73.2 424.85 73.3 425.35 73.4 426.05 73.5 426.6 73.55 427.15 73.3 428.05 72.9 428.8 72.45 430.15 71.8 430.9 72.35 431.1 72.5 432.65 74.05 432.75 74.15 434.45 74.7 436.25 75.3 436.8 75.7 437.25 76.05 437.9 76.75 438.4 77.35 438.75 77.45 439.05 77.55 439.5 77.1 440 76.6 440.9 76.6 442.45 76.6 442.9 77.25 443 77.4 443.3 77.1 443.8 76.9 444.75 77.7 446.05 78.8 446.4 79.05 446.85 79.35 447.15 79.15 447.3 79.05 447.45 78.5 447.6 78.05 448.1 77.95 448.95 77.8 449.6 77.9
L 449.85 78.2
Q 450.15 78.6 450.3 79.05 450.5 79.55 452.5 81.2 454.4 82.8 455.25 83.25 455.95 83.6 456.9 83.65 457.65 83.7 458.05 83.5 458.3 83.4 458.6 83.15 458.85 83.1 458.9 83.75 459.05 85.05 459.55 85.4 459.8 85.55 459.95 85.95 460 86.15 460.15 86.9 460.4 87.9 462.25 87.65 462.65 87.6 463.85 87.8 465.15 88 465.35 88.25 465.5 88.4 465.55 88.95 465.6 89.5 465.8 89.85 466.35 90.85 467.4 91.1 467.7 91.2 468 91.15 468.2 91.2 468.6 91.8 469.75 93.45 469.7 93.9 469.7 94.1 469.4 94.4 469.15 94.7 469.2 95.2 469.25 95.75 469.4 96.15 469.65 96.9 469.7 97.05 469.75 97.25 469.75 98.35 469.8 99.05 470.25 99.45 470.65 99.8 471.4 99.85 472 99.9 472.15 100.3 472.15 100.35 472.1 101.95 472.05 103.1 472.8 103.45
L 474.2 103.9
Q 474.55 104 474.25 104.35 473.15 105.55 472.85 106.25 472.35 107.45 471.85 107.75 471.7 107.85 471.2 108.6 470.75 109.35 470.35 109.6 470 109.85 469.85 110.2 469.7 110.7 469.3 111.1 468.25 112.15 467.65 112.75 466.55 113.85 466.3 114.45 466.05 115.05 465.7 115.5 465.1 116.15 464.5 116.8 464 117.35 463.05 119.3 462.25 120.9 461.7 121.15 461.1 121.45 459.45 123 457.1 125.15 456.8 125.4 455.15 126.95 454.25 127.7 452.7 129.05 451.85 129.3 451.2 129.5 449.95 129.65 448.85 129.75 448.45 129.95 447.85 130.25 447.6 130.4 447.25 130.65 446.7 131.4 445.9 132.3 445.45 133 445.2 133.35 445.1 133.95 445 134.45 444.85 134.6 444.45 135.05 441.5 137.55 441.1 137.9 440.3 138.3 439.7 138.55 439.55 138.95 439.15 139.95 438.05 140.7 437.35 141.5 436.3 142 435.65 142.3 434.65 143.3 433.55 144.45 433.15 144.8 432.65 145.25 432.15 145.55 431.6 145.85 431.3 146 430.95 146.2 430.6 146.25 430 146.35 429.8 146.4 429.35 146.4 429.1 146.45 428.8 146.5 427.95 147.25 427.05 148.05 426.75 148.6 426.7 148.7 426.4 149.5 426.3 149.8 425.25 150.7 424.15 151.6 423.85 152.15 423.45 152.85 423.35 153.3 423.3 153.55 423.3 154.25 423.3 154.8 422.85 155.2 422.45 155.5 422.15 155.5 421.95 155.5 421.85 155.6 421.8 155.65 421.25 156.2
L 419.8 157.8
Q 419.15 158.25 418.8 158.5 418.2 159 418 159.9 417.7 161.4 416.65 162.65
L 415.15 164.55
Q 414.7 165.4 414.05 165.55 413.45 165.65 413.2 165.75 412.8 165.85 412.65 166.05
L 412.1 167
Q 411.5 167.75 411 168.4 409.95 169.7 409.9 170.4 409.85 171.1 408.85 172.1 407.5 173.5 407.4 173.65 406.3 175.3 405.5 175.95 405.15 176.25 404.65 176.9 404.15 177.55 403.9 177.7 402.85 178.45 402.1 179.45 400.2 181.6 400 181.85 397.55 185.3 396.95 186 394.75 188.55 394.65 188.8 394.1 190.05 392.75 190.65 391.75 191.1 391.55 191.25 391.15 191.5 390.9 192 390.7 192.4 390 193 389.25 193.6 389.05 193.95 388.8 194.35 388.3 194.8 387.8 195.25 387.7 195.45 387.55 195.85 387.5 196 387.4 196.3 386.95 196.65
L 385.6 197.85
Q 385.35 198.05 384.25 199.25 383.05 200.6 382.5 201.35 381.3 203.05 381.3 203.1 381.25 203.3 380.1 203.95
L 378.5 204.8
Q 378.4 205.1 378.05 205.55 377.85 205.85 377.25 206.1
L 376.75 206.35
Q 376.7 206.75 376.5 207.1
L 375.95 208.1
Q 375.95 208.25 375.7 208.75 375.6 209 374.85 209.55 374.1 210.1 373.85 210.45 373.8 210.55 373.2 211.6 372.85 212.2 372.6 212.2 372.55 212.2 372.2 212.05 372 211.95 371.5 212.2
L 370.15 213.1
Q 368.75 213.2 368.35 213.35 368.1 213.45 367.45 214.4 366.85 215.4 366.7 215.55 365.2 217.35 364.85 218.15 364.2 219.65 363.5 219.95 363.25 220.05 363 220.05 362.7 220 362.1 220.2 361.25 220.5 359.8 221.55 358.55 222.5 358.35 222.8 357.95 223.35 353.25 225.1 351.55 225.7 350.5 226.45 349.15 227.35 349.1 227.8 349.05 228.15 349.15 229.1 349.15 229.6 348.25 231.3 347.3 233.2 346.6 233.65 346.1 233.95 345.05 235.2 344.05 236.3 343.5 236.6 342.4 237.25 341.25 237.8 340.4 238.15 340.2 238.25 339.9 238.35 339.65 238.7 339.25 239.5 338.75 240 338.2 240.45 337.95 240.7 337.55 241.05 337.45 241.35 337.05 242.6 336.65 242.85 332.55 245.1 331.7 245.85 331.1 246.4 330.3 246.75 329.45 247.1 329.05 247.25 327.05 248.05 326.7 248.3 326.55 248.4 326.4 248.85 326.25 249.2 325.5 249.5 324.75 249.85 322.75 251.9 320.7 254.1 320.15 254.6 319.4 255.3 317.35 256.7 315.5 257.9 314.55 258.45 312.5 259.65 311.35 260.55 309.7 262.3 308 263.35 300 268.95 298.6 269.75 297.6 270.3 296.55 271.25 295.55 272.1 295.15 272.65 294.75 273.2 293.1 273.75 292.6 274 291.4 274.5 290.65 274.8 290 275.3
L 289.45 275.75
Q 289.95 277.4 289.3 277.7 288.55 278.05 287.8 278.1 287.2 278.15 286.25 278.65 285.15 279.2 284.6 279.85 284.05 280.5 283.7 280.7 283.5 280.85 282.75 281.1 281.85 281.4 280.35 281.55 279.45 281.65 278.85 281.95 277.15 282.9 275.75 284.05 274.7 284.95 273.45 285.1 273 285.15 272.2 285.45 271.3 285.75 271.05 285.8 269.95 286 268.5 286.4 266.2 287.05 265.3 287.75 263.1 289.5 260.7 290.85 260.05 291.25 258 292.2 257.55 292.45 256.6 293.05 255.75 293.6 255.25 293.8 255.05 293.9 253.85 294.5 252.9 295 251.9 295.25 250.55 295.6 250.2 295.7 249.65 295.85 249.25 295.8 248.9 295.75 248.35 295.6 247.65 295.3 247.25 295.2 244.65 294.8 244.05 294.7 243.7 294.65 243.15 294.85 242.45 295.05 242.15 295.1 241.65 295.15 240 294.75 238.45 294.4 237.5 294 235.6 293.2 234.1 292.6 231.3 291.45 230 291.2 228.25 290.85 224.65 290.75 220.7 290.65 219.1 291 218.65 291.1 215.1 291.7 212.55 292.1 211.6 292.5 210.45 293 207.75 294.65 205.2 296.25 204.05 297.1 203.35 297.65 202.1 298.55 201.2 299.25 200.9 299.8 200.45 300.65 198.95 306.85 198.7 307.55 198.8 307.9 198.85 308 199.25 308.6 200.1 309.85 201 310.2 203 310.95 203.35 311.4 203.8 311.95 204.45 313.8 204.7 314.15 204.55 314.35 204.35 314.65 203.4 314.4 201.55 313.95 201.15 314.1 200.6 314.35 200.15 315 199.8 315.5 198.4 315.45 196.45 315.35 195.75 315.2 195 315.05 193.3 314.75 191.3 314.4 190.65 314.4 188.55 314.4 187.8 314.55 187.25 314.65 186.3 314.45 185.35 314.25 184.6 313.85
L 182.5 312.8
Q 177.65 310.35 175.45 310 171.8 309.4 170.35 309.45
L 167.5 309.65
Q 162.75 310.1 160.7 311.05 159 311.75 158.5 311.95 157.85 312.25 157.8 312.75
L 157.55 314.85
Q 157.5 315.95 157.35 316.45 157.05 317.7 156.4 318.4 156.1 318.75 154.15 320.7 152.35 322.55 152.2 322.95 152.1 323.3 151.85 323.85 151.7 324.3 152.2 324.5 152.25 324.5 153.1 324.8 153.45 324.95 153.65 325.25 153.8 325.5 154.15 325.95 154.3 326.25 153.85 326.3 153.6 326.3 152.95 326 152.6 325.8 152.6 326.3 152.6 327.15 152.35 327.7 151.9 327.7 150.75 327.2 150.05 326.9 149.2 326.7 148.15 326.5 148.05 326.45 147.9 326.4 146.9 325.9
L 146.55 325.75
Q 146.35 325.7 146.1 325.85 145.6 326.15 144.85 326.05 144.7 326.05 142.2 325.2 141 324.75 140.75 324.65 140.4 324.55 139.8 324.65 138.6 324.9 138.5 325.3 138.4 325.6 138.1 325.7 137.7 325.8 137.25 325.6 136.9 325.25 136.65 325.1 136.25 324.75 134.95 324.65 132.1 324.4 130.1 323.3 129.5 323 128.55 322 127.6 321.1 127.05 320.8 126.9 320.7 125.8 320 125.2 319.6 124.6 319.6 122.75 319.8 121.55 319.65 120.85 319.55 116.1 317.85 116 317.8 113.35 316.65 112.5 316.25 112.1 316.2 112 316.15 110.35 315.95
L 107.4 315.5
Q 97.35 314.25 94.5 313.8 91.8 313.4 81.3 310.95 80.5 310.75 80.4 310.5 80.4 310 80.25 309.45 79.85 307.75 79.85 307.4 79.85 306.4 81.05 305.25 82.2 304 82.65 303.6 83 303.3 82.95 303.1 82.85 302.85 82.15 302.55 81.7 302.35 81.3 302.25 80.85 302.2 80.25 301.95
L 75.15 299.85
Q 74.75 299.6 74.65 298.15 74.6 297.15 74.55 297 74.5 296.5 74.15 296.25 73.75 295.85 73.55 295.75 73.3 295.55 72.8 295.95 71.45 297.05 70.8 297.05 68.8 297.4 67.15 297.15 65.45 296.9 64.75 296.85 64.25 296.8 64.6 296.4 65.15 295.6 65.2 295.5 65.4 294.9 65.9 294.2 66.3 293.75 66.45 293.45 66.7 293.05 66.8 292.4 66.9 291.75 67.25 291.45 67.35 291.35 68.15 290.9 70.05 289.85 70.45 289.7 70.95 289.55 71.85 289.35 72.55 289.1 72.85 288.6 73.05 288.3 73.2 287.6 73.3 287.15 73.6 287.05 74.2 286.9 75.3 287.25 76.05 287.5 76.95 287.5
L 79 287.5
Q 79.3 287.45 79.9 287.45 80.35 287.45 80.65 287.35 81.3 287.1 81.3 286.05 81.4 285.45 81.4 285.25 81.45 284.9 81.1 284.45 80.95 284.25 79.65 282.95 77.8 281.6 77.25 280.8 76.85 280.2 76.75 279.85 76.7 279.45 76.75 278.4 76.9 277.2 76.9 276.8 76.95 276.15 76.85 275.8 76.75 275.45 76.1 275.2 75.25 274.9 75 274.7 73.95 273.9 73.5 273.7 72.1 273.1 71.8 272.55 71.5 271.95 71.4 271.85 71.2 271.7 70.6 271.7
L 66.9 271.7
Q 65.4 271.7 63.75 271.35 62.25 271.05 62.05 271 61.75 270.95 61.25 270.5 60.75 270 60.5 269.5 60.15 268.8 60.05 268.75 59.75 268.45 59.1 268.45 55.45 268.45 54.7 268.3 54.05 268.15 51.65 268.05 49.55 267.9 48.7 267.9 48.25 267.9 47.75 268.15 47.15 268.5 46.7 268.6 46.1 268.75 45.7 268.45 45 268.05 44.8 268 44.3 267.9 44.05 267.95 43.6 268.1 43 268.2 41.85 268.6 40.75 268.8 36.15 269.65 34.45 269.55 30.65 269.35 30.2 269.3 29.35 269.2 28.1 268.8
L 26.85 268.4 Z"/>
</defs>
 
<g id = '17601'  fill="white" transform="matrix( 1, 0, 0, 1, 0,0) ">
<use xlink:href="#Layer0_0_1_STROKES"/>
</g>
</svg>
