
<svg xmlns="http://www.w3.org/2000/svg" version="1.1" xmlns:xlink="http://www.w3.org/1999/xlink" preserveAspectRatio="none" x="0px" y="0px" width="500px" height="356px" viewBox="-14100 -13767 24700 24556">
<defs>
<path id="Layer0_0_1_STROKES" stroke="#000000" stroke-width="1" stroke-linejoin="round" stroke-linecap="round"  d="
M 59.25 255.6
Q 58.65 251.5 58.7 250.25 58.75 249.4 59.35 248.3 59.85 247.35 60.4 246.85 60.9 246.35 61.1 246.1 61.45 245.75 62.15 245.45 62.85 245.25 63 245.1 63.05 245.05 63.9 243.7 65.7 240.75 66.55 238.75 66.95 237.6 67.15 237.05 67.55 236.1 68.35 235.3 68.8 234.85 70.3 233.9 71.55 233.15 72.35 232.05 73.65 230.35 74 230.05 74.6 229.45 75.6 229.4 76.8 229.3 77.15 229.2 77.65 229.1 77.9 228.7 78.5 227.8 78.65 226.65 78.85 225.25 79.9 224.05 80.25 223.65 80.95 223.15 81.7 222.55 82.1 222.5 83.6 222.25 84.1 222.25 85.05 222.25 86.8 221.45 88.35 220.7 88.7 220.35 89.4 219.65 90.2 219.65 91.2 219.65 91.5 218.7 91.65 218.1 91.75 217.2 91.7 216.7 91.7 216.5 91.65 216.15 91.95 215.65 92.4 215 92.55 214.8 92.75 214.45 92.65 214.2 92.25 213.15 92.25 212.6 92.25 212.35 92.45 211.7 92.7 211.1 92.65 210.9 92.6 210.7 92.2 209.95
L 91.75 209.25
Q 91.6 207.2 91.95 206.65
L 93.25 204.9 94 204.35
Q 94.4 204 94.4 203.15 94.4 202.3 94.8 201.6 95.3 200.6 95.35 200.45 95.75 199.1 95.75 197.7 95.75 196.6 95.85 196.05 96 195.25 96 193.25 96 192.6 96.85 191.5 97.75 190.4 97.75 189.75 97.8 189 97.4 188.4 97.05 187.85 97.1 187.7 97.55 186.9 97.8 186.45 97.95 186.2 97.9 185.5 97.85 184.75 97.85 184.35 97.85 183.95 98 183.5 98.25 182.8 98.35 182.15 98.55 179.7 98.8 178.85 98.95 178.35 99.7 176.95 100.65 175.2 100.65 175.15 101.15 174.1 100.95 172.95 100.85 172.35 101.2 171.8
L 101.55 171.35 102.65 172.55
Q 103.05 173 103.55 173.8 104.05 174.45 105.3 173.65 106.85 172.7 107.05 172.35 107.2 172.05 106.6 171.55 105.9 170.9 105.8 170.7 105.65 170.3 105.85 169.85 106 169.45 106.25 169.45 106.55 169.45 107.05 169.15 107.65 168.85 107.8 168.4 108 167.8 108.1 167.55 108.25 167.15 108.5 167 109.45 166.4 110.1 166.4 111 166.4 111.4 166.05 111.75 165.75 111.8 165.35 111.85 164.85 111.4 164.5 110.55 163.95 110.3 163.65 109.8 163.2 110.4 163 111.05 162.8 111.5 162.85 111.85 162.9 112.6 163.2 113.9 163.7 114.75 163.7 115.4 163.7 115.45 163 115.5 162.3 115.1 161.85 114.7 161.4 114.8 160.95 114.95 160.5 115.5 160.6 116.45 160.8 116.8 160.8 117.55 160.9 117.8 160.65 117.85 160.6 117.85 160.15 117.85 159.85 118.7 159.65 119.65 159.45 120.65 158.9 121.5 158.45 121.8 158.15 122.3 157.65 123.9 154.6 124.35 153.75 124.8 153.3 125.35 152.8 125.4 153.5 125.45 153.85 125.3 154.7 125.25 155.25 125.5 155.45 125.85 155.7 126.4 155.6 126.9 155.45 127 155.15 127.05 154.8 127.1 154.6 127.15 154.25 127.45 153.85 128.9 151.75 129.15 152.6 129.4 153.45 128.95 154.75 128.95 155 129.55 155.25 130.15 155.55 130.4 155.3 130.95 154.75 131.1 153.8 131.3 152.4 131.9 152.25 132.3 152.15 134.9 152.15 137.55 152.15 138.25 151.7 138.85 151.4 139.2 151.15 139.75 150.8 139.95 150.25 140.45 149.05 140.45 148.05 140.45 147.75 140.4 147.15 140.35 146.85 140.45 146.5 140.85 145.7 141.15 145 141.5 143.65 141.85 143.25 142.35 142.85 142.55 142.6 143 142.2 142.9 141.65 142.65 140.75 142.55 140.4 142.35 139.75 142.75 139.7 142.85 139.7 144.75 140.4 146.4 141 146.8 140.35 147.15 139.8 147.4 139.25 147.55 138.95 148.15 138.7 149 138.35 149.2 138.35 149.55 138.3 149.7 138.8 150 139.9 151.1 140.55 151.45 140.75 151.85 141.05 152.15 141.2 152.65 140.95 153.05 140.8 153.45 140.75 153.7 140.6 153.75 139.65 153.75 139.3 153.6 138.2 153.5 137.8 154 137.45
L 155.6 136.3
Q 155.3 135.1 155.05 134.5 154.4 132.95 155.2 133.35 155.5 133.5 155.85 133.85 156.15 134.05 156.7 133.8 158.8 132.85 158.85 132.65 158.55 132.25 158.4 132 158.15 131.45 159.05 131.15 160.65 130.65 160.75 130.65 161.4 130.4 162.1 129.95 163.85 128.85 164.35 128.5 165.8 127.4 166.1 126.65 166.8 124.95 166.8 123.8 167.1 123.15 166.9 121.85 166.9 121.8 166.35 120.2 166.1 119.5 166.8 119.5 168.85 119.5 169.5 119.05 169.85 118.85 170.75 118.25 171.6 117.65 172.05 117.05 172.1 116.95 173.45 115.7 174.35 114.9 174.25 114.1 174.25 113.95 173.9 112.45 173.7 111.65 173.95 111.15 174.25 110.35 174.4 110 174.65 109.4 175.3 109.3 175.85 109.25 176.75 109.2 177.45 109.1 177.9 108.5 178.3 108 179.2 107.2 180.35 106.2 180.8 105.75 181.65 104.9 181.9 104.35 182.25 103.7 182.25 102.85 182.05 102.1 182 101.9 181.9 101.6 182.65 100.65 183.3 99.9 183.9 99 184.4 98.4 185.1 97.85 186.85 96.5 187.5 96.2 187.55 96.2 188.35 96.3 189 96.4 189.25 95.9 189.45 95.3 189.55 95.05 189.65 94.75 190.2 94.35 190.6 94.05 192.45 92.95 192.65 92.85 193.25 92.15 193.75 91.65 194.6 91.35 195.35 91.1 197 90.45 198.5 89.95 199.4 89.95 202.95 89.95 203.25 90.05 205.6 90.75 206 91.05 206.85 91.65 207.8 90.95 208.15 90.7 208.65 90.1 209.15 89.65 209.8 89.65
L 213.45 89.65
Q 213.9 89.6 214.85 89.05 216.2 88.2 217.6 87.6 219.95 86.6 221.55 85.75 223.15 84.9 225.85 84.55 227.15 84.4 227.7 84 228.1 83.75 228.4 83.1 228.55 82.55 228.6 82.3 228.75 81.95 229.55 81.5 231.75 80.3 232.6 80.7 232.8 80.8 233.3 81.15 233.8 81.45 234.3 81.65 235.3 82.05 236.3 79.9 236.7 79.05 236.95 78.35 237.75 76.9 238.05 76.55 238.7 75.75 238.65 74.6 238.65 74.45 238.35 73.75 238.1 73.15 238.05 71.7 238 70.05 238.4 69.3 238.65 68.85 239.35 68.35 240.35 67.65 240.65 66.35 240.7 65.45 240.75 65.05 240.9 64.35 241.75 63.9 242.45 63.55 243.15 63.15 243.65 62.95 244.5 63 246.8 63.1 247.5 63.15 249.65 63.35 250.2 63.25 250.8 63.15 251.7 62.75 252.8 62.25 253.2 61.75 253.5 61.4 253.95 60.85 254.35 60.5 255.4 60.55 257 60.65 258.8 61.1 259.2 61.15 261.15 61.25 262.4 61.35 262.75 61.65 262.85 61.75 263 62.25 263.05 62.4 264 62.45 266.35 62.5 266.9 62.15 267.2 61.95 267.9 61.45 268.6 61 269.25 60.8 269.4 60.75 271.2 59.9 272.6 59.25 273.3 59.35 274.5 59.55 276.1 60.2 277.35 60.5 277.9 59.55 278.15 59.15 278.5 58.5 278.8 58.05 279.4 57.95 280.2 57.85 280.5 57.85 280.9 57.85 281.2 58.1 281.6 58.45 283 58.65
L 283.3 57.85
Q 283.7 57.05 284.45 56.75 285.05 56.55 285.85 56.2 286.45 56 286.8 56.25 287.1 56.45 287.45 56.9 287.8 57.3 288.45 57.4 288.9 57.5 290.35 57.6 291.85 57.7 292.95 57.9 293.95 58.1 295.55 58.3 296.7 58.55 297 58.85 297.35 59.2 297.55 59.3 297.65 59.35 298.85 59.8 300.75 60.5 301.25 60.95 301.55 61.2 303.35 61.45 303.8 61.5 304.65 61.5 304.95 61.5 305.3 61.8 305.6 62.05 306.2 62.7 306.9 63.3 307.85 63.65 308.65 63.95 309.95 64.1 310.95 64.25 311.15 64.45 311.35 64.65 311.35 65.05 311.35 65.4 311.6 65.55 311.8 65.7 312.9 65.8 313.9 65.9 314.05 66.05 314.1 66.1 314.95 66.75 315.65 67.3 315.95 67.65 316.45 68.25 317.6 69.25 318.25 69.9 318.6 70 319 70.1 319.75 69.9 321.8 69.4 323.15 69.3 323.35 69.3 325.05 69.1 325.85 69 326.3 69.15 326.75 69.3 327.05 69.7 327.3 70 328.3 71.3 329 72.15 329.7 73 330.25 73.45 332.05 73.4 334.45 73.35 335.25 73.3 336.55 73.2 337.8 72.8 340.5 72 341.75 71.55 342.45 71.3 343.35 70.85 344.05 70.55 345.05 70.85 345.25 70.9 346.65 71.45 347.2 71.7 347.8 71.6 348.8 71.45 350.25 71.05 351 70.95 351.75 70.7 352.2 70.6 352.5 70.95 352.65 71.1 352.9 71.75 353.05 72.1 353.5 72.05 354.95 71.85 355.65 71.15 355.9 70.9 356.3 70.45 356.7 70.1 357.15 70.1 357.55 70.1 358.55 70.25 359.8 70.4 361.4 70.25 362.55 70.15 363.95 69.75 365.1 69.45 366.5 69.45 367.8 69.45 370.55 69.45 373 69.5 374.75 69.85 376.15 70.15 377.45 70.5 378.55 70.85 379.4 71 381.4 71.35 385.4 72.55 386.2 72.8 386.65 72.75 386.9 72.7 388.25 72.3 391.3 71.4 391.8 71.6 392.4 71.85 393.55 73.4 394.15 73.95 395.1 74.35 395.95 74.65 396.65 74.65 397.1 74.65 397.9 74.55 398.6 74.6 398.9 75.15 398.95 75.2 400.4 77.15 401.6 78.75 402 79.9 405.25 89.4 405.95 92
L 412.35 114.05 419 134
Q 419.4 135.7 419.35 137.1
L 419 150.2
Q 419.15 158.45 419.55 159.2 419.95 160 421.95 162.4 424.05 164.95 425.5 166.25 428.3 168.75 428.7 169.7 428.85 170.1 428.8 170.65 428.7 171.5 428.8 172.65 428.8 172.75 428.85 175.15 428.85 176.35 429.35 177.8 429.85 179.3 430.15 180.55 430.35 181.3 430.8 183.45 431.3 185.55 432.1 187.35 433 189.25 433.85 190 434.5 190.6 435.4 191.05 436.45 191.65 436.95 192 437.55 192.45 439 193.1 440.25 193.65 440.4 193.9 440.6 194.15 441.1 194.85 441.5 195.45 441.15 195.7 440.55 196.15 439.15 196.55 437.5 197.05 436.05 196.5 435.65 196.25 435.5 196.2 435.2 196.15 434.55 196.65 432.9 198.15 432.1 198.65 431.2 199.2 431.2 201 431.2 202.15 430.6 202.5 430.35 202.65 429.55 202.8 428.35 203 428.3 203 427.65 203.3 427.35 203.35 426.85 203.5 426.7 202.9 426.25 201.65 426 200.9 425.75 200.15 425.5 199.9 425.1 199.55 424.45 199.9 423.55 200.3 423.25 200.5 422.75 200.75 422.6 201.2 422.6 201.25 422.5 202.1 422.45 202.5 422 202.65 421.4 202.95 421.25 202.95 420.95 203 420.6 202.55 420.45 202.35 420.4 201.45 420.35 201.05 419.55 201.6 418.1 202.65 418 202.85 417.95 203 416.85 202.5 415.6 201.85 415.25 201.7 413.5 201.3 413.05 201 412.75 200.8 412.1 200.65 411.55 200.5 411.3 200.5 411.15 200.5 410.3 201.45 409.55 202.3 409.1 202.55 408.6 203 408.35 203.15 407.95 203.45 407.45 203.25 406.45 202.85 406.3 202.8 405.75 202.65 405.55 202.9 404.85 203.85 404.3 204.1 404.2 204.15 403.65 204.65 403.35 204.95 402.7 204.85 401.35 204.55 400.65 204.4 399.35 204.15 399.15 204.35 398.25 205.3 398 205.65 397.9 205.85 399.05 206.05 400.3 206.25 401.45 206.15 404.85 205.85 406.6 205.8 410.6 205.75 411.05 205.75 412 205.8 413.1 205.8 413.75 205.8 413.8 206.05 413.8 206.2 413.7 206.85 413.5 207.5 413.55 208.05 413.6 208.55 413.65 209.45 413.6 210.2 413.05 210.65 410.8 212.05 410.65 212.45 410.6 212.65 410.3 213.3 410.05 213.85 410.25 214.15 410.6 214.65 410.95 215.65 411.45 216.95 411.45 217.85 411.45 219.55 411.15 220.5 410.95 221.1 410.25 221.75 409.3 222.45 408.85 222.8 408.05 223.35 407.85 223.55 407.5 223.85 407.55 224.3 407.65 225.65 407.45 226.3 407.3 226.75 406.3 227.65 405.55 228.3 405.45 228.9 405.45 229.05 405.15 229.3 405 229.55 405.35 229.8 405.65 230 406.7 230.35 407.65 230.7 407.75 231.25 408 232.3 407.5 233.35 407.35 233.7 407.2 234 407.1 234.2 407.35 234.25 408.25 234.5 409.75 234.3 410.85 234.15 413.35 234.15 413.6 234.15 411.65 235.6 410.9 236.1 410.65 236.25 410.25 236.55 410.3 236.85 410.3 237 410.25 237.55 410.15 238 410.3 238.45 410.45 238.95 412.4 240.15 413.4 240.8 415.05 241.8 415.6 242.15 416.2 242.65 416.7 243 417.4 243.2 419.1 243.75 419.9 243.9 420.9 244.1 421.1 244.2 421.4 244.35 421.65 244.9 422.05 245.75 422.15 247.2 422.2 247.9 422.2 248 422.15 248.25 421.8 248.5 421.5 248.7 420.65 248.9 419.55 249.1 419.4 249.15 419.05 249.3 417.6 249.35
L 416.25 249.35
Q 416.25 250.85 415.95 251.35 415.65 251.85 414.2 252.75 412.55 253.75 411.5 253.75
L 409.5 253.9
Q 408.3 253.95 406.9 253.75 404.5 253.4 404.15 253.4 403.2 253.35 403.35 253.95
L 403.9 256.1
Q 403.95 256.3 404.1 258.4 404.2 259.9 404.65 262.1 404.75 262.6 406.25 262.45 406.9 262.6 407.1 263.5 407.25 264.1 407.3 264.2 407.45 264.4 407.85 264.4
L 409.7 264.25
Q 410.9 264.2 412.45 264
L 412.8 265.8
Q 413 266.7 413.5 267.8 413.6 268.05 413.15 268.75 412.75 269.5 412.35 269.5 411.85 269.45 411.7 269.5 411.45 269.55 411.5 270.05 411.5 270.15 411.45 271.05 411.4 271.55 411.65 271.85 412.35 272.6 412.4 273.45 412.45 273.8 412.5 274.4 412.55 274.85 412.15 274.95 411.8 275.05 411.4 274.9 410.6 274.5 410.05 274.35 407.45 273.6 407 273.75
L 405.75 274.25
Q 405.15 274.5 403.8 274.2 403.45 274.15 402.85 273.8 402.55 273.6 402.3 273.85 401.5 274.75 400.2 274.8 399.3 274.85 398.5 275.3 397.8 275.75 397.7 276.25 397.65 276.6 397.6 277.1 397.5 277.5 397.1 277.75 396.75 277.95 395.65 277.75 393.95 277.45 393.1 277.45 391.85 277.4 389.6 277.65 387.6 277.9 387.45 277.9 387.2 277.9 386.8 277.4 386.35 276.8 386.25 276.25 385.9 274.45 385.4 274.2 384.4 273.75 383.6 273.55 382.45 273.25 382.55 272.3 382.6 271.9 382.6 269.35 382.6 267.55 381.95 265.15 381.25 262.8 380.65 262.45 380.15 262.05 379.9 261.9 379.55 261.6 378.5 261.4 378.3 261.35 376.6 261.15 375.8 261.05 375.25 260.65 374.55 260.15 374.35 259.55 374.1 259 374.15 257.85 374 256.35 374.1 255.3 374.15 254.6 373.9 253.8 373.7 253.15 373.5 253.05 372.8 252.7 373.65 251.95 374.15 251.5 374.2 250.55 374.15 249.45 374.2 248.9 374.3 248 374.1 247.15 373.85 246.2 373.35 246.1 373.1 246.05 372.35 246.1 371.7 246.1 371.2 245.95 369.25 245.25 368.95 244.55 368.6 244 368.5 243.8 368.4 243.55 368.85 243.1 369.2 242.8 369.55 242.75 369.7 242.7 369.8 242.25 370.05 241.15 370.6 240.7 371.25 240.15 371.4 239.9 371.7 239.4 371.05 239.15 370.65 239 370.7 238.9 370.75 238.8 369.7 238.45 368.55 238.1 367.25 236.65 365.8 235.05 365.7 235 364.7 234.4 362.45 235.3 361.8 235.55 361.45 236.9 361.05 238.4 360.85 238.55 360.55 238.85 359.55 239.15 358.5 239.5 358.35 239.6 357.3 240.4 356.9 240.3 355.65 240.05 355.45 239.45 355.25 238.85 355.1 238.7 354.9 238.35 354.6 238.6 354.55 238.6 353.8 238.85 353.35 239 353.4 239.55 353.45 240 353.6 240.85 353.65 241.6 353.45 242.1 353.1 242.95 349.3 247.9 349.15 248.15 348.85 247.85 348.75 247.7 348.1 246.7 347.05 245.1 346.35 244.45 346.05 244.2 344.9 243.9 343.45 243.55 343.25 243.45 339.3 242.45 338 241.65 335.75 240.25 335.6 241 335.5 241.45 335.55 242.85 335.55 243.25 335.65 243.75 335.6 244.05 334.75 244.05 334.6 244.05 332.45 244.25 331 244.4 330.35 244.15 329.6 243.8 328.4 242.9 327.65 242.25 327.4 242.05 327.05 241.8 326.9 242.2 326.55 243.1 326.6 244.4 326.65 245.3 326.6 246.4 326 246.1 325.35 245.75 324.05 245.1 323.95 244.95 323.35 244.2 322.95 244.15
L 319.1 243.75
Q 318.85 243.75 316.35 244.05 316.4 244.05 316.95 245.45 317.5 247 317.65 247.95 317.75 248.7 317.95 249.7 318.1 250.45 317.9 250.75 317.85 250.85 317.4 251.2 317.2 251.35 317.45 251.7 317.9 252.3 318.85 253.25 319.4 253.95 320.65 255.25 320.95 255.6 320.95 255.95 321 256.25 320.75 257.1 320.15 259.2 320.2 259.45 320.25 259.85 320.2 259.95 320.15 260.2 319.75 260.3 317.95 260.6 317.5 260.75 317.05 260.85 316.85 260.85 316.45 260.95 316.1 261.25 313.05 264.05 310.65 265.25 309.15 266.05 306.3 268.8 302.9 272.15 302.8 272.25 302.3 272.65 300.75 273.45 299.7 273.95 299.35 274.65 298.3 276.8 298.35 277.55 298.4 277.95 298.05 278.1 297.85 278.15 297.15 278.2 294.2 278.15 294.25 278.2 294.15 278.3 294 278.5 293.65 278.85 293.7 279.35 293.75 280.55 293.9 280.7 293.95 280.75 294.5 280.7 295.15 280.75 295.6 281.05 295.95 281.3 296.5 281.65 296.9 281.9 297.1 282.25 297.45 282.8 297.9 284.2 298.05 284.5 298.25 284.8 298.3 285 298.15 285.35 297.7 286.4 296.8 286.5 296.15 286.5 295.95 286.5 295.6 286.55 295.55 286.8 295.5 287.2 295.05 288.55 295.05 288.65 294.25 289.75 293.45 290.85 293.25 291.35 293.05 291.9 292.5 291.85 291.8 291.6 291.45 291.5 290.3 291.15 288.85 291 287.7 290.55 285.65 290.6 284.4 290.65 283.1 290.35 281.9 290 281.5 289.9 280.85 289.8 280.7 289.65 280.55 289.45 280.75 288.9 281.1 288.35 281.15 288.15 281.3 287.9 280.9 287.5 280.65 287.25 279.4 286.75 278.3 286.3 278.05 285.8 277.65 284.7 277.4 284.15 276.95 283.15 276.6 283.2 275.25 283.3 275.25 283.5 275.25 283.6 274.05 282.5 273.3 281.85 273.1 281.7 272.9 281.45 273 281.1 273.45 280.05 273.55 279.5 273.75 278.5 272.8 278.15 272.2 277.95 271.95 277.85 271.5 277.7 271.1 277.3 270.55 276.75 270.5 276.65 270.3 276.4 270.3 275.9 270.3 274.2 269.9 274.3 269.3 274.4 268.5 274.9 267.15 275.7 266.55 275.85 265.9 276 265.4 275.7 264.85 275.35 265.25 275.1 266 274.55 267 273.25 267.3 273 267.4 272.9 267.55 272.7 267.65 272.05 267.85 271.25 267.85 270.9 267.85 270.45 267.45 269.75 265.75 267.3 265.55 266.35 265.45 265.75 265.45 265.25 265.5 264.7 265.5 264.4 265.5 263.95 265.4 263.75 265.25 263.6 264.8 263.4 263.45 263.1 262.6 262.9
L 260.45 262.4
Q 260.25 262.35 258.75 261.9 257.95 261.65 257.3 261.7 256.6 261.75 255.6 262
L 254.7 262.25 254.8 262.75
Q 254.85 263.45 254.75 264.15 254.7 264.75 254.55 266.5 254.35 268.05 253.95 268.25 253.65 268.45 253.2 268.55 252.95 268.7 253 269.05 253 269.2 253.25 269.8 253.4 270.15 253.15 270.45 252.7 270.95 251.55 271.5
L 247.45 273.55
Q 245.75 274.45 245.35 273.15 244.95 271.85 244.45 270.75 243.35 268.45 242.9 268.1 242.45 267.65 242.15 267.45 241.7 267.05 240.85 266.85 239.95 266.6 236.55 266.05 235.9 265.7 235.6 265.6 235.15 265.4 235.35 266.1 235.65 267.25 236 269.3 236.15 270.15 236 270.9 235.2 270.7 234.4 270.65 233.8 270.55 233.55 270.55 233.25 270.55 232.85 270.75 232.55 270.95 232.05 271.3 231.5 271.55 230.35 271.6 227.75 271.65 226.85 271.25 226.4 270.95 226.15 270.8 225.75 270.6 224.9 270.65 223.5 270.75 222.2 271.15 221.3 271.45 220.7 271.85 220.35 272.15 219.65 272.7 218.35 273.65 216.7 273.9 215.85 274 215.55 274.05 215 274.1 214.75 274.3 214.35 274.65 212.95 275.5 212.8 275.65 212.6 275.6 212.45 275.65 212.45 276.4 212.45 276.95 212.35 277.6 212.25 278.2 212.3 278.9 212.3 279.25 212.6 280.45 212.7 281.15 212.4 281.55 212.15 281.9 211.8 282.4 211.45 282.7 210.2 282.75 208.45 282.8 207.7 282.8 206.35 282.8 205.45 283.05 204.95 283.2 203.5 283.35 202.6 283.4 202.55 283.75 202.45 284.35 202.4 285.65 202.35 286.05 202.4 286.45 202.4 286.75 201.85 286.9 200.25 287.4 199.2 287.5 197 287.75 196.25 288.35 195.65 288.8 195.55 289.1 195.4 289.4 195.45 290 195.65 291.5 195.75 291.95 195.95 292.7 196.3 292.95 196.7 293.25 197.6 293.25 198.25 293.25 198.65 293.15 199.05 293 199.7 293 201.55 293 203.9 292.05 204.7 291.75 205.05 291.4 205.3 291 205.45 290.75 206.05 289.85 207.05 289.5 207.2 289.45 208.1 288.95 208.7 288.6 209.75 288.5 210.8 288.4 211.7 288.1 212.6 287.8 212.7 287.8 213.05 287.75 213.25 288.05 213.35 288.25 213.6 289.05 213.9 289.95 214.6 291.4 214.7 291.65 214.6 292.3 214.55 292.6 215.25 292.7 216.45 292.9 218 292.8 218.15 292.95 217.4 294.1 216.9 294.9 215.45 296.1 214.9 296.75 214 297.75 213.3 297.5 212.75 296.65 212.4 295.95 212.25 295.75 212 295.5 211.3 295.55 210.75 295.6 209.45 295.5 208.15 295.4 207.65 295.4 206.65 295.4 206.25 295.4 205.6 295.45 205.55 295.8 205.3 297.3 205.4 298.65 205.45 299.05 204.8 299.2 203.85 299.35 203.7 299.45 203.1 299.8 200.65 300.45 200.3 300.55 199.5 300.6 198.75 300.6 198.35 300.75 196.85 301.2 196.75 300.3 196.7 299.85 196.45 299.25
L 196.25 298.8 195.65 298.95
Q 195 299.05 194.9 299.25 194.7 299.55 193.05 299.75 191.9 300.05 191.8 300.1 190.9 300.25 190.75 299.85
L 190.55 298.85
Q 190.4 298.15 189.9 297.5 189.5 296.95 188.25 294.7 187.1 292.6 186.85 292.3 186.5 291.9 185.55 291.7 184.6 291.5 184.2 291.65 184.05 291.7 183.3 291.8 182.6 291.85 182.15 292.15 180.75 293 180.3 292.5
L 179.8 292.25
Q 179.5 292.15 179.55 291.5 179.65 289.1 179.65 288.95 179.6 288.6 179.25 288.3 178.9 288.05 178.5 288.05 178 288.05 175.5 287.75 175.15 286.55 175.3 285.85 175.6 284.45 176.05 284.15 176.55 283.85 176.65 283.8 177.05 283.65 177.9 283.65 178.15 283.65 179.3 283.4 179.85 283.3 180.25 283.75 180.45 283.95 180.9 284.7 181.15 285.1 181.6 285.35 182.05 285.6 182.55 285.65 182.8 285.65 183.45 285.7 184.2 285.8 185.25 286.2 185.75 286.25 185.85 284.75 185.95 283.4 186.2 283 186.8 282.15 186.85 281.65 186.9 281.2 186.55 280.6 186.25 280.05 185.9 279.85 184.3 279.2 183.7 278.9 180.95 277.85 179.5 277.15 177.25 276.2 176.95 276.05 176.5 275.8 174.8 275.65 172.85 275.45 171.95 275.5 171.4 275.55 170.45 274.85 169.35 274.05 168.95 273.9 168.2 273.65 167.25 273.9 166.35 274.15 166 274.7 165.95 274.75 165.55 275.5 165.4 275.8 165.1 276 164.75 276.2 163.8 276.2 162.95 276.15 162.65 275.95 161.85 275.4 161.95 274.95 162.1 274.2 163.15 274.2 163.9 274.2 164.05 274.15 164.25 274.05 164.2 273.5 164.1 272.15 163.7 271.75 163.5 271.55 162.65 271.4 161.55 271.3 160.85 271.15
L 158.9 270.85
Q 158.95 270.85 158.7 271.15 158.4 271.6 158.45 272.1 158.5 272.95 158.4 273.9 158.4 274.25 157.95 274.4 157.7 274.5 156.9 274.6 155.75 274.6 154.8 274.65 154.45 274.65 153.55 274.5 153 274.4 152.75 274.6 152.55 274.8 152.5 275.05 152.35 275.3 151.65 275.55 150.8 275.9 150.6 275.8 150.45 275.75 149.25 274.8 147.45 273.35 146.3 273.6 145.15 273.5 144.2 273.85 143.25 274.1 142.9 274.25 142.25 274.45 142.3 274.85 142.35 275.5 142.25 276.85 142.3 277.3 142.35 278.45 142.3 279.45 141.75 279.95 141.55 280.15 140.7 280.7 140.35 280.95 140.4 281.25 140.45 281.85 139.75 282.9 139.2 283.7 138.65 284.1 137.25 283.9 136.8 283.55 136.5 283.3 136.45 282.95 136.4 282.75 136.45 282.05 136.5 281.4 136.25 280.6 136 279.8 135.7 279.75 135.2 279.7 133.15 280.1
L 127.4 280.9
Q 126.35 281.05 125.4 280 125.35 279.95 124.2 278.25 123.25 276.9 122.35 276.25 121.35 275.55 120.4 275.4 119.9 275.35 118.75 275.45 118 275.4 116.5 275.45
L 113.05 275.45
Q 112.4 275.45 112.55 275 112.75 274.2 112.65 273.85 112.45 273.05 112.35 272.75 112.2 272.25 111.9 271.75 111.85 271.7 111.25 270.9 111 270.55 110.9 270.05 110.8 269.55 110.15 269.2 109.3 268.85 108.9 268.65 107.7 268.15 106.9 268 106.2 267.9 105.6 267.1 104.95 266.35 105 265.8 105 265.5 104.7 264.75 104.35 263.9 104.4 263.2 104.5 260.9 103.95 254.95 103.9 254.2 103.45 254.05 103.2 253.95 102 254.05 101 254.15 100.7 254.45 100.45 254.8 100.55 255.7 100.8 257.6 100.4 258 100.100390625 258.299609375 98.25 258.3 98.546484375 258.30703125 98.1 259.2 97.8 259.8 96.1 260.45 93.9 261.2 92.85 261.6 92 261.95 89.75 262.35 88.05 262.65 87.5 263.15 86.35 264.2 85.95 265.05 85.35 266.45 84.65 266.25 82.3 265.45 81.65 265.35
L 79.45 265
Q 79.25 264.95 78.4 264.15 77.35 263.1 76.95 262.8 76.3 262.3 75.4 262.1 74.65 261.95 74.3 262.1 73.9 262.3 73.65 262.45 73.15 262.65 72.55 262.65 72.05 262.65 71.15 262.45 70 262.15 69.1 262.05 64.65 261.6 62.85 261.4 61.7 261.25 61.4 260.8 61.15 260.15 60.95 259.75
L 60 257.9
Q 59.8 257.45 59.5 256.55 59.25 255.7 59.25 255.6 Z"/>
</defs>

<g id = '17605'  fill="white" transform="matrix( 1, 0, 0, 1, 0,0) ">
<use xlink:href="#Layer0_0_1_STROKES"/>
</g>
</svg>
