
<svg xmlns="http://www.w3.org/2000/svg" version="1.1" xmlns:xlink="http://www.w3.org/1999/xlink" preserveAspectRatio="none" x="0px" y="0px" width="500px" height="356px" viewBox="-30791 -30615 53700 53556">
<defs>
<path id="Layer0_0_1_STROKES" stroke="#000000" stroke-width="1" stroke-linejoin="round" stroke-linecap="round"  d="
M 114.15 256.75
Q 114.5 255.6 114.6 255.2 114.75 254.55 114.35 253.55 113.8 252.2 112.05 248.95 110.25 245.55 109.6 244.85 108 243.1 107 241.35 106.7 240.85 106.85 240.65 107 240.35 108.3 239.2 115.5 232.4 117.15 231.4 118.45 230.65 119.05 230.3 120.05 229.75 121.55 228.7 122.1 228.3 124.2 226.7 125.25 225.8 126.35 225.4 127.75 224.85 128 224.5 128.3 224.1 127.95 222.9
L 126.8 218.65
Q 126.6 217.95 126.3 215.25 126 212.2 125.9 211.7 125 208.65 124.7 206.8 124.5 205.7 123.8 203.15
L 123.15 200.9
Q 123.2 200.9 124.55 200.95 126.1 201.05 127.15 201.25 128.15 201.45 129.6 201.6 130.35 201.7 131.1 201.75 132.2 201.9 132.85 201.75 133 201.7 133.05 201.25 133.15 200.1 133.25 198.8 133.05 196.8 133.05 196.45 133 196 134.55 195.95 136.05 195.9 137.75 195.4 139.9 194.75 140.2 194.7 140.95 194.6 141.7 194.45 142.05 194.35 142.4 193.95 142.7 193.6 143.2 191.25 143.9 187.9 144 187.45 147.85 170.65 147.9 170.65 149.1 165.9 149.2 164.15 149.15 154.9 149.2 153.6 149.25 152.65 149.55 152.15 149.85 151.7 150.65 151.45 151.2 151.3 152.15 151 153 150.75 153.65 150.3 154.4 149.8 160.8 146.05 167.1 142.4 168.85 141.4 169.5 141.05 172.05 139.45 173.75 138.4 174.45 138.2 175.5 137.9 175.7 137.95 176 138.1 176.15 139.2 176.4 141.2 176.65 142.45 176.8 143.2 178.2 145.55 178.95 146.75 180.05 148.55 180.7 149.7 181.5 150.75 181.8 151.3 181.95 151.45 182.3 151.7 182.85 151.55 183.3 151.45 184.3 151.15 185.25 150.85 185.95 150.3 187.1 149.4 188.15 148.5 188.65 148.2 189.3 148.15 190.15 148.05 190.2 148.8 190.3 150.75 190.4 151.35 190.55 152.05 190.3 153.05 190.1 153.9 190.2 154.1 190.4 154.45 192.95 154 195.4 153.5 196.45 153 197.1 152.7 199.1 151.35 201.1 150.15 202.75 150.1 206.85 149.95 208.3 149.75 209.05 149.65 212.5 149.25 215.6 148.85 215.65 148.7 215.55 146.95 215.6 146.3 215.65 145.8 216.15 145.5 216.65 145.2 217.05 145.4 217.55 145.65 220.65 146.15 221.1 146.3 222.6 146.2 222.85 146.1 222.75 145 222.55 144 222.5 143.6 222.35 142.9 222.65 142.65 223.25 142.15 224.4 141.5 225.05 141.15 226.65 140.3 226.85 140.1 225.7 137.25 225.5 136.8 224.75 132.6 224.5 131.2 225.65 130.6 225.95 130.45 227.7 129.9 228.45 129.7 228.65 129.45 229 129.05 228.5 128.15 226.7 124.9 226.45 124.35 225.05 121.45 224 119.2 221.9 114.75 221.95 113.9 222 112.4 224.45 112.25 225.35 112.2 228.95 111.65 231.45 111.65 233.3 110.65 235.05 109.7 237.1 108.3 238.35 107.7 239.45 105.6 239.75 105.1 239.85 104.65 239.95 104.1 240.05 103.6 240.15 102.55 240.35 102 240.7 101.1 241.95 100.7 243.5 100.2 244.15 99.8 244.95 99.35 245.6 98.5 246.6 97.2 246.6 96.15 247.2 92.95 246.7 92.15 246.05 91.25 245.7 90.6 245 89.35 244.85 88 244.5 85.1 244.3 84.2 244 82.65 243.75 81.45 243.25 79.2 242.85 78.55 242.25 77.6 242.1 77.25 241.8 76.6 241.75 75.8 241.6 74.8 241.6 74.55 241.6 74.15 242.15 74 242.65 73.85 245.05 72.65 247.35 71.5 248.25 71.35 250.8 70.9 251.25 71.1 251.55 71.25 252.45 71.45 253.3 71.7 253.4 72.15 253.6 72.9 253.3 74.6 252.4 74.95 251.4 75.4 251.1 75.55 250.3 75.65 249.95 75.65 249.95 76.15 249.95 76.6 249.9 77.4 249.85 78.15 250.1 78.8
L 250.85 80.75
Q 251.05 81 252.65 80.85 253 80.85 254.35 80.8 255.5 80.75 255.55 80.45 255.65 79.5 256 78.7 256.1 78.5 256.3 77.9 256.55 77.45 257.2 77.5 257.4 77.5 257.95 77.35 258.25 77.3 259.55 77.6 261.75 78.15 263.2 78.4 263.55 78.5 264.5 78.15 265.05 77.95 266.35 77.4 268.7 76.6 270.2 76.2 275.35 74.9 276.9 74.75 278.1 74.65 278.15 73.6 278 72.1 277.95 71.2 277.35 59.45 277.55 58.95 277.75 58.5 278.05 58.3 278.55 57.95 279.75 57.75 280.7 57.6 282.2 57.1 283.8 56.55 284.35 56.45 284.9 56.35 286.3 55.8 287.55 55.3 288.1 55.3 288.75 55.3 288.85 56.55 289.05 58.3 289.05 58.35 289.05 58.4 289.15 59.8 289.2 60.65 289.9 60.6 291.05 60.5 300.35 58.9 300.9 58.85 303.25 58.15 305.75 57.4 306.3 57.3 308.4 56.95 308.45 55.7 308.5 55.2 308.65 54.45 308.85 53.6 308.95 52.75 308.95 50 309.1 49.45 309.2 49.05 310.45 48.8 311.7 48.55 312.8 48.65 314.25 48.8 323.6 49 323.65 49.05 324.7 51.3 324.8 51.45 325.3 52.6 325.55 53.1 325.85 53.15 326.2 53.2 326.8 52.7 327.95 51.75 328.15 51.6 328.7 51.25 329.35 50.65 329.8 50.3 330.1 50.15 330.6 49.95 331.75 49 333.05 47.95 333.45 47.35 334.65 45.55 335.05 44.05 335.15 43.7 335.65 42.85 335.9 42.5 335.3 42.55 332.55 43 331.7 43 331.1 43 330.35 42.7 329.65 42.4 329.5 42.1
L 329.2 41.05
Q 328.9 40.1 328.4 39.35 326.25 36.2 325.85 34.8 325.45 33.9 325.15 32.7 324.95 31.95 326.05 31.8 326.65 31.7 328 31.6 328.3 31.55 330.1 31.45 331.55 31.35 332.15 31 333.2 30.4 342.9 29.95 345.7 29.65 345.8 29.65 346.1 29.65 346.3 29.65 346.5 29.75 347.25 30.7 347.9 31.55 348.7 34.45 349.7 37.85 349.95 38.45 350.75 40.25 351.75 41.85 351.8 42 347.25 45 342.5 48.15 342.25 48.45 341.55 49.25 339.2 49.45 336.55 49.7 334.95 49.7 332.85 49.7 332.55 49.85 332.2 49.9 332.1 49.95 331.9 50 331.8 50.4
L 331.15 52.3
Q 331.1 52.55 330.9 58 330.7 63.75 330.4 65.5 329.25 72.65 329.4 73.45 329.45 73.75 329.8 74.25 330.05 74.7 330.1 75.15 330.15 76.15 330.15 76.3 330.05 76.9 329.5 77.5
L 327.65 79.6
Q 326.95 80.45 326.85 80.7 326.65 81.15 327.1 81.8 327.75 82.75 329 83.85
L 329.7 84.15
Q 330.1 84.35 329.9 85.2 329.5 87.15 328 88.45 327.9 88.55 327.05 88.95 326.65 89.15 326.45 89.95 326.05 91.5 326.05 91.55 325.95 92.3 326.35 93.4 326.95 95.15 329.1 102.05 331.4 109.65 331.65 111.1 332.7 116.95 333.4 119.3 333.65 120.15 334.95 120.65 336.05 121.05 337.65 121.05 338.95 121.05 346.1 121.8 352.2 122.4 354.55 122.7 356.2 122.9 356.5 122.9 357 122.9 357.7 122.5 358.2 122.25 358.7 121.95 359.15 121.65 360.15 120.5 361.25 119.25 364.85 114.5 368.4 109.85 369.05 108.8 372.75 102.9 374.25 102.3 375.1 101.95 377.05 101.85 379.3 101.7 379.6 101.65 382.4 101 385.1 100 385.7 99.75 386.45 99.3 387.2 98.8 387.75 98.6 388.6 98.3 389.15 98.55 389.7 98.85 389.7 99.65 389.7 100 389.6 100.55 389.5 101 389.55 102.3 389.6 103.9 390.4 106 391.15 107.95 392 108.85 392.55 109.45 393 109.9 393.15 110.15 393.2 110.6 393.25 111.05 388.75 113 384.65 114.8 382.6 115.4 381 115.9 379.7 116.7 378.45 117.5 378.25 118.15 378.15 118.6 377.45 120.5 376.85 122.3 377 122.9 377.15 123.5 377.65 123.95 377.95 124.2 378.7 124.9 380.75 127.1 380.8 127.3 380.85 127.45 381 128.2 381 129.05 380.25 129.85 379.4 130.75 376.35 136.05 373.3 141.25 373.3 141.65 373.3 141.85 374.05 142.05 375 142.25 375.4 142.75 376 143.5 376.1 143.85 376.2 144.3 375.9 145.35 375.7 146.1 375.35 147 375.1 147.75 375 148.75 374.9 149.9 374.4 150.05 373.95 150.2 372.25 149.75 371.95 149.7 370 149.1 369.15 148.85 368.5 148.85 366.45 148.65 366.15 148.75 365.9 148.8 365.75 148.9 365.5 149.05 365.2 149.75 364.95 150.4 363.05 159.55 361 169.3 360.85 169.8 360.55 170.95 360.45 173.6 360.4 175.9 360.5 176.8 360.55 177.35 359.6 177.25 358.3 177.05 357.6 177 357.4 177 354.4 176.5 352.15 176.15 351.75 176.45 350.8 177.1 350.25 177.7 349.7 178.3 349.5 178.4 349.1 178.55 348.75 178.05 348.05 177.1 348.05 177.05 347.7 176.55 347.75 176.1 347.85 174.4 347.1 173.65 346.7 173.25 345.95 173.4 345.2 173.55 345.1 174 345.05 174.35 341.6 174.3 339 174.25 336.9 174.05 335.9 173.95 333.35 172.75 330.5 171.4 330.25 171.3 328.4 170.75 326.4 170.85 325.7 170.9 323.05 173.6 320.35 176.35 320.15 177.55 319.85 179.25 318.85 184.9 318.65 186.45 317.35 185.6 315.95 184.5 315.15 184.1 314.2 183.65 314.05 183.6 313.5 183.4 313.25 183.8 313.2 183.9 312.7 184.6 312.4 185.1 312.2 185.55 311.85 186.45 311.8 186.55 311.55 186.85 310.9 186.5 310.75 186.4 310.05 185.75 309.7 185.4 308.95 185.45 307.45 185.55 306.55 186.2 305.15 187.2 304.1 187.5 303.05 187.7 302.7 187.8 302.15 187.9 302.05 188.3 301.95 188.7 302.3 189.3 302.8 190.3 302.9 190.6 303.05 191.05 303.75 192.15 304.35 193.1 304.4 193.6 304.45 194.05 304.4 194.6 304.4 195.1 304.65 195.6 305.15 196.55 306.3 197.25 306.45 197.35 308.35 198.75 309.9 199.9 310.75 200.25 311.6 200.6 311.3 202.8 310.95 205.4 310.95 205.45 311.2 206.15 311.25 208.8 311.55 211 311.55 211.9 311.55 212.4 312 213.05 312.6 213.85 313.5 214.1 314.85 214.5 318.3 215.4 320.25 215.95 323.25 216.8 325.3 217.4 325.4 217.7 325.7 218.7 325.9 220.55 325.95 221.1 325.9 223.95 325.9 226.5 326.05 227.1 326.25 227.75 326.75 227.85 327.9 228.1 328.2 228.25 328.85 228.55 330 228.95 330.8 229.35 330.85 229.8 330.85 229.85 330.75 230.6 330.65 230.95 331.05 231.5 331.45 232.1 332.9 233.15 334.1 234.05 334.5 234.25 334.65 234.35 335.5 235 336.4 235.6 337.25 235.25 337.95 235 341.4 233 344.85 231.15 346.1 231.05 346.9 230.95 348.25 230.55 349.2 230.3 350.1 230.45 350.65 230.55 351.45 230.75 351.8 230.85 352.7 230.9 353.65 230.95 354.75 230.5 355.4 230.3 356.55 229.8 357.3 229.55 357.8 231.15 358.1 232 358.6 233.7 358.8 234.2 361.2 238.05 363.4 241.75 363.6 242.4 363.8 243.15 363.3 243.45 362.5 243.85 361.95 244.3 361.25 244.85 356.25 247.25 350.9 249.8 350 250.2 348.45 250.8 348 251 347.35 251.3 347.15 252 346.95 252.75 346.75 255.5 346.55 258.05 346.55 259.4 346.55 261 346.3 262.85 344.8 262.35 342.4 262.6 340.9 262.75 334 263.1
L 327.45 263.4
Q 327.5 263.4 326.85 266.5 326.75 267.2 326.35 268.4 326.25 268.65 322.2 267.65 321.4 267.4 321.15 267.35 320.65 267.2 319.45 267.05 317.7 266.85 317.25 266.85 316.45 266.85 315.9 267.35 311.15 271 310.75 271.55 310.4 271.75 310.3 271.85 310.15 272.05 310.2 273.2 310.25 275.1 309.7 277.6 308.35 277.6 306.3 277.6 304.85 277.6 304.4 277.95 304.1 278.2 303.7 279.45 303.4 280.35 303.65 282.4 303.9 284.2 303.8 284.25 303.55 284.4 300.9 284.4 298.95 284.4 296.7 284.25 296.3 284.2 296.3 284.95 296.3 286.1 296.1 286.7 295.75 287.6 295.2 287.8 294.1 288 293.05 288.2 291.3 288.5 290.75 288.55 290 288.7 289.75 289 289.5 289.35 288.8 291.1 288.7 291.4 288.15 294.35 287.7 297.15 287.35 297.75 287.05 298.3 286.7 298.85 286.55 299.25 286.95 299.6 287.2 299.85 288.1 300.05 288.85 300.2 289.1 300.65 289.55 301.45 289.95 302.7 290.15 303.3 290.55 304.25 290.95 305.1 291 305.15 291.05 305.2 289 306 288.55 306.2 285.75 306.9 283.35 307.5 283.05 307.8 282.35 308.45 282.35 309.75 282.35 310.15 281.7 310.5 281.5 310.6 280.5 310.95 280.4 311 279.15 311.35 278.3 311.6 277.95 311.8 277.4 312.15 277.3 312.35 277.05 312.7 277.05 313.75 277.05 314.6 277.4 315.65 277.75 316.75 277.75 317.2 277.75 317.85 278.15 318.25 278.4 318.45 278.95 318.8
L 280.65 320.15 280.8 320.4
Q 280.85 320.8 280.2 321.55 278.9 323 278.15 324.8
L 277.2 326.95
Q 277 327.3 276.55 327.35 276 327.4 275.4 326.9 274.85 326.45 274.3 325.75 273.4 324.6 273.3 324.5 272.35 323.4 271.15 323.4 270.55 323.4 269.5 324.25 269.3 324.4 268.45 324.65 267.7 324.85 267.45 325.2 266.9 326 266.5 326.15 265.5 326.55 263.25 326.1 261.05 325.65 260.3 324.7 260.1 324.45 259.75 323.1 259.65 322.7 259.65 321.6 259.65 320.65 259.4 320.1 259.15 319.35 259.1 319.15 259 318.85 258.5 318.65 257.95 318.45 257.55 318.85 257.3 319.05 256.65 320.05 256.6 320.1 255.7 321.35 255.25 321.95 255.15 322.5 254.95 323.4 253.5 325.05 253.3 325.4 253 324.2 252.55 322.3 252.45 322.1 252.2 321.4 252.1 321.15 251.9 320.85 251.15 319.85 250.65 319.2 249.8 317.75 249.2 316.7 248.8 316.45 248.35 316.05 248.1 315.9 247.7 315.65 246.65 315.45 246.15 315.35 245.05 315.35 244.55 315.35 243.95 314.9 243.35 314.45 240.25 311.3 236.9 307.95 236.6 307.7 235.3 306.55 235.25 305.05 235.3 304.15 235.3 303.8 235.3 303.25 234.9 302.75 234.15 301.85 233.75 301.3 232.95 300.25 232.4 299.2 231.55 297.65 231.2 296.95 230.6 295.8 230.55 295.05 230.5 294.35 230.65 293.85 230.9 293.25 231.05 292.7 231.75 290.15 231.75 289.95 231.75 289.25 230 287.8 229.55 287.45 229.4 286.9 229.35 286.7 228.35 286.55 223.55 285.85 221.75 288.4 221.05 289.4 218.9 291.95 217.15 294.05 216.9 294.6 216 296.65 215.25 297.05 214.85 297.3 214 297.25 212.6 297.25 212.3 297.25 211.2 297.25 210.75 297.25 209.95 297.3 209.15 297.55 208.05 297.9 206.05 298.25 203.85 298.6 202.25 298.6 200.8 298.6 200.1 299.45 199.7 299.9 199.3 300.95 198.8 301.85 198.4 303.7 197.8 305.3 196.95 305.45 196.65 305.5 196.45 305.2 196.05 304.65 195.2 304.1 192.25 302.25 192 302 191.4 301.35 191.1 301.2 190.7 300.95 189.65 301 189 301.05 187.85 300.95 186.9 300.9 185.9 301.05 181.05 302.1 179.7 302.1 177.85 302.1 177.85 300.5 177.85 300.4 178.15 299.45 178.35 298.9 177.8 298.15 177.3 297 177.15 296.7 176.9 296.3 176 296.65 175.25 296.9 174.95 297.2 174.7 297.4 174.1 297.5 173.4 297.6 172.4 297.6
L 170.8 297.5
Q 169.4 297.5 169.1 297.55 168.2 297.65 168.15 298.1 168.05 299.75 168.45 300.75 168.6 301.05 168.8 301.55 168.85 302 168.05 302.45 167.45 302.8 167.05 302.8 166.65 302.8 165.8 303.25 164.2 304.1 163.6 304.3 163.3 303.55 163.7 301.85 164.5 298.45 164.8 295.95 167.05 282.2 167.2 281.4 167.5 280.7 167.5 280.25 167.5 279.5 166.65 278.45 163.5 274.3 162.7 273.6 162.1 273.1 162.75 272.5 163.35 271.95 164.25 272 165.55 272.05 165.75 272.05 166.4 271.95 166.55 271.35 166.65 270.95 166.65 269.95 166.7 269.05 166.85 268.5 167.55 267.1 168.05 265.95 169 263.85 169 262.35 168.75 258.65 168.85 258.3 168.9 258.1 169.4 257.8 169.85 257.5 169.85 257.55 170.65 256.8 170.95 256 171.35 254.25 171.65 253.8 171.85 253.55 171.95 252.75 172.15 251.7 172.2 251.5 172.35 250.95 172.15 250.75 171.9 250.55 171.05 250.6 169.05 250.95 166.7 251
L 158.05 251.05
Q 158.35 250.25 157.85 248.95 157.25 247.4 157.15 247.2 156.75 246.4 156.15 245.9 154.3 244.2 153.95 244.05 153.55 243.9 153.4 243.9 152.95 243.85 151.75 244.15 139.55 247.2 135.9 247.6 133.75 247.85 133.15 247.95 132.5 248.1 132.5 248.35 132.5 249.7 132.8 250.8 133.15 252.1 132.95 252.95 132.85 253.3 132.1 253.5 130.85 253.8 130.3 254.1 128.95 254.8 114.15 260.25 113.85 258.25 114.15 256.75 Z"/>
</defs>

<g id = '17603'  fill="white" transform="matrix( 1, 0, 0, 1, 0,0) ">
<use xlink:href="#Layer0_0_1_STROKES"/>
</g>
</svg>
