
<svg xmlns="http://www.w3.org/2000/svg" version="1.1" xmlns:xlink="http://www.w3.org/1999/xlink" preserveAspectRatio="none" x="0px" y="0px" width="500px" height="356px" viewBox="-15844 -15981 28200 28056">
<defs>
<path id="Layer0_0_1_STROKES" stroke="#000000" stroke-width="1" stroke-linejoin="round" stroke-linecap="round"  d="
M 60.2 239.4
Q 60.15 237.6 60.45 236.5 60.65 235.45 60.75 235 60.9 234.35 61.25 234.25 63 233.8 63.75 233.75 64.35 233.7 65.5 233.65 66.45 233.55 66.75 233.2 67.15 232.75 67.3 232.25 67.45 231.7 67.25 231.4 67.05 231.05 66.85 230.85 66.6 230.5 66 230.2 65.15 229.85 64.85 229.65 64.35 229.3 64.2 228.6 63.6 226.05 63.45 224.85 63.35 224.2 63 223.4 62.65 222.55 62.5 222.25 62.45 222.1 61.85 221.15 61.35 220.4 61.35 220.05 61.3 219.3 61.35 218.8 61.35 217.9 61.6 217.35 61.9 216.6 62 216.35 62.2 215.95 62.75 215.7 63.45 215.35 63.9 214.7 64.4 214 64.2 213.35 64 212.8 63.65 212.4 63.2 211.95 62.95 211.7 62.45 211.3 62.3 211.1 62 210.8 62.35 210.2 63.2 208.45 63.65 207.55 64.1 206.3 64.4 205.75 64.65 205.3 64.6 204.2 64.6 203.1 64.2 203.05 62.75 202.9 62.15 202.3 61.9 201.7 60.8 200.7 59.15 199.1 59.15 199.15
L 58.75 199.5
Q 58.3 199.9 58.1 200.2 57.25 201.65 57.05 200.9 57.05 200.85 56.85 199.7 56.75 199.05 56.5 198.7 56.05 198.1 55.25 197.6 54.2 196.95 53.55 197.25 51.1 198.35 50.4 197.85 50.1 197.65 50.05 197.25 49.95 196.7 49.7 196.25 49.25 195.35 49.05 195 48.75 194.5 48.35 194.6 48.05 194.65 47.75 195 47.5 195.3 47.1 195.3 46.75 195.3 46.45 195.1 46.05 194.9 45.5 194.8 44.95 194.7 44 194.95 42.9 195.25 42.45 195.25
L 39.55 195.25
Q 38.75 195.25 38.6 193.75
L 38.6 192.25 37.9 190.1
Q 37.2 187.5 37.2 187.6 37 186.8 36.85 185.85 36.5 183.95 36.8 183.5 37.15 182.6 37.65 181.95 37.65 181.9 38.3 181.4 38.6 181.15 38.65 180.45 38.75 179.25 38.75 177 38.25 166.85 38.3 165.7
L 37.9 155.95 35.35 155.7
Q 34.8 155.65 34.1 155.3
L 33.45 154.95
Q 33.6 154.75 33.8 154.5 34.25 154.05 34.7 154 35.5 153.9 35.55 153.85 35.85 153.75 35.9 153.2 35.85 151.65 35.9 151.2 35.75 149.3 35.9 148.8 36.35 147.35 36.75 147.5 36.85 147.55 37.35 147.9 37.75 148.15 38.2 148.2 38.7 148.25 39.05 148.15 39.25 148.1 39.65 147.95 40.45 147.8 40.55 146.85 40.6 146.25 40.75 146.05 40.8 145.9 41.2 145.45 41.55 145.1 41.5 144.7 41.5 144.5 41.2 143.75 40.9 143.05 40.8 142.75 40.65 142.3 40.85 141.9 41.1 141.35 41.2 141.15 41.35 140.8 41.7 140.6 42.1 140.35 41.95 139.6 41.8 138.85 41.2 138.45 40.55 138 40.2 137.45 39.8 136.85 40.1 136.55 40.75 135.9 41.55 135.9 42.25 135.9 42.25 134.85 42.25 134.1 43.25 133.45 45.5 132 44.9 131.2 44.6 130.7 44.5 130.6 44.45 130.45 43.95 130.25 43.45 130.05 42.9 129.25 42.35 128.5 42.45 128.5 43.3 128.4 43.55 127.7 43.6 127.55 44.05 125.3 44.05 124.8 44.05 124.55 44.05 124.1 44.5 123.8 45.55 123.1 46.15 122.65 47.35 121.75 47.55 121.3 47.9 120.7 48 120.45 48.25 120 48.4 119.4 48.7 118.6 48.75 118.35 48.85 117.95 48.35 117.55 47.2 116.7 47.05 116 46.8 115.4 46.75 115.1 46.65 114.5 47.3 114.35
L 50.5 113.6
Q 50.95 113.35 50.4 112.75 49.1 111.3 48.7 111.1 48.25 111 48.1 110.9 47.85 110.75 48.05 110.25 49 108.5 49.2 108.05 51.05 105.4 51.1 104.9 51.15 104.65 51 104.35 50.75 103.85 50.6 103.3 50.25 102.25 50.2 101.95 50.1 101.55 50.5 101.6 51.6 101.75 52.15 102.1 52.45 102.3 53.2 102.3 53.55 102.35 53.9 102.35 54.45 102.15 54 101.45 53.5 100.85 53.35 100.65 53.1 100.3 53.4 99.9 53.95 99.2 54.3 98.4 54.3 98.35 54.5 97.4 54.65 96.8 55.15 96.5 55.65 96.2 56.6 95.4
L 58 94.15
Q 58.1 94.05 59.1 93.5 59.55 93.25 59.6 92.75
L 59.65 90.6
Q 59.65 89.25 60.4 89.3 60.7 89.35 61.2 89.4 61.65 89.45 61.8 89.3 62 89.1 62.2 88.35 62.4 87.6 62.35 87.2 62.25 86.5 62.25 86.2 62.25 85.75 62.7 86.25 63.05 86.65 63.5 87.25 63.85 87.65 64 87.55 64.1 87.5 64.3 86.95 64.5 86.4 64.85 86.25 65.5 85.85 65.8 85.65 66.3 85.35 66.45 85.65 66.65 86 66.1 87.55 65.9 88.2 65.85 88.35 65.85 88.7 66.2 88.95 67.55 90.05 67.95 89.3 68.05 89.1 68.2 88.35 68.3 87.8 68.65 87.55 69.25 87.15 69.45 87.1 69.85 86.9 70.4 87.05 70.6 87.1 71.5 87.4 72.05 87.6 72.45 87.6 73.1 87.6 75.95 84.35 76.1 84.1 76.65 84.05 77.2 83.95 77.55 84.15 77.8 84.3 78.1 84.5 78.4 84.7 78.95 84.7 79.85 84.7 81.4 84.4 81.65 84.4 82.15 84.3 82.45 84.25 82.75 84.35 82.95 84.45 83.25 84.95 83.5 85.45 84 85.55 84.4 85.6 84.8 85.3 85.25 84.95 85.9 85.1 87.35 85.4 88.35 85.4 88.95 85.4 89 85.45 89.1 85.45 89.5 86 89.85 86.45 90.15 86.55 90.35 86.6 90.95 86.65 92 86.8 92.4 87.15 92.75 87.45 93.35 87.5 94 87.55 94.1 87.1 94.15 86.5 94.2 86.2 94.25 85.75 94.6 85.3 94.9 84.95 95.2 84.5 95.5 84.25 96.1 84.3 96.95 84.4 97 84.4 97.15 84.5 97.2 85.05 97.2 85.35 96.85 85.9 96.65 86.2 97.2 86.4 98.45 86.85 99.05 87.75 99.5 88.45 99.35 89.3
L 99.2 90
Q 99.2 90.4 99.4 90.55 99.9 90.9 100.8 90.35 101.15 90.15 101.75 89.75 102.25 89.45 102.55 89.85 102.8 90.15 103.2 90.75 103.6 91.3 104 91.5 105 92.05 105.95 93.7 106.25 94.25 106.4 94.35 106.6 94.45 106.95 94.15 107.2 93.95 107.75 93.4 108.2 92.95 108.45 93.15 108.7 93.35 108.8 93.85 108.85 94.15 108.85 94.55 108.95 94.95 109.3 95.65 109.7 96.4 110.2 97.8 111.1 97.6 111.75 96.9 112.25 96.35 112.8 96.15 113.4 95.9 113.5 96.25 113.6 96.5 113.4 96.85 113.15 97.2 113.15 97.55 113.15 97.9 113.15 98.3 113.2 98.55 113.65 98.65 114 98.75 114.65 98.8 115.15 98.9 115.25 99.1 115.25 99.15 115.35 99.6 115.35 99.85 115.75 99.75 116.05 99.7 116.65 99.4 117.1 99.15 117.3 99.2 117.6 99.25 118.15 99.55 118.7 99.85 118.95 100.2 119.15 100.45 119.15 101.5 119.2 102.65 119.35 102.95 119.6 103.4 120.3 103.8 120.9 104.15 121.25 104.2 121.35 104.2 121.9 104.15 122.4 104.1 122.9 104.2 124.05 104.4 124.15 104.45 124.7 104.6 124.55 105 124.4 105.3 123.95 105.8 123.5 106.25 123.5 106.4 123.5 107.4 124 107.7 124.2 107.8 125 107.65 125.8 107.45 125.95 107.7 126.1 107.95 126.2 108.5 126.3 109.1 126.45 109.4 126.6 109.75 127.8 109.9 128.95 110.1 128.95 110.35 128.95 110.8 129 110.95 129.1 111.15 129.6 111.55 130.55 112.4 130.7 113.05 130.9 113.95 131.25 114.3 132.05 115.1 132.95 115.1 133.2 115.1 133.7 115.15 134.15 115.1 134.45 114.6 134.9 113.85 135 113.75 135.25 113.45 135.6 113.5 135.85 113.55 136.75 113.65 137.6 113.8 137.85 113.95 138.25 114.2 138.3 114.25 138.4 114.35 138.45 114.8 138.5 115.45 138.9 115.95 140.15 115.95 140.4 115.6 140.65 115.25 140.95 115.1 141.35 114.95 141.5 115.45 141.7 116.2 141.7 116.25 141.85 116.5 142.2 116.55 143.4 116.75 143.25 115.8 143.05 115.1 143.05 114.85 142.95 114.45 143.4 114.7 144.3 115.2 145 115.35 145.2 115.4 145.45 115.2 145.8 115 146.7 114.9 147.7 114.8 147.9 114.55 148.05 114.4 148.3 113.75 148.75 113.15 149.2 112.8 149.7 112.4 149.85 112.65 150.35 113.5 150.45 114.05 150.55 114.6 151.8 114.1 153 113.65 153.35 114.15 153.45 114.3 154.3 115.1 155.2 115.9 155.4 116.25 157.05 118.75 157.35 119.1 157.95 119.85 158.05 119.95 158.3 120.25 158.55 120.2
L 159.1 119.85
Q 159.45 119.65 159.55 120.05 159.65 120.45 159.7 120.9
L 159.7 121.7
Q 159.75 122.45 160.25 122.45 160.4 122.45 160.8 121.95 161.25 121.45 161.7 121.4 162.65 121.3 162.8 121.3 163.35 121.35 163.45 121.75 163.5 121.95 163.35 122.85 163.2 123.55 163.5 123.9 164.9 125.6 165.95 125.75 167.55 126 168.3 125.7 168.65 125.55 169 125.2 169.3 124.85 169.8 124.7 170.3 124.6 170.95 124.35 171.5 124.15 172.1 124.2 172.6 124.25 173 124.05 173.35 124 174.25 124.6 175.3 125.35 176.95 126 178.5 126.65 179.3 126.75 179.8 126.8 180.45 126.7 180.9 126.7 181.4 127.1 181.8 127.45 183.05 128.1 184.15 128.65 184.4 128.95 184.75 129.35 186.25 130 187.75 130.6 188.4 130.6 188.6 130.6 189.5 130.7 190 130.7 190.25 130.6 190.5 130.5 190.9 130.2 191.35 129.95 191.85 129.9 194.15 129.75 194.5 129.9 195 130.1 196.9 130.6 198.85 131.15 199.4 131.2 199.7 131.25 200.05 130.95 200.45 130.6 201.25 130.5 201.65 130.45 203.15 130.25 204.1 130.1 204.6 130.15 206.35 130.25 206.8 130.1 207.4 129.9 209.1 127.8 209.95 127 210.5 126.4 210.5 126.45 211.4 126.2 212.5 125.95 213.5 125.55 214.15 125.3 215.25 124 216.2 122.95 217.2 122.9 218.1 122.9 218.9 122.8 219.45 122.85 220.55 123.5 224.25 125.7 227.1 125.75 229.45 125.8 237.05 125.8 237.4 125.85 238.3 126.05 239 126.25 239.55 126.25 240.15 126.25 240.45 126.1 240.65 126 241.25 125.7 241.55 125.6 242.4 125.3 243 125.1 243.2 124.95 244.15 124.15 244.8 124.05 245.6 123.95 246.65 123.55 248 123 248.65 122.25 249.6 121.15 249.7 121.05 250.15 120.65 251.1 120.15 251.4 120 252.75 118.95 253.7 118.25 254.85 118.05 256.05 117.85 257.1 116.75 257.7 116.15 259.05 114.7 260.25 113.7 260.6 113.25 260.9 112.8 261.4 111.6 264 106 264.25 104.7 264.4 104 264.4 103 264.4 101.9 264.5 101.4 264.7 100.4 265.7 98.25 266.7 96.15 267 94.7 268.2 90.2 268.3 88.85 268.55 85.7 268.65 85.4 268.75 85.2 269.25 84.85 269.85 84.5 270.2 84 271.4 82.25 271.8 80.65
L 272.85 76.95
Q 275.65 71 276.2 68.85 276.9 66.2 277.5 64.3 278.75 60.45 280.6 56.65 281 55.85 281.7 54.8 282.3 53.9 282.45 53.4 282.65 52.8 282.6 51.85 282.55 50.75 282.55 50.15 282.55 48.35 282 47.5 281.05 46.1 280.8 45.3 280.35 43.9 280.5 42.7 280.65 41.7 280.65 41.45 280.7 41.2 280.9 40.9 281.1 40.65 281.6 40.5 282.6 40.3 282.75 40.25 284.1 39.8 284.65 39.1 284.85 38.9 284.95 38.4 285.15 38 285.9 38.05 286.55 38.1 287.55 38 288.7 37.9 289.35 37.9 290.2 37.9 299.7 35.75 304.55 34.65 310.65 33.2 311.8 32.95 314.95 31.85 318.05 30.75 318.9 30.6 320.65 30.25 322.25 29.9
L 321.75 33.85
Q 321.2 37.95 321.25 38.85 321.3 39.8 321.8 40.75 322.05 41.35 322.75 42.5 323.1 43.15 323.5 44.05 323.85 44.65 324.2 44.85 324.45 45 325.25 45 326.15 45 326.9 45.25 328.3 45.7 329.95 45.7 330.95 45.7 335.1 46.7 335.7 46.8 336.3 46.9 336.7 46.95 337.65 46.7 338.35 46.55 339.1 46.3 339.6 46.15 339.95 46.35 340.25 46.5 340.8 46.65 341.3 46.9 341.9 47.65 343.55 49.85 345.25 49.9 345.7 49.9 346.75 49.8 347.35 49.75 347.8 49.95 349.1 50.55 349.5 50.5 349.85 50.45 350.75 49.5 351.95 48.2 352.25 48 352.55 47.85 353.45 47.25 354.35 46.7 355.25 46.65 356.2 46.6 358.6 45.75 360.75 44.95 361.65 44.45 362.05 44.25 362.85 43.9 363.4 43.7 363.6 43.4 363.8 43.15 364.05 42.7 364.3 42.4 364.8 42.35 366.2 42.15 366.65 42 366.85 41.9 367.1 41.55 367.35 41.15 367.4 40.7 367.4 39.55 367.5 38.9 367.7 37.55 368.45 37.6 368.8 37.65 369.65 37.6 370.3 37.6 370.5 37.95 371.05 39 371.35 40.3 371.65 41.7 371.35 48.65 371.4 49.15 371.4 50.1 371.4 50.9 371.6 51.2 371.85 51.6 373 52.15 374.15 52.75 375 52.8 375.85 52.9 377.25 53.95 378.6 55.05 379.2 56.15 380.15 57.95 380.15 58.9 380.15 59.2 379.85 59.9 379.7 60.5 380.2 60.7 381.05 61 384.55 61
L 388.25 60.95
Q 389.15 60.95 390.25 61.6 391.25 62.15 391.9 62.95 392 63.1 393.1 64.3 393.8 65.05 394 65.55 394.45 66.65 397.15 66.8 399.35 66.95 400.35 66.65 400.8 66.55 401.45 66.25 402.05 66.05 402.9 66.05
L 404.4 66.05
Q 404.95 66.15 405.1 66.65 405.2 67 405.55 67.6 405.85 68.1 405.85 68.4 405.9 68.85 406.35 69.3 406.85 69.8 407.5 69.95 408.75 70.25 409.35 70 410 69.75 410.45 69.3 410.85 68.9 410.95 67.75 411.2 67.1 411.95 66.3 412.1 66.15 412.4 66 412.65 65.8 412.75 65.3 412.8 65.05 412.6 62.75 412.45 60.65 412.7 60.25 413.6 58.8 414.5 58.65 415.7 58.45 417 58.5 418.1 58.55 419.15 59.4 420.15 60.2 420.8 61.15 421.15 61.7 422 61.95 422.85 62.2 423.15 61.7 423.4 61.35 423.6 60.7 423.85 60.2 424.4 60.15 424.85 60.15 425.5 60.05 426 60 426.6 60.2 428.7 60.95 429.75 60.55 430.3 60.35 430.45 60 430.55 59.7 430.6 58.85 430.4 57.35 430.6 56.7 430.75 56.15 431.2 55.8 431.65 55.4 432.05 55.7 432.35 55.9 432.75 56.25 433.1 56.5 433.6 56.6 433.9 56.65 434.7 56.6 435.25 56.55 435.7 56.8 435.95 56.95 436.65 56.65 437.05 56.5 437 57.5 436.95 58.4 437.05 58.85 437.05 58.95 436.25 59.2 435.15 59.5 434.85 59.55 434.4 59.7 434.45 60.05 434.5 60.45 435 61.05 435.5 61.6 435.8 61.75 436 61.85 436.85 61.75 437.75 61.65 438.05 61.2 438.35 60.75 439.15 60 439.55 59.45 440 59.2 440.55 58.9 440.85 59.15 441.3 59.55 442.45 60.15 442.9 60.5 446.05 60.9 448.3 61.15 449.75 61.25 451.25 61.35 452.2 62.2 452.7 62.65 456.6 64.1 460.6 65.55 460.8 65.7 461.4 66.15 461.55 66.35 461.85 66.7 461.85 67.2 461.85 67.6 461.3 69.05 460.75 70.6 460.7 70.9 460.6 71.65 460.45 72.55 460.7 72.9 459.65 72.95 458.85 73.05 458.6 73.1 458.2 73.15 457.55 72.85 456.4 72.35 456.3 72.3 455.75 72.05 455.4 71.6 455.25 71.45 454.95 70.65 454.7 70.1 454.15 69.95 452.9 69.6 451.85 70.35 451.6 70.5 450.95 70.8 450.35 71 450.15 71.2 449.55 71.7 449.4 72.6 449.4 72.65 449.2 73.25 449.1 73.6 449.2 73.85 449.45 74.4 451.05 74.6 451.45 74.65 452.55 74.55 453.5 74.6 453.7 75.2 454 76.2 454 77.35
L 454 79.1
Q 454 79.35 454.1 79.45 454.25 79.6 454.75 79.7 455.55 79.85 457.4 79.25 457.8 79.15 458.9 78.7 459.95 78.35 460.3 78.45 461.5 78.85 462.5 80.75 462.7 81.15 464.25 83.5 465.55 85.6 465.85 86.35 466.25 87.4 466.6 94.3 466.65 95.25 466.45 96.2 463.75 96.95 463.05 97.2 462.1 97.25 461.25 97.8 460.65 98.2 460.3 98.3 460 98.35 459.15 98.35 458.65 98.35 458 97.95 457.45 97.6 457.1 97.85 455.65 98.5 455.45 98.95 455.1 99.7 453.65 99.9 453.1 100 452.7 99.75 452.3 99.45 452.25 98.95 452.1 98.2 452.05 97.85 452.05 97.25 452.65 97.05 453.15 96.9 453.8 96.65 454.25 96.5 454.4 96.25 454.65 95.9 454.6 95.4 454.6 94.8 454.15 94.85 454.1 94.85 453.5 94.6 453.1 94.35 452.05 94.75 449.65 95.3 449.3 95.75 448.95 95.9 448.85 95.95 448.65 96.1 448.65 97.15 448.65 99.55 450.1 103.05 450.95 105.05 451.2 106.65 451.3 107.1 451.35 107.5 451.35 107.75 450.8 108.2 450.2 108.75 449.95 109 449.5 109.35 448.75 109.75 447.9 110.2 447.75 110.55 447.65 110.7 447.65 111.35 447.65 111.7 447.85 111.8 447.85 111.9 447 112.6 444.2 114.9 444.1 114.95 443.7 115.15 442.75 115.2 441.55 115.25 440.9 115.25 440.4 115.25 439.3 115.15 438.6 115.05 438.45 115.25 438 115.8 438.55 117.15 438.8 117.8 439.85 119.5 440.85 121.2 441.25 121.75 442.1 122.85 442.05 123.45 442 124 441.95 124.1 441.85 124.35 441.4 124.55 441.25 124.65 440.35 124.8 439.75 124.9 439.8 125.2 439.9 126.3 440.35 127.35 440.5 127.7 440.9 128.45 441.2 129.05 441.2 129.4 441.2 130.05 440.3 130.4 439.75 130.5 439.55 130.6 439.25 130.7 439.15 131.25 439.1 131.7 439.05 132.2 438.85 132.5 437.85 132.55 436.1 132.25 435.9 132.6 435.8 132.75 435.5 133.8 435.4 134.1 434.7 134.2 433.9 134.3 433.75 134.3 432.9 134.35 431.25 134.45 429.2 134.6 427.15 135.6 426.6 135.85 424.9 136.45 423.3 137 423.05 137.05 422.85 137.1 422.65 136.8 422.4 136.5 422.45 135.9 422.5 134.7 422.35 133.7 422.3 133.45 421.8 133.55 421.3 133.7 420.8 134.15 419.95 134.9 419.2 135.15 418.7 135.4 418.45 135.45 418.05 135.5 417.75 135.1 416.7 133.4 416.3 132.9 415.85 132.35 415.5 130.8 415 128.7 415.1 128.6 414.15 128.55 413.3 129.35 412.35 130.25 411.35 130.75 406.05 133.4 404.25 134.5 402.55 135.45 402.25 135.7 401.7 136.15 401.7 137.3 401.7 139.2 400.75 145.35 400.25 148.45 398.6 156.15 398.45 156.9 397.9 157.05 397.1 157.2 396.45 157.35 395.9 157.5 394.8 157.55 394 157.6 393.8 157.85 393.55 158.15 393.6 158.9 393.6 159.3 393.7 159.95 393.75 160.45 391.5 160.45 391.05 160.45 389.95 160.25 389.2 160.1 389.1 160.3 388.95 160.7 389.05 162.6 389.15 164.8 389.65 166 390.75 168.65 390.95 170.5 391.15 172.3 389.8 173.1 387.7 174.2 386.9 174.8
L 383 177.95
Q 380.95 179.55 380.8 179.85 380.55 180.3 381.3 181.55 381.4 181.7 382.1 182.45 382.7 183.1 382.95 183.8 383.2 184.4 383.7 185.6 384.1 186.7 383.95 187.4 383.55 189.75 383.55 189.85 383.6 190.3 384.05 190.4 384.55 190.5 385.2 190.1 386.55 189.25 387.9 188.75 388.5 188.5 389.15 188 389.65 187.6 390.7 187.4 391.65 187.25 392.7 187.1 393.35 187 393.45 186.8 393.75 186.35 393.45 185.4 393.2 184.95 393.1 184.7 393 184.35 393.6 184.15 394.55 183.8 396.9 183.3 397.45 183.15 400.35 182.25 402.5 181.55 402.9 181.55 403.7 181.55 403.9 181.6 404.45 181.7 404.75 182.2
L 405.8 184.1
Q 406.05 184.5 406.6 184.6 407 184.65 408.35 184.75 408.95 184.8 410.2 185 411.05 185.1 411.75 185.1 412.25 185.1 413.1 184.95 413.55 184.9 413.6 185.1 413.65 185.3 413.4 186.05 413.25 186.45 412.95 187.3 412.9 187.45 412.75 188.15 412.6 188.7 412.25 189.55 410.75 193.15 410.6 194.55 410.55 195.1 410.05 195.45 410.05 195.5 409.15 196 408.55 196.25 408.4 196.35 408.15 196.5 408.5 196.95
L 410.1 199
Q 410.6 199.7 410.65 200.8 410.7 201.35 410.4 204 410.05 206.6 409.8 207.9 409.65 208.8 409.35 210.45 409.15 211.75 408.9 211.95 408.7 212.15 408.1 212.15 407.5 212.15 407.25 212.3 406.65 212.75 406.65 213.85
L 406.7 216.15
Q 406.7 216.2 407 216.65 407.15 216.85 406.5 217.5 404.65 219.35 404.5 219.7 404.2 220.55 403.95 220.95 403.55 221.75 403.1 221.8 402.8 221.85 402.45 221.65 402.2 221.5 401.8 221.85 401 222.5 400.55 223.3 399.85 224.45 399.5 224.6 399.2 224.7 398.3 224.4 397.2 224.1 396.7 223.45 396.35 223.05 395.3 222.15 394.45 221.45 394.35 221.1 394.2 220.6 393.75 219.9 393.25 219.2 392.85 218.95 392.3 218.6 392.05 218.55 391.6 218.5 391.15 218.9 390.45 219.9 389.65 220.5 389.05 220.95 387.4 222.85 385.7 224.75 385.1 225.65 383.95 227.75 383.5 228.15 382.7 228.85 381.35 228.95 380.8 229 380.4 228.75 380 228.45 380.35 228 380.6 227.7 381 227.15 381.25 226.75 381.3 226.3 381.35 225.75 381 225.35 380.6 224.95 380.1 225.1 379.95 225.15 379.65 225.4 379.5 225.55 378.6 225.55 377.75 225.55 376.55 225.35 375.45 225.2 375.3 225.2 373.5 225.4 373.2 225.4 371.85 225.4 369.6 225.15 366.9 224.85 366.15 224.4 365.35 223.95 364.95 223.45 364.6 223.1 364.15 222.25 363.7 221.35 363.55 221.05 363.3 220.65 363.1 220.6 362.15 220.45 361.8 220.9 361.55 221.1 361.5 221.2 361.4 221.3 361.4 222
L 361.4 224.95
Q 361.4 225.05 361.7 226.35 361.9 227.2 361.75 227.65 361.55 228.2 361.05 228.3 360.55 228.35 360.3 227.85 359.45 226.25 358.5 225.65 357.3 224.45 356.75 224.4 356.35 224.35 355.75 224.8 355.15 225.2 354.95 225.6 354.8 225.9 354.35 226.3 353.9 226.7 353.85 226.8 353.65 227.15 351.95 226.4 351.15 226.05 351 226.05 350.7 226 350.3 226.5 349.95 226.9 349.7 227.05 349.25 227.3 348.65 227.65 347.4 228.45 346.35 229.45 344.9 230.75 344.95 231.6 345 232.4 344.85 232.65 344.6 232.9 344.45 233.15 343.95 234 343.2 233.25 342.95 233 342.7 232.5 342.5 232.15 342.25 232.05 341.15 231.6 340.65 232 340.4 232.2 339.8 232.4 339.15 232.6 338.65 233 337.8 233.6 337.5 233.85 336.95 234.3 336.7 234.8 335.25 237.85 335.5 239.25 335.65 240.1 335.4 240.35 335.2 240.55 334.4 240.65 333.85 240.7 333.3 240.45 332.65 240.1 332.3 240.1 331.25 240.05 330.85 240.95 330.7 241.3 330.5 242 330.3 242.6 329.95 242.8 328.95 242.95 328.45 243.5 328.4 243.6 327.95 244.35 327.65 244.85 327.15 245 326.65 245.15 325.25 245.1 323.6 245.05 323.45 245.05 322.6 245.1 322.2 246.5 322 247.15 323.55 248.95 325 250.7 326.5 251.7 327.75 252.55 328.25 253.85 328.6 254.75 328.55 255.5 328.45 256.95 328.65 257.55 328.75 257.75 328.95 258.1 329.15 258.35 328.95 258.6 328.65 259 327.6 258.95 327.05 259.05 326.75 259.45 326.65 259.55 326.3 259.8 326 260 325.8 260.45 325.65 260.85 325.3 261.35 325.1 261.75 325.55 262.3 325.95 262.75 326.35 263.25 326.65 263.55 327.05 263.6 327.25 263.6 328.85 263.95 329.65 264.1 329.65 264.15 329.8 264.2 330.1 264.65 330.45 265.2 330.5 265.65 330.55 266.1 330.1 266.15 329.5 266.2 327.7 265.9 327.25 265.8 326.55 265.55 325.95 265.35 325.75 265.35 325.15 265.35 324.6 265.7 324.1 266 323.4 266.15 322.65 266.35 322.2 266.15 321.9 266.05 321.2 265.6 320.65 265.2 320.45 265.2 320.35 265.2 318.4 265.55 317.55 265.7 317.25 266.2 316.6 267.8 316.35 268.2 316.2 268.4 315.65 267.85 314.95 267.15 314.5 267
L 313.45 266.65
Q 313 266.6 312.55 267 311.7 268.15 310.7 268.9 309.95 269.3 309.8 269.4 309.6 269.6 309.35 270.75 308.95 272.6 308.65 273.95 308.55 274.85 307.75 275.05 307.35 275.1 307.1 275.15 306.65 275.2 306.15 275.55 306 275.65 304.55 277.7 303.1 279.65 301.6 280.55 300 281.5 298.15 283.9 297.2 285.2 296.05 286.95 295.7 287.5 295.2 288.05 294.95 288.45 295.05 288.8 295.15 289 295.55 289.6 295.95 290.15 296.05 290.55 296.15 290.95 296.25 291.25 296.3 291.5 296.2 292.1 295.85 293.95 294.75 293.95 293.4 293.95 292.7 293.35 291.75 292.55 291.75 291.35 291.75 290.15 291.4 288.6 290.85 286.25 290.5 286.05 290.05 285.8 288.65 285.8 288.2 285.8 287.35 285.7 286.35 285.6 286.15 285.45 285.65 285.1 284.05 285.1 280.4 285.1 279.85 284.5 279.55 284.15 279.2 283.4 278.75 282.5 278.5 282.15 277.95 281.35 277.9 281.3 277.65 281.05 277.15 281.2 275.1 282.1 274 282.35 273.15 282.55 271.85 283.35 270.5 284.2 270 284.9 269.2 286 267.7 286.55 267.05 286.8 266.8 287.1 266.65 287.3 266.3 287.85 266.15 288.05 265.85 288.7 265.6 289.1 265.35 289.3 264.85 289.7 263.15 289.7 262.6 289.7 260.95 289.05 260.3 288.65 260.05 288.55 259.6 288.3 259.25 288.6 259.2 288.65 258.9 289.45 258.7 289.95 257.75 290.15 256.3 290.6 255.65 290.75 254.55 291.1 253.6 291 252.25 290.85 252.05 290.9 251.65 290.9 251.55 291.25 251.45 291.6 251.15 291.8 250.9 291.9 250 292.2 249.45 292.4 248.85 292.7 248.2 293.05 247.65 293.2 246.45 293.6 245.3 294.5 241.75 297.35 241 298.85 240.55 299.7 239.9 299.8 239.6 299.85 238.3 299.7 238 299.65 237.35 299.15 237 298.9 236.05 299.65 234.8 300.6 233.55 301.75 233.1 302.2 233 302.55 232.95 302.8 233.1 303.45 233.2 303.85 233.55 304.55 233.8 305.15 233.35 305.5 233.05 305.75 232.5 306.35 232 306.85 231.6 307.15 231.2 307.45 229.85 309.25 228.45 311.1 228.25 311.25 227.95 311.5 227.4 311.5 226.5 311.5 226.1 311.55 224.7 311.8 224.1 312.85 223.95 313.15 223.55 313.9 223.15 314.65 222.7 315.1 222.1 315.7 222.1 315.75 222.05 315.85 222.2 316.45 222.5 317.4 222.5 317.55 222.6 318.1 222.4 318.45 222.1 319 221.2 319.6 220.9 319.95 220.45 320.2 220.1 320.45 220.15 320.95 220.2 321.35 220.35 321.95 220.45 322.45 220.05 322.8 219.5 323.25 219.25 323.35 218.85 323.45 217.85 323.35 217.25 323.3 216.35 322.95 215.85 322.8 215.7 323.1 215.35 323.95 214.75 324.5 214.55 324.7 213.35 324.5 212.6 324.65 212.2 325.2 211.95 325.55 211.25 326.3 210.45 327.1 210.25 327.15 210 327.25 209.35 326.25 208.65 325.3 208.45 324.55 208.25 323.85 205.1 317.6 202.05 311.45 201.7 311
L 201.15 309.85
Q 201.25 309.9 202.55 309.25 203.25 308.7 204.1 307.65 213.75 295.7 214.75 294.7 216.3 293.15 216.35 292.75 216.5 292.25 216.5 291.95 216.45 291.45 215.85 291.35 214.75 291.2 213.1 291.25 211.75 291.2 210.4 291.35 207.7 291.65 206.6 291.65 201.2 291.85 199.7 291.9 197.3 292 196.9 291.85 196.65 291.75 196.75 291.2 196.8 290.55 197.15 290.2 197.85 289.55 198 289 198.05 288.8 197.8 288.5 197.45 288 197.15 287.65 196.25 286.5 196.55 285.9 197.1 284.85 196.45 284.6 195.8 284.35 195.6 284.4 195.3 284.5 195.15 285.25 195.1 285.55 195.05 286.3 195.05 286.6 194.8 286.75 194.6 286.85 192.7 286.95 191.2 286.85 190.85 286.95 190.55 287 190.45 287.05 190.35 287.1 190.35 287.6 190.35 288.2 190.3 288.35 190.25 288.55 189.9 288.95 189.65 289.25 189.35 289.45 189.15 289.65 189.15 290.15 189.15 290.6 189.05 291 189.05 291.35 189.35 291.95 189.6 292.45 189.8 293 190 293.45 190.55 293.9 191 294.3 191.6 294.7 192 295.05 192.05 295.55 192.1 295.95 192.2 296.45 192.25 296.85 191.9 297.45 191.65 297.9 191.1 298.3 190.65 298.6 190.6 299 190.5 299.8 190.95 301.6 191 301.8 191.3 302 191.5 302.35 191 303.35 190.4 304.55 190.25 304.8 190.15 305 189.8 305.25 189.6 305.4 188.9 305.55 188.25 305.65 188.05 305.85 187.85 306.05 187.55 306.85 187.4 307.3 187.1 308.05 186.95 308.4 186.6 308.75 186.35 308.95 185.7 309.55 185.45 309.8 185 310.1 184.85 310.2 184.9 310.5 184.95 311.2 185.3 312.15 185.8 313.55 185.9 314.5 185.95 314.8 185.65 316 185.35 317.15 185.1 317.7 184.9 318.2 183.65 319.6 182.85 320.5 181.7 321.15 180.8 321.95 180.7 322.8 180.65 323.25 180.2 323.95 179.55 324.9 178.65 325.5 177.95 325.95 177.2 326.5 176.7 326.8 176.35 326.3 175.45 324.85 174.8 323.85 174 322.65 173.95 322.55 173.45 322 172.55 321.9 171.35 321.75 171.1 321.6 170.75 321.25 171.25 320.25 171.6 319.55 172.45 318.2 173.15 317.1 173.25 316.75 173.4 316.3 172.85 315.65 172.1 314.85 171.75 314.4 171.6 314.25 171.1 313.45 170.8 313 170.25 312.6 169.05 311.65 168.8 311.9 168.7 312 168.55 312.4 168.3 312.75 167.7 312.65 167.2 312.55 166.8 312.1 166.3 311.55 165.95 311.35 164.65 310.65 164.4 309.9 164.3 309.65 164.55 309.2 164.8 308.75 165.15 308.5 165.95 307.95 166.5 307.2 167.9 304.55 168.65 304.25 169.4 303.95 170.05 303.35 170.85 302.5 171 301.55 171.2 300.5 171.2 300.15 171.2 299.8 170.95 299.05
L 170.5 297.85
Q 170.4 297.4 170.5 296.75 171 294.9 171.1 294.35 171.2 293.7 169.85 291.95 169.4 291.3 169.2 291.1 168.85 290.75 168.55 290.8 166.2 290.95 165.5 291.35 164.95 291.65 156.65 293.7 148.3 295.75 147.3 295.8 146.3 295.85 145.8 295.7 145.35 295.5 144.65 294.95 142.7 293.35 142.65 293.05 143.05 291.95 143.4 290.2 143.6 289.25 144.3 287.45 144.95 285.7 145 285.3 145.1 284.6 144.85 284.4 144.6 284.2 143.35 283.95 141.5 283.6 140.95 283.25 140 282.65 140.1 280.45 140.85 270.7 140.9 269.4 140.95 267.75 142 265.1 142.2 264.6 142.75 263.65 143.15 262.9 143.15 262.65 143.15 261.8 140.9 260.4 138 258.45 137.7 258.4 137.55 258.4 137.4 259.05 137.15 259.95 136.9 260.35 136.65 260.75 136.25 261.2 135.95 261.6 136 262.1
L 136.3 264.85
Q 136.3 264.9 136.7 265.9 136.95 266.45 137.3 267.25 137.45 267.75 137.15 267.9 136.85 268 136.2 267.9 135.15 267.75 134.8 267.75 134.1 267.7 133.6 267.5 133.05 267.25 132.6 267.1 132.4 267.05 131.65 266.65 131.3 266.45 131 266.55 130.55 266.6 130.35 266.6 130 266.65 129.7 267.1 128.6 268.8 128.45 268.95 127.3 270.5 127.85 270.8 128.05 270.9 129.45 270.9 130.75 270.9 130.85 271.05 130.95 271.2 131.35 271.7 131.5 272.15 130.75 272.6 130.1 273 129.6 273.6 129.1 274.2 128.75 274.4 128.35 274.65 127.05 274.05 125.6 273.35 125 273.35 124.25 273.4 123.4 273.3
L 122.75 273.25
Q 122.75 273.3 122.25 273.8 121.7 274.5 121.4 275.1 120.4 277.35 119.95 278 119.15 279.2 117.4 278.4 116.75 278.1 116.05 277.65 115.35 277.2 115.05 277.05 114.95 277 113.1 276.45
L 111.75 276.15
Q 111.3 276.05 110.65 275.55 110.2 275.2 109.05 273.95 108.05 272.9 107.45 272.6 106.7 272.2 106.15 272.1 105.7 272 104.65 272 102.15 272 99.75 272.2
L 97.55 272.35
Q 97.15 272.35 97 272.05 96.8 271.75 97.15 271.4 98.05 270.5 98.15 270.15 98.2 269.9 98 269.55 97.95 269.5 97.3 268.55 96.55 267.05 96.1 266.75 95.6 266.45 94.75 267 94 267.5 93.1 267.5 92.85 267.55 92.7 267.5 92.35 267.45 91.95 266.85 91.1 265.65 89.7 264.25 87.8 262.3 86.75 262.1 86.4 262.05 85.3 261.7 84.8 261.55 83.85 261.6 81.35 261.7 81.2 261.7 79.25 261.95 78.75 261.55 78.5 261.35 78.25 261 78 260.6 77.6 260.15 76.15 258.65 75.1 257.5 73.1 255.3 72.7 254.5 72.25 253.55 71.9 253.2 71.6 252.9 70.9 252.6 70.25 252.5 70 252.4 69.7 252.25 69.4 251.3 69.05 250.1 68.9 249.75 68.75 249.2 68.55 248.95 68.35 248.7 68 248.75 67.5 248.95 67 249.05 66.55 249.15 64.85 249.8 64.1 250.1 63.9 250.1 63.55 250.05 63 249.55 62.45 249.05 61.5 247.2 60.65 245.5 60.5 244.85
L 60.2 239.7"/>
</defs>


<g id = '17607'  fill="white" transform="matrix( 1, 0, 0, 1, 0,0) ">
<use xlink:href="#Layer0_0_1_STROKES"/>
</g>
</svg>
