

<svg xmlns="http://www.w3.org/2000/svg" version="1.1" xmlns:xlink="http://www.w3.org/1999/xlink" preserveAspectRatio="none" x="0px" y="0px" width="500px" height="356px" viewBox="-13640 -14104 24150 24486">
<defs>
<path id="Layer0_0_1_STROKES" stroke="#000000" stroke-width="1" stroke-linejoin="round" stroke-linecap="round"  d="
M 74.65 263
Q 72.65 261.7 72 260.85 69.8 258.2 68.85 256.75 68 255.5 67.95 255.35 67.75 254.95 67.7 254.15 67.55 252.25 67.55 252.05 67.55 251.3 67.6 250.95 67.65 250.35 68.05 249.55
L 83.75 217.45 93.05 197
Q 98.75 184.75 99.75 182.1 100.3 180.6 101.75 178.1 103.15 175.7 103.3 175.3 103.75 174.35 103.8 174.05 103.85 173.65 103.15 173.5 101.75 173.25 101.2 173 100.35 172.6 100.4 171.75 100.45 170.9 100.8 169.45 101.15 167.2 101.4 166.5 101.6 165.9 101.65 164.85 101.7 163.7 101.4 163.25 100.6 161.95 101.3 161.55 102.35 161 103.25 160.15 103.65 159.8 104.1 158.55 104.45 157.55 104.55 156.9 104.65 156.35 105.2 154.15 105.8 151.85 106.1 150.95 106.6 149.85 106.7 149.55 106.85 149.1 106.35 149.05 105.7 149.15 105.5 149.15 105.2 149.15 104.9 148.45 104.8 148.2 103.95 146.4 103.65 145.8 104.05 145.65 104.35 145.5 104.9 145.8 105.65 146.2 105.7 146.2 106 146.3 106.15 145.95 106.25 145.75 106.25 145.1 106.25 144.55 106.5 144.25 107.1 143.55 107.9 143.6 108.8 143.7 109.1 143 109.8 140.45 110.1 139.65 111.85 135.7 112.1 135.1 112.6 133.9 112 133.35 111.2 132.6 110.85 131.85 110.6 131.3 110.9 130.85 111.15 130.4 111.55 130.6 111.95 130.8 112.1 130.8 112.25 130.75 112.6 130.45 113 130 113.15 129.8 113.45 129.45 113.85 129.5 114.5 129.55 116.55 129.15 116.65 128.65 116.85 128.05 117.25 126.9 117.8 126.5 118.25 126.2 118.8 125.9 119.1 125.7 118.75 125.2 118.2 124.7 118 124.55 117.75 124.3 118 123.75 118.3 123.1 119.15 121.9 119.35 121.65 119.7 121 120 120.5 120.3 120.15 120.7 119.7 121 119.6 121.3 119.5 121.9 119.55 123.05 119.7 123.65 119.2 123.9 119.05 124.25 118.8 124.55 118.55 125.1 117.9 126.5 116.15 127.65 115.4 128.55 114.8 128.15 113.8 128.1 113.65 127.6 113 127.35 112.65 127.6 112.3 128.05 111.7 129.25 110.45 129.55 110.1 129.7 109.6 129.9 109.3 130.6 109.25
L 132.95 109.15
Q 134.7 109.1 135.3 107.85 135.45 107.2 135.6 106.9 135.85 106.35 136.9 105.65 140.45 103.35 141.5 103.25 142.35 103.15 142.4 103.15 142.7 103.05 143.25 102.7 144.5 101.9 145.3 101.9 146.1 101.9 147.15 102.1 147.35 102.1 147.5 102.15 147.65 102.1 148.25 101.6 148.45 101.45 149.2 100.6 149.65 100.1 150.3 99.85 151.2 99.5 151.45 99.45 151.75 99.4 152.25 99.6 154.5 100.55 155.05 100.7 155.3 100.75 155.6 100.4 155.75 100.15 156.4 99.15 156.8 98.55 157.1 97.9 157.3 97.5 158.05 97.25 158.65 97.05 159.15 96.9 159.55 96.8 160.55 96.25 161.1 95.95 162.75 94.5 164 93.35 164.8 93.35 166.55 93.35 166.85 93.75
L 168.1 95.55
Q 168.65 96.3 169.6 96.5 170.1 96.6 171.7 96.45 172.85 96.45 174.8 96.85 178.1 97.15 178.25 97.2 178.5 97.35 179 98.9 179.45 100.45 179.45 101.25 179.45 102.8 179.95 103.45 180.2 103.75 180.75 104 181.4 104.2 181.85 104.15 183.1 103.95 183.35 103.15 183.65 102.2 183 101.25 182.4 100.35 182.35 100.3 182.2 100 182.35 99.45 182.6 98.4 184.2 95.95 184.65 95.25 185.4 94.45 185.85 94.05 186.45 93.4 190.6 88.85 191.15 88.4 191.45 88.15 192.95 87.75 193.05 87.7 193.8 87.8 194.1 87.8 194.2 87.2 194.3 86.6 194.25 85.95 194.2 85.15 194.2 84.85 194.2 84.1 194.25 83.75 194.35 83.15 194.9 82.6 194.95 82.55 195.85 81.55 196.3 81.05 196.95 80.75 198.85 79.9 199.45 80.75 199.65 81.05 199.95 81.55 200.2 81.8 200.55 81.5 200.85 81.25 201 80.75 201.25 80.15 201.45 79.85 201.8 79.35 202.5 79 203.15 78.65 203.7 78.65 204.8 78.65 204.9 79 205 79.25 206.1 79.5 207.2 79.75 207.8 79.65 209.6 79.45 209.9 79.45 211.3 79.55 211.8 79.55 212.6 79.55 213.1 79.25 213.05 78.7 212.35 78.4 212.3 78.4 211.15 78.1 210.3 77.9 209.75 77.4 208.1 75.9 208.4 75.2 208.6 74.75 209.15 74.3 209.7 73.85 210.2 73.85 210.55 73.85 211 73.95 211.35 73.95 211.6 73.7 211.9 73.45 211.85 72.95 211.7 72.2 211.6 71.7 211.55 71.25 211.4 71.35 211.35 71.35 211.45 70.55 211.6 69.55 210.5 68.2 210.3 67.9 208.9 66.4 208.55 66.05 207.85 65.5 207.25 65.05 207.05 64.8 206.25 63.65 206.2 63 206.15 62.45 206.4 62 206.65 61.55 207.1 61.55
L 209 61.6
Q 209.65 61.6 210.4 61 210.85 60.65 211.4 60.15 211.8 59.9 212.25 59.65 212.55 59.45 212.75 59 213.4 57.35 213.6 57.15 213.85 56.9 214.3 56.8 214.8 56.7 215.15 56.95 215.4 57.15 215.8 57.5 216.2 57.75 216.55 57.75 217.65 57.75 217.8 57.3 217.85 57.2 218.1 55.2 218 54.3 218 53.75 217.9 52.7 218.5 52.25 218.75 52.05 219.75 51 220.4 50.3 220.9 50.2 221.35 50.1 222.3 49.7 223.1 49.4 223.35 49.65 223.8 50.05 224.15 51.05 224.4 51.35 224.8 51.4 225.3 51.45 225.45 51 225.7 49.75 225.9 48.8 226.1 47.85 227.25 46.9 227.85 46.4 229.45 45.55 231.35 44.3 232.75 45.15 233.35 45.5 233.6 45.35 233.75 45.3 234.05 44.9 234.45 44.55 235.55 43.5 236.05 43.2 236.25 43.2 236.6 43.25 236.8 43.8 237.1 44.6 238.7 46.05 239.05 46.5 240.1 46.9 240.85 46.1 240.55 44.75 240.3 43.75 240.25 43.4 240.15 42.95 240.25 42.1 240.5 39.95 241.1 39.55 241.4 39.35 242.65 40.85 243.55 41.85 244.15 42.75 244.4 43.15 246.3 43.9 248.2 44.65 249 44.65 249.5 44.65 251.45 44.15 253.15 43.65 253.55 43.8 254.7 44.2 255.35 44.15 256 44.1 257.1 43.75
L 257.3 44.3
Q 257.5 44.9 257.45 45.2 257.45 45.45 257.3 45.95 257.25 46.35 257.4 46.65 257.6 47 258.2 47.1 258.8 47.25 259.1 47 259.75 46.5 260.5 45.2 260.6 45.05 260.8 44.55 261.1 44.05 261.85 43.4 262.55 42.8 263.8 41 265.1 39.15 265.3 39 265.6 38.75 265.7 38.35 265.85 38.05 266.65 38.15 267.5 38.25 268.05 38.65 268.35 38.85 269.05 39.4 269.35 39.6 271.65 41.7 271.95 41.95 272.55 42.9 273.05 43.75 273.25 43.8 273.45 43.85 273.95 43.25 274.6 42.4 275.05 42 275.4 41.7 275.95 41.05 276.35 40.6 277.15 40.05 277.8 39.65 278.65 39.15 279.25 38.8 279.7 38.45 280.65 37.7 280.5 34.6 280.5 34.45 280.25 33.15 280.15 32.5 280.45 32.4 281.1 32.2 282.25 32.3 282.6 32.35 282.95 32.45 283.2 32.5 283.5 32.15 283.9 31.7 284 30.7
L 284.05 30.15
Q 284.2 29.9 285 29.8 285.45 29.75 286.5 29.5 287.2 29.35 287.6 29.4 288.8 29.55 288.9 30.5 288.95 30.7 288.6 31.4 288.45 31.7 289.15 31.8 289.75 31.85 291.6 31.35 293.35 30.85 293.8 31 294.6 31.25 295.6 32.45 296.05 33 296.5 33.1 297.1 33.25 297.35 32.55 297.9 31.1 298.25 30.8 298.65 30.45 300.25 30.45 300.6 30.45 301.3 30.15 302.05 29.85 302.75 29.75 304.7 29.55 305.25 28.85 305.6 28.4 306.5 27.2 306.95 26.75 307.3 26.15 307.6 25.8 308.55 25.5 311.45 24.65 311.9 25 312.2 25.25 312.4 26 312.6 26.75 312.45 27.1 312.35 27.35 312.15 27.55 312 27.8 312.1 28.45 312.2 29.05 312.85 30.3 313.5 31.55 313.55 31.9 313.65 32.3 313.7 33 313.8 33.55 314.1 33.9 314.4 34.35 315.95 35.55 316.1 35.65 316.85 36.55 317.5 37.35 317.95 37.55 318.35 37.75 319 37.95 319.6 38.15 319.85 38.6 320.1 38.95 320.55 39.6 320.95 40.15 321.05 40.6 321.25 41.35 321.7 42.4 322.65 41.75 322.85 40.9 323.25 39.2 324 39.15 324.45 39.1 324.7 39.65 324.8 39.9 325.1 40.85 325.4 41.8 326.6 42.4 327 42.6 328 42 329.15 41.3 329.4 41.25 329.95 41.15 330.25 41.3 330.65 41.45 331.2 42.05 332 42.9 332.95 43.65 333.6 44.2 334.1 44.35 334.45 44.45 335.2 44.5 336.15 44.55 337.8 44.2 338.3 44.2 338.9 44.1 339.35 44.1 339.6 44.55 340.1 45.5 340.35 46.4 340.5 46.95 341.15 47.85 341.5 48.3 342.05 48.3 342.65 48.3 343.1 47.75 344.45 46.1 345.4 46.55 345.85 46.8 346.15 47.3 346.55 48.15 346.7 48.3 346.9 48.55 346.75 49.1 346.65 49.45 347.8 49.75 348.8 50.05 349.8 50.3 350.3 50.45 350.1 50.95 349.7 51.95 349.3 52.55 348.95 53.1 348.95 54.05 348.95 54.35 349.45 54.3 350 54.3 350.55 53.65
L 352.2 51.6
Q 352.45 51.35 352.6 50.95 352.8 50.75 353.5 50.75
L 356.3 50.75
Q 356.7 50.7 357.05 50.1 357.35 49.4 356.75 49.25 354.35 48.95 354.15 48.55 354 48.25 355.5 47 357 45.75 357.45 45.9 357.75 46 360.55 48 361.05 48.35 361.6 49.1 361.9 49.5 362.8 49.6 363.8 49.75 364.6 50.2 365.05 50.5 366.05 51.25 367.25 52.05 368.05 52.65 368.25 52.75 368.45 52.6 368.8 52.4 369.25 52.4 370.15 52.4 370.6 52.85 371.2 53.45 371.95 53.45 373.4 53.45 373.4 52.65 373.3 51.9 373.35 51.6 373.35 51.1 373.9 51.05 374 51.05 375.05 51.05 375.6 51.05 375.95 50.8 376.2 50.65 376.5 50 376.8 49.4 377.15 49.3 377.75 49.1 378.1 49.15 378.6 49.2 379.4 49.7 379.95 50.05 380.7 50.9 381.25 51.6 381.6 51.65 381.9 51.7 382.7 51.35 383.45 51 383.65 51.2 383.9 51.45 384.15 52.7 384.3 53.7 384.3 54.25 384.3 54.85 384.75 55.65 385.15 56.35 386.7 60.5 387.05 61.3 387.65 61.3 388.05 61.3 388.1 61.3 388.3 61.25 388.85 60.9 390.3 60 391.15 60 391.65 60 392.75 59.9 393.75 59.9 394.25 60.1
L 395.2 60.5
Q 395.55 60.7 395.7 61.2 395.95 62.1 396.8 62.3 398.3 62.65 398.5 63 398.65 63.25 398.8 63.75 399 64.15 399.5 64.2 401 64.3 401.5 64.5 402.3 64.85 402.25 65.5
L 402.1 66.4
Q 401.95 66.95 402.05 67.1 402.15 67.3 402.85 67.5 403.55 67.75 404 67.7 404.3 67.7 404.75 67.4 405.2 67.1 405.55 67.1 405.6 67.1 406.55 66.9 407.1 66.75 407.45 67.1 408.45 68.1 409.15 68.4 410 68.75 410.8 71.35 411.45 73.35 411.8 73.65 412.35 74.15 412.45 74.5 412.65 75.4 413.15 75.9 413.35 76.1 413.75 76.6 414.15 77.05 414.6 77.3 416.6 78.35 416.9 78.6 417.35 78.95 416.7 79.9
L 416.45 80.1
Q 416.25 80.4 416.7 81 417.4 82 418.5 83.1
L 419.25 84.05
Q 420.1 85.1 420.3 85.7 420.35 85.9 421.35 87.85 421.5 88.1 421.55 88.35 421.6 88.4 421.8 88.35
L 424 87.35 424.7 87.45
Q 425.4 87.5 425.6 87.35 426.6 86.7 426.6 86.1 426.6 84.95 426.75 84.7 427.2 83.95 428.7 83.6 430.4 83.2 430.65 83.2 431.15 83.2 431.55 83.35 432.05 83.6 431.35 83.9 430.8 84.15 430.4 84.25 429.95 84.35 429.55 84.55 428.65 84.95 428.55 85.05 428.2 85.25 428.2 85.6 428.2 85.85 428.5 86.45 428.8 87 428.8 87.2 428.8 87.4 428.45 88 428.05 88.55 428.05 88.65 428.05 88.85 429.45 89.45 431.65 90.45 432.05 91.15 432.4 91.8 432.5 93.1 432.55 94.35 432.3 94.7 431.8 95.45 429.75 96.7
L 427.65 97.95
Q 426.1 98.95 426.1 99.35 426.1 99.8 426.75 101.25 426.85 101.5 427.3 102.5 427.75 103.45 427.7 104.05
L 427.6 106.65
Q 427.6 107.05 427.45 107.55 427.4 107.95 427.7 108.45 427.8 108.6 428.4 109.25 428.75 109.6 428.75 110.15 428.75 111.75 427.8 113.15 427.65 113.4 426.6 115.65 425.65 117.75 425.15 118.3 424.6 118.95 424.55 119.35 424.55 119.45 424.8 120.5 425.15 121.95 425.05 122.5 425 123 424.75 123.35 424.65 123.45 424.1 124 423.75 124.35 423.25 125.15 422.8 125.9 422.7 126.15 422.65 126.3 421.95 127.55 421.3 128.85 421.75 129.5 422.15 130.1 422.65 130.5 423.5 131.15 423.65 131.3 425.4 132.95 425.45 133.45 425.5 134.1 425.45 135.35 425.4 136.8 425.2 137.35 425 137.85 424.45 138.25 423.65 138.65 423.2 138.9 422.35 139.3 422.1 139.45 421.65 139.7 421.6 140 421.55 140.5 421.55 141.8 421.35 143.05 420.7 143.6 420.3 144.1 420.1 144.25 419.8 144.55 418.85 144.65 415.8 144.9 415.25 144.95 414.6 144.85 414.25 144.8 413.6 144.7 413.25 145.3 412.95 145.8 411.2 148.05 409.4 150.3 409.15 150.7 408.85 151.25 407 152.85 406.45 153.35 404.6 153.55 404 153.6 402.05 156.2 400.5 158.25 399.55 158.3 398.75 158.25 398.35 158.25 397.7 158.25 397.1 158.55 396.05 159.1 394.9 160.1 393.8 161.05 393.35 161.85 393.2 162.15 393.35 162.75 393.4 163.1 393.6 163.8 393.8 164.75 393.75 165.25 393.7 165.85 393.5 166.05 393.3 166.25 392.75 166.3 391.05 166.4 390.85 166.5 390.35 167 390 167.25 389.35 167.75 388.15 167.45 386.5 167.05 386.05 167 385.35 166.9 384.5 167.1 382.15 167.9 380.95 168.15 380.05 168.35 379.05 169 378 169.7 377.45 170.5 377.1 171.05 376.4 171.75 375.9 172.25 375.8 172.55 375.6 173.1 375.6 174.65 375.35 175.6 374.65 176.05 373.5 176.8 373.3 177.4 372.65 181 372.3 181.65 372.15 182 372 182.5 371.85 182.9 371.4 183.1 370.9 183.3 369 183.3 368.6 183.35 368.5 183.3 368.35 183.25 368.2 182.75 368.1 182.4 368.05 181.75 368.05 181.15 367.85 180.7 367.35 179.5 367.3 179.4 366.95 178.75 366.55 178.55 365.7 178.15 364.25 178.05 363.5 178.05 363.1 178.05 362.4 178 362.2 177.85 361.6 177.45 361.25 176.6 360.95 175.9 360.85 174.3 360.9 173.55 360.85 173.2 360.85 172.65 360.55 171.95 359.8 170.25 358.25 169.4 357.55 169 356.9 168.85 356.1 168.7 355.85 169.05 355.15 170.05 354.35 170.5 353.45 171.05 351.8 171.2 344.85 171.35 343.9 171.7
L 341.35 172.95
Q 340.4 173.75 340 174.25 339.35 174.85 338.9 175.3 338.1 176.1 338.05 176.75 338.05 177.3 338.15 177.95 338.15 178.4 337.65 178.55 336.4 178.95 335 178.75 334 178.6 332.8 179.35 332.2 179.75 330.95 178.9 330.25 178.4 330.2 178.4 329.75 178.2 329.25 178.45 328.65 178.85 328.4 179 328 179.25 327.5 179.3 327 179.35 326.65 179.1 326.35 178.85 326.1 178.7 325.95 178.45 325.75 178.45 325.6 178.5 324.1 179.2 322.65 179.9 320.3 183.25 318.3 186.1 317.7 187.55 317.35 188.4 316.55 189.55 316.4 189.8 316.05 190 315.8 190.15 315.65 190.4 315.4 190.9 315.4 191.75 315.4 191.9 313.55 192.2 312.6 192.35 312.25 192.3 311.8 192.25 311.55 192 311.4 191.9 311 191.35 310.5 190.7 310.45 190.65 310.2 190.4 309.6 190.35 308.5 190.25 307.9 191.15 307.9 191.2 307.75 191.7 307.65 192 307.25 192.15 306.4 192.5 306.5 193.1 306.55 193.35 306.75 193.75 306.85 194.15 306.7 194.4 306.5 194.75 306.05 195 305.6 195.3 305.25 195.3 304.8 195.3 303.35 194.45 302.85 194.15 302.35 194.15 301.8 194.15 301.6 194.45 301.55 194.55 301.7 195 301.8 195.25 301 195.25 300.15 195.25 299.35 194.85 298.6 194.35 298.3 194.2 297.65 193.75 297.4 193.65 296.9 193.4 297.05 193.95 297.6 195.85 297.6 196.05 297.65 196.6 297.65 196.65 297.6 196.8 297.15 197.05 296.9 197.2 296.1 197.25 295.4 197.3 295.2 197.6 294.9 198 294.8 199.05 294.8 199.25 294.65 199.75 294.55 200.15 294.55 200.55 294.55 200.7 294.65 201.6 294.7 202.15 294.55 202.2 294.45 202.25 294 202.15 293.55 202 293.15 202.05 292.6 202.15 292.45 202.25 292.3 202.4 292.25 203 292.2 203.65 292.1 203.9 292 204.2 291.65 204.5 291.35 204.75 290.45 204.85
L 289.65 204.85 289.8 205.3
Q 290 205.75 290.35 205.95 291.55 206.6 291.65 206.9 291.95 207.6 291.4 207.65 290.9 207.7 290.7 208.3 290.1 210.15 289.25 210.7 288.55 211.15 288.25 211.3 287.8 211.55 287.75 211.8 287.7 211.95 287.75 212.4 287.8 212.8 287.7 213.15 287.5 213.75 287.4 213.9 287.2 214.2 286.75 214.35 286.5 214.45 286 214.4 285.65 214.35 285.2 214.7 284.8 215.05 284.3 215.7 283.85 216.3 283.6 216.45
L 281.95 217.65
Q 280.75 218.5 281.05 219 281.1 219.1 282.2 219.5 283.15 219.8 283 220.3 282.5 221.95 281.85 222.2 279.85 223.4 279.2 223.7 278.8 223.9 278.1 223.95
L 277.45 224 277.3 224.15
Q 277.25 224.4 277.65 224.75 277.95 225 278.45 224.95 278.65 224.9 278.4 225.45 278.2 225.95 277.95 226.5 277.8 226.8 277.3 226.9 276.6 226.95 276.4 227 276.05 227.05 276.05 227.5 276.05 227.9 276.15 228.35 276.15 228.7 275.95 229.05 275.8 229.35 274.95 229.6 274.25 229.85 274.25 230.15 274.25 230.75 274.85 232 275.05 233.1 274.75 233.2 273.65 233.35 273.25 233.75 272.9 234.1 271.95 235.5 270.9 236.95 270.85 237.25 270.8 237.4 270.9 237.8 270.95 238.05 270.7 238.35
L 270.3 238.85
Q 270.1 238.95 269.45 238.95 268.25 238.95 267.65 239.45 267.3 239.55 267.2 239.6 266.95 239.7 267 240.3 267.05 241.3 266.95 242.15
L 265.45 242.25
Q 265.1 242.3 264.4 242.95
L 263.8 243.65
Q 262.35 243.4 261.5 243.45 260.9 243.5 260.6 243.8 260.35 244 260.05 244.6 259.75 245.15 259.6 245.25 259.35 245.45 259 245.25 258 244.75 257.15 244.75 256.55 244.75 255.6 245.2 254.75 245.65 254.5 246 254.05 246.85 253.75 247.4 253.15 248.4 252.85 248.45 252.65 248.5 252.45 248.25 252.2 248 251.85 247.85 251.25 247.55 251.05 247.55 250.8 247.55 250.85 248.4 250.9 249.7 250.7 250.35
L 249 249.2
Q 248.55 248.75 248.3 248.55 247.85 248.15 247.7 248.65 247.4 249.6 247.6 251 247.7 251.85 248.4 252.9 248.65 253.3 250.9 256 253.2 258.75 253.6 259.4 254.1 260.15 254.5 261.15 254.7 261.7 255.05 262.65 255.25 263.1 255.95 264.05 256.75 265.45 257.7 268.25 259.8 274.45 260.85 277.05 261.85 279.45 262.55 279.95 266.5 282.65 266.9 284.05 267.3 285.35 267.5 287.85 267.6 288.2 267.65 288.85 267.7 289.45 267.95 289.85 268.25 290.4 268.55 290.5 268.85 290.65 269.4 290.4 270.15 290.05 270.35 290 270.85 289.85 271.8 289.85 272.5 289.85 273.3 289.8 273.75 289.85 273.75 290.2 273.75 290.5 274 290.7 273.95 291 272.7 292.4 271.25 294 270.95 294.8 270.65 295.55 270.8 296.9 271 298.45 271.1 299 271.3 299.8 271.7 300.25 272.3 300.9 272.55 302.05 273 303 272 303.3 271.7 303.4 270.6 303.55 269.75 303.65 269.55 303.85 269 304.4 269.7 305.45 270.3 306.35 270.85 306.4 271.15 306.45 271.7 306.45 272.15 306.55 272.45 306.95 273.1 307.7 272.65 308.5 272.35 309.05 270.55 309.3 270.15 309.35 269.15 309.3 268.15 309.25 268.05 309.25 267.85 309.3 267.55 309.75 267.3 310.25 267.35 310.55 267.4 310.95 268.8 311.75 269.5 312.35 269.7 313.2 268.3 313.5 267.55 313.35 266.1 312.7 265.65 312.9 265.3 313.05 265.35 313.5 265.4 313.95 265.95 314.25 266.35 314.45 266.85 314.6 267.1 314.7 266.95 315.2 266.8 315.8 266.15 316.4 265.55 316.95 264.95 317.15 263 317.8 262.3 317.3 262.15 317.2 261.85 316.6 261.6 316.2 261.25 316.3 259.9 316.7 259.35 317.1 259.2 317.2 259.15 317.65 259.15 317.9 258.5 317.95 257.9 318 257.05 317.8 256.1 317.65 255.7 317.65 254.9 317.65 254.6 317.8 254.25 318 254.35 318.5 254.6 319.8 254.25 320.4 254.05 320.75 253.55 320.95 252.95 321.15 252.55 320.7 252.1 320.1 251.9 319.9 251.55 319.55 251.1 319.55 250.2 319.55 247.45 320.3 246.85 320.4 246.55 320.45 246 320.55 245.85 320.75 245.65 321 245.9 321.45 246.15 321.9 246.6 322.25 247.95 323.25 248.1 323.55 248.65 324.65 247.85 324.85 246.7 325.15 245.65 325.05 245 325 244.25 325.1 243.55 325.25 243.35 325.4 242.3 326.25 242 327.55 241.85 328.25 241.85 329 241.85 329.6 241.7 329.85 241.35 330.45 239.85 330.45 238.05 330.05 237.7 330.35 237.5 330.5 237.4 330.9 237.25 331.3 237.1 331.45 236.8 331.75 236 331.75 235.2 331.8 234.9 331.4 234.5 330.7 234.25 330.35 233.8 329.6 233.3 329.4 232.3 328.95 231 329.25 230.4 329.35 229.95 329.65 229.7 329.8 229.3 330.05
L 228.3 330.3
Q 227.5 330.5 227.1 330.9 226.8 331.25 226.5 331.65 226.3 331.9 225.75 331.9 225.1 331.9 224.5 331.7 223.9 331.5 223.8 331.3 223.65 331.1 223.35 331.05 222.95 331 222.75 331.3 222.6 331.5 222.4 331.85 222.2 332.05 221.8 332.1 220.85 332.15 220.65 331.2 220.6 330.85 219.85 330.55 219.2 330.3 218.7 330.3 216.15 330.3 215.75 330.2 215.35 330.1 214.35 329.45 213.3 328.75 212.9 328.65
L 210.5 328.05 210.4 326.4
Q 210.4 325.25 209.75 324.4 208.85 323.25 208.05 323.15 207.45 323.05 207.2 323.05 206.75 323 206 323.1 205.75 323.15 204.7 323.2 204.15 323.2 203.9 323.4 203.15 324 202.4 324.2 202 324.3 201 324.35 199.95 324.35 199.6 324.25 198.45 323.9 197.3 323.75 196.9 323.7 196.7 322.75 196.4 321.65 196.05 321.3 195.6 320.85 194.7 320.4
L 193.9 320.1
Q 193.4 320.1 192.6 319.5 191.75 318.85 191 317.75 190.35 316.75 189.5 316.75
L 188.3 316.75
Q 187.75 316.8 187.8 317.2 187.85 317.5 188.1 317.95 188.4 318.45 188.45 318.75 188.6 319.65 188.05 320.1 187.85 320.3 186.9 320 185.95 319.75 185.1 319.25 184.05 318.65 183.75 318.55 183.15 318.35 182.55 318.6
L 180.95 319.25
Q 179.2 319.95 178.75 319.95 178.15 319.95 177.9 320.05 177.55 320.15 177.3 320.65 176.95 321.35 176.25 322 176.05 322.35 175.6 322.6 175 322.95 174.65 322.75 174.1 322.5 173.8 322.35 173.3 322.1 173 321.8 172.7 321.35 172.55 321.2 172.3 320.95 171.6 321.05 170.65 321.1 170.35 321.15 169.9 321.25 169.9 321.75 169.9 322.75 170.05 323.85 170.1 324.25 170.3 324.9 170.4 325.45 170.05 325.85 170 325.9 169.25 327.1 168.75 327.95 168.1 328.2 165.5 329.5 165 329.6 164.5 329.65 164.2 329.7 163.7 329.85 163.3 330.35 162.85 330.95 162.1 331.35 161.35 331.7 160.7 331.7 158.95 331.7 157.55 331.35 157.2 331.25 156.7 330.75 156.3 330.3 155.8 330.25 155 330.25 154.7 330.25 154.15 330.2 153.85 329.85 153.45 329.4 153.35 329.15 153.25 328.8 153.25 327.85 153.3 326.8 153.3 326.45 153.25 326 152.85 325.65 151.75 324.65 150.35 325.15 148.8 325.7 147.45 325.85 143.3 326.7 142.9 326.5 141.55 325.5 140.75 325 140.4 324.8 139.85 324.25 139.3 323.7 138.7 323.35 138.65 323.35 137.45 322.3 136.75 321.75 135.75 321.65 132.35 321.35 132.05 321.35 131.35 321.35 130.8 320.75 130.55 320.45 129.8 319.3 129.35 318.6 127.85 317.3 126.65 316.3 126 315.9 124.6 315.35 123.65 314.55 122.4 313.5 121.9 312.5 122.15 312.15 121.2 310.95 120.2 309.7 118.4 309.05 117.85 308.85 117.1 307.45 116.2 305.8 115.95 305.55 114.55 304.2 114.35 303.65 114.1 301.9 113.75 301.5 113.45 301.05 113.2 300.8 112.8 300.4 112.1 300.2 110.8 299.85 110.7 299.8 110.1 299.55 109.65 299.05 109.3 298.6 109 297.9 108.6 296.8 108.35 296.25 107.3 294.1 105.4 292.85 104.15 292.15 103.7 291.9 102.95 291.45 102.75 290.8 102.45 289.75 102.3 289.2 102 288.25 101.6 287.35 100 284.4 99.25 282.95 98.65 281.85 98.5 281.55 98.3 281.1 98.25 280.45 98.2 278.95 97 278.25 96.15 277.75 95.95 277.65 95.3 277.4 94.3 277.25 91.95 276.95 91.6 276.85 90.75 276.6 90 276.05 89.2 275.4 89.15 274.75 89.2 272.9 88.95 272.2 88.6 271.2 88.55 271.1 88.15 270.55 87.1 270.55 85.2 270.55 84.35 270.1 83.9 269.85 82.6 268.55 81.2 267.2 81.1 266.85 81.05 266.65 80.9 266.3 80.3 264.7 79.55 264.7 77.65 264.7 77.4 264.55 77.2 264.45 76.9 263.8 76.55 263 76.45 262.9 75.9 262.05 75.45 262.3
L 74.65 263 Z"/>
</defs>

<defs><linearGradient id="solids17602" x1="0" y1="0" x2="0" y2="1"><stop offset="0%" style="stop-color:rgb(0, 64, 0);stop-opacity:1" />
          <stop offset="100%" style="stop-color:rgb(0, 64, 0);stop-opacity:1" /></linearGradient > </defs > 
<g id = '17602'  fill="url(#solids17602)" transform="matrix( 1, 0, 0, 1, 0,0) ">
<use xlink:href="#Layer0_0_1_STROKES"/>
</g>
</svg>
