

<svg xmlns="http://www.w3.org/2000/svg" version="1.1" xmlns:xlink="http://www.w3.org/1999/xlink" preserveAspectRatio="none" x="0px" y="0px" width="500px" height="356px" viewBox="-11306 -12074 20700 20556">
<defs>
<path id="Layer0_0_1_STROKES" stroke="#000000" stroke-width="1" stroke-linejoin="round" stroke-linecap="round"  d="
M 74.3 188
L 74.8 187.45
Q 75.25 186.95 75.15 186.55 74.65 184.85 74.6 184.8 74.25 184.2 74.2 184 74.05 183.7 74.25 183.5
L 75.4 182.75
Q 75.45 182.55 75.55 182.3 75.7 181.9 75.95 181.95 76.1 182 76.4 182.3 76.6 182.5 76.8 182.45 77 182.4 77.85 181.75 77.95 181.65 78.4 181.15 78.7 180.8 78.85 180.9 79 181 79.45 182.4 79.6 182.8 80.8 184 81 184.2 82.1 185.45 83.2 186.55 83.55 186.6 83.85 186.6 84.4 186.5 85 186.35 85.6 186.35 86.45 186.35 87.65 186 88.55 185.75 89.6 184.95 90.45 184.3 91.05 183.3 91.4 182.7 93.6 180 95.75 177.35 96 176.85 97.05 174.75 97.7 173.15 98.1 172.2 98.3 171.3 98.6 169.75 98.75 169.3 99.1 168.15 98.95 163.7 98.9 159.95 98.7 158.6 98.45 157.2 98.35 156.45 98.15 155.2 98.55 155.15 100.35 155 100.15 154.3 100 152.75 99.6 151.65
L 98.8 148.8
Q 97.55 143.45 97.5 141.7 97.45 140.6 97.85 139.45
L 98.2 138.5 96.4 132.55
Q 95.15 130.6 95.55 129.75 96.3 128.15 96.3 127.6 96.3 126.65 95.4 125.1 94.65 123.8 93.9 122.75 93.3 121.9 93.2 120.65 93.25 119.2 93.2 118.5 93.1 116.25 92.25 114.95 91.4 113.7 90.3 112.7 89.65 112.15 88.6 110.1 87.7 108.35 87.25 107.2 87 106.1 86.7 105.45 86.25 104.25 84.95 102.8 78.15 95.55 78.05 95.3 76.15 91.75 75.05 90.55 73.95 89.35 73.75 89.05 73.25 88.4 73.2 87.75 73.2 87.5 73.4 86.5 73.55 85.8 73.25 85.25 72.5 83.85 71.45 83.05 70.45 82.3 69.15 81.1 67.35 79.4 66.95 78.5 66.2 76.9 66.2 76.85 66 76.35 66.55 76.85 67.65 77.9 68.65 78.15 69.55 78.4 69.8 78.15 70.05 77.9 69.6 75.65 69.15 73.45 69.2 72.75 69.3 71.5 70.6 70.6 71.75 69.8 73.5 68.2 74.45 67.45 74.5 66.65 74.5 66.1 73.95 65.25 73.1 63.9 72.7 62.55 72.5 61.85 73 61.6 73.4 61.4 74.05 61.55 75.15 61.8 76.2 61.7 77.05 61.65 77.4 61.5 77.75 61.4 78.3 61 79.45 60.15 79.2 58.35 79 56.95 79 55.2 78.95 53.7 79 53.2 79.05 52.4 79.55 52.25 79.65 52.25 80.3 51.9 80.65 51.7 81.3 51.7 82.4 51.7 82.7 51.75 83.35 51.85 84.2 52.35 86.45 53.7 87.05 54.45 88.25 55.95 88.8 56.4 89.25 56.75 90 55.75 90.9 54.5 91 54.45 91.5 54.25 92.85 54.25 93.35 54.2 93.65 53.95 93.7 53.9 94.45 53.1 94.85 52.7 95.3 52.25 95.55 51.95 95.85 51.4 96 50.7 96.1 50.3 96.3 49.65 97.4 48.65 99.2 47.05 100.05 42.95 100.45 39.9 100.8 39.2 101.5 38 101.95 37 102.4 36.1 102.55 35.7 102.8 35 102.55 34.3 102.35 33.6 102.15 32.2
L 102 30.95 108.7 39.05
Q 107.7 35.15 107.65 33.85 107.55 30.75 107.65 30.5 107.9 29.95 109.35 29.55 109.8 29.45 110.45 29.2 110.9 29.05 111.15 29.15 112.2 29.55 113.2 31.25 116.1 36.2 117.3 36.65 117.6 36.75 120.15 37.35 121.25 37.6 121.5 37.7 121.9 37.85 122.4 38.3 122.8 38.65 123.6 39.3 124.25 39.85 124.5 40.3 125.2 41.55 124.7 42.55 124.05 43.9 124.4 44.3 125.05 45.05 126.6 46.25 127.3 46.8 127.95 47.4 128.45 47.8 129.1 48 130.2 48.35 132.65 48.25 133 48.35 133.45 48.95 133.9 49.65 133.95 50.4 134 51.5 134.85 57.35 132.65 57.55 131.6 57.9
L 129.95 58.5 130.2 59.1
Q 130.6 59.75 131.5 60.3 132.95 61.15 134.3 61.8 135.05 62.25 135.1 62.35 135.4 62.6 134.95 63 133.5 64.35 132.65 64.75 131.05 65.5 131.05 65.95 131.05 66.6 130.6 67.4 130.15 68.15 130.55 69.1 130.75 69.6 132.05 71.65 133.25 73.55 133.6 74 133.8 74.25 133.45 76 133.05 78.15 133.05 78.9 133.15 81.3 134 83.5 134.35 84.35 134.45 84.5 134.75 84.95 135.25 85 136.95 85.2 137.25 85.45 137.4 85.55 137.75 85.85 137.95 86.15 137.5 86.65 137.05 87.15 136.35 88.1 135.85 88.8 136.75 90 136.9 90.2 137.6 90.85 137.9 91.15 138 91.8 138.2 92.95 138.35 94.7 138.5 96.75 138.35 97.1 138.25 97.35 137.9 97.7 137.6 98 137.45 98.35 137.35 98.7 136.85 99.2 136.6 99.55 137.1 99.75 138.2 100.15 139.2 100.3
L 140.25 100.45
Q 140.6 100.55 140.55 100.9
L 139.9 103.1
Q 139.65 103.85 140.45 104.1 140.7 104.2 141.05 104.4 141.4 104.7 141.4 104.85 141.4 105.3 141.05 105.9 140.8 106.3 140.8 107.3
L 140.8 109.95
Q 140.75 110.25 140.05 110.45 139.95 110.5 139.85 110.6 139.7 110.9 139.8 111.35 139.9 111.75 140.9 113.5 141.95 115.45 142.1 115.75 142.15 115.85 142.55 116.25 142.6 116.35 142.2 117.1 141.6 118.25 141.55 118.3 141.45 118.55 141.6 118.95 141.7 119.25 141.9 119.7 141.95 120.05 141.55 120.25 141.35 120.4 141.15 120.75 140.95 121.15 140.2 121.6 139.25 122.2 138.75 123 138.25 123.8 138.35 124.35 138.5 125.05 138.5 126.3 138.5 126.55 138.85 126.55 139.05 126.55 139.85 126.5 140.3 126.55 141.1 126.5 141.8 126.5 142.15 126.7 142.45 126.85 143 127.1 143.4 127.3 143.65 127.65 144.4 128.65 144.85 128.7 145.1 128.75 145.4 128.45 145.75 128.15 145.85 128.15 147.25 128.15 147.4 128.5 147.5 128.75 148.05 128.75 148.55 128.7 148.85 128.5 149.75 127.9 150.35 127 151.75 125.05 152.1 124.85 152.35 124.7 152.4 126.1 152.4 127.5 152.15 128.3 152 128.8 151.5 129.85 151.05 130.7 151 131.1 150.95 131.55 151.5 131.6 151.85 131.65 152.6 131.65 152.95 131.75 153.45 131.8 153.85 131.9 154.25 132.5 154.35 132.7 154.95 133.3 155.25 133.6 155.35 134.35 155.45 135 155.55 135.8 155.65 136.35 155.9 136.45 156.1 136.5 156.55 136.25 157 135.95 157.2 136.1 157.25 136.15 157.85 136.65 158.25 137 158.45 137.05 158.8 137.15 159.9 136.45
L 160.3 136.3
Q 160.8 136.3 161 137 161.2 137.55 161.15 137.7 161.15 137.75 161.35 138.1 161.65 138.55 162.55 138.9 163.25 139.2 163.85 139.25 164.25 139.3 164.6 139.6 164.85 139.85 164.85 140.05 164.85 140.3 164.45 141
L 164.5 141.9
Q 164.6 142.1 164.7 142.35 164.8 142.55 164.7 142.85 164.5 143.45 164.5 144.1 164.5 144.8 164.85 145.75 165 146.15 165.2 148.05 165.4 149.95 165.35 150.2 165.35 150.35 164.25 150.9 163.05 151.55 162.75 151.8 160.3 153.5 160.25 153.85 160.25 153.95 160.5 155.1 160.8 156.35 160.8 157.2 160.8 158.2 161 158.85 161.15 159.3 161.6 160 161.9 160.45 163.2 162.15 164.4 163.9 164.6 164.75 164.8 165.6 164.7 167.25 164.5 169.65 164.5 169.95 164.5 171.65 164.45 173.25 164.5 174.15 165.5 176.3 166.35 178.15 166.7 178.5 166.9 178.7 167.45 178.4 168.5 177.8 168.75 177.7 170.65 176.95 171.2 176.3 171.7 175.75 171.2 174.75 170.85 174.2 170.65 173.85 170.3 173.2 170.25 172.7 170.25 172.55 169.95 171.95 169.8 171.6 170.1 170.75 171 168.45 171.2 168.05 171.35 167.8 171.45 166.15 171.55 164.75 171.55 163.95 171.55 163.5 172.1 162.9 172.4 162.6 172.65 162.4
L 173 162.85
Q 173.35 163.4 173.5 163.85 173.75 164.6 173.8 164.7 173.95 165 174.3 165.05 175.25 165.25 176.15 164.75 176.35 164.65 176.95 164.5 177.25 164.45 177.3 164.15 177.35 163.9 177.05 163.25 176.7 162.6 176.7 162.35 176.65 161.95 177 161.5 177.3 161.05 177.55 160.95 177.95 160.8 179.5 161.4 180.5 161.75 181 161.35
L 182.5 160.15
Q 182.35 159.8 182.3 159.35 182.15 158.55 182.45 158.4 182.9 158.2 183.6 158.1 184.35 157.95 184.45 158.2 184.85 159.15 185.05 159.25 185.65 159.55 186.9 159.3 188.35 159 189 158.75
L 189.8 158.55
Q 190.05 158.5 190.55 158.05 190.8 157.85 193.05 156.05 195 154.55 195.25 154.15 195.85 153.2 195.85 152.35 195.8 151.55 195.85 151.25 195.9 150.75 196.3 150.6 196.65 150.5 197.8 150.5 198.45 150.5 198.6 150.45 199.05 150.35 199.2 149.95 199.75 148.55 200.25 147.95 201.25 146.75 201.85 146.35 203.2 145.4 203.7 145.55 204.15 145.7 204.25 145.8 204.45 145.95 204.5 146.3 204.55 146.6 204.9 147.4 205.3 148.15 205.3 148.3 205.3 148.45 205.8 148.6 206.35 148.75 206.45 149.05 206.65 149.6 206.65 150.7 206.85 151.4 207.2 152.3 207.35 152.6 207.55 153.1 207.65 153.4 207.5 153.55 207.35 153.65 207 153.6 206.5 153.45 206.4 153.45 206.2 153.45 205.75 153.9 205.3 154.45 205.05 154.65 204.3 155.2 203.6 155.75 202.2 156.85 202.2 157.1 202.2 157.2 202.4 157.6 202.6 158 202.6 158.35 202.6 158.95 202.5 159.2 202.3 159.55 201.6 160 200.3 161.1 199.9 161.15 199.7 161.2 199.1 160.85 198.45 160.45 198.25 160.4 197.85 160.35 197.8 160.4 197.75 160.5 197.75 161.15 197.75 161.65 198.55 164.65 199.5 168.25 199.7 169.15 199.75 169.35 200.3 172.45 200.65 174.2 200.85 174.75 201.05 175.2 201.05 175.35 201.1 175.45 201.95 176.15 202.55 176.65 203.3 177.2 203.8 177.55 204.05 177.9 204.4 178.4 204.45 178.85 204.5 179.2 204.4 180.55 204.4 180.8 204.1 182.65 203.9 183.6 204.1 184.4 204.3 185.3 204.6 185.55 204.65 185.55 205.8 186.1 207.05 186.7 208.55 187 209.4 187.2 209.55 187.25 210.05 187.45 210.25 187.95 210.65 188.9 211.2 189.75 212.1 191.15 212.9 191.55 213.45 191.85 213.5 191.9 213.65 192.05 213.65 192.65 213.65 193.5 213.8 194.1 213.9 194.6 214.8 194.65 215.15 194.7 215.8 194.65 216.4 194.7 216.6 195.1 216.85 195.6 217.4 196.2 217.9 196.8 218.1 196.9 218.45 197.05 219.75 197.15 221.3 197.35 221.65 197.1
L 223.2 195.95
Q 223.4 195.8 224.5 194.85 225.2 194.25 225.6 194.05 226.7 193.55 227.05 194.8 227.65 196.9 228.05 197.05 228.4 197.2 230.2 196.3 231.1 196.05 232.2 196.2 233.5 196.4 233.75 196.4 234.1 196.4 234.65 196.5 235.1 196.55 235.2 196.25
L 235.45 195.5
Q 235.55 195.05 235.8 194.9 235.9 194.85 236.45 194.35 236.9 193.95 237.25 193.8 237.6 193.65 238.85 193.1 240 192.5 240.05 191.9 240.45 190.7 240.55 189.35 240.85 185.45 240.9 185.25 240.95 185.1 240.4 184.35 239.7 183.55 239.55 183.1 239.3 182.35 239.9 180.95 240.55 179.4 241.7 179.1 242.3 178.95 245.2 177.9 247.65 177 248.35 176.95 249.95 176.9 250.85 177.65 251.55 178.2 252.75 178 253.85 177.8 256.35 177.1 258.05 176.75 260.25 175.25 260.5 175.15 260 174.35 259.4 173.45 259.4 173.35 259.2 173 259.1 172.75 258.85 172.2 259.2 171.7 259.45 171.3 260.4 169.1
L 261.3 167.35
Q 261.35 167.25 261.55 166.1 261.7 165.2 262.15 164.95 262.95 164.5 264.55 164.1 264.9 163.95 265.35 163.45
L 266.3 162.4
Q 266.7 162.05 267.2 161.7 267.6 161.45 267.65 160.7 267.7 160.35 267.55 159.3 267.45 158.75 267.85 158.7 268.15 158.65 268.9 158.75 269.55 158.85 270 158.75 271.55 158.35 272.05 158 272.4 157.75 272.85 157.35 273.2 157.15 273.65 157.6 274.95 158.9 275.3 158.25 276 156.85 276.5 156.35 276.85 156.05 277.3 155.5 277.7 155.1 278.1 155.25 279 155.55 280.65 155.2 281.05 155.1 281.55 154.8 282.25 154.35 282.25 153.75
L 282.15 150.9
Q 282.15 150.85 281.65 149.8 281.4 149.2 282.1 148.85 283.35 148.25 285.1 147.85 285.45 147.8 285.95 147.5 286.35 147.35 286.7 147.75 288.1 149.55 288.6 149.85 289.3 150.3 290.75 148.8 291.2 148.35 291.8 147.65 292.25 147.15 292.5 147.1 292.9 147.05 293.5 147.25 294.2 147.5 294.25 147.8 294.3 148.05 294.1 148.45 294.05 148.85 294.65 149.25 295.15 149.6 295.75 150 296.25 150.3 296.95 150.5 297.5 150.65 299.2 151.2 300.65 151.6 301 151.55 301.3 151.5 302.25 151.4 303.15 151.25 303.2 151.1 303.45 150.55 303.55 149.5 303.5 148.8 303.5 148.6 303.55 148.25 304.25 147.95 304.7 147.8 305.8 147.45 306.6 147.25 307.15 146.95 307.65 146.7 308.1 146.5 308.35 146.3 308.4 145.75 308.35 141.05 308.4 140.65 308.45 140.4 309.4 139.95 310.55 139.4 310.65 139.35 310.85 139.2 311.4 138.5 311.8 138.05 311.75 138.8 311.6 140.75 311.9 141.7 312.05 142.15 312.45 142.35 312.85 142.55 313 141.9 313.3 140.6 313.75 139.6 314.65 138.3 314.75 137.7 314.8 137.25 314.35 136.6 313.95 136 313.35 135.55 312.2 134.7 312.2 134 312.2 133.75 312.45 133.15 312.75 132.5 312.75 132.3 312.9 131.9 312.95 131.65 313 131.2 312.6 130.65 311.6 129.25 312.1 128.4 313 127.35 313.1 126.9 313.25 126.25 312.85 124.5 312.55 123.65 312.4 123.3 312.2 122.65 312.55 122.9 312.65 122.95 313.5 123.75 314.15 124.3 314.7 124.6 315.8 125.2 316.65 125.55 316.85 125.65 317.15 125.05 317.45 124.5 317.45 124.1 317.45 121.2 317.7 120.1 317.9 119.35 321.35 112.1 322.3 110.15 322.6 108.9 322.6 108.4 322.65 108 322.65 107.3 322.95 106.8 323.05 106.6 323.25 105.7 323.35 105.25 323.95 105.2 325.25 105.15 327.45 106.35 327.75 106.5 330.65 108.45 333.7 110.35 334.75 110.7 336.45 111.25 338.4 111.5
L 338.95 113.15
Q 339.15 113.85 341.2 115.05 341.8 115.65 341.55 116.6 341.35 117.5 341 118.35 340.5 119.6 340.5 119.95 340.5 121.05 342.25 121.45 343.6 121.75 345 121.45 345.35 121.4 346.25 121.1 347.2 120.9 348.05 120.95 348.95 121 349.65 121.65 350.1 122.1 350.3 122.55 350.8 123.75 351.1 123.85 351.35 123.95 354.4 122.65 354.95 122.5 355.6 122.2 356 122.1 356 122.6 356 123.2 356.2 123.8 356.4 124.4 356.7 124.55 356.9 124.65 357.7 125.1 358.55 125.4 359.35 125.15 359.85 125 360.85 124.5 361.55 124.15 362 124.15 362.65 124.15 364.4 124.8 365 125 366.2 125.3 367.1 125.5 367.3 125.7 367.55 125.95 367.45 126.6
L 367.15 127.65
Q 367.05 128.1 367 128.85 366.95 129.6 367.1 129.85
L 368.45 131.85
Q 369 132.7 371.05 130.2 371.45 129.7 373.8 127.95 376.05 126.3 376.35 125.85 376.65 125.4 376.8 124.6 376.95 123.7 377.2 123.25 377.5 122.65 378.75 121.45 379.35 120.85 379.9 120.4 379.7 119.85 379.6 119.2 379.3 117.95 379.55 117.5 379.75 117.15 380.1 116.5 380.4 115.95 380.8 115.7 381.15 115.5 381.7 115.05 382.2 114.7 382.65 114.7
L 385.9 114.7
Q 386.45 114.75 387.05 114.4 387.7 114 387.7 113.55 387.7 112.45 388.55 112.6 389.3 112.75 390.45 113.15 390.55 113.2 391.6 113.55 392.25 113.75 393.05 113.8 393.75 113.85 394.45 113.55 395.2 113.2 395.75 113.2 397 113.2 397.3 112.45 397.7 111.4 398.25 110.9 398.65 110.55 399.4 110.4 400.15 110.25 400.85 110.45 401.6 110.7 403.5 110.8 404.35 110.85 405.75 110.75 406.75 110.8 406.8 111.4 406.9 112.9 407.7 113.5 408.05 113.75 410.15 114.6 410.4 114.7 411.2 114.95 411.95 115.2 412.05 115.4 412.3 115.75 412.3 115.85 412.3 116.2 411.8 116.75 411.5 117.05 410.85 117.55 410.45 117.8 410.5 118.1 410.55 118.4 411.25 118.6 412.2 118.85 412.3 118.9 413.05 119.35 413.2 120.65 413.25 121.05 413.25 121.55 413.3 121.95 413.85 122.05 414.45 122.2 414.9 122.05 415.3 121.9 415.45 121.65 415.5 121.15 415.8 120.4 416 119.75 416.1 119.55 416.25 119.3 416.75 119.15 418.15 118.8 418.3 118.45 418.35 118.3 418.55 117.1 418.75 115.8 419.05 115.1 419.35 114.35 421.45 114.15 422.15 114.05 423.7 114.05 424.85 114.05 423.95 114.95 423.3 115.55 423.2 115.7 423.05 115.85 423.35 116.3 423.4 116.35 424.25 117.4 424.8 118.15 425 118.6 425.3 119.3 425.55 119.6 426 120 426.85 119.95 428.1 119.9 429.65 119.75 430.5 119.8 430.7 119.85 431 119.95 431.4 120.4 431.9 120.95 431.95 121.05 432.05 121.25 431.65 121.4 431.15 121.5 431.05 121.5 430.85 121.55 430.85 121.9 430.85 122.95 430.8 123.1 430.75 123.3 430.55 123.35 430 123.5 429.95 123.55 429.45 123.8 428.75 124.95
L 427.85 126.6
Q 427.75 126.85 427.9 127.1 428 127.3 428.35 127.25 430.2 127.05 430.25 127.05 431.3 127.15 431.85 127.7 431.95 127.8 432.45 128.9 432.95 129.95 433.2 130.15 433.45 130.35 433.85 130.5 434.05 130.7 433.6 131.15 433.25 131.55 432.05 133.2 431.7 133.7 431.65 133.75 431.35 134.05 430.85 134.05 429.3 133.65 428.85 133.85 427.95 134.25 428.05 134.75 428.1 135 428.4 135.2 428.7 135.45 428.75 135.75 428.8 136.05 428.95 136.55 429 136.9 428.8 137.05 428.65 137.15 427.65 137.15 426.7 137.1 426.55 137.3 426.4 137.5 426.7 138.4 427 139.3 426.95 139.45 426.85 139.7 426.9 139.7 427 139.75 427.4 139.85 427.7 139.95 428.3 140.05 428.75 140.2 428.75 140.65 428.75 141.7 428.45 142.1 427.8 142.95 427 143.5 426.55 143.95 426.35 144.1 426.05 144.35 425.4 144.3 425 144.3 424.1 143.95 423.6 143.75 423.5 144.1 423.45 144.4 423.5 144.85 423.5 145.2 423.35 145.45 423.1 145.8 419.35 147.95 415.55 150.1 414.75 150.3 414.05 150.45 412.9 150.15
L 411.9 149.85
Q 412.25 148.4 411.45 147.7 409.9 146.35 408.85 146.15 407.65 145.95 407.1 146.6 406.85 147 406.75 147.1 406.55 147.25 405.8 147.5 403.95 148.05 402.6 150.2 402 151.1 401.9 151.3 401.8 151.45 401.65 152.05 401.4 153.15 401.75 153.75 401.85 153.9 402.15 154.15 402.45 154.45 402.35 154.9 402.2 155.6 402.1 155.8 401.9 156.15 401.45 156.3 401.05 156.4 399.55 156.4 397 156.3 396.7 156.3 391.1 155.95 390.05 156.15 389.4 156.25 389.05 156.9 388.65 157.7 388.3 158.2 387.7 159.55 387.4 159.6 387.25 159.65 386.6 159.2 385.7 158.55 385.2 158.25 383.25 157.15 383.05 158.2 383.05 158.3 383.55 158.95 383.75 159.3 382.35 159.55 380.6 159.9 378.75 160.9 376.95 161.9 377.05 162.45 377.15 162.85 377.5 163.5 377.9 164.05 377.9 164.2 377.95 164.4 378.05 164.85 378.15 165.35 378.05 165.8 377.85 166.8 377.85 167.35 377.85 168.05 377.9 168.25 378.05 168.65 378.6 168.9 379.05 169.1 379.55 169.25 379.95 169.4 380.15 169.8 380.35 170.15 380.8 172.85 381.3 175.7 381.45 176.05 381.65 176.6 381.35 176.85 381.2 176.95 380.45 177.35 379.75 177.55 379.55 177.6 379.2 177.7 379.55 178.15 379.85 178.55 380.1 178.95 380.35 179.2 381.25 179.6 381.95 179.9 382.85 180.15 383.4 180.4 383.4 180.85 383.4 181.25 383.3 182.15 383.3 182.95 383.5 183.25 383.7 183.5 383.9 184 384.1 184.4 384.5 184.6 384.55 184.6 385.3 184.75 385.65 184.85 385.85 185.35 386.15 186.05 385.9 188.25 385.8 189.15 385.6 189.7 380.8 187.55 379.7 187.55 379.35 187.55 377 187.2 375.1 186.85 374.95 187.1 374.7 187.5 373.65 189.1 373.25 189.95 372.35 190.6 371.9 190.05 371.1 188.8
L 369.35 186.3
Q 369.1 186 368.95 185.95 368.6 185.8 368.95 187.05 370.35 191.65 369.75 192.45 369.4 192.95 368.9 193.1 368.55 193.2 367.75 193.2 366.4 193 365.9 193.15 365.55 193.25 365.4 193.4 365.3 193.5 365.05 194 364.55 195.15 363 196.15 362.75 196.35 361.7 196.95 361.2 197.25 361.15 197.4 361.05 197.65 361.65 198.9 361.85 199.3 362.2 199.75 362.35 200.1 362 200.5
L 360.65 202.05 360.6 202.5
Q 360.65 203 361 203.35 361.45 203.8 361.7 204.95 361.9 206.1 361.75 206.75 361.65 207.2 361.15 207.6 360.35 208.15 359.95 208.65 358.15 210.85 357.95 211.7 357.8 212.4 356.1 215.4 356 215.7 355.6 216 355.2 216.3 355 216.7
L 353.85 219.15
Q 352.2 222.6 351.65 222.75 349.95 222.9 349.6 223.05 349.1 223.25 349.15 224.9 349.2 225.95 349.6 227.15 350 228.55 350.6 228.8 351.15 229.05 352.45 229.2 353.2 229.3 354.65 229.4 359.5 229.95 360.3 229.7 360.6 229.6 362.7 228.75 364.7 227.95 365.5 227.75 366.2 227.6 366.95 227.35 367.45 227.2 367.75 227.5 368.15 227.85 368.55 227.95 369 228.05 369.95 227.95 370.25 227.9 371.15 227.7 371.75 227.55 373.1 227.55 374.15 227.55 375.5 227.35 376.7 227.15 378.05 227.2 379.55 227.25 380.7 228.3 382.1 229.5 382.15 229.5 382.45 229.6 383.05 230.05 383.55 230.4 384.35 230.55 385 230.7 388.75 230.95 392.25 231.2 392.6 231.35 392.8 231.45 393.45 232.1 394.05 232.75 394.8 233 395.05 233.1 396 233.25 396.35 233.3 396.8 233.85 398 235.25 398.15 237 398.35 239.3 398.85 239.9 399.1 240.2 400 240.9 400.85 241.6 401.15 242.05 401.45 242.5 402.05 243.1 402.45 243.6 402.45 244.1 402.45 245.2 402.3 245.65 402.15 246.1 401.2 246.25
L 398.95 246.45
Q 398.5 246.6 398.25 246.65 397.75 246.75 397.25 246.45 396.4 245.9 396.1 245.7 395.55 245.4 395.45 245.7 395.4 245.95 395.25 246.65 395.05 247.3 394.45 247.55 393.75 247.85 391.8 248.4 389.2 249.15 388.7 250 388.5 250.4 388.45 251.05 388.4 251.65 388.15 252.1 387.85 252.6 387.35 253.15 386.8 253.7 386.6 253.9 386.45 254.05 385.75 254.3 385.35 254.4 386 254.65 386.55 254.9 387.15 255.2 387.65 255.45 388.55 255.55 390.55 255.75 391.1 255.65 391.35 255.6 392.05 255.15 392.45 254.95 393.05 254.65 393.5 254.4 393.95 254.4 394.3 254.4 394.8 254.35 395.2 254.3 395.35 254.55 395.55 254.85 396 256.25 396.7 258.4 397.7 258.65 397.8 258.65 398.9 259.05 399.8 259.35 400.8 259.55 401.4 259.7 402.95 259.9 403.9 260.05 404.05 260.2 404.25 260.4 404.05 260.95 403.85 261.5 403.35 262 402.35 263.1 401.75 264.35 401.45 264.95 401.45 265.2 401.35 265.6 401.6 266.35 401.9 267.25 401.65 267.9 401.4 268.65 400.65 268.7 400.05 268.75 399.2 268.65 398.4 268.55 398.35 268.55 398.25 268.55 397.95 268.3 397.7 268.05 397.4 268.15 395.8 268.8 395.15 269.2 394.8 269.4 393.65 269.55 392.2 269.75 391.45 269.85 389.75 270.15 387.95 271.75 387.25 272.25 387.05 272.4 386.8 272.6 386.65 273.15 386.4 274.1 386.2 276.5
L 382.15 276.85
Q 381.85 276.85 380.45 276.3 378.85 275.7 378.4 275.6 376.9 275.25 373.85 275.3
L 368.7 275.3 365.6 274.9
Q 364.9 274.65 364.65 274.55 364.15 274.4 364 274.9 364 274.95 363.8 275.75 363.75 275.95 363.55 276 363.35 276.05 362.65 275.6 361.75 275.05 361.4 274.95 361.15 274.85 360.6 274.5 360.05 274.15 359.15 273.9 358.85 273.8 356.05 272.8 353.85 272.05 352.9 271.95 352.35 271.9 351.45 271.95 350.95 272 350.25 271.7 349 271.2 345.9 270.4 343.35 269.75 342.55 269.65 341.55 269.45 341 269.4 340.1 269.25 339.85 269.7 339.6 270.35 339.45 270.65 339.2 271.15 338.4 271.55 336.45 272.3 335.35 272.95 334.65 273.35 334 273.45 333.25 273.55 332.65 273.65 331.85 273.8 330.4 273.75 329.1 273.7 328.4 273.55 327.75 273.4 327.45 273.35 326.95 273.2 326.2 273.25 324.95 273.15 324.1 273.15 322.6 273.15 321.1 273.85 319.1 274.7 318.5 274.95 317.5 275.35 316.8 275.95 314.8 277.7 314.55 278.2 314.15 278.65 314.05 278.85 313.8 279.15 314.15 279.65 314.45 280.1 314.7 280.6 315 280.95 315.7 281.1 316.7 281.35 316.95 281.45 317.35 281.6 317.3 281.95 317.15 282.8 316 283.35 315.55 283.6 313.75 283.9 311.65 284.25 310 284.25 308.25 284.25 306.45 285.1 304.75 285.9 304.05 286.85 303.2 288.05 303.05 288.7 303 289.05 303.3 289.35 303.6 289.65 304.1 289.7 304.45 289.75 305 289.55 305.35 289.5 305.15 290 304.95 290.5 304.45 290.8 303.9 291.15 303.6 291.3 302.8 291.8 302.9 292.5 303 293.2 302.25 293.5 301.95 293.6 300.4 294.55 298.9 295.45 298.3 295.6 293.55 296.9 292.4 296.9 289.45 296.9 288.9 296.8 288.5 296.75 286.05 295.75 283.55 294.8 283.05 294.7 281.6 294.4 280.75 294.5 279 294.5 278 294.75 277.75 294.8 276.75 294.9 276.2 294.95 276 295.25 275.7 295.95 275.15 296.7 274.85 297.15 273.95 297.75 272.9 298.55 272.8 298.6 272.2 299.15 270.7 299.45 268.85 299.85 267.95 299.75 267.35 299.7 267 299.55 266.1 299.2 265.05 298.85 264.2 298.6 262.45 297.35 260.95 296.3 258.9 296 253 294.8 250.3 294.8 247.7 294.8 247.1 294.85 245.85 294.95 245.4 295.3 245.05 295.6 244.1 296.15 243.25 296.7 243.15 297.1 242.9 297.95 243.15 298.85 243.2 298.95 243.55 299.5 243.85 299.95 243.75 300.4 243.6 301.2 243.45 301.5 243.15 302.05 242.6 302.2 241.65 302.5 237.95 301.55 236.4 301.15 233.8 300.95 230.5 300.65 228.75 301.1 226.45 301.65 223.6 302.8 220.35 304.1 219.65 304.95 218.55 306.25 218.1 307.45 217.95 307.9 217.75 308.55 217.6 309 217.2 309.2 216.9 309.35 216.2 309.55 215.45 309.75 215 310 214.8 310.1 213.45 311.3 212.2 312.4 210.95 312.85 209.25 313.4 208.8 313.55 208.25 313.75 208.1 314 207.95 314.25 207.85 314.8 207.7 315.8 207.7 315.85 207.65 316.2 207.65 316.7 207.6 317 207 317.1 206.2 317.2 204.9 317.5
L 201.45 318.3 199.45 319.75
Q 197.4 321.3 197.3 322 197.3 322.1 197.1 323.1 197.05 323.45 197.1 323.8 197.2 324.35 197.8 325.1 197.95 325.4 197.55 325.8 197.2 326.15 196.85 326.2 196.6 326.15 196.5 326.15 196.4 326.15 196 326.55 195.85 326.7 195.25 327.5 194.85 327.95 194.6 327.95 194.2 327.95 192.15 326.8 191.75 326.6 190.85 325.8 189.95 325.05 189.5 324.8 189.15 324.6 188.7 323.95 188.35 323.35 187.6 323.2 185.45 322.7 184.55 322.7 184.1 322.7 183.3 322.65 182.45 322.55 181.15 322.55 179.95 322.55 178.65 322.3 177.7 322.1 177.35 322.25 176.5 322.6 175.9 323.65
L 175.65 324.1
Q 175.45 324.25 174.9 324.3 174.2 324.35 174 324.25 173.7 324.15 173.7 323.65 173.7 323.55 174.05 322.7 174.2 322.2 173.6 322.15 173.4 322.15 172.5 322.1 172.1 322.05 171.85 321.95 171.15 321.65 171.15 320.95 171.2 320.55 171.15 320.4 171.1 320.15 170.7 320 169.8 319.65 169.2 319.25 167.95 318.4 167.65 317.9 167.45 317.15 167.3 316.65 167 315.75 166.5 315.65 164.2 315.5 163.9 315.4 163.05 315.1 162.6 314.25
L 161.75 312.5
Q 161.6 311.75 161.5 311.5 161.4 311.1 160.65 311.35 160.15 311.5 159.25 311.65 158.65 311.75 158.15 312.05 156.75 312.85 155.6 313.1
L 153.65 313.5
Q 153.4 313.55 153.7 312.8 153.95 312 154.4 311.75 154.6 311.65 155.45 311.55 156.05 311.5 156.3 311.05 156.5 310.65 156.65 310.1 156.8 309.55 157.05 309.15 157.95 308.05 158.15 307.4 158.55 306.1 158.3 304.7 158.2 304.15 157 302.15 155.9 300.35 155.5 299.85 155.2 299.35 155.05 299.15 154.8 298.75 154.35 298.55
L 153.45 298.15
Q 152.95 298 152.5 298.1 151.35 298.35 151 298.8
L 149.9 300.05
Q 149.4 300 148.95 299.6 148.05 298.8 147.25 298.9 146.1 299.1 145.4 299 144.25 298.85 143.95 298.15 143.85 297.85 143.95 297.15
L 144.05 296.5
Q 143.15 296 143.3 295.4 143.4 295.05 143.75 294.55 144.25 293.85 144.3 293.8 144.8 293 145 292.25 145.15 291.65 144.9 291.5 144.55 291.3 144.15 291.95 143.55 292.9 142.6 294 142.45 294.3 142.05 294.45 141.6 294.55 141.3 294.3 141 293.95 140.85 293.8 140.6 293.5 140.05 293.4 139.55 293.3 139.1 293.45 138.4 293.65 137.85 293.7 137.15 293.8 136.35 294.25 135.6 294.65 135.25 294.65 133.6 294.35 132.95 294.35 131.75 294.35 131.7 294.75 131.7 294.9 131.65 295.35 131.5 295.7 131 295.55 130.8 295.5 130.05 295.25 129.7 295.1 129.55 295.2 129.45 295.3 129.4 295.75 129.4 296.2 129.2 296.3 128.35 296.65 127.9 296.45 126.7 295.9 126.45 294.95 126.2 293.95 126.65 293.65 126.8 293.6 127.15 293.55 127.45 293.45 127.35 293 126.85 291.6 126.7 290.85 126.5 289.85 127.25 289.2 128.15 288.45 128.75 287.55 128.9 287.35 128.55 286.4 128.2 285.6 127.85 284.95
L 126.8 282.95
Q 126.85 282.7 127 282.4 127.3 281.85 127.8 281.65 128.6 281.35 130.1 280.55 128.15 279.4 127.4 278.35 126.7 277.15 126.3 276.5 125.55 275.45 124.5 275.25 122.05 274.8 120.7 274.8 119.1 274.75 118.2 274.75 116.55 274.75 114.55 275.15 110.95 275.85 110.75 275.85 109.25 276.2 108.5 276.7 108.1 276.95 107.1 277.45 106.4 277.8 106.05 278.2 105.35 278.95 105 280 104.5 281.45 104.5 281.6 104.45 281.85 104.15 282.3 104 282.45 104.55 282.65 104.8 282.75 105.55 282.85 105.9 282.9 106.15 283.3 106.35 283.65 107 284.4 107.6 285.1 107.65 285.65 107.8 286.95 107.4 287.6 107.05 288.2 107.05 289.05 106.85 289.8 106.45 291 106.45 291.4 107.85 293 108.25 293.65 108.55 294.5 107.4 294.4 107.15 294.2 105.95 293.25 105.5 293.1 104.2 292.7 103.75 292.05 102.75 290.55 102.55 289.6 101.85 287.7 101.85 286.85 101.95 286.1 102 285.7 102.05 285 101.8 284.35 101.5 283.3 101.4 282.9 101.2 282.2 100.85 282.1 99 281.5 98.85 281.25 98.3 280.45 98.25 280.45 98 279.8 98.55 279.35 99.65 278.5 100 278.1 100.35 277.7 100.35 276.4 100.35 276.1 100.85 275.35 101.35 274.55 101.35 274.3 101.4 273.95 100.9 273.25
L 100.45 272.65 99.5 273.85
Q 98.65 273.95 98.2 273.35 97.85 272.9 97.75 272.35 97.65 271.8 97.9 271.55 98.05 271.4 98.6 271.2 99.05 271 99.15 270.8 99.5 269.7 99.85 269.2 100 269 100.75 268.35 101.4 267.75 101.4 267.6
L 101.4 265.35
Q 101.45 264.95 101.9 264 102.3 263.1 102.55 262.9 102.8 262.5 102.95 262.35 103.3 262.1 103.95 262.7 104.8 263.5 105.75 263.7 106.8 263.85 107.15 263.05 107.75 261.65 107.9 259.85 108 258.8 107.95 258.5 107.95 258.05 107.65 257.15 107.45 256.45 106.7 255.45 105.8 254.3 105.6 253.9 105.05 252.8 105.05 251.2 105.15 250.4 105.2 249.9 105.25 249.05 104.9 248.2 103.15 244.1 102.3 243.65 101.6 243.25 101.25 242.45 101.05 241.8 100.9 241.5 100.7 241 100.3 240.9 99.3 240.8 98.65 240.65 98.15 240.55 98 240.3 97.8 240.05 97.8 239.45
L 97.85 237.45
Q 98 234.95 97.2 233.5 96.7 232.55 94.7 230.45 92.6 228.15 91.6 227.65 89.6 226.65 89.15 226.3 88.05 225.55 88.8 224.8 89.2 224.4 89.3 223.7 89.4 223 89.05 222.3 87.9 220.05 86.8 218.55 86.1 217.6 84.45 215.6 82.7 213.55 82.2 213.15
L 81.4 212.25
Q 80.95 211.75 80.35 211.75 79.2 211.75 79.15 211.75 78.65 211.7 78.55 211.25 78.45 210.85 78.55 210.4
L 78.65 209.85
Q 78.65 209.7 78.15 209.3 77.65 208.85 77.55 208.6 77.35 208.15 77.35 208 77.3 207.75 77.65 207.75 78.25 207.75 78.3 207.75 78.55 207.7 78.55 207.35 78.55 207.2 78.2 206.6 77.9 206.1 78.25 205.95 78.55 205.8 79.05 205.55 79.4 205.4 79.6 205.7 79.65 205.8 80.15 206.45 80.5 206.85 80.55 207.15 80.6 207.65 80.9 208.65 81.2 209.8 81.35 209.85 81.7 209.9 82 210.7 82.25 211.3 82.9 211.8
L 84 213.05
Q 84.35 213.45 85.25 214.35 85.4 214.6 85.65 215.05 85.85 215.4 86.15 215.35 86.9 215.25 87.25 214.75 87.45 214.5 87.35 214.2 87.3 213.8 86.9 213.75 86 213.6 85.8 213.2 85.6 212.9 85.55 212.8 85.45 212.6 85.55 212.25 85.95 211.15 85 210.65 84.55 210.4 84.1 210.05 83.55 209.55 83.35 209.45 82.4 208.8 82.2 208.1 82 207.4 82.2 206.4
L 82.4 204.65
Q 82.55 203.75 81.7 202.7 80.55 201.3 79.9 201.25 79.4 201.15 79.15 201.1 78.75 201 78.45 201.25 78.4 201.3 77.7 201.7 77.3 201.95 77.2 202.25 77 202.75 76.75 203.5 76.65 203.65 76.45 204.45 76.3 204.9 76 205 75.4 205.2 75.3 205.15 74.95 205.1 74.6 204.5 74.4 204.1 74.75 202.75 75.05 201.7 74.4 201.55 74.1 201.5 73.2 201.45 72.85 201.45 72.9 201.1 72.95 200.75 73.25 200 73.55 199.15 73.6 198.95
L 73.65 197.35
Q 73.25 196 72.7 195.4 71.8 194.4 72.6 194 73.2 193.7 73.35 193.5 73.6 193.15 73.5 192.65 73.3 191.65 73.3 191.6 73.1 191.05 72.7 190.75 72.05 190.3 71.8 190.1 71.4 189.75 71.4 189.5 71.4 188.7 72.25 188.7 72.8 188.7 74.3 188 Z"/>
</defs>
<defs>
          <linearGradient id="solids17610" x1="0" y1="0" x2="0" y2="1"><stop offset="0%" style="stop-color:rgb(27, 104, 7);stop-opacity:1" />
        <stop offset="49.0%" style="stop-color:rgb(27, 104, 7);stop-opacity:1" />
        <stop offset="49.0%" style="stop-color:rgb(243, 12, 12);stop-opacity:1" />
        <stop offset="100%" style="stop-color:rgb(243, 12, 12);stop-opacity:1" /></linearGradient > </defs > 
<g id = '17610'  fill="url(#solids17610)" transform="matrix( 1, 0, 0, 1, 0,0) ">
<use xlink:href="#Layer0_0_1_STROKES"/>
</g>
</svg>
