<svg xmlns="http://www.w3.org/2000/svg" version="1.1" xmlns:xlink="http://www.w3.org/1999/xlink" preserveAspectRatio="none" x="0px" y="0px" width="500px" height="356px" id = "fotos" viewBox="-4130 -4230 7700 7556">
<!-- <defs> -->
<g id="176"  name = "South Africa" transform="matrix( 1, 0, 0, 1, 0,0) ">
<path id="176"  name = "South Africa" fill="white" stroke="#000000" stroke-width="1" stroke-linejoin="round" stroke-linecap="round" fill="none" d="
M 408.5 63.1
Q 408.25 63.1 408 63.15 408.25 63.6 408.4 64 408.6 64.6 408.85 65.65 409.1 66.65 409.45 67.55 410.55 70.3 410.75 71.35 411.1 73.05 411.1 74.3 410.9 91 410.95 91 410.65 108.9 410.6 110.1 410.55 111.45 409.45 111.95 408.55 112.35 407.1 111.7 406.65 111.5 405.75 110.75 404.7 109.95 404.15 109.6 403.15 109.05 402.75 108.75 402.1 108.35 401.4 107.55 400 106 399.4 105.9 398.55 105.7 397.95 105.6 396.8 105.4 396.45 105.75 394.7 107.3 394.4 107.75 393.8 108.65 392.6 110.1 392.05 110.75 389.7 115.55 387.1 120.75 386.9 121.1 385.9 122.65 385.35 123.65 384.4 125.45 384.35 126.55 384.25 129.35 384.3 130.05 384.35 130.8 384.5 131.6 384.65 132.25 384.7 132.25 384.75 132.25 386.15 131.75 387.15 131.65 387.45 132.85 387.55 133.25 387.55 133.7 387.5 134.25 387.65 135 387.85 136.05 388.9 137.3 389.9 138.45 391.1 139.2 393.2 140.5 393.85 141.05 395.75 142.7 396.8 142.95 397.45 143.1 401.6 143.75 406.1 144.4 407.05 144.4 408.5 144.4 410 144.25 410.7 144.25 410.75 141.1 411 135.95 410.95 134.35 410.9 133.3 411.6 132.65 412.15 132.1 412.75 132.15 413.05 132.2 413.4 132 414.05 131.95 415.85 132.3 418.6 132.85 428.35 132.85 428.95 132.85 429.95 132.65 430.45 132.5 430.4 132.85
L 430.15 135.4
Q 430 136.8 426 149.9
L 422.15 164.8
Q 420.4 173.2 419.8 174.35 419 175.85 418.95 175.95 418.4 176.8 417.55 177.1 416.35 177.55 414.6 178.9 412.5 180.5 412.05 181.7 411.45 183.25 411.25 183.6 411 184.15 410.6 184.2 409.3 184.75 408.2 185.15 407.25 185.5 405.5 186.75 403.5 188.15 402.15 189.65 400.7 191.25 397.8 195.05 395 198.75 394.45 199.75
L 388.9 209.7
Q 379.95 224.45 378.45 227.3 377.2 229.65 375.05 233.45 372.75 237.55 372.2 238.3 372 238.6 371.8 238.9 371.7578125 238.95625 371.725 239 369.378125 242.1236328125 368.15 243.45 364.7 247.4 362.65 249.4 361.5 250.5 360 251.45 358.1 252.55 357.3 253.2 355.6 254.55 352.85 257.5 349.85 260.65 349.45 261.65 348.85 263.15 339.75 272.9 338.7 274 337.85 275.6 337.15 276.8 334.9 278.75 332.6 280.75 329.5 282.1 326.35 283.4 325.75 283.9 324.55 284.9 323.95 285.75 323.65 286.2 323.05 287.35 322.65 288.45 322.4 288.95 322 289.85 320.9 290.7 318.15 292.85 316.55 293.8 313.25 296.35 310.1 298.75 303.85 303.5 301.85 304.4 292.45 309.05 290.45 309.5 289.25 309.75 287.8 309.7 285.95 309.6 284.5 309.6 278.1 309.6 276.35 309.35 274.55 309.1 273.25 310.05 272.25 310.8 272 311.05 271.5 311.5 271.45 312.05 271.35 313 271.9 314.3 272.6 315.9 272.7 316.45 272.75 316.7 272.05 316.7 271.35 316.7 268.7 316.45 265.15 316.15 263.55 316.15 263 316.15 260.45 315.65 258.15 315.15 257.65 315.25 257.2 315.35 256.9 315.85 256.5 316.65 255.95 317.2 255.2 317.9 254.6 318.9 254.3 319.4 253.85 320.2 253.15 321.35 252.9 321.5 252.15 321.9 248.35 320.85 247.55 320.6 246.1 320.05 245.35 319.8 243.15 319.4 240.9 319 237.75 318.1 234 316.95 233.8 316.9 233.45 316.8 231.5 316.15 230.25 315.7 228.85 315.65 225.6 315.25 224.45 315.35 223.35 315.4 223 315.45 222.35 315.5 222.25 315.8 221.95 316.75 221.9 317.55 221.9 317.85 222.2 318.6 222.25 319.15 220.55 318.85 217.8 318.35 216.15 318.15 207.95 316.55 205.5 316.1 203.05 315.6 202.05 315.4 200.4 315.1 200.2 315.2 199.9 315.4 197.3 316.85 196.95 317.15 195.95 317.5 195.15 317.8 195.05 317.95 194.85 318.3 194.85 319.45 194.75 320.2 194.15 320.7 193.6 321.25 192.85 321.25 191.95 321.2 191.6 321.2 191 321.2 190.7 321.6 190.2 322.25 189.55 323.5 188.2 325.5 187.75 325.7 187.5 325.8 183.3 325.65 182.1 325.6 180.8 325.3 179.9 325.1 179.1 325.25 177.85 325.45 176.55 326.75 176.1 327.2 175.8 327.35 175.15 327.55 173.95 327.3 173.05 327.1 172.25 326.8 171.6 326.5 171 326.4 168.5 326 168.3 326 167.1 326 166.85 326.65 166.75 326.9 166.55 327.5 166.2 327.95 165.3 328 163.9 328.1 162.25 328.1 159.55 328.1 157.85 329.05 156.6 329.75 153.95 331.8 151.2 333.95 150.15 335.1 149.3 336 148.2 336.95 147.1 337.8 146.95 338 146.65 338.35 146.25 337.75 145.75 337 145.5 336.75 145 336.2 143 336.75 142.3 336.95 139.85 336.95 138.75 337.15 138.05 336.15 137.7 335.65 137.05 335 136.45 334.4 136.15 333.95 134.85 331.95 134.55 332 132.55 332.5 132.1 332.55 131.7 332.6 131.75 332.15 131.8 331.75 132.45 331.45 134.05 330.75 133.4 330.35 132.15 329.55 132 328.85 131.95 328.5 132.2 327.55 132.45 326.75 132.5 326.65 132.25 326.65 131.9 326.6 131.2 326.55 130.85 326.65 130.25 326.85 127.75 326.5 127.8 326.55 127.75 325.5 127.65 324.45 127.55 324.5 126.45 324.65 125.35 325
L 123.15 325.75
Q 122.45 325.95 122 325.85 121.4 325.7 121.7 324.85 122.2 323.5 122.25 321.7 122.3 319.85 121.7 318.8 121.55 318.2 121.5 318 121.35 317.65 120.65 317.7 119.5 317.7 118.95 317.7 118.05 317.75 117.65 317.85 115.8 318 115.3 318.2 114.05 318.7 113.65 319.15 113.45 319.4 113.05 319.7 112.75 320 112.9 320.6 113.05 321.15 113.55 322.05 114 322.85 114 323 114 323.1 113.95 323.9 113.9 324.55 114 324.8 114.1 325.15 113.9 325.15 113.6 325.2 113.05 324.8 112.1 324.15 111.4 322.6 111.35 322.5 111.2 321.4 111.05 320.35 110.5 319.3 109.6 317.8 109.35 317.35 108.95 316.65 109.4 316.4 109.65 316.25 111.45 314.95 112.75 314 113.1 313.25 113.65 312.05 113.65 310.9 113.65 310 113.65 309.9 113.6 309.45 113.25 308.7 112.9 307.95 111.95 306.3 111.7 305.9 109.3 302.95 107.05 300.2 106.8 299.6 106.55 298.95 105.9 298.1 105.2 297.3 105 297 104.9 296.85 104.6 295.8 104.35 294.85 103.85 294.35 103.3 293.8 102.75 293
L 102.25 292.25
Q 102.35 292.1 102.5 291.95 102.8 291.65 103 291.85 103.35 292.2 104.6 293.9 105.6 295.3 105.85 294.65 105.95 294.3 105.75 293.75 105.45 293.05 105.35 292.65
L 105.35 291.9
Q 105.35 291.55 104.75 290.95 104.05 290.25 103.6 290.05 103.3 289.9 102.8 289.9
L 101.5 289.9
Q 100.75 289.95 100.55 289.9 100.3 289.75 100.2 288.95 100.15 288.35 99.9 287.5 99.7 286.75 99.7 286.35 99.7 284.15 99.85 284.15 100.3 283.6 100.8 283 101.75 281.85 102.05 281.7 102.35 281.55 103 281.85 103.35 282.05 103.85 282.35
L 104.4 282.9
Q 104.8 283.3 105.2 283.25 105.8 283.15 107.55 281.85 108.45 281.15 109.2 279.95 109.7 279.1 110.15 277.05 110.4 273.65 110.45 273.25 109.8 262.7 109.15 261.15 108.8 260.35 107.55 258.15 106.2 255.8 105.75 254.85 105.35 254 101.95 248.4 98.5 242.7 97.65 240.9 93.5 232.05 91.25 228.45 88.7 224.35 86.85 220.05 86.3 218.8 85.75 216.4 85.15 213.75 84.8 212.5 83.75 208.15 82.9 204.95 81.3 198.75 80.25 196.65 79.45 195 78.6 192.15 77.85 189.8 77.25 188.95 76.65 188.15 75.3 186.85 74 185.55 73.45 184.8 72.65 183.75 70.85 180.2 70.1 178.8 69.9 178.35 69.6 177.7 69.6 177.1 69.6 175.95 69.65 175.8 69.75 175.1 70.25 175.05 70.85 175 72.9 174.5 73.8 174.3 74.35 173.95 74.65 173.8 75.45 173.1 76.6 172.15 76.55 170.85 76.55 170.45 76.1 170.15 75.7 169.85 75.8 169.2 75.9 168.45 76.35 168.1 76.9 167.85 77.05 167.75 77.25 167.65 77.35 167.1 77.5 166.25 77.65 165.9 77.85 165.05 77.95 164.7 78.15 164.15 78.7 163.9 79 163.75 80.1 163.15 81 162.7 81.35 162.6 83.7 162.05 84.25 162.4 85.4 163.15 85.55 164.4 85.6 164.85 85.15 165.85 84.8 166.6 85.2 167 85.9 167.7 87.35 168.1 88.95 168.95 89.4 169.4 89.7 169.7 90.3 169.9 90.65 170.15 90.1 171.05 89.65 171.8 89.05 172.15 88.65 172.4 88.65 172.7 88.7 173.1 89.05 173.5 89.6 174.15 89.7 174.35 90.05 174.95 90.1 175.1 90.2 175.35 90.15 176 90.05 177.85 90.1 178.35 90.15 178.85 91.25 179.3 92.65 179.95 95.1 180 98.3 180.1 99.35 180.2 100.9 180.4 101.65 180.95 101.95 181.15 103.3 182.1 104.2 182.7 104.45 182.95 105.2 183.8 105.35 183.9 106.1 184.55 107 184.65 107.8 184.75 112.65 183.8 117.7 182.8 118.35 182.8 120 182.8 120.05 182.8 120.8 182.85 122.05 183.3 123 183.65 125.3 184.7 127.4 185.6 128.85 185.5 130.05 185.4 131.2 185.3 131.8 185.15 131.6 184.2 131.45 183.5 131.05 182.5 130.7 181.7 130.7 181.25 130.7 180.65 131.3 180.3 131.85 180 132.55 180 133.45 180 133.55 180 134 179.9 134.9 179.45 135.7 179.05 135.85 178.4 136.15 177.3 136.4 176.9
L 137.25 175.45
Q 137.65 174.95 138.4 174.65 139.05 174.4 140.4 174.35 142 174.25 142.45 174.15 143.1 174 144.15 173.55 145.05 173.1 145.4 173.05 145.95 173 146.45 172.2 147 171.4 147.05 170.6 147.1 169.5 147.15 139.45
L 146.8 109.55 147 81.6 150.15 84.6
Q 151.85 86.05 152.7 86.6 153.45 87.1 154.5 87.55 155.35 88 155.8 88.8 156.6 90.2 157.5 92.3 157.55 92.45 157.95 94.45 158.2 95.6 159.35 96.7 160.3 97.6 161.05 97.8 161.35 97.9 161.55 98.65 162.05 100.55 162.05 101.65 162.05 102.25 161.95 103.1 161.9 103.8 162.25 104.4 162.55 104.9 163.35 105.7 164.05 106.45 164.1 106.6 164.55 107.8 165.1 109.45 166 112.15 166.1 112.95 166.2 113.6 166.45 114.8 166.6 115.85 166.25 116.65 165.95 117.3 163.95 119.5 161.9 121.7 161.65 122.3 160.5 124.85 160.8 125.65 161.75 128.05 161.85 129.35 161.9 130.05 162.2 133.4 162.2 133.9 162.05 134.7 162 135.15 162.6 134.7 163.05 134.35 163.6 134 164.1 133.75 164.6 133.3 166.4 131.7 167.4 131.7 168.85 131.7 169.6 132.45 170.35 133.2 173.05 133.7 174.05 133.9 178.55 133.9 183.05 133.9 183.65 133.75 185.1 133.4 185.2 132.4 185.45 130.25 186.1 129.65 187.1 128.75 188.45 128.75 189.2 128.75 189.75 128.45 190.1 128.25 191.25 127.55 194.2 126.1 194.7 124.35 195.1 122.9 196 121.7 197.1 120.1 198.6 119.45 200 118.85 201.05 118.2 201.65 117.8 202.45 117.25 202.85 117 203.85 116.55 204.75 116.05 205.2 115.35 205.5 114.9 205.45 114.4 205.4 114.05 206.1 113.4 207.45 112.15 207.55 110.45 207.55 110.2 207.8 109.5 208.1 108.7 208.3 107.35 208.4 106.55 208.55 103.85 208.65 101.85 209 100.9 209.75 98.9 210.7 97.6 212.5 95.2 212.85 95.1 215.55 94.2 216.7 94.35 217.2 94.4 218.5 94.45 219.8 94.45 220.6 94.55 222.15 94.75 222.85 94.95 224.15 95.35 225.75 96.35 227.2 97.25 228.9 99.15 229.8 100.15 230.9 101.45 231.65 102.15 232.05 102.4 232.7 102.7 233.65 102.75 234.05 102.75 236.1 102.7 237.7 102.6 238.25 102.75 238.75 102.9 239.75 103.15 240.6 103.45 241 104.05 241.4 104.7 242.2 105.5 242.85 106.25 243.2 106.45 243.4 106.55 245.35 106.65 247.5 106.8 248.35 107 249.15 107.2 250.8 107.7 252.2 108.05 252.9 107.75
L 255.85 106.4
Q 256.6 106.1 257.55 105.6 258.3 105.3 259 105.35 259.6 105.4 260.35 105.75 261.25 106.15 261.75 106.25 263.3 106.6 263.85 106.6 265.2 106.6 266.3 105.7 266.55 105.5 267.85 104.35 268.4 103.9 269.25 103.45 270.2 102.95 270.7 101.95 270.95 101.5 271.25 100.35 271.75 98.65 272.6 96.65 274.6 91.05 275.25 89.55 275.85 88.35 276.05 87.9 276.35 87.2 276.4 86.4 276.15 84.35 276.4 83.3 276.6 82.4 276.85 82.05 277.2 81.6 278 81.45 278.6 81.35 279.9 80.9 281.2 80.45 281.7 80.35 283.6 80.05 284.3 79.8 287 78.75 287.95 78.35 288.8 77.95 289.45 77.35 289.85 76.95 290.85 75.8 291.4 75.25 291.85 74.35 292.15 73.75 292.75 73.4 293.8 72.85 295.5 72.1 297.55 71.2 298.2 68.95 298.5 67.8 298.7 66.65 298.85 65.7 299.15 64.9 299.5 63.9 299.7 62.6 299.85 61.2 299.9 60.7 299.95 59.6 300 58.9 300.1 57.6 300.8 56.5 301.35 55.6 302.55 53.6 303.6 52.05 304.1 51.9
L 305.5 51.7
Q 306.5 51.55 307.2 51.2 307.5 51.05 310 50.3 312.1 49.65 312.55 49.15 313.05 48.65 313.2 47.95 313.35 47.15 313.5 46.6 313.7 45.65 313.8 45.45 313.9 45.1 314.4 45.15 315.2 45.25 316.95 45.25
L 318.2 43.95
Q 319.7 42.35 320.8 41.05 321.25 40.5 325.45 36.15 328.85 32.6 329.25 31.7 329.4 31.35 329.4 30 329.45 29.35 330.6 29.15 331.6 29 332.9 28.75 333.85 28.55 334.95 28.6 336.85 28.65 341.4 27.1 343.15 26.5 343.45 26.3 344 25.95 344.15 25.15 344.25 23.65 344.35 22.8 344.65 21.3 345.6 21.2
L 349.1 20.85
Q 349.65 20.8 351.75 20.3 354.05 19.8 356 19.55 356.75 19.45 359 18.9 359.75 18.7 360.95 19.3 364.9 21.2 366.25 21.65 366.75 21.8 368.65 22.6 370.65 23.35 372.2 23.5 373.65 23.65 375.15 23.5 377.1 23.35 377.45 23.35 378.35 23.35 380.05 22.85 381.6 22.35 382 22.4 382.45 22.45 385.05 22.7 387.65 23 388.7 23.35 390.35 23.9 392.35 24.4 394.35 25.05 395.25 25.7 395.85 26.15 396.9 28.45 397 28.7 398.4 33.95 399.9 39.5 400.3 40.7 401 42.85 401.15 46.05 401.15 46.5 401.15 47.9 401.1 48.95 401.2 49.3 401.6 50.85 402.1 51.7 402.55 52.45 403.4 53.4 403.65 53.8 404 54.8 404.35 55.7 404.45 56.15 404.5 56.45 404.6 57.9 404.85 59.4 405.65 60.35 406.3 61.1 407.3 62.25 407.7 62.7 408 63.15
M 206.6 115.95
L 205.75 115"/>

<path id="Layer0_0_1_STROKES" stroke="#000000" stroke-width="1" stroke-linejoin="round" stroke-linecap="round" fill="none" d="
M 308.75 218.9
Q 308.884375 218.985546875 309.025 219.075 309.03203125 218.640234375 309.1 218.3 309.45 217.1 309.55 216.55 309.75 215.6 309.45 215.55 308.65 215.45 308.55 215.45 308 215.3 307.8 214.85 306.65 212.45 306.7 212.45 304.55 208 303.95 206.65 303.7 206.1 302.85 204.7 302.2 203.6 302.1 203.15 301.9 202.05 303.75 201.15 305.2 200.45 307.25 199.25 308 198.85 308.65 198.5 309.1 198.25 309.8 197.25 314.15 191.15 314.95 189.4 316.4 186.25 317.15 185.35 317.25 185.25 317.4 184.5 317.5 184 318.1 183.9 318.5 183.85 320.45 183.8 322.25 183.75 323.05 183.5 323.95 183.25 324.6 182.4 324.95 181.9 325.6 180.75 326.8 178.9 327.6 178.9 327.95 178.9 329.15 179.15 330.25 179.35 330.7 178.9 331.1 178.55 331.45 177.8 331.75 177.1 332 176.9 332.85 176.3 334.4 176.3 334.9 176.3 335.6 176.25 336.25 176.25 337.15 176.65 337.9 177 338.95 177.4 339.7 177.75 340.05 178.2 340.6 178.9 341.35 180.2 341.45 180.3 341.8 180
L 342.15 180.7
Q 342.55 181.45 343.1 182 344.9 183.8 345.75 184.5 346.2 184.85 347.4 185.9 348.65 186.95 349.8 187.75 350.85 188.45 351.55 188.7 352.2 188.9 352.65 189.2 353.25 189.65 353.4 190.75 353.6 192.6 353.7 192.85 353.85 193.4 354.8 194.8 355.45 195.85 355.2 196.45 354.95 197.05 354.15 197.2 353.1 197.45 352.8 197.65 352.2 198.05 352 199.2 351.85 200.15 352.05 201.1 352.3 202.3 350 203.4 349.2 203.75 348.9 204.1 348.5 204.45 348.25 205.2 348.05 205.8 348.35 206.6 348.85 208 348.95 208.45 349.2 209.55 348.85 209.95 348.8 210 347.55 210.7
L 345.8 211.65 346.55 212.25
M 309.025 219.075
Q 309.9599609375 219.63671875 310.75 219.9 311.75 220.3 312.35 221 316.15 225.15 317.6 226.3 318.5 227 319.15 227.25 319.45 227.4 320.35 227.6 320.6 227.65 321.7 227.6 322.6 227.5 323.4 227.85 324.8 228.45 325.9 228.4 326.15 226.2 326.15 225.4 326.15 223.55 327.1 222.95 330.05 221.1 330.05 221.15 328.5 220.2 328.5 219.3 328.5 218.75 329.35 218.05 329.8 217.7 330.55 217.15 330.8 216.95 331.2 216.35 331.65 215.8 332.45 215.6 334.25 215.1 335.9 215.25 336.2 215.25 337.95 214.9 338.4 214.8 340.6 213.75 343 212.6 344.15 212.25
L 345.8 211.65"/>
<!-- </defs> -->

<!-- <use xlink:href="#Layer1_0_1_STROKES"/> -->
</g>
<!-- 
<g transform="matrix( 1, 0, 0, 1, 0,0) ">
<use xlink:href="#Layer0_0_1_STROKES"/>
</g> -->
</svg>
