
<svg xmlns="http://www.w3.org/2000/svg" version="1.1" xmlns:xlink="http://www.w3.org/1999/xlink" preserveAspectRatio="none" x="0px" y="0px" width="500px" height="356px" viewBox="0 0 500 356">
<defs>
<path id="Layer0_0_1_STROKES" stroke="#FF0000" stroke-width="1" stroke-linejoin="miter" stroke-linecap="butt" stroke-miterlimit="4" fill="none" d="
M 311.35 289.85
L 321.85 270.85
Q 322.8 270.85 330.4 264.2 335.15 260.35 336.1 249.9 338 216.6 342.75 208.05 345.6 202.3 351.35 199.45 356.1 195.65 357.05 192.8 357.05 191.85 358.95 179.45 359.9 169.95 364.65 167.1 372.25 161.4 382.75 157.6 397 157.6 397 148.05 397 129.05 383.7 118.55 380.85 115.7 373.2 108.1 368.45 103.35 361.8 101.45 344.65 97.65 329.45 104.3 328.5 105.25 319.95 112.85 315.15 117.6 306.6 114.75 285.65 109.05 274.25 88.1 270.45 80.5 262.8 72.9
L 256.15 67.15 216.2 66.2
Q 216.2 77.65 197.15 83.35 180 88.1 150.5 105.25 144.8 109.05 124.8 109.05 104.85 108.1 102 108.1 97.2 108.1 97.2 116.65 96.25 121.4 97.2 136.65
L 96.25 172.8 97.2 183.3
Q 99.15 194.7 102 200.4 108.65 209.95 132.45 220.4 139.1 223.25 150.5 227.05 159.1 228.95 161 234.65 163.85 244.2 161 265.15 161 270.85 161.95 277.5 163.85 285.1 165.75 277.5 171.45 261.3 177.15 255.6 179.05 253.7 182.9 248.95 186.7 247.05 193.35 253.7 202.85 260.35 211.45 275.6 214.3 278.45 217.15 286.05 220.95 291.8 225.7 295.6 234.25 300.35 236.2 301.3 241.9 302.25 246.65 294.65 254.25 282.25 264.75 278.45 274.25 274.65 279.95 282.25 281.85 285.1 284.7 293.7 286.6 300.35 290.4 302.25 298.05 304.15 305.65 300.35 309.45 297.5 311.35 289.85 Z"/>
</defs>

<g transform="matrix( 1, 0, 0, 1, 0,0) ">
<use xlink:href="#Layer0_0_1_STROKES"/>
</g>
</svg>
