<?xml version="1.0" encoding="iso-8859-1"?>
<!-- Generator: Adobe Illustrator 16.0.0, SVG Export Plug-In . SVG Version: 6.00 Build 0)  -->
<!DOCTYPE svg PUBLIC "-//W3C//DTD SVG 1.1//EN" "http://www.w3.org/Graphics/SVG/1.1/DTD/svg11.dtd">
<svg xmlns="http://www.w3.org/2000/svg" xmlns:xlink="http://www.w3.org/1999/xlink" version="1.1" id="Capa_1" x="0px" y="0px" width="512px" height="512px" viewBox="0 0 27.332 27.332" style="enable-background:new 0 0 27.332 27.332;" xml:space="preserve">
<g>
	<path d="M25.832,0H1.5C0.671,0,0,0.672,0,1.5v24.332c0,0.828,0.671,1.5,1.5,1.5h24.332c0.828,0,1.5-0.672,1.5-1.5V1.5   C27.332,0.672,26.66,0,25.832,0z M20.333,15.666H6.999c-1.104,0-2-0.896-2-2c0-1.104,0.896-2,2-2h13.334c1.104,0,2,0.896,2,2   C22.333,14.77,21.438,15.666,20.333,15.666z" fill="#257b70"/>
</g>
<g>
</g>
<g>
</g>
<g>
</g>
<g>
</g>
<g>
</g>
<g>
</g>
<g>
</g>
<g>
</g>
<g>
</g>
<g>
</g>
<g>
</g>
<g>
</g>
<g>
</g>
<g>
</g>
<g>
</g>
</svg>
