<?xml version="1.0" encoding="utf-8"?>
<!-- Generator: Adobe Illustrator 21.1.0, SVG Export Plug-In . SVG Version: 6.00 Build 0)  -->
<svg version="1.1" id="fotos" xmlns:amcharts="http://amcharts.com/ammap"
	 xmlns="http://www.w3.org/2000/svg" xmlns:xlink="http://www.w3.org/1999/xlink" viewBox="-5980 -3570 12500 12500"
	 style="enable-background:new 0 0 1500 1500;" xml:space="preserve">
<style type="text/css">
	.st0{stroke:#000000;}
</style>
<g id="_x37_4">
	<path id="DE-BW" fill ="#FFFFFF" class="st0" d="M576.1,790.7l0.3,1.1l-1.9,0.1L576.1,790.7z M590,692.6l4.7-0.2l2.3-4l3.6,0.5l0.5-3.6l-1.1-1
		l-1,1.4l0.5-1.3l-2.7-0.5l0.7-1.6l6.5-1.1l2.1,2.4l0.2-2.1l2.9-0.5l-0.8,4.7l1,0.9l2-2.2l0.9,2.1l2.2-2.3l2.5,6.5l-2.1,3l1.7,0.5
		l2-2l0.4,5.2l3.2,0l1.6-3.3l2,2l-1,3.3l2.4,2.8l-1.9,0.9l1.7,5.3l-1.6,1.1l0.5,3.1l4.3,2.7l-1.3,2.5l1.4,0.5l0,2.7l3.4,0.7l3.8,5.9
		l-1.2,0.6l1.1,2.5l-1.3,5.9l2.7,3.1l-2.9,1.4l1-1.7l-1-0.2l-1.7,2.3l-3.2-2.6l-0.5,2l2.4,3l-0.4,4.5l-2.6,0.6l-2.2,2.8l-2.2-1
		l-2.4,1l-2.3,4.2l3.3,5l2.5,8.8l-2,12.7l2.1,2.9l-2.6,1.2l1.9,1.4l0.4,4.3l-1.9,2l-1.7-2.4l-2.2,1.8l-3.9-1.4l-3.5,3.4l-4,0.5
		l-1.4,2.8l0,0l-17.8-6.8l-6.8,1.6l-3-4.6l-1.3,1l0.8,2.3l-2.3-1l-0.1-3.7l-1,0.4l-1.4-2.3l-0.9,2.1l-0.4-2.1l-1.8-0.5l0.3,1.4
		l-3.2,0.6l-2.7,5l2.4,1.8l4.5-1.7l0.8,1.3l-1.8,2.7l-2-2l-2.2,1.6l1.1,1.2l-3.6,0.6l-6.2-2.8l-4,3.3l-5.1,0.7l-1.8-2.2l-2.4,0
		l-4.5,2.9l-2-1.5l1.8-0.2l0.2-1.8l-3.6,0.6l-2.7-5.5l1.3-1.9l0.3-7.5l2.3-4.8l-1.8-3.2l0.3-4.5l4.1-9.5l1.8-1.3l-0.4-3.5l3.7-12.9
		l4.6-6.1l4.1-2.4l5-8.6l0,0l4.4-7.1l1.1-7.1l3.4-3.2l-1.3-1.6l2-5.9l-2.3-0.8l-0.7-7.2l0,0l1.8,0l3,3.7l1.9-1.4l-0.7-3.7l3.4-0.7
		l0.3,4.7l4.2,0.6l0.3,1.8l2.3-0.6l-0.8,1.9l-1.8-0.1l-0.8,3.1l1.7,0.8l3.5-3.2l0.1-2.6l6.1-0.7l-1.9-2.6L590,692.6z"/>
	<path  id="DE-BY"  fill ="#FFFFFF" class="st0" d="M622.7,641.8l2.3-2.6l1.2,1.1l2.1-0.6l1,2.4l3.4,0.9l2.3,5.5l2-0.4l1.4,2.5l1.8-0.5l1.9,1.7
		l0.3,5.6l3.8,1.4l0.5-2.5l4,0.4l0-1.7l-4.5-2.5l-0.1-1.4l4.1-2.5l3.6,0l1.7,2.4l4.5-1l1.5,2l-0.4,2.4l3.7,0.9l1.2-5l-1.3-6.5
		l1.5,0.2l1.9-2.5l3,0.5l-0.4,3.7l0.8,1.3l1.4-0.6l1.4,3l9-2.4l1.6,1.6l3.4-1.8l0,0l2.1,1.9l-0.2,2.1l4.3,1.8l0,0l1.4,2.3l-1.7,1.4
		l4.3,4.4l-0.6,3.2l2.6,1.8l-0.5,1l8,4.2l-0.4,2.4l2.4,0.8l-2.6,7.2l-2.4,2.4l4.1,3l0.2,3.7l1.1-0.1l1,4.4l1.9,0.8l0.5,4.8l3.5,2.1
		l0.8,2.6l5.7,0.2l3,2.1l5.2,8.9l3.9,1l3.6,3.4l0.3,3.5l3.2,2.4l1.3-1.7l3.4,1.3l1.5,3.6l2.3-0.3l3.5,6.1l-1.6,3l1.5,0.9l-0.5,4.4
		l-3.2,5.2l-7.8-3.9l-2.4,1.7v6.7l-3.6,5.5l-10.9,3.6l-9.2,6.9l0.1,2.8l3.9,5.7l2.2,1l2.3,4.9l-3.3,6.5h3.8l2.2,1.9l-1.2,10
		l-1.5,1.4l-7.2-4.7l-0.6-1.3l1.5-1.6l-2.3-2l0.8-1.1l-6.2,0l-1,2.1l-2.7,0.4l-2-3.6l-6.4,0.8l-0.1-3.3l-3.1,2.2l1.4,4.8l-6.7-1
		l-5.7,2.2l-7.2-0.7l-2.2,4.1l-4.9,0.1l-1.7,2.1l1.3,1.4l-2.9-0.2l-2.4,2.7l-1.6,0.1l1-1.7l-1.7-0.3l-3.1,1.9l-4.8-0.1l-1.4-4.2
		l-2.3-0.1l1.7-1.6l-1-1.2l-3.8,1.2l-6.2-2.8l-0.9,1.8l-1.7-0.1l-2.4-1.1l0.9-1.5l-1.5,0l1.3,7.8l-1.4,2.6l-3.7,3.9l-5.4,1.8
		l2.1-5.8l-1.9-0.5l-3,1.9l-0.2-5l-3.2-1.5l-1.1-3.3l-3.4,0.9l-2.1-1l-0.5-2.4l-2.3,3.2l-4.7-0.7l0,0l1.4-2.8l4-0.5l3.5-3.4l3.9,1.4
		l2.2-1.8l1.7,2.4l1.9-2l-0.4-4.3l-1.9-1.4l2.6-1.2l-2.1-2.9l2-12.7l-2.5-8.8l-3.3-5l2.3-4.2l2.4-1l2.2,1l2.2-2.8l2.6-0.6l0.4-4.5
		l-2.4-3l0.5-2l3.2,2.6l1.7-2.3l1,0.2l-1,1.7l2.9-1.4l-2.7-3.1l1.3-5.9l-1.1-2.5l1.2-0.6l-3.8-5.9l-3.4-0.7l0-2.7l-1.4-0.5l1.3-2.5
		l-4.3-2.7l-0.5-3.1l1.6-1.2l-1.7-5.3l1.9-0.9l-2.4-2.8l1-3.3l-2-2l-1.6,3.3l-3.2,0l-0.4-5.2l-2,2l-1.7-0.5l2.1-3l-2.5-6.5l-2.2,2.3
		l-0.9-2.1l-2,2.2l-1-0.9l0.8-4.7l-2.9,0.5l-0.2,2.1l-2.1-2.4l-6.5,1.1l-0.7,1.6l2.7,0.5l-0.5,1.3l1-1.4l1.1,1l-0.5,3.6l-3.6-0.5
		l-2.3,4l-4.7,0.2l0,0l-1.3-2.3l2.8-6.5l-1.4-1l0.9-1.3l-1.5-0.5l-0.2-3l-1.7,0.1l-0.6-7.2l1.1-0.8l-0.7-2.5l-1.8-0.4l0.7-2.4
		l4.2-1.9l1.1,1.9l2.4-3.1l5.2,1l2.2,2.5l2.7-0.6l-0.4-8l5.7,0.4l-0.4-2.1l3.2-2.1l0.5-6.3l4.9,1.2l4.1-3.4L622.7,641.8z"/>
	<path id="DE-BE" fill ="#FFFFFF" class="st0" d="M742.4,521.3L742.4,521.3L742.4,521.3l1.6,1.4l-0.5,3l5.1,3.6l-1.6,3.3l5.2,1.6l-3.9,6l-0.1-2.2
		l-5.7-1.1l-0.5-1.4l-1.6,0.6l0,1.9l-4.3-2.3l-5.9,1.5L729,536l2.7-5.6l-1.7-0.4l0.4-4l3.1-0.1l0.1-2.3l1.5,0l0.7-1.9l2.7,2.1
		l3.9-1.6l-0.4-1l0,0l0.5-0.3l0,0l0.2,0.1l0,0L742.4,521.3z"/>
	<path id="DE-BB"  fill ="#FFFFFF" class="st0" d="M665.4,495.1l4.4,0.7l1-1.7l3.9,0.9l0.7-4.9l4-2.1l2.2,1.6l3-0.4l-0.8-1.7l2.2,0.3l5.7-3l0.8-4.2
		l4.3,1.9l2.1-1.1l1,2l4.7,1.4l1.8,3l7.5-0.2l0.8,1.6l2.5,0.2l0.5,2.1l6.8-0.8l-0.7,1.5l2.2,0.5l5-4.8l2.8,2l2.4-3.7l3.7,1.9
		l1.1-2.9l1.7,0.3l1.3-1.6l1-4.6l2.6-0.7l3.1-4.2l3.4-0.2l-1.3-1.7l0.6-2.6l2.9,3.2l1.4,4.8l11.3-0.4l-0.5,4l-4.5,5.7l5.7,0.2l2-3
		l3.3-1.1l0,0l1.2,3.9l-2.5,3.7l-0.4,7l-7.6,6.8l0.6,4.4l-1.3,2.7l8,5l10,10.2l-1.2,2.2l1,2.4l-3.5,5.5l2,6.9l4.2,2.1l-1.1,6.8
		l2.7,2.9l-2.2,9.3l-3.6,4.2l5.8,9.4l-0.9,4.4l0,0L785,582l-0.6,2.5l-2.2,0.2l-1.7-1.7l-6.2,2.1l-1.9,2.1l-6.8-2.2l-1.7,3.7
		l-1.9,0.1l1,1.7l-2.2,4l-1.4-1.3l-6.5,1.9l-8-0.4l-5-4.7l-0.7,1.6l-1.9-0.6l-2,2.9l-1.8-0.6l-1.4-1.8l1.1-5.4l-2.2-2.5l0.6-1.4
		l-3.8-3l0,0l4.6-3.9l-1.6-9.2l-3.4,0.5l0.1-1.6l-2.5,0l-0.5-2h-3.7l-0.3-1.8l-2.3,0.3l-3.8-2.8l-2.1,1.7l-2.5-0.2l-2.1-2.7l-1.6,1
		l-7.6-8.6l2.8-3.3l-1.8-1.4l2.2-5.4l-1.2-3.9l2-3.6l-3.1-2.5l-2,1.5l0.2-2.1l-1.6,0.1l0.9-5.5l2.1-0.2l-1.1-5.1l2.1-5l-0.8-3.2
		l-1.4-1l-2.4,1.5l-0.1-2.3l-5,1.1l-5.1-2l0.3-2.5l-3.6-2.1l-1.7,0.7l-0.6-1.8l-1.8-0.2l0.5-1.5l-1.4,0.1l0,0l-5.1-2.5l-4,1.3
		L665.4,495.1z M742.2,522.3l-3.9,1.6l-2.7-2.1l-0.7,1.9l-1.5,0l-0.1,2.3l-3.1,0.1l-0.4,4l1.7,0.4L729,536l1.3,1.2l5.9-1.5l4.3,2.3
		l0-1.9l1.6-0.6l0.5,1.4l5.7,1.1l0.1,2.2l3.9-6l-5.2-1.6l1.6-3.3l-5.1-3.6l0.5-3l-1.6-1.3l0,0l0.1-0.3l0,0l-0.2-0.1l0,0l-0.5,0.3
		L742.2,522.3z"/>
	<path id="DE-HB"   fill ="#FFFFFF" class="st0" d="M568.7,489.1l0.4-0.1l0,0l3.4,0.9l-0.7,1.2l1.5,1.1l7.2,0.5l1.2,1.9l2.8-1.2l1.3,1.5l-1.2,0.6
		l1.4,1.1l-0.3,3l-1.6,1.9l-2.4-1.5l-1.5,1.1l-1.7-1.9l-1.9,0.8l-3.5-7.4l-3.8-1.8l0,0l0,0l0,0L568.7,489.1L568.7,489.1L568.7,489.1
		z M569.7,467l4.9-0.2l-1.5,2.1l0.5,4.6l-2,0.5l-0.6-2.2l0,0l0.8-1L569.7,467z"/>
	<path id="DE-HH" fill ="#FFFFFF" class="st0" d="M611.9,469.8l1.4-4.4l2.3,2.7l2.4-3.9l2.5,0.4l0.7-2l2.3,0.2l0.5-2.5l3.1-1.1l0.8,0.9l-1.7,2.7
		l2.7,2.6l-0.8,2.8l-1.7,0.7l0.4,3l1.7,0.1l4,4.2l-0.6,0.9l0,0l-2.4,2.2h-2.2l-4.3-3.9l-2.3,2.8l-2.4,0.1l-0.4-2.5l-1.5,1.5
		l-1.9-1.9l-1.1-5.3L611.9,469.8z"/>
	<path id="DE-HE"  fill ="#FFFFFF" class="st0" d="M602.1,579.2l6.1,0.6l2.2,3.3l-2.1-0.4l0.6,1.8l-1.4-0.5l-0.7,2.5l2,2.6l0,2.9l-2.3,0.9l-0.3,2.2
		l-1.3-0.3l1,1.2l6,2.8l1.3-2.3l-1.2,1l-1.3-2.5l3.4-1.2l-0.1-1.3l2.4,2l-0.5-2.4l1.8-0.2l0.9,2.4l0,0l1.5,5l2.9,0.3l0.5,2.9
		l5.9,2.3l-1.3,4l-1.1-2.2l-1.6,0.8l1.9,1.3l-1.2,3.1l2.2,1.3l0,1.5l-5.8-0.3l-0.7,1.7l1.5,2l-3.9,0.1l1.3,0.6l-0.6,1.3l1.4-0.8
		l1.7,2.2l-1.2,2.6l-2.6,0.7L617,635l2.9,0.6l-0.2-2.1l3.5-0.2l1,2.7l-1.6,0.7l0.2,5.2l0,0l-0.8,2.7l-4.1,3.4l-4.9-1.2l-0.5,6.3
		l-3.2,2.1l0.4,2.1l-5.7-0.4l0.4,8l-2.7,0.6l-2.2-2.5l-5.2-1l-2.4,3.1l-1.1-1.9l-4.2,1.9l-0.7,2.4l1.8,0.4l0.7,2.5l-1.1,0.8l0.6,7.2
		l1.7-0.1l0.2,3l1.5,0.5l-0.9,1.3l1.4,1l-2.8,6.5l1.3,2.3l0,0l-1.1,0.7l1.9,2.6l-6.1,0.7l-0.1,2.6l-3.5,3.2l-1.7-0.8l0.8-3.1
		l1.8,0.1l0.8-1.9l-2.3,0.6l-0.3-1.8l-4.2-0.6l-0.3-4.7l-3.4,0.7l0.7,3.7l-1.9,1.4l-3-3.7l-1.8,0l0,0l-2.2-5.8l4.2-3.8l-1.9-0.3
		l-1.5-2.9l-2-8.3l-4.8-3.2l-10.4,3.4l-3.9-4.6l2.2-1.4l0.5-2.3l2.7,1.3l0.1-2.2l-1.7-1.3l0.9-1.9l2.7-1.9l1.6,1.2l0.1-3l2.4,0.6
		l0.4-2.1l-2.1-4.1l-3.4-2l1.6-2.3l-0.5-3.9l1.7-1.8l2.1,1.3l1.1-1l-0.4-7.4l0,0l1.5-2.7l-1.2-3l4.6-5l3.2,1.1l3.5-3.2l-0.1-2.6
		l2.8-3l-1.2-3.4l7.6-1.7l-0.8-1.5l2.5-4l-1.6-3.6l-4.4,1.5l-1.3-1.7l2.2-3.3l2.6-2.3l8.5-0.7l0.3-2.1l-2-3l4.4-2l2.5,1.3l0.2,2.8
		l4.2-0.8l5.4-7.4l-1.2-1.3L602.1,579.2z"/>
	<path id="DE-MV" fill ="#FFFFFF" class="st0" d="M754,433.9l2.3,4l5,2.8l7.3,7.3l-1.5,0.9l1,2.7l-6.1-0.4l-3.4,1.8l-0.4-1.8l-0.6,1.8l-3-0.4
		l3.9-3.5l-1-4.7l1.9,0l-0.2,3.2l0.9-1.6l2,1.2l0.2-2.5l-2.7-4.7l-2.1,0l0.6,2.8l-0.2-1.1l-2.2,2l-0.1-2.8l-3.1,1.7l1.5-5.3l-2.2-3
		L754,433.9z M715.5,418.3l0.9,0.8l-1.9-0.1L715.5,418.3z M709.5,415.1l1.1,1.7l12.3,0.5l0.3,1.1l-4.3,1.1l-5.8-1l-3.5,3.6l6-2.8
		l-1.1,2.4l0.8-1.7l1.2,1.7l1.8-1.5l0.9,3.1l3.9-4.1l3.7-1.4l-0.1,2.3l2.3,1.7l0.4,5.1l2.6,0.7l-1.2,1l1.5-0.8l3.6,1.9l1.3,3
		l1.6,0.1l-1.9,1.3l3.5-0.8l-1.2,1.8l1-0.7l2,4.1l1.1,0l-0.3-2.3l7.7-2.7l-0.4,1.2l3.6,3l-2,4.2l5.9,6.3l-3.1,2.7l-0.3,2l9.9,6
		l5.7-0.5l-1.8,2.7l2.3,0.9l4.6,20.9l0,0l-3.3,1.1l-2,3l-5.7-0.2l4.5-5.7l0.5-4l-11.3,0.4l-1.4-4.8l-2.9-3.2l-0.6,2.6l1.3,1.7
		l-3.4,0.2l-3.1,4.2l-2.6,0.7l-1,4.6l-1.3,1.6l-1.7-0.3l-1.1,2.9l-3.7-1.9l-2.4,3.7l-2.8-2l-5,4.8l-2.2-0.5l0.7-1.5l-6.8,0.8
		l-0.5-2.1l-2.5-0.2l-0.8-1.6l-7.5,0.2l-1.8-3l-4.7-1.4l-1-2l-2.1,1.1l-4.3-1.9l-0.8,4.2l-5.7,3l-2.2-0.3l0.8,1.7l-3,0.4l-2.2-1.6
		l-4,2.1l-0.7,4.9l-3.9-0.9l-1,1.7l-4.4-0.7l0,0l-2.9-0.8l0.4-2.5l-3.7-1.9l-3.6-7l-2.4-0.9l-2.9,2.6l-4.7-3.8l-3.6,0.4l0,0l1.3-5.2
		l6.7-3.5l-0.1-3.6l3.1,0.2l1.4-4.5l-1-3l-2.5-0.2l-3.2-2.9l0.5-7.1l3.8-3.1l1.1,1.6l1.9-0.6l-2.5-0.9l0.4-2l0,0l4.7-2.9l4.9-0.5
		l2.8,1.9l-0.1,2.9l2.7-1.4l4.3,3.7l0.8-4.2l-1.3,0.5l0-2.3l-0.5,2.2l-1.5-0.2l-0.1-2.2l3.6-1.2l0,3.3l1-3.8l1.9-0.1l1.8-3.4
		l-0.7-0.7l-2.6,3.2l-0.1-1.5l5.3-4.7l5.8,0.4l9.7-2.3l2.1-3.2l5.2-3.5L709.5,415.1z M730.9,407.9l-2.8,8.6l1.2-7.9L730.9,407.9z
		 M740.9,403l-2,3l1.5,3.3l7.5-0.4l1.5,1.3l-3.6,7l1.4,2.6l2.1,0.2l3.3,3.5l-1.9,4.3l-0.3-1.6l-2-0.1l2-1.7l-3.3,0.6l2.6-2.1
		l-2.4,1.3l-1.1-1.4l-2.8,0.7l-5.2,4.3l0.2,1.4l0.3-1l1.8,0.6l-0.9,1.9l-3.5-1.7l1.1,0.3l0.4-2l-2.3,1.5l-2.4-1l-0.2-1.6l-1.9,0.9
		l1.6-1.1l-2.5-1.9l0.5-2.3l4.6-0.8l-1.7-2.7l-2.1,0.4l1-2l-2,0.5l1.7-2.7l2,0.5l-1,2.2l2.5-1.9l-1.5-0.3l0.1-1.5l-2.1,0.2l-0.9-2.3
		l3.5-0.5l2.1,2.4l-0.2-2.3l2-1.6l-0.6,1.9l1.3-0.7l1.3,3.9l1.3,1.3l1.8-0.6l0.3-5l-2.3,0.8l-2.6-3.8l-4.4,3.3l1.4-5.2l-4.3,5.2
		l3-5.9L740.9,403z"/>
	<path id="DE-NI" fill ="#FFFFFF" class="st0" d="M510.2,467.4l-3.3,0.9l1,1.7l-3.1-1.7l3.3-2.1L510.2,467.4z M530.7,459.4l1.3,1l-2.7-0.5
		L530.7,459.4z M536.9,458l1.8,0.8l-5.8,1.3l0.5-1.8L536.9,458z M541.9,456.6l3.3,0.6l-5.2,1L541.9,456.6z M547.9,455.9l2.6,1.2
		l-4.3-0.7L547.9,455.9z M575.6,450.1l2.9,3.3l4.3,0.7l4.4-1l-0.6-1.9l0,0l7.1-0.3l3.6,1.5l6.7,9.4l1.6,4.5l6.3,3.5l0,0l1.5,0.2
		l1.1,5.3l1.9,1.9l1.5-1.5l0.4,2.5l2.4-0.1l2.3-2.8l4.3,3.9h2.2l2.4-2.2l0,0l10,4l0,0l3.6-0.4l4.7,3.8l2.9-2.6l2.4,0.9l3.6,7
		l3.7,1.9l-0.4,2.5l2.9,0.8l0,0l2.5,3.8l4-1.3l5.1,2.5l0,0l-1.5,2.1l-1.6-0.4l-0.2,3.8l-6.6,3.6l-10.7-1.9l-2.3,3.4l-6,0.6l1.1,7.4
		l1.1-0.1l3.2,6.1l2-0.8l-1.4,3.2l2.5,4.1l-2.2,0.1l-0.4,1.9l4.9,4.9l-3.2,1.9l3.6,6.4l-2.5,1.7l1.6,1.4l-0.5,2.2l-3.5,1.8l0.8,2.6
		l-9.3,0.4l-4.8,2.6l3.1,2.6l-1.3,1.1l1.3,2.7l-2.5,2.4l-0.1,2.1l4.4,9.5l0,0l-2.2,1.2l0.6,3.4l-1.8-1.2l-3,1.4l-3-2.1l-2.2,0.3
		l-2.5,5.2l-2.3,1.3l-1.1-0.9l-1.7,3l-3,0.7l-0.8-1.1l-4.1,3.5l0,0l-0.9-2.4l-1.8,0.2l0.5,2.4l-2.4-2l0.1,1.2l-3.4,1.2l1.3,2.5
		l1.2-1l-1.4,2.3l-6-2.8l-1-1.2l1.3,0.3l0.3-2.2l2.3-0.9l0-2.9l-2-2.6l0.7-2.5l1.4,0.5l-0.6-1.8l2.1,0.4l-2.2-3.3l-6.1-0.6l0,0
		l-2.7-0.2l0-5.2l2.5-2.9l0.5-3.7l-4.7,0.4l0.6-3l-2.4-1.4l0-2.3l-2.3,0.7l-1.2-1.1l0.7-5l-2.1-1.4l0.7-2l-5-0.3l-0.9-3.4l2,0.6
		l-0.3-2.3l1.4-0.4l-3.9-2.7l5.5-7.1l-1-2.2l1.5-1.9l-1.3-1.2l-1.6-0.2l-4,5.6l-2.8,0.7l-5.2-0.3l-0.2-6.2l-1.8-1.5l-3.3,1.9
		l-1.9-0.7l-3,3.8l-4-0.8l0.5,3.1l4.4,2.4l0,8.4l2.6,1.7l-3.8,4.2l-4.2-1.4l-3.3,3.5l-5.6,0.2l-1.8,1.9l-3.3-2.7l4.3-1.8l0.6-2.7
		l-4.3-2.4l2-3.5l-0.9-2l2.1-0.4l-1.9-3.2l-7.8-2l-0.9-3l-2.8-1.3l-1.5,2.4l1.3,0.6l-0.7,2.6l-10,6.3l-8.1,1.3l0,0l-1.3-2.7l1.7-4.8
		l-2.9-5.4l-1.7,1.9l-6.4-1.6l-2.1-1.4l-0.6-3.8l3-0.6l-1.9-3.7l1.4-1.2l10.6,0.3l1.1-11.9l4.5-9.1l-1.3-7.6l1.7-2.3l-0.6-3.7
		l1.3-4.5l2.2-0.1l-10.3-1.2l0.7-11.2l2.3,2l-2-2.2l2.2,1.5l1.4-1.8l-1.9-2.2l5.4-5.3l4.1-1l5.7,0.9l6.2-2.8l0,1.2l3.6-0.6l1-1.4
		l-0.9,1.6l7.6-0.1l0.6,3.9l2.5,0.3l1.9,5.9l-3.9,1.8l0.1,1.7l4.8,4.2l2.3-0.1l1.6-3l-0.1-3.7l-2.9,0.1l1.9-5.3l2-0.1l4.4,3.5
		l1.9-0.3l1.3,2.1l0,0l0.6,2.2l2-0.5l-0.5-4.6l1.5-2.1l-4.9,0.2l0,0l-1.4-5.2l2.3-7.1l2.2-3.9L575.6,450.1z M568.6,489L568.6,489
		l0.7,1.8l3.8,1.8l3.5,7.4l1.9-0.8l1.7,1.9l1.5-1.1l2.4,1.5l1.6-1.9l0.3-3l-1.4-1.1l1.2-0.6l-1.3-1.5l-2.8,1.2l-1.2-1.9l-7.2-0.5
		l-1.5-1.1l0.7-1.2L569,489L568.6,489z"/>
	<path id="DE-NW" fill ="#FFFFFF" class="st0" d="M518.9,545.7l8.1-1.3l10-6.3l0.7-2.6l-1.3-0.6l1.5-2.4l2.8,1.3l0.9,3l7.8,2l1.9,3.2l-2.1,0.4l0.9,2
		l-2,3.5l4.3,2.4l-0.6,2.7l-4.3,1.8l3.3,2.7l1.8-1.9l5.6-0.2l3.3-3.5l4.2,1.4l3.8-4.2l-2.6-1.7l0-8.4l-4.4-2.4l-0.5-3.1l4,0.8l3-3.8
		l1.9,0.7l3.3-1.9l1.8,1.5l0.2,6.2l5.2,0.3l2.8-0.7l4-5.6l1.6,0.2l1.3,1.2l-1.5,1.9l1,2.2l-5.5,7.1l3.9,2.7l-1.4,0.4l0.3,2.3l-2-0.6
		l0.9,3.4l5,0.3l-0.7,2l2.1,1.4l-0.7,5l1.2,1.1l2.3-0.7l0,2.3l2.4,1.4l-0.6,3l4.7-0.4l-0.5,3.7l-2.5,2.9v5.2l2.7,0.2l0,0l-4,1.8
		l1.2,1.3l-5.4,7.4l-4.2,0.8l-0.2-2.8l-2.5-1.3l-4.4,2l2,3l-0.3,2.1l-8.5,0.7l-2.6,2.3l-2.2,3.3l1.3,1.7l4.4-1.5l1.6,3.6l-2.5,4
		l0.8,1.5l-7.6,1.7l1.2,3.4l-2.8,3l0.1,2.6l-3.5,3.2l-3.2-1.1l-4.6,5l1.2,3l-1.5,2.7l0,0l-2.9-0.7l-2.5-4.3l0-3.9l-4.9-2l0.8-2.5
		l-2-0.8l-2,1.3l0.9,4l-3.6,1.3l0.4,2.2l-2.8,2.3l-7.6,1.2l-1.4,4.3l-4.3,0.9l-0.4-1.4l-1.9,2.6l-1.1-0.7l-0.9,1.4l-1.2-1.1l-2,2.3
		l-2.4,0.2l0,1.4l-1.7,0.3l0.6,3.2l-1.5,0.9l-2-2.1l-1.9,1l1.9,6.2l-3.4,1.3l-1.1-1.9l-1.1,1.4l-1.3-2.4l-5.2,2.8l-1.4-2.9l-0.3,3.6
		l0,0l-2.2-3.1l1.2-3.1l-0.9-2.9l-4.3-0.4l-1.7-2.6l3.2-4.6l-3.2,0l-2-5.1l-2.9,0l-0.5-3l-1.8-1.3l1.8-1l-0.2-1.7l1.9,0l0.7-4.1
		l-2.6-0.7l0.2-2.7l-4.4,0.5l-1.1-4l1.7-1l1.6,1.7l1.8-3.1l5.7-3.6l-1.2-0.9l0.9-1.2l-2.9,1.2l-0.4-3.9l5.4-6.7l-0.4-8.4l-4.3-5.2
		l0.9-2.8l-2.9-1l0.4-2.4l-3.1-1.2l1.2-2.5l-1.6-2.3l4.1-2.3l3.5,1.3l-1.6-3.4l9.9,4.2l-0.4-2.7l2.7,1.2l7.5-3.6l1.7,1l3.4-4.9l-5-3
		l0.2-1.8l1.5-0.3l0.8-2.5l3.3-0.1l4.5-6L518.9,545.7z"/>
	<path id="DE-RP" fill ="#FFFFFF" class="st0" d="M496,652.4l0.3-3.6l1.4,2.9l5.2-2.8l1.3,2.4l1.1-1.4l1.1,1.9l3.4-1.3l-1.9-6.2l1.9-1l2,2.1l1.5-0.9
		l-0.6-3.2l1.7-0.3l0-1.4l2.4-0.2l2-2.3l1.2,1.1l0.9-1.4l1.1,0.7l1.9-2.6l0.4,1.4l4.3-0.9l1.4-4.3l7.6-1.2l2.8-2.3l-0.4-2.2l3.6-1.3
		l-0.9-4l2-1.3l2,0.8l-0.8,2.5l4.9,2l0,3.9l2.5,4.3l2.9,0.7l0,0l0.4,7.4l-1.1,1l-2.1-1.3l-1.7,1.8l0.5,3.9l-1.6,2.3l3.4,2l2.1,4.1
		l-0.4,2.1l-2.4-0.6l-0.1,3l-1.6-1.2l-2.7,1.9l-0.9,1.9l1.7,1.3l-0.1,2.2l-2.7-1.3l-0.5,2.3l-2.2,1.4l3.9,4.6l10.4-3.4l4.8,3.2
		l2,8.3l1.5,2.9l1.9,0.3l-4.2,3.8l2.2,5.8l0,0l0.7,7.2l2.3,0.8l-2,5.9l1.3,1.6l-3.4,3.2l-1.1,7.1l-4.4,7.1l0,0l-10.4-4.9l-2.4,1.3
		l-2.5-1.7l-4.2,1.1l-5.1-2.8l-1.2-3.8l-2,0.2l0.3-1l-2.8,1.4l0,0l-2.5-4.3l3.3-3l0.5-4l-3.8-1l-1.4-2.4l1.9-2.2l-1.3-5.9l-1.9,1
		l-6.5-4l-3,0.3l-11.6,6.2l-7.9-1.7l0,0l-0.8-1.1l2.5-5.2l3-2.9l0.4-4.7l-3.4-0.1l-2.4-2.2l-1.4,0.7l-3.1-3.3l-0.4-2.7l-1.6-0.2
		l-2.3-5.7l1.1-5.9l1.7-0.8l-0.5-2.9l3.6-1.7l1.1-2.9l1.8,0.9L496,652.4z"/>
	<path id="DE-SL"  fill ="#FFFFFF" class="st0" d="M495.1,694l7.9,1.7l11.6-6.2l3-0.3l6.5,4l1.9-1l1.3,5.9l-1.9,2.2l1.4,2.4l3.8,1l-0.5,4l-3.3,3
		l2.5,4.3l0,0l-2.4,2.3l-4.8-0.3l-2.1-1.9l-1.5,2.3l-0.7-4.1l-3.8-1.7l-3.1,0.6l-0.1,3.2l-3.4-0.6l-2.4-6.2l-3.6-3.6l1.2-1l-2.1-2
		l0.4-1.2l-4.3-2.7l-2.1,0.3L495.1,694z"/>
	<path id="DE-SN"  fill ="#FFFFFF" class="st0" d="M700.8,610.2l-3-2.9l0.1-5.3l-1.8-4.6l1.7-0.5l-1.7-7.4l2-1.6l0.9-4l6.7-1l0.6-1.5l1.5,0.8l4.9-1.8
		l-0.6,0.9l2.9-3l2.8,1l2.6-2.1l3.4,2.6l1.3-1.7l2.6,1.3l0,0l3.8,3l-0.6,1.4l2.2,2.5l-1.1,5.4l1.4,1.8l1.8,0.6l2-2.9l1.9,0.6
		l0.7-1.6l5,4.7l8,0.4l6.5-1.9l1.4,1.3l2.2-4l-1-1.7l1.9-0.1l1.7-3.7l6.8,2.2l1.9-2.2l6.2-2.1l1.7,1.7l2.2-0.2l0.6-2.5l1.2,0.9l0,0
		l0.2,3.1l7.5,3.2l0.9,7.1l2.2,3.8l-2.3,10.9l-6.3,14.1l-6.2-2.1l1.1-4l-2.9,0.7l1.1-3.7l-3.5-2l0.1-1.3l-0.3,1.3l-2.9,0.3l-3.7-2
		l-1.5,3.7l2.3,0.1l-0.5,1.7l3,1l-0.4,2.1L770,621l-6.6,4.6l-6.2,1l-0.1,2.7l-1.5,0.9l-11.5,1.2l-0.1,3.6l-2,2l-3.3-2.6l-1.7,3.8
		l-2.6-0.7l-1.8,4.8l-5.7-0.3l-0.4,3.4l-2.6,2.5l-4.5-3.1l-0.3,1.6l-0.5-1l-2.1,0.9l-1,1.9l-1.2-1.1l-5.6,1.1l-6.3,8.5l0.2,3.7
		l-1.6-0.2l0.1-2.4l-1.9-1.4l0.5-1.4l-1.9-0.1l-0.6-2.7l-2.9,0.2l0,0l-4.3-1.8l0.2-2.1l-2.1-1.9l0,0l-1-1.4l1.9-0.3l0.6-1.8
		l-3.3-2.8l4.6-5.3l1.9,4.5l0.8-1.4l2.9,0l-0.5-2.9l1.4,0.9l0.3-1.4l2.2,0.5l1.9-1.8l-1.9-1.7l0.1-2.4l-1.4,0l2.2-2.5l-1.3-2.1
		l3.4-0.1l0.9-1.7l2.3,0.6l1.5-2.8l6-1.4l-1.6-4.2l-3.5-1.1l-0.1-2.5l-5.8-2.2L700.8,610.2z"/>
	<path id="DE-ST" fill ="#FFFFFF" class="st0" d="M677,500.1l1.4-0.1l-0.5,1.5l1.8,0.2l0.6,1.8l1.7-0.7l3.6,2.1l-0.3,2.5l5.1,2l5-1.1l0.1,2.3
		l2.4-1.5l1.4,1l0.8,3.2l-2.1,5l1.1,5.1l-2.1,0.2l-0.9,5.5l1.6-0.1l-0.2,2.1l2-1.5l3.1,2.5l-2,3.6l1.2,3.9l-2.2,5.4l1.8,1.4
		l-2.8,3.3l7.6,8.6l1.5-1l2.1,2.7l2.5,0.2l2.1-1.7l3.8,2.8l2.3-0.3l0.3,1.8h3.7l0.5,2l2.5,0l-0.1,1.6l3.4-0.5l1.6,9.2l-4.6,3.9l0,0
		l-2.6-1.3l-1.3,1.7l-3.4-2.6l-2.6,2.1l-2.8-1l-2.9,3l0.6-0.9l-4.9,1.8l-1.5-0.8l-0.6,1.5l-6.7,1l-0.9,4l-2,1.6l1.7,7.4l-1.7,0.5
		l1.8,4.6l-0.1,5.3l3,2.9l0,0l-1.2,2.9l1.4,1l-2.6,4.5l-1.1-2l-5.8,0.5l-4.4-4.8l-4.6,0.7l-3.1-3.8l-6.4,0.5l-0.5-5l-3.6-1.6
		l3.8-4.2l-2.8-4.7l-2.7-1.6l-11.4-0.4l-1.6-6.7l-2.1-2.3l0.3-1.3l1.2,0.6l-0.3-1.5l-7.7-1.3l0,0l-4.4-9.5l0.1-2.1l2.5-2.4l-1.3-2.7
		l1.3-1.1l-3.1-2.6l4.8-2.6l9.3-0.4l-0.8-2.6l3.5-1.8l0.5-2.2l-1.6-1.4l2.5-1.7l-3.5-6.4l3.2-1.9l-4.9-4.9l0.4-1.9l2.2-0.1l-2.5-4.1
		l1.3-3.2l-2,0.8l-3.2-6.1l-1.1,0.1l-1.1-7.4l6-0.6l2.3-3.4l10.7,1.9l6.6-3.6l0.2-3.8l1.6,0.4L677,500.1z"/>
	<path id="DE-SH" fill ="#FFFFFF" class="st0" d="M568.4,416.8l1.3,1.3l-1.1,0.9l-1.5-2.3L568.4,416.8z M659,412.2l5.1,1.6l2.9,6.1l-4.3-1.2
		l-2.4,1.2l-1.2-2.7l-2.2,0.3l0.9,0.9l-1.4-0.8l0.7-4L659,412.2z M568.7,412l-0.5,2.3l-0.6-2.9L568.7,412z M576.1,410.6L576,414
		l-2.9,0.6l-1-2.5L576.1,410.6z M570.9,409.3l0.7,1.2l-2.3-1.1L570.9,409.3z M564.9,405.7l0.5,1.5l-1.3,0.2l-2.4-3.4l2.4-2.8
		l-0.7,1.5L564.9,405.7z M569.9,398.6l2.1,0.6l-0.7,4l-5.9-1.3l1-2.8L569.9,398.6z M566.8,380.8l1,0.3l-2.4,0.1l1.5,1.8l-3,2.8
		l0.6,4.1l2,1.3l6.1-0.6l1.2-1.4l10.9,0.5l10,3.1l0.5,2.4l1.6,0.5l1.7,0.1l2.3-2.5l0.9,3.2l6.2-5.3l-0.3,2.8l6.6,2.1l2.1,2.6
		l1.8-0.6l0-2l1.8,1.1l2.8,5.6l-1.4,0l1.3,1l-0.3,7.1l-2.2,2.9l-4.6,1.7l1.1,1.6l9.1-2.2l2.6,1.8l-2.3,8.6l1.8-1l1.5-5.2l3.4-1.3
		l9.6,4.3l3.6,3.5l3-0.5l4.9-4.1l3.3,0.8l3-1.8l0.5,1.5l-2.4,1.2l1.2,9.3l-7.8,6.7l-2.1-1.3l-2,3.4l1.2,3l3,0.4l1.2,2.1l0,0l-0.4,2
		l2.5,0.9l-1.9,0.6l-1.1-1.6l-3.8,3.1l-0.5,7.1l3.2,2.9l2.5,0.2l1,3L653,469l-3.1-0.2l0.1,3.6l-6.7,3.5l-1.3,5.2l0,0l-10-4l0,0
		l0.6-0.9l-4-4.2l-1.7-0.1l-0.4-3l1.7-0.7l0.8-2.8l-2.7-2.6l1.7-2.7l-0.8-0.9l-3.1,1.1l-0.5,2.5l-2.3-0.2l-0.7,2l-2.5-0.4l-2.4,3.9
		l-2.3-2.7l-1.4,4.4l0,0l-6.3-3.5l-1.6-4.5l-6.7-9.4l-3.6-1.5l-7.1,0.3l0,0l-3.4-3.6l-0.8-4l-2.7-1.3l2.6-1.3l2.7,0.6l0.9-1.3
		l-2-4.4l-2.4,0.7l-1.7-3.1l1.1-6.6l-4.5-0.4l-1.1,1.3l-3.4-2.5l0.9-2.8l1.2,0.9l1.7-1.1l-2.9-0.8l0.4-1.2l8.8-1.1l6.2-4.1l-1.7-0.2
		l-0.7-2.4l-3,3.6l-3.2-0.6l3-7.3l-0.5-1l-2.3,0.7l1.5-1.2l-5.7-6.4l-3.3-9.5l-6.4,2.2l-2.6-2l-2.1,7.8l0.6-9.7l3.4-8.6L566.8,380.8
		z"/>
	<path id="DE-TH" fill ="#FFFFFF" class="st0" d="M645.7,579.5l7.7,1.3l0.3,1.5l-1.2-0.6l-0.3,1.3l2.1,2.3l1.6,6.7l11.4,0.4l2.7,1.6l2.8,4.7
		l-3.8,4.2l3.6,1.6l0.5,5l6.4-0.5l3.1,3.8l4.6-0.7l4.4,4.8l5.8-0.5l1.1,2l2.6-4.5l-1.4-1l1.2-2.9l0,0l1.9-0.7l5.8,2.2l0.1,2.5
		l3.5,1.1l1.6,4.2l-6,1.4l-1.5,2.8l-2.3-0.6l-0.9,1.7l-3.4,0.1l1.3,2.1l-2.2,2.5l1.4,0l-0.1,2.4l1.9,1.7l-1.9,1.8l-2.2-0.5l-0.3,1.4
		l-1.4-0.9l0.5,2.9l-2.9,0l-0.8,1.4l-1.9-4.5l-4.6,5.3l3.3,2.8l-0.6,1.8l-1.9,0.3l1,1.4l0,0l-3.4,1.8l-1.6-1.6l-9,2.4l-1.4-3
		l-1.4,0.6l-0.8-1.3l0.4-3.7l-3-0.5l-1.9,2.5l-1.5-0.2l1.3,6.5l-1.2,5l-3.7-0.9l0.4-2.4l-1.5-2l-4.5,1l-1.7-2.4l-3.6,0l-4.1,2.5
		l0.1,1.4l4.5,2.5l0,1.7l-4-0.4l-0.5,2.5l-3.8-1.4l-0.3-5.6l-1.9-1.7l-1.8,0.5L637,648l-2,0.4l-2.3-5.5l-3.4-0.9l-1-2.4l-2.1,0.6
		l-1.2-1.1l-2.3,2.6l0,0l-0.2-5.2l1.6-0.7l-1-2.7l-3.5,0.2l0.2,2.1L617,635l2.7-9.9l2.6-0.7l1.2-2.6l-1.7-2.2l-1.4,0.8l0.6-1.3
		l-1.3-0.6l3.9-0.1l-1.5-2l0.7-1.7l5.8,0.3l0-1.5l-2.2-1.3l1.2-3.1l-1.9-1.3l1.6-0.8l1.1,2.2l1.3-4l-5.9-2.3l-0.5-2.9l-2.9-0.3
		l-1.5-5l0,0l4.1-3.5l0.8,1.1l3-0.7l1.7-3l1.1,0.9l2.3-1.3l2.5-5.2l2.2-0.3l3,2.1l3-1.4l1.8,1.2l-0.6-3.4L645.7,579.5z"/>
</g>
</svg>
