<?xml version="1.0" encoding="utf-8"?>
<!-- Generator: Adobe Illustrator 22.1.0, SVG Export Plug-In . SVG Version: 6.00 Build 0)  -->
<svg version="1.1" id="fotos" xmlns="http://www.w3.org/2000/svg" xmlns:xlink="http://www.w3.org/1999/xlink" stroke="#000000"  stroke-width="1" x="0px" y="0px"
	  viewBox="-6525 -4408 9200 12000" style="enable-background:new 0 0 1500 1500;" xml:space="preserve">
<style type="text/css">
	.st0{fill:#FFFFFF;stroke:#000000;stroke-width:2;}
	.st1{stroke:#000000;stroke-width:2;}
	.st2{display:none;fill:none;stroke:#000000;stroke-linecap:round;stroke-linejoin:round;}
	.st3{fill:none;stroke:#000000;stroke-linecap:round;stroke-linejoin:round;}
	.st4{fill:#FFFFE0;stroke:#000000;stroke-width:0.26;stroke-linejoin:round;font-family:'MyriadPro-Bold';font-size:12px;}
	.st5{font-family:'MyriadPro';}
	.st6{font-size:12px;}
</style>
~~~~~MARK21~~~~~
<g id = "21">
<path id="21" name="Maharashtra"   fill="url(#solids21)"  d="M768.9,864.1l-0.1,1.8l-0.4,0.8l-1,1l-0.4,0.4l-2.6,1.3l-2.2,1.4l-0.4,0.4l-0.2,0.3l-0.2,0.5
	l-0.1,0.4l-0.3,2.3l-0.4,1.3l-0.1,0.4v0.6l0.2,0.7l0.3,0.7l0.2,0.3l0.3,0.4l0.3,0.2l0.3,0.1l0.4,0.1h0.4l0.5-0.2l0.5-0.1l0.3,0.2
	l0.2,0.2l0.1,0.3l0.2,0.7v0.8v3.6l0.5,3v0.6l-0.2,0.3l-0.2,0.2l-1.5,0.7l-0.2,0.3l-0.2,0.3l-0.3,0.5v0.3v0.3l0.1,0.2l0.3,0.2
	l0.3,0.1l0.3-0.1l0.3-0.1l0.5-0.3l0.6-0.4l0.2-0.1h0.5l0.5,0.1l0.5,0.2l0.2,0.2l0.1,0.2l-0.1,0.4v1.6l0.1,0.5l0.2,0.2l0.2,0.4
	l-0.2,0.4l-0.2,0.4l-0.2,0.6l-0.1,0.3l-0.1,2.3v0.6l0.1,0.5l0.2,0.4l0.2,0.7v0.3l-0.2,0.3l-0.2,0.1l-0.7,0.2l-0.3,0.2l-0.4,0.3
	l-0.9,0.9l-0.5,0.3l-0.4,0.2l-0.4,0.1l-1.9,0.2l-0.5,0.1l-0.3,0.2l-0.2,0.5l-0.1,0.4l0.1,1l-0.4,1.1v0.4l0.2,0.2l0.2,0.1l2.8,0.2
	l0.5,0.1l0.3,0.1l0.8,2.3l0.1,0.9l-0.1,0.4l-0.1,0.4l-0.2,1l-0.2,1.9l-0.2,0.6l-0.1,0.3l-0.4,0.1h-0.3l-0.4-0.2l-1.1-0.5l-0.2-0.1
	l-0.3,0.1l-0.2,0.2l-0.5,0.8l-0.2,0.3v0.3l0.2,0.4l0.5,0.2l0.9,0.1l0.3,0.1l0.1,0.2l0.1,0.4l-0.1,0.3l-0.2,0.3l-0.2,0.3l-0.3,0.2
	l-0.6,0.3l-0.6,0.2l-0.3,0.2l-0.3,0.2l-0.1,0.3l0.1,0.3l0.3,0.2l0.4,0.2l0.9,0.2h0.4h0.5l0.2-0.3l-0.1-0.5l0.1-0.4l0.2-0.2l0.2-0.2
	l0.3-0.1l0.3-0.1h0.3l0.3,0.2l0.3,0.3l0.1,0.4l0.3,1.3l0.3,0.6l0.3,0.4l0.4,0.3l0.5,0.2l1.3,0.3l0.4,0.2l0.3,0.2l0.3,0.2l0.3,0.5
	l0.3,2l0.2,0.5l0.3,0.4l0.4,0.1l1.7,0.5l0.5,0.2l1,0.8l0.3,0.1l0.6,0.1l0.2,0.1l0.6,0.6l0.8,0.7l0.5,0.9l0.1,0.5v0.6l-0.3,0.5
	l-0.2,0.4l-0.4,0.3l-0.5,0.2l-1,0.1l-0.4,0.1l-0.3,0.2l-0.1,0.3l0.1,0.3l0.6,0.9l0.3,0.6v0.4l-0.3,0.3l-1.3,0.5l-0.8,0.5l-0.4,0.3
	l-0.4,0.4l-0.5,0.5l-0.2,0.1l-0.3-0.6l-0.7-1.2l-0.3-0.3L768,938l-0.7,0.2h-0.5l-0.6-0.9l-0.5-1.4l-0.4-0.4l-0.7,0.2l-0.4,0.3
	l-0.5,0.8l-0.4,0.4l-0.3,0.2l-0.6,0.2l-0.3,0.2l-0.3,0.5l-0.5,1.1l-0.3,0.4l-0.4,0.3l-0.8,0.3l-0.3,0.2l-0.3,0.6l-0.8,3l-0.2,1.2
	l-0.7,1.3l-1.9,2.3l-0.6,1.4l-0.1,1.2l0.5,1l2,2.5l0.2,0.7l-0.4,0.6l-2.1,1.3l-0.3,0.4l-0.2,0.4v0.4l0.3,1.1l-0.6,0.5l-0.4,0.1
	l-2.4,0.3l-2.7-0.3l-0.3-0.1l-0.5-1.1l-0.3-0.2l-0.7-0.6l-1.3-1.2l-1.1-0.4l-1.7-1h-0.1l1.2-1.1l0.3-0.4l0.2-0.7V952l-0.4-1.2
	l-0.4-2.5l-0.3-0.5l-1.8,0.4l-0.5-0.3l-0.1-1.1l0.3-1.1l0.7-1l0.9-0.7l0.9-0.4l-0.3-0.8l-0.2-0.8v-0.7v-0.6l-0.1-0.4l0.1-0.4
	l0.1-0.1l0.4-0.4l0.2-0.2l0.1-0.3l0.1-0.5v-0.8V937l0.1-0.5l0.2-1.4v-0.4l-0.1-0.4l-0.2-0.7l-0.2-0.5l-0.3-0.2l-0.4-0.7l-0.1-0.1
	l-0.3-0.2l-0.4-0.1l-0.5-0.2l-0.6-0.2l-0.3-0.1l-0.4-0.5l-0.4-0.9l-0.3-0.3l-0.8-0.7l-0.2-0.3l-0.3-0.4l-2.1-0.4l-0.5,0.2l-0.4,0.3
	l-2.5,0.8l-0.5,0.2l-0.4,0.4v0.3v0.4l-0.3,0.5l-0.3,0.3l-0.5,0.1l-0.5-0.2l-0.2-0.3l-0.1-0.2l-0.2-0.1l-0.3-0.1l-0.9-0.1l-0.4-0.1
	l-2.7,0.1l-0.6-0.1l-0.5-0.2l-0.2-0.2l-0.4-0.6l-0.3-0.3l-0.5-0.2l-2.9-0.4l-0.4-0.1l-0.4-0.4l-0.4-0.8l-0.2-0.2l-0.3-0.2l-0.7-0.3
	h-0.4h-0.4l-2.1,0.3l-1.4,0.7l-0.3,0.3l-0.4,0.8l-0.3,0.2l-0.4,0.2l-0.9,0.1l-0.4,0.1l-0.3-0.1l-0.1-0.2l-0.4-0.4l-0.7-0.1l-0.3-0.2
	l-0.2-0.2l-0.1-0.2l-0.1-0.4l-0.1-0.1l-0.2-0.2l-0.9-0.3l-0.3-0.1l-0.2-0.4l-0.9-2.7L706,923l-0.4-0.3l-0.5-0.4l-0.2-0.3l-0.9-0.4
	l-1.3-0.1l-0.8,0.2l-0.2-0.1l-1.2-0.6l-2.1-0.8l-0.5-0.1l-0.6,0.1h-0.5h-0.3l-0.6-0.4h-0.3l-0.7,0.2l-0.4,0.1l-0.3,0.5l-0.3,0.1
	h-0.2l-2.2-0.8l-0.4-0.4l-0.3-0.7l-0.3-0.5L690,918l-1.4-0.6l-0.2,1l0.2,0.9l1.2,2.8l0.2,0.4l0.5,0.1l0.2,0.1l0.3,0.3l0.1,0.3v0.3
	v0.4l-0.2,0.3l-0.1,0.3l-0.3,0.3l-1.1,0.6l-0.4,0.4l-0.2,0.5l-0.2,0.8l-0.6,1.2l-0.2,0.5l-0.1,0.8l0.1,1.8v0.4l-0.1,0.3l-0.2,0.3
	l-0.2,0.2l-0.3,0.1l-1.4,0.2l-0.4,0.2l-0.3,0.2l-0.3,0.4l-0.2,0.4l-0.5,1.1l-0.4,0.5l-0.2,0.3l-0.1,0.4v0.3l0.4,1.7v0.4l-0.1,0.7
	l-0.2,0.3l-0.2,0.2l-0.4,0.1h-0.9l-0.8-0.3h-0.4l-0.7,0.2h-0.4h-0.4l-0.5-0.2l-0.4-0.3l-0.3-0.4l-0.8-1.2l-0.3-0.1l-0.7,0.1h-0.3
	l-0.6-0.2l-0.6-0.1l-0.5,0.1l-0.4,0.2l-0.3,0.3l-0.5,0.4l-0.1,0.4l0.1,0.1l0.6,0.3l0.1,0.1v0.3l-0.7,0.8l-0.3,0.4l-0.2,0.3l-0.3,1.2
	l-0.4,0.9l-0.1,0.4v0.4l0.2,0.5v0.3l-0.1,0.2l-0.6,0.3l-0.2,0.2l-0.3,0.3l-0.5,0.6l-0.3,0.4l-0.4,0.2l-0.4,0.3l-0.1,0.2v0.2l0.2,0.7
	l0.2,0.7v0.5l0.2,0.3h0.2l0.5-0.1l0.3,0.2l0.2,0.3v0.4l0.1,0.3l0.4,0.2h0.5l0.2,0.1v0.3v0.5l0.1,0.6l0.4,0.4l1.4,1.1l0.5,0.5
	l0.1,0.6l-0.3,0.1l-0.6,0.3h-0.4l-0.4,0.1l-0.4,0.3l-0.4,0.2l-0.3,0.4l-0.4,0.6l-1,2.4l-0.3,0.4h-0.4l-0.8-0.1l-0.3,0.1l-0.4,0.1
	l-0.5,0.4l-0.2,0.4l-0.1,0.3l0.2,0.7l0.1,0.5v0.5l-0.3,0.9l-0.2,0.5l-0.3,0.3l-0.3,0.2l-0.6,0.2l-1.4,0.1l-0.6,0.2l-0.4,0.3
	l-0.2,0.3l-0.2,0.4l-0.1,0.2l-0.6,0.6l-0.1,0.2l0.1,0.5l-0.1,0.3l-0.1,0.2L662,969l-0.1,0.8l-0.1,0.6l-0.2,0.3l-0.3,0.3l-0.7,0.5
	l-0.2,0.2v0.3l1.5,1.1l0.4,0.5v0.3l-0.3,0.8l-1.4-0.3l-0.5,0.2l-0.6,0.6l-0.5,0.4l-0.5,0.1l-0.3-0.1l-0.2-0.2l-0.1-0.3l-0.1-0.7
	l-0.3-0.2l-0.4-0.3l-1.2-0.4l-0.5-0.2l-0.4-0.2v-0.4l-0.1-0.3v-1.7v-0.3l-0.2-0.4l-0.4-0.4l-0.4-0.3l-0.4-0.1l-0.4-0.1l-0.3,0.1
	l-0.6,0.2l-1,1.6l-0.2,0.4l-0.1,0.5l0.2,1v0.8l-0.1,0.4l-0.2,0.3l-0.3,0.2l-0.3,0.1l-1,0.3l-2,1.6l-0.4,0.5l-0.3,0.3l-0.1,0.5v0.3
	l-0.2,0.4l-0.3,0.2l-0.3,0.1l-0.7-0.1h-0.3l-0.4,0.1l-0.5,0.3l-0.3,0.1h-0.3l-0.9-0.1l-0.7,0.1l-1.2,0.4l-0.5,0.4l-0.3,0.4l0.2,1.4
	v0.5v0.5l-0.5,1.8v0.4v0.5l0.1,1l-0.1,0.7l-0.2,0.8l-0.5,1.1l-0.4,0.5l-0.4,0.2h-0.5l-1.8-0.5l-0.6-0.1l-0.4,0.1v0.7l0.4,1l0.1,0.5
	v0.4l-0.2,0.2l-0.2,0.2l-0.4,0.2l-0.6,0.3l-0.4,0.3l-0.3,0.5l-0.3,0.8l-0.4,1.8l-0.5-0.2l-0.7-0.6l-0.5-0.3l-0.3-0.3l-0.5-0.7
	l-0.3-0.2H629l-0.5,0.1H628l-0.7-0.3l-0.4-0.1l-0.3,0.2l-0.2,0.2l-0.2,0.6l-0.4,0.4l-0.5,0.1l-0.2,0.1l-0.1,0.3v0.5v0.2l-0.2,0.3
	l-0.2,0.2l-0.8,0.3l-0.3,0.2l-0.2,0.2l-0.2,0.7l-0.7,0.6l-2.3,0.7l-0.4,0.2v0.3l0.2,0.3l0.5,0.6l0.1,0.3l0.1,0.3l-0.1,0.3l-0.1,0.5
	v0.1l0.2,0.4l0.1,0.3l-0.2,0.2l-0.2,0.3l-0.4,0.5v0.5l0.1,0.4l0.4,0.3l0.1,0.3l0.2,0.8l0.2,0.4l0.8,0.5l0.3,0.3v0.4l-0.1,0.3
	l-0.8,0.5l-0.3,0.2h-0.4l-1-0.2H619h-0.9l-0.3-0.1l-0.4-0.3l-0.5-0.5l-0.3-0.2h-0.4h-0.4l-0.5,0.1l-0.6,0.4l-0.3,0.1H614l-0.6-0.4
	h-0.5l-0.6,0.2l-1.2,0.7l-0.7,0.3l-0.4,0.1h-0.2l-0.4-0.3l-0.5,0.2l-1.1,0.2l-0.4,0.2l-0.5,0.4l-0.3-0.2l-0.3-0.4l-0.3-0.2l-0.4-0.1
	l-0.2-0.5l-0.1-0.5l-0.1-0.6l-0.3-0.6l-0.3-0.1l-0.8,0.5l-0.5-0.6l-0.5,0.4l-0.6,0.8l-0.5,0.4l-0.5-0.1l-0.2-0.3l-0.2-0.4l-0.2-0.3
	l-0.4-0.4l-0.4-0.1l-0.8,0.1l-0.9-0.4l-0.4-0.7l-0.3-0.7l-0.5-0.4l-0.4-0.1l-0.4,0.1l-0.3,0.2l-0.3,0.6l-0.5,1l-0.3,0.4l-0.2,0.3
	l-0.5,0.3l-0.3,0.3l0.1,0.9l0.6,1.1l0.1,0.6l0.2,0.7l0.1,0.3l0.2,0.2l0.5,0.2l0.3,0.3l0.1,0.4l0.2,0.6l0.1,0.4l-0.1,0.4l-0.1,0.3
	l-0.3,0.7l-0.1,0.5v0.7l0.1,0.4l0.2,0.4l0.3,0.2l0.4,0.4l0.3,0.6l0.1,0.4v0.4l-0.2,0.2l-0.4,0.3l-0.2,0.2v0.4l0.5,0.7l0.1,0.7v0.4
	l-0.1,0.3l-0.1,0.3l-0.3,0.2l-0.3,0.1l-0.5-0.2l-0.5-0.3l-0.9-0.8l-0.3-0.2h-0.2l-0.1,0.1l-0.4,0.6l-0.2,0.2l-0.3,0.3l-0.3,0.2
	l-1.3,0.5h-0.3l-0.3-0.1l-0.4-0.4l-0.3-0.2l-0.3-0.1h-1.8l-0.4,0.1l-0.7,0.5l-0.5,0.2l-0.6,0.1h-1.8l-0.3,0.2l-0.2,0.2v0.4l0.1,0.7
	v0.6l-1.6,0.9l-1,0.3h-0.4l-0.4-0.1l-0.3-0.2l-0.6-0.2l-0.3-0.3l-0.4-0.5l-0.1-0.2l-0.6-0.2l-0.3-0.3l-0.2-0.3l-0.1-0.4l-0.2-0.3
	l-0.3-0.1l-1.5,0.3l-1-0.3h-0.2l-0.2,0.1l-0.3,1.1l-0.1,0.2l-0.5,0.4l-0.4,0.5l-0.3,0.2l-0.4,0.2l-1.6,0.5l-0.3,0.1v0.3l0.2,0.5
	l0.3,0.7l0.2,1.6v0.3l-0.3,0.3h-0.2h-0.4l-0.5-0.2l-0.6-0.1h-0.4l-0.2,0.1l-0.3,0.2l-0.8,0.5l-0.4,0.1l-0.3,0.1l-0.3,0.4l-0.3,0.3
	l-0.2,0.1h-0.6l-0.3,0.1l-0.1,0.2l-0.3,1.1l-0.3,0.3l-0.2,0.2l-0.5,0.4l0.9,0.9l-0.1,0.4l-0.1,0.3l-0.4,0.2h-0.6l-0.5,0.2l-0.3,0.2
	l-1.1,1l-0.3,0.2l-0.5,0.2l-0.3-0.1l-0.1-0.2v-0.4l-0.2-0.4l-0.3-0.4l-0.1-0.2l-0.1-0.9l-0.5-0.1l-1.1-0.1l-0.3-0.1l-0.5-0.4
	l-0.5-0.1h-0.2l-0.2,0.1l-0.1,0.1l-0.3,1.2l-0.2,0.5l-0.4,0.3l-0.4,0.3l-0.4,0.2l-0.6,0.7l-0.2,0.3h-0.2l-0.2-0.1l-0.5-0.5l-0.2-0.1
	l-0.2-0.1l-0.3,0.2l-0.2,0.8l-0.3,0.3l-0.2,0.1l-0.3-0.1l-0.2-0.1l-0.5-0.5h-0.3l-0.1,0.2l-0.2,0.7l-0.5,1v0.1l0.2,0.2h0.2h0.1
	l0.4-0.3l0.3-0.1l0.3-0.1l0.1,0.3l0.2,0.8l0.3,0.3h0.3h0.6l0.2,0.2l0.1,0.8l0.2,0.4l0.4,0.2l0.5,0.2l0.2,0.2l-0.1,0.2l-0.3,0.3
	l-0.9,0.1l-0.3,0.1l-0.2,0.2l-0.1,0.3l0.1,0.6l0.2,0.6l0.3,0.3v0.4v0.6l0.1,0.5l0.3,0.1l0.3-0.1l0.3-0.3l0.3-0.1l0.2,0.1l3,1.4
	l0.2,0.1l0.3,0.3l0.1,0.2l0.1,0.3l0.1,0.4v0.5l-0.2,1.5l0.1,1.2l-0.1,0.6l-0.2,0.3l-0.2,0.1l-1.5,0.1l-0.3,0.1l-0.3,0.2l-0.3,0.4
	l-0.2,0.2l0.1,0.3l0.4,0.2l0.8,0.2l0.3,0.2l0.1,0.2v0.3v0.4l-0.1,0.9l-0.2,0.6l-0.3,0.5l-0.5,0.7l-0.6,1.3l-1,1.2l-0.1,0.2l0.1,0.2
	l0.4,0.4l0.2,0.2l0.1,0.4l-0.1,0.3l-0.7,1.3l-0.7,1l-0.3,0.3l-0.6,0.5l-0.3,0.1l-0.4,0.2l-0.9,0.1h-1.1h-0.2l-0.2-0.2l0.1-0.6
	l-0.1-0.5l-0.1-0.2l-0.2-0.1l-0.3,0.1l-0.3,0.1l-1.6,1.3l-0.5,0.6l-0.3,0.8l-0.1,0.3l-0.2,0.2l-0.4,0.1l-0.1,0.2l0.2,0.5l0.1,0.5
	h-1.4l-2,0.8l-0.4,0.1H540l-0.5-0.2l-0.7-0.4l-0.4-0.5l-0.2-0.5l-0.4-1.8l-0.2-0.4l-0.3-0.3l-0.3-0.2l-0.5-0.1l-0.6-0.2h-0.3
	l-0.2-0.2l-0.2-0.4l-0.1-0.6l-0.1-0.1l-0.2-0.1l-0.4,0.4l-0.5,0.8l-0.2,0.3l-0.3,0.1l-0.5,0.1h-1.7l-0.7,0.4l-1-0.1l-0.5-0.1
	l-0.3-0.2l-0.1-0.5l0.1-1.5l-0.3-0.9l-1.2-2.3l-0.5-0.7l-2-1.7l-0.7-0.6l-0.6-1l-0.2-0.7l1-0.1v-0.3h-0.6l-0.5-0.1l-0.4-0.3
	l-0.1-0.4l-0.6-0.4l-0.1-0.3l0.3-0.4l0.1-0.3v-2l0.1-0.6l0.2-0.3l0.4-0.3l0.2-0.4l-0.7,0.2l-0.5,0.6l-0.1,0.8v1.1l-0.3-1.8v-1.4
	l-0.2-0.5l-0.1-0.1l-0.2,0.2l-0.2-0.1l-0.2-0.3l-0.1-0.2l-0.1-0.7l-1-2.9v-0.2v-0.7l-0.1-0.1l-0.6-0.3l0.1-0.4l0.1-0.3l0.3-0.3
	l0.4-0.2l-0.6-0.2l-0.5-0.4l-0.4-0.5l-0.2-1.3l-0.5-1.4l-0.2-0.3l-0.3-0.2l-0.1-0.4l0.1-0.8l0.1-0.2l0.2,0.2l0.3,0.4l0.7,0.8
	l0.4,0.1l0.5-0.1l-0.5-0.3l-0.1-0.3l0.4-0.5l0.3-0.2h-0.6l-0.6-0.2l-0.5-0.4l-0.2-0.5v-0.4l0.2-0.2h0.2l1-0.5v0.6l0.2,0.3l0.2-0.1
	l0.1-0.4l-0.2-0.7l-0.4-0.2l-0.5,0.1l-0.6,0.4l-0.4-0.9v-0.2l0.1-0.2l0.3-0.5v-0.3v-0.5l-0.2-0.2l-0.6-0.5l-0.3-1l0.2-1l0.3-0.9
	v-0.7l-0.3,0.3l-0.3-0.5l-0.4-1l-0.2-1l0.3-0.4v-0.2l-0.3-1.3v-0.6l0.2-0.5l0.5-0.9l-1-0.4l-0.2-0.4l0.3-0.4l-0.4-0.5v-0.4h0.2
	l0.4,0.4l0.3-0.8l-0.1-0.8l-0.3-0.9l-0.4-0.7l0.2-0.5v-0.5l-0.2-0.5l-0.7-1.3v-0.7l-0.6-1.2l-0.1-0.5l-0.1-0.3l-0.6-0.7l-0.2-0.4
	l0.5,0.3l0.5,0.4l0.5,0.3l0.6-0.2l-0.5-0.6l-0.9-1.9l-0.4-0.5l-0.9-0.8l-0.1-0.4l-0.1-0.4l0.4-0.5l0.3-0.5l-0.4-0.6l0.3-0.7l-0.6-1
	l-1.1-1.2l-0.2-0.7l0.1-0.2l0.2-0.1h0.5l0.5-0.1l1.2-0.6l-0.5-0.2l-1.1-0.2l-0.5-0.1l-0.3-0.4l-0.3-0.6v-0.5l0.2-0.5l-0.3-0.3
	l-0.2-0.4l-0.2-0.5l0.1-0.4l0.3-0.4l0.2-0.4v-0.5l-0.3-0.4l-0.2-0.4l-0.1-1L510,993l-0.5-0.6l-0.2-0.4l-0.2-1.1l-0.3-0.8l-1.6-2.6
	v-0.8l0.6-0.7h-0.6l-0.3-0.3l-0.1-0.4l0.1-0.5l0.3-0.4l0.5-0.1l0.3-0.3l0.1-0.7l-0.4,0.1l-0.3,0.3l-0.3,0.3l-0.2,0.3l-0.3-0.4
	l-0.5-0.6l-0.2-0.5l0.2-0.2l0.1-0.3l-0.1-0.3l-0.3-0.3v-0.2l-0.3-2.8l-0.5-0.8l-0.9-0.2l0.3-0.8l0.1-0.2l-0.1-0.2l-0.1-0.4l0.1-0.3
	l0.1-0.4l0.5,0.2l0.1,0.3l0.1,0.3l0.2,0.4l0.2,0.3l0.2,0.1l0.2-0.1h0.4l0.6,0.1l0.7,0.2l0.6,0.3l0.5,0.7l-0.6,0.3v0.4l0.3,0.2
	l0.5-0.7l0.1-0.7l-0.3-1.2l0.2-0.6l-0.5-0.3h-0.4l-1.1,0.1l-0.6-0.2l-0.6-0.4l-0.3-0.5l0.2-0.7h-0.5l-0.3-0.1l-0.6-0.8l-0.2-0.1
	h-0.3l-0.2-0.2l-0.1-0.2l0.1-0.6l-0.1-0.5l-0.4-0.7l-0.2-0.4l-0.1-0.4l0.1-1.5l0.1-0.8l0.4-0.7l0.6-0.4l0.8,0.1l0.5,0.5l0.9,1.7
	l0.7,0.7l0.2-0.7l-0.4-0.3l-0.5-0.4l-0.3-0.7l-0.1-0.5l-0.2-0.6l-0.4-0.5l-0.3-0.2l-1,0.2l-0.4-0.2l-0.1-0.6l-0.8-2.1l-0.6-0.5
	l-0.4-1.2l-0.1-1.4V958l0.2-0.6l0.3-0.5l0.5-0.3l0.2,0.1l0.5,0.2h0.4l0.5-0.9l0.4,0.3l1.2,1.4l-0.3,0.6l0.1,0.5l0.4,0.4l0.5,0.2
	l-0.2-0.8l0.1-0.9l0.4-0.8l0.4-0.5l-0.9-0.4l-0.3-0.3l-0.2-0.5l0.3-0.9l-0.2-0.1l-0.3,0.1l-0.2,0.3l-0.6,0.2l-1-0.4l-0.6-0.9l0.5-1
	l0.5,0.4l0.2-0.3l0.1-1l0.4-0.2l0.5,0.2h0.5l0.4-0.6H505v-0.3h0.5l0.8-0.4l1.7-0.5l0.2,0.1l0.3-0.8h-0.6l-0.9,0.2l-0.8,0.4l-0.2-0.4
	l0.2-0.9l-0.3-0.4l0.4-0.7l-0.2-0.3l-0.4-0.1l-0.2-0.5l0.2-2.6h-0.2l-0.6,1.3l-0.5,0.4l-0.1,1.3l-0.2,0.5l0.5,0.4l-0.3,0.8l-1.4,1.5
	v-0.4l-0.2-0.8l-0.6,0.5l-0.6,0.9l-0.5,1l-0.3,1.4l-0.2,0.6l-0.3,0.2l-0.4-0.5v-0.3l0.1-0.4l0.1-0.4l-0.2-0.6h-0.2l-0.3,0.4
	l-0.4,0.4l-0.2-0.4l0.2-0.5l0.7-0.9l0.2-0.5l0.1-0.4l-0.1-1.1l0.5,0.3l0.2-0.3l0.1-0.4l-0.1-0.4l-0.4-0.1l0.4-1.1v-0.4v-0.4
	l-0.3-0.7l-0.1-0.3l0.1-0.3l0.3-0.3v-0.2l-0.1-0.3h-0.3l-0.2,0.2l-0.2,0.5l-0.2,0.2l-0.3,0.1l-0.1-0.4l0.1-0.3l0.6-1.6l0.6-1
	l0.4-0.4l-0.5-0.1l-0.5,0.6l-0.4,0.7l-0.5,0.5l-0.1-2.2l0.1-1.2l0.4-0.6l1.8-0.2l0.9,0.1l0.7,0.8l0.5,0.2l1,0.1l0.6-0.1l0.4-0.2
	l0.4,0.1l0.6,0.5l0.7,2l0.6,0.7l0.8-0.5l-0.7-0.3l-0.1-0.6l0.1-0.6l-0.4-0.2l-0.2-0.3l-0.4-0.5l-0.4-0.5l-0.6-0.2l-1.9,0.1l-0.6-0.1
	l-0.5-0.4l-1-0.8l-0.6-0.3l-0.6,0.6h-0.6l-0.5-0.5l-0.8-1.3l-0.1-0.3l-0.4-2l-0.1-0.8l0.3-0.5l0.5-0.4l3.8-1.5l-0.8-0.3l-0.7,0.2
	l-0.7,0.3h-0.7l-0.3-0.1l-0.2-0.2l-0.1-0.4l-0.1-0.4l-0.2-0.3l-0.3-0.3l-0.6-0.2h-0.3l0.2,0.7v0.3l-0.2,0.2l0.5,0.4l0.2,0.3v0.3
	l-0.2,0.2l-0.2-0.1l-0.7-0.7l-0.4-1.9l0.3-0.7l-0.3-1.5l-0.8-2.8l0.2,0.2l0.2,0.2l0.2,0.3l0.1,0.3l0.6-0.3v-0.3l-0.2-0.5l-0.2-0.6
	l0.1-0.2l0.5-0.1l0.1-0.3v-0.7l-0.2-0.5l-1.3,1.7h-0.4l-0.1-0.6l0.1-1.3l-0.2-0.5l-0.8-1v-0.4l0.3-0.5l0.2-0.6l0.1-1.2l-0.1-0.9
	v-0.5l0.4-0.1l0.3-0.3l0.3-0.5l0.4-0.7l0.1-0.5v-2.2l0.8-0.1l0.7-0.4l0.2-0.2l0.5-0.3l0.4-0.1l0.7,0.4l0.2-0.1l0.2-0.1l0.5-0.3
	l0.9,0.1h0.5l0.9-0.2l1.7-0.7l0.8,1.5l0.3,0.9l0.3,0.5l0.3,0.3h0.3l0.3-0.2l0.5-0.4l0.3-0.1l0.3,0.1l0.4,0.5h0.3l0.6-0.4l0.3-0.1
	h0.3l0.2,0.1l0.5,0.5l0.4,0.4h0.4l0.2-0.2l0.3-0.5l0.1-0.5l0.1-0.6v-1.3l0.9,0.1l0.8-0.3l0.5-0.2l0.2-0.2l0.2-0.3l0.1-0.5l-0.1-0.5
	l0.1-0.3l0.3-0.4l0.2-0.2l0.4-0.1l2.2,0.3l0.6,0.2h0.3h0.5l0.2-0.2v-0.3l-0.2-0.6v-0.3l0.1-0.4l0.3-0.6l0.1-0.4v-0.5l-0.2-1.8v-0.5
	l-0.1-0.6l-0.3-0.2l-0.3-0.1l-0.2-0.4l0.1-0.5l1-1.3l1.7-2.8l0.4-0.9l0.1-0.7l-0.2-1.3l-0.2-0.3l-0.1-0.1l-0.5-0.1l-0.4-0.2
	l-0.1-0.3l-0.2-0.8l-0.1-0.4h-0.3l-0.5-0.1h-0.3l-0.2-0.2l-0.1-0.4l0.3-0.2l1.1-0.4l0.5-0.5l0.3-1l0.4-0.3h0.3l0.2,0.1l0.2,0.2
	l0.2,0.3l0.3,0.9l0.2,0.2l0.7,0.3l1.3,1l1,0.5l0.6,0.3l0.5,0.4l0.8,1.2l0.2,0.3l0.3,0.1l0.3,0.1l1.8-0.2l0.4-0.1l0.9-0.5l0.9-0.5
	l0.5-0.2l0.4-0.3l0.3-0.3l0.2-0.4l0.2-0.5v-0.4l-0.1-0.7l0.1-0.2l1-1.1l1.7-1.3l0.3-0.3l0.2-0.5l0.1-0.4l0.1-0.6V884l-0.3-2.8
	l-0.3-0.9l-0.3-0.7l-0.3-1.3l-0.3-0.4l-0.3-0.3l-0.4-0.3l-0.5-0.5l-0.6-0.8l-0.5-0.8l-0.3-0.4l-0.6-0.1l-1.1-0.4l-0.4-0.6l-0.1-0.3
	l-0.4-0.6l-0.3-0.2l-0.4-0.1l-0.3-0.1h-0.3l-0.4,0.2h-0.5h-0.6l-1.2-0.8l-1.3-1.2l-0.2-0.4v-0.4l0.2-0.1h0.2l0.4,0.1l1.9,1.1h0.2
	l0.5-0.2l0.3-0.1l0.3,0.1l0.8,0.2h0.1l0.6-0.6l0.6-0.4l0.4-0.1l0.4-0.1l0.4-0.2l0.3-0.5l0.6-1.8l0.2-0.5l0.3-0.2l0.3,0.1l0.5,0.5
	l0.3,0.1l0.4-0.1l2-0.7l0.3-0.1l0.3-0.7l0.6-2.3l0.5-0.8l0.5-0.5l0.6-0.3l0.5-0.4l0.8-0.9l0.4-0.4l0.4-0.1l0.3,0.1l0.8,0.3l0.4,0.1
	h0.4l4.5-1.3l0.8-0.4l0.5-0.3l0.4-0.3l0.2-0.2l0.1-0.3v-0.3l-0.1-0.6l-0.3-0.7l-0.3-0.1l-0.5,0.2l-0.6,0.3l-0.3,0.2l-0.3,0.1
	l-1.3,0.2H547l-0.5-0.5l-0.2-0.2l-0.6-0.2l-0.5,0.1l-0.2,0.3l-0.2,0.2l-0.3,0.1l-2.5-0.3h-0.6l-0.8,0.2l-1.4,0.4l-1.1,0.5l-2.3,0.3
	l-1,0.5h-0.2l-0.2-0.1l-0.1-0.2l-0.4-0.9l-0.2-0.4l-1-1.2l-0.3-0.4l-0.1-0.6v-0.3l0.3-0.1l1.1-0.1l0.6-0.3l0.6-0.6l0.3-1.2v-0.5
	l-0.4-0.4l-0.4-0.3l-0.2-0.3l-0.2-0.6l0.1-0.5v-0.5l-0.3-1v-0.4v-0.3l0.4-0.9l0.5-0.2h0.3l1.3-0.4l1-0.6l0.6,0.1l0.9-0.3l0.7-0.5
	l0.4-0.4l2.9-1.5l2.3-0.4l0.8,0.1l1.1,0.7l0.7,0.2l0.8-0.1l0.7-0.1l0.7-0.2l0.6-0.4l0.1-0.1v-0.6l0.6-0.2l0.5-0.2l0.7-0.2l0.4-0.2
	l1.3-1.3h0.6l0.7,0.6l1.9,2.2l0.3,1.1l-0.1,0.4l-0.1,3.1v0.6l0.1,0.4l0.4,0.8l0.2,0.3v1l0.1,0.4l0.3,0.3l0.5,0.4l0.8,0.6l1.1,0.8
	l0.6,0.4l1.8,0.5l0.4,0.3l0.4,0.4l0.4,0.3l0.4,0.2l0.8,0.1h1.1l3.1-0.3h0.4l1,0.2l0.3,0.1l0.3,0.2l0.6,0.5l0.4,0.3l0.5,0.1l1.7,0.1
	l0.2,0.1l0.9,0.5l0.3,0.2l0.7,0.7l1.3,1.9l0.4,0.9l0.2,0.4l0.2,0.4l0.4,0.3l0.4,0.3l1.9,0.7l3.5,0.8l1.3-0.2l0.4,0.1l0.7,0.3h3.4
	l1.4,0.1h0.5l1.2-0.3h0.7l0.6-0.1l0.5-0.1l1.3,0.2l1.5,0.1l3.7-0.2l2.2-0.6l1,0.3h1h0.5l1.2,0.5l1.8,0.4l0.3,0.1l0.4-0.1l0.4-0.1
	l0.4,0.1l0.4,0.3l0.4,1l0.8,1.9l0.1,1.6l0.3,1.6l-0.1,0.4l-0.3,0.2H613l-0.2,0.1l-0.2,0.1v0.2l0.2,0.4l1.2,1.7l0.7,0.5l0.7,0.3
	l3.4,0.4l1.1-0.3l2.1-0.1l1.1-0.4l0.9-0.4l0.4-0.5l0.7-1.1l0.4-0.6l0.6-0.5l0.8-0.4l0.7-0.1l2.4-0.3l0.4-0.2l0.4-0.4l0.3-0.5
	l0.3-0.7v-1.5l-0.5-1l-0.1-0.4l-0.1-0.4l0.1-0.3l0.3-0.3l0.9-0.6l1.3-0.8l0.4-0.2l0.3-0.4l0.6-1.5l0.3-0.3l0.4-0.3l0.3-0.4l0.2-0.4
	l0.1-0.3v-0.3v-0.8l0.1-0.7l0.2-1l0.7-0.9l1-0.5l1.9,0.1l0.6-0.2l3.8-2.8l1.4-0.7l1.6-0.4l1.7-0.2l0.4,0.1l0.4,0.3l0.3,0.4l0.2,0.1
	l0.2,0.1h0.3l0.3-0.1l0.3-0.2l0.2-0.3l0.3-0.5l0.2-0.1l1-0.2l0.3-0.3l0.3-0.5l0.4-0.3l0.6-0.2l4.3,0.2l0.5,0.1l0.5,0.2l0.2,0.2
	l0.3,0.9l0.2,0.1l0.8,0.3l0.3,0.2l0.2,0.3l0.2,0.4l0.3,2.6v0.5v0.5v0.5l0.1,0.4l0.3,0.4l0.1,0.2l-0.1,0.3l-0.2,0.2l-0.4,0.1
	l-3.4-0.3l-0.4,0.1l-0.3,0.2l-0.1,0.3l-0.1,0.4v0.4l0.1,0.5l0.7,1.3l1,1.4l0.1,0.4l0.1,0.7l0.2,0.1l0.2-0.2l0.3-0.5l0.2-0.2l0.2-0.1
	l0.4,0.1l0.2,0.1l0.3,0.3l0.4,0.5l0.3,0.2l0.3,0.1l0.5-0.1l0.3-0.1l0.6-0.3l0.3-0.1h0.4l0.4,0.1l0.9,0.1l0.3,0.1l0.4,0.4l0.2,0.1
	l0.3-0.1l1.1-0.7l0.6-0.3l0.9-0.6h0.2h0.4l1.6,0.8l0.7,0.2h0.6l0.7-0.1l4.1-1.4l1.9-0.9l1.3-0.8l0.7-0.5l0.8-0.9l0.4-0.6l0.4-0.5
	l0.6-0.3l1.9-0.4l1.6-0.6l0.7-1l0.3-0.2l0.2-0.1l0.7-0.1l0.7,0.1h0.2l0.4,0.2l0.3,0.4v1l0.3,0.6l0.1,0.5l0.1,0.8v0.7l0.3,0.1
	l0.6-0.1l0.7-0.5l0.4-0.2h0.3h0.6l0.4,0.2l0.3,0.2l0.7,0.6l0.2,0.2l2.3,0.6l2.3,0.1h0.7l0.8-0.3l2.1-0.2l1.3-0.4l0.9-0.2l1.3-0.1
	l0.5-0.2l0.4-0.4l0.1-0.4V857l-0.3-0.7V856l0.3-0.4l0.6-0.3l1.6-0.5l2.9-0.3l1.2-0.4l1.7-0.6l1-0.3l0.7-0.3l0.4-0.3l0.2-0.7l0.1-0.4
	v-0.4l0.1-0.3l0.7-0.1l1.2,0.6l0.5,0.2l0.8,0.1h1.2h0.6h0.5h0.4l0.5,0.1l1.5,0.6l0.5,0.3l0.4,0.9l1.2,0.7l0.2,0.8l0.3,0.7l0.1,0.3
	l0.1,0.8l0.1,0.2l0.3,0.2l0.4-0.1l0.8-0.2l0.5-0.3l0.6-0.6l0.6-0.4l0.4-0.1l0.4-0.1l1.1,0.1l1.8-0.3h0.8l0.6,0.2l0.5,0.3l0.3,0.4
	l0.2,0.4l0.2,0.5l0.2,0.4l0.3,0.1l0.5,0.1l0.6-0.1l0.5-0.1l0.7-0.2l0.2-0.1l0.4-0.5l0.4-0.1l0.7-0.2h0.4l0.1,0.4l0.2,0.1h0.7
	l2.5-0.8l0.3-0.8l0.7-0.4l1.9-0.6l0.3-0.2l0.3-0.3l0.1-0.2l0.6,0.5l1.5,1.1l1,0.4l1.2,0.2l0.2,0.1l0.1,0.3v0.6l0.1,0.4l0.5,0.6
	l1.7,1.2l0.5,0.4l0.3,0.5l0.1,0.3l0.1,0.5v0.2l-0.1,0.3l-0.6,0.6l-0.1,0.3l0.1,0.3l0.2,0.2l0.3,0.1l0.6-0.1l1-0.3h0.5h0.4l0.6,0.3
	l3.8,2.3l0.4,0.2h0.3l0.4-0.2l0.6-0.5L768.9,864.1L768.9,864.1z"/>
</g>

</svg>
