<?xml version="1.0" encoding="UTF-8" ?>
<svg xmlns="http://www.w3.org/2000/svg" version="1.1" xmlns:xlink="http://www.w3.org/1999/xlink" preserveAspectRatio="none"  viewBox="-4499 -2820 9000 9000" id="fotos">
<g id="74">
	~~~~~MARK74~~~~~
<path   id= "74" name = "Germany" fill="url(#solids74)" stroke="black" stroke-width="1" stroke-linejoin="miter" stroke-linecap="butt" stroke-miterlimit="4"  d="
M 243.8 323.75
L 230.85 318.8 225.9 319.95 223.7 316.6 222.75 317.35 223.3 319 221.65 318.3 221.55 315.6 220.8 315.9 219.8 314.25 219.15 315.8 218.85 314.3 217.55 313.95 217.8 315 215.45 315.4 213.5 319.05 215.25 320.35 218.5 319.1 219.1 320 217.8 322 216.35 320.55 214.75 321.75 215.55 322.65 212.9 323.1 208.4 321.05 205.45 323.4 201.7 323.9 200.4 322.3 198.65 322.25 195.4 324.35 193.9 323.25 195.2 323.1 195.35 321.8 192.75 322.2 190.8 318.15 191.7 316.8 191.9 311.3 193.6 307.8 192.25 305.45 192.45 302.15 195.4 295.25 196.7 294.3 196.4 291.75 199.1 282.3 202.45 277.85 205.45 276.1 210.25 268 209.1 269.85 201.5 266.3 199.8 267.25 197.95 266 194.9 266.8 191.2 264.75 190.3 262 188.85 262.2 189.05 261.45 187 262.45 185.25 264.1 181.8 263.9 180.25 262.55 179.2 264.15 178.65 261.15 175.9 259.9 173.7 260.3 173.65 262.6 171.15 262.2 169.4 257.7 166.8 255.1 167.65 254.35 166.1 252.95 166.45 252.05 163.3 250.05 161.75 250.3 162.05 247.15 161.5 246.35 163.35 242.55 165.55 240.4 165.85 237.05 163.35 237 161.6 235.4 160.6 235.9 158.35 233.5 158.05 231.55 156.9 231.4 155.25 227.2 156 222.9 157.25 222.35 156.9 220.25 159.55 219 160.3 216.9 161.6 217.55 162.7 216.8 161.1 214.5 162 212.3 161.35 210.2 158.2 209.9 156.95 208.05 159.25 204.7 156.95 204.7 155.5 201 153.4 201 153.1 198.85 151.75 197.9 153.05 197.15 152.9 195.9 154.3 195.9 154.85 192.9 152.9 192.4 153.05 190.4 149.8 190.75 149 187.8 150.2 187.1 151.4 188.3 152.7 186.05 156.85 183.4 155.95 182.8 156.65 181.9 154.5 182.8 154.25 179.95 158.15 175.1 157.85 169 154.75 165.2 155.35 163.15 153.25 162.4 153.5 160.65 151.3 159.75 152.2 157.95 151.05 156.25 154.05 154.6 156.65 155.6 155.45 153.1 162.65 156.15 162.4 154.2 164.35 155.1 169.8 152.45 171 153.25 173.5 149.6 169.85 147.45 170.05 146.15 171.15 145.95 171.7 144.15 174.15 144.1 177.4 139.75 179.4 139.1 178.45 137.05 179.65 133.65 177.55 129.75 176.3 131.1 171.6 129.95 170.1 128.95 169.65 126.2 171.85 125.75 170.45 123.1 171.5 122.2 179.15 122.4 180 113.75 183.3 107.15 182.35 101.6 183.55 99.9 183.1 97.2 184 93.95 185.6 93.85 178.15 92.95 178.65 84.8 180.3 86.25 178.85 84.7 180.45 85.75 181.45 84.5 180.05 82.9 184 79 186.95 78.3 191.1 79 195.65 76.9 195.65 77.75 198.25 77.3 199 76.25 198.35 77.45 203.85 77.4 204.3 80.2 206.15 80.45 207.55 84.75 204.7 86.05 204.8 87.3 208.3 90.35 209.95 90.3 211.15 88.1 211.05 85.4 208.95 85.45 210.3 81.55 211.75 81.5 214.95 84.05 216.35 83.8 217.3 85.3 217.85 84.55 216.4 81.8 219.075 81.65 216.4 81.75 215.4 78 217.1 72.8 218.7 70 220.65 69.5 222.75 71.85 225.85 72.45 229.1 71.7 228.7 70.3 228.65 70.3 226.15 67.7 225.55 64.75 223.6 63.85 225.5 62.9 227.5 63.4 228.2 62.45 226.75 59.25 224.95 59.75 223.7 57.5 224.5 52.7 221.2 52.4 220.4 53.4 217.9 51.55 218.6 49.55 219.45 50.2 220.65 49.4 218.55 48.85 218.85 48 225.3 47.2 229.85 44.25 228.6 44.1 228.15 42.35 225.95 44.95 223.65 44.5 225.85 39.15 225.5 38.45 223.8 38.95 224.9 38.05 220.75 33.4 218.35 26.45 213.65 28 211.8 26.6 210.3 32.25 210.7 25.2 213.2 19 214.3 19 215 19.25 213.25 19.3 214.35 20.6 212.15 22.7 212.6 25.7 214 26.65 218.4 26.2 219.3 25.15 227.2 25.55 234.5 27.8 234.85 29.6 236 29.95 237.3 30.05 238.95 28.2 239.65 30.55 244.1 26.7 243.95 28.7 248.75 30.2 250.25 32.1 251.6 31.65 251.6 30.2 252.9 30.95 254.95 35.05 253.95 35.05 254.85 35.75 254.7 40.95 253.1 43.05 249.75 44.3 250.6 45.45 257.2 43.85 259.05 45.15 257.4 51.4 258.7 50.7 259.75 46.95 262.2 46 269.2 49.15 271.85 51.7 274.05 51.35 277.6 48.35 280 48.95 282.2 47.65 282.55 48.75 280.8 49.6 281.7 56.35 276.05 61.2 274.5 60.3 273.05 62.8 273.9 64.95 276.05 65.25 276.9 66.75 280.35 64.6 283.9 64.25 285.95 65.55 285.9 67.65 287.9 66.65 291.05 69.3 291.65 66.3 290.7 66.65 290.65 64.9 290.3 66.5 289.2 66.35 289.15 64.75 291.8 63.9 291.8 66.3 292.55 63.5 293.9 63.4 295.25 60.95 294.7 60.4 292.85 62.75 292.75 61.7 296.6 58.25 300.85 58.6 307.9 56.9 309.45 54.6 313.25 52.05 318.2 44 319.05 45.2 328 45.55 328.25 46.35 325.15 47.2 323.2 46.85 323.25 46.9 321.9 46.8 322.1 46.65 320.95 46.45 318.35 49.05 322.7 47.05 321.9 48.8 322.5 47.6 323.4 48.85 324.7 47.7 325.35 49.95 328.2 46.95 330.9 46 330.8 47.7 332.5 48.95 332.8 52.7 334.7 53.2 333.8 53.95 334.9 53.35 337.5 54.75 338.4 56.95 339.55 57 338.15 57.95 340.7 57.35 339.85 58.65 340.55 58.15 342 61.1 342.85 61.15 342.55 59.5 348.15 57.55 347.85 58.4 350.5 60.6 349 63.65 353.35 68.2 351.05 70.15 350.85 71.6 358.1 76.05 362.3 75.65 361 77.65 362.65 78.3 365.95 93.5 366.85 96.35 365.1 99.05 364.75 104.15 359.2 109.1 359.6 112.3 358.65 114.25 364.45 117.9 371.7 125.35 370.85 127 371.6 128.75 369.1 132.75 370.55 137.75 373.65 139.3 372.8 144.25 374.8 146.35 373.15 153.1 370.5 156.15 374.75 163 374.05 166.15 374.2 168.4 379.7 170.75 380.35 175.9 382 178.7 380.35 186.65 375.75 196.95 371.25 195.45 372.05 192.5 369.9 193 370.7 190.3 368.15 188.85 368.25 187.9 368.05 188.8 365.9 189 363.2 187.55 362.1 190.25 363.8 190.35 363.4 191.55 365.6 192.3 365.35 193.85 362.3 193.95 357.45 197.3 353 198.05 352.95 200 351.85 200.7 343.5 201.55 343.45 204.2 342 205.6 339.6 203.75 338.35 206.6 336.4 206.1 335.1 209.6 330.95 209.35 330.65 211.8 328.8 213.6 325.55 211.35 325.3 212.45 324.95 211.8 323.4 212.45 322.7 213.85 321.8 213.05 317.75 213.85 313.15 220 313.3 222.75 312.1 222.6 312.2 220.85 310.8 219.85 311.2 218.85 309.85 218.8 309.4 216.8 307.3 216.95 308.3 218.65 307.05 219.7 310.2 222.9 309.8 225.25 311.75 226.55 311.35 227.25 317.2 230.3 316.9 232.05 318.65 232.65 316.75 237.95 315 239.65 318 241.85 318.15 244.5 318.95 244.45 319.7 247.65 321.1 248.2 321.4 251.7 323.95 253.2 324.55 255.1 328.7 255.2 330.85 256.75 334.65 263.25 337.5 263.95 340.1 266.45 340.35 269.05 342.7 270.8 343.65 269.55 346.1 270.5 347.15 273.15 348.85 272.95 351.45 277.35 350.3 279.5 351.4 280.15 351 283.35 348.7 287.15 343.05 284.3 341.3 285.5 341.3 290.4 338.6 294.4 330.65 296.95 324 301.95 324.1 304 326.95 308.15 328.55 308.9 330.25 312.45 327.8 317.2 330.55 317.2 332.2 318.55 331.3 325.85 330.2 326.9 325 323.5 324.55 322.5 325.7 321.35 324.05 319.9 324.65 319.05 320.1 319.1 319.35 320.6 317.4 320.9 315.9 318.25 311.2 318.85 311.1 316.45 308.85 318.05 309.85 321.6 304.95 320.85 300.8 322.5 295.5 322.05 293.9 325 290.35 325.05 289.1 326.6 290.05 327.6 287.9 327.45 286.15 329.4 285 329.5 285.75 328.25 284.55 328.05 282.25 329.45 278.75 329.35 277.7 326.3 276 326.25 277.25 325.05 276.5 324.2 273.7 325.05 269.15 323 268.5 324.3 267.25 324.25 265.55 323.5 266.2 322.4 265.1 322.4 266.05 328.05 265.05 330 262.35 332.85 258.45 334.15 260 329.95 258.6 329.55 256.45 330.95 256.35 327.3 253.95 326.2 253.2 323.8 250.75 324.5 249.25 323.75 248.9 322 247.25 324.3 243.8 323.75 Z"/>
</g>
<!-- <g id ="fotos">
<g id="74"  name="Germany" transform="matrix( 1, 0, 0, 1, 0,0) ">
<use xlink:href="#Layer0_0_1_STROKES"/>
</g>
</g> -->
</svg>
