<svg xmlns="http://www.w3.org/2000/svg" version="1.1" id = "fotos" xmlns:xlink="http://www.w3.org/1999/xlink" preserveAspectRatio="none" x="0px" y="0px" width="500px" height="356px" viewBox="-182905 -115940 260500 260356">
<!-- <defs> -->
<g id="13346">
<path id="13346" name = "Mumbai (Grtr)" stroke-width="1" stroke-linejoin="round" stroke-linecap="round" fill="white" d="
M 162.4 82.05
Q 162.15 82.05 162.05 82.1 161.5 82.1 161.25 81.7 161.15 81.35 160.9 81.05 160.85 80.9 160.7 80.85 160.6 80.8 160.5 80.7 160 80.4 159.55 80.05 159.45 80 159.3 79.9 159.2 79.9 159.15 79.85 159.05 79.85 158.95 79.8 158.7 79.8 158.4 79.75 158.35 79.75 158.25 79.75 157.7 79.7 157.55 79.25 157.55 79.2 157.55 79.15 157.55 78.65 157.45 78.15 157.4 78 157.3 77.85 157.25 77.8 157.2 77.75 157.1 77.7 156.95 77.65 156.85 77.6 156.75 77.55 156.45 77.45 156.25 77.25 156.15 77.2 156 77.1 155.7 76.9 155.5 76.65 155.4 76.45 155.35 76.35 155.3 76.25 155.3 76.15 155.3 76.05 155.25 76 155.25 75.95 155.25 75.9 155.15 75.85 155.1 75.8 154.75 75.35 154.3 75.15 154.25 75.1 154.1 75.05 153.3 75 152.35 75 152.3 75 152.15 74.95 151.95 74.85 151.8 74.75 151.6 74.6 151.35 74.3 151.3 74.25 151.1 74.15 151 74.1 150.9 74.05 150.8 73.85 150.6 73.75 150.5 73.75 150.35 73.65 149.85 73.3 149.35 72.9 148.85 72.55 148.35 72.4 148.1 72.3 147.85 72.2 147.7 72.1 147.55 72.1 146.5 72 145.45 72 144.3 72 143.15 72.05 142.85 72.05 142.55 71.85 142.45 71.8 142.3 71.75 141.75 71.45 141.25 71.3 141.15 71.25 141 71.2 140.75 71.1 140.5 71.15 140.25 71.2 140 71.05 139.85 71.05 139.7 70.95 139.55 70.95 139.5 70.85 139.15 70.75 138.85 70.65 138.65 70.55 138.5 70.45 138.3 70.35 138.15 70.35 137.5 70.2 137.3 69.55 137.25 69.4 137.2 69.35 137.1 69.25 137.05 69.1 137.05 68.8 137 68.5 136.95 68.35 136.9 68.15 136.9 67.4 136.9 66.7 136.9 66.65 136.85 66.55 136.8 66.4 136.8 66.3 136.7 65.4 136.7 64.45 136.7 63.25 136.7 62.1 136.7 61.8 136.7 61.45 136.65 60.95 136.8 60.45 136.9 60 137.05 59.65 137.05 59.55 137.1 59.5 137.15 59.35 137.2 59.25 137.25 59.15 137.25 59 137.3 58.6 137.3 58.15 137.25 58 137.3 57.8 137.4 57.4 137.1 57 137.05 56.9 137 56.75 136.55 56.25 136.1 55.7 135.75 55.2 135.45 54.75 135.4 54.65 135.3 54.6 135.05 54.15 134.8 53.75 134.7 53.6 134.55 53.55 134.45 53.4 134.3 53.2 134.25 53.05 134.15 52.9 133.85 52.4 133.35 52.1 133.1 52.05 132.9 52.05 132.4 52.05 131.9 52 131.8 52 131.7 51.95 131.6 51.8 131.45 51.65 131.1 51.35 130.9 50.95 130.9 50.9 130.8 50.8 130.55 50.4 130.2 50.05 130.1 49.95 130.05 49.8 129.7 49.45 129.4 49.2 129.3 49.1 129.2 49.05 129.15 49 129.05 48.95 128.7 48.75 128.4 48.7 128.25 48.7 128.15 48.65 127.85 48.55 127.55 48.55 127.45 48.55 127.4 48.5
L 127.35 48.5
Q 127.25 48.45 127.15 48.4 126.9 48.2 126.6 48.1 126.45 48.05 126.35 48 125.9 47.75 125.35 47.6 124.85 47.45 124.55 47.05
L 124.5 47.05
Q 124.45 46.95 124.35 46.8 124.3 46.7 124.25 46.7 124.25 46.6 124.25 46.45 124.2 46.35 124.15 46.2 124.05 46.15 124.05 46 123.95 45.7 123.95 45.35 123.95 45.1 123.9 44.85 123.9 44.8 123.9 44.7 123.85 44.3 123.85 44 123.85 42.75 123.85 41.6 123.85 41.45 123.8 41.3 123.7 41.05 123.6 40.75 123.3 40.2 123.1 39.65 123.1 39.55 123 39.45 122.95 39.35 122.9 39.3 122.8 39.15 122.75 39.05 122.75 38.95 122.75 38.8 122.65 38.65 122.5 38.55 122.35 38.5 122.25 38.35 122.2 38.3 122.1 38.2 122 38.15 121.9 38.05 121.75 37.95 121.6 37.85
L 121.5 37.8
Q 121.3 37.6 121.15 37.4 121.05 37.35 120.9 37.25 120.3 36.85 120.3 36.2 120.3 35.05 120.3 33.9 120.3 33.85 120.25 33.8 120.2 33.8 120.1 33.75 119.95 33.7 119.85 33.65 119.35 33.5 118.9 33.55 118.85 33.55 118.8 33.5 118.7 33.5 118.6 33.4 118 33.25 117.35 32.95 117.3 32.95 117.15 32.9 117.1 32.85 117 32.8 116.8 32.75 116.6 32.6 116.55 32.5 116.4 32.4 116.05 31.95 115.6 31.5 115.45 31.4 115.35 31.3 115.35 31.2 115.25 31.1 115 30.85 114.85 30.6 114.8 30.5 114.7 30.45 114.1 29.45 113.7 28.5 113.55 28.25 113.4 27.95 113.2 27.75 112.95 27.5 112.75 27.2 112.6 27 112.55 26.85 112.45 26.7 112.35 26.45 112.2 26.2 112.15 26.05 112.1 25.95 111.95 25.7 111.8 25.45 111.8 25.3 111.7 25.2 111.55 25.05 111.55 24.95 111.55 24.85 111.5 24.75 111.5 24.65 111.4 24.55 111.4 24.45 111.4 24.3 111.35 23.15 111.35 22 111.35 21.8 111.3 21.6 111.15 21.3 111.2 20.95 111.2 20.75 111.15 20.6 111.15 20.5 111.15 20.35 111.15 20.1 111.05 19.75 110.95 19.5 110.85 19.3 110.75 19.05 110.65 18.8 110.55 18.65 110.45 18.55 110.45 18.4 110.35 18.35 110.15 18.15 109.95 18.1 109.5 18 109.1 17.75 108.95 17.65 108.7 17.6 108.55 17.6 108.4 17.6 108.3 17.6 108.2 17.5 108 17.4 107.75 17.45 107.65 17.45 107.55 17.4 107.4 17.3 107.15 17.3 106.9 17.3 106.6 17.3 106.5 17.3 106.45 17.2 106.25 17.1 106.05 17.1 105.9 17.1 105.7 17.1 105.5 17 105.25 17.05 105.15 17.05 105.05 17.05 104.95 17 104.8 16.95 104.5 16.95 104.2 16.9 104.1 16.9 104 16.85 103.85 16.8 103.65 16.8 103.4 16.85 103.2 16.75 103 16.7 102.8 16.65 102.5 16.65 102.1 16.6 102.05 16.6 101.9 16.55 101.75 16.5 101.6 16.45 101.55 16.4 101.45 16.4 101.3 16.4 101.15 16.35 100.25 16.3 99.4 16.35 98.95 16.35 98.5 16.25 97.4 16.05 96.65 15.15 96.6 15.1 96.45 15 96.35 14.9 96.2 14.8 96.15 14.7 96 14.65 95.55 14.35 95.15 14 94.95 13.85 94.7 13.7 94.25 13.35 93.75 13.15 93.6 13.1 93.4 13 93.3 12.95 93.2 12.9 92.75 12.7 92.25 12.55 92.2 12.5 92.1 12.5 91.55 12.2 91.05 11.95 90.9 11.85 90.8 11.8 90.55 11.7 90.25 11.5 90.05 11.3 89.7 11.15 89.6 11.05 89.35 11.05 89.3 11.05 89.2 11.05 89.1 10.95 89.05 10.8 88.95 10.75 88.85 10.7 88.75 10.55 88.6 10.25 88.6 10.2 88.5 10.1 88.35 9.95 88.25 9.8 88.25 9.75 88.15 9.65 87.85 9.4 87.7 9.1 87.65 8.95 87.55 8.85 87.5 8.8 87.4 8.75 87.2 8.55 87.25 8.2 87.05 8.05 86.8 8.05 86.75 8.05 86.65 8.05 86.25 8.05 85.8 8.1 84.6 8.2 83.4 8.15 83.35 8.15 83.25 8.1 83.15 8.05 83 8 82.95 8 82.9 8 82.55 7.95 82.2 7.9 82.15 7.9 82.1 7.9 81.9 7.8 81.75 7.8 81.55 7.8 81.35 7.75 81.25 7.7 81.05 7.7 80.65 7.6 80.2 7.6 80.05 7.6 79.95 7.6 79.9 7.55 79.8 7.5 79.7 7.4 79.5 7.3 79.4 7.25 79.4 7.15 79.35 7.05 79.3 6.9 79.25 6.85 79.25 6.8 79.2 6.7 79.15 6.55 79.15 6.4 79.05 6.3 79 6.1 79 5.95 79 5.85 79 5.75 79 5.35 78.9 5.05 78.85 4.9 78.75 4.85 78.75 4.75 78.7 4.6 78.45 4.05 78.25 3.5 78.2 3.4 78.05 3.3 77.95 3.1 77.85 2.95 77.45 2.5 77.1 2.05 77 1.9 76.95 1.85 76.85 1.8 76.75 1.7 76.6 1.6 76.5 1.45 76.45 1.35 76.4 1.3 76.3 1.1 76.1 1.05 75.95 1 75.9 1.05 75.6 1.2 75.4 1.45 75.35 1.55 75.25 1.55 74.55 1.6 73.85 1.6 73.75 1.6 73.65 1.5 73.5 1.35 73.25 1.1 73.1 1.05 73.05 0.9 72.7 0.4 72.1 0.1 72 0.05 71.95 0 71.55 0 71.15 0 70.05 0 68.9 0 67.7 0 66.6 0 65.4 0 64.25 0
L 64.2 0
Q 64.15 0 64 0 63.9 0.1 63.75 0.1 63.5 0.2 63.2 0.35 63.15 0.4 63.1 0.4 62.95 0.4 62.75 0.4 62.5 0.4 62.25 0.6 62.15 0.7 62.05 0.7 61.6 1.15 61 1.45 60.9 1.5 60.75 1.55 60.15 1.75 59.65 2.05 59.6 2.15 59.45 2.15 58.85 2.3 58.2 2.3 57 2.25 55.85 2.25 55.5 2.25 55.2 2.35 55.15 2.4 55.05 2.4 54.75 2.55 54.5 2.65
L 54.45 2.65
Q 54.25 2.65 54 2.65 53.95 2.65 53.85 2.7 53.65 2.75 53.5 3.1 53.2 3.6 52.95 4.15 52.75 4.55 52.5 4.9 52.45 5 52.35 5.1 52.2 5.6 51.9 6.05 51.9 6.1 51.85 6.1 51.65 6.6 51.35 7.15 51.3 7.25 51.3 7.3 51.25 7.75 51.25 8.2 51.25 8.45 51.3 8.7
L 51.35 8.8
Q 51.5 9.1 51.65 9.35 51.75 9.6 51.75 9.8 51.75 9.9 51.75 9.95 51.8 10.2 51.85 10.4 51.85 10.5 51.9 10.6 52.15 11 52.3 11.5
L 52.35 11.5
Q 52.35 11.7 52.45 11.75
L 52.45 11.85
Q 52.6 12.15 52.75 12.3 52.8 12.5 52.8 12.65
L 52.8 12.7 52.85 12.75
Q 52.85 13.05 52.85 13.25 52.85 13.35 52.85 13.4 52.9 13.55 52.95 13.7 53.05 13.9 53.15 14.15
L 53.15 14.2
Q 53.15 14.3 53.15 14.45 53.2 14.65 53.15 14.85 53.1 15 52.9 15 52.8 15 52.75 15.05
L 52.7 15.1
Q 52.45 15.1 52.3 15.15 52.3 15.25 52.25 15.25 52.2 15.3 52.15 15.3 52.1 15.4 52.05 15.4 51.9 15.5 51.8 15.55 51.55 15.65 51.3 15.7 51.25 15.75 51.2 15.75 51.05 15.75 50.9 15.75 50.85 15.8 50.7 15.85 50.55 15.9 50.4 15.85 50.1 15.85 49.8 15.95 49.45 16.1 49.15 16.2 49.05 16.25 48.95 16.3 48.95 16.35 48.85 16.35 48.75 16.4 48.75 16.5 48.7 16.55 48.65 16.6 48.25 16.85 47.8 17.15 47.7 17.2 47.6 17.2 47.45 17.2 47.4 17.25 47.35 17.25 47.3 17.25 47.3 17.3 47.2 17.3 47 17.3 46.9 17.35 46.85 17.4 46.8 17.4 46.65 17.5 46.5 17.6 46.4 17.65 46.3 17.75 46.2 17.8 46.15 17.9 46.05 17.95 45.95 18 45.8 18.1 45.65 18.25
L 45.6 18.3
Q 45.3 18.5 44.95 18.6
L 44.9 18.65
Q 44.6 18.7 44.4 18.9 44.4 18.95 44.35 19 44.05 19.2 43.75 19.4 43.7 19.4 43.65 19.45 43.45 19.55 43.35 19.65 43.3 19.65 43.25 19.65 43.2 19.7 43.1 19.75 42.9 20.1 42.45 20.3 42.45 20.35 42.4 20.35 42.3 20.45 42.1 20.45 42.1 20.5 42 20.5
L 41.95 20.5
Q 41.9 20.5 41.85 20.6 41.8 20.6 41.75 20.6
L 41.65 20.6
Q 41.45 20.65 41.25 20.75 41.2 20.8 41.15 20.8 40.75 20.8 40.4 20.8
L 40.3 20.8
Q 40.3 20.75 40.2 20.75 40.05 20.75 39.9 20.65 39.85 20.65 39.8 20.65 39.6 20.6 39.5 20.5 39.35 20.45 39.25 20.3 39.15 20.2 39 20.15 38.8 20.05 38.55 19.85 38.45 19.7 38.2 19.65 38.05 19.6 37.95 19.55 37.85 19.5 37.7 19.4 37.6 19.35 37.55 19.3 37.35 19.25 37.15 19.2
L 37.1 19.15
Q 36.9 19.15 36.65 19 36.6 19 36.55 18.95 36.35 18.9 36.15 18.8 36.1 18.75 36.05 18.7
L 35.95 18.7
Q 35.85 18.65 35.7 18.65 35.45 18.5 35.1 18.3 35.05 18.3 35.05 18.25 34.95 18.15 34.75 18.1 34.7 18.1 34.65 18.05 34.6 18.05 34.6 18
L 34.55 18
Q 34.2 17.9 33.95 17.7 33.85 17.65 33.75 17.65 33.65 17.6 33.6 17.6 33.55 17.6 33.45 17.55 33.3 17.5 33.2 17.4 33.15 17.4 33.1 17.4 33.05 17.3 33 17.25 32.95 17.2 32.9 17.2 32.75 17.15 32.65 17.1 32.6 16.95 32.5 16.9 32.45 16.9 32.4 16.9 32.15 16.7 31.9 16.6 31.7 16.4 31.5 16.3 31.4 16.2 31.3 16.15 31.15 16.15 31.1 16.05 31.05 16.05 31 16 30.75 15.9 30.55 15.75
L 30.45 15.65
Q 30.25 15.55 30.1 15.4 30 15.35 29.9 15.25 29.55 15 29.15 14.7 29.15 14.65 29.1 14.65 29.05 14.65 29 14.55
L 28.9 14.55
Q 28.85 14.5 28.8 14.45 28.75 14.45 28.7 14.4 28.6 14.35 28.45 14.3 28.3 14.3 28.2 14.25 28.15 14.25 28.15 14.2 28.1 14.2 28.05 14.2 27.95 14.2 27.85 14.2 27.8 14.15 27.75 14.1 27.7 14.1 27.65 14.1 27.25 13.9 26.95 13.65 26.9 13.6 26.85 13.55 26.75 13.45 26.65 13.35 26.2 13 25.7 12.7 25.6 12.65 25.5 12.6 25.45 12.6 25.4 12.55 25.35 12.5 25.3 12.45 25.2 12.3 24.95 12.2 24.9 12.15 24.85 12.1 24.75 12.05 24.7 12.05 24.6 11.95 24.45 11.8 24.35 11.75 24.25 11.7 24.15 11.65 24.15 11.5 24.1 11.45 24.05 11.4 23.85 11.2 23.7 10.95 23.6 10.85 23.55 10.75 23.5 10.7 23.45 10.6 23.3 10.25 23.15 10.05 23.1 9.9 23 9.75 22.85 9.6 22.8 9.4 22.8 9.35 22.75 9.3 22.7 9.05 22.6 8.8
L 22.55 8.75
Q 22.5 8.45 22.5 8.2 22.5 8.15 22.5 8.1 22.5 8.05 22.45 8 22.45 7.95 22.45 7.9 22.4 7.75 22.4 7.6 22.4 7.5 22.35 7.45
L 22.35 7.4
Q 22.3 7.05 22.1 6.85 22 6.85 21.95 6.8 21.8 6.7 21.7 6.75 21.65 6.75 21.6 6.8
L 21.55 6.8
Q 21.5 6.8 21.45 6.8
L 21 6.8
Q 20.95 6.8 20.9 6.8
L 20.8 6.8
Q 20.75 6.85 20.65 6.85 20.6 6.85 20.55 6.85 20.45 6.85 20.35 6.85
L 20.3 6.9 20.2 6.9
Q 20.15 6.9 20.1 6.9 19.9 6.95 19.7 6.95 19.6009765625 6.95 19.45 6.95 19.5 6.9484375 19.5 6.9
L 19.4 6.9
Q 18.8 6.9 18.3 6.9 18.15 6.9 17.95 6.9 17.7 6.85 17.45 7.05
L 17.4 7.05
Q 17.3 7.3 17 7.3 16.75 7.3 16.45 7.3 16.4 7.3 16.35 7.3 16.15 7.4 15.95 7.5 15.85 7.6 15.7 7.65 15.55 7.75 15.35 7.8 15.3 7.8 15.2 7.85 15.1 7.85 15 7.85 14.4 7.85 13.85 7.85 13.6 7.8 13.35 7.8
L 13.3 7.8
Q 13.15 7.75 13.05 7.75 12.95 7.75 12.9 7.7
L 12.85 7.7
Q 12.45 7.7 12.1 7.7 11.8 7.7 11.5 7.5 11.45 7.5 11.4 7.45
L 11.3 7.4
Q 11.25 7.4 11.2 7.4 10.95 7.3 10.8 7.25 10.75 7.25 10.7 7.2 10.55 7.15 10.45 7.05 10.3 6.95 10.15 6.85 10.1 6.8 10 6.8 10 6.75 10 6.7 9.95 6.65 9.95 6.6 9.9 6.5 9.85 6.45 9.8 6.4 9.75 6.35 9.65 6.3 9.6 6.3 9.55 6.3 9.5 6.2 9.45 6.1 9.25 6.1
L 9.05 6
Q 8.95 5.95 8.9 5.9 8.85 5.85 8.8 5.85 8.7 5.8 8.55 5.8 8.5 5.8 8.45 5.8 8.3 5.75 8.1 5.65
L 8.05 5.6
Q 7.95 5.6 7.95 5.5 7.7 5.35 7.35 5.35 7.3 5.35 7.25 5.4 7.1 5.5 7.15 5.7 7.2 6.05 7.05 6.3 7 6.45 7 6.75 7 7.25 6.9 7.75 6.85 7.9 6.85 8.05 6.75 8.35 6.65 8.65 6.5 8.9 6.4 9.25 6.2 10.1 5.9 10.85 5.85 10.95 5.85 11 5.8 11.75 5.85 12.55 5.9 12.6 5.85 12.7 5.8 12.85 5.9 13.05 5.95 13.15 5.95 13.2 6 13.4 6 13.55 6 14.55 6 15.6 6 15.7 6 15.85 6 16.05 5.95 16.15 5.95 16.35 5.95 16.55 5.95 16.65 5.9 16.7 5.65 17.35 5.25 17.95 5.25 18.05 5.25 18.1 4.8 18.7 4.75 19.5 4.7 19.8 4.55 20.15 4.55 20.45 4.55 20.65 4.5 21.2 4.55 21.85 4.55 21.95 4.55 22.1 4.5 22.15 4.45 22.25 4.35 22.5 4.25 22.75 4.2 23 4.05 23.15 4.05 23.25 4.05 23.35 4.05 23.7 3.95 24 3.9 24.05 3.9 24.15 3.95 24.5 3.8 24.75 3.7 24.95 3.6 25.1 3.45 25.6 3.15 26.05 3.1 26.15 3.1 26.25 3.1 26.85 3.1 27.45 3.1 27.95 3.15 28.45 3.15 28.6 3.2 28.65 3.3 28.85 3.3 29.05 3.3 29.15 3.3 29.3 3.35 29.45 3.4 29.7 3.45 29.85 3.5 29.95 3.55 30.1 3.55 30.35 3.65 31.05 3.6 31.9 3.6 32.05 3.6 32.2 3.6 32.3 3.55 32.4 3.55 32.5 3.55 32.6 3.5 33.25 3.15 33.8 2.9 34.25 2.65 34.75 2.55 34.85 2.55 34.9 2.1 35.4 1.75 35.9 1.65 36.05 1.55 36.2 1.25 36.4 1.1 36.75 0.95 37.2 0.7 37.6 0.55 37.85 0.45 38.2 0.35 38.5 0.2 38.8 0.15 38.9 0.05 39.05 0 39.25 0 39.45 0 39.9 0 40.4 0 40.7 0 40.95 0.05 41.45 0.45 41.8 0.55 41.9 0.55 42 0.6 42.05 0.7 42.15 0.75 42.25 0.8 42.35 0.95 42.5 1 42.6 1.15 42.85 1.45 43.05 1.6 43.15 1.65 43.3 1.7 43.3 1.7 43.35
L 1.7 43.45
Q 1.75 43.8 2.05 44.1 2.1 44.2 2.15 44.3 2.2 44.35 2.25 44.45 2.4 44.65 2.5 44.75 2.85 45.3 3.35 45.7 3.45 45.8 3.55 45.85 4.1 46.15 4.35 46.7 4.45 46.7 4.55 46.75 4.65 46.85 4.75 47.05 4.75 47.15 4.85 47.2 4.85 47.25 4.85 47.3 4.95 47.95 4.95 48.6 4.95 48.7 4.95 48.8
L 4.95 48.85
Q 5 49.05 4.75 49.05 4.75 49.35 4.75 49.65 4.75 50.15 4.65 50.55
L 4.65 50.65
Q 4.6 50.85 4.55 51 4.5 51.35 4.3 51.65 4.15 52 4.05 52.3 4 52.6 3.9 52.85 3.9 52.95 3.85 53
L 3.8 53.1
Q 3.6 53.45 3.6 53.75 3.6 54.1 3.55 54.45 3.55 54.8 3.9 54.9 3.95 54.95 4 54.9 4.05 54.85 4.25 54.8 4.35 54.8 4.45 54.75 4.55 54.7 4.55 54.65 4.8 54.65 5.05 54.6 5.25 54.6 5.5 54.75 5.65 54.8 5.75 54.8 6.3 55.2 6.85 55.45 6.95 55.55 7 55.55 7.25 55.55 7.45 55.7 7.55 55.8 7.7 55.85 7.9 55.95 7.95 56.05 8.1 56.25 8.15 56.45 8.2 56.55 8.25 56.6 8.45 56.95 8.45 57.4 8.45 58.3 8.45 59.25 8.45 59.45 8.45 59.65 8.4 60 8.15 60.2 8.1 60.25 8.1 60.35 8 60.7 7.7 60.7 7.5 60.7 7.35 60.7 7.3 60.7 7.25 60.7 6.65 60.9 6.3 61.4 6.25 61.45 6.2 61.55 6.1 61.75 6 61.95 5.95 62 5.95 62.25 5.95 62.35 5.95 62.4 5.8 62.65 5.7 62.95 5.6 63.3 5.45 63.6 5.4 63.7 5.35 63.8 5.3 64 5.3 64.3 5.3 64.4 5.3 64.45 5.25 64.6 5.25 64.75 5.25 64.85 5.2 64.95 5.2 65 5.2 65.1 5.2 65.55 5.2 65.9 5.2 66 5.25 66.1 5.45 66.4 5.5 66.7 5.5 66.85 5.6 66.9 5.7 67.2 5.8 67.5 5.8 67.6 5.95 67.7 6 67.8 6.05 67.85 6.25 68.05 6.5 67.95 6.6 67.95 6.65 67.95 6.85 67.9 7 67.8 7 67.7 7.1 67.7 7.45 67.5 7.6 67.35 8 67 8.4 66.7 8.45 66.65 8.6 66.65 9.5 66.55 10.25 67 10.4 67.1 10.55 67.15 11.1 67.35 11.75 67.3 12.1 67.3 12.4 67.25 12.55 67.25 12.65 67.2 12.9 67.05 13.05 66.9 13.55 66.45 13.85 65.9 13.95 65.7 14.05 65.6 14.1 65.5 14.15 65.45 14.45 64.85 15.1 64.45 15.35 64.35 15.55 64.2 15.65 64.15 15.75 64.1 15.9 63.95 16 64 16.05 64 16.05 64.05 16.15 64.15 16.25 64.25 16.45 64.55 16.65 64.9 16.75 65 16.85 65.05 17 65.3 17.2 65.6 17.35 65.9 17.5 66.2 17.75 66.55 17.9 67 17.95 67.15 17.95 67.25 17.95 68.35 17.95 69.6 17.95 70.8 17.95 71.9 17.95 72.4 17.9 72.95 17.9 73.05 17.9 73.1 17.9 73.75 17.8 74.25 17.75 74.3 17.7 74.35 17.6 74.85 17.5 75.45 17.5 75.65 17.5 75.75 17.45 75.9 17.4 76.05 17.4 76.15 17.4 76.25 17.35 76.55 17.35 77 17.3 77.7 17.35 78.4
L 17.4 78.45
Q 17.45 78.65 17.5 78.75
L 17.65 79.6
Q 17.5 80 17.55 80.35 17.55 80.9 17.45 81.4 17.35 82.05 17.3 82.7 17.25 82.85 17.25 82.95 17.2 83.05 17.2 83.15 17 83.65 16.85 84.2 16.85 84.3 16.8 84.4 16.4 85.2 15.85 85.9 15.7 86.1 15.5 86.25 15.3 86.45 15 86.6 14.9 86.6 14.85 86.65 14.4 87.05 13.85 87.05 13.35 87.1 12.95 87.3 12.85 87.35 12.7 87.4 12.1 87.65 11.7 88.1 11.6 88.2 11.55 88.35 11.4 88.7 11.1 89 10.9 89.1 10.9 89.25 10.7 89.65 10.5 90 9.9 90.95 9.1 91.75 9.05 91.85 8.95 91.95 8.6 92.1 8.3 91.95 8.2 91.95 8.15 91.85 7.7 91.5 7 91.45 6.95 91.45 6.9 91.4 6.65 91.3 6.45 91.2 6.3 91.1 6.15 91 5.55 90.6 4.9 90.7 4.8 90.7 4.75 90.8 4.25 91.5 4.7 92.25 4.75 92.3 4.8 92.35 4.95 92.5 5.05 92.65 5.1 92.75 5.2 92.95 5.25 93.05 5.35 93.1 5.4 93.15 5.45 93.2 5.5 93.2 5.6 93.2 5.8 93.25 6 93.35 6.25 93.45 6.5 93.6 6.8 93.6013671875 6.8 93.85 6.9 93.95 6.95 94.05 6.95 94.1 7 94.15 7.1 94.25 7.2 94.4 7.35 94.7 7.45 95 7.5 95.05 7.5 95.15 7.5 95.5 7.35 95.9 7.35 95.95 7.25 96.05 6.95 96.4 6.75 96.65 6.65 96.75 6.6 96.85 6.35 97.1 6 97.3 5.45 97.6 5.1 98 5.05 98.1 4.95 98.15 4.7 98.4 4.85 98.7 4.95 98.9 5.05 99.15 5.1 99.25 5.15 99.3 5.5 99.65 5.8 100.2 5.95 100.4 6.1 100.65 6.2 100.75 6.2 100.8 6.5 101.2 6.9 101.35 7 101.4 7 101.45 7.35 101.55 7.6 101.75 7.85 101.9 8 102.2 8.05 102.3 8.15 102.35 8.4 102.6 8.6 102.8 8.8 102.85 8.9 103 9.1 103.15 9.4 103.3 9.45 103.35 9.5 103.35 10 103.7 10.45 104.2 10.55 104.3 10.65 104.45 10.8 104.8 11 105.1 11.1 105.15 11.1 105.25 11.25 105.6 11.3 106 11.3 106.3 11.3 106.65 11.3 107.85 11.3 109 11.3 109.65 11.35 110.25 11.4 110.45 11.45 110.65 11.45 110.75 11.45 110.8 11.45 110.9 11.45 110.95 11.45 111 11.45 111.05 11.4 111.15 11.4 111.25 11.15 111.65 11.1 112.1 11.05 112.25 11 112.45 11 112.5 10.95 112.6
L 10.9 112.7
Q 10.9 113.3 10.85 113.9 10.8 114.1 10.8 114.25 10.8 114.75 10.8 115.35 10.8 115.4 10.75 115.45 10.65 115.8 10.65 116.15
L 10.65 116.25
Q 10.55 116.5 10.55 116.7 10.55 116.85 10.45 116.95 10.45 117.05 10.4 117.1 10.2 117.4 10.1 117.75 10.1 117.9 10 118.05 9.95 118.3 9.9 118.65 9.9 118.75 9.85 118.9 9.55 119.45 9.5 120.05 9.5 120.15 9.45 120.25 9.45 120.3 9.45 120.35 9.35 120.6 9.35 120.9 9.35 120.95 9.35 121 9.35 121.55 9.3 122.2 9.3 122.5 9.4 122.8 9.45 123.05 9.6 123.35 9.8 123.7 9.95 124.1 10.1 124.35 10.4 124.4 10.55 124.4 10.65 124.35 11.25 124.05 11.65 123.55 11.75 123.45 11.85 123.4 12.15 123.25 12.5 123.2 13 123.15 13.35 123.3 13.5 123.4 13.6 123.4 14.35 123.4 15.05 123.35 15.15 123.35 15.2 123.3 15.55 123.1 15.9 122.85 16 122.75 16.05 122.6 16.1 122.4 16.1 122.05 16.1 121.65 16.05 121.3 16.05 121.05 16.05 120.8 16.1 120.8 16.1 120.75 16.55 120.55 17 120.5 17.05 120.45 17.1 120.45 17.35 120.45 17.5 120.45 17.7 120.45 17.85 120.35 17.85 120.25 17.95 120.25 18.5 119.85 18.5 119.25 18.5 118.95 18.45 118.6 18.45 118.55 18.4 118.45 18.25 118.1 18.05 117.85 17.9 117.6 17.8 117.4 17.7 117.25 17.55 117.1 17.35 116.9 17.1 116.6 17 116.5 16.95 116.4 16.85 116.25 16.8 116.15 16.65 116 16.7 115.8 16.75 115.65 16.65 115.55 16.6 115.5 16.6 115.4 16.6 114.75 17.25 114.45 17.35 114.4 17.35 114.35 17.95 113.95 18.5 113.4 18.55 113.3 18.6 113.3 18.65 113.3 18.75 113.3 18.75 113.25 18.8 113.25 18.85 113.2 18.95 113.2 19.4 112.85 20.05 112.9 20.25 112.95 20.4 112.95 20.8 113 21 112.7 21.35 112.1 21.65 111.5 21.7 111.45 21.75 111.4
L 21.75 111.3
Q 21.85 111.25 21.9 111.25 22 111.2 22.1 111.2 22.4 111.2 22.7 111.15 22.95 111.1 23.05 111.2 23.05 111.25 23.15 111.3 23.25 111.35 23.3 111.35 23.65 111.4 23.95 111.5 24 111.5 24.1 111.55 24.25 111.6 24.3 111.8 24.2 112.95 24.2 114.15 24.2 114.75 24.3 115.45 24.3 115.65 24.3 115.75 24.35 115.8 24.4 115.85 24.45 115.95 24.5 116.05 24.7 116.35 25.05 116.55 25.1 116.6 25.2 116.6 25.55 116.85 26 117 26.45 117.1 26.75 117.45 26.85 117.55 26.9 117.6 27 117.65 27.1 117.85 27.2 118 27.4 118.1 27.5 118.15 27.55 118.25 27.65 118.5 27.85 118.65 27.95 118.75 28 118.85 28.2 119.5 28.8 119.75 28.9 119.8 28.95 119.85 29.1 119.95 29.3 120.05 29.55 120.1 29.7 120.25 30.2 120.55 30.55 121.05 30.65 121.05 30.65 121.15 30.7 121.25 30.75 121.4 30.85 121.5 30.9 121.65 31 121.95 31.2 122.1 31.35 122.2 31.4 122.35 31.45 122.45 31.5 122.5 31.75 122.85 32 123.1 32.15 123.3 32.15 123.4 32.2 123.55 32.3 123.6 32.5 123.9 32.65 124.15 32.75 124.25 32.85 124.35 32.9 124.45 32.95 124.55 33.1 124.75 33.3 125.05 33.35 125.1 33.5 125.1 33.8 125.05 34.05 125.15 34.2 125.25 34.35 125.45 34.5 125.7 34.6 126 34.65 126.15 34.7 126.35 34.7 126.4 34.7 126.45 35.05 127.1 35.35 127.85 35.45 128.1 35.7 128.3 35.85 128.4 35.95 128.45 36.5 129.05 36.95 129.6 37.05 129.7 37.05 129.8 37.3 130.15 37.75 130.4 37.85 130.4 38 130.45 38.35 130.55 38.65 130.7 38.7 130.7 38.75 130.75 38.9 130.95 38.9 131.25 38.9 131.4 38.9 131.55 38.9 131.75 38.85 131.85 38.8 131.9 38.8 132 38.75 132.1 38.75 132.2 38.7 132.5 38.6 132.8 38.5 133.1 38.5 133.4 38.55 133.7 38.55 133.9 38.55 134.1 38.65 134.2 38.9 134.55 39 134.95 39.2 135.6 39.5 136.15 39.7 136.6 39.7 137.15 39.7 137.3 39.75 137.4 39.8 137.55 39.8 137.7 39.8 138.6 40.1 139.35 40.15 139.4 40.2 139.5 40.2 139.6 40.25 139.7 40.3 139.8 40.35 139.8 40.45 140.1 40.5 140.45 40.5 140.55 40.6 140.65 40.9 141.3 40.95 141.9 40.95 142 40.95 142.1 40.95 142.2 40.95 142.25 40.95 142.85 41 143.5 41 143.6 41 143.65 41.05 143.75 41.05 143.95 41.05 144 41.1 144.05 41.3 144.65 41.3 145.3 41.3 145.4 41.35 145.5 41.4 145.55 41.4 145.65
L 41.45 145.7
Q 41.45 145.9 41.5 146.05 41.55 146.1 41.55 146.15
L 41.6 146.2
Q 41.65 146.25 41.75 146.35
L 41.8 146.45
Q 41.85 146.55 41.95 146.7
L 42 146.75
Q 42.3 147.3 42.5 147.95 42.55 148.05 42.6 148.15 42.7 148.3 42.7 148.6 42.7 148.65 42.75 148.75 42.8 148.95 42.8 149.15 42.8 149.5 42.9 149.85 42.95 150 42.95 150.1 42.95 150.2 42.95 150.3 43.05 150.6 43.05 150.9 43.05 151 43.1 151.1 43.15 151.3 43.15 151.6 43.15 151.7 43.2 151.8 43.3 152.15 43.4 152.55 43.4 152.6 43.4 152.7 43.4 152.9 43.5 153.05 43.55 153.1 43.6 153.15 43.7 153.45 43.75 153.7 43.85 154.35 43.8 154.95 43.8 155.9 43.9 156.8 43.9 156.95 43.9 157.1 43.9 157.2 43.9 157.3 43.95 157.45 43.95 157.55 44 157.8 44.05 158.1 44.05 158.3 44.1 158.5 44.1 158.6 44.15 158.7 44.25 159 44.25 159.35 44.2 159.95 44.15 160.5 44.15 160.6 44.15 160.7 44.1 161.35 43.8 161.85 43.7 161.95 43.65 161.95 43.45 162.4 43.3 162.8 43.25 162.9 43.2 162.95 43.2 163.05 43.15 163.1 43.1 163.2 43.1 163.25 43.1 163.35 43.1 163.4 43.1 164 43.05 164.65 43.05 164.75 43.05 164.9 43.3 165.1 43.65 165.25 43.8 165.3 43.9 165.35 44.15 165.5 44.4 165.65 44.65 165.75 44.9 165.8 45 165.85 45.15 165.85 45.7 165.8 46.1 165.5 46.2 165.45 46.3 165.4 46.4 165.35 46.45 165.25 46.7 164.95 47 164.7 47.05 164.6 47.15 164.5 47.6 164.1 47.45 163.45 47.45 163.3 47.4 163.1 47.4 163.05 47.4 162.95 47.25 162.75 47 162.55 46.85 162.45 46.8 162.2 46.7 161.65 46.75 161.1 46.85 160.15 46.85 159.2 46.85 159.1 46.9 159 47 158.7 47 158.4 47.05 158.25 47.1 158.1 47.4 157.55 47.85 157.1
L 47.9 157.05
Q 48.15 156.6 48.6 156.65 48.85 156.7 49.15 156.7 50.35 156.7 51.45 156.7 51.6 156.7 51.75 156.7 51.8 156.85 52 156.9 52.2 157 52.4 156.95 52.45 156.95 52.55 157 52.6 157.05 52.65 157.15 52.7 157.5 52.45 157.65 52.4 157.65 52.35 157.65 52.3 157.7 52.25 157.75 51.7 157.9 51.15 158.05 51.1 158.1 51 158.1 50.85 158.3 50.85 158.55 50.85 158.65 50.8 158.7 50.7 158.85 50.7 158.95 50.7 159.1 50.65 159.25 50.65 159.35 50.65 159.45 50.65 160.25 50.65 161.05 50.65 161.15 50.6 161.25 50.45 161.55 50.35 161.9 50.2 162.15 50.1 162.45 49.9 162.8 49.95 163.2 49.95 163.3 50 163.3 50.15 163.3 50.3 163.3 50 163.55 49.85 163.9 49.8 163.95 49.65 164.1 49.55 164.2 49.5 164.3 49.5 164.4 49.4 164.6 49.2 164.8 49 165 48.65 165.5 48.35 166.05 48.3 166.15 48.25 166.25 48.05 166.4 47.9 166.7 47.4 167.75 46.9 168.75 46.85 168.9 46.75 169 46.55 169.3 46.4 169.5 46.3 169.5 46.25 169.55 46.15 169.55 46.1 169.55 45.9 169.55 45.75 169.65 45.35 169.85 44.9 170.05 44.8 170.1 44.7 170.15 44.5 170.15 44.35 170.15 44.05 170.15 43.75 170.2 43.4 170.2 43.1 170.05
L 43.05 170
Q 42.65 169.8 42.35 169.4 42.3 169.3 42.2 169.2 42.15 169.15 42.05 169.05 41.95 168.95 41.95 168.85 41.65 168.45 41.35 168 41.3 167.9 41.15 167.9 41.05 167.85 40.95 167.85 40.8 167.85 40.7 167.9 40.55 168.3 40.45 168.65 40.4 169 40.4 169.45 40.4 169.6 40.4 169.8 40.25 170.15 40.3 170.6 40.3 170.7 40.25 170.8 40.2 170.85 40.2 170.95 40.1 171.3 40.1 171.7 40.1 171.75 40.05 171.8 39.9 172.35 39.85 172.95 39.85 173.1 39.8 173.25 39.8 173.3 39.8 173.4 39.75 173.85 39.7 174.25 39.7 174.3 39.7 174.35 39.7 174.5 39.75 174.6 39.75 174.7 39.75 174.75 39.75 175.05 39.75 175.35 39.75 175.45 39.8 175.55 39.9 175.8 39.95 176 40 176.1 40 176.2 40.1 176.35 40.2 176.6
L 40.25 176.7
Q 40.3 177.5 40.3 178.3 40.3 179.4 40.3 180.55 40.3 180.7 40.25 180.85 40.2 180.95 40.2 181.05 40.15 181.2 40.1 181.35 40.1 181.6 40.1 181.8 40.1 181.9 40.05 182 40 182.15 40 182.35 40.1 182.55 40 182.65 39.9 182.7 39.9 182.8 39.85 183 39.8 183.15 39.65 183.75 39.4 184.4 39.35 184.55 39.3 184.65 39.25 184.75 39.25 184.9 39.2 185.65 39.15 186.45 39.15 187 39.4 187.4 39.45 187.45 39.5 187.5 39.7 187.6 39.8 187.8 40 188.15 40.35 188.35 40.45 188.45 40.55 188.65 40.65 188.95 40.8 189.3 40.85 189.4 40.9 189.45 41.1 189.75 41.05 190.1 41.05 190.15 41.05 190.2 40.95 190.4 40.95 190.55 40.95 190.75 40.9 190.95 40.9 191.05 40.8 191.25 40.8 191.35 40.8 191.4 40.5 192 40.2 192.5 40.1 192.6 40.05 192.75 39.8 193.15 39.55 193.6 39.45 193.85 39.4 194 39.35 194.2 39.3 194.3 39.05 194.85 38.95 195.4 38.9 195.5 38.85 195.65 38.8 195.7 38.8 195.75 38.55 196.15 38.4 196.6 38.25 196.9 38.2 197.2 38.05 197.75 37.8 198.25 37.7 198.45 37.65 198.7 37.55 199.05 37.35 199.4 37.3 199.45 37.25 199.55 37.2 199.7 37.15 199.9 37.05 200.2 36.95 200.5 36.85 200.7 36.75 200.85 36.5 201.1 36.4 201.45 36.4 201.55 36.4 201.65 36.35 202.1 36.35 202.55 36.35 202.65 36.3 202.75 36.25 203.2 36.55 203.3 36.95 203.3 37.3 203.15 37.6 203 37.85 203.1 38 203.1 38.1 203 38.2 202.95 38.3 202.9 38.4 202.9 38.5 202.85 38.8 202.65 39.05 202.35 39.35 202.15 39.5 201.85 39.65 201.6 39.9 201.4 40 201.35 40.1 201.25 40.45 200.8 41.1 200.8 41.95 200.8 42.8 200.8 42.85 200.8 42.9 200.75 43.4 200.6 43.9 200.25 44.35 199.9 44.65 199.4 44.7 199.3 44.8 199.2 44.85 199.1 44.9 199 45.1 198.65 45.2 198.2 45.25 198.15 45.25 198.05 45.2 197.45 45.3 196.9 45.3 196.7 45.3 196.45 45.35 196.2 45.4 195.95 45.55 195.45 45.9 194.95 46.05 194.8 46.15 194.6 46.5 194.15 47 193.85 47.35 193.7 47.7 193.65 47.8 193.6 47.9 193.55 48 193.55 48.05 193.55 48.65 193.4 49.3 193.45 49.35 193.45 49.5 193.45 49.6 193.45 49.75 193.45 49.8 193.45 49.85 193.45
L 49.9 193.45
Q 50 193.45 50.1 193.45 50.6 193.45 51.05 193.45 51.1 193.45 51.2 193.5 51.25 193.55 51.3 193.55 51.4 193.55 51.5 193.55 52.1 193.65 52.55 194 52.65 194.1 52.75 194.2 52.8 194.25 52.85 194.3 52.9 194.4 52.95 194.4 53 194.45 53.05 194.6 53.15 194.8 53.15 194.95 53.15 195.25 53.25 195.45 53.3 195.45 53.3 195.5 53.3 196.6 53.3 197.8 53.3 198.45 53.3 199.15 53.25 199.4 53.25 199.55 53.25 199.7 53.25 199.75 53.25 200 53.2 200.3 53.15 200.4 53.2 200.6 53.25 200.7 53.25 200.8 53.3 200.85 53.3 200.9 53.4 201.35 53.5 201.85 53.5 201.9 53.5 202 53.5 202.05 53.55 202.15 53.75 202.35 53.7 202.55
L 53.65 202.65
Q 53.65 202.7 53.65 202.75 53.6 202.8 53.6 202.85 53.55 203.65 53.55 204.35 53.55 205.6 53.55 206.75 53.55 206.9 53.5 207.05 53.5 207.2 53.5 207.35 53.55 207.65 53.45 207.9 53.3 208.2 53.3 208.55 53.3 208.75 53.3 208.9 53.25 209.15 53.25 209.45 53.15 210.05 53.15 210.65 53.15 210.75 53.15 210.9 53.15 211.2 53 211.45 52.95 211.6 52.95 211.7 52.85 211.75 52.8 211.95 52.75 212.15 52.7 212.3 52.6 212.45 52.5 212.55 52.3 212.8 52.3 213.15 52.3 213.2 52.3 213.25 52.2 213.35 52.2 213.4 52.1 213.6 52.05 213.7 51.85 214.05 51.75 214.35 51.75 214.45 51.75 214.55 51.7 214.75 51.6 214.85 51.4 215.15 51.3 215.45 51.25 215.55 51.25 215.65 51.1 216.2 50.65 216.55 50.45 216.65 50.5 216.8 50.25 217.15 49.9 217.55 49.85 217.6 49.8 217.65 49.4 218.2 48.95 218.75 48.9 218.85 48.85 218.95 48.6 219.1 48.5 219.4 48.5 219.5 48.4 219.6 47.95 220.1 47.5 220.65 47.45 220.75 47.4 220.85 46.85 221.45 46.3 222 46.2 222.05 46.1 222.15 46 222.2 45.95 222.25 45.8 222.45 45.65 222.55 45.45 222.65 45.35 222.85 45.25 222.95 45.1 223 44.6 223.15 44.15 223.45 43.65 223.65 43.1 223.9 43.1 223.95 43 223.95 42.55 224.05 42.15 224.3 41.85 224.5 41.5 224.6 41.3 224.75 41.05 224.85 40.75 225 40.45 225.1 40.4 225.15 40.35 225.15 39.9 225.2 39.5 225.2 39.05 225.2 38.65 225.1 38.6 225.1 38.55 225.05 38.2 224.9 38.05 224.5 38 224.3 37.95 224.05 37.9 224 37.85 224 37.75 223.75 37.7 223.5 37.7 223.25 37.55 223 37.55 222.9 37.45 222.8 37.05 222 36.6 221.1 36.5 220.75 36.3 220.5 36.3 220.4 36.25 220.35 36.05 219.85 35.8 219.5 35.7 219.4 35.65 219.3 35.6 219.2 35.55 219.15 35.45 219 35.25 218.85 35.05 218.6 35 218.35 34.9 218.25 34.75 218.25 34.7 218.2 34.65 218.25 34.65 218.3 34.7 218.35 34.7 218.55 34.75 218.7 34.8 218.85 34.8 218.95 34.8 220.05 34.8 221.25 34.8 221.35 34.75 221.45 34.7 221.55 34.7 221.6 34.7 222 34.6 222.25 34.55 222.5 34.55 222.6 34.5 223.25 34.5 223.95 34.5 225.1 34.55 226.3 34.55 227.5 34.45 228.5 34.45 228.65 34.4 228.7 34.25 228.95 34.3 229.3 34.3 229.4 34.25 229.45 34.25 229.6 34.25 229.8 34.3 230.15 34.2 230.45 34.1 230.75 34.1 231.1 34.1 231.25 34.1 231.35 34.05 231.4 34 231.4 33.95 231.5 33.9 231.6 33.8 231.7 33.8 231.8 33.6 232.15 33.4 232.5 33.3 232.6 33.3 232.7 33.2 232.95 33.2 233.2 33.15 233.4 33.1 233.4 32.95 233.85 33.05 234.25 33.05 234.35 33 234.45 32.85 235.05 32.6 235.5 32.6 235.65 32.5 235.75 32.4 235.9 32.4 236.1 32.4 236.15 32.4 236.2 32.3 236.3 32.2 236.45 32.15 236.6 32 236.75 31.95 236.8 31.85 236.9 31.4 237.3 31 237.8 30.85 237.9 30.75 238.05 30.7 238.15 30.7 238.2 30.65 238.9 30.65 239.6 30.65 239.75 30.7 239.8 30.8 240.05 30.7 240.3 30.7 240.45 30.75 240.55 30.9 240.75 30.9 241 30.9 241.6 30.95 242.2 30.95 242.55 31 242.85 31.1 243.15 31.15 243.4 31.15 243.45 31.2 243.5 31.2 243.6 31.2 243.7 31.25 243.9 31.3 244.15 31.5 244.45 31.65 244.9 31.7 244.95 31.7 245.1
L 31.7 245.15
Q 31.7 246.3 31.7 247.45 31.7 247.7 31.65 248 31.6 248.7 31.4 249.4 31.25 249.9 30.8 250.1 30.7 250.2 30.65 250.25 30.2 250.65 30 251.1 29.95 251.2 29.9 251.3 29.8 251.5 29.75 251.6 29.75 251.8 29.7 252.05 29.7 252.3 29.75 252.45 29.9 252.7 30.15 252.6 30.25 252.6 30.35 252.6 30.4 252.55 30.45 252.55 30.65 252.5 30.7 252.35 30.9 251.95 31.2 251.8 31.5 251.7 31.75 251.7 31.95 251.7 32.15 251.75 32.5 251.8 32.6 252.1 32.65 252.25 32.75 252.4 32.8 252.5 32.85 252.55 32.95 252.8 33.1 253 33.25 253.25 33.25 253.55 33.25 253.65 33.3 253.75 33.3 253.8 33.35 253.9 33.4 254 33.4 254.05 33.6 254.2 33.55 254.4 33.5 254.65 33.55 254.9 33.6 255.5 33.3 255.95 33.2 256 33.15 256.1 33.1 256.3 33 256.45 32.95 256.5 32.9 256.6 32.6 257 32.3 257.4 32.2 257.5 32.15 257.55 31.75 257.75 31.35 257.9 31.2 257.95 31.1 258 31 258 30.9 258 30.85 258.05 30.85 258.1 30.9 258.25 30.9 258.45 30.95 258.8 30.8 259.15 30.796875 259.253125 30.75 259.3 30.7 259.45 30.65 259.55 30.65 259.6 30.6 259.6 30.45 259.65 30.25 259.65
L 30.15 259.65
Q 30.1 259.7 30 259.75 29.55 259.85 29.1 260.1 29 260.15 28.95 260.25 28.8 260.35 28.65 260.35 28.5 260.4 28.3 260.45 28.15 260.45 27.9 260.45 27.25 260.35 26.8 260.65 26.75 260.75 26.7 260.8 26.7 261.2 26.7 261.7 26.65 261.75 26.6 261.8 26.5 261.9 26.45 261.95 26.45 262 26.4 262.05 26.3 262.45 26 262.85 25.95 262.95 25.9 262.95 25.85 263.05 25.75 263.1 25.55 263.25 25.25 263.45 24.8 263.9 24.3 264.4 24.25 264.5 24.2 264.55 24 264.8 23.8 265.1 23.75 265.2 23.7 265.3 23.4 265.55 23.3 265.85 23.25 265.85 23.2 265.95 23.1 266 23.05 266.1 22.8 266.65 22.6 267.15 22.6 267.25 22.5 267.3 22.4 267.4 22.4 267.55 22.4 268.05 22.45 268.55 22.45 268.7 22.45 268.8 22.45 269.2 22.55 269.45 22.6 269.55 22.6 269.6 22.6 269.9 22.7 270.25 22.8 270.6 22.8 270.95 22.8 271.25 22.8 271.45 22.75 271.95 22.8 272.4 22.8 272.7 22.65 273 22.6 273.1 22.5 273.2 22.45 273.3 22.4 273.3 22.1 273.65 21.8 274 21.8 274.1 21.7 274.2 21.45 274.35 21.4 274.6 21.25 275.05 21 275.5 21 275.6 20.95 275.75 20.9 275.85 20.85 276 20.8 276.15 20.8 276.25 20.75 276.4 20.75 276.55 20.65 277 20.35 277.4 20.3 277.5 20.3 277.65 20.1 278.25 19.7 278.75 19.6 278.85 19.5 278.9 19.2 279.3 18.8 279.5 18.75 279.55 18.6 279.55 18.35 279.55 18.15 279.65 17.85 279.85 17.6 280.15 17.55 280.25 17.5 280.4 17.35 280.6 17.4 280.9 16.95 281.3 16.65 281.85 16.6 281.95 16.55 282.05 16.35 282.2 16.15 282.45 16.05 282.6 15.9 282.8 15.85 282.9 15.75 283 15.4 283.45 15.1 283.95 14.9 284.2 14.75 284.4 14.35 284.75 14.15 285.05 14.05 285.2 13.95 285.3 13.65 285.7 13.55 286.1 13.45 286.65 13.8 287.05 13.85 287.1 13.85 287.2 13.95 287.55 14.15 287.85 14.35 288.35 14.4 288.8 14.5 289.05 14.6 289.4 14.6 289.5 14.65 289.55 14.7 289.75 14.7 289.95 14.65 290.2 14.8 290.5 14.85 290.5 14.85 290.55 15 291.65 14.9 292.9 14.9 293.2 14.9 293.5 14.9 293.6 14.9 293.7 14.85 293.95 14.85 294.25 14.85 294.45 14.95 294.65
L 15.05 294.65
Q 15.4 294.7 15.6 294.4 15.7 294.2 15.9 294.05 15.95 294.05 16.05 293.95 16.3 293.65 16.45 293.25 16.45 293.15 16.5 293.05 16.55 293 16.55 292.95 16.55 292.7 16.75 292.45 16.85 292.2 16.9 291.95 16.9 291.9 16.95 291.8 17 291.55 17.1 291.35 17.1 291.2 17.1 291.1 17.1 290.95 17.2 290.85 17.3 290.75 17.35 290.6 17.35 290.55 17.35 290.5 17.55 289.95 17.8 289.4 18 288.95 18.35 288.55 18.45 288.45 18.6 288.35 19 287.75 19.5 287.35 19.6 287.25 19.7 287.15 20.05 286.65 20.65 286.55 20.75 286.5 20.8 286.5 21.45 286.5 22.1 286.5 22.2 286.5 22.25 286.45 22.6 286.2 22.95 286.05 23.15 286.05 23.25 285.85 23.8 285.35 24.15 284.8 24.15 284.75 24.2 284.65 24.4 284.5 24.5 284.35 24.5 284.3 24.5 284.25 24.55 284.2 24.6 284.1 24.65 284.05 24.65 284 24.7 283.6 25 283.5 25.2 283.35 25.45 283.25
L 25.55 283.25
Q 25.9 283.15 26.15 282.9 26.2 282.85 26.25 282.75 26.35 282.75 26.4 282.65 26.4 282.6 26.5 282.5 26.7 282.3 26.9 282.1 27 282.05 27.1 281.95 27.2 281.85 27.3 281.7 27.4 281.6 27.5 281.5 27.55 281.5 27.55 281.4 27.65 281.3 27.7 281.2 27.85 281.1 28.05 280.95
L 28.1 280.95
Q 28.15 280.95 28.15 280.9 28.7 280.9 29.15 280.9 29.7 280.9 30.35 280.9 30.55 280.9 30.65 280.9 30.8 280.95 30.9 280.95 31 280.95 31.1 280.95 31.4 281 31.65 281.15
L 31.7 281.15
Q 31.75 281.15 31.8 281.2 31.95 281.2 32.1 281.4 32.15 281.4 32.15 281.45 32.3 281.6 32.4 281.7 32.45 281.75 32.5 281.8 32.6 281.95 32.65 282.1 32.85 282.2 32.95 282.3 33.15 282.6 33.4 282.65
L 33.45 282.7
Q 33.7 282.9 33.9 283.1 34 283.1 34 283.15 34.1 283.25 34.15 283.25 34.3 283.35 34.45 283.45 34.5 283.5 34.55 283.5 34.6 283.55 34.65 283.6 34.7 283.6 34.7 283.65 34.8 283.7 34.95 283.8 35 283.85 35.05 283.9 35.05 283.95 35.1 283.95 35.15 284 35.25 284.05 35.35 284.1 35.4 284.15 35.6 284.4 35.9 284.55 35.9 284.6 35.95 284.6 36.2 284.75 36.45 284.95 36.65 285.15 36.85 285.4 36.85 285.45 36.9 285.5 37.05 285.7 37.2 285.95 37.3 286.05 37.4 286.2
L 37.45 286.2
Q 37.55 286.35 37.6 286.5 37.65 286.55 37.7 286.55 37.75 286.65 37.85 286.85 37.95 287 38.05 287.05 38.15 287.15 38.2 287.3 38.35 287.55 38.55 287.75 38.75 288 38.95 288.2 39 288.3 39.15 288.4
L 39.15 288.45
Q 39.35 288.65 39.45 288.9 39.5 289 39.5 289.05 39.6 289.4 39.75 289.65 39.8 289.75 39.8 289.8 39.85 289.95 39.9 290.05 39.95 290.1 40 290.15 40.05 290.35 40.2 290.65 40.2 290.7 40.25 290.75 40.35 290.9 40.45 291 40.5 291.1 40.55 291.2 40.7 291.5 40.8 291.7 40.85 291.8 40.9 291.8 40.9 291.9 40.95 292 41 292.2 41.15 292.45 41.3 292.7 41.4 292.95
L 41.4 293
Q 41.4 293.05 41.4 293.1 41.4 293.2 41.45 293.25
L 41.45 293.35
Q 41.45 293.45 41.55 293.45 41.55 293.5 41.55 293.55 41.65 293.7 41.75 293.85 41.85 294.1 42 294.4
L 42.05 294.45
Q 42.1 294.6 42.1 294.75
L 42.1 294.85
Q 41.95 295.15 41.85 295.45 41.8 295.5 41.75 295.55 41.75 295.65 41.65 295.85
L 41.65 295.9
Q 41.6 295.95 41.55 296 41.55 296.1 41.6 296.2 41.65 296.35 41.65 296.45
L 41.65 296.55
Q 41.75 296.8 41.7 297.05 41.65 297.35 41.75 297.6 41.75 297.65 41.75 297.7 41.75 297.75 41.8 297.8 41.85 297.95 41.95 298.2 42 298.35 41.95 298.55 41.95 298.6 41.95 298.65 41.95 298.7 41.95 298.75 41.9 298.85 41.85 299 41.8 299.05 41.75 299.1 41.75 299.25 41.65 299.35 41.65 299.4 41.65 299.45 41.45 300 41.2 300.45 41.2 300.55 41.15 300.6 41.15 300.65 41.15 300.7 41.05 300.8 40.95 300.95 40.9 301 40.9 301.05 40.9 301.15 40.8 301.2 40.7 301.25 40.6 301.3
L 40.5 301.55
Q 40.45 301.8 40.3 302.15 40.2 302.25 40.2 302.4 39.75 303.3 39.6 303.45 39.45 303.7 39.25 303.85 39.25 303.9 39.2 303.9 39.15 303.95 39.1 304.05 38.95 304.3 38.65 304.5 38.65 304.55 38.6 304.55 38.35 304.7 38.1 304.8 38.05 304.9 38 304.95 37.85 305.2 37.75 305.4 37.7 305.55 37.7 305.7 37.6 305.8 37.7 305.95 37.75 306.1 37.85 306.2
L 37.85 306.25
Q 38.1 306.3 38.4 306.3 38.45 306.3 38.5 306.25 38.7 306.15 38.85 306.05 38.9 306 38.95 305.95 39.05 305.8 39.3 305.75 39.35 305.75 39.35 305.7 39.55 305.7 39.8 305.75 39.85 305.8 39.9 305.8 40.15 305.85 40.4 305.95 40.45 305.8 40.5 305.75 40.75 305.5 40.95 305.3
L 41.05 305.3
Q 41.1 305.2 41.2 305.2 41.45 305.2 41.7 305.3 41.75 305.3 41.8 305.3 42.1 305.35 42.4 305.55 42.45 305.6 42.5 305.65 42.75 305.85 42.95 306.15 42.95 306.2 42.95 306.25 43.05 306.3 43.1 306.45
L 43.1 306.6
Q 43.15 306.65 43.15 306.7 43.15 307.05 43.15 307.35 43.15 307.5 43.2 307.65 43.35 307.85 43.45 308.05 43.5 308.1 43.55 308.15 43.5513671875 308.198828125 43.6 308.2 43.6 308.25 43.65 308.25 43.7 308.35 43.7 308.4 43.8 308.95 43.8 309.45 43.8 309.55 43.75 309.65 43.7 309.7 43.7 309.8 43.65 310.25 43.45 310.7 43.45 310.75 43.4 310.8 43.1 311.35 42.9 311.85 42.85 311.9 42.8 312 42.35 312.5 41.95 312.95 41.85 313.15 41.65 313.4 41.5 313.65 41.35 313.9 41.3 314 41.2 314.1 40.75 315.05 40.2 316 39.85 316.5 39.5 316.95 39.25 317.2 39.05 317.5 39 317.6 38.95 317.65 38.65 318.05 38.5 318.45 38.15 318.95 37.75 319.35 36.95 320.05 36.1 320.95 36 321.05 35.8 321.2 35.5 321.45 35.2 321.7 35 321.95 34.8 322.05 34.7 322.1 34.6 322.2 34.4 322.35 34.2 322.4 34.15 322.4 34.1 322.35 33.6 322.05 33.1 321.7 33.05 321.65 33 321.6 32.75 321.55 32.6 321.35 32.6 321.25 32.5 321.2 32.1 320.75 31.65 320.45 31.1 320.05 30.65 319.75 30.45 319.6 30.2 319.35 30.15 319.3 30.1 319.25 30.1 319.1 30 319 29.9 318.9 29.8 318.8 29.75 318.7 29.65 318.65 29.55 318.4 29.35 318.1 29.25 318 29.15 317.95 28.9 317.6 28.6 317.3 28.2 316.95 27.8 316.85 27.65 316.95 27.55 317.1 27.2 317.35 27 317.75 26.95 317.75 26.9 317.8 26.8 318.1 26.6 318.3 26.55 318.35 26.5 318.4 26.4 318.5 26.35 318.55 26.15 318.7 26.05 319 26 319.1 25.9 319.3 25.9 319.35 25.85 319.4
L 25.8 319.45
Q 25.6 320 25.2 320.4
L 25.2 320.45
Q 25.1 320.6 24.95 320.7 24.85 320.85 24.75 321 24.7 321.05 24.7 321.1 24.65 321.4 24.7 321.6
L 24.7 321.65
Q 24.75 321.8 24.75 321.9 24.8 321.95 24.8 322 24.9 322.05 24.85 322.15 24.85 322.35 24.85 322.5 24.9 322.6 24.8 322.7 24.75 322.75 24.75 322.85 24.75 322.95 24.7 323 24.7 323.05 24.7 323.1 24.7 323.15 24.7 323.2 24.65 323.35 24.5 323.35 24.5 323.45 24.5 323.55 24.5 323.6 24.45 323.6
L 24.45 323.7
Q 24.3 324 24.2 324.3
L 24.15 324.35
Q 24 324.4 24 324.6 24 324.8 23.95 324.95 23.95 325 23.9 325 23.9 325.05 23.9 325.1 23.9 325.4 23.9 325.65 23.85 325.8 23.85 325.95
L 23.8 325.95
Q 23.8 326.05 23.8 326.15 23.8 326.25 23.75 326.4
L 23.75 326.45
Q 23.75 326.5 23.75 326.55 23.75 326.85 23.75 327.15 23.7 327.45 23.75 327.8
L 23.75 327.85
Q 23.75 327.9 23.8 327.95 23.85 328.05 23.95 328.2 24 328.25 24 328.3 24.15 328.4 24.2 328.55 24.3 328.65 24.45 328.75 24.8 329.15 24.7 329.85 24.65 330.45 25 330.85 25.1 330.9 25.15 331 25.5 331.5 25.65 332.05 25.8 332.6 26.2 333 26.3 333.05 26.3 333.15 26.45 333.45 26.7 333.6 26.75 333.65 26.85 333.7 27.1 333.95 27.35 334.25 27.4 334.35 27.5 334.35 27.75 334.55 28.05 334.8 28.15 334.85 28.3 335 28.5 335.2 28.8 335.3 29.1 335.4 29.4 335.4 29.75 335.35 30.2 335.35 30.3 335.35 30.35 335.3 30.45 335.25 30.55 335.2 30.65 335.05 30.8 334.9 30.9 334.85 30.95 334.8 31.05 334.5 31.2 334.3 31.25 334.15 31.35 334 31.4 333.85 31.5 333.85 31.75 333.65 31.95 333.45 32.1 333.25 32.2 333.2
L 32.3 333.15
Q 32.95 332.8 33.35 332.2 33.65 331.7 33.6 331.1 33.6 330.9 33.7 330.8 33.75 330.75 33.8 330.65 33.95 330 34.55 329.85 35.05 329.65 35.45 329.1 35.5 329 35.55 328.9 35.7 328.4 35.65 327.8 35.6 327.45 35.6 327.05 35.6 326.3 35.65 325.45 35.65 325.4 35.65 325.35 35.7 325 35.7 324.75 35.7 324.5 35.85 324.35 35.9 324.25 35.95 324.15 36.05 323.9 36.2 323.75 36.2 323.7 36.25 323.6 36.4 323.45 36.1 323.4 36.05 323.4 36 323.35 36.05 323.35 36.2 323.3 36.45 323.25 36.55 323.35
L 36.65 323.4
Q 36.7 323.45 36.75 323.45 37.1 323.45 37.5 323.35 37.55 323.25 37.7 323.1 37.85 322.85 38 322.6 38 322.55 38.1 322.5 38.15 322.45 38.2 322.45 38.35 322.25 38.5 322.05 38.55 322.05 38.55 321.95 38.65 321.85 38.75 321.75 38.8 321.65 38.9 321.6 38.9 321.55 39 321.55 39.15 321.5 39.35 321.5 39.5 321.5 39.7 321.5 40 321.5 40.2 321.6 40.4 321.8 40.6 321.95 40.65 322 40.7 322.05 40.8 322.05 40.9 322.1 41 322.15 41.35 322.05 41.4 322.05 41.5 322 41.55 321.95 41.6 321.85
L 41.65 321.85
Q 41.95 321.65 42.25 321.5 42.3 321.5 42.35 321.5 42.4 321.45 42.4 321.4 42.45 321.4 42.45 321.35 42.7 321.1 42.95 321.05 43 321.05 43.05 321 43.3 320.95 43.45 320.7 43.5 320.65 43.5 320.6 43.6 320.4 43.55 320.15 43.55 320.1 43.55 320.05 43.5 319.85 43.4 319.65 43.35 319.65 43.3 319.6 43.3 319.55 43.2 319.45 43.15 319.45 43.1 319.35 42.95 319.25 42.85 319.15
L 42.8 319.1
Q 42.75 319.1 42.7 319.05 42.55 318.9 42.45 318.8 42.4 318.8 42.4 318.7 42.4 318.45 42.65 318.25 42.7 318.2 42.7 318.15 42.8 318.1 42.9 318.1 42.95 318.05 43 318.05
L 43.05 318.05 43.1 318.1
Q 43.2 318.1 43.3 318.25
L 43.4 318.35
Q 43.55 318.4 43.7 318.5 43.95 318.6 44.05 318.9
L 44.1 319
Q 44.15 319.1 44.2 319.15 44.3 319.35 44.45 319.35 44.5 319.35 44.55 319.3 44.6 319.25 44.65 319.15 44.7 319.1 44.9 318.85 44.95 318.8 44.95 318.75 45.05 318.75 45.1 318.75 45.3 318.75 45.45 318.7
L 45.55 318.65
Q 45.7 318.65 45.85 318.6
L 45.9 318.55
Q 46.05 318.4 46.15 318.3 46.25 318.25 46.3 318.2 46.35 318.2 46.4 318.15 46.55 318 46.75 317.9 46.3 317.65 46.15 317.6 46.1 317.55 46.05 317.5 45.8 317.35 45.65 317.15
L 45.6 317.1
Q 45.55 316.95 45.55 316.75
L 45.6 316.65
Q 45.65 316.55 45.75 316.4 45.75 316.3 45.8 316.3 45.85 316.35 45.9 316.35 45.95 316.35 45.95 316.4 46.05 316.4 46.15 316.45 46.2 316.45 46.25 316.5 46.3 316.5 46.4 316.55
L 46.45 316.55
Q 46.55 316.6 46.65 316.6 46.75 316.65 46.9 316.7 47 316.75 47.05 316.9 47.05 316.95 47.1 316.95 47.15 317.1 47.4 317.15 47.65 316.85 47.7 316.6
L 47.7 316.55
Q 47.7 316.5 47.65 316.5 47.4 316.35 47.15 316.2 47 316.1 46.9 316.05 46.8 315.9 46.65 315.85 46.6 315.65 46.75 315.6
L 46.85 315.55
Q 46.95 315.3 47.2 315.35 47.3 315.35 47.3 315.3 47.4 315.25 47.45 315.2 47.7 315.15 47.8 315 47.9 315 47.9 314.95
L 47.9 314.9
Q 47.95 314.7 48.05 314.6 48.1 314.6 48.15 314.5 48.3 314.35 48.4 314.2 48.45 314.15 48.5 314.15 48.55 314.05 48.65 314 48.8 313.9 48.85 313.9 48.95 313.8 49.05 313.8 49.3 313.8 49.5 313.8
L 49.55 313.8
Q 49.65 313.7 49.6 313.65
L 49.6 313.6
Q 49.55 313.5 49.5 313.4
L 49.5 313.35
Q 49.45 313.35 49.4 313.35
L 49.35 313.3
Q 49.3 313.3 49.2 313.25
L 49.15 313.25
Q 49 313.2 48.9 313.15 48.85 313.1 48.75 313.05 48.6 313 48.7 312.9 48.85 312.65 49.05 312.35 49.15 312.15 49.25 311.9
L 49.25 311.85
Q 49.3 311.75 49.35 311.7
L 49.4 311.7
Q 49.5 311.5 49.55 311.4 49.6 311.3 49.7 311.25 49.7 311.2 49.75 311.2 49.85 311.05 49.95 310.95 49.95 310.85 50.05 310.75 50.1 310.75 50.15 310.75 50.25 310.7 50.3 310.7 50.4 310.7 50.55 310.7 50.75 310.75 50.85 310.75
L 51 310.75
Q 51.2 310.85 51.25 310.75 51.25 310.55 51.25 310.35 51.3 310.2 51.25 310.2 51.2 310.2 51.15 310.15 51.05 310 50.9 309.85 50.85 309.8 50.85 309.75 50.75 309.7 50.75 309.65 50.75 309.4 50.9 309.25 51.05 309.2 51.1 309.1 51.2 308.8 51.25 308.55 51.3 308.45 51.35 308.3
L 51.4 308.25
Q 51.45 308.2 51.5 308.15 51.65 307.95 51.8 307.8 51.85 307.75 51.9 307.75
L 51.9 307.7
Q 51.95 307.7 52 307.65 52.05 307.65 52.1 307.65
L 52.1 307.6 52.2 307.6
Q 52.3 307.6 52.35 307.5 52.4 307.45 52.5 307.5 52.55 307.5 52.6 307.5 52.65 307.45 52.7 307.4 52.8 307.4 52.85 307.3 53.1 307.1 53.35 306.85 53.4 306.8 53.45 306.8 53.6 306.75 53.6 306.55 53.65 306.3 53.45 306.15
L 53.4 306.15
Q 53.25 305.8 52.85 305.7
L 52.8 305.7
Q 52.75 305.7 52.7 305.6 52.55 305.5 52.4 305.55 52.3 305.55 52.15 305.5 52.1 305.45 52 305.4 51.9 305.3 51.95 305.1
L 51.95 305
Q 52.05 304.7 52.3 304.5 52.55 304.3 52.9 303.95 53.1 303.9 53.3 303.8 53.35 303.8 53.4 303.8 53.55 303.75 53.7 303.75 53.9 303.65 54.1 303.55 54.4 303.45 54.75 303.35 54.95 303.3 55.1 303.05 55.25 302.85 55.35 302.7 55.35 302.65 55.35 302.6 55.35 302.05 55.35 301.5 55.4 301.45 55.45 301.4 55.45 301.3 55.55 301.25 55.75 300.85 56.1 300.6 56.15 300.55 56.2 300.5 56.3 300.35 56.5 300.35 56.6 300.35 56.65 300.35
L 56.7 300.35
Q 56.95 300.35 57.1 300.4 57.1 300.45 57.15 300.45 57.2 300.55 57.2 300.6 57.2 300.65 57.25 300.7 57.3 300.8 57.35 300.8 57.35 300.85 57.4 300.85 57.55 301 57.7 301.1 57.7 301.15 57.75 301.2 57.95 301.25 58.15 301.65 58.15 301.8 58.1 301.9 58 302.15 57.95 302.35
L 57.9 302.4
Q 57.9 302.55 57.9 302.7 57.85 302.85 57.95 302.85 57.95 302.8 58.05 302.7 58.05 302.65 58.1 302.6 58.15 302.55 58.15 302.5 58.2 302.45 58.2 302.4 58.25 302.35 58.35 302.35 58.55 302.35 58.7 302.35 58.85 302.35 59 302.35 59.05 302.35 59.05 302.3 59.05 302.1 58.95 301.95 58.9 301.9 58.9 301.85 58.8 301.7 58.7 301.5 58.55 301.3 58.6 301.05
L 58.6 301
Q 58.6 300.85 58.65 300.7 58.65 300.35 58.65 300 58.65 299.9 58.6 299.85 58.5 299.85 58.45 299.85 58.25 299.75 58.15 299.65 58.05 299.55 58.05 299.4
L 58.05 299.35
Q 58.1 299.25 58.15 299.2 58.2 299 58.2 298.85 58.3 298.7 58.4 298.55 58.55 298.4 58.6 298.35 58.6 298.3 58.7 298.2 58.7 298.15 58.7 298.1 58.7 297.7 58.7 297.25
L 58.7 297.15
Q 58.75 297.1 58.75 297 58.8 296.95 58.85 296.9 58.85 296.75 59 296.6 59 296.55 59 296.5 59.2 296.3 59.15 296 59.15 295.8 59.15 295.65 59.1 295.5 59.2 295.45 59.2 295.4 59.2 295.35 59.25 295.1 59.4 294.95 59.5 294.75 59.5 294.6 59.5 294.5 59.5 294.45 59.5 294.4 59.55 294.4 59.6 294.25 59.6 294.1 59.6 294.05 59.6 294 59.65 293.8 59.75 293.55 59.75 293.5 59.9 293.25 59.95 292.95 59.95 292.7 59.95 292.65 59.95 292.6 59.95 292.5 60 292.35 60.05 292.3 60.05 292.25 60.05 292.15 60.05 292.05 60.1 292 60.15 292 60.15 291.85 60.25 291.65 60.35 291.5 60.4 291.4 60.45 291.35 60.45 291.3 60.45 290.85 60.45 290.45 60.45 290.35 60.45 290.3 60.4 290.1 60.45 289.95 60.45 289.85 60.45 289.75 60.45 289.65 60.35 289.65
L 60.25 289.55
Q 60.2 289.5 60.15 289.5 60.15 289.45 60.15 289.4 60 289.05 60.05 288.8 60.05 288.65 60.05 288.55 60 288.35 59.85 288.15
L 59.85 288.05
Q 59.8 288.05 59.75 288.05 59.6 288.05 59.45 288.05 59.4 288.05 59.35 288.05
L 59.3 288.05
Q 59.2 288.05 59.1 288.05 58.95 288.05 58.75 288.05 58.5 288.1 58.3 288.05 58.25 288 58.2 288 58.2 287.8 58.2 287.65 58.2 287.55 58.2 287.45 58.2 287.2 58.3 287.05 58.35 287.05 58.4 287.05 58.55 287 58.7 287
L 58.75 287
Q 58.75 287.05 58.8 287.05 58.9 287.05 59 287.05 59.05 287.05 59.15 287.05 59.2 287.05 59.25 287.1 59.3 287.1 59.35 287.1 59.4 287.15 59.5 287.15
L 59.6 287.15
Q 59.85 287.15 60.15 287.25 60.25 287.25 60.45 287.15 60.45 287.05 60.45 286.9 60.45 286.6 60.45 286.4 60.4 286 60.45 285.65 60.45 285.6 60.45 285.55 60.45 285.35 60.5 285.15 60.55 285 60.6 284.9 60.7 284.65 60.8 284.4 60.95 284.1 61.1 283.85 61.1 283.8 61.1 283.75 61.1 283.7 61.2 283.6 61.2 283.55 61.2 283.45 61.2 283.3 61.2 283.15 61.2 283.1 61.25 283 61.25 282.95 61.25 282.85 61.25 282.6 61.25 282.35 61.25 282.1 61.25 281.8 61.25 281.65 61.3 281.5 61.35 281.35 61.5 281.2 61.5 281.15 61.55 281.15 61.6 281.1 61.65 281 61.7 280.85 61.8 280.7
L 61.85 280.65
Q 61.9 280.55 61.95 280.4 61.95 280.35 61.95 280.3
L 61.95 280.25
Q 62 280.15 62.05 280 62.05 279.95 62.05 279.9 62.1 279.75 62.15 279.65 62.15 279.4 62.15 279.1
L 62.15 279
Q 62.15 278.95 62.15 278.85 62.15 278.8 62.15 278.75 62.25 278.65 62.35 278.55 62.55 278.25 62.7 278 62.75 277.95 62.75 277.9 62.8 277.85 62.8 277.75 62.8 277.4 62.8 277.05 62.8 277 62.8 276.95 62.7 276.7 62.75 276.55 62.75 276.5 62.75 276.4 62.7 276.25 62.7 276.1 62.7 276.05 62.7 276 62.65 275.85 62.55 275.85 62.45 275.85 62.35 275.85 62.3 275.85 62.25 275.85 62.1 275.85 62.05 275.75 62 275.75 61.95 275.75 61.85 275.75 61.75 275.7
L 61.65 275.6
Q 61.6 275.4 61.7 275.25
L 61.75 275.2
Q 61.85 275.05 62 275
L 62.05 275
Q 62.2 274.95 62.35 274.95 62.5 274.95 62.65 275 62.8 275.1 63.2 275.2 63.2 274.75 63.2 274.35 63.2 274.1 63.25 273.85
L 63.25 273.8 63.3 273.8
Q 63.3 273.75 63.3 273.7 63.3 273.6 63.3 273.5 63.35 273.4 63.35 273.35 63.3 273.25 63.4 273.2 63.4 273.15 63.4 273.1 63.4 272.45 63.4 271.85 63.4 271.75 63.4 271.6 63.35 271.35 63.6 271.25 63.65 271.15 63.7 271.05 63.85 270.95 64 270.85 64.1 270.85 64.1 270.8 64.15 270.8 64.2 270.8 64.35 270.8 64.45 270.7 64.55 270.7 64.55 270.65 64.7 270.6 64.75 270.4 64.75 270.3 64.8 270.25 64.85 270.2 64.85 270.15 64.85 269.7 64.85 269.3 64.85 269.2 64.85 269.15 64.75 268.95 64.75 268.8 64.75 268.75 64.75 268.7 64.55 268.35 64.2 267.95 64.15 267.9 64.15 267.85 63.85 267.7 63.65 267.5 63.65 267.45 63.6 267.4 63.45 267.25 63.3 267.35 63.25 267.25 63.3 267.1 63.3 266.85 63.4 266.65 63.6 266.4 63.6 266.2 63.6 265.9 63.6 265.65 63.6 265.6 63.55 265.6 63.55 265.35 63.55 265.05 63.55 265 63.6 264.9
L 63.6 264.85
Q 63.65 264.65 63.65 264.5 63.7 264.45 63.75 264.4 63.85 264.2 64.15 264.2 64.2 264.2 64.25 264.25 64.55 264.4 64.75 264.5 64.75 264.55 64.8 264.55 64.9 264.55 65 264.55 65.15 264.55 65.35 264.55 65.7 264.5 66 264.75 66.1 264.85 66.2 264.9 66.25 264.95 66.3 265 66.35 265.05 66.45 265.1 66.65 265.3 66.85 265.4
L 66.95 265.5
Q 67.15 265.7 67.4 265.6 67.45 265.6 67.45 265.5 67.45 264.9 67.45 264.4
L 67.45 264.35
Q 67.45 264.25 67.35 264.2 67.25 264.2 67.15 264.1 67.05 264 66.85 263.95
L 66.75 263.9
Q 66.65 263.85 66.6 263.85 66.55 263.85 66.5 263.8 66.3 263.8 66.15 263.8 66.05 263.8 65.95 263.7 65.9 263.7 65.8 263.7 65.75 263.65 65.65 263.6 65.55 263.55 65.35 263.5 65.1 263.4 64.95 263.25 64.9 263.25 64.85 263.15 64.8 263.05 64.9 262.95 65 262.8 65.1 262.75 65.3 262.7 65.45 262.7 65.5 262.7 65.55 262.7 65.7 262.75 65.95 262.85 66 262.9 66.05 262.95
L 66.1 262.95
Q 66.15 263 66.25 263 66.45 263.05 66.6 263.1 66.9 263.25 67.2 263.35 67.35 263.35 67.45 263.4 67.65 263.55 67.95 263.5 68.05 263.5 68.2 263.5 68.55 263.45 68.7 263.2
L 68.75 263.15
Q 68.75 263.1 68.75 263 68.8 262.85 68.65 262.8
L 68.55 262.75
Q 68.3 262.6 68.05 262.5
L 68 262.5
Q 67.9 262.45 67.8 262.45 67.75 262.45 67.7 262.4 67.65 262.4 67.6 262.4 67.35 262.35 67.05 262.35 66.95 262.35 66.85 262.35 66.6 262.4 66.25 262.25
L 66.15 262.25
Q 66 262.25 65.8 262.15
L 65.7 262.15
Q 65.45 261.95 65.05 262
L 64.95 262.05
Q 64.85 262.05 64.7 262.1 64.45 262.15 64.1 262.15 63.95 262.15 63.75 262.05 63.65 261.95 63.6 261.8 63.5 261.6 63.4 261.4 63.25 261.15 63.3 260.95 63.3 260.8 63.3 260.65 63.25 260.45 63.35 260.4 63.4 260.35 63.45 260.3 63.5 260.2 63.6 260.2 63.65 260.2 63.75 260.25 63.8 260.25 63.85 260.25 63.9 260.25 63.95 260.25 64.05 260.3 64.1 260.3 64.15 260.35 64.25 260.35 64.55 260.45 64.75 260.5 64.85 260.55 65 260.55 65.4 260.75 65.85 260.95 65.9 260.95 65.95 260.95 66.1 261.05 66.15 261.05 66.45 261.1 66.7 261.1 66.75 261.1 66.8 261.15 66.95 261.2 67.05 261.25
L 67.1 261.3
Q 67.4 261.45 67.6 261.5 67.7 261.55 67.75 261.55 67.85 261.65 68.05 261.7 68.15 261.7 68.35 261.45
L 68.4 261.4
Q 68.45 261.3 68.5 261.2 68.65 261 68.7 260.85 68.75 260.75 68.65 260.65 68.55 260.65 68.55 260.6 68.35 260.5 68.15 260.45 67.95 260.45 67.65 260.35 67.6 260.3 67.55 260.25
L 67.45 260.25
Q 67.4 260.2 67.3 260.2 66.75 260 66.15 260.05 66 260.1 65.9 260 65.85 260 65.8 260 65.7 260 65.6 260 65.6 259.95 65.5 259.95 65.45 259.95 65.4 259.9 65.15 259.8 64.95 259.65 64.85 259.6 64.75 259.6 64.7 259.6 64.65 259.55
L 64.55 259.55
Q 64.45 259.55 64.35 259.5 64.15 259.5 64 259.3
L 64 259.2
Q 63.95 259 63.95 258.75 63.9 258.55 64.1 258.5
L 64.15 258.45
Q 64.3 258.45 64.45 258.45 64.7 258.4 64.9 258.45 65.1 258.45 65.25 258.5 65.3 258.5 65.35 258.5 65.45 258.5 65.5 258.5 65.55 258.5 65.6 258.55 65.8 258.65 66.1 258.7 66.15 258.7 66.25 258.7 66.3 258.7 66.35 258.7 66.5 258.75 66.65 258.8
L 66.75 258.8
Q 66.9 258.85 67.05 258.9 67.1 258.95 67.2 258.95 67.2 259 67.25 259 67.35 259 67.45 259 67.55 259.1 67.7 259.1 67.75 259.1 67.85 259.1 67.95 259.1 68.05 259.1 68.1 259.1 68.2 259.15 68.25 259.15 68.3 259.2 68.35 259.2 68.4 259.2 68.65 259.3 69 259.4
L 69.05 259.45
Q 69.1 259.5 69.15 259.5 69.25 259.5 69.3 259.55 69.4 259.7 69.55 259.75 69.55 259.8 69.6 259.85 69.7 259.95 69.85 260 70.05 260.15 70.3 260.05 70.5 260 70.6 259.9 71 259.5 71.3 259 71.35 259 71.35 258.9 71.45 258.9 71.45 258.8 71.5 258.8 71.5 258.7 71.7 258.5 71.95 258.35 72.05 258.2 72.2 258.05 72.5 257.9 72.65 257.75 72.75 257.75 72.75 257.7 72.8 257.6 72.9 257.6 72.95 257.6 72.95 257.55
L 73 257.55
Q 73.1 257.4 73.2 257.35 73.3 257.25 73.3 257.15 73.3 257.1 73.3 257.05 73.35 256.9 73.3 256.7 73.3 256.65 73.25 256.6
L 73.2 256.5
Q 73.15 256.4 73.1 256.2 73.1 256.15 73.05 256.1 72.95 255.95 72.95 255.8 72.95 255.75 72.95 255.7 72.95 255.55 72.95 255.5 72.95 255.4 72.9 255.35 72.9 255.1 72.85 255 72.85 254.95 72.8 254.9 72.7 254.85 72.7 254.75 72.65 254.55 72.55 254.3 72.5 254.25 72.5 254.2 72.5 254.05 72.35 254.05
L 72.3 254
Q 72.3 253.9 72.25 253.8 72.15 253.6 72.05 253.4 71.95 253.15 71.85 252.95 71.85 252.9 71.85 252.85 71.8 252.5 71.8 252.1
L 71.8 252.05
Q 71.7 251.8 71.65 251.6 71.65 251.55 71.6 251.5
L 71.55 251.45
Q 71.45 251.1 71.3 250.85 71.25 250.75 71.2 250.65 71.2 250.6 71.15 250.6 71.05 250.45 71 250.35
L 71 250.3
Q 70.9 250.15 70.8 250.1 70.7 249.9 70.7 249.8
L 70.7 249.75
Q 70.7 249.7 70.65 249.65 70.45 249.5 70.45 249.15 70.45 249 70.4 248.85 70.35 248.65 70.3 248.35 70.25 248.15 70.15 248 69.8 246.95 69.35 245.9 69.35 245.85 69.3 245.75 68.9 245.3 68.6 244.75 68.55 244.7 68.55 244.6 68.55 244.45 68.55 244.25 68.5 244.05 68.55 243.85 68.65 243.75 68.7 243.75 68.95 243.5 69.15 243.35 69.25 243.3 69.35 243.25 69.55 243 69.8 242.85 70.7 242.3 71.75 241.75 71.95 241.7 72 241.6 72.3 241.35 72.55 241.05
L 72.6 241
Q 72.9 240.6 73.1 240.05 73.1 239.95 73.2 239.85 73.45 239.45 73.8 239.1 73.9 239 73.95 238.9 74.15 238.8 74.3 238.5 74.35 238.4 74.4 238.35 74.55 238.1 74.6 237.8 74.6 237.65 74.6 237.5 74.65 237.3 74.5 237.25 74.4 237.1 74.15 237.05 73.95 236.95 73.7 236.9 73.65 236.85 73.55 236.85 73.2 236.9 73.1 236.7 73.1 236.6 73.1 236.55 73 236.25 73.2 236 73.4 235.7 73.55 235.4 73.6 235.3 73.7 235.15 74 234.6 74.45 234.15 74.5 234.05 74.6 234 74.9 233.65 75.3 233.45 75.4 233.4 75.5 233.4 75.55 233.4 75.6 233.4 76.3 232.9 77.15 233 77.2 233 77.3 233 77.55 232.9 77.9 232.85 77.95 232.85 78.05 232.85 78.15 232.8 78.25 232.75 78.35 232.75 78.5 232.7 78.65 232.7 78.85 232.7 79 232.65 79.1 232.6 79.15 232.55 79.15 232.45 79.25 232.4 79.35 232.25 79.4 232.15 79.4 232.05 79.7 231.6 79.95 231.35 80.75 230.8 80.9 230.6 81.4 230.15 82 229.85 82.3 229.75 82.5 229.65 82.8 229.45 83.05 229.4 83.55 229.1 84.05 228.95 84.15 228.9 84.25 228.8 84.35 228.6 84.6 228.45 84.8 228.35 85.05 228.35 85.65 228.35 86.1 228.5 86.2 228.5 86.3 228.6 86.4 228.7 86.5 228.8 86.6 228.85 86.65 228.9 86.95 229.05 87.25 229.1 87.55 229.1 87.75 229.1 88.1 229.15 88.4 229 89 228.85 89.4 228.4 89.5 228.3 89.65 228.25 89.85 228.05 90.2 228 90.5 227.85 90.65 227.55 90.75 227.5 90.75 227.35 91.1 226.75 90.8 226.05 90.7 225.75 90.5 225.5 90.4 225.45 90.35 225.35 90 224.8 89.65 224.4 89.4 224.1 89.2 223.85 89.2 223.75 89.1 223.65 88.9 223.35 88.7 223 88.6 222.95 88.6 222.85 88.4 222.55 88.25 222.1 88.05 221.6 88.05 221.1 88.05 221.05 88.05 220.95 88 220.85 87.95 220.75 87.9 220.65 87.85 220.55 87.75 220.1 87.7 219.75 87.7 219.65 87.65 219.6 87.65 219.5 87.65 219.45 87.55 218.6 87.55 217.65 87.55 216.6 87.55 215.45 87.55 215.3 87.6 215.15 87.65 214.7 87.75 214.3 87.85 213.7 87.45 213.35 87.4 213.3 87.35 213.3 87.25 213.25 87.1 213.25 86.5 213.25 85.9 213.2 85.8 213.2 85.65 213.2 85.6 213.15 85.5 213.15 85.15 213.15 84.8 213 84.7 213 84.6 212.9 84.45 212.8 84.3 212.75 84.25 212.75 84.15 212.7 83.85 212.55 83.7 212.35 83.45 212.15 83.1 212.25
L 83 212.25
Q 82.9 212.75 82.95 213.3 82.95 213.95 82.5 214.4 82.4 214.45 82.35 214.45 82.2 214.45 82 214.45 81.35 214.55 80.85 214.45 80.75 214.45 80.65 214.4 80.55 214.4 80.4 214.35 80.15 214.3 79.95 214.2 79.4 213.9 79.1 213.3 79.05 213.25 79 213.2 78.95 212.85 79.25 212.65 79.35 212.55 79.4 212.45 79.5 212.35 79.65 212.3 79.85 212.15 80 212.1 80.15 212.05 80.25 211.95 80.5 211.8 80.8 211.85 80.9 211.85 80.9 211.9 81 211.95 81.15 211.95 81.4 211.95 81.7 211.95 82 211.95 82.3 211.85 82.9 211.65 83.35 211.1 83.4 211.1 83.45 211.15 83.5 211.2 83.6 211.2 83.8 211.3 84 211.35 84.15 211.35 84.25 211.35 84.85 211.4 85.35 211.05 85.45 211 85.5 210.85 85.55 210.6 85.55 210.3 85.6 210 85.45 209.7 85.45 209.6 85.4 209.5 85.3 209.2 85 209.05 84.9 208.95 84.85 208.85 84.7 208.7 84.5 208.55 84.3 208.45 84.15 208.25 84.05 208.2 84 208.15 83.9 207.7 84.2 207.3 84.4 207 84.75 207.25 85 207.45 85.3 207.7 85.4 207.8 85.45 207.95 85.75 208.5 86 209.05 86.05 209.1 86.1 209.15 86.2 209.25 86.25 209.35 86.5 209.95 86.9 210.4 87 210.5 87.1 210.55 87.2 210.6 87.25 210.65 87.75 210.75 88.2 210.8 88.3 210.8 88.4 210.75 88.45 210.75 88.5 210.7 88.7 210.7 88.7 210.6 88.75 210.3 88.9 210.05 89.1 209.75 89.1 209.45 89.15 209.35 89.2 209.2 89.2 209.05 89.3 208.9 89.6 208.5 89.7 208 89.7 207.95 89.75 207.9 89.95 207.55 89.95 207.15 89.95 206.85 90 206.6 90.1 205.8 89.7 205.1 89.7 205 89.6 204.95 89.1 204.85 88.65 204.65 88.5 204.6 88.4 204.6 88.25 204.55 88.15 204.55 87.95 204.5 87.8 204.5 87.6 204.55 87.45 204.45 87.35 204.4 87.25 204.4 87 204.35 86.85 204.3 86.75 204.25 86.75 204.2 86.4 204 86.3 203.75 86.2 203.65 86.2 203.6 86.15 203.1 86.2 202.55 86.2 202.35 86.35 202.35 86.4 202.35 86.45 202.4 86.8 202.45 87.2 202.7 87.25 202.75 87.3 202.85 87.45 202.95 87.65 203 87.9 203.1 88.2 203.2 88.4 203.3 88.65 203.35 88.8 203.45 89 203.5 89.45 203.6 89.4 203.1 89.4 203 89.45 202.9 89.5 202.85 89.5 202.8 89.55 202.65 89.55 202.55 89.55 202.35 89.6 202.2 89.6 202.05 89.65 201.85 89.7 201.85 89.7 201.8 89.7 201.5 89.75 201.25 89.75 200.8 89.85 200.25 89.85 199.9 89.85 199.55 89.9 199.35 89.95 199.15 90 198.75 89.75 198.45 89.8 198.45 89.85 198.5 90.05 198.55 90.2 198.55 90.4 198.6 90.65 198.6 91.4 198.6 92.2 198.55
L 92.25 198.55
Q 92.9 198.55 93.5 198.5 94.1 198.45 94.55 198.65 95 198.8 95.4 199.05 95.6 199.15 95.8 199.3 95.9 199.35 96 199.4 96.6 199.85 96.85 200.35 96.95 200.4 97 200.5 97.15 200.8 97.25 201.05 97.35 201.4 97.45 201.7 97.45 201.8 97.5 201.85 97.55 202 97.6 202.2 97.6 202.35 97.65 202.55 97.65 202.6 97.7 202.65 97.7 202.75 97.75 202.85 97.8 202.9 97.8 203 97.85 203.1 97.85 203.2 97.85 203.35 97.8 203.55 97.35 203.65 97.05 203.45 96.55 203.2 95.95 203.3 95.65 203.3 95.2 203.35 95.05 203.35 94.85 203.45 94.75 203.5 94.65 203.55 94.3 203.65 93.85 203.75 93.8 203.75 93.75 203.8 93.45 203.85 93.15 204.05 93.15 204.1 93.1 204.15 93.05 204.25 93.05 204.3 93.1 204.6 93.15 204.85 93.3 205.4 93.75 205.8 93.85 205.8 93.9 205.9 94.2 206.4 94.45 207.05 94.45 207.15 94.5 207.25 94.6 207.55 94.6 207.8 94.55 208.2 94.55 208.55 94.5 208.65 94.4 208.75 94.2 208.95 94.2 209.2 94.15 209.8 94.3 210.3 94.35 210.4 94.35 210.45 94.45 210.75 94.55 211.05 94.65 211.2 94.8 211.25 94.95 211.35 95.05 211.3 95.15 211.25 95.3 211.2 95.55 211.1 95.8 211 96 210.95 96 211.1 96.15 211.75 96.25 212.5 96.3 212.9 96.15 213.25 96.15 213.35 96.1 213.5 96.1 213.6 96.1 213.7 96 213.75 96 213.95 95.65 214.05 95.3 214.3 95.3 214.4 95.2 214.4 94.7 214.75 94.25 215.1 94.2 215.15 94.15 215.15 93.95 215.2 93.85 215.35 93.75 215.4 93.75 215.5 93.7 215.7 93.6 215.8 94.25 216.15 94.9 215.9 95.15 215.75 95.4 215.65 95.65 215.5 95.9 215.45 96.1 215.4 96.15 215.3 96.2 215.2 96.3 215.15 96.65 214.8 97.05 214.55 97.15 214.45 97.25 214.45 97.35 214.4 97.45 214.35 97.7 214.25 97.7 214.5 97.7 214.65 97.65 214.85 97.6 214.95 97.6 215.05 97.35 215.35 97.1 215.65 96.95 215.75 96.8 215.95 96.7 215.95 96.65 216 96.15 216.45 95.55 216.9 95.4 217 95.25 217.1 95.15 217.15 95.1 217.15 94.85 217.35 94.75 217.6 94.65 217.7 94.6 217.8 94.25 218.1 94.3 218.65 94.35 218.95 94.35 219.1 94.35 219.3 94.45 219.4 94.5 219.5 94.55 219.6 94.9 220.25 95.65 220.75 96 221.05 96.35 221.25 96.65 221.4 96.95 221.5 97.15 221.55 97.2 221.6 97.25 221.65 97.35 221.7 97.6 221.75 97.8 221.85 97.95 221.9 98.05 221.95 98.35 222.05 98.6 222.4 98.75 222.55 98.6 222.75 98.5 222.9 98.5 223 98.5 223.1 98.5 223.2 98.4 223.45 98.1 223.5 97.8 223.55 97.45 223.55 96.9 223.5 96.3 223.5 96.05 223.5 95.8 223.65 95.65 223.7 95.6 223.85 95.55 223.95 95.4 224 95.1 224.45 95.15 225 95.15 225.15 95.15 225.3 95.15 226.25 95.15 227.15 95.15 227.5 95.15 227.75 95.15 228 95.15 228.15 95.15 228.5 95.55 228.75 95.65 228.85 95.7 228.9 95.8 228.95 95.9 229 96.1 229.2 96.15 229.45 96.15 229.6 96.15 229.75 96.15 230.15 96.15 230.5 96.15 230.55 96.15 230.6 96 230.85 95.85 231.1 95.8 231.15 95.7 231.25 95.7 231.35 95.65 231.4 95.4 231.6 95.4 231.9 95.3 232.2 95.65 232.35 95.9 232.55 96.25 232.65 96.35 232.7 96.45 232.75 96.7 232.85 96.75 233.15 96.8 233.25 96.85 233.3 97.2 233.85 97.1 234.55 97.05 234.9 97.2 235.15 97.3 235.35 97.45 235.6 97.6 235.9 98 235.85 98.05 235.85 98.1 235.85 98.6 235.9 99.1 235.85 99.2 235.85 99.3 235.7 99.45 235.4 99.45 235.05 99.45 234.85 99.45 234.7 99.6 234.05 100.3 234.15 100.4 234.15 100.5 234.2 100.55 234.2 100.6 234.3 100.7 234.6 100.65 234.95 100.65 235.1 100.6 235.25 100.55 235.55 100.45 235.85 100.4 235.9 100.4 235.95 100.35 236.25 100.55 236.4 100.7 236.55 100.9 236.5 101 236.5 101.1 236.5 102.3 236.5 103.5 236.45 104.1 236.45 104.8 236.4 105.35 236.4 106 236.45 106.05 236.45 106.15 236.5 106.35 236.65 106.6 236.65 106.85 236.7 107 236.75 107.1 236.8 107.2 236.8 107.35 236.8 107.4 236.85 107.5 236.95 107.55 237.05 108.2 237.75 108.6 238.4 108.65 238.55 108.75 238.65 109.1 239.05 109.45 239.5 109.8 239.8 110.05 240.25 110.05 240.3 110.15 240.4 110.35 240.7 110.55 240.95 110.85 241.3 111.1 241.7 111.15 241.75 111.25 241.85 111.35 241.95 111.4 242.05 111.7 242.65 112.2 243.15 112.5 243.45 112.9 243.75 112.9 243.3 112.75 243.1 112.7 243.05 112.65 243 112.65 242.9 112.55 242.85 112.55 242.8 112.45 242.75
L 112.45 242.7
Q 112.4 242.55 112.35 242.4 112.3 242.4 112.3 242.3 112.25 242.2 112.2 242.05 112.2 242 112.15 241.95 112.1 241.85 112.1 241.75 112.05 241.75 112 241.7
L 112 241.65
Q 111.9 241.5 111.9 241.35 111.9 241.3 111.9 241.25 111.95 241.2 112 241.1 112 241.05 112 241 112 240.95 112.05 240.9 112.2 240.6 112.45 240.4
L 112.5 240.4
Q 112.6 240.35 112.65 240.35 113.3 240.4 113.85 240.3
L 113.9 240.3
Q 114.1 240.25 114.3 240.25 114.45 240.25 114.6 240.25 114.85 240.25 115.05 240.35 115.1 240.4 115.15 240.4 115.2 240.45 115.25 240.45 115.35 240.5 115.35 240.55
L 115.4 240.6
Q 115.5 240.7 115.6 240.7 115.75 240.75 115.85 240.7 115.9 240.7 116 240.7 116.1 240.7 116.15 240.75 116.15 240.8 116.2 240.85 116.25 240.9 116.3 240.95 116.3 241.15 116.4 241.25 116.55 241.45 116.7 241.45 116.7 241.5 116.75 241.5 117 241.5 117.3 241.5 117.6 241.5 117.85 241.35 117.9 241.35 117.95 241.35 118.1 241.25 118.25 241.2 118.4 241.15 118.5 241 118.5 240.95 118.5 240.9 118.6 240.75 118.65 240.6 118.7 240.45 118.7 240.35 118.8 240.25 118.85 240.05 118.9 239.8 119 239.6 119.2 239.25 119.3 239 119.35 238.95 119.35 238.9 119.5 238.7 119.6 238.4 119.65 238.35 119.65 238.3 119.65 238.2 119.75 238.1 119.85 237.8 119.95 237.55 120 237.3 120.1 237.15 120.15 237.1 120.15 237.05 120.15 237 120.15 236.95 120.25 236.8 120.3 236.6 120.4 236.4 120.5 236.25 120.5 236.2 120.5 236.1 120.7 235.95 120.7 235.7 120.7 235.65 120.75 235.6 120.8 235.5 120.8 235.45 120.8 235.4 120.8 235.35
L 120.85 235.25
Q 120.85 235.2 120.85 235.15 121 234.85 121 234.5 121 234.45 121.05 234.35
L 121.05 234.3
Q 121.1 234.2 121.2 234.2 121.45 234.25 121.7 234.4
L 121.75 234.45
Q 121.85 234.5 121.95 234.55
L 122 234.5
Q 122.1 234.5 122.15 234.5 122.2 234.45 122.25 234.4 122.3 234.35 122.45 234.35 122.55 234.3 122.6 234.3 122.7 234.25 122.75 234.2 122.8 234.2 122.85 234.1 122.9 234.1 123 234.05 123.1 233.95 123.25 233.85 123.3 233.85 123.3 233.8 123.3 233.65 123.3 233.5 123.35 233.45 123.35 233.4
L 123.4 233.4
Q 123.45 233.3 123.45 233.2 123.5 233.1 123.5 233.05 123.6 232.9 123.7 232.7 123.7 232.65 123.75 232.55 123.75 232.4 123.9 232.3 123.95 232.25 124.05 232.2 124.25 232.05 124.45 231.95 124.5 231.95 124.55 231.9 124.7 231.8 124.8 231.8 124.85 231.8 124.9 231.8 125 231.7 125.1 231.7 125.3 231.7 125.5 231.65 125.55 231.65 125.55 231.6 125.6 231.6 125.6 231.55 125.7 231.5 125.7 231.45 125.7 231.4 125.75 231.35 125.8 231.35 125.9 231.25 125.95 231.25 126 231.15 126.05 231.05 126.1 230.9 126.2 230.75 126.3 230.5 126.45 230.25 126.65 230 126.7 229.95 126.7 229.9 126.75 229.85 126.8 229.75 126.85 229.75 126.9 229.65 127.1 229.45 127.35 229.3 127.4 229.2 127.45 229.2 127.6 229.1 127.65 229 127.75 228.95 127.85 228.85 127.9 228.75 128 228.75 128.05 228.7 128.1 228.65 128.15 228.65 128.2 228.6 128.35 228.5 128.55 228.45 128.6 228.45 128.65 228.4
L 128.75 228.35
Q 128.8 228.35 128.85 228.3 128.9 228.25 128.95 228.25 129 228.2 129.05 228.15 129.15 228.05 129.3 228 129.4 228 129.45 227.95 129.7 227.75 129.9 227.5
L 129.9 227.45
Q 129.95 227.35 129.95 227.3 130 227.15 130.05 226.95 130.1 226.95 130.1 226.9 130.15 226.75 130.15 226.5
L 130.15 226.45
Q 130.2 226.4 130.2 226.35 130.2 226.15 130.2 225.95 130.2 225.4 130.2 224.85 130.2 224.8 130.2 224.75 130.25 224.7 130.3 224.65 130.3 224.55 130.3 224.5 130.35 224.5 130.35 224.4 130.4 224.35 130.4 224.3 130.45 224.15 130.5 224.05 130.6 224 130.6 223.95 130.6 223.85 130.65 223.75 130.75 223.6 130.8 223.45 130.85 223.4 130.9 223.3 130.9 223.25 130.95 223.15 131 223.1 131 223.05
L 131.05 223
Q 131.1 222.8 131.15 222.7 131.2 222.6 131.2 222.55 131.25 222.45 131.3 222.3 131.35 222.25 131.35 222.15 131.4 222.1 131.45 222.05 131.5 221.9 131.55 221.8 131.6 221.7 131.6 221.65 131.6 221.6 131.65 221.55 131.7 221.5 131.7 221.45 131.7 221.4 131.75 221.35 131.9 221.2 132 221.05 132 221 132.05 220.95 132.1 220.9 132.1 220.85 132.2 220.75 132.3 220.65 132.45 220.45 132.7 220.25 132.75 220.2 132.8 220.15 132.85 220.1 132.9 220.1
L 133 220.05
Q 133.05 220 133.05 219.95 133.3 219.75 133.55 219.6 133.6 219.6 133.65 219.6 133.75 219.5 133.8 219.45 133.85 219.4 133.85 219.3 133.95 219.3 134 219.2 134.05 219.1 134.1 219.05 134.35 218.8 134.6 218.6
L 134.65 218.55
Q 134.7 218.5 134.7 218.45 134.8 218.15 135.1 218 135.2 217.95 135.2 217.9 135.35 217.85 135.5 217.8 135.55 217.8 135.6 217.8
L 135.65 217.8
Q 135.8 217.75 135.9 217.7 136.15 217.65 136.4 217.65 136.45 217.65 136.55 217.6 136.6 217.6 136.75 217.55 136.8 217.55 136.9 217.55 136.95 217.5 137 217.45 137.05 217.45 137.15 217.35 137.2 217.3 137.3 217.25 137.4 217.25 137.45 217.2 137.5 217.2 137.5 217.15 137.55 217.15 137.6 217.15 137.65 217.1 137.75 217 137.8 216.95 137.8 216.9 137.9 216.8 138 216.65
L 138.05 216.55
Q 138.05 216.45 138.15 216.35 138.25 216.25 138.35 216.15 138.5 216.05 138.6 215.95 138.65 215.9 138.7 215.85 138.9 215.65 139.1 215.5 139.15 215.5 139.2 215.45 139.5 215.2 139.75 215.05 139.95 214.9 140.15 214.85 140.25 214.8 140.3 214.75 140.35 214.75 140.4 214.7 140.5 214.65 140.6 214.55 140.65 214.55 140.75 214.55 140.9 214.45 141.05 214.4 141.15 214.35 141.2 214.35 141.35 214.3 141.5 214.2 141.55 214.2 141.6 214.2 141.7 214.15 141.8 214.15 141.9 214.05 142 214.05 142.15 214 142.25 213.95
L 142.3 213.95
Q 142.4 213.9 142.45 213.85 142.5 213.85 142.55 213.8 142.65 213.8 142.7 213.75 142.75 213.75 142.8 213.7 142.85 213.7 142.95 213.65 143 213.55 143.2 213.45 143.25 213.45 143.35 213.4 143.5 213.35 143.65 213.3
L 143.75 213.25
Q 143.9 213.2 143.95 213.2 144 213.15 144.1 213.1 144.15 213.1 144.2 213 144.3 212.95 144.4 212.9
L 144.45 212.85
Q 144.5 212.8 144.55 212.8 144.75 212.7 144.9 212.6 144.9 212.55 144.95 212.55 145.15 212.45 145.25 212.25 145.35 212.2 145.35 212.15 145.4 212.15 145.45 212.15 145.5 212.15 145.55 212.05 145.6 211.95 145.8 211.95 145.85 211.95 145.9 211.95 145.95 211.85 146.15 211.85 146.7 211.85 147.3 211.85 147.4 211.85 147.55 211.85 147.75 211.9 147.9 211.85 148.1 211.75 148.35 211.8 148.4 211.8 148.45 211.75 148.55 211.75 148.6 211.75 148.65 211.7 148.8 211.7 148.8 211.65 148.9 211.6 149.05 211.55 149.2 211.4 149.3 211.2 149.45 211.1 149.55 211.05 149.6 210.95 149.65 210.85 149.65 210.8 149.75 210.75 149.8 210.7 149.85 210.6 149.95 210.45 150.05 210.4 150.05 210.3 150.1 210.25 150.1 210.2 150.15 210.2 150.15 210.15 150.25 210.05 150.3 209.95 150.35 209.8 150.4 209.7 150.4 209.65 150.4 209.55 150.45 209.5 150.45 209.45 150.5 209.35 150.5 209.3 150.6 209.2 150.6 209.1 150.65 209.05 150.7 209 150.75 208.95 150.75 208.85 150.8 208.7 150.85 208.6 150.9 208.5 150.95 208.25 150.95 208.2 151.05 208.1 151.1 208.05 151.1 208 151.1 207.8 151.2 207.65 151.3 207.5 151.3 207.3 151.3 207 151.3 206.7 151.3 206.35 151.25 206.05 151.25 206 151.2 205.9 151.2 205.8 151.15 205.8 151.2 205.55 151.05 205.5 150.95 205.5 150.9 205.45 150.6 205.25 150.3 204.95 150.25 204.9 150.15 204.85 150.1 204.85 150.05 204.8 149.95 204.8 149.9 204.7
L 149.85 204.6
Q 149.7 204.3 149.45 204.1 149.4 204.1 149.35 204 149.35 203.95 149.3 203.85 149.25 203.75 149.15 203.65 148.9 203.4 148.8 203.2 148.65 203 148.6 202.9 148.55 202.85 148.5 202.85 148.35 202.55 148.1 202.3
L 148 202.2
Q 147.9 202.05 147.85 201.9 147.8 201.85 147.75 201.8 147.65 201.75 147.6 201.7 147.55 201.7 147.45 201.6 147.4 201.6 147.35 201.5 147.3 201.5 147.2 201.4 147.15 201.4 147.1 201.35 147.05 201.35 146.95 201.35 146.9 201.35 146.85 201.25
L 146.8 201.25
Q 146.75 201.2 146.7 201.15 146.6 201.15 146.55 201.15 146.5 201.1 146.4 201.05 146.2 200.95 145.95 200.9
L 145.9 200.8
Q 145.8 200.75 145.7 200.65 145.6 200.6 145.55 200.6 145.5 200.55 145.5 200.5 145.4 200.5 145.4 200.45 145.25 200.4 145.05 200.35 145 200.35 144.95 200.25 144.85 200.15 144.7 200.15 144.65 200.15 144.55 200.1 144.55 200.05 144.45 200.05 144.4 199.95 144.3 199.95 144.25 199.95 144.2 199.95 144.1 199.9 144 199.9 143.4 199.7 142.95 199.4 142.9 199.4 142.85 199.35
L 142.8 199.3
Q 142.75 199.3 142.75 199.2 142.6 199.05 142.4 199.1 141.9 199 141.5 199
L 141.45 199
Q 141.4 199 141.35 199 141.25 198.95 141.1 198.95 141 199 140.95 198.9 140.8 198.85 140.65 198.8 140.6 198.8 140.55 198.75
L 140.5 198.7
Q 140.3 198.55 140.15 198.4 140 198.25 139.95 198.15 139.9 198.1 139.85 198.05 139.75 197.95 139.65 197.9 139.55 197.85 139.5 197.75 139.5 197.65 139.45 197.6 139.4 197.55 139.35 197.45
L 139.2 197.3
Q 139.2 197.25 139.15 197.2 139.1 197.15 139.05 197.1 139 197 139 196.95 138.95 196.9 138.9 196.85 138.85 196.8 138.85 196.7 138.8 196.7 138.75 196.6 138.65 196.5 138.55 196.4 138.5 196.35 138.45 196.25 138.35 196.25 138.3 196.2
L 138.25 196.15
Q 138.05 196.05 138 196 137.9 195.9 137.8 195.9 137.7 195.9 137.65 195.9
L 137.55 195.9
Q 137.5 195.9 137.45 195.85 137.4 195.8 137.3 195.8 137.05 195.75 136.8 195.75 136.65 195.7 136.55 195.75 136.5 195.75 136.45 195.7 136.35 195.65 136.25 195.65 136.1 195.65 136 195.55 135.95 195.5 135.9 195.5 135.75 195.5 135.7 195.45 135.25 195.2 134.85 194.95 134.8 194.9 134.75 194.9 134.7 194.8 134.15 194.45 134.1 194.45 134.05 194.45 133.65 194.4 133.3 194.35 133.25 194.35 133.2 194.3 133.1 194.2 133 194.15
L 132.9 194.1
Q 132.9 194.05 132.8 194 132.7 193.95 132.65 193.95 132.6 193.95 132.55 193.9 132.45 193.85 132.35 193.7 132.25 193.55 132.1 193.5 132.1 193.45 132 193.45 131.95 193.45 131.9 193.4 131.85 193.35 131.8 193.25 131.7 193.25 131.7 193.15 131.6 193.1 131.55 193.05 131.45 193 131.4 192.95 131.35 192.9 131.35 192.8
L 131.3 192.8
Q 131.25 192.65 131.25 192.5 131.25 192.4 131.25 192.3 131.2 192.2 131.2 192.1 131.25 192 131.15 191.85 131.15 191.8 131.15 191.75 131.1 191.6 131.05 191.5
L 131 191.45
Q 130.9 191.15 130.9 190.85 130.9 190.65 130.95 190.55
L 131 190.5
Q 131.05 190.4 131.1 190.35 131.15 190.35 131.2 190.3 131.25 190.3 131.35 190.2 131.4 190.1 131.5 190.1 131.6 190.05 131.7 189.95 131.8 189.9 131.85 189.85 131.9 189.8 132 189.8 132.05 189.75 132.1 189.7 132.15 189.65 132.25 189.6 132.3 189.6 132.35 189.55 132.4 189.55 132.4 189.5 132.45 189.45 132.55 189.4 132.65 189.35 132.7 189.2 132.8 189.05 133 189.05 133.05 189.05 133.05 188.95 133.2 188.85 133.4 188.75 133.5 188.65 133.55 188.6 133.65 188.5 133.8 188.4 133.95 188.35 134.2 187.85 134.3 187.8 134.3 187.7 134.4 187.4 134.55 187.1 134.8 186.7 135.1 186.45 135.2 186.35 135.3 186.25 136 185.75 136.6 185.2 136.8 185.1 136.9 185 137.05 184.8 137.1 184.65 137.15 184.4 137.3 184.15 137.4 184.05 137.4 183.85 137.45 183.65 137.5 183.4 137.5 183 137.4 182.6 137.4 182.55 137.35 182.5 137.2 182.45 137.2 182.25 137.25 182.1 137.05 182
L 137 182
Q 137 181.8 136.75 181.85 136.7 181.9 136.65 181.9 136.6 182 136.55 182 136.55 182.15 136.35 182.25 135.9 182.65 135.4 182.95 135.25 183.05 135.15 183.15 135.1 183.3 134.8 183.4 134.7 183.5 134.55 183.5 134.3 183.65 133.95 183.85 133.05 184.25 132.15 184.25 132.4 184.05 132.55 183.8 132.65 183.65 132.75 183.6 132.95 183.5 133.05 183.25 133.1 183.15 133.2 183.1 133.95 182.4 134.7 181.85 135.3 181.4 135.9 180.95 136.05 180.8 136.15 180.65 136.35 180.4 136.3 180.05 136.15 180 136 180.1 135.75 180.2 135.55 180.3 135.5 180.35 135.4 180.4 135 180.75 134.4 181.05 133.95 181.25 133.35 181.55 133.25 181.6 133.1 181.65 132.95 181.7 132.7 181.8 132.55 181.9 132.45 181.9 131.9 182.1 131.35 182.25 130.85 182.45 130.3 182.5 129.75 182.6 129.65 182.15 129.55 182 129.5 181.85 129.45 181.8 129.4 181.7 129.4 181.55 129.2 181.35 129.15 181.3 129 181.35 128.85 181.35 128.85 181.25 128.85 181.05 128.65 180.95 128.3 180.75 127.9 180.55 127.8 180.5 127.7 180.4 127.45 180.3 127.3 180.15 127.2 180.05 127.1 179.95 127 179.9 126.9 179.85 126.25 179.6 125.6 179.3 125.05 179.15 124.45 179.15 124.35 179.15 124.3 179.2 124.25 179.2 124.15 179.25 124 179.3 123.9 179.35 123.4 179.65 123.15 180.15 123.1 180.3 123 180.4 122.9 180.6 122.8 180.8 122.75 180.9 122.7 181 122.65 181.15 122.55 181.2 122.25 181.55 122.15 181.9 122.05 182.15 121.9 182.45 121.6 183.2 121.1 183.85 121.05 184 120.9 184.1 120.6 184.4 120.25 184.75 120 185.05 119.75 185.1 119.35 185.3 118.95 185.5 118.85 185.55 118.8 185.55 118.6 185.6 118.4 185.6 118.3 185.6 118.2 185.65 118 185.9 117.7 185.8 117.65 185.8 117.55 185.85 117.35 185.9 117.2 185.9 116.6 185.95 116.15 186.1 115.95 186.15 115.75 186.15 114.85 186.2 114 186.2 113.85 186.2 113.6 186.25 113.35 186.25 113 186.1 112.75 185.95 112.5 185.8 112.1 185.55 112.1 185.05 112.1 184.95 112.15 184.85 112.2 184.8 112.2 184.75 112.55 184.45 112.85 184.15 112.9 184.05 113 183.95 113.45 183.7 114 183.5 114.15 183.45 114.3 183.3 114.45 183.15 114.6 183.1 114.75 183 114.85 182.9 114.95 182.85 115.05 182.7 115.2 182.55 115.35 182.35 115.65 182.1 115.9 181.75 116 181.55 116 181.25 116 181 116 180.7 116.1 179.75 116.05 178.85 116.05 178.7 116.1 178.45 116.15 177.95 115.9 177.65 115.75 177.7 115.6 177.8 115 178.2 114.5 177.7 114.35 177.45 114.25 177.35 114.05 177.2 113.9 177.05 113.85 176.95 113.75 176.9 113.65 176.85 113.55 176.75 113.2 176.55 112.75 176.6 112.6 176.6 112.45 176.6 112 176.45 111.5 176.2 111.35 176.15 111.15 176 110.9 175.9 110.75 175.75 110.65 175.75 110.5 175.65 110.25 175.5 110.05 175.3 109.7 174.95 109.3 174.6 109.2 174.5 109.1 174.35 108.95 174 109 173.65 109 173.6 109 173.5 109.1 173.4 109.2 173.35 109.55 173.3 109.95 173.3 110.15 173.3 110.35 173.3 110.45 173.3 110.6 173.3 110.95 173.3 111.25 173.4 111.6 173.6 112 173.6 112.25 173.6 112.4 173.65 112.5 173.7 112.55 173.7 112.9 173.7 113.2 173.8 113.35 173.85 113.4 173.85 113.65 173.85 113.9 174 114.15 174.15 114.35 174.25 114.5 174.3 114.65 174.4 115.1 174.6 115.5 174.8 115.6 174.85 115.75 174.95 116.15 175.2 116.7 175.25 116.8 175.25 116.9 175.25 117.1 175.3 117.3 175.3 117.45 175.35 117.7 175.35 118.1 175.4 118.45 175.4 118.55 175.4 118.6 175.45 118.85 175.7 119.25 175.6 119.3 175.6 119.35 175.6 119.5 175.7 119.65 175.75 119.75 175.75 119.85 175.75 119.95 175.8 120.1 175.8 120.85 175.9 121.6 175.9 121.7 175.9 121.75 175.85 121.85 175.8 121.95 175.75 122.1 175.75 122.2 175.65 122.25 175.6 122.3 175.5 122.35 175.35 122.35 175.25 122.35 174.65 122.3 174.05 122.3 173.7 122.75 173.8 122.8 173.8 122.85 173.8 123.4 173.95 124.05 174 124.4 174 124.3 173.65 124.3 173.4 124.1 173.15 123.55 172.55 123.15 171.95 123 171.75 122.85 171.5 122.75 171.3 122.7 171.15 122.65 171.1 122.6 171 122.55 170.9 122.55 170.8 122.55 170.6 122.45 170.4 122.3 170.15 122.35 169.8 122.35 169.6 122.3 169.4 122.25 169.25 122.25 169.1 122.2 168.6 122.2 168.15 122.2 168 122.2 167.85 122.2 167.75 122.15 167.6 122.1 166.5 122.1 165.5 122.1 164.4 122.1 163.3 122.1 163.05 122.1 162.8
L 122.1 162.35
Q 122.15 162.1 122.2 161.95 122.25 161.95 122.25 161.9 122.55 161.85 122.85 161.85 123 161.85 123.2 161.85 123.35 161.95 123.5 161.95 123.75 162.1 124.1 162.3 124.2 162.4 124.25 162.4 124.3 162.45 124.4 162.5 124.6 162.6 124.7 162.75 124.95 163.05 125.25 163.2 125.5 163.4 125.7 163.45 125.85 163.55 126 163.55 126.2 163.5 126.45 163.4 126.55 163.35 126.65 163.3 127.1 162.95 127.55 162.45 127.6 162.4 127.65 162.3 127.65 162.15 127.7 162 127.8 161.75 127.95 161.5 128.2 160.95 128.55 160.5 129.2 159.6 129.85 158.7 130 158.6 130.05 158.5 130.1 158.4 130.2 158.3 130.45 158.1 130.6 157.8 130.65 157.7 130.7 157.65 130.8 157.55 130.9 157.45 131.1 157.05 131.3 156.85 131.45 156.75 131.55 156.6 131.6 156.55 131.65 156.4 131.75 156.15 131.9 156 132.05 155.9 132.1 155.75 132.2 155.4 132.5 155.2 132.6 155.1 132.7 155 132.85 154.8 133.05 154.6 134.1 153.95 134.95 153.1 135.1 153 135.45 152.65 135.75 152.35 136.05 152.1 136.6 151.65 137 151.2 137.2 151 137.2 150.65 137.2 150.6 137.15 150.55 137.05 150.45 137 150.35 136.65 150.1 136.25 150.2 136.1 150.2 136 150.15 135.75 150.1 135.5 150.1 134.3 150.1 133.55 149.25 133.5 149.15 133.4 149 133.35 148.95 133.3 148.85 133.25 148.55 133.55 148.5 133.75 148.5 133.95 148.45 134.05 148.45 134.15 148.45 134.4 148.4 134.55 148.35 134.65 148.35 134.7 148.3 135.1 148.25 135.5 148.25 135.8 148.25 136.05 148.05 136.15 147.8 136.25 147.7 136.7 147.15 136.7 146.55 136.7 146.35 136.8 146.25 136.9 146 136.8 145.7 136.8 145.65 136.85 145.55 136.9 145.45 136.95 145.3 137 145.2 137 145.1 137.05 144.9 137 144.7 137 144.35 137.15 144.1 137.25 144.05 137.3 143.9 137.3 143.75 137.4 143.7 137.5 143.55 137.55 143.35 137.6 143.25 137.65 143.2 138.05 142.75 138.3 142.25 138.45 141.95 138.55 141.7 138.6 141.6 138.65 141.45 138.75 141.35 138.75 141.3 138.9 141 138.95 140.75 138.95 140.7 138.95 140.65 139.1 140.3 139.05 139.95 139.05 139.85 139.1 139.75 139.15 139.65 139.15 139.5 139.2 139.05 139.2 138.65 139.2 138.45 139.25 138.25 139.3 137.9 139.15 137.65 139.1 137.55 139 137.45 138.85 137.2 138.5 137.1 138.35 137.05 138.2 137 137.8 136.8 137.55 136.55 137.5 136.45 137.45 136.3 137.35 136.05 137.3 135.8 137.25 135.15 137.55 134.7 137.65 134.65 137.7 134.55 137.75 134.4 137.8 134.35 138.15 133.85 138.75 133.65 138.85 133.65 138.95 133.6 139.2 133.5 139.45 133.35 139.55 133.35 139.7 133.35 140 133.3 140.2 133.15 140.35 133.1 140.45 133.05 140.5 133 140.5 132.95 140.6 132.9 140.75 132.8 140.85 132.8 140.9 132.75 141.05 132.55 141.35 132.6 142 132.75 142.15 132.05 142.2 131.95 142.2 131.85 142.25 131.7 142.3 131.55 142.3 131.15 142.15 130.9 142.1 130.8 142.05 130.7 142 130.6 141.9 130.55 141.85 130.55 141.8 130.55 141.55 130.55 141.35 130.55 140.4 130.55 139.45 130.55 138.55 130.55 137.75 130.55 137.55 130.6 137.35 130.6 137.15 130.6 137 130.7 136.95 130.75 136.8 130.75 136.05 130.75 135.35 130.8 135.25 130.8 135.1 130.85 134.9 130.95 134.6 131.1 134.55 131.15 134.5 131.3 134.4 131.55 134.1 131.5 133.95 131.45 133.75 131.4 133.6 131.35 133.5 131.2 132.8 130.35 132.1 129.45 131.8 129.15 131.45 129 131.15 128.9 131.1 128.55 131.1 128.45 131 128.35 130.95 128.3 130.9 128.15 130.85 128.1 130.85 127.95 130.85 127.7 130.9 127.4 130.9 127.3 131 127.2 131.1 127.1 131.15 127 131.6 126.75 132.2 126.75 132.55 126.8 132.95 126.75 133.2 126.75 133.5 126.85 133.55 126.85 133.65 126.85 134.25 126.95 134.8 126.65
L 134.85 126.65
Q 134.9 126.6 134.95 126.55 135.7 125.8 136.55 125.15 136.7 125.05 136.8 125 136.95 124.9 137.05 124.8 137.55 124.35 138.2 124.15 138.3 124.15 138.35 124.15 139.2 124.15 140 124.2 140.1 124.25 140.2 124.3 140.55 124.75 140.75 125.25 140.85 125.45 140.9 125.6 141 126 141.2 126.2 141.25 126.3 141.35 126.3 141.45 126.35 141.5 126.3 141.7 126.3 141.85 126.2 142.95 125.75 143.4 124.75 143.7 124.25 143.85 123.65 143.9 123.55 143.9 123.4 144.05 123.1 144.05 122.75 144.05 122.65 144.1 122.5 144.1 122.45 144.1 122.3 144.2 122.15 144.25 122.05 144.3 121.95 144.35 121.85 144.4 121.7 144.55 121.75 144.85 121.95 144.85 122.3 144.9 122.85 144.9 123.5 144.9 123.55 144.9 123.65 144.95 123.85 144.95 124 144.9 124.5 145.4 124.55 145.7 124.55 145.95 124.55 146.1 124.55 146.15 124.45 146.25 124.35 146.35 124.25 146.55 123.95 146.6 123.55 146.65 123.4 146.65 123.2 146.65 122.65 146.6 122.2 146.6 122.1 146.5 122 146.5 121.85 146.45 121.75 146.4 121.65 146.35 121.55 146.35 121.5 146.35 121.4 146.3 121.2 146.25 121.05 145.9 120 145.3 119.1 145.25 119 145.15 118.9 144.95 118.6 144.8 118.35 144.7 118.25 144.65 118.15 144.55 117.95 144.5 117.75 144.45 117.6 144.45 117.45 144.45 117.35 144.45 117.3 144.4 117.25 144.4 117.15 144.2 117 144.15 116.7 144.15 116.65 144.1 116.6 144 116.15 144 115.65 144 114.75 144.1 113.9 144.1 113.8 144.15 113.7 144.4 113.2 144.85 112.8 145 112.6 145.35 112.65 145.45 112.65 145.6 112.7 145.7 112.7 145.7 112.75 145.85 112.9 145.9 113 146.05 113.25 146.05 113.6 146.05 114.6 146 115.65 146 115.75 146 115.85 145.95 116.45 145.95 117.05 145.95 117.2 146.05 117.4 146.1 117.55 146.2 117.55 146.35 117.6 146.4 117.6 146.7 117.6 146.9 117.5 147.05 117.45 147.15 117.35 147.25 117.25 147.35 117.1 147.9 116.6 148.2 115.85 148.3 115.6 148.35 115.35 148.45 115.15 148.5 114.85 148.6 114.7 148.65 114.6 148.9 114.05 149.2 113.45 149.25 113.35 149.3 113.2 149.45 112.8 149.7 112.4 149.8 112.2 149.9 112.1 150.15 111.75 150.25 111.55 150.35 111.35 150.4 111.2 150.5 111.1 150.5 111 150.85 110.4 151.3 109.85 151.35 109.85 151.35 109.75 151.4 109.65 151.5 109.5 151.6 109.4 151.65 109.3 151.75 109.2 151.85 109.05 152.6 108.25 153.2 107.25 153.3 107.15 153.3 106.95 153.3 106.85 153.35 106.75 153.4 106.65 153.45 106.5 153.45 106.4 153.5 106.35 153.6 106.2 153.7 106 153.75 106 153.75 105.95 153.8 105.8 153.85 105.75 153.95 105.65 154.05 105.6 154.15 105.45 154.25 105.3 154.3 105.2 154.4 105.1 154.45 105.05 154.5 105 154.75 104.7 155.05 104.35 155.25 104.25 155.4 104.05 155.75 103.55 156.25 103.15 156.65 102.8 156.9 102.3 157.05 102.1 157.6 101.1 158.1 100.15 158.4 99.7 158.7 99.3 158.85 98.75 159.05 98.2 159.25 97.95 159.45 97.7 159.55 97.6 159.6 97.45 159.65 97.55 159.7 97.7 159.9 97.45 160.05 97.3 160.05 97.1 160.1 97 160.15 96.9 160.15 96.8 160.2 96.65 160.35 96.4 160.45 96.1 160.5 95.8 160.65 95.5 160.65 95.45 160.7 95.4 160.85 95.2 160.95 94.95 161.15 94.35 161.5 93.9 161.7 93.5 162 93.2 162.1 93.05 162.1 92.95 162.2 92.55 162.55 92.2 162.8 91.95 162.95 91.6 163 91.5 163.1 91.4 163.65 90.4 164.5 89.55 164.6 89.45 164.6 89.2 164.65 89.1 164.75 89 164.85 88.9 164.95 88.75 165.1 88.55 165.2 88.45 165.2 88.35 165.3 88.3 165.3 88.15 165.3 88.05 165.3 87.8 165.3 87.55 165.25 87.3 165.15 87.1 165.1 87.1 165.1 87 165.1 86.85 165.1 86.75 165.1 86.55 164.95 86.4 164.85 86.15 164.85 85.9 164.9 85.6 164.85 85.3 164.85 85.25 164.8 85.15 164.75 85.05 164.75 84.9 164.65 84.65 164.65 84.5 164.65 84.4 164.6 84.25 164.6 84.2 164.6 84.15 164.6 84 164.5 83.9 164.2 83.45 164.25 82.9 164.3 82.3 164.25 81.75 164.25 81.7 164.2 81.6 164.15 81.6 164.1 81.6 163.45 81.5 162.9 81.75 162.8 81.85 162.7 81.9 162.6 82.05 162.4 82.05
M 54.05 2.85
Q 54.1 2.8 54.25 2.75 54.15 2.8 54.15 2.85 54.1 2.85 54.05 2.85 Z"/>
</g>

<!-- </defs> -->

<!-- <g id="fotos" transform="matrix( 1, 0, 0, 1, 158.8,8.95) ">
<g id="mh_d_34_ct_1" transform="matrix( 1, 0, 0, 1, 0,0) ">
<g id="ch" transform="matrix( 1, 0, 0, 1, 0,0) ">
<g transform="matrix( 1, 0, 0, 1, 0,0) ">
<use xlink:href="#msk_0_0_Layer0_0_FILL"/>
</g>
</g>

<g id="msk" transform="matrix( 1, 0, 0, 1, 0,0) ">
<g transform="matrix( 1, 0, 0, 1, 0,0) ">
<use xlink:href="#msk_0_0_Layer0_0_FILL"/>
</g>
</g>
</g>

<g transform="matrix( 1, 0, 0, 1, 0,0) ">
<use xlink:href="#fotos_0_Layer0_0_1_STROKES"/>
</g>
</g> -->
</svg>
