

<svg xmlns="http://www.w3.org/2000/svg" id = "fotos"  version="1.1" xmlns:xlink="http://www.w3.org/1999/xlink" preserveAspectRatio="none" viewBox="-114230 -73900 160000 159756" >
<!-- <defs> -->
<!--  -->
<defs><linearGradient id="solids14878" x1="0" y1="0" x2="0" y2="1"><stop offset="0%" style="stop-color:rgb(0, 64, 0);stop-opacity:1" />
           <stop offset="100%" style="stop-color:rgb(0, 64, 0);stop-opacity:1" /></linearGradient > </defs >
<g id = '14878'>
<path id = '14878' stroke="#000000"  name = "Bangalore"  fill="url(#solids14878)"  stroke-width="1" stroke-linejoin="round" stroke-linecap="round" d="
M 316.3823593139648 172.88339843749998
Q 316.8911193847656 173.90091857910153 316.8911193847656 174.96468963623045 317.3998794555664 175.982209777832 317.9086395263672 176.4909698486328 318.97241058349607 178.01725006103516 318.97241058349607 179.58978118896482
L 319.4811706542969 180.09854125976562
Q 320.4986907958985 181.6710723876953 321.0074508666992 183.19735260009764 321.0074508666992 184.2148727416992 321.0074508666992 185.2786437988281 321.5162109375 187.82244415283202 322.57998199462895 189.9037353515625 323.08874206542964 190.92125549316404 323.59750213623045 191.9387756347656 323.59750213623045 193.0025466918945 324.10626220703125 193.5113067626953 324.10626220703125 194.02006683349606 324.61502227783205 194.02006683349606 325.12378234863286 194.52882690429686 325.12378234863286 195.03758697509767 323.59750213623045 197.11887817382814 319.9899307250977 200.7264495849609 318.46365051269527 202.25272979736326 316.8911193847656 203.82526092529298 316.3823593139648 204.33402099609373 316.3823593139648 205.35154113769528 316.3823593139648 206.3690612792969 315.8735992431641 206.924072265625 315.8735992431641 207.43283233642575 315.3648391723633 207.94159240722655 314.30106811523433 211.04040374755857 314.30106811523433 214.6479751586914 314.30106811523433 215.66549530029295 314.30106811523433 216.17425537109375 314.8560791015625 218.76430664062497 315.8735992431641 220.84559783935543 315.8735992431641 221.35435791015624 315.8735992431641 221.86311798095704 316.8911193847656 222.8806381225586 316.8911193847656 224.45316925048826 316.8911193847656 224.96192932128906 316.8911193847656 225.4706893920898 317.9086395263672 226.99696960449216 318.46365051269527 230.09578094482418
L 318.97241058349607 230.604541015625
Q 320.4986907958985 234.72087249755856 319.9899307250977 239.9009750366211 319.9899307250977 240.40973510742188 319.4811706542969 240.91849517822263 318.97241058349607 241.4272552490234 318.97241058349607 242.9997863769531 318.46365051269527 245.543586730957 317.3998794555664 248.13363800048825 316.8911193847656 250.72368927001952 316.8911193847656 253.3137405395508 316.8911193847656 258.447592163086 315.8735992431641 263.6276947021484 315.3648391723633 264.64521484375 314.8560791015625 265.1539749145508
L 314.8560791015625 265.6627349853515
Q 314.30106811523433 267.2352661132813 313.79230804443364 268.7615463256836 313.79230804443364 269.2703063964844 313.79230804443364 269.7790664672852 313.28354797363284 271.35159759521486 312.2660278320312 272.87787780761715 311.7572677612304 274.4504089355468 311.7572677612304 275.97668914794923 311.7572677612304 276.48544921875003 311.24850769042973 276.9942092895507 311.24850769042973 278.0579803466797 311.24850769042973 279.0755004882812 311.24850769042973 280.0930206298828 310.69349670410156 280.6017807006836 310.18473663330076 281.1105407714844 310.18473663330076 281.66555175781247 308.65845642089846 282.17431182861327 307.64093627929685 282.6830718994141 307.0859252929688 283.1918319702149 306.577165222168 283.1918319702149 306.0684051513672 283.70059204101557 305.5596450805664 284.2093521118164 304.0333648681641 284.7181121826172 302.9695938110351 286.29064331054684 302.4608337402344 286.79940338134764 302.4608337402344 288.3719345092773 302.4608337402344 288.8806945800781 302.4608337402344 289.3894546508789 302.4608337402344 291.9795059204102 301.4433135986328 294.0145462036133 301.4433135986328 294.5233062744141 301.4433135986328 295.0320663452148 300.37954254150395 296.09583740234376 299.87078247070315 297.62211761474606 299.36202239990234 298.63963775634767 298.85326232910154 298.63963775634767 298.34450225830074 298.63963775634767 297.32698211669924 299.1946487426757 295.7544509887696 300.21216888427733 293.71941070556636 300.72092895507814 293.1643997192383 301.22968902587894 292.6556396484375 301.22968902587894 287.5217880249023 301.73844909667963 283.40545654296875 299.7034088134765 281.8329254150391 298.63963775634767 280.3066452026367 298.63963775634767 279.797885131836 298.63963775634767 278.734114074707 298.13087768554686 278.2253540039062 298.13087768554686 277.7165939331055 298.13087768554686 277.2078338623047 297.62211761474606 276.1903137207031 297.62211761474606 265.8763595581055 297.62211761474606 256.07116546630857 297.62211761474606 255.5624053955078 297.62211761474606 255.05364532470705 297.62211761474606 254.54488525390627 298.63963775634767 253.48111419677733 298.63963775634767 252.97235412597658 298.63963775634767 251.954833984375 298.63963775634767 251.4460739135742 299.1946487426757 250.38230285644534 299.1946487426757 248.85602264404295 300.21216888427733 246.77473144531248 301.22968902587894 246.26597137451174 301.73844909667963 245.75721130371096 301.73844909667963 245.75721130371096 302.24720916748043 245.75721130371096 302.8022201538086 245.24845123291016 303.3109802246094 244.73969116210935 303.3109802246094 243.7221710205078 303.8197402954101 242.65839996337888 304.8372604370117 241.13211975097659 305.3460205078125 237.52454833984376 307.9360717773438 233.91697692871094 305.8547805786133 232.34444580078127 304.3285003662109 230.3094055175781 302.8022201538086 229.2456344604492 301.73844909667963 228.73687438964845 301.22968902587894 228.73687438964845 300.21216888427733 228.73687438964845 298.63963775634767 227.7193542480469 297.62211761474606 227.7193542480469 297.11335754394526 227.7193542480469 296.60459747314457 228.22811431884764 291.424494934082 225.63806304931643 288.3719345092773 225.12930297851562 287.30816345214845 225.12930297851562 286.29064331054684 224.62054290771482 283.70059204101557 225.63806304931643 282.17431182861327 226.7018341064453 279.584260559082 227.2105941772461 276.9942092895507 227.7193542480469 275.97668914794923 228.22811431884764 274.9591690063476 228.22811431884764 274.4504089355468 228.22811431884764 273.38663787841796 227.7193542480469 270.84283752441405 226.7018341064453 268.2527862548828 226.19307403564454 266.1714950561523 225.12930297851562 265.6627349853515 224.62054290771482 265.6627349853515 224.11178283691407 265.6627349853515 219.4866912841797 265.6627349853515 216.89664001464843 267.744026184082 215.37035980224607 268.7615463256836 212.78030853271486 268.7615463256836 210.19025726318358 268.7615463256836 208.66397705078123 267.2352661132813 208.15521697998048 266.6802551269531 207.60020599365237 265.6627349853515 207.09144592285156 265.6627349853515 206.58268585205076 265.1539749145508 206.58268585205076 264.64521484375 206.58268585205076 264.1364547729492 206.07392578125 262.56392364501954 208.15521697998048 262.05516357421874 208.66397705078123 262.05516357421874 209.17273712158203 261.54640350341793 210.6990173339844 261.03764343261713 212.27154846191405 260.02012329101564
L 212.27154846191405 259.46511230468747
Q 213.2890686035156 258.447592163086 212.78030853271486 256.92131195068356 212.78030853271486 256.4125518798828 213.7978286743164 256.4125518798828 214.81534881591796 256.4125518798828 215.87911987304688 255.8575408935547 216.38787994384768 255.8575408935547 216.89664001464843 255.8575408935547 218.9779312133789 255.8575408935547 219.99545135498045 255.3487808227539 220.50421142578125 255.3487808227539 221.01297149658205 255.3487808227539 222.0304916381836 254.8400207519531 222.0304916381836 253.82250061035157 222.58550262451172 253.3137405395508 222.58550262451172 252.24996948242185 223.09426269531252 246.60735778808595 221.01297149658205 242.9997863769531
L 220.50421142578125 242.49102630615235
Q 219.4866912841797 241.9360153198242 218.9779312133789 240.40973510742188
L 218.42292022705078 239.9009750366211
Q 216.38787994384768 239.9009750366211 213.7978286743164 239.9009750366211 213.2890686035156 240.40973510742188 212.78030853271486 240.40973510742188 211.7627883911133 241.4272552490234 211.20777740478513 242.49102630615235 210.6990173339844 242.9997863769531 210.19025726318358 242.9997863769531 210.19025726318358 243.50854644775387 210.19025726318358 244.01730651855468 209.68149719238284 244.52606658935548 209.17273712158203 244.52606658935548 205.5651657104492 246.60735778808595 201.44883422851564 246.60735778808595 200.94007415771483 247.11611785888672 200.38506317138672 247.11611785888672 197.8412628173828 248.13363800048825 197.332502746582 250.72368927001952 197.332502746582 251.23244934082032 196.7774917602539 251.23244934082032 195.75997161865234 252.80498046875 194.7424514770508 253.82250061035157 193.72493133544924 254.33126068115232 192.15240020751952 255.3487808227539
L 191.64364013671877 255.8575408935547
Q 190.62611999511716 257.43007202148436 189.0535888671875 258.447592163086 189.0535888671875 258.95635223388666 188.5448287963867 258.95635223388666 186.46353759765623 258.95635223388666 184.42849731445312 259.46511230468747 182.85596618652346 259.46511230468747 181.83844604492185 260.52888336181644 181.3296859741211 260.52888336181644 180.8209259033203 260.52888336181644 178.73963470458983 261.54640350341793 176.19583435058593 261.03764343261713 172.5882629394531 260.52888336181644 171.01573181152344 257.93883209228517 169.9982116699219 255.3487808227539 168.42568054199216 253.3137405395508 168.42568054199216 252.80498046875 168.42568054199216 252.24996948242185 167.91692047119142 251.23244934082032 167.4081604003906 250.21492919921872 167.4081604003906 249.70616912841794 167.4081604003906 249.15115814208986 167.4081604003906 248.13363800048825 166.89940032958987 247.11611785888672 166.39064025878906 246.60735778808595 164.8181091308594 244.52606658935548 164.8181091308594 244.01730651855468 164.3093490600586 243.50854644775387 163.29182891845704 240.40973510742188 163.8005889892578 237.31092376708983 163.8005889892578 235.78464355468748 163.29182891845704 235.27588348388673 163.29182891845704 234.72087249755856 163.29182891845704 234.2121124267578 162.78306884765624 233.703352355957 162.2743087768555 233.19459228515626 161.21053771972657 231.6683120727539 160.19301757812502 231.1133010864258 159.68425750732422 231.1133010864258 159.17549743652341 230.604541015625 157.60296630859375 229.07826080322263 155.05916595458984 229.07826080322263 154.50415496826173 229.07826080322263 153.99539489746093 228.5695007324219 150.8965835571289 228.06074066162108 148.352783203125 226.48820953369142 147.8440231323242 226.48820953369142 146.78025207519534 225.9794494628906 145.76273193359373 224.96192932128906 144.74521179199218 223.89815826416014 143.1726806640625 220.84559783935543 142.15516052246096 218.76430664062497 140.6288803100586 216.17425537109375 138.54758911132814 212.56668395996093 138.54758911132814 212.05792388916012 138.54758911132814 211.54916381835938 139.05634918212888 208.9591125488281 138.03882904052733 206.924072265625 138.03882904052733 206.3690612792969 138.03882904052733 205.86030120849608 137.53006896972659 205.86030120849608 137.02130889892578 205.35154113769528 137.02130889892578 204.84278106689453 137.02130889892578 204.33402099609373 136.46629791259767 204.33402099609373 135.95753784179686 203.82526092529298 135.95753784179686 203.31650085449218 135.95753784179686 202.76148986816406 134.9400177001953 200.21768951416016 133.92249755859376 198.1363983154297 132.85872650146484 196.10135803222653 129.80616607666013 196.10135803222653 124.62606353759764 196.10135803222653 121.01849212646485 193.5113067626953 116.90216064453125 190.4124954223633 111.21329803466796 190.4124954223633 110.70453796386718 190.92125549316404 110.1957778930664 190.4124954223633 109.68701782226563 190.4124954223633 108.66949768066405 190.4124954223633 108.11448669433594 190.4124954223633 107.60572662353516 189.39497528076168
L 107.09696655273439 188.88621520996094
Q 105.57068634033203 187.82244415283202 106.0794464111328 185.2786437988281 106.0794464111328 184.7236328125 106.58820648193358 183.70611267089845
L 107.09696655273439 183.19735260009764
Q 107.09696655273439 182.68859252929684 107.09696655273439 182.1798324584961 107.09696655273439 180.09854125976562 107.60572662353516 178.57226104736327 107.60572662353516 175.47344970703125 107.09696655273439 173.39215850830078 106.58820648193358 171.86587829589843 106.58820648193358 169.78458709716796
L 106.0794464111328 169.27582702636715
Q 106.0794464111328 168.2583068847656 106.0794464111328 166.68577575683594 105.57068634033203 164.65073547363278 105.57068634033203 162.06068420410156 105.06192626953126 159.9793930053711 103.99815521240234 158.45311279296874 102.47187500000001 156.37182159423827 103.48939514160156 153.82802124023436 103.48939514160156 153.31926116943356 103.48939514160156 152.76425018310545 103.99815521240234 152.76425018310545 104.50691528320311 152.2554901123047 106.0794464111328 151.2379699707031 106.58820648193358 149.15667877197262
L 107.09696655273439 148.64791870117188
Q 108.11448669433594 147.63039855957032 108.66949768066405 146.10411834716797 109.68701782226563 145.04034729003905 110.70453796386718 143.5140670776367 111.21329803466796 143.00530700683595 111.72205810546876 141.94153594970703
L 112.27706909179688 141.94153594970703
Q 112.78582916259765 141.43277587890623 113.29458923339843 140.92401580810548 115.32962951660156 139.90649566650387 117.41092071533203 137.8252044677734 117.9196807861328 137.8252044677734 117.9196807861328 137.31644439697266 120.50973205566407 135.2351531982422 124.11730346679687 135.2351531982422 125.64358367919922 135.2351531982422 126.70735473632811 134.72639312744138 127.21611480712892 134.72639312744138 127.21611480712892 134.21763305664064 127.72487487792968 132.18259277343748 128.23363494873047 130.101301574707 129.80616607666013 128.57502136230468 129.80616607666013 127.002490234375 129.80616607666013 126.49373016357421 129.80616607666013 125.98497009277345 130.31492614746094 124.96744995117189 130.82368621826174 123.39491882324218 131.3324462890625 121.35987854003908 133.41373748779296 120.29610748291016 133.92249755859376 119.78734741210937 133.92249755859376 119.27858734130861 137.02130889892578 116.68853607177734 138.54758911132814 113.58972473144532 138.54758911132814 113.08096466064454 138.54758911132814 112.57220458984376 139.5651092529297 110.53716430664063 139.05634918212888 107.94711303710939 139.05634918212888 107.43835296630859 139.05634918212888 106.3745819091797 138.54758911132814 104.33954162597657 136.46629791259767 102.76701049804687 134.4312576293945 101.24073028564455 136.46629791259767 99.66819915771485 137.02130889892578 99.15943908691408 137.53006896972659 98.65067901611327 139.5651092529297 97.63315887451172 141.64640045166016 97.12439880371095 143.1726806640625 96.61563873291017 143.68144073486326 95.55186767578125 144.74521179199218 94.5343475341797 145.76273193359373 93.51682739257812 145.76273193359373 93.00806732177735 145.76273193359373 92.45305633544923 146.27149200439453 91.94429626464843 146.78025207519534 91.43553619384765 147.8440231323242 88.84548492431641 147.8440231323242 86.3016845703125 147.8440231323242 85.23791351318359 146.78025207519534 84.72915344238281 146.27149200439453 84.22039337158203 145.76273193359373 83.71163330078126 144.74521179199218 81.63034210205079 143.1726806640625 79.59530181884766 143.1726806640625 79.08654174804688 143.1726806640625 78.57778167724611 143.1726806640625 74.97021026611328 143.1726806640625 71.36263885498046 143.68144073486326 71.36263885498046 143.68144073486326 70.80762786865235 144.74521179199218 70.80762786865235 144.74521179199218 69.28134765624999 146.27149200439453 67.20005645751952 146.27149200439453 65.6737762451172
L 146.78025207519534 65.1650161743164
Q 146.78025207519534 64.65625610351562 146.78025207519534 64.1012451171875 146.78025207519534 62.574964904785155 147.28901214599608 61.5574447631836 147.28901214599608 59.9849136352539 147.28901214599608 58.45863342285156 147.8440231323242 58.45863342285156 147.8440231323242 57.94987335205079 148.352783203125 55.86858215332032 149.37030334472655 53.27853088378906 149.87906341552736 52.26101074218751 149.87906341552736 51.75225067138672 150.3878234863281 51.24349060058594 150.3878234863281 50.22597045898438 150.3878234863281 47.127159118652344 150.3878234863281 44.5371078491211 153.48663482666018 39.403256225585935 153.99539489746093 36.81320495605469 153.99539489746093 35.795684814453125 153.99539489746093 34.223153686523446 153.99539489746093 30.615582275390626 157.60296630859375 29.59806213378906 158.15797729492186 29.59806213378906 158.15797729492186 29.089302062988278 159.68425750732422 28.025531005859374 161.7655487060547 28.534291076660157 162.78306884765624 28.534291076660157 163.29182891845704 29.089302062988278 163.8005889892578 29.089302062988278 164.3093490600586 29.59806213378906 165.88188018798826 31.12434234619141 167.91692047119142 31.633102416992184 169.9982116699219 31.633102416992184 171.52449188232424 30.615582275390626 171.52449188232424 30.106822204589843 171.52449188232424 29.59806213378906 172.033251953125 29.089302062988278 173.6057830810547 28.025531005859374
L 174.11454315185546 28.025531005859374
Q 175.132063293457 27.51677093505859 175.6408233642578 27.51677093505859 176.19583435058593 27.51677093505859 176.19583435058593 27.00801086425781 176.70459442138673 25.99049072265625 178.23087463378909 25.99049072265625 178.73963470458983 25.99049072265625 178.73963470458983 25.481730651855468 180.31216583251955 23.909199523925782 182.34720611572266 23.400439453125 182.85596618652346 23.400439453125 182.85596618652346 22.891679382324217 183.91973724365232 21.87415924072266 185.44601745605468 21.31914825439453 185.95477752685548 21.31914825439453 185.95477752685548 20.810388183593748 189.5623489379883 17.71157684326172 194.23369140625 16.185296630859373 194.7424514770508 19.284107971191407 193.16992034912107 20.301628112792965 192.15240020751952 20.810388183593748 192.15240020751952 21.87415924072266 192.15240020751952 22.891679382324217 191.64364013671877 23.400439453125 191.13488006591797 24.92671966552734 192.15240020751952 25.99049072265625 192.15240020751952 26.499250793457033 192.15240020751952 27.00801086425781
L 192.66116027832032 27.51677093505859
Q 197.332502746582 27.51677093505859 202.4663543701172 28.025531005859374 202.975114440918 28.025531005859374 203.48387451171874 28.534291076660157 205.5651657104492 29.59806213378906 207.09144592285156 31.12434234619141 207.60020599365237 31.12434234619141 208.15521697998048 31.12434234619141 208.66397705078123 31.633102416992184 209.68149719238284 32.14186248779297 210.19025726318358 32.14186248779297 210.6990173339844 32.14186248779297 211.7627883911133 33.20563354492188 213.2890686035156 33.20563354492188 213.7978286743164 33.20563354492188 214.3065887451172 33.20563354492188 216.89664001464843 34.223153686523446 219.4866912841797 34.73191375732422 219.99545135498045 35.240673828125 220.50421142578125 35.240673828125 223.60302276611327 35.795684814453125 224.62054290771482 33.20563354492188
L 225.12930297851562 32.69687347412109
Q 227.2105941772461 32.69687347412109 229.2456344604492 33.714393615722656 229.80064544677737 33.714393615722656 229.80064544677737 34.223153686523446 230.81816558837892 34.73191375732422 231.32692565917966 34.73191375732422 236.5070281982422 37.321965026855466 240.62335968017578 39.403256225585935 242.14963989257814 39.912016296386724 242.65839996337888 38.84824523925782 244.2309310913086 35.795684814453125 242.14963989257814 33.714393615722656 241.64087982177733 32.69687347412109 241.13211975097659 31.12434234619141 243.1671600341797 30.106822204589843 245.24845123291016 30.106822204589843 246.77473144531248 30.106822204589843 247.32974243164062 29.089302062988278 246.77473144531248 31.633102416992184 246.77473144531248 34.223153686523446 246.77473144531248 35.795684814453125 247.83850250244143 35.795684814453125
L 248.3472625732422 36.304444885253915
Q 251.4460739135742 37.321965026855466 254.54488525390627 36.81320495605469
L 255.05364532470705 36.81320495605469
Q 256.07116546630857 36.81320495605469 257.597445678711 35.795684814453125 257.597445678711 35.240673828125 258.15245666503904 35.240673828125 260.69625701904295 35.240673828125 261.7600280761719 33.20563354492188
L 262.2687881469726 33.20563354492188
Q 263.795068359375 32.14186248779297 265.8763595581055 32.14186248779297 267.9113998413086 32.14186248779297 269.48393096923826 31.12434234619141 269.99269104003906 35.795684814453125 269.99269104003906 41.438296508789065 269.99269104003906 43.01082763671876 270.50145111083987 45.045867919921875 270.50145111083987 48.14467926025391 270.50145111083987 51.75225067138672 271.01021118164067 52.26101074218751 271.01021118164067 52.769770812988284 271.01021118164067 54.34230194091798 272.07398223876953 55.35982208251953 272.58274230957034 56.377342224121094 273.09150238037114 57.94987335205079 273.09150238037114 58.45863342285156 273.60026245117183 58.96739349365235 274.10902252197263 59.9849136352539 274.10902252197263 60.493673706054686 274.61778259277344 62.574964904785155 275.12654266357424 63.083724975585945 275.6815536499023 64.65625610351562 276.6990737915039 65.6737762451172 277.2078338623047 66.69129638671875 277.2078338623047 67.20005645751952 278.2253540039062 69.28134765624999 280.3066452026367 70.80762786865235 280.8154052734375 70.80762786865235 281.3241653442383 70.80762786865235 281.8329254150391 71.36263885498046 282.3416854858399 71.87139892578126 282.89669647216795 71.87139892578126 283.40545654296875 71.87139892578126 284.42297668457036 72.38015899658204 285.44049682617185 72.38015899658204 287.0130279541015 72.38015899658204 287.0130279541015 73.90643920898437 287.0130279541015 74.41519927978517 287.0130279541015 74.97021026611328 287.0130279541015 77.51401062011719 287.0130279541015 80.10406188964843 287.0130279541015 81.63034210205079 286.5042678833008 83.20287322998048 285.44049682617185 85.23791351318359 285.44049682617185 88.33672485351563 285.94925689697266 88.84548492431641 285.44049682617185 88.84548492431641 284.42297668457036 90.92677612304688 283.40545654296875 93.51682739257812 282.89669647216795 95.55186767578125 282.89669647216795 98.1419189453125 283.40545654296875 100.73197021484374 284.93173675537105 102.76701049804687 286.5042678833008 104.84830169677734 288.53930816650393 105.86582183837892 289.04806823730473 106.3745819091797 289.04806823730473 106.92959289550781 289.5568283081054 106.92959289550781 290.1118392944336 106.92959289550781 291.6381195068359 107.43835296630859 292.6556396484375 108.96463317871094 293.1643997192383 109.47339324951172 293.71941070556636 109.47339324951172 295.2456909179688 111.55468444824218 295.7544509887696 113.58972473144532 298.34450225830074 118.7698272705078 297.83574218750005 123.90367889404298 297.32698211669924 124.96744995117189 296.77197113037107 124.96744995117189 296.77197113037107 125.47621002197265 296.26321105957027 125.47621002197265 294.73693084716797 127.51125030517579 295.7544509887696 130.101301574707 296.77197113037107 132.69135284423828 298.85326232910154 134.21763305664064 299.87078247070315 135.2351531982422 299.87078247070315 136.2989242553711 300.37954254150395 136.80768432617185 300.37954254150395 137.31644439697266 300.37954254150395 138.3339645385742 300.37954254150395 139.39773559570312
L 300.934553527832 139.90649566650387
Q 300.934553527832 142.45029602050778 300.934553527832 144.53158721923825 301.4433135986328 147.63039855957032 299.87078247070315 149.7116897583008 298.85326232910154 151.2379699707031 298.85326232910154 153.31926116943356 298.85326232910154 153.82802124023436 298.34450225830074 154.33678131103517 298.34450225830074 156.37182159423827 299.36202239990234 157.94435272216793 299.36202239990234 158.45311279296874 299.87078247070315 158.45311279296874 301.4433135986328 159.4706329345703 302.4608337402344 161.0431640625 303.4783538818359 161.55192413330076 304.0333648681641 161.55192413330076 304.5421249389649 162.06068420410156 305.0508850097656 162.5694442749023 306.577165222168 163.58696441650392 308.65845642089846 163.58696441650392 309.16721649169926 164.14197540283203 309.67597656249995 164.14197540283203 311.7572677612304 166.17701568603513 313.79230804443364 167.74954681396486 314.30106811523433 168.2583068847656 314.30106811523433 168.7670669555664 315.3648391723633 170.8021072387695 316.3823593139648 172.88339843749998 Z"/>
<!-- </g> -->
</g>
</svg>
