<svg width="511.626" height="511.627" xmlns="http://www.w3.org/2000/svg">

 <g>
  <title>background</title>
  <rect fill="none" id="canvas_background" height="402" width="582" y="-1" x="-1"/>
 </g>
 <g>
  <title>Layer 1</title>
  <g stroke="null" id="svg_1">
   <path stroke="null" fill="#d93637" id="svg_2" d="m496.4391,180.046978l-139.895207,-138.498063c-3.461469,-3.426969 -7.558385,-5.140927 -12.294578,-5.140927s-8.83598,1.713958 -12.294578,5.140927c-3.461469,3.428864 -5.194596,7.486843 -5.194596,12.174883l0,69.249031l-61.203016,0c-129.880202,0 -209.567673,36.338948 -239.080593,109.014948c-9.651344,24.162169 -14.476538,54.191969 -14.476538,90.078978c0,29.934106 11.567258,70.599164 34.69986,121.997069c0.54549,1.264861 1.498662,3.424127 2.867172,6.489165c1.367553,3.063144 2.595384,5.768147 3.688278,8.11501c1.096722,2.341178 2.281488,4.325163 3.555255,5.94627c2.183874,3.066934 4.735236,4.603717 7.650257,4.603717c2.732235,0 4.873044,-0.901036 6.422427,-2.704056c1.545555,-1.802072 2.319768,-4.058926 2.319768,-6.757297c0,-1.627739 -0.227766,-4.013448 -0.684255,-7.171338c-0.455532,-3.15789 -0.684255,-5.271677 -0.684255,-6.355573c-0.912021,-12.25826 -1.367553,-23.357774 -1.367553,-33.269172c0,-18.213057 1.596276,-34.534033 4.781172,-48.960086c3.189681,-14.428895 7.606235,-26.914546 13.254449,-37.46548c5.647257,-10.554724 12.930983,-19.655094 21.858835,-27.320059c8.924024,-7.664965 18.531347,-13.929583 28.822924,-18.799536c10.293491,-4.870901 22.406239,-8.703384 36.341115,-11.497448c13.933919,-2.795012 27.958753,-4.734466 42.077373,-5.817415s30.102433,-1.621107 47.954309,-1.621107l61.203016,0l0,69.250926c0,4.688041 1.729299,8.746967 5.187897,12.172041c3.46434,3.423179 7.561256,5.139032 12.294578,5.139032c4.735236,0 8.835023,-1.715853 12.301277,-5.139032l139.892336,-138.5028c3.461469,-3.426969 5.190768,-7.483053 5.190768,-12.172041c-0.000957,-4.688041 -1.729299,-8.746967 -5.187897,-12.180568z"/>
  </g>
  <g id="svg_3"/>
  <g id="svg_4"/>
  <g id="svg_5"/>
  <g id="svg_6"/>
  <g id="svg_7"/>
  <g id="svg_8"/>
  <g id="svg_9"/>
  <g id="svg_10"/>
  <g id="svg_11"/>
  <g id="svg_12"/>
  <g id="svg_13"/>
  <g id="svg_14"/>
  <g id="svg_15"/>
  <g id="svg_16"/>
  <g id="svg_17"/>
 </g>
</svg>