
<svg xmlns="http://www.w3.org/2000/svg" version="1.1" xmlns:xlink="http://www.w3.org/1999/xlink" id = "fotos" preserveAspectRatio="none"  stroke="#000000"  stroke-width="1" viewBox="-185074.5 -117395 263500 263356">
<!-- <defs> -->
<defs>
          <linearGradient id="solids1378909" x1="0" y1="0" x2="0" y2="1"><stop offset="0%" style="stop-color:rgb(27, 104, 7);stop-opacity:1" />
        <stop offset="46.0%" style="stop-color:rgb(27, 104, 7);stop-opacity:1" />
        <stop offset="46.0%" style="stop-color:rgb(243, 12, 12);stop-opacity:1" />
        <stop offset="100%" style="stop-color:rgb(243, 12, 12);stop-opacity:1" /></linearGradient > </defs >
<g fill="url(#solids1378909)">
<path id="1378909" name = "Chakala (Andheri E.)"  stroke="#000000" stroke-width = "0.5" stroke="none" d="
M 37.45 5.65
Q 37.65 5.4 37.85 5.25 37.9 5.15 37.95 5 38.1 4.85 38.3 4.65 37.75 4.3 37.2 3.95 37.15 3.9 37.15 3.85 36.6 3.55 36 3.35 35.95 3.25 35.8 3.25 35.35 3 34.85 3.05 34.3 3.1 33.75 3.1 33.55 3.1 33.45 3.05 33.3 3.05 33 3
L 32.95 3
Q 31.9 2.55 31 2.05 30.9 1.95 30.8 1.9 30.35 1.55 29.75 1.35 29.65 1.35 29.5 1.35 29.3 1.35 29.2 1.2 29.15 1.15 29.05 1.15 28.8 1.15 28.7 1.15 28.35 1.15 28.1 0.95 27.55 0.65 27.05 0.15 26.95 0.05 26.85 0.05 26.8 -0.05 26.75 0.05 26.7 0.15 26.6 0.2 26.4 0.6 26.05 0.75 25.9 0.9 25.85 1 25.5 1.45 25.1 1.85 25 1.95 24.9 2.05 24.55 2.15 24.25 2.05 24.15 2.05 24.15 2 24.1 1.65 24 1.55 24 1.5 23.95 1.5 23.6 1.45 23.2 1.45 22.4 1.45 21.55 1.45 21.6 1.55 21.65 1.6 22.15 1.95 22.65 2.3 23.05 2.6 23.45 3.1 23.5 3.3 23.55 3.45 23.9 3.95 24.1 4.45 24.1 4.5 24.1 4.65 24.15 5.25 24.15 5.85 24.15 6.05 24.1 6.15 24.1 6.3 24.1 6.5 24.05 6.95 23.85 7.3 23.8 7.45 23.7 7.55 23.5 7.8 23.2 8.05 23.1 8.15 23.05 8.2 22.7 8.2 22.3 8.2 22.25 8.2 22.2 8.2 22 8.05 21.65 8.1 21.3 8.15 21.15 8.25 21.05 8.35 20.9 8.45 20.25 8.9 19.75 9.3 19.25 9.55 19 9.85 18.95 9.95 18.9 10 18.8 10.1 18.75 10.1 18.3 10.55 18.25 11.1 18.25 11.35 18.2 11.5 18.05 11.65 18 11.8 17.85 12.15 17.75 12.45 17.75 12.7 17.55 12.85 17.45 12.9 17.4 13.05 17.15 13.7 16.45 13.55 16.3 13.5 16.1 13.5 15.95 13.5 15.85 13.4 15.8 13.4 15.65 13.4 15.5 13.4 15.4 13.35 15.25 13.35 15.2 13.35 14.75 13.35 14.25 12.95 14.25 12.9 14.2 12.9 14.05 12.9 13.85 12.8 13.8 12.7 13.75 12.65 13.55 12.5 13.3 12.45 13.15 12.35 13 12.3 12.75 12.25 12.65 12.15 12.2 12 11.7 11.9 11.6 11.9 11.5 11.8 11.3 11.7 11.2 11.65 10.85 11.65 10.65 11.55 10.05 11.5 9.65 11.8 9.55 11.85 9.45 11.9 9.35 11.9 9.3 11.95 9.15 11.95 9.05 12 8.8 12 8.55 11.9 8.5 11.9 8.45 11.8 8.4 11.55 8.35 11.35 8.15 11 8.15 10.5 8.15 10.4 8.1 10.35 7.95 10.15 8 10 8 9.95 7.95 9.85 7.9 9.55 7.9 9.15 7.95 8.7 7.9 8.35 7.85 8.15 7.65 8.15 7.3 8.1 7 8 6.9 7.95 6.8 7.95 6.7 7.9 6.6 7.9 6.5 7.8 6.35 7.75 6.1 7.75 5.9 7.75 4.65 7.75 3.5 7.75 3.4 7.75 3.3 7.75 3.15 7.8 3.05 7.9 2.95 8.1 2.95 8.35
L 2.9 8.4
Q 2.85 8.55 2.8 8.7 2.75 8.75 2.6 8.85 2.05 9.4 1.35 9.6 1.35 9.95 1.3 10.25 1.3 10.45 1.2 10.55 1.15 10.9 1.15 11.1 1.15 11.75 1.1 12.35 1.1 12.45 1.05 12.45 1.05 12.7 1 12.85 1 12.9 1 13.15 0.9 14.2 0.95 15.25 1 15.4 1 15.45 1.05 15.7 1 15.9 1 16 1 16.1 1 16.5 0.95 16.9 0.9 17.3 0.85 17.65 0.85 17.75 0.85 17.8 0.65 18.1 0.65 18.55 0.55 19.2 0.4 19.8 0.35 20 0.2 20.35 0.1 20.65 0 21.1 0.2 21.3 0.5 21.3 0.55 21.3 0.65 21.3 1.4 21.6 1.5 22.4 1.55 22.5 1.55 22.6 1.55 22.75 1.6 22.9 1.6 23.1 1.75 23.25 1.95 23.75 2.35 24.2 2.75 24.75 2.95 25.15 3.05 25.25 3.2 25.3 3.3 25.5 3.45 25.8 3.55 25.9 3.7 26 3.8 26.15 3.9 26.15 3.95 26.25 4.1 26.3 4.2 26.45 4.3 26.65 4.35 26.7 4.4 26.75 4.9 27.1 5.4 27.25 5.6 27.35 5.65 27.4 5.8 27.45 6 27.45 6.6 27.45 7.2 27.6 7.4 27.6 7.55 27.6 8.05 27.6 8.55 27.8 8.6 27.8 8.7 27.8 8.9 27.85 9.1 27.9 9.35 28.05 9.55 28.25 10.1 28.6 10.55 28.8 10.8 28.9 10.85 29 11.25 29.1 11.45 29.35 11.6 29.45 11.7 29.55 12.05 29.95 12.35 30.3 12.75 30.7 13.15 31.2
L 13.2 31.25
Q 13.25 31.4 13.4 31.6 13.6 31.65 13.65 31.85 13.95 32.25 14.1 32.75 14.2 32.9 14.25 33.1 14.25 33.2 14.3 33.25 14.5 33.45 14.5 33.7 14.5 33.75 14.55 33.9 14.55 33.95 14.55 34 14.55 34.2 14.7 34.4 14.7 34.45 14.7 34.6 14.8 35.15 15 35.55 15.25 35.6 15.5 35.2 15.5 35.15 15.6 35 15.85 34.7 15.85 34.35 15.9 34.25 15.95 34.15 16.2 33.75 16.35 33.3 16.45 33 16.65 32.6 16.75 32.5 16.8 32.35 17.1 31.95 17.55 31.8 17.75 31.7 17.9 31.8 18.25 31.8 18.45 32.05 18.55 32.15 18.7 32.15 18.9 32.5 19.25 32.8 19.25 32.9 19.35 33 19.65 33.35 20.05 33.4 20.2 33.45 20.4 33.45 20.75 33.45 21.15 33.4 21.7 33.35 22.3 33.25 22.5 33.25 22.55 33.25 23.7 33.25 24.9 33.2 25.1 33.2 25.25 33.25 25.5 33.35 25.75 33.35 25.85 33.35 25.95 33.4 26.35 33.45 26.7 33.5 26.85 33.5 27.1 33.55 27.2 33.55 27.35 33.55 27.9 33.55 28.45 33.55 28.55 33.55 28.55 33.5 28.65 33.45 28.75 33.4 28.95 33.3 29.1 33.25 29.15 33.25 29.2 33.2 29.5 32.9 29.7 32.65 29.8 32.55 29.95 32.45 30.4 32.1 30.95 32
L 31.05 31.95
Q 31.45 31.85 31.65 31.65 32.2 31.35 32.2 30.9 32.2 30.7 32.35 30.6 32.4 30.5 32.4 30.4 32.4 30.15 32.45 29.95 32.45 29.8 32.5 29.7 32.9 29.15 33.5 29.15 33.7 29.15 33.8 29.15 33.85 29.1 33.9 29.1 34.2 29 34.3 28.7 34.35 28.65 34.35 28.6 34.4 28.55 34.45 28.5 34.7 27.85 34.85 27.25 34.9 27.15 34.9 27.1 34.9 26.7 34.85 26.25
L 34.8 26.15
Q 34.8 26.05 34.75 25.95 34.65 25.8 34.35 25.7 34.1 25.5 33.85 25.25 33.45 24.85 33.55 24.3 33.65 23.9 33.9 23.7 33.95 23.65 33.95 23.6 34.25 23.4 34.55 23.25 34.75 23.2 34.75 23.1 34.8 22.65 34.75 22.15 34.75 22.1 34.7 22 34.55 21.8 34.4 21.6 34.3 21.3 34.1 21.15 33.85 20.8 33.7 20.45 33.55 20.35 33.5 20.15 33.45 19.85 33.45 19.5 33.45 19.25 33.5 19 33.5 18.9 33.55 18.85 33.7 18.55 33.85 18.35 33.85 18.25 33.85 18.1 33.85 17.65 34.2 17.3 34.3 17.15 34.35 17 34.45 16.8 34.6 16.6 34.65 16.6 34.7 16.6 35.15 16.6 35.35 16.35 35.4 16.25 35.5 16.2 35.5 15.85 35.3 15.55 35.3 15.5 35.25 15.4 35.25 15.3 35.2 15.25 35.15 15.15 35.15 15.05 35.1 14.95 35.05 14.8 34.75 14.3 34.65 13.75 34.55 13.55 34.45 13.35 34.4 13.25 34.35 13.15 34.1 12.65 34.2 12 34.2 11.85 34.2 11.55 34.2 11.45 34.2 11.3 34.15 11.25 34.1 11.2 33.7 10.55 32.95 10.4 32.7 10.3 32.5 10.1 32.45 10.1 32.45 10 32.1 9.3 32.8 8.95 32.95 8.85 33 8.7 33.05 8.7 33.2 8.7 33.8 8.7 34.35 8.75 34.55 8.65 34.8 8.55 34.85 8.5 34.95 8.35 35.05 8.2 35.25 8.2 35.35 8.15 35.5 8.05 35.65 7.8 35.8 7.65 36.1 7.45 36.25 7.15 36.6 6.7 36.95 6.25 37.15 5.9 37.45 5.65 Z"/>
</g>


<!-- </defs> -->







</svg>
