
<svg xmlns="http://www.w3.org/2000/svg" version="1.1" xmlns:xlink="http://www.w3.org/1999/xlink" preserveAspectRatio="none" viewBox="-123830 -72160 173500 173356">
<!-- <defs> -->
<!-- <g id="Layer0_0_FILL">
<path fill="#FFFFFF" stroke="none" d="
M 336.65 97
Q 327.65 93.8 325.25 92.45 318.85 89.55 312.75 88.5 309.3 87.7 305.85 84.5 303.15 81.55 301.55 81.05
L 301.3 80.75
Q 299.2 80.75 298.65 79.45 297.85 78.1 296 78.1 291.45 79.15 289.35 79.15 285.1 79.15 285.35 74.4 285.35 69.6 282.95 69.6 280.55 69.6 277.65 72 274.7 74.1 268.05 74.1 264.1 74.1 261.4 73.85 259.3 73.3 256.1 73.3 251.85 73.3 249.45 73.85 248.65 73.85 248.15 73.85 244.95 74.65 242.55 75.2 242 75.45 241.75 75.45 238 77.05 230.6 79.15 221 82.1 218.6 82.1 215.95 82.1 212.5 79.95 209.3 77.85 207.7 77.85 204.5 77.85 199.2 81.85 195.75 84.5 193.35 86.6 193.1 87.15 192.55 87.4 189.35 90.85 188.05 93 184.3 97.5 183.8 101.8 183.5 104.45 183.25 111.35 182.7 116.4 179.5 118.8 178.45 121.7 175 123.6 170.2 125.7 167.55 127.05
L 150.8 135.8
Q 150 135.3 149.45 135 142.55 126 140.45 122.8 136.7 118.25 127.95 118.25 118.9 118.25 118.9 121.2 119.45 126.5 117.85 128.1 117.55 128.1 117.3 128.35 116.5 128.65 116.5 129.7
L 117.05 132.35
Q 117.05 134.5 114.65 135.3 112.25 136.6 112.25 138.2 112.25 139.55 113.6 140.35 114.65 141.4 114.35 143.25 114.35 144.05 114.1 144.85 113.85 145.65 113.6 146.45 112.5 149.9 110.65 154.95 110.1 154.95 109.05 161.1 108.25 165.05 104.55 164.55 101.1 164 91.5 159.5 80.6 154.7 78.2 154.7 75.55 154.7 75.3 154.95 74.5 154.95 73.15 157.35
L 68.9 160.55
Q 67.05 165.05 66.5 166.4 63.05 169.6 63.05 170.4 63.05 170.9 63.3 171.2 62.8 171.7 61.7 173.3 57.2 183.4 57.75 191.65 58.25 202.05 54.55 208.15 51.6 212.15 50 214.25 48.45 216.4 47.9 218.25 47.1 220.1 47.1 221.7 47.1 222.25 47.1 223.05 47.1 225.95 50.3 226.5 56.95 227.05 57.2 227.05 61.7 228.35 62.8 229.15 64.65 230.75 66 234.75 67.3 238.45 71.3 239.25 75.8 240.6 76.6 241.1 76.9 241.65 79.55 244.85 82.2 247.75 82.45 248.85 85.4 248.55 89.65 249.65 94.15 250.45 96.05 250.45 98.7 250.45 99.5 250.15 100.55 249.9 102.65 246.95 102.65 246.45 111.7 246.7 112.5 246.45 114.1 244.3 115.7 242.2 116.75 241.65 121.3 238.75 122.6 237.95 128.75 228.35 131.15 228.35 131.9 228.35 140.45 233.95 148.4 239.25 154.25 239.8
L 154.55 239.8
Q 156.4 240.05 158.5 239.8
L 172.35 239.8
Q 176.35 240.35 178.2 242.45 179.25 243.8 181.9 247.5 183.8 249.65 191.2 254.7 192.55 255.5 194.95 259.45 197.35 262.95 199.45 264.25 201.6 265.6 206.4 265.85 209.05 265.85 214.1 265.6 220.2 265.85 227.9 269.3 232.15 271.15 241.75 275.7 251.85 277.55 256.9 281 261.7 284.45 262.75 285 265.4 286.05 269.95 286.05 273.9 286.05 275.8 284.45 278.95 280.75 280.85 281.3
L 282.45 281.55
Q 283.5 281.3 284.55 281 284.8 281 288.8 280.2 292.8 279.15 293.85 278.1 294.4 277.55 296.25 274.65 298.1 272.25 299.2 272.25 300.5 272.25 306.35 275.7
L 314.35 278.35
Q 317.25 279.15 322.85 279.15 327.65 278.9 329.75 279.7 335.1 281 341.45 281.55 344.9 281.8 355 281.8 365.4 281.8 366.7 281.55 368.3 280.75 376.05 274.1 377.35 273.3 378.7 270.1 380.55 267.45 384.25 267.2 385.85 266.9 388.5 263.75 391.45 259.75 392.25 259.2 394.35 264 399.95 264 401 264 403.15 260.25 405.3 256.8 406.05 256.8 407.65 256.8 410.35 257.9 411.15 257.6 411.9 258.4 414.6 257.6 417.5 250.95 418.85 248.85 421.5 246.45 424.15 244.3 425.2 243 425.5 242.45 425.75 240.35 426.3 238.45 427.35 237.65 428.4 236.35 430.8 233.7 433.75 230.75 435.6 224.9 435.6 223.3 438 219.6 440.4 215.35 441.7 215.35
L 446.25 216.15
Q 450.5 216.15 450.75 207.35 449.4 201.75 449.4 200.95 449.4 198.55 451.3 194.85 453.15 191.4 453.15 191.15 446.5 187.65 443.3 185.8 442.5 185.3 440.9 185.3 439.6 185 437.7 185 435.3 184.75 433.45 183.7 430.25 182.1 430.25 178.1 430 175.7 426.8 173.3 423.1 170.4 422.3 168.5 422.05 167.75 422.05 167.2 423.9 164 423.9 161.35 423.9 159.5 422.3 157.35 420.7 154.95 418.85 154.95 401.8 154.95 401.8 144.35 402.1 142.45 403.7 139.55
L 403.7 139.25
Q 402.6 139.25 400.2 137.95
L 399.15 137.15
Q 398.9 136.9 398.35 136.6 395.95 135 391.2 133.15 385.05 131.05 381.35 129.45 370.45 124.4 365.4 124.4 361.95 124.4 359 120.15 355.8 115.6 353.95 114.8 351.55 113.75 351.55 111.9 352.1 108.95 351.85 107.65 351.55 106.05 349.95 104.45 347.85 103.1 347.85 102.85 346.8 103.1 345.7 103.1 344.1 102.55 341.45 100.7 336.95 97 336.65 97 Z"/>
</g> -->
<g   fill = "white">
<!-- <path id="1379095" name = "Bawana" stroke="#000000" stroke-width="1" stroke-linejoin="round" stroke-linecap="round"  d="
M 391.2 133.15
Q 395.95 135 398.35 136.6 398.9 136.9 399.15 137.15
L 400.2 137.95
Q 402.6 139.25 403.7 139.25
L 403.7 139.55
Q 402.1 142.45 401.8 144.35 401.8 154.95 418.85 154.95 420.7 154.95 422.3 157.35 423.9 159.5 423.9 161.35 423.9 164 422.05 167.2 422.05 167.75 422.3 168.5 423.1 170.4 426.8 173.3 430 175.7 430.25 178.1 430.25 182.1 433.45 183.7 435.3 184.75 437.7 185 439.6 185 440.9 185.3 442.5 185.3 443.3 185.8 446.5 187.65 453.15 191.15 453.15 191.4 451.3 194.85 449.4 198.55 449.4 200.95 449.4 201.75 450.75 207.35 450.5 216.15 446.25 216.15
L 441.7 215.35
Q 440.4 215.35 438 219.6 435.6 223.3 435.6 224.9 433.75 230.75 430.8 233.7 428.4 236.35 427.35 237.65 426.3 238.45 425.75 240.35 425.5 242.45 425.2 243 424.15 244.3 421.5 246.45 418.85 248.85 417.5 250.95 414.6 257.6 411.9 258.4 411.15 257.6 410.35 257.9 407.65 256.8 406.05 256.8 405.3 256.8 403.15 260.25 401 264 399.95 264 394.35 264 392.25 259.2 391.45 259.75 388.5 263.75 385.85 266.9 384.25 267.2 380.55 267.45 378.7 270.1 377.35 273.3 376.05 274.1 368.3 280.75 366.7 281.55 365.4 281.8 355 281.8 344.9 281.8 341.45 281.55 335.1 281 329.75 279.7 327.65 278.9 322.85 279.15 317.25 279.15 314.35 278.35
L 306.35 275.7
Q 300.5 272.25 299.2 272.25 298.1 272.25 296.25 274.65 294.4 277.55 293.85 278.1 292.8 279.15 288.8 280.2 284.8 281 284.55 281 283.5 281.3 282.45 281.55
L 280.85 281.3
Q 278.95 280.75 275.8 284.45 273.9 286.05 269.95 286.05 265.4 286.05 262.75 285 261.7 284.45 256.9 281 251.85 277.55 241.75 275.7 232.15 271.15 227.9 269.3 220.2 265.85 214.1 265.6 209.05 265.85 206.4 265.85 201.6 265.6 199.45 264.25 197.35 262.95 194.95 259.45 192.55 255.5 191.2 254.7 183.8 249.65 181.9 247.5 179.25 243.8 178.2 242.45 176.35 240.35 172.35 239.8
L 158.5 239.8
Q 156.4 240.05 154.55 239.8
L 154.25 239.8
Q 148.4 239.25 140.45 233.95 131.9 228.35 131.15 228.35 128.75 228.35 122.6 237.95 121.3 238.75 116.75 241.65 115.7 242.2 114.1 244.3 112.5 246.45 111.7 246.7 102.65 246.45 102.65 246.95 100.55 249.9 99.5 250.15 98.7 250.45 96.05 250.45 94.15 250.45 89.65 249.65 85.4 248.55 82.45 248.85 82.2 247.75 79.55 244.85 76.9 241.65 76.6 241.1 75.8 240.6 71.3 239.25 67.3 238.45 66 234.75 64.65 230.75 62.8 229.15 61.7 228.35 57.2 227.05 56.95 227.05 50.3 226.5 47.1 225.95 47.1 223.05 47.1 222.25 47.1 221.7 47.1 220.1 47.9 218.25 48.45 216.4 50 214.25 51.6 212.15 54.55 208.15 58.25 202.05 57.75 191.65 57.2 183.4 61.7 173.3 62.8 171.7 63.3 171.2 63.05 170.9 63.05 170.4 63.05 169.6 66.5 166.4 67.05 165.05 68.9 160.55
L 73.15 157.35
Q 74.5 154.95 75.3 154.95 75.55 154.7 78.2 154.7 80.6 154.7 91.5 159.5 101.1 164 104.55 164.55 108.25 165.05 109.05 161.1 110.1 154.95 110.65 154.95 112.5 149.9 113.6 146.45 113.85 145.65 114.1 144.85 114.35 144.05 114.35 143.25 114.65 141.4 113.6 140.35 112.25 139.55 112.25 138.2 112.25 136.6 114.65 135.3 117.05 134.5 117.05 132.35
L 116.5 129.7
Q 116.5 128.65 117.3 128.35 117.55 128.1 117.85 128.1 119.45 126.5 118.9 121.2 118.9 118.25 127.95 118.25 136.7 118.25 140.45 122.8 142.55 126 149.45 135 150 135.3 150.8 135.8
L 167.55 127.05
Q 170.2 125.7 175 123.6 178.45 121.7 179.5 118.8 182.7 116.4 183.25 111.35 183.5 104.45 183.8 101.8 184.3 97.5 188.05 93 189.35 90.85 192.55 87.4 193.1 87.15 193.35 86.6 195.75 84.5 199.2 81.85 204.5 77.85 207.7 77.85 209.3 77.85 212.5 79.95 215.95 82.1 218.6 82.1 221 82.1 230.6 79.15 238 77.05 241.75 75.45 242 75.45 242.55 75.2 244.95 74.65 248.15 73.85 248.65 73.85 249.45 73.85 251.85 73.3 256.1 73.3 259.3 73.3 261.4 73.85 264.1 74.1 268.05 74.1 274.7 74.1 277.65 72 280.55 69.6 282.95 69.6 285.35 69.6 285.35 74.4 285.1 79.15 289.35 79.15 291.45 79.15 296 78.1 297.85 78.1 298.65 79.45 299.2 80.75 301.3 80.75
L 301.55 81.05
Q 303.15 81.55 305.85 84.5 309.3 87.7 312.75 88.5 318.85 89.55 325.25 92.45 327.65 93.8 336.65 97 336.95 97 341.45 100.7 344.1 102.55 345.7 103.1 346.8 103.1 347.85 102.85 347.85 103.1 349.95 104.45 351.55 106.05 351.85 107.65 352.1 108.95 351.55 111.9 351.55 113.75 353.95 114.8 355.8 115.6 359 120.15 361.95 124.4 365.4 124.4 370.45 124.4 381.35 129.45 385.05 131.05 391.2 133.15 Z"/> -->
<path id = "1379095" name = "Bawana" stroke="#000000" stroke-width = "0.5" d="
M 62.4 10.75
Q 62.3 10.75 62.15 10.7 62.05 10.7 61.95 10.7 61.85 10.65 61.7 10.65 61.35 10.6 61.05 10.45 60.9 10.4 60.75 10.3 60.45 10.1 60.05 10.05 59.95 10.05 59.8 10 59.5 9.9 59.2 9.75 59.05 9.7 58.9 9.6 58.85 9.55 58.75 9.45 58.5 9.25 58.25 9.1 57.8 8.8 57.4 8.4 57.3 8.25 57.15 8.1 57.05 8.05 56.95 7.95 56.9 7.85 56.8 7.75 56.35 7.4 56.4 6.9 56.4 6.7 56.3 6.5 56.1 6.1 55.8 5.8
L 55.75 5.75
Q 55.5 5.75 55.35 5.65 55.3 5.6 55.25 5.55 55.2 5.55 55.15 5.55 55 5.5 54.85 5.4 54.35 5.2 53.9 4.9 53.8 4.85 53.7 4.8 53.5 4.6 53.3 4.55 53.2 4.55 53.1 4.5 52.95 4.4 52.85 4.35 52.7 4.3 52.55 4.25 52.2 4.05 51.75 3.95 51.55 3.9 51.35 3.85 51.15 3.75 50.95 3.7 50.85 3.7 50.75 3.65 50.45 3.5 50.15 3.4 50.05 3.4 49.9 3.3 49.35 3.05 48.85 2.85 48.75 2.85 48.65 2.8 48.45 2.7 48.25 2.6 48.1 2.55 47.95 2.45 47.55 2.35 47.3 2.15 47.25 2.1 47.2 2.05 46.85 1.9 46.45 1.7 46.35 1.65 46.25 1.55 46.05 1.45 45.85 1.4 45.55 1.3 45.25 1.35 44.8 1.35 44.3 1.35 44.1 1.3 44.1 1.15 44.2 0.55 43.85 0.1 43.85 0.05 43.8 0 43.75 0 43.7 0 43.25 0.15 42.8 0.3 42.65 0.35 42.5 0.35 42.05 0.35 41.6 0.35 40.65 0.25 39.7 0.3 38.75 0.3 37.8 0.3 37.75 0.3 37.65 0.3 37.55 0.35 37.45 0.35 37.25 0.4 37 0.4 36.75 0.45 36.5 0.5 36.4 0.55 36.3 0.55 36.05 0.6 35.8 0.7 35.55 0.8 35.3 0.95 35.2 1 35.1 1 34.7 1.25 34.25 1.35 34 1.4 33.8 1.55 33.75 1.6 33.65 1.6 33.35 1.65 33.1 1.7 32.9 1.75 32.75 1.8
L 32.7 1.85
Q 32.5 1.95 32.3 2 32.25 1.95 32.15 1.95 31.8 1.95 31.45 1.95 30.95 1.9 30.55 1.6 30.45 1.55 30.35 1.5 30 1.2 29.5 1.2 29.45 1.2 29.35 1.2 29 1.3 28.7 1.5 28.3 1.7 27.85 1.95 27.75 2 27.65 2.05 27.45 2.1 27.35 2.25 27.15 2.65 26.95 3.05 26.9 3.15 26.9 3.2 26.85 3.35 26.75 3.45 26.7 3.5 26.6 3.55 26.55 3.65 26.45 3.7 26.25 3.8 26.15 3.9 26.1 4 26.05 4.1 25.95 4.2 25.85 4.25 25.65 4.45 25.55 4.7 25.45 5 25.5 5.3 25.5 5.4 25.5 5.45 25.45 5.55 25.4 5.65 25.4 5.75 25.4 5.8 25.3 6.05 25.3 6.3 25.3 6.4 25.3 6.5 25.3 6.7 25.2 6.85 25.1 6.95 25.15 7.1 25.15 7.25 25.1 7.35 25.1 7.45 25.05 7.55 25.05 7.65 25 7.75 24.9 8.05 24.95 8.35 24.95 8.45 24.95 8.5 24.7 9.1 24.2 9.4 23.9 9.55 23.6 9.7 23.2 9.9 22.8 10.1 22.75 10.15 22.65 10.15 22.35 10.2 22.05 10.3 21.6 10.45 21.2 10.65 21.1 10.7 21 10.75 20.85 10.9 20.6 10.9 20.5 10.95 20.4 10.9 19.9 10.85 19.6 11.2 19.5 11.3 19.4 11.5 19.35 11.6 19.35 11.7 19.3 11.9 19.1 11.85 19.1 11.8 19.1 11.75 19.1 11.65 19.05 11.55 19.05 11.5 19 11.4 18.9 11.1 18.75 10.8 18.7 10.7 18.6 10.6 18.45 10.5 18.4 10.35 18.3 10.1 18.1 9.9 17.8 9.5 17.3 9.25 17.25 9.2 17.15 9.15 16.7 9 16.3 8.8 16.2 8.75 16.1 8.75 15.85 8.7 15.6 8.65 15.05 8.55 14.45 8.45
L 14.4 8.4
Q 14 8.35 13.65 8.3 13.55 8.3 13.45 8.35 13.4 8.4 13.35 8.4 13.3 8.5 13.3 8.6 13.25 8.9 13.25 9.15 13.3 9.65 13 10 12.75 10.25 12.8 10.6 12.8 10.75 12.85 10.95
L 12.85 11
Q 12.45 11.3 12.1 11.6 11.9 11.8 11.95 12.15 12.05 12.45 12.25 12.75 12.3 12.85 12.3 12.9 12.5 13.15 12.35 13.4 12.3 13.5 12.25 13.55 12.15 13.75 12.1 14 12.05 14.1 12 14.15 11.85 14.6 11.65 15.05 11.65 15.15 11.6 15.2 11.35 15.5 11.35 15.9 11.35 16 11.3 16.05 11.2 16.25 11.1 16.5 11.1 16.6 11.05 16.65 10.95 16.7 10.8 16.75 10.7 16.8 10.55 16.8 10.05 16.8 9.55 16.8 9.45 16.8 9.4 16.7 9.1 16.4 8.75 16.15 8.65 16.1 8.55 16.05 8.35 16.05 8.15 15.95 8.1 15.9 8 15.85 7.75 15.8 7.55 15.7 7.45 15.7 7.35 15.65 6.85 15.4 6.4 15.15 6.25 15.1 6.1 15.1 5.65 15.05 5.15 15.05 5.1 15.1 5.05 15.15 4.85 15.2 4.7 15.35 4.7 15.4 4.65 15.45
L 4.6 15.5
Q 4.55 15.65 4.45 15.75 4.15 16.05 3.95 16.4 3.9 16.5 3.8 16.55 3.8 16.65 3.7 16.75 3.65 16.9 3.5 17 3.4 17.15 3.3 17.3 3.2 17.6 3.05 17.9 3 18 3 18.05 3 18.4 2.75 18.7 2.7 18.8 2.6 18.9 2.15 19.2 1.9 19.7 1.85 19.8 1.85 19.9 1.8 20.35 1.8 20.8 1.75 21.3 1.85 21.8 1.85 21.9 1.85 21.95 1.95 22.2 2 22.45 2.05 22.65 1.95 22.75 1.75 23 1.7 23.3 1.55 23.8 1.25 24.15 1.2 24.25 1.15 24.35 0.95 24.55 0.9 24.8 0.9 24.9 0.85 24.95 0.7 25.2 0.6 25.5 0.55 25.7 0.4 25.9 0.35 26 0.35 26.1 0.3 26.35 0.25 26.6 0.25 26.7 0.2 26.75 0.1 27 0 27.3 0.45 27.6 0.95 27.65 1.25 27.65 1.55 27.75 1.6 27.8 1.65 27.8 1.75 27.8 1.8 27.8 1.95 27.85 2.1 28 2.15 28 2.2 28 2.25 28.05 2.25 28.1 2.35 28.15 2.4 28.15 2.5 28.25 2.55 28.3 2.65 28.35 2.75 28.4 2.8 28.4 2.8 28.45 2.9 28.5 3 28.55 3.05 28.6 3.05 28.65 3.2 28.8 3.35 28.9 3.45 29 3.5 29.1 3.7 29.3 3.9 29.45 4 29.5 4.05 29.6 4.25 29.8 4.45 29.95 4.5 30.05 4.55 30.15 4.65 30.25 4.75 30.3 4.9 30.45 5 30.6 5.1 30.75 5.25 30.8 5.35 30.85 5.4 30.95 5.65 31.25 5.85 31.55 5.95 31.7 6 31.85 6.1 31.95 6.15 32 6.3 32.2 6.45 32.4 6.45 32.45 6.5 32.45 6.65 32.65 6.45 32.8 6.4 32.9 6.35 33
L 6.35 33.1
Q 7.3 33.15 8.25 33.15 8.55 33.15 8.85 33.1 8.95 33.1 9 33.05 9.1 33.05 9.2 33 9.5 32.9 9.8 32.7 9.9 32.7 9.95 32.65 10.15 32.55 10.3 32.5 10.4 32.45 10.5 32.45 10.7 32.4 10.9 32.35 11 32.35 11.05 32.35 11.4 32.35 11.65 32.1 11.75 32.05 11.85 32 11.95 31.9 12.05 31.8 12.25 31.65 12.4 31.5 12.5 31.5 12.55 31.45 12.65 31.35 12.75 31.25 13.25 30.8 13.7 30.25 13.75 30.2 13.85 30.1 14 29.95 14.1 29.8 14.25 29.7 14.3 29.55 14.4 29.45 14.4 29.35 14.5 29.2 14.6 29.05 14.7 29 14.75 28.9 14.95 28.55 15.25 28.3 15.3 28.25 15.3 28.2 15.35 28.2 15.4 28.2 15.95 28.2 16.4 28.5 16.5 28.55 16.55 28.55 16.85 28.6 17.1 28.85 17.3 29 17.55 29.2 17.65 29.25 17.7 29.3 17.8 29.4 17.9 29.4 18 29.5 18.05 29.55 18.35 29.7 18.7 29.85 18.85 29.9 18.95 29.95 19.15 30.05 19.35 30.15 19.4 30.25 19.5 30.25 19.75 30.4 20 30.55 20.1 30.6 20.2 30.6 21.15 30.6 22.15 30.6 22.3 30.55 22.4 30.7 22.5 30.75 22.6 30.8 23.5 31.15 24.15 31.9 24.5 32.25 24.85 32.6 24.95 32.7 25 32.8 25.5 33.35 26.1 33.85 26.25 33.95 26.45 34.1 26.55 34.15 26.6 34.25 26.75 34.5 27 34.7 27.1 34.8 27.15 34.9 27.3 35.05 27.45 35.15 27.65 35.25 27.7 35.45 27.75 35.5 27.8 35.5 28.05 35.6 28.3 35.6 28.4 35.6 28.45 35.65 28.55 35.65 28.6 35.65 28.85 35.75 29.15 35.75 29.25 35.75 29.3 35.75 29.5 35.8 29.7 35.85 29.9 35.95 30.15 35.95 30.25 35.95 30.3 35.95 30.45 36 30.6 36 30.7 36.05 30.75 36.05 31.1 36.05 31.35 36.15 31.45 36.15 31.5 36.15 31.75 36.2 31.95 36.3 32.05 36.35 32.1 36.35 32.2 36.4 32.3 36.4 32.5 36.35 32.65 36.45 32.8 36.5 32.95 36.55 33.75 36.65 34.45 37.05 34.55 37.15 34.65 37.15 34.95 37.2 35.2 37.35 35.4 37.45 35.6 37.55 35.8 37.65 36.05 37.65 36.25 37.7 36.45 37.75 36.8 37.85 37.1 37.95 37.2 38 37.25 38.05 37.75 38.25 38.25 38.3 38.55 38.35 38.8 38.4 38.9 38.45 38.95 38.5 39.4 38.7 39.8 38.9 39.95 38.95 40.1 39 40.2 39.05 40.25 39.1 40.7 39.4 41.2 39.55 41.3 39.6 41.4 39.6 41.8 39.6 42.15 39.55 42.25 39.55 42.3 39.5 42.4 39.45 42.45 39.3 42.45 39.2 42.5 39.1 42.75 38.75 43.15 38.8 43.3 38.85 43.4 38.75 43.5 38.65 43.65 38.7 44.1 38.7 44.6 38.7 45 38.7 45.2 38.4 45.35 38.25 45.45 38.1 45.55 38.05 45.6 37.95 45.75 37.6 46.05 37.45 46.15 37.4 46.2 37.4 46.55 37.4 46.9 37.45 47 37.45 47.1 37.45 47.25 37.5 47.35 37.55 47.45 37.55 47.55 37.6 47.8 37.8 48.1 37.95 48.35 38.05 48.65 38.1 49.1 38.1 49.55 38.1 49.85 38.1 50.1 38.15 50.3 38.15 50.5 38.2 50.65 38.25 50.8 38.25 51.15 38.2 51.45 38.3 51.7 38.4 51.95 38.45 52.1 38.45 52.2 38.45 52.5 38.45 52.8 38.55 53 38.6 53.15 38.6 53.25 38.65 53.3 38.65 53.7 38.75 54.1 38.75 54.2 38.75 54.3 38.8 54.35 38.8 54.4 38.85 54.8 39.05 55.3 39.05 55.4 39.05 55.45 39.05 55.55 39.1 55.65 39.1 55.75 39.15 55.8 39.15 56.75 39.15 57.7 39.15 58.3 39.15 58.9 39.1 59 39.1 59.1 39.05 59.55 38.85 59.8 38.45 59.9 38.3 59.9 38.15 59.95 38 60 37.9 60.1 37.8 60.2 37.7 60.4 37.55 60.65 37.35 60.9 37.2 61.1 36.95 61.2 36.8 61.3 36.6 61.35 36.5 61.45 36.4 61.5 36.35 61.55 36.25 61.65 36.1 61.95 36.15 62.25 36.15 62.4 36.35 62.75 36.1 63 35.8 63.35 35.4 63.75 35.15 63.85 35.1 63.9 35.1 64.4 35.2 64.7 35.55 64.75 35.65 64.85 35.7 64.95 35.8 65.05 35.9 65.1 35.9 65.15 35.9 65.3 35.85 65.4 35.7 65.5 35.65 65.6 35.55 65.65 35.45 65.7 35.35 65.8 35.25 65.9 35.15 66.1 35 66.2 34.85 66.3 34.75 66.4 34.75 66.75 34.8 67.1 34.95 67.15 34.55 67.45 34.35 67.75 34.1 68 33.9 68.1 33.85 68.2 33.8 68.3 33.75 68.35 33.65 68.4 33.6 68.45 33.55 68.65 33.3 68.95 33.05 69.1 32.9 69.2 32.75 69.3 32.7 69.35 32.6 69.4 32.55 69.5 32.45 69.55 32.35 69.6 32.25 69.75 32.1 69.9 31.9 70.1 31.6 70.05 31.2 70.05 31 70.05 30.8 70.05 30.35 70.4 30 70.45 29.9 70.5 29.8 70.65 29.7 70.75 29.55 70.95 29.35 71.1 29.1 71.4 28.7 71.6 28.2 71.7 28.05 71.8 27.95 71.9 27.75 72.05 27.55 72.1 27.35 72.15 27.2 72.2 27.1 72.25 27
L 72.25 26.95
Q 72.3 26.85 72.3 26.75 72.35 26.55 72.5 26.35 72.5 26.3 72.5 26.25 72.5 26.2 72.55 26.15 72.65 26.1 72.85 26.1 72.95 26.1 73 26.1 73.1 26.05 73.15 26.05 73.3 26 73.4 25.95 73.7 25.85 74 25.65 74.1 25.6 74.2 25.55 74.3 25.45 74.35 25.35 74.45 25.3 74.5 25.2 74.7 24.9 74.65 24.6 74.65 24.5 74.6 24.4 74.4 24.05 74.3 23.7 74.25 23.55 74.35 23.45 74.45 23.4 74.5 23.3 74.55 23.25 74.55 23.15 74.55 23.1 74.55 23 74.6 22.95 74.6 22.85 74.6 22.5 74.8 22.25 74.85 22.2 74.9 22.15 75.1 22 75.2 21.8 75 21.65 74.8 21.6 74.7 21.6 74.6 21.5 74.3 21.3 73.9 21.3 73.35 21.35 72.85 21 72.8 20.95 72.7 20.95 72.2 20.85 71.8 20.6 71.75 20.6 71.65 20.55 71.45 20.4 71.2 20.25 71.05 20.15 70.95 20 70.9 19.85 70.8 19.75 70.65 19.55 70.65 19.3 70.7 18.9 70.35 18.7 70.3 18.65 70.2 18.6 69.85 18.5 69.55 18.3 69.5 18.3 69.45 18.2 69.3 18.05 69.4 17.8 69.45 17.7 69.45 17.6 69.6 17.35 69.75 17.1 69.8 16.95 69.85 16.85 70.15 16.5 69.9 16.15 69.85 16.1 69.8 16.1 69.6 16.05 69.5 15.9 69.45 15.75 69.25 15.7 69.2 15.7 69.15 15.6 68.85 15.3 68.45 15.2 68.15 15.15 67.95 15.3 67.95 15.35 67.9 15.35 67.8 15.5 67.65 15.45 67.4 15.35 67.15 15.35 66.55 15.3 66.2 14.85 66.1 14.75 66.05 14.65 65.85 14.35 65.7 14.05 65.65 14 65.65 13.9 65.6 13.4 65.6 12.9 65.6 12.75 65.65 12.6 65.65 12.5 65.65 12.4 65.65 12.3 65.55 12.2 65.3 12 65.05 11.8 65 11.75 64.9 11.65 64.45 11.35 63.95 11.15 63.8 11.1 63.65 11 63.6 11 63.5 10.95 63.4 10.9 63.25 10.9 63.2 10.9 63.1 10.9 63 10.85 62.9 10.85 62.75 10.8 62.6 10.8 62.5 10.8 62.4 10.75 Z"/>

</g>
<!-- </defs> -->

<!-- <g transform="matrix( 1, 0, 0, 1, 0,0) ">
<use xlink:href="#Layer0_0_FILL"/>

<use xlink:href="#Layer0_0_1_STROKES"/>
</g> -->
</svg>
