
<svg xmlns="http://www.w3.org/2000/svg" version="1.1" xmlns:xlink="http://www.w3.org/1999/xlink" preserveAspectRatio="none" viewBox="-123830 -72160 173500 173356">
~~~~~MARK1379095~~~~~
<g  fill="url(#solids1379095)" >

<path id = "1379095" name = "Bawana" stroke="#000000" stroke-width = "0.5" d="
M 62.4 10.75
Q 62.3 10.75 62.15 10.7 62.05 10.7 61.95 10.7 61.85 10.65 61.7 10.65 61.35 10.6 61.05 10.45 60.9 10.4 60.75 10.3 60.45 10.1 60.05 10.05 59.95 10.05 59.8 10 59.5 9.9 59.2 9.75 59.05 9.7 58.9 9.6 58.85 9.55 58.75 9.45 58.5 9.25 58.25 9.1 57.8 8.8 57.4 8.4 57.3 8.25 57.15 8.1 57.05 8.05 56.95 7.95 56.9 7.85 56.8 7.75 56.35 7.4 56.4 6.9 56.4 6.7 56.3 6.5 56.1 6.1 55.8 5.8
L 55.75 5.75
Q 55.5 5.75 55.35 5.65 55.3 5.6 55.25 5.55 55.2 5.55 55.15 5.55 55 5.5 54.85 5.4 54.35 5.2 53.9 4.9 53.8 4.85 53.7 4.8 53.5 4.6 53.3 4.55 53.2 4.55 53.1 4.5 52.95 4.4 52.85 4.35 52.7 4.3 52.55 4.25 52.2 4.05 51.75 3.95 51.55 3.9 51.35 3.85 51.15 3.75 50.95 3.7 50.85 3.7 50.75 3.65 50.45 3.5 50.15 3.4 50.05 3.4 49.9 3.3 49.35 3.05 48.85 2.85 48.75 2.85 48.65 2.8 48.45 2.7 48.25 2.6 48.1 2.55 47.95 2.45 47.55 2.35 47.3 2.15 47.25 2.1 47.2 2.05 46.85 1.9 46.45 1.7 46.35 1.65 46.25 1.55 46.05 1.45 45.85 1.4 45.55 1.3 45.25 1.35 44.8 1.35 44.3 1.35 44.1 1.3 44.1 1.15 44.2 0.55 43.85 0.1 43.85 0.05 43.8 0 43.75 0 43.7 0 43.25 0.15 42.8 0.3 42.65 0.35 42.5 0.35 42.05 0.35 41.6 0.35 40.65 0.25 39.7 0.3 38.75 0.3 37.8 0.3 37.75 0.3 37.65 0.3 37.55 0.35 37.45 0.35 37.25 0.4 37 0.4 36.75 0.45 36.5 0.5 36.4 0.55 36.3 0.55 36.05 0.6 35.8 0.7 35.55 0.8 35.3 0.95 35.2 1 35.1 1 34.7 1.25 34.25 1.35 34 1.4 33.8 1.55 33.75 1.6 33.65 1.6 33.35 1.65 33.1 1.7 32.9 1.75 32.75 1.8
L 32.7 1.85
Q 32.5 1.95 32.3 2 32.25 1.95 32.15 1.95 31.8 1.95 31.45 1.95 30.95 1.9 30.55 1.6 30.45 1.55 30.35 1.5 30 1.2 29.5 1.2 29.45 1.2 29.35 1.2 29 1.3 28.7 1.5 28.3 1.7 27.85 1.95 27.75 2 27.65 2.05 27.45 2.1 27.35 2.25 27.15 2.65 26.95 3.05 26.9 3.15 26.9 3.2 26.85 3.35 26.75 3.45 26.7 3.5 26.6 3.55 26.55 3.65 26.45 3.7 26.25 3.8 26.15 3.9 26.1 4 26.05 4.1 25.95 4.2 25.85 4.25 25.65 4.45 25.55 4.7 25.45 5 25.5 5.3 25.5 5.4 25.5 5.45 25.45 5.55 25.4 5.65 25.4 5.75 25.4 5.8 25.3 6.05 25.3 6.3 25.3 6.4 25.3 6.5 25.3 6.7 25.2 6.85 25.1 6.95 25.15 7.1 25.15 7.25 25.1 7.35 25.1 7.45 25.05 7.55 25.05 7.65 25 7.75 24.9 8.05 24.95 8.35 24.95 8.45 24.95 8.5 24.7 9.1 24.2 9.4 23.9 9.55 23.6 9.7 23.2 9.9 22.8 10.1 22.75 10.15 22.65 10.15 22.35 10.2 22.05 10.3 21.6 10.45 21.2 10.65 21.1 10.7 21 10.75 20.85 10.9 20.6 10.9 20.5 10.95 20.4 10.9 19.9 10.85 19.6 11.2 19.5 11.3 19.4 11.5 19.35 11.6 19.35 11.7 19.3 11.9 19.1 11.85 19.1 11.8 19.1 11.75 19.1 11.65 19.05 11.55 19.05 11.5 19 11.4 18.9 11.1 18.75 10.8 18.7 10.7 18.6 10.6 18.45 10.5 18.4 10.35 18.3 10.1 18.1 9.9 17.8 9.5 17.3 9.25 17.25 9.2 17.15 9.15 16.7 9 16.3 8.8 16.2 8.75 16.1 8.75 15.85 8.7 15.6 8.65 15.05 8.55 14.45 8.45
L 14.4 8.4
Q 14 8.35 13.65 8.3 13.55 8.3 13.45 8.35 13.4 8.4 13.35 8.4 13.3 8.5 13.3 8.6 13.25 8.9 13.25 9.15 13.3 9.65 13 10 12.75 10.25 12.8 10.6 12.8 10.75 12.85 10.95
L 12.85 11
Q 12.45 11.3 12.1 11.6 11.9 11.8 11.95 12.15 12.05 12.45 12.25 12.75 12.3 12.85 12.3 12.9 12.5 13.15 12.35 13.4 12.3 13.5 12.25 13.55 12.15 13.75 12.1 14 12.05 14.1 12 14.15 11.85 14.6 11.65 15.05 11.65 15.15 11.6 15.2 11.35 15.5 11.35 15.9 11.35 16 11.3 16.05 11.2 16.25 11.1 16.5 11.1 16.6 11.05 16.65 10.95 16.7 10.8 16.75 10.7 16.8 10.55 16.8 10.05 16.8 9.55 16.8 9.45 16.8 9.4 16.7 9.1 16.4 8.75 16.15 8.65 16.1 8.55 16.05 8.35 16.05 8.15 15.95 8.1 15.9 8 15.85 7.75 15.8 7.55 15.7 7.45 15.7 7.35 15.65 6.85 15.4 6.4 15.15 6.25 15.1 6.1 15.1 5.65 15.05 5.15 15.05 5.1 15.1 5.05 15.15 4.85 15.2 4.7 15.35 4.7 15.4 4.65 15.45
L 4.6 15.5
Q 4.55 15.65 4.45 15.75 4.15 16.05 3.95 16.4 3.9 16.5 3.8 16.55 3.8 16.65 3.7 16.75 3.65 16.9 3.5 17 3.4 17.15 3.3 17.3 3.2 17.6 3.05 17.9 3 18 3 18.05 3 18.4 2.75 18.7 2.7 18.8 2.6 18.9 2.15 19.2 1.9 19.7 1.85 19.8 1.85 19.9 1.8 20.35 1.8 20.8 1.75 21.3 1.85 21.8 1.85 21.9 1.85 21.95 1.95 22.2 2 22.45 2.05 22.65 1.95 22.75 1.75 23 1.7 23.3 1.55 23.8 1.25 24.15 1.2 24.25 1.15 24.35 0.95 24.55 0.9 24.8 0.9 24.9 0.85 24.95 0.7 25.2 0.6 25.5 0.55 25.7 0.4 25.9 0.35 26 0.35 26.1 0.3 26.35 0.25 26.6 0.25 26.7 0.2 26.75 0.1 27 0 27.3 0.45 27.6 0.95 27.65 1.25 27.65 1.55 27.75 1.6 27.8 1.65 27.8 1.75 27.8 1.8 27.8 1.95 27.85 2.1 28 2.15 28 2.2 28 2.25 28.05 2.25 28.1 2.35 28.15 2.4 28.15 2.5 28.25 2.55 28.3 2.65 28.35 2.75 28.4 2.8 28.4 2.8 28.45 2.9 28.5 3 28.55 3.05 28.6 3.05 28.65 3.2 28.8 3.35 28.9 3.45 29 3.5 29.1 3.7 29.3 3.9 29.45 4 29.5 4.05 29.6 4.25 29.8 4.45 29.95 4.5 30.05 4.55 30.15 4.65 30.25 4.75 30.3 4.9 30.45 5 30.6 5.1 30.75 5.25 30.8 5.35 30.85 5.4 30.95 5.65 31.25 5.85 31.55 5.95 31.7 6 31.85 6.1 31.95 6.15 32 6.3 32.2 6.45 32.4 6.45 32.45 6.5 32.45 6.65 32.65 6.45 32.8 6.4 32.9 6.35 33
L 6.35 33.1
Q 7.3 33.15 8.25 33.15 8.55 33.15 8.85 33.1 8.95 33.1 9 33.05 9.1 33.05 9.2 33 9.5 32.9 9.8 32.7 9.9 32.7 9.95 32.65 10.15 32.55 10.3 32.5 10.4 32.45 10.5 32.45 10.7 32.4 10.9 32.35 11 32.35 11.05 32.35 11.4 32.35 11.65 32.1 11.75 32.05 11.85 32 11.95 31.9 12.05 31.8 12.25 31.65 12.4 31.5 12.5 31.5 12.55 31.45 12.65 31.35 12.75 31.25 13.25 30.8 13.7 30.25 13.75 30.2 13.85 30.1 14 29.95 14.1 29.8 14.25 29.7 14.3 29.55 14.4 29.45 14.4 29.35 14.5 29.2 14.6 29.05 14.7 29 14.75 28.9 14.95 28.55 15.25 28.3 15.3 28.25 15.3 28.2 15.35 28.2 15.4 28.2 15.95 28.2 16.4 28.5 16.5 28.55 16.55 28.55 16.85 28.6 17.1 28.85 17.3 29 17.55 29.2 17.65 29.25 17.7 29.3 17.8 29.4 17.9 29.4 18 29.5 18.05 29.55 18.35 29.7 18.7 29.85 18.85 29.9 18.95 29.95 19.15 30.05 19.35 30.15 19.4 30.25 19.5 30.25 19.75 30.4 20 30.55 20.1 30.6 20.2 30.6 21.15 30.6 22.15 30.6 22.3 30.55 22.4 30.7 22.5 30.75 22.6 30.8 23.5 31.15 24.15 31.9 24.5 32.25 24.85 32.6 24.95 32.7 25 32.8 25.5 33.35 26.1 33.85 26.25 33.95 26.45 34.1 26.55 34.15 26.6 34.25 26.75 34.5 27 34.7 27.1 34.8 27.15 34.9 27.3 35.05 27.45 35.15 27.65 35.25 27.7 35.45 27.75 35.5 27.8 35.5 28.05 35.6 28.3 35.6 28.4 35.6 28.45 35.65 28.55 35.65 28.6 35.65 28.85 35.75 29.15 35.75 29.25 35.75 29.3 35.75 29.5 35.8 29.7 35.85 29.9 35.95 30.15 35.95 30.25 35.95 30.3 35.95 30.45 36 30.6 36 30.7 36.05 30.75 36.05 31.1 36.05 31.35 36.15 31.45 36.15 31.5 36.15 31.75 36.2 31.95 36.3 32.05 36.35 32.1 36.35 32.2 36.4 32.3 36.4 32.5 36.35 32.65 36.45 32.8 36.5 32.95 36.55 33.75 36.65 34.45 37.05 34.55 37.15 34.65 37.15 34.95 37.2 35.2 37.35 35.4 37.45 35.6 37.55 35.8 37.65 36.05 37.65 36.25 37.7 36.45 37.75 36.8 37.85 37.1 37.95 37.2 38 37.25 38.05 37.75 38.25 38.25 38.3 38.55 38.35 38.8 38.4 38.9 38.45 38.95 38.5 39.4 38.7 39.8 38.9 39.95 38.95 40.1 39 40.2 39.05 40.25 39.1 40.7 39.4 41.2 39.55 41.3 39.6 41.4 39.6 41.8 39.6 42.15 39.55 42.25 39.55 42.3 39.5 42.4 39.45 42.45 39.3 42.45 39.2 42.5 39.1 42.75 38.75 43.15 38.8 43.3 38.85 43.4 38.75 43.5 38.65 43.65 38.7 44.1 38.7 44.6 38.7 45 38.7 45.2 38.4 45.35 38.25 45.45 38.1 45.55 38.05 45.6 37.95 45.75 37.6 46.05 37.45 46.15 37.4 46.2 37.4 46.55 37.4 46.9 37.45 47 37.45 47.1 37.45 47.25 37.5 47.35 37.55 47.45 37.55 47.55 37.6 47.8 37.8 48.1 37.95 48.35 38.05 48.65 38.1 49.1 38.1 49.55 38.1 49.85 38.1 50.1 38.15 50.3 38.15 50.5 38.2 50.65 38.25 50.8 38.25 51.15 38.2 51.45 38.3 51.7 38.4 51.95 38.45 52.1 38.45 52.2 38.45 52.5 38.45 52.8 38.55 53 38.6 53.15 38.6 53.25 38.65 53.3 38.65 53.7 38.75 54.1 38.75 54.2 38.75 54.3 38.8 54.35 38.8 54.4 38.85 54.8 39.05 55.3 39.05 55.4 39.05 55.45 39.05 55.55 39.1 55.65 39.1 55.75 39.15 55.8 39.15 56.75 39.15 57.7 39.15 58.3 39.15 58.9 39.1 59 39.1 59.1 39.05 59.55 38.85 59.8 38.45 59.9 38.3 59.9 38.15 59.95 38 60 37.9 60.1 37.8 60.2 37.7 60.4 37.55 60.65 37.35 60.9 37.2 61.1 36.95 61.2 36.8 61.3 36.6 61.35 36.5 61.45 36.4 61.5 36.35 61.55 36.25 61.65 36.1 61.95 36.15 62.25 36.15 62.4 36.35 62.75 36.1 63 35.8 63.35 35.4 63.75 35.15 63.85 35.1 63.9 35.1 64.4 35.2 64.7 35.55 64.75 35.65 64.85 35.7 64.95 35.8 65.05 35.9 65.1 35.9 65.15 35.9 65.3 35.85 65.4 35.7 65.5 35.65 65.6 35.55 65.65 35.45 65.7 35.35 65.8 35.25 65.9 35.15 66.1 35 66.2 34.85 66.3 34.75 66.4 34.75 66.75 34.8 67.1 34.95 67.15 34.55 67.45 34.35 67.75 34.1 68 33.9 68.1 33.85 68.2 33.8 68.3 33.75 68.35 33.65 68.4 33.6 68.45 33.55 68.65 33.3 68.95 33.05 69.1 32.9 69.2 32.75 69.3 32.7 69.35 32.6 69.4 32.55 69.5 32.45 69.55 32.35 69.6 32.25 69.75 32.1 69.9 31.9 70.1 31.6 70.05 31.2 70.05 31 70.05 30.8 70.05 30.35 70.4 30 70.45 29.9 70.5 29.8 70.65 29.7 70.75 29.55 70.95 29.35 71.1 29.1 71.4 28.7 71.6 28.2 71.7 28.05 71.8 27.95 71.9 27.75 72.05 27.55 72.1 27.35 72.15 27.2 72.2 27.1 72.25 27
L 72.25 26.95
Q 72.3 26.85 72.3 26.75 72.35 26.55 72.5 26.35 72.5 26.3 72.5 26.25 72.5 26.2 72.55 26.15 72.65 26.1 72.85 26.1 72.95 26.1 73 26.1 73.1 26.05 73.15 26.05 73.3 26 73.4 25.95 73.7 25.85 74 25.65 74.1 25.6 74.2 25.55 74.3 25.45 74.35 25.35 74.45 25.3 74.5 25.2 74.7 24.9 74.65 24.6 74.65 24.5 74.6 24.4 74.4 24.05 74.3 23.7 74.25 23.55 74.35 23.45 74.45 23.4 74.5 23.3 74.55 23.25 74.55 23.15 74.55 23.1 74.55 23 74.6 22.95 74.6 22.85 74.6 22.5 74.8 22.25 74.85 22.2 74.9 22.15 75.1 22 75.2 21.8 75 21.65 74.8 21.6 74.7 21.6 74.6 21.5 74.3 21.3 73.9 21.3 73.35 21.35 72.85 21 72.8 20.95 72.7 20.95 72.2 20.85 71.8 20.6 71.75 20.6 71.65 20.55 71.45 20.4 71.2 20.25 71.05 20.15 70.95 20 70.9 19.85 70.8 19.75 70.65 19.55 70.65 19.3 70.7 18.9 70.35 18.7 70.3 18.65 70.2 18.6 69.85 18.5 69.55 18.3 69.5 18.3 69.45 18.2 69.3 18.05 69.4 17.8 69.45 17.7 69.45 17.6 69.6 17.35 69.75 17.1 69.8 16.95 69.85 16.85 70.15 16.5 69.9 16.15 69.85 16.1 69.8 16.1 69.6 16.05 69.5 15.9 69.45 15.75 69.25 15.7 69.2 15.7 69.15 15.6 68.85 15.3 68.45 15.2 68.15 15.15 67.95 15.3 67.95 15.35 67.9 15.35 67.8 15.5 67.65 15.45 67.4 15.35 67.15 15.35 66.55 15.3 66.2 14.85 66.1 14.75 66.05 14.65 65.85 14.35 65.7 14.05 65.65 14 65.65 13.9 65.6 13.4 65.6 12.9 65.6 12.75 65.65 12.6 65.65 12.5 65.65 12.4 65.65 12.3 65.55 12.2 65.3 12 65.05 11.8 65 11.75 64.9 11.65 64.45 11.35 63.95 11.15 63.8 11.1 63.65 11 63.6 11 63.5 10.95 63.4 10.9 63.25 10.9 63.2 10.9 63.1 10.9 63 10.85 62.9 10.85 62.75 10.8 62.6 10.8 62.5 10.8 62.4 10.75 Z"/>

</g>
<!-- </defs> -->

<!-- <g transform="matrix( 1, 0, 0, 1, 0,0) ">
<use xlink:href="#Layer0_0_FILL"/>

<use xlink:href="#Layer0_0_1_STROKES"/>
</g> -->
</svg>
