
<svg xmlns="http://www.w3.org/2000/svg" version="1.1" xmlns:xlink="http://www.w3.org/1999/xlink" preserveAspectRatio="none"  viewBox="-271735 -176005 379800 379656">
<!-- <defs> -->


<defs><linearGradient id="solids1380061" x1="0" y1="0" x2="0" y2="1"><stop offset="0%" style="stop-color:rgb(0, 64, 0);stop-opacity:1" />
           <stop offset="100%" style="stop-color:rgb(0, 64, 0);stop-opacity:1" /></linearGradient > </defs >
<g   fill="url(#solids1380061)">
<path  id="1380061" name = "Gandhi nagar"  stroke="none" d="
M 11.15 3.65
Q 11.25 3.5 11.35 3.35 11.45 3.2 11.65 2.8
L 9.3 2.05 9.2 2 9.65 1.65 8.8 0 6.95 1.95
Q 6.9 1.95 6.85 1.95 6.8 1.9 6.8 1.85
L 6.8 1.8
Q 6.75 1.8 6.75 1.75 6.75 1.7 6.7 1.7 6.65 1.65 6.65 1.6 6.6 1.5 6.5 1.45 6.5 1.35 6.45 1.35
L 6.4 1.3
Q 6.4 1.25 6.35 1.2
L 6.3 1.2
Q 6.25 1.1 6.15 1.05
L 6.1 1
Q 6.05 1 6.05 0.95 6 0.95 5.95 0.9 5.9 0.85 5.9 0.8
L 5.85 0.8
Q 5.85 0.75 5.8 0.7 5.75 0.6 5.7 0.5
L 5.7 0.45
Q 5.65 0.4 5.65 0.35
L 5.65 0.25
Q 5.65 0.2 5.6 0.2 5.6 0.1 5.6 0.05
L 5.55 0
Q 5.5 0.05 5.4 0.05 5.35 0.05 5.25 0.1
L 5.2 0.1
Q 5.2 0.15 5.15 0.15 4.95 0.15 4.7 0.15 4.55 0.15 4.4 0.15 4.25 0.2 4.1 0.2 4.05 0.2 4.05 0.25
L 4 0.25
Q 3.95 0.25 3.9 0.3 3.85 0.25 3.8 0.3 3.65 0.3 3.55 0.3 3.2 0.25 2.85 0.25
L 2.95 3.2
Q 3.05 3.2 3.05 3.35
L 3.05 3.4
Q 3.1 3.5 3.15 3.65
L 3.15 3.75 3.2 3.8
Q 3.2 3.85 3.2 3.9 3.2 4 3.25 4.1 3.25 4.15 3.25 4.2 3.25 4.45 3.35 4.6
L 3.35 4.65
Q 3.4 4.7 3.4 4.75 3.4 4.8 3.4 4.85 3.45 4.95 3.5 5.1 3.6 5.3 3.55 5.55 3.55 6 3.55 6.4
L 3.55 6.45
Q 3.55 6.55 3.5 6.65
L 3.5 6.75
Q 3.5 6.85 3.5 6.9 3.45 6.9 3.45 6.95 3.45 7.4 3.45 7.85 3.45 8.3 3.45 8.7 3.45 8.85 3.45 9
L 3.45 9.05
Q 3.45 9.1 3.4 9.1 3.4 9.3 3.4 9.5
L 3.35 9.55 3.35 9.65
Q 3.3 9.9 3.15 10.1 3.1 10.25 3.05 10.35 3 10.4 3 10.45
L 3 10.5
Q 2.9 10.65 2.85 10.8 2.8 10.85 2.75 10.9
L 2.75 10.95
Q 2.65 11.15 2.6 11.3 2.55 11.5 2.4 11.65 2.25 11.85 2.05 12.05 1.9 12.2 1.8 12.4
L 1.8 12.45 1.75 12.5
Q 1.7 12.6 1.65 12.75 1.55 12.8 1.55 12.95 1.55 13 1.5 13.05 1.4 13.25 1.4 13.5 1.4 13.55 1.45 13.6
L 1.5 13.6
Q 1.55 13.65 1.65 13.7
L 1.7 13.7
Q 1.75 13.75 1.8 13.8 1.9 13.85 1.95 13.95 2.05 14.05 2.05 14.15 2.1 14.15 2.1 14.2 2.15 14.25 2.15 14.3 2.2 14.35 2.2 14.4 2.3 14.55 2.3 14.8 2.3 15.05 2.3 15.35
L 2.3 15.4
Q 2.3 15.5 2.25 15.55
L 2.25 15.6
Q 2.2 15.65 2.2 15.75
L 2.2 15.8
Q 2.2 16 2.2 16.25 2.2 16.35 2.2 16.5 2.15 16.65 2.15 16.8
L 2.15 16.85
Q 2.15 17.1 2.2 17.4
L 2.2 17.45
Q 2.25 17.6 2.2 17.7
L 2.2 17.75
Q 2.2 17.85 2.25 17.95
L 2.25 18
Q 2.25 18.2 2.25 18.4 2.25 18.6 2.25 18.7 2.3 18.75 2.3 18.8
L 2.3 18.9
Q 2.35 19.15 2.35 19.45 2.3 19.55 2.25 19.7 2.2 19.8 2.15 19.9 2.15 19.95 2.1 20 2 20.2 1.85 20.25 1.7 20.3 1.6 20.4
L 1.55 20.4
Q 1.55 20.45 1.5 20.45
L 1.45 20.45
Q 1.3 20.5 1.15 20.6 0.95 20.75 0.85 20.95 0.85 21.05 0.8 21.15
L 0.8 21.2
Q 0.8 21.3 0.7 21.35 0.7 21.4 0.65 21.45 0.65 21.55 0.6 21.65 0.55 21.85 0.5 22 0.45 22.15 0.45 22.3 0.4 22.3 0.4 22.35 0.35 22.4 0.3 22.5 0.3 22.55 0.3 22.6 0.25 22.65 0.25 22.75
L 0.2 22.8
Q 0.2 23 0.1 23.15
L 0.1 23.2
Q 0.05 23.35 0 23.45
L 0 23.5
Q 0.15 23.7 0.2 23.8 0.25 23.85 0.3 23.9 0.4 24.2 0.7 24.15 0.85 24.15 0.95 24.2 1.1 24.3 1.15 24.45 1.2 24.65 1.25 24.9 1.25 25.05 1.35 25.1 1.45 25.15 1.5 25.2 1.7 25.4 1.95 25.4 2.65 25.3 3.1 25.65 3.05 25.55 3.05 25.4 3.1 25.3 3.1 25.15
L 3.1 25.1
Q 3.1 25 3.15 24.9 3.15 24.85 3.15 24.8 3.2 24.75 3.2 24.7 3.25 24.6 3.25 24.5
L 3.25 24.45 3.3 24.45
Q 3.35 24.35 3.35 24.3 3.3 24.15 3.4 24.05 3.45 24 3.45 23.85 3.5 23.75 3.55 23.6 3.6 23.6 3.6 23.55
L 3.6 23.45
Q 3.7 23.4 3.65 23.35 3.65 23.3 3.65 23.25 3.65 23.2 3.65 23.15 3.65 23.1 3.7 23.05 3.75 23 3.75 22.95 3.75 22.9 3.8 22.85
L 3.8 22.75 3.85 22.75 3.85 22.65
Q 3.9 22.6 3.9 22.55 3.9 22.5 3.95 22.4
L 3.95 22.35
Q 4 22.3 4.05 22.2
L 4.05 22.15
Q 4.1 22.1 4.1 22.05
L 4.1 22
Q 4.15 21.95 4.2 21.85
L 4.2 21.75
Q 4.25 21.65 4.3 21.55 4.4 21.5 4.5 21.55
L 4.55 21.55
Q 4.55 21.6 4.6 21.6
L 4.65 21.6
Q 4.75 21.6 4.85 21.6
L 4.9 21.6
Q 4.9 21.65 4.95 21.65
L 5 21.65
Q 5.1 21.65 5.2 21.65
L 5.25 21.65
Q 5.3 21.7 5.35 21.7 5.45 21.7 5.5 21.7
L 5.6 21.7 5.65 21.75
Q 5.7 21.75 5.75 21.8
L 5.8 21.8 5.85 21.85
Q 5.9 21.9 6.05 21.95
L 6.05 22
Q 6.1 22 6.15 22
L 6.15 22.05
Q 6.15 22.1 6.2 22.1
L 6.25 22.1
Q 6.3 22.1 6.35 22.15
L 6.4 22.15 6.45 22.2
Q 6.5 22.2 6.5 22.15
L 6.5 22.1
Q 6.6 21.95 6.75 21.8 6.85 21.7 6.85 21.6
L 6.85 21.55 6.9 21.5 6.9 21.45 6.95 21.45
Q 6.95 21.4 7 21.4
L 7.1 21.4
Q 7.2 21.4 7.3 21.45 7.35 21.45 7.4 21.45
L 7.45 21.45
Q 7.55 21.5 7.6 21.5 7.65 21.5 7.7 21.55
L 7.75 21.55
Q 7.8 21.55 7.85 21.6 7.9 21.6 7.95 21.65
L 8 21.65 8.05 21.7
Q 8.15 21.7 8.25 21.75 8.25 21.8 8.3 21.8
L 8.35 21.8
Q 8.5 21.85 8.6 21.85 8.65 21.9 8.7 21.9
L 8.75 21.9 8.75 21.95
Q 8.8 21.95 8.85 21.95 8.9 21.95 8.95 22
L 9.05 22
Q 9.15 22.05 9.3 22.05
L 9.35 22.05 9.4 22
Q 9.4 21.9 9.45 21.85
L 9.5 21.8
Q 9.5 21.75 9.5 21.7 9.5 21.65 9.55 21.65
L 9.55 21.55
Q 9.55 21.5 9.6 21.45
L 9.6 21.4 9.65 21.35 9.65 21.3 9.7 21.25
Q 9.75 21.15 9.8 21.1 9.8 21.05 9.85 21.05
L 9.85 21 9.9 21
Q 9.9 20.95 9.95 21 10 21.05 10.05 21.1
L 10.1 21.1 10.15 21.15
Q 10.2 21.2 10.25 21.2 10.35 21.25 10.45 21.3 10.5 21.3 10.6 21.35 10.65 21.35 10.7 21.4
L 10.75 21.4
Q 10.8 21.4 10.8 21.45
L 10.9 21.45
Q 10.95 21.5 11 21.5
L 11.1 21.5 11.15 21.55
Q 11.2 21.55 11.25 21.55 11.3 21.55 11.35 21.6 11.45 21.6 11.5 21.65
L 11.55 21.65
Q 11.6 21.65 11.6 21.7 11.65 21.7 11.65 21.75 11.75 21.8 11.85 21.8 11.85 21.85 11.9 21.85 11.95 21.9 12 21.9
L 12.1 21.9 12.15 21.95 12.2 21.95
Q 12.25 22 12.35 22.05
L 12.4 22.05
Q 12.5 22.1 12.55 22.15 12.65 22.15 12.7 22.2
L 12.75 22.2 12.8 22.25 12.85 22.25
Q 12.9 22.25 12.95 22.3 13.1 22.3 13.2 22.3
L 13.15 22.25 13.15 22.05
Q 13.2 22.05 13.2 22
L 13.2 21.95 13.25 21.95 13.25 21.85
Q 13.3 21.85 13.3 21.8 13.35 21.8 13.35 21.75
L 13.4 21.7 13.4 21.65
Q 13.4 21.6 13.45 21.55
L 13.5 21.5 13.5 21.4
Q 13.5 21.35 13.55 21.35
L 13.55 21.3
Q 13.6 21.3 13.6 21.25
L 13.65 21.2
Q 13.75 21 13.85 20.8 13.95 20.6 14.1 20.45 14.15 20.4 14.2 20.3
L 14.25 20.25
Q 14.3 20.2 14.3 20.15 14.35 20.15 14.35 20.1 14.4 20.1 14.4 20.05
L 14.45 20
Q 14.5 19.9 14.55 19.8 14.6 19.6 14.75 19.45
L 14.8 19.45
Q 15.1 19.1 15.35 18.75
L 15.35 18.7
Q 15.4 18.65 15.45 18.6
L 15.45 18.55
Q 15.6 18.35 15.75 18.2 15.8 18.1 15.85 18
L 15.9 17.95
Q 15.9 17.9 15.95 17.85
L 15.95 17.8
Q 16.05 17.7 16.1 17.6 16.1 17.55 16.1 17.5 16.15 17.4 16.2 17.35
L 16.25 17.3
Q 16.25 17.1 16.3 17 16.3 16.95 16.35 16.95
L 13 14.65 12.9 14.65
Q 12.85 14.65 12.85 14.6
L 12.8 14.6
Q 12.75 14.6 12.7 14.6
L 12.7 14.55 12.6 14.55 12.55 14.5
Q 12.5 14.45 12.45 14.45
L 8.75 14.25 8.7 14.25 8.7 14.2 8.65 14.15
Q 8.6 14.1 8.6 14.05 8.6 14 8.6 13.95
L 8.55 13.9 8.55 13.8
Q 8.55 13.75 8.5 13.7 8.5 13.6 8.5 13.5 8.45 13.45 8.45 13.4 8.4 13.3 8.4 13.2
L 8.35 13.2 8.35 13.1
Q 8.35 13.05 8.35 13
L 8.35 12.9
Q 8.3 12.8 8.3 12.7
L 8.25 12.7 8.25 12.45
Q 8.25 12.3 8.25 12.1 8.25 12.05 8.25 12 8.3 12 8.25 11.95 8.25 11.9 8.3 11.9
L 8.35 11.85 8.35 11.8
Q 8.35 11.75 8.4 11.65
L 8.4 11.6
Q 8.45 11.55 8.45 11.5 8.5 11.45 8.55 11.4
L 8.55 11.35
Q 8.55 11.3 8.6 11.3 8.6 11.2 8.65 11.15
L 8.7 11.15 8.7 11.1
Q 8.75 11.1 8.8 11.05 8.85 11 8.75 11 8.75 10.95 8.7 10.95
L 8.6 10.95 8.55 10.9 8.5 10.9
Q 8.4 10.85 8.35 10.8
L 8.3 10.8
Q 8.15 10.8 8.05 10.7 8 10.7 7.95 10.7 7.9 10.65 7.85 10.65 7.8 10.65 7.75 10.6
L 7.7 10.6
Q 7.65 10.55 7.55 10.5 7.45 10.45 7.4 10.45 7.3 10.4 7.25 10.35
L 7.2 10.3
Q 6.95 10.15 6.8 10
L 6.8 9.95
Q 6.85 9.9 6.85 9.8 6.9 9.7 7 9.7 7.1 9.65 7.2 9.6 7.25 9.6 7.25 9.55 7.4 9.45 7.55 9.3
L 7.6 9.25
Q 7.7 9.05 7.85 8.85 8 8.7 8.1 8.45
L 8.1 8.4
Q 8.15 8.3 8.2 8.25 8.25 8.25 8.25 8.15
L 8.3 8.1
Q 8.35 7.95 8.5 7.8 8.55 7.7 8.6 7.6
L 8.65 7.55
Q 8.7 7.35 8.85 7.2
L 8.9 7.15 8.9 7.1 8.95 7.05 8.95 7
Q 9 6.95 9.05 6.9 9.15 6.7 9.3 6.5
L 9.35 6.45
Q 9.35 6.4 9.4 6.35 9.5 6.25 9.55 6.2 9.6 6.1 9.65 6 9.7 5.9 9.75 5.8 9.75 5.75 9.8 5.75
L 9.8 5.7
Q 9.9 5.65 9.9 5.6
L 10 5.5
Q 10 5.4 10.05 5.3 10.2 5.1 10.4 4.9
L 10.45 4.85 10.45 4.8
Q 10.55 4.75 10.6 4.7
L 10.65 4.65
Q 10.7 4.55 10.75 4.4
L 10.8 4.4 10.8 4.35
Q 10.8 4.2 10.9 4.1
L 10.95 4.1
Q 11 4 11.05 3.9 11.05 3.8 11.1 3.75 11.15 3.75 11.15 3.7
L 11.15 3.65 Z"/>
</g>


<!-- </defs> -->







</svg>
