<?xml version="1.0" encoding="utf-8"?>
<!-- Generator: Adobe Illustrator 21.0.2, SVG Export Plug-In . SVG Version: 6.00 Build 0)  -->
<svg version="1.1" id="fotos" onload="showRootChildrenCount(this)"
	 xmlns="http://www.w3.org/2000/svg" xmlns:xlink="http://www.w3.org/1999/xlink" x="0px" y="0px" viewBox="0 0 3400 3400"
	 style="enable-background:new 0 0 3400 3400;" xml:space="preserve">
<style type="text/css">
	.st0{fill:#FFFFFF;stroke:#000000;stroke-width:0.5;}
	.st1{fill:#7C7C7C;}
</style>

<!-- <defs>
    <linearGradient id="solids207" x1="0" y1="0" x2="0" y2="1"><stop offset="0%" style="stop-color:rgb(243, 12, 12);stop-opacity:1" />
    <stop offset="50.0%" style="stop-color:rgb(243, 12, 12);stop-opacity:1" />
    <stop offset="50.0%" style="stop-color:rgb(27, 104, 7);stop-opacity:1" />
    <stop offset="100%" style="stop-color:rgb(27, 104, 7);stop-opacity:1" /></linearGradient > </defs > -->



<!-- <path id="207" class = "st0" next_level = "207_5_7" d="M26.1,1420.8l-0.2,0l0-0.1l0.2-0.1l0.2,0l-0.1,0.1L26.1,1420.8L26.1,1420.8z M195.5,1485.6l-0.8,0.6
	l-0.5-0.2l-0.9-0.1l-0.4-0.4l-1-0.4l-0.4-0.5l0.6-1l1.4-0.8l2.1,0l0.4,0.7l0,0.5l-0.3,0.6l-0.1,0.8L195.5,1485.6L195.5,1485.6z
	 M187.9,1486.6l-0.2,0.4l-0.3-0.1l-0.1-0.4l0.2-0.6l0.5-0.5l0.6-0.7l0.5,0.1l-0.3,0.5l0,0.5l-0.7,0.3L187.9,1486.6z M210.3,1490.4
	l0.3,0.1l0.4-0.1l0.1,0.8l0.5,0.4l0.2,0.3l-0.5,0.3l-1,0.1l-0.5-0.2l-0.5-0.5l-0.5,0.1l-0.1-0.4l-0.1-0.1l-0.4,0.1l0.3,0.5l-0.9,0
	l-0.3-0.1l-0.3-0.6l-0.9-1.1v-0.4l-0.3-0.5l1.4-0.2l1-0.9l0.5-0.1l1,1.5l0,0.4l0.2,0.4L210.3,1490.4L210.3,1490.4z M215.8,1492.9
	l2,0.3l0.5-0.1l0.3,0.2l1.6,0.1l0.3,0.1l-0.3,0.5l-1.1,0.5l-1.5-0.4l-2.5-0.2l0.1-0.4l0.2-0.3l0-0.5L215.8,1492.9L215.8,1492.9z
	 M222.7,1495.7l0.2,0.2l1-0.3l0.7-0.1l1.2,0.7l0.4,0.4l0.8,0.5l0.3,0.3l-0.2,0.4l-0.9,0.7l-1.2,0.2l-0.7,0.3l-0.9-0.1l-0.3-0.1
	l-0.1-0.9l-0.3-1l-0.6,0.1l-0.7-0.3l-0.7-0.8l-0.1-0.5l0.4-0.8l0.7-0.1l0.5,0.4L222.7,1495.7L222.7,1495.7z M219.2,1497.3l-0.6,0.3
	l-0.6-0.1l-0.1-0.7l-0.6-0.9l1-0.2l0.6,0.3l0.3,0.3l0.4,0.5L219.2,1497.3L219.2,1497.3z M231.2,1514.8l-0.4,0.5l-0.5,0l-1.9-1
	l-0.2-0.5l0.1-2.5l-0.7-2.1l-0.8-1.6l0.6-0.8l0.8-0.6l0.8-1.2l-0.7-1.5l0.2-0.9l0.4-0.2l2,1.1l4,1.7l1.1,1.2l0.2,1.3l0.7,0.2
	l0.3,0.9l1.1,0.8l0.4,0.4l-0.4,0.7l-1.9,1.3l-2.4,0.6l-2.1,1.5L231.2,1514.8L231.2,1514.8z"/> -->
<g id = "207"  name = "U.S">
	<polygon  points="864.9,1398.8 864.4,1398.9 864.6,1399 865.9,1399 866.7,1398.8 866.3,1398.6 	"/>
	<polygon  points="571,1365.5 570.6,1365.4 570.1,1365.4 570.4,1366 571,1366.1 571.4,1366.1 571.4,1366 	"/>
	<polygon  points="581.3,1370.2 580.2,1369 579.7,1368.2 579.4,1368.4 580,1369.3 580.5,1370.4 581.1,1370.6 
		581.7,1370.5 581.7,1370.5 	"/>
	<polygon  points="581.3,1363.9 579.7,1363.2 579.6,1363.4 579.7,1363.7 579.7,1363.7 580.2,1363.8 580.3,1363.9 
		580.5,1364.6 580.8,1365 581.5,1365 582.2,1365.1 581.7,1364.2 	"/>
	<polygon  points="563.2,1357 563.2,1357 563.2,1357 	"/>
	<polygon  points="565.5,1357 563.8,1357.2 564.6,1358.2 565.1,1358.4 565.7,1358.2 565.7,1358.2 566.3,1357.6 
		566.2,1357.5 	"/>
	<polygon  points="571.4,1366.1 571.4,1366.1 571.4,1366.1 	"/>
	<polygon  points="570.4,1357 570.2,1356.7 569.2,1357 567.2,1356.4 566.9,1356.6 567.2,1357 567.2,1357.4 567.9,1357.7 
		570.3,1357.2 	"/>
	<polygon  points="562.7,1356.5 562.2,1356.7 562,1357 562.7,1357.1 563.2,1357 562.8,1356.6 	"/>
	<polygon  points="939.4,1451.3 939.3,1451.9 938.9,1452.5 938.4,1452.8 938.1,1453.3 937.4,1454.3 937.2,1454.8 
		939.1,1452.9 939.1,1452.9 940.3,1450.7 940,1450.8 	"/>
	<polygon  points="932,1457.3 932.4,1457.5 932.8,1457.3 933.4,1457.1 933.9,1456.8 932.5,1457.1 	"/>
	<polygon  points="934.8,1456.2 934.7,1456.4 934.9,1456.4 935.3,1456.2 935.3,1456 935.1,1455.9 	"/>
	<polygon  points="930.2,1457.6 929.3,1456.9 929.3,1457.1 929.7,1457.8 929.7,1458.1 929.8,1458.1 930.1,1457.9 
		930.1,1457.9 930.2,1457.8 	"/>
	<polygon  points="922.5,1439 921.9,1438.2 922.1,1438.9 922.5,1439.3 923.2,1439.5 923.5,1439.2 923.5,1439.2 
		922.7,1439.1 	"/>
	<polygon  points="927.8,1458.2 927.3,1458.6 927.9,1458.5 927.9,1458.5 928.2,1458.3 928.3,1458 928,1457.5 	"/>
	<polygon  points="923,1438.8 923.1,1438.2 923.1,1438.2 922.7,1437 922.3,1436.6 922.6,1437.8 	"/>
	<polygon  points="896.8,1405 895.6,1405.6 895.1,1405.4 894.5,1405.5 895.5,1405.8 896.5,1405.4 898.1,1404.4 
		897.4,1404.6 	"/>
	<polygon  points="925.6,1458.9 925.6,1459.1 925.9,1459 926.3,1458.9 926.3,1458.7 926,1458.7 	"/>
	<polygon  points="936.4,1455.4 936.7,1455.3 936.9,1455 936.8,1454.9 	"/>
	<polygon  points="939.3,1426.3 938.9,1425.1 938.6,1424.5 939.1,1426.7 940.2,1429.5 941.1,1431.3 940.9,1430.6 
		940.9,1430.6 	"/>
	<polygon  points="928.7,1391.8 928.7,1392.7 928.9,1393.6 929.3,1391 929,1391.2 	"/>
	<polygon  points="859.2,1400.9 859.6,1402.3 859.3,1403.9 859.6,1403.6 859.7,1402.2 859.6,1401.5 	"/>
	<polygon  points="858.5,1405 858.5,1405.2 859,1404.6 859,1404.6 859.2,1404.2 858.9,1404.4 	"/>
	<polygon  points="831.6,1405.9 830.9,1405.4 830.4,1405.4 829.6,1405.7 829.7,1406.1 831.3,1407.1 831.7,1406.9 
		831.7,1406.9 832,1406.5 832,1406.2 831.9,1406 	"/>
	<polygon  points="856.2,1399.7 855.4,1400.3 855.2,1400.5 855,1400.7 854.7,1400.8 855.4,1400.9 855.9,1401.1 
		855.8,1400.6 856,1400.2 	"/>
	<polygon  points="1031,1268.8 1030.5,1268.9 1029.7,1269.9 1029,1270 1029.4,1270.4 1032,1269.8 1031.9,1269.3 	"/>
	<polygon  points="1036.4,1269.5 1036.4,1269.8 1036.2,1270.4 1036,1270.5 1034.6,1270.9 1036.3,1271.4 1037,1271.2 
		1037,1271.2 1036.9,1270.8 	"/>
	<polygon  points="987.6,1310.1 987.4,1310.5 987.4,1310.5 986.2,1312.5 986.6,1312.3 987.6,1310.5 987.6,1310.5 
		987.8,1310.1 988.5,1308.8 988.8,1307.4 988.4,1308.1 	"/>
	<polygon  points="1049.3,1233 1049.1,1233.1 1049,1233.3 1049,1233.9 1049.4,1234 1049.8,1233.8 1049.5,1233.2 	"/>
	<polygon  points="1053.4,1230.6 1052.8,1230.3 1052.4,1230.7 1051.8,1231.6 1051.8,1232.5 1052,1232.7 1052.7,1233.1 
		1052.7,1232.8 1052.7,1232.1 1053.3,1232.2 1053.9,1232 1053.8,1231.6 	"/>
	<polygon  points="890.5,1212.8 890.2,1213.3 889.9,1214.4 889.8,1215 890.1,1215.2 890.4,1215.1 890.8,1214.8 
		891,1214.3 890.9,1213.1 891,1213 	"/>
	<polygon  points="897.8,1212.6 897.8,1212.6 897.8,1212.6 	"/>
	<polygon  points="885.7,1221.1 885.6,1221.2 885.8,1221.8 886,1222 886.3,1222 886.4,1221.8 886.4,1221.4 886.2,1221.2 
			"/>
	<polygon  points="903.4,1205.4 903.3,1205.4 903.2,1205.7 903.3,1206 903.8,1206.5 903.9,1206.5 903.9,1206.3 
		903.9,1205.9 903.7,1205.6 	"/>
	<polygon  points="906.7,1210.4 907.6,1210.6 908.9,1210.6 909.6,1210.3 909.8,1209.9 909.7,1209.6 909.5,1209.5 
		909,1208.7 908.7,1208.5 908,1208.4 907.9,1208.5 908,1208.8 908,1209 907.7,1209.3 907.1,1209.6 906.7,1209.7 906.4,1209.5 
		906.2,1209.6 906.2,1209.9 906.3,1210.1 	"/>
	<polygon  points="897.9,1212.6 897.8,1212.6 897.9,1212.6 	"/>
	<polygon  points="901,1212.4 899.8,1212.2 899.8,1212.2 899.7,1212.4 900.4,1213.1 900.9,1213.4 901.1,1213.3 
		901.4,1213.2 901.5,1213 901.4,1212.7 901.1,1212.3 	"/>
	<polygon  points="861.6,1193.2 861.6,1193.8 862,1194.2 863.3,1194.5 863.3,1194.3 863.3,1194.2 863.1,1194.1 
		863.4,1193.5 863.5,1193.7 863.5,1194.3 863.2,1194.8 862.9,1195.1 862.9,1195.5 863.2,1196 863.6,1195.9 864,1195.1 865.1,1194 
		865.1,1193.7 865.3,1193.2 865.3,1193.2 867.2,1191.7 867.6,1191.3 867.5,1191.1 867.1,1190.8 867.1,1190.7 869.3,1190.5 
		869.8,1190.2 869.3,1189.7 868.5,1189.5 867.4,1189.5 866.3,1189.6 864.3,1190.3 863.6,1190.8 862.1,1192.4 	"/>
	<polygon  points="903,1204.6 903.2,1204.9 903.5,1205.1 903.8,1205.2 903.8,1204.9 903.5,1204.2 903.5,1203.6 
		903.7,1203 903.7,1202.6 903.3,1202.4 903,1202.5 902.4,1203.2 902.8,1203.7 	"/>
	<polygon  points="856.1,1184.1 856.1,1184.3 856.5,1184.5 857.2,1184.4 858.2,1183.9 858.6,1183.7 858.7,1183.6 
		858.3,1183.5 858.4,1183.3 858.4,1183.3 858.8,1183.2 861.5,1181.7 861.8,1181.3 861.7,1181 861.9,1180.7 862.8,1179.9 
		862.7,1179.8 861.8,1180 860.3,1180.8 856.6,1182.9 856.1,1183.3 856.1,1183.4 856.4,1183.4 856.4,1183.6 	"/>
	<polygon  points="860.6,1398.7 860.7,1398.9 861.2,1399.1 862,1399.3 862.1,1399.2 862,1399 	"/>
	<polygon  points="976.2,1348.7 975.4,1350.2 975.6,1350 975.6,1350 977,1348.2 978.4,1346.6 977.9,1346.9 	"/>
	<polygon  points="985,1337.1 985,1337.5 985.2,1339.4 985.2,1340.5 984.7,1342.8 983.2,1343.4 983.4,1343.5 
		984.6,1343.2 984.6,1343.2 985,1342.7 985.4,1340.8 985.5,1339.5 985.2,1337.7 	"/>
	<polygon  points="974,1349.4 974.1,1349.6 974.6,1349.8 975,1349.9 975.2,1349.9 974.5,1349.4 	"/>
	<polygon  points="984.7,1336.5 984.5,1335.8 982.6,1331.8 981.7,1328 981.4,1328 981.4,1328 982.1,1331.3 982.9,1333.3 
		984.3,1335.9 	"/>
	<polygon  points="980.5,1344.5 980.7,1344.6 982.4,1343.8 981.6,1344 	"/>
	<polygon  points="983.8,1336.1 983.7,1335.8 983.6,1335.5 983,1335.1 983.6,1336.3 	"/>
	<polygon  points="996.8,1292.6 997.9,1290.7 998.2,1289.9 996.8,1292.2 	"/>
	<polygon  points="1017,1274.3 1016.6,1273.8 1016.2,1273.9 1015.3,1274.2 1014.1,1274.8 1013.6,1275.3 1013.1,1275.6 
		1012.5,1275.5 1013.2,1274.7 1013.2,1274.7 1014,1274 1015.4,1272.6 1014.5,1272.9 1012.9,1274.1 1012.1,1274.6 1010.2,1274.8 
		1008.2,1274.9 1007.5,1275 1006.8,1275.4 1005.9,1275.4 1005.1,1275.2 1004.7,1275.2 1004.4,1275.4 1004,1275.5 1003.2,1275.5 
		1002.8,1275.6 1002.5,1276 1002.4,1276.5 1002,1276.1 1001.4,1276.5 1000.3,1277.1 999.5,1277.9 999.1,1278.4 998.8,1279 
		999,1279.7 999.8,1279.4 1000.3,1278.8 1000.8,1278.7 1001,1278.9 1001,1279.2 1000.1,1279.8 1001.3,1279.5 1002.7,1279.4 
		1006.1,1278.7 1006.4,1278.8 1006.7,1278.8 1010.8,1277.2 1011.6,1277.1 1012.7,1276.6 1013.9,1276 1014.8,1275.8 1018.9,1273.7 
		1017.9,1273.9 	"/>
	<polygon  points="978.1,1236.1 978.2,1236 977.9,1236 977.7,1236.2 977.7,1236.5 977.9,1236.5 	"/>
	<polygon  points="979.3,1232.7 979.6,1232.5 979.6,1232.3 979.2,1232.3 979,1232.5 978.9,1232.7 979,1232.8 	"/>
	<polygon  points="952.9,1248.6 952.2,1248.4 952,1248.6 951.9,1248.9 952,1249.2 952.2,1249.4 952.5,1249.4 952.7,1249 
		952.7,1249 952.9,1248.7 	"/>
	<polygon  points="997.4,1279.3 996.9,1280.5 997.4,1280.4 997.4,1280.4 997.9,1280.2 998.4,1279.6 998.5,1279.3 
		998.5,1278.8 998.2,1278.7 	"/>
	<polygon  points="1023.8,1267.4 1023.6,1268.1 1023.7,1268.7 1024,1268.4 1024,1268.4 1024.1,1267.7 1024,1267.3 	"/>
	<polygon  points="1024.8,1266.8 1024.5,1267.5 1024.4,1268.2 1024.1,1268.6 1024.7,1268.7 1025.1,1268.4 1025.2,1266.3 
		1024.9,1266.5 	"/>
	<polygon  points="781.4,1425.3 779.9,1428 779.1,1430.1 779,1431 779.3,1430.3 779.3,1430.3 780.3,1427.8 782.1,1424.8 
			"/>
	<polygon  points="779,1431.4 778.8,1432.4 778.9,1435.4 780.1,1440.5 780.9,1442.8 781,1442.3 780.7,1440.8 
		779.3,1435.6 	"/>
	<polygon  points="802.7,1409.2 800.6,1410.8 801.1,1410.7 802.7,1409.6 803.7,1408.6 803.1,1408.6 	"/>
	<polygon  points="787.8,1419.3 787.2,1419.4 785.6,1420.5 784.9,1420.8 784.5,1421.4 784.9,1421.3 784.9,1421.3 
		786.9,1420 788.2,1419.4 788.3,1418.9 788.1,1418.9 	"/>
	<polygon  points="783.6,1421.7 782.8,1422.8 782.8,1423.1 782.3,1424 782.5,1424 782.5,1424 783.4,1422.8 784.2,1422 
		784,1421.5 	"/>
	<polygon  points="538.9,1173.9 539,1173.6 538.8,1172.9 539,1172.9 539.4,1173.4 539.7,1173.4 540.1,1173.1 
		539.9,1172.8 539.9,1172.8 538.9,1172.2 538.7,1172.3 538.1,1172.7 537.9,1173.1 538,1173.4 	"/>
	<polygon  points="536.6,1175.1 537,1175.4 538,1175.7 537.8,1175.2 537.8,1175.2 537.7,1174.7 536.8,1173.6 
		536.4,1173.7 536.3,1174 536.4,1174.8 	"/>
	<polygon  points="539.1,1174.5 539,1174.5 538.7,1174.7 538.5,1175.4 538.6,1175.8 538.9,1176.1 539.4,1176.3 
		539.6,1176.2 539.6,1175.9 539.2,1175.2 	"/>
	<polygon  points="542.2,1178.1 542.3,1177.7 541.9,1177.2 541.6,1176.9 541.4,1176.9 541,1177.3 540.5,1178.3 
		540.2,1178.9 540.3,1179.1 540.8,1179.8 541.1,1180.1 541.4,1180.1 541.6,1180.5 541.6,1181.5 541.7,1181.8 542,1182.4 
		542.7,1182.5 542.9,1182.8 543.2,1183.2 543.4,1183.4 543.7,1183.3 543.9,1183.1 543.9,1182.5 542.6,1181.1 542.4,1181.9 
		541.9,1180.1 541.9,1180.1 541.7,1179.4 541.4,1179.3 540.7,1179 540.8,1178.9 	"/>
	<polygon  points="542.6,1187.9 542.6,1187.9 542.5,1186.7 542.4,1186.6 542.1,1186.4 542,1186.5 541.9,1186.9 
		541.9,1187.6 542.1,1187.9 542.6,1188.2 	"/>
	<polygon  points="538.8,1193 539.1,1193.6 539.2,1193.6 539.3,1193.3 539.3,1193.3 539.3,1193.2 539,1192.4 
		538.7,1192.7 	"/>
	<polygon  points="543,1190.8 543,1191.2 543.2,1191.3 543.6,1191 543.6,1190.7 543.6,1190.7 543.1,1190 542.9,1189.4 
		542.7,1189.4 542.5,1190.3 542.5,1191.2 542.9,1190.8 	"/>
	<polygon  points="841.9,1197.2 841.8,1197 841.6,1196.7 841.4,1196.6 841.3,1196.8 841.4,1197 841.7,1197.3 
		841.9,1197.2 	"/>
	<polygon  points="876.7,1220.1 876.9,1220 876.9,1220 876.9,1219.5 876.7,1219.2 876.3,1219.1 875.9,1219.4 
		875.6,1220.2 875.2,1220.6 874.7,1220.8 874.3,1221.3 874.1,1222.1 873.8,1222.7 873,1223.8 873,1224 873,1224.4 873.2,1224.9 
		873.4,1225.3 873.8,1225.4 874.1,1225.3 875,1224.2 875.1,1223.9 875,1223.8 875.1,1223.4 875.4,1222.6 875.7,1222.2 875.9,1222.3 
		876,1222.1 876.2,1221.8 876.2,1221.5 876,1221.2 876,1221.1 876.2,1221.2 876.3,1220.9 876.3,1220.3 876.4,1220 	"/>
	<polygon  points="843.4,1197.3 843.4,1197.3 843.5,1196.8 843.4,1196.7 843.1,1196.7 842.4,1197 842.4,1197.2 
		843.1,1197.3 	"/>
	<polygon  points="841.1,1199.3 841.3,1199.3 841.8,1199.1 841.8,1199.1 842.1,1198.9 842.2,1198.7 842.4,1198.5 
		843,1198.1 842.9,1197.9 842.7,1197.9 841.5,1198.7 841.2,1199 	"/>
	<polygon  points="878.1,1217.7 877.9,1217.6 877.5,1217.6 877.4,1217.5 877.1,1218.3 877.3,1218.6 877.8,1218.6 
		878.1,1218.5 878.1,1217.9 	"/>
	<polygon  points="844.2,1195.5 844.1,1195.9 844.2,1196 844.5,1195.8 844.7,1195.5 844.7,1195.3 844.6,1195.2 
		844.3,1195.2 	"/>
	<polygon  points="878.1,1218.5 878.1,1218.5 878.1,1218.5 	"/>
	<polygon id="207"  class = "st0"  next_level = "207_5_7"  points="1065.2,1225.2 1065,1224.9 1064.2,1224.7 1064.1,1223.9 1064.4,1223.3 1064.2,1222 1063.9,1221.3 
		1064,1220.9 1063.6,1220.8 1063.2,1220.6 1062.8,1220.5 1062.6,1220.7 1062.4,1220.9 1062.2,1221.1 1061.7,1220.9 1061.4,1220.4 
		1060.9,1219.9 1060.7,1219.5 1060.8,1219.1 1061,1218.6 1061.1,1218.1 1060.9,1217.6 1060.7,1217.2 1060.5,1216.9 1060.6,1216.5 
		1060.9,1216.3 1061.2,1216.1 1061.3,1215.6 1061.1,1215.1 1060.6,1214.9 1060.2,1215 1059.6,1214.9 1059,1214.6 1058.6,1214.2 
		1058.3,1214 1058,1214 1057.8,1213.8 1057.6,1213.5 1057.6,1212.9 1057.7,1212.5 1057.8,1212.2 1057.9,1211.9 1057.8,1211.7 
		1057.8,1211.5 1057.8,1211.2 1057.9,1210.8 1057.7,1210.4 1057.7,1209.2 1057.7,1206.9 1057.7,1205.2 1057.6,1203 1057.6,1201.4 
		1057.6,1199.2 1057.6,1197 1057.5,1195 1056.3,1193.8 1054.8,1192.4 1053.5,1191.4 1052.8,1191.3 1052.3,1191.4 1052.2,1191.8 
		1051.2,1192.2 1049.4,1192.7 1047.9,1193.3 1047.4,1193.4 1046.9,1193.2 1046.3,1192.9 1045.8,1192.4 1045.8,1192.1 1045.8,1192.1 
		1045.8,1191.5 1045.9,1190.3 1045,1190 1044.1,1189.8 1043.5,1190.6 1043,1191.3 1042,1192.9 1040.5,1195.1 1039.6,1196.3 
		1038.2,1198.3 1036.9,1200.2 1036.6,1202.1 1036.3,1203.8 1035.3,1205.2 1034.6,1206.4 1034.3,1207.8 1034.1,1209 1034.1,1210.1 
		1034.3,1210.6 1034.2,1211.1 1033.8,1211.6 1033.1,1212.5 1033,1213.4 1032.6,1213.8 1031.4,1214.6 1030.4,1215.9 1030.3,1216.6 
		1030.4,1217.1 1030.5,1217.5 1030.3,1217.7 1029.9,1217.7 1029.4,1217.8 1029.1,1218.3 1029.1,1219.1 1028.8,1219.6 1028.5,1219.7 
		1028.2,1219.3 1027.9,1218.8 1027.5,1218.7 1027,1219.1 1026.7,1219.3 1026.8,1220.6 1026.9,1221.5 1026.8,1221.5 1026.7,1220.6 
		1026.7,1219.3 1026.2,1219.7 1025.6,1219.7 1024.4,1219.3 1023.5,1220.5 1022.6,1223.1 1022.5,1223.3 1022.6,1223.1 1018.7,1223.1 
		1014.8,1223.1 1010.9,1223.1 1006.9,1223.1 1005.4,1223.1 1005.4,1223.1 1003,1223.1 999.1,1223.1 995.2,1223.1 993,1223.1 
		992.6,1223.1 992.1,1223.2 991.2,1223.1 989.9,1223.6 988.1,1224.5 986.1,1226.2 982.4,1229.8 982.3,1229.9 982.4,1230 
		982.5,1230.3 982.4,1230.7 982,1231.1 978.2,1233.9 977.1,1234.9 977.5,1235.5 977.5,1235.8 977.8,1235.7 978.5,1235.2 
		978.8,1235.3 978.9,1235.4 979,1235.7 978.6,1236.3 978.8,1236.4 979.4,1236.3 979.7,1236.3 979.5,1236.7 979.1,1237 979.1,1237.3 
		978.5,1238 978.3,1238.1 978.2,1238 978.2,1237.7 977.7,1238 977.7,1238.3 977.8,1238.6 978.1,1239 978.2,1239.5 978.3,1240.7 
		978.4,1240.9 978.4,1241 978.4,1241.1 978.3,1241.4 978.5,1241.6 978.4,1241.9 978.1,1242.2 977.6,1242.4 976.8,1242.4 
		975.8,1242.8 974.8,1243.5 974.1,1244.1 973.8,1244.7 973.5,1244.9 973.3,1244.8 972,1245.3 971.5,1245.6 971.4,1245.9 
		971.2,1245.9 971.1,1245.7 970.1,1245.6 968.3,1245.5 966.9,1245.6 965.9,1245.9 965,1245.7 964.2,1245.2 963,1244.7 959.8,1244.2 
		957.2,1244.3 955,1244.7 951.6,1245.6 951.5,1245.7 951.5,1245.7 951.4,1247.9 952.9,1248.4 953.1,1248.6 953,1248.9 952.8,1249.3 
		952.8,1250 953.1,1250.8 953.3,1251.4 953.2,1251.9 952.8,1252.3 952.1,1252.8 951.5,1253.4 950.9,1254.3 950.1,1255 949.1,1255.5 
		948.1,1256.2 947.2,1257.1 945.4,1258.2 944.9,1258.5 944.9,1258.6 942,1260.1 941.6,1260.4 941.2,1260.6 940.4,1261 939.6,1261.5 
		937.9,1262.1 934.6,1263.3 931.2,1264.9 929.1,1266.1 927.3,1267.7 926.5,1268.1 925.6,1268.3 924.2,1268.2 922.8,1268.4 
		921.3,1268.8 920.3,1269.2 919.8,1269.5 919.4,1269.5 919,1269.4 917.9,1268.7 917.8,1268.7 917.6,1268.8 916.9,1268.7 
		916.2,1268.7 915.5,1269 914.9,1269 914.3,1268.8 914.8,1268.6 917.3,1268 917.3,1267.9 916.4,1267.6 916.1,1267.3 915.9,1267.3 
		915.7,1267.6 915.4,1267.8 914.9,1267.7 914.4,1267.5 913.9,1267 912.2,1266.2 911.8,1265.8 911.2,1265.6 910.3,1265.4 
		910.2,1265.2 910.3,1265.2 910.4,1264.9 911.2,1263.5 911.6,1262.9 911.8,1262.8 912,1262.8 912.1,1262.6 912.1,1262.3 
		912.2,1262.1 912.6,1261.6 912.9,1261.3 912.8,1260.9 912.9,1260.1 913.2,1259.1 913.6,1258.3 913.7,1258.4 913.9,1258.2 
		914.5,1257.8 915.8,1257.1 917,1255.7 917.9,1254.9 918.8,1254 919.4,1252.6 920.1,1249 919.9,1248.7 919.6,1248.2 919.1,1245.6 
		918.4,1241.1 917.7,1238.2 917.2,1237.1 916.6,1236.3 915.7,1235.7 915.1,1235.4 914.6,1235.5 913.9,1236 912.6,1236.4 912,1236.7 
		911.7,1237 911.4,1237.2 910.9,1237.3 910.9,1237.4 911.2,1237.5 911.2,1237.9 910.3,1239.5 910.1,1239.8 909.6,1239.9 
		909.1,1240.3 908.7,1241 908.2,1241.2 907.6,1241.2 906.6,1240.7 905.9,1240.2 905.7,1239.7 905.7,1239.2 905.9,1238.5 
		905.9,1237.9 906.3,1236.8 906.8,1236.4 907.6,1236.3 908,1236.1 908.1,1235.9 908.3,1235.7 908.7,1235.6 909.1,1234.9 
		909.4,1233.5 909.7,1232.8 909.9,1232.7 910.2,1232.7 910.2,1232.9 911.1,1232 911.4,1231.4 911.4,1230.8 911.5,1229 911.6,1227.9 
		911.8,1227.4 911.7,1226 911.4,1224.9 910.4,1223.7 910.3,1223.3 910.3,1222.9 910.5,1222.4 911,1222.3 911.8,1222.6 911.9,1222.6 
		911.7,1222.3 911.5,1221.9 911.5,1221.3 911.4,1221 911.2,1220.9 910.8,1220.2 910.7,1219.9 910.8,1219.5 910.6,1219.2 910,1218.7 
		908.9,1218.1 906.3,1217.1 905.9,1216.7 905.2,1216.5 904.4,1216.4 903.9,1216.1 903.7,1215.5 903.3,1215 902.8,1214.6 902,1214.3 
		900.9,1214.1 899.8,1213.7 898.6,1212.8 898,1212.6 897.6,1212.9 897.1,1212.9 896.3,1212.9 896,1213 896.2,1213.3 896,1213.8 
		895.4,1214.5 895,1215.1 894.9,1215.8 895,1216.5 895.3,1217 895.7,1217.4 896.3,1217.5 896.5,1217.7 896.1,1218 895.5,1218.1 
		894.6,1218.2 893.7,1218.5 892.8,1219 892.3,1219.5 892.1,1220 892.1,1220.6 892.2,1222.2 892.1,1222.8 891.8,1223.9 891.2,1225.3 
		890.6,1226.2 890.5,1226.1 890.6,1225.7 891.1,1224.2 891.2,1223.6 891.2,1223.3 891,1223.3 890.8,1223.5 890.6,1224.1 
		890.5,1224.5 890.7,1224.5 890.6,1224.9 890.2,1225.7 890,1225.8 889.7,1225.4 889.7,1224.8 890.1,1223.6 890,1223.4 890.2,1222.7 
		890.3,1222.1 890.2,1221.6 890.3,1221.1 890.6,1220.6 890.5,1220.5 890,1220.6 889.3,1221.5 888.4,1223 887.7,1223.7 887.2,1223.5 
		886.8,1223.6 886.5,1224.1 886.2,1224.3 885.9,1224.3 885.7,1224.8 885.6,1225.9 885.2,1226.5 884.2,1226.9 884,1227.2 
		883.9,1227.6 884.1,1228.1 884.1,1229.1 884,1230.7 883.6,1232 883.1,1233.2 882.5,1234.1 881.5,1235.4 881.5,1235.6 882,1236.6 
		882.2,1237.3 882.3,1238.8 882.2,1239 881.3,1240.8 881.3,1241.1 882.3,1244 883.2,1246.2 883.3,1246.4 883.6,1247.3 884.1,1248.9 
		884.3,1250.6 884.3,1252.2 884.2,1253.8 883.9,1255.3 883.6,1256.7 883.1,1258.1 882.5,1259.2 881.5,1261 881,1262.1 880.4,1263.1 
		879.9,1263.8 878.9,1264.7 878.3,1265 878.2,1265 876.2,1266.1 875.4,1266.4 874.5,1266.5 873.5,1266.5 873,1266.3 872.9,1266 
		872.6,1266 872.4,1265.8 872,1265.5 872,1265.4 872,1265.4 871.6,1264.9 871.2,1263.8 870.7,1262 870.3,1260.9 870,1260.6 
		869.6,1260 869.4,1259.3 869.2,1257.7 869.2,1255.7 869.2,1255.7 869.2,1255.1 869.3,1253.4 869.5,1252.4 869.5,1251.7 
		869.2,1251.2 869,1250.6 868.9,1249.9 868.8,1249.4 868.5,1249.1 868.5,1248.8 868.6,1248.3 868.6,1248 868.5,1247.8 868.4,1247.5 
		868.5,1247.2 868.4,1246.2 868.4,1245.5 868.6,1244.8 869.1,1243.6 869.3,1243 869.3,1242.4 869.6,1241.6 870.3,1240 870.3,1239.6 
		870.1,1238.8 870,1238.3 870.1,1237.6 870.3,1236.7 870.7,1235.6 871.2,1234.7 871.8,1234.1 872,1233.4 871.8,1232.5 871.9,1231.3 
		872.3,1229.7 872.7,1228.5 873.2,1227.7 873.5,1226.9 873.7,1226.2 873.6,1225.8 873.2,1225.5 872.9,1225 872.3,1224.9 
		871.6,1225.2 871.5,1225.2 871.2,1225.2 870.5,1226 869.9,1227.3 869.4,1227.8 868.8,1228.2 868.4,1228.6 868.1,1229 867.7,1229.1 
		867.3,1228.9 867.2,1228.3 867.5,1227.3 867.9,1226.3 868.8,1224.8 868.8,1224.4 869,1224 870.4,1223.3 870.9,1222.8 871.1,1222.1 
		871.1,1221.8 870.7,1221.6 870.3,1221.1 870.1,1220.5 870.1,1220 870.1,1220 870.1,1220.5 870.3,1221 870.7,1221.5 871.1,1221.7 
		871.2,1221.1 871.3,1220.8 871.5,1220.7 872.1,1219.8 873.1,1218.3 874,1216.7 874.8,1215 875.4,1214.1 875.8,1213.9 876,1213.4 
		876.5,1211.9 876.8,1211.2 877,1210.9 877.1,1211.1 876.9,1211.9 876.9,1212.6 877.1,1213.5 877.4,1213.8 877.9,1213.5 
		878.4,1212.9 878.7,1212 879.2,1211.7 879.6,1211.8 880,1211.8 880.3,1211.5 880.9,1211.4 881.1,1211.7 881,1212.4 880.8,1212.7 
		880.5,1212.7 880.1,1213.1 879.7,1213.8 879.8,1214.4 880.2,1214.8 880.4,1214.9 880.4,1214.5 880.6,1214.1 881.2,1213.3 
		881.3,1213.1 882.5,1212.5 882.9,1212 883.1,1211.6 883.7,1210.6 884.3,1210.3 885.1,1210.2 885.9,1210.3 886.6,1210.6 
		887.1,1210.5 887.2,1210.2 887.8,1210 889,1209.9 889.9,1209.5 890.4,1208.7 891.2,1208.3 892,1208.3 893.2,1208.6 894.7,1209.1 
		895.9,1209.9 897.5,1211.5 898,1211.6 898.2,1211.6 898.4,1211.5 898.4,1211.4 898.3,1211.2 898.3,1210.5 898.3,1210.3 
		898.7,1209.3 899.1,1209.1 899.6,1209.2 899.9,1209.4 900,1209.7 900.2,1209.8 900.5,1209.8 900.6,1209.9 900.7,1209.9 
		900.9,1209.7 901.9,1209.8 905.3,1210.3 905.8,1210.2 906,1210 906.1,1209.7 905.9,1209.5 905,1208.9 904.7,1208.6 904.6,1208.2 
		904.8,1207.9 904.6,1207.6 904.1,1207.4 903,1207.3 902.8,1207 902.9,1206.8 903.2,1206.4 903.2,1205.9 903.1,1205.7 902.9,1204.8 
		902.7,1204.3 902.2,1203.4 902,1203.1 901.7,1202.9 901.7,1202.9 901.5,1202.9 901.1,1203 900.7,1203.4 900.1,1203.8 899.6,1203.7 
		899.1,1203.2 898.6,1203 897.8,1203.3 897.1,1203.3 896.5,1203 895.4,1202.8 895.3,1202.6 895.3,1202.3 895.5,1202.1 895.6,1201.4 
		895.6,1200.4 895.7,1199.7 896,1199.2 895.6,1199.1 894.4,1199.1 893.1,1199.5 891.6,1200.1 889.9,1200.3 888.1,1200.1 
		886.8,1200.2 885.3,1200.5 885.1,1200.4 884.1,1200.8 882.5,1201.7 881.3,1202.6 880.3,1203.6 880.2,1203.6 879.9,1203.4 
		879.4,1203.1 878.9,1203.1 878.3,1203.3 877.7,1203.2 877.1,1202.5 876.6,1202.3 876.1,1202.6 875.3,1202.7 873.5,1202.6 
		873.3,1202.4 873.2,1201.7 873,1201.4 872.6,1201.2 872.1,1200.4 870.9,1198.5 870.6,1198.2 869.6,1197.6 868.6,1197.3 866.3,1197 
		865.7,1196.7 865.4,1196.7 863.9,1197.8 863.8,1198 863.7,1198.3 863.4,1198.6 863.2,1198.8 863.1,1198.6 863,1198.3 863,1197.6 
		863.2,1196.6 863.1,1195.9 862.7,1195.6 862.5,1195.2 862.6,1194.8 862.3,1194.4 861.8,1194.1 861.5,1193.8 861.5,1193.4 
		861.5,1193.1 861.3,1192.9 860.7,1193.2 859.6,1194.1 858.9,1194.8 858.5,1195.5 857.9,1195.9 857.2,1196 856.6,1196.2 
		855.5,1197.2 854.7,1197.7 853.4,1198.1 851.5,1198.3 849.9,1198.9 848.7,1200 847.2,1200.8 845.4,1201.5 844.8,1201.7 
		844.7,1201.7 844.2,1201.9 843.6,1201.7 842.8,1201.3 841.7,1200.5 841.5,1200.5 841.6,1200.7 841.6,1200.8 841.4,1201 840,1201.6 
		839.8,1201.4 840.3,1200.6 840.5,1200 840.5,1199.5 840.7,1198.8 841.2,1198 841.4,1197.5 841.3,1197.2 840.7,1196.7 840.3,1196.7 
		839.7,1196.8 838,1198 837.9,1197.9 837.3,1197.7 837.2,1197.8 835.9,1198.8 834.5,1199.4 831.4,1200.3 830.6,1200.4 829.9,1200.3 
		829.1,1199.8 828.8,1199.5 828.8,1199.5 828.6,1199.5 828,1200.2 827.7,1200.7 827.1,1200.9 827.1,1202.8 827.1,1204.8 
		827.1,1206.7 827.1,1208.7 826.8,1208.9 826.4,1209.4 825.8,1209.5 823.3,1211.1 822.9,1211.5 822.4,1212.6 821.6,1213.8 
		821.4,1214.4 821.4,1215.3 822.7,1216 823.1,1216.6 823.4,1217.5 823.3,1218.2 822.7,1219.5 822.6,1220.1 822.7,1221.7 
		822.3,1222.3 822.6,1223.6 822.6,1224.1 822.4,1225.6 822.3,1226 822.5,1226.8 822.6,1226.8 823.8,1227.9 824.7,1228.5 
		824.7,1228.5 823.7,1227.9 822.5,1226.8 822.5,1226.7 822.2,1226 822.4,1225.5 822.6,1224.1 822.5,1223.6 822.3,1222.2 
		822.6,1221.7 822.5,1220 822.6,1219.5 823.3,1218.1 823.3,1217.4 823.1,1216.6 822.6,1216 821.3,1215.3 821.3,1214.4 821.5,1213.8 
		822.3,1212.6 822.8,1211.5 823.2,1211 825.8,1209.4 826.3,1209.3 826.7,1208.9 827,1208.7 827,1206.7 827,1204.8 827,1202.8 
		827,1200.8 827.6,1200.7 827.9,1200.2 828.6,1199.4 828.7,1199.4 828.8,1199.1 829.1,1198.7 833.1,1195.5 835.5,1193.2 
		839.6,1188.9 840.6,1188.1 843,1186.6 846.7,1185.3 848.6,1184.5 850.2,1183.7 851.2,1183 851.7,1182.6 852,1182.4 852.3,1182.4 
		852.6,1182.3 850.7,1182.1 849.5,1182.3 848.7,1182.1 848.2,1181.2 847.7,1180.6 845.6,1180.9 842.9,1180.7 841.6,1180.8 
		841.1,1180.4 840.7,1179.5 840,1179.3 838.8,1179.6 837.1,1180.8 835.5,1181.5 834.3,1181.5 833.1,1180.8 831.1,1179.5 829.7,1178 
		828.2,1177.5 827,1177.6 826.5,1178.4 825.9,1178.4 825.4,1177.1 825.1,1176.1 824.3,1175.7 822.9,1174.8 821.9,1174.3 
		820.4,1173.6 819.9,1173.5 818.9,1173.4 817.9,1173.4 816.8,1173.6 816.8,1173.6 815.9,1174.4 815,1174.7 813.6,1174.9 
		812.7,1174.5 812.3,1173.7 810.4,1173 807,1172.3 805,1171.8 804.5,1171.3 804.3,1170.8 804.2,1170.1 804.2,1170.1 803.3,1168.1 
		803,1166.4 802.8,1164.4 802.9,1163.7 802.7,1163.5 802.1,1163.1 800,1162.8 800,1165.2 800,1168.2 797.7,1168.2 793.7,1168.2 
		789.7,1168.2 785.7,1168.2 781.7,1168.2 780.6,1168.2 780.6,1168.2 777.7,1168.2 773.7,1168.2 769.7,1168.2 765.7,1168.2 
		761.7,1168.2 757.7,1168.2 753.7,1168.2 749.6,1168.2 745.6,1168.2 741.6,1168.2 737.6,1168.2 733.6,1168.2 729.6,1168.2 
		725.6,1168.2 721.5,1168.2 717.5,1168.2 716.5,1168.2 716.5,1168.2 713.5,1168.2 709.5,1168.2 705.5,1168.2 701.5,1168.2 
		697.5,1168.2 693.4,1168.2 689.4,1168.2 685.4,1168.2 681.4,1168.2 677.4,1168.2 673.4,1168.2 669.4,1168.2 665.4,1168.2 
		661.3,1168.2 660.4,1168.2 657.3,1168.2 653.3,1168.2 649.3,1168.2 645.3,1168.2 641.3,1168.2 637.3,1168.2 633.2,1168.2 
		629.2,1168.2 625.2,1168.2 622.1,1168.2 621.2,1168.2 617.2,1168.2 613.2,1168.2 609.2,1168.2 605.1,1168.2 603.4,1168.2 
		603.4,1171.7 603.4,1175.2 603.4,1178.7 603.4,1182.2 604.4,1183.6 605.2,1184.5 605.6,1185.4 606.4,1186.4 606.5,1186.7 
		606.8,1187.8 606.6,1188.5 607,1189.3 606.9,1189.6 606.9,1189.6 607,1189.3 606.6,1188.5 606.8,1187.8 606.5,1186.7 606.4,1186.4 
		605.6,1185.4 605.2,1184.5 604.4,1183.6 603.4,1182.2 603.4,1178.7 603.4,1175.2 603.4,1171.7 603.4,1168.2 601.1,1168.2 
		597.1,1168.2 594.1,1168.2 591.3,1168.2 591.3,1168.2 589,1168.2 585,1168.2 581,1168.2 576.9,1168.2 572.9,1168.2 568.9,1168.2 
		564.9,1168.2 560.9,1168.2 556.9,1168.2 552.9,1168.2 548.9,1168.2 544.9,1168.2 540.9,1168.2 539.9,1168.2 540.5,1170.2 
		540.9,1171 541.2,1171.5 541.7,1171.4 541.8,1171.2 542,1171.3 542.2,1171.5 542.5,1172.8 542.5,1174.4 542.6,1174.7 542.6,1175.1 
		542.2,1175.4 541.4,1175.2 541.1,1175.3 541,1175.7 541.1,1176 541.3,1176.1 541.8,1176.2 542.2,1176.5 542.7,1177 543.5,1178.1 
		543.5,1178.5 542.9,1178.6 542.4,1179 542.3,1179.4 542.4,1180 542.7,1180.4 543.6,1181.1 543.7,1181 543.3,1179.8 543.4,1179.7 
		543.7,1179.9 544,1180.7 544.3,1181.1 544.9,1181.7 545,1182.1 544.3,1183.2 544.2,1183.7 543.6,1184.8 543.5,1185.3 543.7,1185.7 
		543.7,1186.2 543.5,1186.8 543.4,1187.1 543.7,1187.5 543.8,1187.8 543.8,1188.8 544,1190.7 544,1191 543.4,1191.8 542.9,1192.1 
		542.5,1192.1 542.2,1192.4 541.6,1193.9 541.4,1194.2 540.7,1194.6 540.4,1194.6 539.7,1194.1 538.7,1194.3 537.6,1194.2 
		538,1193.8 538.3,1192.8 538.7,1192.2 539.5,1191.5 539.7,1191.6 540,1193.1 540.1,1193.2 540.5,1192 540.7,1191.8 541.2,1192.3 
		541.6,1192.4 541.9,1192.1 542.1,1190.6 542.1,1189.8 541.8,1188.8 541,1187.7 541.1,1187.6 541.4,1187.7 541.6,1187.6 
		541.4,1186.6 541.5,1186.3 542.4,1185.5 542.5,1184.8 542.3,1183.4 541.8,1183.3 541.7,1183.4 541.8,1184.3 541.6,1184.6 
		540.6,1185.6 540.2,1186.5 539.7,1187.1 538.7,1187.8 538.1,1188.4 537.5,1189.5 537.3,1189.9 537.3,1190.7 537.7,1190.6 
		538.7,1190.4 538.6,1190.5 537.6,1191.2 536.9,1191.4 536.6,1191.3 536.6,1190.8 536.7,1190.1 537.4,1188.5 539.6,1185.2 
		539.8,1185.3 539.8,1186 540,1185.9 541.2,1183.9 540.9,1183.2 540.4,1182.1 540.1,1181.2 540.1,1180.6 540,1180.3 539.2,1181 
		538.8,1181.2 538.2,1181.3 537.7,1181.1 536.8,1180.2 536.4,1180.1 535.6,1180.5 535.2,1180.6 528.8,1179.9 527.6,1179.5 
		526.9,1178.9 524.5,1178.1 522.6,1177 521.8,1176.9 522.1,1178.3 521.9,1180.2 522.3,1182.6 522.7,1183.6 524.2,1185.3 525,1187.1 
		525.6,1190.6 526.7,1193.3 526.9,1195 527,1196 527.2,1196.8 527.4,1196.2 527.5,1195.7 528.1,1195.8 528.7,1196.4 530,1196.7 
		527.5,1198 527.9,1199.7 528.9,1200.2 529.6,1200.8 529.4,1202.6 529,1203.9 528.4,1202.7 528.1,1201.6 528.1,1203.1 528.1,1204.7 
		527.9,1206 528.9,1205.7 529.5,1206.2 531.5,1205.7 531.8,1206.2 533.6,1206.1 534.1,1206.8 535.1,1207.5 535.6,1207.5 
		535.9,1207.7 534.9,1207.8 534.2,1207.7 533.6,1207 533.1,1206.8 531.6,1207.3 529.4,1207.3 528.9,1206.7 528.7,1206.8 
		528.8,1207.4 529.1,1207.9 528.9,1211.9 529.2,1215.5 528.9,1216.8 529,1217.8 528,1226.1 528.1,1227.8 527.9,1229.5 528.1,1230.8 
		527.6,1232 527.3,1235.6 527.2,1240.3 526.8,1240.9 526.3,1242.3 525.8,1244 526.4,1243.6 526.7,1243.8 526,1244.5 525.5,1244.5 
		525.3,1244.9 524.3,1249.1 523.9,1250.1 523.5,1251.7 524.4,1253.5 524.7,1254.6 524.6,1257.2 524.7,1258.1 525.2,1260.4 
		526.4,1262 529,1262 526.4,1262 526.6,1262.2 526.6,1263.4 526.3,1264.7 527.1,1265.5 527.5,1266.7 527.9,1268.8 528,1269.7 
		527.3,1272.6 527.3,1274.9 526.7,1276.7 526.5,1277.1 526.5,1277.3 526.8,1277.3 526.6,1277.6 526.5,1278.3 526.2,1278.2 
		526.3,1277.9 526.2,1277.7 525.9,1278.1 525.5,1279.5 525.1,1280.8 525.2,1282.3 525.6,1283.7 527.6,1285.7 529.7,1288.5 
		530.2,1289.6 530.7,1291.5 530.7,1292.7 530.3,1294.5 531.3,1297.6 531.4,1300.1 534,1302.9 535.3,1304.6 536.9,1305.6 
		537.6,1307.3 538.2,1307.7 538.9,1308.6 539.2,1309.5 538.2,1308.2 538.3,1309.8 538,1310.7 538,1311.1 538.7,1310.3 539.2,1310.6 
		540.3,1311.6 541,1312.1 541.9,1312.4 542.5,1313 543,1312.9 542.8,1311.5 542.9,1309.7 543.7,1309.2 544.3,1309.3 545.5,1310.1 
		546,1310.2 547.1,1309.5 547.5,1309.5 548.1,1309.9 548.6,1310.1 549.8,1310 550.4,1310.1 551,1309.9 551.9,1310.3 551.4,1310.3 
		550.8,1310.2 550.1,1310.5 546.6,1310.3 545.4,1310.5 544.5,1310.9 543.8,1311.4 544,1311.9 544.3,1312.2 544.6,1313.4 
		545.3,1314.1 545.9,1315.4 546.2,1316.4 546.5,1316.7 546.8,1317.1 546.3,1317.1 545.9,1316.9 545.3,1316.1 544.6,1315.8 
		543.9,1315 543.7,1314 543.8,1313.5 543.2,1313.3 542.6,1313.7 542.7,1315.1 542.7,1316.4 543.6,1318.4 543.7,1320.3 545.9,1322.9 
		548.5,1323.5 549.2,1324.5 549.3,1325.1 549.4,1325.9 549,1326.8 548.2,1327.8 548.3,1329.4 548.6,1330.6 550.6,1332.6 
		552.5,1335.3 552.7,1336 553.6,1336.8 554.2,1338.2 555.5,1339 556.6,1340.4 557.8,1341.1 558.1,1341.8 557.9,1342.8 558.2,1343.6 
		559.6,1344.2 560,1344.6 560.3,1345.1 560,1346.5 560.4,1348.1 560.2,1348.8 560.3,1349.7 560.2,1350.8 561,1351.2 561.7,1352 
		562.5,1352.1 564.6,1351.9 565.7,1352 567.6,1352.7 568.9,1352.8 570,1352.6 571.8,1353.5 573.1,1354.4 573.4,1355.5 574.3,1356.1 
		577.2,1357.1 579.4,1356.9 580.3,1357.1 581.4,1358.9 581.2,1360.2 582.3,1360.6 582.6,1360.1 583.5,1360.2 584.3,1360.5 
		585.5,1361.6 587.1,1362.5 590.1,1365.3 591.5,1367.5 592,1369.3 592.1,1370 591.9,1370.7 592.2,1372.3 592.8,1372.1 593.2,1372.5 
		593.3,1373.7 593.3,1373.8 596,1373.5 598.7,1373.3 601.4,1373.1 604,1372.8 606.7,1372.6 609.4,1372.3 612.1,1372.1 614.8,1371.9 
		615.9,1371.7 615.3,1373.4 614.8,1374 619.3,1375.7 623.8,1377.3 628.2,1379 632.7,1380.6 637.1,1382.2 641.6,1383.9 646.1,1385.5 
		650.5,1387.1 653.9,1387.1 657.2,1387.1 660.5,1387.1 663.8,1387.1 667.2,1387.1 669.3,1387.1 670.5,1387.1 673.8,1387.1 
		677.2,1387 677.2,1385.8 677.2,1384.6 677.2,1383.3 677.2,1382.1 679.2,1382.1 681.3,1382.1 683.4,1382.1 685.5,1382.2 
		687.5,1382.2 689.6,1382.2 691.7,1382.2 693.7,1382.2 693.7,1382.2 693.8,1382.2 693.8,1382.2 693.8,1382.2 693.8,1382.2 
		693.9,1382.3 694.8,1383.2 695.6,1384.7 696.6,1385.7 697.8,1386.3 699.8,1388 702.6,1390.9 704.8,1392.8 706.5,1393.7 
		707.6,1394.5 708.2,1395.2 709,1396.7 710.4,1400.1 710.4,1401.6 711,1403.1 712.1,1405 713.1,1406.1 713.9,1406.5 714.8,1407.1 
		715.8,1408.2 716.9,1408.8 718.2,1409.2 720,1410.1 722.3,1411.5 723.8,1412.3 724.7,1412.3 725.4,1411.8 726.1,1410.9 
		726.7,1410.3 727.3,1410 727.5,1409.5 727.4,1408.9 727.8,1407.5 728.8,1405.4 729.9,1404.2 731.2,1404 732,1403.6 732.4,1403 
		733.1,1402.9 734.1,1403.4 735.8,1403.7 738,1403.9 739.3,1403.8 739.7,1403.6 739.9,1403.6 740,1403.9 740.3,1404 740.9,1403.9 
		741.5,1404.3 742.2,1405.5 744.7,1407.3 744.9,1408 745.8,1408.9 747.4,1410.3 748.3,1411.5 748.5,1412.6 749.3,1414.2 
		750.8,1416.4 751.4,1417.6 751.2,1417.8 751.3,1418.4 751.7,1419.4 752.4,1420.3 753.5,1421.1 754.5,1422.4 755.5,1424.3 
		756.8,1425.8 758.3,1426.8 759.2,1427.7 759.4,1428.6 759.3,1429.3 759.1,1429.9 759.2,1430.5 759.6,1431 759.8,1431.7 
		759.6,1432.6 759.6,1432.9 759.7,1433.1 761.1,1434.7 761.7,1436 762.3,1438 762.3,1438.1 762.9,1439.3 763.8,1439.8 765.1,1440 
		766.1,1440.4 766.8,1441.1 767.7,1441.5 768.8,1441.6 769.8,1442.1 770.7,1442.8 772.5,1443.3 775.2,1443.5 777.2,1444.1 
		778.6,1445.1 779.2,1445.3 779.4,1445.3 779.4,1445.1 779.5,1444.9 780.1,1444.6 781.4,1444.3 781.4,1443.6 781.3,1443.3 
		780.7,1443.2 779,1439.8 778.6,1438.9 778.4,1436.7 778.1,1436 777.8,1434.5 777.5,1433.8 777.9,1432.9 778.3,1432.2 778.3,1431.7 
		778.2,1431 776.2,1430.5 775.5,1428.7 776.3,1429.3 777.8,1430.2 778.2,1430.1 778.6,1430 779.1,1429.1 780,1426.4 778.7,1424.7 
		778.9,1424.4 779.2,1424.3 780.4,1424.5 781.1,1424.2 782,1423.1 782.4,1421.9 781.4,1422.3 781.2,1421.9 781.2,1421.4 
		781.8,1421.3 782.6,1421.2 783,1420.9 783.3,1420.6 783.5,1421 783.7,1421.3 784.2,1420.9 784.5,1420.6 784.6,1419.5 784.8,1418.5 
		785.8,1419.3 786.8,1419 787.5,1418.6 788.2,1418.1 787.7,1417.9 787.2,1417.8 786.1,1415.4 786.4,1415.2 786.7,1415.3 
		786.9,1415.7 787.2,1416 787.9,1416.6 788.6,1416.2 788.6,1415.9 789.6,1416 791.1,1416.3 792,1416.2 790.9,1417 789.9,1417.7 
		790.5,1417.6 792,1416.7 793.5,1416.1 794.7,1415.4 795.4,1415 797.9,1413.4 799,1412.7 800.1,1411.4 800.3,1410.5 801.4,1409.5 
		802.6,1408.3 802.2,1407.3 801.6,1406.6 801.3,1404.7 801.7,1404.6 802.2,1405 802.6,1405 803.1,1404.2 804,1404.2 804.2,1405.2 
		803.6,1406.4 804.1,1406.5 805.3,1406.2 806,1406.4 803.9,1407.8 803.8,1408.2 805.6,1407.1 810,1405.1 812,1404.9 812,1404.5 
		811.5,1403.5 812.5,1401.7 812.9,1401.8 813.5,1400.7 813.7,1400.3 813.7,1400.3 813.5,1400.7 812.9,1401.8 813.1,1402 
		813.1,1402.5 812.8,1403.1 812.4,1403.5 812.1,1403.6 812.2,1404.2 812.6,1404.5 813.2,1404.2 813.8,1404 816.7,1403.9 
		817.7,1403.8 818.7,1403.9 820.8,1404.6 822.3,1405.5 823.5,1405.9 827.3,1406.3 829,1405.9 829.2,1405.7 828.7,1405.1 
		828.5,1404.8 829,1404.1 829.6,1403.7 830.8,1403.3 831.5,1404.2 832.9,1404.2 833.9,1405.8 834.4,1406.3 836.1,1406.8 
		836.6,1406.2 836.9,1406.2 836.8,1406.8 836.9,1407.4 837.7,1408.5 837.8,1408.9 837,1408.7 836.5,1408.8 836.5,1409.2 
		839.2,1410.2 841.5,1410.9 842.2,1410.7 843.1,1409.4 843.9,1409.1 845,1409.1 845.8,1409.5 846.3,1410.9 846.6,1411.1 
		847.3,1410.8 847.7,1410.3 847.8,1409.7 847.9,1409.1 848.1,1408.7 848.1,1407.6 847.7,1407.3 847.3,1407.1 847.1,1406.9 
		847.1,1406.5 849.8,1407.4 850.3,1407.8 850.5,1408.2 850.6,1408.7 851.3,1408.9 851.7,1408.9 852.2,1409 852.6,1409.4 
		853.1,1409.6 853.9,1410.2 854.4,1411.2 854.7,1411.5 854.5,1412.5 854.9,1412.3 855.8,1411.4 856.2,1411.7 856.6,1412.1 
		856.8,1411.8 857,1411.2 857.8,1410.8 857.9,1410.1 857.4,1409.9 856.9,1409.6 856.3,1408.7 855.7,1408.7 853.2,1407.8 
		852.6,1407.1 851.7,1406.5 851.2,1405.6 851.5,1405.3 851.6,1405 851.8,1404.9 852.2,1405 852.8,1404.8 852.5,1404.5 853,1404 
		853.8,1403.8 854.7,1403.5 854.6,1403.2 854.7,1402.4 854.3,1401.8 854.1,1401.4 854.3,1401 853.4,1400.9 852.7,1401.5 
		852.5,1402.4 852.1,1402.6 851,1402.3 850.4,1401.4 850.7,1401 851.3,1400.7 851.8,1400.2 851.8,1399.9 851.1,1399.6 850.8,1400 
		850.4,1400.2 849.6,1400.2 848.7,1400.9 847,1401.2 845.9,1400.8 844.7,1400 845.5,1398.5 846.5,1397.4 847.4,1397.5 848.2,1397.7 
		849,1398.6 852.5,1399.7 853.1,1399.4 853.1,1399.4 853.9,1399.1 855,1397.8 855.6,1397.8 855.9,1397.9 857.5,1397.5 858.9,1397 
		859.2,1397 859.7,1397.1 860.9,1397.7 863.6,1397.5 863.6,1397.5 863.6,1397.5 864,1397.5 864.2,1397.5 865.1,1397.6 866.1,1397.6 
		866.3,1397 866.7,1395.4 867.1,1394.2 867.3,1394 867.9,1394.7 868.1,1395.5 868.1,1396.7 868.4,1397.1 868.8,1397.1 869.2,1397.8 
		869.4,1398.4 868.3,1398.8 867.6,1398.8 867.4,1399.1 871,1398.7 872,1397.6 872.2,1397.5 872.2,1397.4 872.5,1397.3 872.6,1397.6 
		872,1398.2 872.3,1398.4 874.1,1397.9 874.4,1397.3 875,1396.6 875.1,1395.7 875.6,1395.7 876.1,1396.1 876.4,1395.6 876.8,1395.4 
		877.1,1396.1 876.9,1396.9 875.6,1397.3 875.2,1397.5 874.8,1397.9 877,1397.5 879.8,1397.2 880.4,1396.9 881.2,1396.5 
		881.9,1396.2 882.6,1396.3 883.7,1396.2 884.6,1396.5 884.8,1396.8 885,1397.2 883.9,1396.9 881.9,1397.2 884.5,1398 887.5,1399.2 
		888.1,1399.7 888.4,1399.7 888.6,1399.4 888.6,1398.9 889.2,1398.5 889.9,1398.4 889.5,1399 889.3,1399.5 889.8,1399.9 
		889.7,1400.3 889.2,1400.2 890.8,1401.8 892.2,1402.9 892.7,1403.7 892.6,1404.2 892.4,1404.3 892,1403.9 891.7,1403.2 
		891.7,1404.1 892,1404.8 892.6,1405 893.8,1404.7 895.3,1404.6 895.9,1404.3 896.6,1403.9 897.4,1404 899.8,1402.6 900.7,1402.5 
		901.4,1402.5 901.6,1402.3 901.4,1401.7 901.6,1401.2 902.1,1400.8 904.6,1400.4 907.9,1402.3 911.7,1407.4 916.6,1411.7 
		917.7,1413.5 917.7,1414.3 917.7,1414.8 917.6,1417.8 916.8,1420.4 915.9,1424.6 916.2,1425.3 916.5,1425.8 916.8,1426 
		917.1,1425.8 917.6,1426 917.9,1425.7 918.1,1425.3 918.2,1424.3 917.9,1424.1 917.5,1423.4 917.8,1423.2 918.4,1423.4 
		918.9,1424.3 919.1,1424.4 919.6,1424 920,1424.4 920.1,1424.7 919.8,1425.4 918.9,1426.4 917.8,1428 917.4,1428.1 917.1,1428.3 
		917.7,1428.8 918,1429.3 919.7,1432.9 920.5,1434.2 921.1,1434.9 921.5,1435.1 922.1,1435.2 922.2,1434.8 922.1,1434.2 
		922.9,1433.9 923.7,1433.9 923.2,1434.6 923.1,1436.6 923.5,1438.2 923.8,1438.3 924.1,1438.2 924.6,1437.4 924.9,1437 
		925.4,1436.8 924.8,1437.7 924.2,1438.8 924.5,1439.1 925.1,1439.4 925.6,1442.4 926.5,1444.1 927.9,1445.1 929.8,1445.7 
		930,1446.8 931.1,1448.3 932.2,1450.5 932.7,1450.8 933.4,1451.1 933.8,1451.6 933.6,1452 932.3,1451 932,1451.1 931.8,1451.5 
		931.7,1452 932.2,1452.9 933.1,1453 934.6,1452.5 935.7,1452.7 937.4,1451.9 938.1,1452 939.2,1450.9 939.6,1449.9 939.8,1447.9 
		940.6,1446.7 941.2,1445.2 941.3,1445.3 941.4,1445.6 941.5,1445.7 941.6,1442.6 942.3,1438 942.2,1435.5 941.8,1433.6 
		941.5,1432.6 940.5,1431.3 936.6,1421 936.2,1420 935.6,1418.9 935.3,1417 935,1416.2 934.8,1414.9 935.1,1414.9 935.4,1415.1 
		935.3,1415.7 935.5,1416.2 936.1,1416.5 936.2,1416.8 935.8,1417.4 935.8,1418 936.1,1419.3 936.4,1419 936.5,1418.1 936.7,1417.4 
		937,1417.4 936.8,1419.5 936.9,1421.1 938,1423.6 938.4,1424 937.6,1422.2 937.3,1421 937.2,1420.1 937.2,1419.1 937.3,1418.4 
		937.7,1417.8 937.4,1417 934.2,1411.8 932.3,1407.4 930.9,1403.8 930.1,1400 929.6,1398.6 929,1394.6 928.5,1393.6 928.5,1393.6 
		928.4,1392.8 928.4,1392 928.6,1391.6 928.8,1390.6 929,1389.7 928.9,1389.3 929.1,1388.5 929.4,1388.7 929.8,1388.8 930.6,1387.8 
		930.2,1387.2 929.7,1387 929.7,1386.8 930.5,1386.6 930.8,1385.9 931.2,1385.5 931.6,1384.8 931.4,1384.8 931.2,1384.9 
		930.8,1384.8 931,1384.4 931.7,1384 931.7,1383.6 931.5,1383.3 931.4,1382.9 931.7,1382.5 932.3,1382.4 932.6,1382 932.7,1381.7 
		932.4,1381.4 932.2,1381 932.5,1380.8 932.8,1380.9 934,1380.3 934.5,1379.3 934.5,1379.3 934.5,1379.3 934.4,1378.9 934.7,1378.4 
		935.2,1378.3 935.5,1378.1 936.1,1377.3 936.1,1376.9 935.8,1376.7 935.5,1376.4 935.2,1375.6 935.1,1374.7 936,1375.9 
		936.2,1375.8 936.3,1375.4 936.6,1375.3 936.8,1376.1 936.9,1376.4 937.2,1376.5 937.8,1376.1 938.1,1375.8 938.2,1375 
		937.7,1374.4 936.7,1374 937.3,1373.8 938.3,1373.9 939.3,1374.1 940.1,1373.7 940.5,1373.3 941,1373.1 941.5,1373.1 942.5,1372.8 
		943.2,1372.3 943.7,1371.6 943.3,1370.7 944.5,1370.9 945.2,1370.5 946.3,1369.6 946.6,1368.5 947.4,1368.3 948.1,1368.1 
		949.5,1367 949.9,1366.5 949.4,1365 950,1364 949.9,1364.5 949.8,1365.1 950.3,1365.8 950.8,1364 952.8,1361.2 953.6,1360.4 
		956.1,1358.8 956.2,1358.7 956.2,1358.7 956.2,1358.7 956.2,1358.6 956.3,1358.7 957.8,1358.2 961.5,1358.3 961.9,1357.4 
		962,1355.4 962.3,1356.5 962.2,1357.4 962.3,1358 962.6,1356.7 962.9,1355.6 963.9,1354.1 964.5,1353.5 964.9,1353.2 966.1,1352.2 
		967.4,1351.3 967.2,1351 967.1,1350.6 967.1,1349 967.4,1349.4 967.7,1350.2 968.2,1350.4 968.7,1350.3 969.8,1349.3 970.6,1349.4 
		972,1349.3 972.9,1349.3 973.5,1349.3 973.8,1348.8 974.6,1348.6 975.6,1348.5 976.3,1347.7 977,1346.7 976.1,1346.1 973.4,1346.6 
		972,1346.3 971.3,1345.6 970.4,1344.2 972.3,1345.9 973.1,1346 974.5,1345.1 974.7,1344.7 974.7,1344.2 975.1,1343.5 975.6,1342.8 
		975.2,1342.4 974.8,1342.2 971.3,1340.7 970.6,1339.9 972.1,1340.6 973.5,1341 974.5,1340.7 974.7,1339.9 975,1339.8 975.4,1340.1 
		975.6,1340.9 975.8,1341.4 976.2,1341.3 976.8,1341.3 977.8,1341.7 978.8,1341.9 979.5,1341.6 980.7,1340.1 982.6,1338.5 
		982.8,1337.1 982.7,1336.2 982.6,1335.6 982.2,1334.9 981.8,1334.9 980.6,1335.6 980.4,1337.6 980,1338 979.6,1338 979.7,1336.9 
		979.9,1335.8 979.8,1334.8 978.5,1334.5 977.9,1334.8 977,1335 975.7,1334.9 974.7,1335.1 973.6,1334.9 973.7,1334 973.5,1332.9 
		973.5,1331.8 973.7,1332.7 974,1333.6 975.2,1334.3 975.9,1334.1 976.4,1333.6 976.8,1332.9 977.4,1332.8 978.3,1333.1 
		977.9,1332.2 978.3,1332.5 979,1332.8 979.1,1331.9 979,1331.2 979.9,1331.7 980.9,1332 981.5,1332.4 982.1,1333.1 981.7,1331.3 
		981.1,1330 980.6,1329.5 980.5,1328.9 980.7,1328 981.4,1328 981.7,1328 981.4,1326.8 980.9,1325.5 980.7,1324.4 980.4,1323.8 
		979,1323.6 978.1,1323.3 976.6,1324.1 975.8,1324 975.6,1323.2 974.4,1322.2 974,1320.8 973.2,1320.6 971.7,1320.2 970.9,1319.6 
		969.1,1319.3 968.8,1319.2 968.6,1318.9 970.9,1319.1 973.8,1320.2 974.4,1320.2 974.7,1321.1 975.6,1322 976,1322.4 976.6,1322.9 
		977.2,1322.6 977.7,1322.2 977.6,1321.5 977.3,1321.1 976.6,1320.3 975.7,1319.9 974.6,1319 973.4,1317.5 973.3,1317.2 
		973.2,1316.9 975.3,1319.2 976.1,1319.6 976.7,1319.3 976.5,1318.9 976.6,1318.3 977.9,1318.6 978,1317.7 977.8,1317 976.9,1316.5 
		977.5,1316.1 975.8,1315.4 975.2,1314.9 974.5,1313.9 973.6,1313.2 972.4,1311.7 971.7,1310.6 969.9,1309 970.3,1309 971.5,1309.8 
		972.6,1311.4 972.9,1311.7 975.7,1314.8 976.3,1314.9 977.1,1314.8 977.5,1314.3 977.6,1313.4 977.9,1312.8 977.9,1312.3 
		977,1311.4 975.9,1310.9 975.2,1309.9 974.3,1309.4 971.9,1308.6 970.5,1306.7 969.9,1306.6 968.8,1306.9 968.4,1306.8 968,1306.3 
		968.3,1304.7 968.5,1303.8 969.4,1302.9 970.1,1302.4 970.6,1301.7 970.7,1300.3 970.5,1300 970,1299.8 969.9,1299.7 969.9,1299.7 
		970,1299.8 970.5,1300 970.7,1300.3 970.8,1301.3 971.6,1300.4 971.6,1300.4 970.8,1301.4 970.7,1300.4 970.8,1301.7 970.5,1302.6 
		969.7,1303.2 968.9,1304.6 968.7,1305.1 968.8,1306.1 969.5,1306.3 970.3,1305.7 971,1305.7 971.1,1306.3 971.4,1306.9 972,1307.5 
		972.2,1307 972.2,1306.4 973.2,1307.9 974.8,1308.3 976.1,1308.9 976.6,1309.5 977.2,1310 977.3,1309.3 976.9,1308.7 976.5,1307.8 
		974.3,1305.6 974.1,1304.6 974,1303.7 974.2,1304.1 974.3,1304.6 975,1305.8 975.6,1306.2 976.3,1306.7 976.7,1306.6 976.5,1306 
		976.1,1305.3 975.7,1304.6 975.3,1302.1 975.5,1301.6 975.5,1300.9 975.5,1300.2 975.7,1299.7 975.5,1299 975.1,1298.2 
		975.2,1298.2 975.9,1298.7 976.4,1298.1 976.4,1297.5 975.8,1297.1 975,1296 975,1295.8 976.4,1296.3 976.6,1296 976.6,1295.4 
		977,1295.1 977.1,1294.6 977.1,1294.3 977.3,1294.1 977.8,1295.1 978,1294.8 978,1293.7 978.3,1293.9 978.3,1294.4 979,1294.1 
		979.5,1293.8 979.6,1293.3 979.6,1292.6 979.8,1292.2 980.3,1292.1 980.8,1291.9 980.7,1292.9 981.6,1292.8 981.2,1293.4 
		980.8,1293.5 980.4,1294.1 981,1294.2 981.6,1294.5 980.6,1294.6 979.7,1294.6 978.9,1295.2 978.2,1296.7 978.3,1298.3 
		979.1,1297.5 979.1,1298 978.6,1299.1 978.1,1298.9 977.4,1298.9 977.3,1299.6 977.3,1300.1 978.1,1299.7 978.6,1300 978.8,1300.8 
		978.1,1301.1 977.6,1301.2 977.2,1302.5 977.5,1302.3 977.8,1301.7 978.4,1301.9 978.8,1302.5 979.9,1303.6 980.2,1303.5 
		980.4,1303.8 979.3,1303.8 978.5,1303.6 977.9,1303.8 977.6,1305.1 977.9,1305.8 978.4,1306.7 979.3,1307.2 979.9,1307.6 
		980.2,1307.5 980.3,1307.1 980.5,1307 980.7,1307.5 981,1307.3 981.5,1306.7 981.7,1306.7 981.6,1307.2 981.7,1307.9 981.5,1308.4 
		981.1,1309 981.4,1309.2 981.8,1309.3 982.3,1309.9 982,1310.6 981.8,1311.3 982.9,1311.3 983.5,1311.5 983.5,1311.5 983.5,1311.5 
		983,1313.1 982.3,1313.8 981.4,1315.5 980.6,1318.1 980.4,1319.7 980.5,1320.3 981,1321 981.7,1319.3 982.1,1317.8 982.5,1317.2 
		983.2,1316.7 983.8,1316.5 984.2,1316.2 984.1,1315.3 986.2,1310.7 986.3,1310.7 986.5,1310.2 987.1,1309.4 987.7,1308.1 
		988.3,1307.9 988.5,1307.4 988.6,1306.4 988.7,1306.1 989,1305.9 989.1,1306.1 989.1,1306.6 989.3,1306.4 989.4,1305.9 
		989.5,1305.5 989.5,1305.5 989.5,1305 989.1,1304.1 988.8,1303.8 988.1,1303.9 988.6,1303.4 989,1302.3 989,1301.7 988.1,1301.2 
		986.9,1299.4 986.1,1297.9 985.9,1295.6 984.9,1294.1 984.4,1293.2 984.5,1292.3 984.3,1291.8 984.3,1291.2 985.1,1290.3 
		985.4,1289.5 985.9,1289.1 985,1288.7 983.8,1288.8 983.4,1288.9 983.4,1288.9 983.8,1288.8 985,1288.7 985.9,1289.1 986,1288.9 
		986.8,1288.5 988.2,1288.1 989.1,1287 988.8,1287.7 988.4,1288.4 986.5,1288.9 985.8,1289.4 985.4,1290.3 984.9,1291.7 
		984.9,1292.5 984.9,1293 986.5,1294.9 987.6,1295.5 988.5,1296.5 989.3,1296.4 990,1296.7 990.8,1297.2 990.6,1298.4 990.2,1299.6 
		990.5,1299.7 991.7,1298.9 993.1,1296.5 993.5,1296 993.6,1295.4 993.8,1295.1 994.4,1294.8 994.8,1294.8 995.2,1294.3 
		995.4,1293.5 995.6,1293.1 995.4,1292.3 996.1,1292.5 996.8,1291.5 997.6,1290.2 998.1,1287.6 998.3,1287.1 998.6,1286.9 
		998.4,1288.9 998.5,1289.4 998.8,1287.8 999,1285.9 999.2,1284.7 999.5,1283.8 999.6,1282.8 999.5,1281.9 999.2,1281.3 
		998.8,1281.5 997,1281.2 996.8,1280.3 997.1,1279.3 997.5,1278.9 997.8,1278.5 998.1,1278.4 998.6,1278 999,1277.5 999.9,1275.6 
		1000.1,1274.6 1000.1,1274.6 1000,1274.6 1000,1274.6 1000,1272.8 999.5,1271.4 999.9,1271.8 1000.3,1272.4 1000.4,1273.8 
		1000.1,1275.6 999.7,1276.5 999.3,1277.6 999.7,1277.3 1000,1276.8 1000.6,1276.6 1001.3,1276 1002.3,1274.9 1002.7,1274.6 
		1002.2,1273.8 1001.8,1273.2 1002.6,1272.7 1003.2,1272.4 1003.7,1272 1004.1,1271.8 1003.8,1271.3 1003.5,1270.8 1003.6,1269.6 
		1003.6,1268.4 1003.7,1267.3 1003.8,1266.1 1003.9,1264.9 1004,1263.7 1004,1262.5 1004.1,1261.3 1003.9,1261 1004.2,1259.9 
		1004.5,1258.8 1004.8,1257.8 1005.1,1256.7 1005.4,1255.6 1005.7,1254.6 1006,1253.5 1006.3,1252.4 1006.3,1252.4 1006.3,1252.4 
		1007.2,1252.5 1008.1,1252.5 1009,1252.5 1010,1252.6 1010.9,1252.6 1011.8,1252.6 1012.7,1252.7 1013.7,1252.7 1013.7,1252.7 
		1015,1252.8 1016.3,1252.8 1017.7,1252.8 1019,1252.9 1020.4,1252.9 1021.7,1253 1023,1253 1024.2,1253.1 1023.1,1253 1021.7,1253 
		1020.4,1252.9 1019,1252.9 1017.7,1252.9 1016.4,1252.8 1015,1252.8 1013.7,1252.7 1012.8,1252.7 1011.8,1252.7 1010.9,1252.6 
		1010,1252.6 1009.1,1252.6 1008.1,1252.5 1007.2,1252.5 1006.3,1252.4 1006,1253.5 1005.7,1254.6 1005.4,1255.6 1005.1,1256.7 
		1004.8,1257.8 1004.5,1258.9 1004.2,1259.9 1003.9,1261 1004.1,1261.3 1004,1262.5 1004,1263.7 1003.9,1264.9 1003.8,1266.1 
		1003.7,1267.3 1003.7,1268.4 1003.6,1269.6 1003.5,1270.8 1003.8,1271.3 1004.1,1271.8 1003.7,1272 1003.2,1272.3 1002.6,1272.7 
		1001.8,1273.2 1002.2,1273.8 1002.7,1274.6 1003.2,1274.2 1006.9,1272.3 1008.4,1271.8 1009.4,1271 1010.1,1271.2 1013.5,1271.1 
		1014.6,1270.6 1015.6,1270.9 1017.4,1270.4 1018.7,1270.3 1019.5,1270.3 1019.5,1270.3 1020.2,1270.4 1022.6,1269.8 1023.3,1268.8 
		1023.5,1266.6 1024.1,1265.7 1023.8,1264.6 1024.1,1264.7 1024.4,1265 1024.6,1265.5 1024.9,1266 1025.3,1265.7 1025.3,1265.7 
		1024.9,1265.1 1024.6,1264.8 1024.3,1264.5 1024.3,1264 1024.3,1263.3 1024.3,1263.3 1024.3,1264.1 1024.3,1264.5 1024.6,1264.8 
		1025,1265.1 1025.3,1265.7 1025.8,1265.2 1026.1,1265.2 1025.6,1266.5 1025.7,1268.1 1025.9,1268.4 1026.7,1267.8 1027.7,1267.7 
		1030.3,1265.6 1030.6,1265.6 1030.7,1266.9 1030.6,1267.5 1030.7,1267.8 1032.4,1267.2 1033.1,1266.7 1036.3,1266 1037,1266 
		1037.4,1266.1 1037.5,1265.6 1037.5,1264.4 1037.1,1262.5 1035.9,1261 1035.4,1260.8 1035,1260.7 1034.6,1260.8 1034.7,1261.1 
		1035.1,1261.5 1035.3,1261.2 1035.9,1261.6 1036.1,1262.2 1036.9,1263.6 1036.9,1264.2 1035.6,1264.9 1034.1,1265.4 1032.9,1265 
		1032.1,1264.4 1031.7,1262.7 1030.7,1262.1 1030.8,1261.7 1031.1,1261.5 1029.9,1259.1 1029.2,1258.6 1027.5,1258.2 1027,1257.8 
		1028.1,1256.5 1028.7,1255.7 1029.1,1255 1029.8,1254.7 1030.7,1254.2 1031.1,1254.1 1031.2,1253.7 1031,1253.5 1030.7,1253.4 
		1030.3,1253.5 1030,1253.5 1029.5,1252.8 1029.3,1252.2 1029.1,1251.5 1029.3,1250.8 1029.6,1250 1030,1248.4 1029.6,1247.7 
		1029.6,1247.7 1030,1248.4 1030.4,1247.9 1030.9,1247.6 1032,1244.8 1033.5,1243.1 1035,1241.2 1034.7,1240.8 1034.4,1240.6 
		1035.3,1239.4 1036.4,1238.5 1037.3,1238.2 1037.2,1238.7 1037.2,1239.1 1037.6,1239 1038.1,1238.7 1038.4,1239.1 1038.7,1239.3 
		1038.9,1238.9 1038.8,1238.1 1038.9,1237.5 1039.1,1237.7 1039.2,1238.2 1039.5,1238.3 1039.8,1236.9 1040.2,1236.4 1040.4,1237 
		1040.5,1237.9 1040.8,1237.8 1041.1,1236.6 1041.2,1236.8 1041.4,1237.7 1041.8,1237.6 1042.3,1236.9 1043.1,1236.3 1044.2,1236.5 
		1045.1,1235.8 1045.7,1235.1 1045.8,1234.1 1046.8,1231.8 1046.7,1230.7 1047.8,1230 1048.2,1229.1 1048.6,1228.9 1048.6,1229.7 
		1048.3,1230.4 1048.4,1230.5 1048.8,1230.4 1049.1,1230.5 1048.3,1231.3 1048.1,1231.9 1048.9,1231.9 1050,1232.3 1050.4,1232.8 
		1050.7,1233 1050.9,1232.4 1050.8,1231.4 1051.2,1230.5 1051.5,1229.7 1051.8,1230.2 1052.2,1230.5 1052.8,1230.1 1053.1,1229.7 
		1053.4,1229.6 1053.9,1229.6 1054.3,1229.8 1054.7,1229.9 1054.9,1230.6 1055.2,1231.3 1055.6,1231.1 1055.9,1230.8 1056.1,1230.3 
		1056.6,1230.4 1057.3,1228.8 1057.7,1228.7 1058.3,1228.9 1059,1229 1059.5,1228.8 1059.9,1227.9 1060.9,1227.7 1061.7,1227.2 
		1063.4,1227.5 1065.3,1225.5 	"/>
</g>
</svg>
