
<svg xmlns="http://www.w3.org/2000/svg" version="1.1" xmlns:xlink="http://www.w3.org/1999/xlink" preserveAspectRatio="none"  viewBox="-3177 -2050 7000 7000" id="fotos">
<defs>
<path id="Layer0_0_1_STROKES" stroke="#000000" stroke-width="1" stroke-linejoin="miter" stroke-linecap="butt" stroke-miterlimit="4" fill="#FFFFFF" d="
M 227.7 321.05
Q 227.55 321.15 227.85 321.35 228.25 321.7 228.35 321.85 228.55 322.3 228.2 323.15
L 227.35 324
Q 227.3 324.05 226.9 324.35 226.6 324.55 226.5 324.8 226.3 325.15 225.5 325.2 224.7 325.25 224.55 324.8 224.5 324.55 224.55 323.95 224.55 323.4 224.35 322.95 224.2 322.35 224.15 322.2 224.05 322.05 223.45 321.8 222.55 321.4 221.35 320.8 220.4 320.35 219.95 320.4 219.55 320.3 219.45 320.3 219.35 320.35 219.3 321 219.25 322 218.85 322.3
L 216.85 323.2
Q 216.55 323.25 216.3 322.7 216.1 322.35 216.05 322.25 216.05 322.15 216.1 321.75
L 216.2 320.6
Q 216.2 320.2 216.25 320.15 216.3 320 216.5 319.75 216.75 319.5 217.5 319 218.05 318.5 218.35 318.2
L 219.15 317.65 219.45 317.55
Q 219.8 317.45 220 317.65 220.35 317.9 220.85 318.55 221 318.7 221.15 318.9 221.2 319.05 221.35 318.8 221.4 318.75 221.65 318.05 221.7 317.65 221.75 317.5 221.85 317.15 222 317.05 222.5 316.8 222.9 316.9 223.6 317.05 223.95 316.65 224.7 315.95 225 315.45 225.35 314.35 225.8 314.15 226.05 314.05 226.3 313.95 226.5 313.95 226.65 313.55 226.8 313.15 227.1 312.4 227.4 311.65 227.85 311.55 228.05 311.5 228.4 311.45 228.65 311.4 228.75 311.15 228.95 310.85 228.95 309.95 228.95 308.75 229.05 308.6 229.5 308 229.75 307.8 230.05 307.5 230.2 307.4 230.4 307.15 230.55 307.45 231.15 308.35 231.55 308.55 231.85 308.65 232.35 308.5 232.05 308.3 231.75 307.75 231.45 307.2 231.4 307.05 231.3 306.75 231.65 306.6 232.15 306.45 232.75 306.35 233.3 306.1 233.4 306.05 233.65 305.9 233.85 305.45 234.4 304.65 234.55 304.15 234.7 303.85 235.6 302.95
L 237.65 300.95
Q 238 299.85 238.15 298 238.5 294.55 238.8 293.75 238.95 293.3 239.35 293.25 239.65 293.15 239.95 293.4 240.65 294 240.9 294.2 241.5 294.5 242.05 294.35 243 294 243.3 293.75 243.95 292.85 244.2 292.6 245.1 291.7 245.1 292.35 245.1 293.45 245.4 292.8 245.45 292.7 245.55 292.15 245.6 291.75 245.8 291.7
L 245.45 291.6
Q 244.85 291.35 244.85 290.75 244.9 289.45 244.85 288.8 244.8 287.7 245.3 287.6 246.45 287.25 246.7 287.25
L 248.25 287.25 254.4 286.75 256.4 286.85
Q 257.4 286.9 258.35 287.25 259.25 287.6 259.6 287.8 259.85 288 260.15 288.2 260.4 288.3 260.8 288.3 262.25 288.3 262.95 288.15 263.7 288 264.05 287.85
L 266.1 287.55
Q 266.35 287.55 266.5 288.15 266.75 288.55 267.2 288.45 267.55 288.4 267.95 287.55 268.15 287.25 268.25 287.1 268.35 286.85 268.35 286.3
L 268.35 284.6
Q 268.35 284.1 268.75 283.35 268.85 282.6 269.35 282.1 270.55 280.9 270.7 280.8 270.75 280.75 271.2 279.85 271.65 279.1 272.15 279 272.9 278.9 273 278.85 273.25 278.75 273.6 278.5 273.9 278.3 274.1 278 274.35 277.6 274.55 277.25 275.35 276.2 275.35 275.6 275.35 275.05 275.35 275 275.25 274.85 274.7 275.15 274.35 275.3 273.65 275.6 273.05 275.85 272.65 276.1 271.3 277 271 277.1 270.4 277.25 269.15 277.25 268.4 277.25 267.95 277.55 267.45 277.9 266.7 278.4 266.15 278.8 265.5 279.2 265 279.7 265 280.2 265 281 264.75 281.3 264.6 281.5 264.2 281.55 263.7 281.6 263.35 281.6 261.55 281.65 261.1 281.75 260.25 281.9 260.1 281.9 259.3 281.9 258.45 281.5 257.65 281.05 257.25 280.65 256.85 280.2 256.45 279.85 256.4 279.8 255.85 279.15 255.6 278.95 255.25 278.95 254.7 278.95 254.45 278.85 254.15 278.65 253.8 278.15 253.25 277.25 252.9 276.4 252.75 275.9 252.75 275.75 252.65 275.45 252.3 275.2 251.4 274.5 250.45 274.85 249.1 275.35 249.1 275.55 249.1 275.75 249.35 276.25 249.45 276.7 248.75 276.6 247.8 276.4 247.35 276.4 247 276.4 246.6 276.6 246.2 276.8 246.1 277 246 277.25 244.6 277.4 243.6 277.25 243.35 276.65 243 276.1 242.9 275.9 242.7 275.55 243.15 275.25 244 274.7 244.85 274.7 246.05 274.7 246.35 274.5 247.5 273.85 247.65 273.3 247.7 272.95 247.65 272.55 247.55 272.15 247.4 272.2 247.35 272.25 247.15 272.75 247 273.3 246.5 273.4 245.15 273.75 244.85 273.15 244.5 272.45 244 272.8 243.2 273.35 242.9 273.15 242.6 273 242.45 272.85 242.15 272.65 242.15 272.3 242.15 271.95 242.45 271.75
L 242.7 271.6
Q 241.8 271.15 241.85 270.6 241.9 270.25 242.05 269.9
L 242.2 269.6 241.35 270.55 239.8 269.45 240.5 271.55
Q 240.55 271.7 239.95 271.5 239.1 271.2 238.7 271.15 237.9 271.05 237.5 271.05 236.75 271 236.4 271.2 235.85 271.5 235.75 271.6 235.55 271.75 235.55 272 235.55 272.55 235.05 273.15 234.9 273.35 234.3 273.7 233.7 274.05 233.45 274.1 232.1 274.25 231.55 274.7 231.25 275 230.95 275.45 230.7 275.7 230.35 275.55 229.85 275.3 229.6 275.2 229.1 275 228.75 274.65 228.2 274.2 228 274.15 227.85 273.95 227.9 273.65 228.05 273.3 228.3 273.3 228.5 273.25 229 273.3 229.55 273.4 230.45 273.05 230.55 272.95 230.65 272.8 230.9 272.5 231.05 272.5 231.3 272.5 231.55 272.2 231.8 271.9 231.8 271.65 231.8 271.45 231.55 271.4 231.25 271.4 231 271.6 230.75 271.9 228.95 272.15 228.35 272.25 228.1 272.2 227.75 272.15 227.35 272 226.9 271.9 226.2 272.15 225.65 272.45 225.5 272.25 225.25 272 225.25 271.55 225.2 271.05 225.45 270.75 226 270.25 226.8 270.15 227.1 270.1 227.65 270 228 269.9 228 269.45 228 268.75 227.55 267.85 227.35 267.4 227.1 267.3 226.75 267.05 225.95 267
L 223.7 266.9
Q 223.4 266.85 223.5 266.5 223.65 266.1 224.1 265.75 224.7 265.35 225.95 264.85 227.25 264.4 228.05 264 227.65 262.95 228.05 262.4 228.3 262.05 228.8 262.25 229.05 262.3 229.3 262.5
L 229.45 262.8
Q 229.65 263.1 229.95 263.05 230.15 263.05 230.55 262.75 230.95 262.5 231.4 262.5 232.15 262.5 232.4 262.35 232.75 262.2 233.05 261.65 233.5 260.85 233.55 260.75 233.75 260.4 234.15 260.2 234.5 259.9 234.6 259.8 234.7 259.75 234.95 259.9 235.1 260 235.3 260.3 235.5 260.45 235.55 260.2 235.7 259.95 235.7 259.4
L 235.7 258.9 238.65 258.6
Q 239.6 258.4 239.8 258.05 240.35 257.2 241.2 256.65 241.5 256.4 241.45 256.25 241.45 256.2 242.2 256.05 243.15 255.95 243.5 255.8 243.75 255.65 244.1 255.3 244.7 254.4 245.05 254.05 245.3 253.75 246.05 252.7 246.85 251.55 247.05 251.15 247.45 250.35 247.65 248.85 247.7 248.6 248.05 247.2 248.2 246.8 248.5 246.7 248.55 246.7 249.1 246.55 249.6 246.45 249.85 245.8
L 248.25 246
Q 247.6 246.15 247.2 245.55 247.1 245.35 247 244.9 246.85 244.45 246.85 244.35 246.6 244.15 246.5 243.95 246.3 243.65 246.45 243.35 247.1 242.25 247.35 242.1 248.25 241 248.85 240.55 249.45 240.05 250.4 239.45 250.3 239.1 249.25 239.45 249.05 239.55 248.25 239.85 248 239.95 247.7 239.9 247.05 239.75 246.65 238.95 246.3 238.25 246.3 238.2 246.15 237.7 246.3 237.5 246.7 237.3 246.85 237.2 247.05 237.1 246.85 236.6 246.45 235.45 246.45 235.15 246.45 235.05 246.85 234.9 247.4 234.75 247.7 234.5 248.25 234 248.55 233.4 247.1 233.35 246.6 233.5 246.25 233.75 246 233.8 245.65 234 245 234.05 244.8 234.05 242.6 234.4 241.7 234.6 240.9 234.95 240.05 235.4 239.75 235.85 239.05 237 239.05 237.4 239.05 237.85 239.05 237.9 238.95 238.05 238.55 237.75
L 237.95 237.15
Q 237.8 236.9 237.35 237.15
L 235.95 237.85
Q 235.65 238 234.55 238 234.15 237.4 234.55 236.85 235 236.2 235.75 235.35 236.65 234.25 237.05 234.05 237.2 233.95 237.7 233.55 238 233.35 238.35 233.3 239.1 233.25 239.95 232.3 240.5 231.8 241.1 231.15 241.15 231.1 242.05 230.35 242.6 229.85 242.65 229.45 242.85 228.4 243.15 227.9 243.4 227.45 243.25 227.25 243.15 226.95 242.7 227 242.05 227.25 241.75 227.3 241.2 227.5 241.2 227.1 241.15 226.7 241.2 226.35 241.35 225.9 241.4 225.7 241.5 225.05 240.9 225.7 240.6 226.05 240.5 226.05 240.35 226.1 240 225.85 239.55 225.55 239.45 225.4 239.3 225.25 239.15 224.7 238.85 224.2 238.6 223.5 238.25 222.55 238.35 221.9 238.4 221.65 238.2 221.2 237.95 220.75 237.95 220.35 237.95 219.3 238.05 219.05 238.1 218.6 238.2 218.5 238.3 218.3 238.75 218.25 239 218.2 239.95 218.05 240.75 217.9 241.1 217.9 241.45 217.9 242.05 217.75 242.6 217.7 242.8 218 243 218.25 243.35 218.5 243.65 218.8 243.75 219.3 244 220.2 244.3 220.9 244.4 221.25 244.45 221.6 244.55 221.85 244.85 221.9 245.25 222 245.45 221.9
L 245.95 221.6
Q 246.65 221.15 247 221.25 247.15 221.3 247.4 221.35 247.6 221.45 247.45 221.9 247.25 222.55 246.85 223 246.65 223.45 246.65 223.5 246.6 223.65 246.85 223.8 247.1 223.9 247.7 223.85 248.2 223.85 248.45 223.7
L 249.4 223.25
Q 249.4 223.2 249.95 223 250.2 222.95 250.5 222.65 250.8 222.4 251.45 222.2 252.05 222.1 252.15 221.9 252.2 221.55 252.25 221.35 252.35 221.05 252.85 221.1 253.35 221.15 253.6 221.3 253.75 221.35 254.15 221.6 255.2 222.15 255.9 222
L 260.35 220.5 261 220.35
Q 261.75 220.25 261.9 220.45 262.2 220.75 263.15 221.45 263.3 221.65 264.55 222.55 265.2 223.15 266.35 223.75 266.65 224 267.1 224.15 267.45 223.55 266.9 222.65 266.25 221.7 265.65 220.85 264.7 219.9 264.7 219.55 264.65 219.2 264.7 219.05 264.75 218.8 265 218.55 265.45 218.25 266.35 217.8
L 267.45 217.15 267.35 217.55
Q 267.35 218 267.6 218.5 268.2 219.7 268.6 220.2 268.85 220.5 269.1 220.95 269.25 221.35 269.55 221.6 270.35 222.25 271.3 222.15 272.7 222.05 272.85 221.95 274 221.4 273.4 221.05 273.1 220.95 272.65 220.95 272.05 220.95 271.2 220.65 270.05 220.35 269.8 220.25 269.5 220.15 269.15 219.6 268.6 218.7 268.35 217.9 268 216.75 267.5 215.85 266.8 214.85 266.45 214.25 266.2 213.85 266.25 213.65 266.25 213.5 266.55 212.95 267.7 210.7 268.1 210.1 268.6 209.45 269.55 208.5 269.6 207.75 268.8 207.65 268.1 207.6 267.9 207.55 267.5 207.5 267.25 207.2 266.8 206.75 266.8 206.05 267.2 204.4 267.25 203.55
L 267.45 201.3 267.8 201.55
Q 268.25 201.7 268.4 201.65 268.45 201.65 268.6 201.4 268.65 201.2 269.2 201.2 269.25 201.2 270.25 201.3 270.55 201.35 270.85 201.05 271.6 200.3 271.05 199.65 270.5 199 270.45 198.7 270.3 198.35 270.25 198.2 270.1 197.95 270.45 197.55 270.85 197 271.5 196.4 272.4 195.55 271.6 194.2 271.2 193.6 271.25 193.35 271.25 193.15 271.65 192.85 272.1 192.5 272.2 191.5 271.85 191.4 271.4 191.9 271.15 192.15 270.55 192.35 269.95 192.55 269.85 192.65 269.7 192.8 269.75 193.15 269.8 193.55 269.6 193.7 268.85 194.35 268.5 193.65 268.3 193 267.95 192.25 267.55 191.6 267.2 191.2 266.8 190.8 266.7 191.3 266.65 191.65 266.7 192.45 266.8 193.25 266.7 193.65 266.6 194.2 266.35 194.65 266.05 195.1 265.9 195.35 265.55 196.05 264.9 196.15 264.65 196.25 264.5 196.25 264.3 196.25 264.05 195.75 263.7 195.15 263.6 195 263.5 194.7 263.75 194.2 264.05 193.6 264.15 193.4 264.35 193.15 264.35 192.65 264.35 192.5 264.4 191.7 264.45 191.35 264.35 191 264.15 190.4 264.05 190.25 263.95 190 263.8 190.6 263.5 191.6 263.05 192.7 262.5 193.1 262.1 192.65 261.5 191.95 261 191.25 260.75 190.95 260.7 190.85 260.6 190.75 260.55 190.3 260.7 188.7 260.45 187.85 260.3 187.3 259.85 186.9 259.35 186.6 259.15 186.4 258.95 186.25 258.7 185.9 258.4 185.45 258.2 185.15 257.3 184.1 257.15 183.85 257 183.6 256.55 183.4 256.25 183.2 256.15 182.75 256.1 182.25 256.3 181.9 256.45 181.7 256.75 181.25 257.2 180.6 257.25 179.4
L 257.25 178.5
Q 257.25 178.2 257.35 177.85 257.7 176.85 258.2 176.4 258.9 175.75 259.55 174.95 259.75 174.65 259.85 173.4 259.95 172 260.1 171.6 260.15 171.5 260.4 170.3 260.45 169.75 260.9 169.7 261.25 169.65 261.5 169.85 261.8 170.05 262.05 170.15 262.65 170.3 262.9 170.3 263.25 170.3 263.4 169.95 263.7 169.55 263.75 169.35 263.85 169.1 263.4 169 262.1 168.6 262.7 168.15 262.95 168 263.15 167.75 263.35 167.6 263.75 167.7 264.05 167.8 264.5 168.2 264.9 168.5 265.1 168.5 265.85 168.55 266.35 168.3 266.8 168.05 266.9 168 267.1 167.85 267.1 167.55 267.1 167.2 266.9 167.1 266.6 166.9 265.8 166.85
L 260.65 166.55
Q 259.7 166 259.25 166.35 258.85 166.7 258.65 166.8 258.25 166.9 257.9 166.6 257.45 166.15 257.3 166.1 257 165.95 257.05 166.55 257.1 167.05 257.3 168.5 257.4 169.35 257 169.7 256.6 170.15 255.5 170 254.6 169.9 254.5 169.9 254.1 169.9 254.1 170.1 254.1 170.4 253.9 170.55 253.65 170.75 253.3 170.5 253.2 170.4 252.75 169.85 252.55 169.65 252.35 169.95 251.9 170.75 251.95 171.05 252 171.25 252.05 171.6 252 171.85 251.75 172.05
L 250.05 173.5 248.6 173.35
Q 248.3 173.65 248.2 173
L 247.9 171.15
Q 247.8 171.25 247.7 171.4 247.55 171.7 247.45 172.1 247.35 172.7 246.9 173.35 245.85 173.6 245.75 173.3 245.35 172.6 245.15 171.9 245.05 171.6 245 171.1 244.95 170.75 244.85 170.6 244.6 170.35 244.4 170.35 244.15 170.4 244 170.75 243.9 171.1 243.55 171.25 243.2 171.35 242.9 171.05 242.6 170.85 242.15 170.1 241.55 169.1 241.3 168.8 240.8 168.15 240.45 167.95 240.1 167.7 240.3 168.2 240.4 168.5 240.65 168.9 240.8 169.35 240.85 170.2 240.9 171.2 240.95 171.55 241 171.7 241.2 172 241.6 172.5 241.7 173.4
L 241.75 174.8
Q 241.8 175.25 241.75 176.3 241.7 176.7 241.6 176.7 241.45 176.7 240.95 176.35 240.1 175.7 239.5 175.35 236.65 172.95 235.4 171.9 234.25 170.9 233.85 170.55 233.25 170.05 233 170.15 232.45 170.7 231.75 171.15 231.6 171.3 230.85 170.95 230.55 170.8 230.8 172.25 231 173.35 231.7 176.55 231.85 177.15 231.75 177.95 230.6 178.2 230.5 177.1 230.5 176.25 230.5 176 230.45 175.6 230.2 175 229.8 174 229.1 173.05 228.45 172.15 227.65 171.4 226.5 170.3 226.35 169.5 226.35 169.45 226.15 168.8 226 168.4 226.05 167.8 226.1 166.45 226.5 166 226.85 165.6 227.25 165.35 227.75 165 227.8 165.4 227.85 165.7 227.9 166.3 227.9 167.05 228.15 167.75 228.4 168.65 229 169.15 229.6 169.65 229.65 169.1 229.9 167.55 229.5 166.85 228.85 165.8 228.75 165.3 228.65 164.95 229 163.85 229.45 162.6 229.6 162 229.8 161.2 229.85 161 229.95 160.65 230.3 160.3 230.6 160.05 231.6 159.2 232.45 158.3 232.5 157.4 232.45 155.5 232.7 154.9 232.9 154.5 233.05 154.4 233.5 154.05 233.55 154 233.85 153.75 233.85 153.6 234 153.25 234.15 152.8 234.55 151.9 234.6 151.85 234.75 151.55 235.2 151.55 235.65 151.5 235.85 151.35 236.1 151.3 236.4 150.9 236.85 150.35 236.85 149.2 236.85 148.75 236.5 147.55 236.15 146.3 235.85 145.65 235.65 144.95 235.55 144.8 235.45 144.65 234.8 144.6 234.1 144.5 233.75 144.35 233.4 144.15 232.95 143.45 232.4 142.75 232.2 142.5 232 142.15 232 141.7 232 141.4 232.2 140.85 232.4 140.3 232.35 139.85 232.3 139.45 232.1 139 231.85 138.55 231.85 138
L 231.85 135.65
Q 231.7 135.05 231.75 134.65 231.85 133.95 232.75 133.75 233.7 133.6 234.7 133.85 235.25 134 236.25 134.3 236.95 134.5 238.2 134.6 238.55 134.6 238.4 134.5 238.1 134.25 237.8 134 236.75 133.45 235.6 132.45 234.9 131.85 233.95 131.25
L 233.2 130.8
Q 234.4 133.05 233.35 132.4 233 132.15 232.35 131.45 231.95 131 231.65 131.25 231.3 131.55 231.45 132.1 231.6 132.95 231.6 133.1 231.6 133.5 231.3 133.9 230.95 134.4 230.8 134.75
L 230.2 136.45
Q 230 136.8 229.65 136.8 229.25 136.8 229.1 136.2
L 228.6 134.3
Q 228.4 134.4 228.2 134.6 227.8 135.1 227.9 135.6 228 136.15 228.7 137.3 229.25 138.25 229.25 138.75
L 229.2 140.55
Q 229.2 140.85 228.95 140.85 228.6 140.9 228.15 140.3 227.55 139.5 227.1 138.2 227 137.65 226.95 137.45 226.9 137.15 226.6 136.9 226.05 136.25 225.8 136 225.4 135.55 225.55 136.15 225.65 136.55 226.2 137.6 226.6 138.3 226.3 138.3 226 138.35 225.5 137.9 224.7 137.15 224.4 136.95 223.85 136.6 223.4 136.15
L 223.05 135.8
Q 222.85 135.85 222.75 136.05 222.45 136.35 222.65 136.9 222.85 137.4 223.1 137.95 223.25 138.35 223.15 138.55 223.15 139.35 222.6 140 221.9 140.7 221.45 141.1 220.7 141.95 220.5 142.55 220.15 143.5 219.4 147.5 219.35 147.6 219.4 149.05 219.4 150.35 219 150.8 218.4 151.55 218.35 151.6 218.25 151.85 218.6 152.15 218.85 152.35 219.2 152.5 219.45 152.7 219.35 153.25 219.15 154.2 218.6 154.75 217.45 155.5 216.65 155.75 216.05 156 215.8 156.05 215.5 156.1 215.05 156.05 214.45 155.9 214.3 155.8 214 155.5 213.95 154.8 213.8 154.1 213.75 153.9 213.7 153.65 214.1 152.9 214.85 151.6 215.55 151.1 216.15 150.35 215.9 148.9 215.75 148.15 215.65 147.85 215.55 147.35 215.65 146.75 215.75 146.2 216.65 144.4 217.6 142.55 217.75 141.9 217.8 141.35 218.2 140.8 218.4 140.5 218.15 140.1 217.9 139.7 217.5 139.5 217.05 139.25 216.9 139.1 216.35 138.6 216.35 138.55 216.2 138.3 216.6 137.75 217.4 136.75 217.4 135.95 217.4 135.7 216.7 135.45 216.05 135.25 216.1 134.85 216.4 133.45 216.6 133.05 216.85 132.5 215.95 132.35 215.05 132.2 214.6 132.7 214 133.25 213.75 133.55 213.25 134.05 212.85 134.8 212.1 136.25 211.3 137.4 211.15 137.6 210.8 138.45 210.55 139 210.1 139.25 209.3 139.75 209.3 140.7
L 209.3 142.6
Q 209.3 142.85 208.7 143.55 208.1 144.25 207.55 144.5 206.85 144.85 206.1 145.7 205.8 146.25 205.6 146.5 205.3 146.95 204.8 146.8 204.1 146.6 203.75 146.15 203.35 145.6 204 145.05 204.4 144.8 205.2 144.45 205.6 144.2 205.65 143.9 205.7 143.6 205.35 143.35 204.8 142.85 204.4 142.3 203.7 141.4 203.65 141.1 203.6 140.75 204 140.6 204.3 140.55 204.95 140.35 205.4 140.2 205.3 139.85 205.15 139.4 204.35 139.15 203.55 138.9 203.35 139.4 203.25 139.8 203.05 140.5 202.85 141.1 202.55 141.75 202.05 142.8 201.05 143.15 200.6 141.35 200.85 140.25 200.95 139.85 201 138.8 201 138 201.25 137.65 201.8 136.9 202.5 136.4 202.8 136.2 203.15 136.2 203.6 136.25 203.7 136.65 203.9 137.15 204.15 137.25 204.4 137.35 204.65 136.9 204.95 136.15 205.1 135.8 205.35 135.2 205.7 134.95 205.85 134.9 206.25 134.35 206.5 134.05 206.9 134.05 207.85 134.05 208.2 134.55 208.45 134.9 208.7 135.05 209.05 135.2 209.25 134.9 209.3 134.8 209.2 134.55 209.15 134.45 209.75 134.25 210.8 133.9 211.6 133.5 210.75 132.75 210.55 132.35 210.3 132 210.25 131.8 210.15 131.6 210.6 131.25 211.25 130.75 212.2 129.85 212.3 129.8 212.65 129.4 212.95 129.1 213.5 128.8 214.55 128.25 214.8 128 215.4 127.35 215.4 126.15 215.4 124.75 215.3 124.3 215.2 123.85 214.8 122.95 214.55 122.4 214.45 121.6 214.4 121.15 214.1 121.15 213.95 121.15 213.45 121.4 213.2 121.5 212.85 121.15 212.2 120.5 212.15 120.5 211.8 120.35 210.95 120.8 208.85 121.85 208.15 122.1 207.75 122.2 206.95 122.25 206.1 122.25 205.8 122.25 205.15 122.45 204.8 122.5 204.15 122.65 203.75 122.25 203.25 121.8 202.8 121 202.35 120.2 202.5 119.95 202.8 119.6 204.75 119.9 205.65 120 206.55 119.95 206.9 120 206.85 119.75 206.8 119.65 206.55 119.1 206.15 118.25 207 117.6 207 117.55 207.6 117.05 207.9 116.75 208.45 116.5 208.5 116.45 209.45 116.05 209.85 115.9 209.9 115.7 210.1 115.25 210.1 115.15 210.1 114.85 209.3 115 208.15 115.25 207.85 115.25 207.25 115.3 206.75 115.05 206.55 114.9 206.15 114.35 205.9 114 205.2 114 204.1 114.1 203.7 114.15 203.15 114.15 203.35 113.5 203.7 112 204.55 111.45
L 206.7 109.9
Q 206.8 109.8 207.35 109.75 207.7 109.7 207.8 109.25 207.9 108.65 207.85 108.45 207.7 108.2 207.15 108.05 205.15 107.6 206.05 106.7 206.45 106.35 206.9 105.7 207.3 105.3 207.85 105.25 208.15 105.25 209.2 104.95 210.05 104.7 210.75 104.85 212.65 105.2 212.9 105.25 213.25 105.45 214.1 105.1 214.95 104.8 214.45 104.45 214.4 104.45 213.25 103.9 212.65 103.6 212.75 103.35 212.85 103.1 213.5 102.95 213.9 102.85 214.75 102.7 215.35 102.5 216.05 101.85 216.75 101.25 216.3 101.2 214.8 101 213.5 101.05 212.75 101.1 212.55 101 212.15 100.9 212.35 100.4 212.8 99 212.85 98.95
L 213.15 97.65
Q 213.35 96.55 213.8 96.45 214.35 96.3 214.9 96.2
L 215.4 96.2
Q 216.65 95.9 215.75 95.75 213.8 95.5 213.95 94.85 214.15 93.9 213.5 94 212.85 94.15 211.9 95.15 211.3 95.85 210.65 96.2 209.7 96.8 209.65 96.15 209.55 94.4 210.25 93.45 210.35 93.4 210.95 92.4 211.3 91.9 211.7 91.7 212.15 91.4 212.8 90.9 213.5 90.35 213.25 90.4 213 90.45 210.65 90.7
L 210.05 89.15
Q 210.05 89.2 209.85 89.7 209.55 90.3 209.45 90.85 209.3 91.75 209 92.15 208.1 91.45 207.9 90.85 207.75 90.15 207.45 89.8 207.05 89.4 206.75 90.05 206.3 91.1 206.05 91.9 206.05 91.3 205.2 90.85 204.9 90.7 204.1 90.65 203.6 90.65 203.35 90.2 203.15 89.85 203.05 89.5 203.05 89.2 202.7 88.8 202.1 88.05 201.9 87.75 201.5 87.15 201.45 86.65 201.4 86.1 201.55 85.7 201.7 85.3 201.9 85.3 202.1 85.3 202.35 85.1 202.6 84.9 202.4 84.65 201.6 84.05 201.15 83.65 200.85 83.4 200.4 83.2 199.95 83.1 199.75 83.2 199.7 83.2 199.5 84.25 199.3 85.2 199 85.1 198.75 85 197.4 84.25 196.3 83.55 196.15 82.8 196.1 82.55 195.55 82.4 195 82.25 194.85 81.8 194.6 81.05 194.55 80.9 194.5 80.65 194.85 80.65 196 80.65 196.15 80.7 196.1 80.6 196 79.9 195.85 79.05 195.95 78.95 196.05 78.75 196.8 78.95 197.6 79.15 197.75 79.65 198.2 80.95 198.65 81.25 199.05 81.5 199.2 81.55 199.4 81.6 199.35 81.15 199.3 80.9 198.8 80.05 198.4 79.4 198.55 79.25 198.6 79.2 199.1 79.15 199.35 79.15 199 78.55 197.85 76.95 197.85 76.6 197.85 76.4 198.4 76.05 198.9 75.7 198.9 75.8 198.9 75.85 199.85 76.65 200.8 77.55 201 77.85 201.1 78.15 201.45 78.5 201.65 78.75 201.75 79 201.85 79.25 201.95 79.2 202.1 79.2 202.5 79
L 203.05 78.75
Q 203.25 78.65 203.25 78.3
L 203.15 77.05
Q 203.35 76.7 203.4 76.45 203.55 75.95 203.1 75.6 202.45 75.15 202.2 75.05 201.95 74.75 202.3 74.3 202.5 74.1 202.8 73.6 202.85 73.45 203.35 73.2 205.05 72.3 205.45 72.8 206 73.55 206.35 74.5 206.4 74.65 206.75 75.55 206.9 75.95 207.05 76.6 207.9 80.25 207.75 80.85
L 207.35 81.65
Q 207.2 82 207.4 82.55 207.65 83.15 208.05 85.3 208.1 85.55 208.7 85.8 209.45 86.1 209.65 86.35 209.85 86.65 209.9 86.95 210.05 87.2 210.7 87.45 211.05 87.55 211.35 87.75 211.5 87.85 212.15 87.85 213.4 87.85 214.55 87.5 214.75 87.5 215 87.6 215.2 87.55 215.2 87 215.2 86.1 215.2 86.05 215.25 85.7 215.8 85.55 216.6 85.4 217.2 84.95 217.45 84.9 217.75 84.8 218 84.65 218 84.3 218 83.7 217.75 83.2 217.5 82.65 217.1 82.95 216.8 83.2 216.4 83.7 216.05 84.1 215.8 84.25 215.55 84.6 215.5 84.65 215.3 84.8 214.55 84.45 212.95 83.75 213.4 82.75 213.55 82.45 213.95 82.25 214.1 82.1 213.7 81.5 213.1 80.75 212.95 80.55 212.85 80.25 212.9 79.8 213.25 77.85 213.25 77.45
L 213.5 76.2 214.65 76.95
Q 215.8 77.75 216.15 78.15 216.7 78.7 218.1 78.3 217.7 77.8 217.05 77.3 216.05 76.6 215.85 76.2 215.45 75.4 215.2 75.15 214.45 74.5 214.35 74.45 213.9 73.9 213.95 73.4 213.9 72.75 213.95 72.5 214.05 72.2 214.65 72.2 214.9 72.2 215.8 72.25 216.35 72.3 216.5 72.2 216.8 71.95 216.85 71.7 216.85 71.35 216.35 71.1 216.05 70.95 215 70.6 214.35 70.4 214.25 70.3 213.9 70.1 213.95 69.6 214 68.55 214.15 67.65 214.5 65.7 215 65.6 215.35 65.5 215.75 65.9 216.2 66.25 216.3 66.85 216.45 67.8 216.95 68.7 217 68.8 217.2 69.35 217.2 69.55 217.55 69.55 218 69.55 218.35 69.05 218.8 68.55 218.65 68.05 218.6 67.7 218.4 67.55 217.85 67.15 217.75 67.1 217.1 66.45 217.05 66.35 216.8 66 216.95 65.35 217 65.25 217.15 64.05 217.2 63.5 217.55 63.45 218.05 63.45 218.2 63.6 218.3 63.75 218.85 64.7 219 65 219.4 66.05 219.55 66.5 220 66.55 220.5 66.65 220.85 66.3 221.15 66 221.15 65.5 221.15 65.4 220.85 64.85 220.8 64.6 221.45 64.65 222.65 64.7 223.6 64.55 224.4 64.55 224.5 64.55 224.6 64.5 225 64.3 225.35 64.15 225.65 63.8 225.85 63.45 225.85 63.25 225.85 62.75 224.45 62.15 223.25 61.65 222.3 60.5 221.7 59.8 221.4 59.5 220.85 58.8 220.85 58.3 220.8 57.6 220.9 57.45 221.05 57.2 221.45 57.5 221.8 57.8 222.25 58.25 222.6 58.65 223.15 58.7 223.65 58.8 224.1 58.95 224.4 59 224.55 58.55 225.1 56.95 224.8 56.25 224.55 55.8 223.95 55.05 223.45 54.4 223.3 54.35 222.8 54.1 222.45 53.3 222.25 52.75 222.1 52.2
L 222 51.8
Q 222.05 51.85 222.6 51.85 223.3 51.9 223.8 52.2 224.4 52.5 224.6 52.5 224.7 52.45 225 52.2 225.45 51.85 226.7 51.9 228.2 52.05 228.85 51.95 229 51.95 228.2 51.2 227.1 50.3 226.9 49.65 226.5 48.7 226.35 48.35 226.15 47.75 226.35 47.35 226.8 46.45 227.65 46.75 227.9 46.85 228.4 47.05 228.75 47.05 228.4 46.45 228.25 46.2 227.75 45.4 227.55 45.1 227.75 44.95 227.85 44.85 228.2 44.8 228.35 44.75 228.4 44.4 228.45 43.8 227.85 43.3 227.05 42.6 227.55 42.05 227.75 41.8 228.1 41.65 228.4 41.45 228.6 41.15 228.8 40.85 228.85 40.35 228.95 39.8 229.1 39.5 229.35 39.2 229.35 38.85 229.5 38.6 230.1 38.6 231.95 38.6 232.2 38.85 232.7 39.25 232.85 40.3 232.95 40.8 233.2 41 233.45 41.2 233.7 40.75 233.85 40.05 233.95 39.85 234.05 39.55 234.55 39.95 235 40.25 235.45 40.4 235.7 40.55 235.65 40.95 235.6 41.35 235.35 41.75 235 42.3 234.85 42.7 234.7 43.1 234.45 43.55 234.4 43.85 234.55 44.1 235.35 45.25 235.85 44.15 235.9 43.95 236.2 42.95 236.4 42.45 236.65 42.25 236.8 42.15 237.25 42.05 237.5 42 237.5 41.6 237.5 41.35 237.1 40.55 236.85 40.1 237.5 40.1 238.1 40.1 238.6 40.05 238.9 40.05 239.45 40.5 239.75 40.75 240.3 40.85 240.5 40.95 240.6 41.4 240.75 42.55 240.3 43.45
L 239.8 44.35
Q 239.65 44.8 239.9 44.8 240.4 44.8 241.15 43.3
L 242.05 41.6
Q 242.1 41.65 242.55 41.35 243 41.1 243.25 41.4
L 243.65 42.05
Q 243.75 42.25 244.1 42.05 244.65 41.7 245.2 41.15 245.55 40.9 246 40.75 246.45 40.55 246.5 40.55 246.55 40.6 247.4 40.3 248.35 40 248.9 40.1
L 251.1 40.45
Q 253.25 40.8 253.8 40.5 253.9 40.45 253.75 39.85 253.65 39.35 254.65 39.05 255.5 38.85 256.5 38.4 257.2 38.2 257.6 38.4 257.75 38.45 258.35 38.95 258.65 39.2 259.1 39.2 259.85 39.2 260.65 39.25 261.3 39.2 261.35 39.2 261.6 39.1 261.25 38.75 260.75 38.3 260.6 38.15 260.35 37.9 260.4 37.5 260.85 36 261.45 36.6 261.7 36.85 262.05 37.2 262.35 37.45 262.85 37.5 263.6 37.65 264.75 37.55 265 37.6 265.75 37.6 266.3 37.6 266.6 37.7 266.7 37.75 267.3 37.35 267.6 37.15 267.45 38.1 267.2 39.85 266.75 40.45 266.65 40.55 266.55 40.35 266.45 40.25 266.25 41.25 266.05 42.15 265.75 43.05 265.6 43.6 265.9 43.85 266.1 44.05 266.55 44.05 266.9 44 266.95 44.25 267.15 44.75 266.35 46.15 266.35 46.4 265.9 47.6 265.5 48.9 265.3 49.2 265.1 49.55 263.7 50.3 262.8 51 262.05 51.25 261.05 51.6 260.95 51.6 260.4 51.85 260.1 52.4 260 52.65 259.7 53.35 259.55 53.85 259.15 54.2 258.45 54.85 257.35 55.6 254.2 57.8 253.15 58.95 252.35 59.9 251.95 60.5 251.6 61.1 251.35 61.3 251 61.6 250.05 62 249.9 62.05 248.8 62.4 248.55 62.55 248.45 62.8 248.35 63 248.5 63.15 248.7 63.4 248.8 64.05 248.85 64.85 248.7 65.5 248.55 66 248.3 66.15 247.95 66.25 247.8 66.4 247.5 66.55 247.8 66.85 248.4 67.4 249.55 67.3 249.7 67.3 249.95 67.4 250.05 67.5 251.2 67.3 252.55 67.05 252.75 67.35 252.85 67.6 252.15 68.15 251.65 68.55 249.85 71.4 247.8 74.75 247.45 75.2
L 245.75 77.5
Q 245.5 77.85 245.5 78.05 245.55 78.15 245.8 78.35 246 78.45 246 78.95 246.15 79.15 247.1 78.05 248.85 75.95 249.75 76.05 250.25 76.1 252.8 75.8
L 253.35 75.2
Q 253.95 74.4 254.45 73.9 255.1 73.35 255.6 73.35 256 73.35 256.15 73.65 256.25 74.05 256.6 74.1 257 74.2 257.4 73.7 257.6 73.5 257.7 73.2 257.7 73.05 258.45 72.6 259.15 72.2 259.55 71.75 259.85 71.45 260.2 71.35 262.1 70.9 262.8 71.35 263.05 71.5 263.4 71.8 263.8 72.15 264.65 72.45 265.7 72.8 267.2 73.05 267.25 73.05 267.4 72.95 267.65 72.65 269.4 72.4 271.2 72.15 272.15 72.25 272.7 72.35 273.8 72.6 275.3 72.8 276.8 72.85 277 72.9 279.6 72.9 282.1 72.9 283.3 72.8 284.1 72.75 284.45 72.4 284.75 72.1 285.5 72.2 286.95 72.35 288.45 73 289.5 73.45 289.85 73.65 290.55 74.1 290.95 74.95 291.5 76 291.7 76.6 291.9 77.4 291.85 78.5 291.8 79.5 291.6 80 291.45 80.35 290.85 81.5 290.05 83.25 289.15 84.65 287.9 86.05 287.45 86.85 286.4 88.55 286.3 89.1 286.25 89.45 286.1 89.7 286 89.95 286.1 90.55 286.55 92.65 286.55 92.75 286.6 92.95 285.6 94.5 284.45 96.2 284.15 97 283.75 98.1 283.6 98.7 283.55 99.2 283.55 100.15 283.55 101.65 282.5 103.1 282.15 103.65 281.35 104.25 280.6 104.85 280.4 105.1 280.25 105.25 279.95 105.5 279.8 105.55 279.55 106.35 279.35 106.85 279.25 107.6 279.1 108.05 278.8 108.7 278.75 108.8 278.1 110 277.8 110.5 277.85 110.8 277.9 111.1 277.35 111.65 276.75 112.3 276.5 112.5 276.5 112.55 275.4 113.4 274.45 114.15 273.8 115.05 273.4 115.6 272.55 116.4 272.15 116.8 272.1 117.4 272 118.5 271.7 119.55 271.7 119.75 272.1 119.95 272.35 120 273.15 120.35 273.25 120.4 274.3 120.75 274.85 120.95 275.2 121.35 276.25 122.75 275.4 123.3 274 124.25 273.3 124.55 272.15 125 271.2 125 271.15 125 270.8 124.75 270.5 124.55 269.9 124.6 269 124.6 268.65 124.7 268.1 124.8 267.65 125.4 267.2 126.05 267.05 126.15 266.95 126.3 266.35 126.75 264.9 127.85 264.5 129.25 264.35 129.75 263.6 130.1 262.8 130.4 262.6 130.5 261.85 130.95 260.7 130.95 260 131 259.7 130.95 259.35 130.9 258.3 130.55 256.2 129.85 255.55 129.9 254.8 129.95 254.5 130.25 254.2 130.6 255 130.8 255.5 130.95 255.9 131.2 256.3 131.4 257.05 131.55 258.5 131.9 259.55 132.25 260.95 132.6 263.35 132.95 265.5 133.25 266.2 133.25 266.6 133.25 266.75 133.35 267 133.35 268.15 133.15 269.15 132.95 269.95 132.9 270.35 132.8 270.6 132.2 270.7 131.95 271 131.05 271.15 130.5 271.5 130.1 272 129.6 272.6 129.35 273.35 129.1 273.8 129.45 274.5 129.9 275.35 130.8 275.8 131.15 276.3 131.3 276.6 131.45 277.4 131.6 277.9 131.75 278.35 131.85 278.7 132 279.35 132.65 279.6 132.9 280.15 133.7 280.35 134.05 281.1 134.1 281.8 134.2 282.6 134.15 283.15 134.2 283.65 134.55 284.45 135.1 285.05 136.3 285.2 136.5 286.1 137.6 287.1 138.8 287.55 139.65 288 140.4 288.5 141.4 288.9 142.1 289.3 142.5 289.95 143.1 291.45 144.35 291.75 144.65 292.5 144.85 293.15 145.05 293.5 145.65 294.4 147.05 294.55 148.15 294.55 148.3 295.05 149.9 295.5 151.3 295.4 151.95 295.4 152.5 295.15 153.25 295.05 153.8 295.4 154.4 296 155.25 296.05 156.45 296.1 156.95 296.3 157.75 296.55 158.45 296.7 158.8 297.8 160.6 297.85 161.7 297.95 163.25 298.8 165.7 298.85 166 299.6 166.95 300.1 167.65 300.05 168.4 299.95 169.4 300.05 169.75 300.1 170.25 300.5 171.35 300.9 172.35 301.25 173.05 301.45 173.4 301.9 174.15 302.05 174.5 302.55 175 302.9 175.4 303.05 176.15 303.2 176.7 303.05 177.55 303.05 178 303.4 178.15 303.75 178.3 304.2 178.25 304.65 178.2 305 178.45 305.95 179.2 309.55 180.35 310.25 180.65 310.5 180.5 310.8 180.55 312.5 181.65 314.9 183.25 314.95 183.3 315.4 183.65 315.6 184.45 315.8 185.15 316 185.3 316.65 185.9 317.1 186.35 317.9 187.3 318.1 188.15 318.25 188.6 318.45 189.45 318.7 190.05 319.15 190.5 319.35 190.7 319.95 191.2 320.25 191.5 320.7 191.95 321.05 192.25 321.2 192.65 321.35 193 321.1 193.35 321.1 193.7 322.2 194.2 322.95 194.5 324.45 194.75 325.1 194.8 324.75 195.25 324.35 195.65 323.45 196.2 322.6 196.7 322.5 196.95 321.85 198 322.25 198.7 322.3 198.75 322.55 200.25 322.8 201.7 323.55 202.95 324.85 205 326.5 207.5 326.9 208.2 328.3 209.95 328.9 210.65 328.95 211.35 328.95 212.05 328.05 211.45 327.75 211.2 326.95 210.45 326.75 210.25 326.35 210.5 325.8 210.9 325.6 211.05 325.2 211.15 324.65 210.8 324.15 210.45 323.95 210.35 323.75 210.2 323 209.45
L 321.1 207.5
Q 320.9 207.55 320.65 207.6 320.1 207.65 320 207.8 319.75 208.2 320.45 209 320.85 209.45 322.05 210.5
L 323.95 212
Q 324.45 212.35 325 212.7 325.45 213.05 325.95 213.7 326.8 214.85 328.05 215.7 328.55 216.2 329.25 216.7 329.75 217.1 329.95 217.8
L 330.9 220.5
Q 331.1 221.15 331.8 222.4 332.4 223.5 332.55 224.25 332.8 225.3 332.8 225.8 332.75 226.3 332.45 227.05 332.25 227.55 332.1 228.45 331.85 229.25 331.2 229.8 330.1 230.65 329.6 231.05 328.8 231.7 328.45 232.25 327.5 233.8 327.5 234.45 327.5 234.6 328.15 234.9 329 235.25 329.3 235.55 329.6 235.75 330.15 236.6 330.5 237.15 331 237.35 331.5 237.5 332.15 237.85 332.8 238 333.55 237.55 334.4 237 334.65 236.6 334.9 236.2 334.9 235.45 334.8 234.65 334.8 234.3 334.75 233.85 335.05 233.45 335.55 232.75 335.8 232.55 336.35 232.15 337.2 232.15
L 340.6 232.15
Q 341.85 232.15 345 232.35 348.75 232.65 349.45 232.9 349.5 232.95 349.8 232.85 349.85 232.8 352.05 234.3 354.5 236 355.55 236.95 356.05 237.45 356.7 238.45 357.05 238.95 358.35 240.75 359.45 242.5 359.45 243.9 359.45 250.55 359.05 251.75 358.65 253.05 358.25 254.1 358.05 254.95 357.55 256.85 357.15 259.15 356.35 260.15 355.9 260.65 355.05 261.4 354.35 262 354.2 262.2 353.95 262.7 353.8 263 353.5 263.5 353.15 263.75 352.8 264.05 352.75 264.1 352.35 264.25 351.65 264.55 350.65 264.9 350.4 265.05 350.1 265.2 349.95 265.65 349.9 266 349.6 266.45 349.45 266.75 349.9 266.85 350.2 267 350.95 267.15 351.4 267.35 351.15 267.7 350.55 268.5 348.8 269.4 348.6 270 347.55 270.15
L 346.55 270.25
Q 346.25 270.2 346.1 269.7 345.7 268.4 344.85 268.55 344.45 268.65 344.25 268.85 343.95 269.3 343.6 269.65 343.15 270.2 343.15 270.75 343.2 271.3 343.5 271.35 344.55 271.65 344.55 272.7 344.55 273.6 344.4 274.6 344.3 275.05 344.15 275.25 343.7 275.65 343.55 275.85 343.15 276.45 342.5 277.1 341.85 277.75 341.65 277.8
L 341.4 277.8
Q 340.95 277.7 339.7 277.55 339.65 277.55 338.6 277.3 338.15 277.25 338.05 277.35 337.85 277.55 338.05 278.45 338.2 279.35 338.45 279.4 338.7 279.45 339.55 279.7 340 279.8 340.55 279.95 340.85 280 341.4 280.2 341.55 280.25 341.7 280.3 342.3 280.55 343.5 280.85 344.35 281.15 344.4 281.55 344.45 281.95 344.3 282.6 344.1 283.05 344.25 283.05 344.65 283.15 345.95 282.85 346.15 282.8 345.9 282.6 345.7 282.5 348 282.4 350.35 282.35 351.75 281.9
L 352.95 281.55
Q 353.7 281.7 353.8 282.6 353.85 282.8 353.7 282.85 353.45 282.9 353.2 283.25 352.3 284.45 352.45 285.15 352.45 285.2 352.85 286.3 353.1 287.2 353.15 287.7 353.2 288.55 353.15 289.95 353.4 289.95 351.05 290.8 349.15 291.35 348.25 291.65 347.4 291.85 346.95 291.95 346.2 292.15 345.75 292.6 344.65 293.9 344.65 294.65 344.65 295.1 345.05 296.35 345.05 296.55 344.3 296.6 343.45 296.7 342.7 296.45 341.7 296.05 341.3 295.9 340.6 295.75 340.4 296 340.1 296.45 339.95 296.65 339.7 297 339.35 297.3 339 297.55 336.4 298.35 335.5 298.6 335.15 298.7 334.6 298.95 334.1 299.3 333.85 299.4 333.1 299.6 332.65 299.75 332.15 300.45 331.55 301.55 331.4 301.8 331.15 302.1 330.9 302.15 330.7 302.2 330.15 301.9 329.3 301.5 328.75 301.3 328.3 301.15 327.55 301.15 327 301.1 326.25 300.7 325.3 300 324.9 299.8 324.4 299.5 323.65 299.45 320.65 299.3 320.1 299.4
L 317.35 299.9
Q 314.15 300.25 313.55 300.7 313.35 300.85 312.65 300.95 311.95 301.1 311.45 301.55 310.7 302.2 310.45 302.35 310.15 302.45 309.85 302.2 309.3 301.8 309.05 301.65 308.6 301.25 308.8 300.95 309 300.65 309.4 300.3 309.8 299.9 309.85 299.85 310.05 299.55 309.75 299.3 309.4 299.05 308.85 299.05 306.45 299 306.3 299 306.15 299.05 305.9 299.55 305.6 300.05 305.6 300.1 304.05 300.6 303.6 300.4 303.05 300.2 301.9 299.95 300.4 299.65 299.8 299.85 298.95 300.05 298.8 300.15 298.45 300.3 298.2 300.6 298 300.8 296.7 301.75
L 296.75 302.15
Q 296.8 302.4 295.85 302.15 293.35 301.55 292.9 301.95 292.5 302.3 291.45 302.8 290.2 302.75 288.6 302.75 287.95 302.75 286.6 302.5 285.85 302.35 286.1 302.7 286.4 303.15 286.8 303.5 287.05 303.7 287.75 304.2 288.1 304.55 288.6 304.9 288.85 305.15 288.6 305.55 288.1 306.4 288.05 306.45 287.6 306.8 286.55 306.6 285.8 306.4 284.7 305.85 283.8 305.35 283.1 305.35 282.45 305.35 281.65 305.25 280.95 305.15 280.55 305.15 279.25 305.15 279.25 306 279.25 306.55 278.8 306.9 278.3 307.3 277.85 306.85 277.75 306.75 276.95 305.5 276.3 304.55 275.3 303.85 272.4 301.95 270.45 302.15 268.5 302.4 267.65 302.85 267.35 303 264.65 303.5
L 263.8 303.9
Q 262.85 304.35 262.35 304.75 261.75 305.3 261.1 305.55 260.4 305.85 260.25 305.55 260.05 305.2 259.85 305.05 259.55 304.95 259.45 305.4 259.4 305.75 259.3 306.35 259.25 306.9 258.85 307.3 258.7 307.45 258.15 307.75 257.85 307.9 258 308.35 258.2 309.25 258.25 309.5 258.35 310.1 258.05 310.45 257.6 310.95 257.2 311.35 257.85 311.7 258 312 258.2 312.45 258.2 312.65 258.2 312.95 257.95 313.25 257.55 313.7 256.9 314.05 256.95 314.05 255.8 315.55 255.65 315.8 255.55 316.75 255.45 317.6 255.3 317.7 255.1 317.85 254.45 317.65 253.75 317.5 253.5 317.5 252.95 317.7 252.7 317.75 252.25 317.85 252 317.3 251.75 316.8 251.65 316.2 251.5 315.75 251.4 315.65 251.3 315.45 251 315.25
L 250.75 315.1
Q 250.8 315.15 250.15 315.25 249.5 315.35 249.25 315.35 248.8 315.4 248.55 315.4 248 315.4 247.95 315.15 247.9 315 247.5 314.95 247.1 314.9 246.95 314.7 246.8 314.45 246.65 313.95 246.55 313.35 246.45 313.25 246.3 313.1 245.85 312.9 245.4 312.75 245.4 312.8 245.4 312.85 245.25 313.15 245.15 313.65 245.2 314.05 245.3 314.6 245.05 314.8 244.75 315 244.35 314.5 243.85 313.8 243.1 313.4 242.9 313.35 242.4 313.25 241.8 313.15 241.55 313.2 238.95 314.2 238.15 314.2 237.8 314.2 237.5 314.05 237.25 313.9 236.9 313.85 236.1 313.75 235.55 313.95 235.1 314 234.85 314.15 234.35 314.35 234.15 315 233.85 315.95 233.7 317 233.95 317.6 232.85 317.65 232.15 317.65 231.9 317.65 231.7 317.65 231.1 318.1 230.65 318.5 230.15 318.95 229.8 319.15 229.5 318.75 228.95 317.95 228.75 317.85 228.25 317.55 228.2 318.5 228.05 320.15 228 320.25 227.9 320.9 227.7 321.05 227.6 321.1 226.95 321.2
M 327.9 284.75
L 328.45 283.75
Q 328.5 283.75 328.9 283.4 329.15 283.2 329.2 282.65 329.3 280.9 329.55 280.45 329.7 280.15 330 280 330.25 279.8 330.3 279.65 330.3 279.6 330.4 278.95 330.45 278.45 330.7 278.3 331.1 278 331.65 277.8 332.4 277.8 332.4 277.3 332.4 276.3 331.7 275.75 331.55 275.6 331.15 275.2 330.9 274.95 330.55 274.85 329.65 274.65 328.85 275 328.8 275.05 328.35 275.45 328.1 275.7 327.65 275.55 326.55 275.25 325.95 274.15 325.75 273.75 325.35 273.35
L 325 273.05 322.9 273
Q 322.9 273.6 321.9 273.9 321 274.15 319.45 275.05 319.15 275.25 318.1 275.25 317.05 275.2 316.9 275.2 316.65 275.2 316.65 275.65 316.6 275.9 316.65 276.7
L 316.6 278.6 316.65 279.15
Q 316.75 279.75 316.9 280.05 317.25 280.55 318.5 281.1 318.85 281.25 319.45 281.45 319.9 281.55 320 281.85 320.15 282.35 320 283.45 320 283.75 320.05 284.1 320.15 284.5 320.25 284.1 320.55 283.25 320.85 282.95 320.95 282.85 321.15 282.6 321.35 282.5 321.7 282.85 322.2 283.2 322.65 284 322.8 284.15 322.95 284.55 323.15 284.85 323.4 285.05 323.85 285.3 323.95 285.35 324.25 285.4 324.5 285 324.9 284.35 325.45 284.15 325.95 283.95 326.25 284.35 326.35 284.5 326.5 284.95 326.6 285.3 326.8 285.4 327.2 285.5 327.6 285.3 327.8 285.15 327.9 284.75 Z"/>

<path id="Layer0_0_2_STROKES" stroke="#000000" stroke-width="1" stroke-linejoin="round" stroke-linecap="round" fill="#FFFFFF" d="
M 148.55 278.1
L 147.55 278.9
Q 147.35 278.6 147.1 278.4 146.65 278 146.5 278.35 146.25 278.95 145.75 279.5
L 145.2 278.3
Q 145 277.75 144.7 277.3 144.2 276.35 144.05 276.75 143.75 277.55 142.65 278.1 141.75 278.55 141.05 278.35 140.45 278.15 140.25 278.1 139.95 278 139.75 278.15 139.45 278.4 138.35 279.2 137.6 280.1 137.1 279.45 136.8 279.05 136.8 278.6 136.85 278.1 137.4 277.9 138.2 277.6 139.5 276.75 140.2 276.45 142.15 275.2
L 136.85 277.1
Q 137.65 276.5 138.55 275.85 140.45 274.45 141.3 274 141.95 273.65 142.65 273.15 143.05 272.85 143.35 272.75 143.75 272.65 143.85 272.2 143.95 271.8 143.6 271.65
L 142.55 270.85 141.2 271.95
Q 140.7 272.4 139.3 272.4 138.9 272.4 138.5 272.65 137.9 272.95 137.65 273.05 135.15 274.3 134.45 274.6 133.8 274.95 133.45 275.1 132.85 275.35 132.35 275.4 130.9 275.5 131.2 274.65 131.4 274.1 132.35 273.15
L 133.65 271.9 135.3 270.95
Q 137.95 269.95 138.05 269.7 137.9 268.7 138.6 268.3
L 142.05 266.5
Q 141.25 266.65 140.3 266.85 138.4 267.25 137.8 267.55 137.35 267.8 136.55 268.05 135.8 268.35 135.4 268.55 134.6 269 132.75 270.15 132.05 270.5 131.35 270.55 130.55 270.6 130.3 270.1 130.1 269.7 130 269.3 129.9 268.55 129.85 268.45 129.7 267.9 129.15 267.6 128.55 267.35 128.4 267.65 128.3 267.85 128.15 268.25 128 268.55 127.75 268.75 126.9 269.35 126.7 268.6 126.6 268.15 126.2 267.5
L 125.8 266.9 125.65 265.75 127.35 264.45
Q 128.1 263.85 128.45 263.55 129.1 263.05 129.75 262.75
L 132.15 261.7
Q 134.2 261.65 134.7 261.25 134.9 261.1 135.05 260.4 135.15 259.8 135.55 259.65 136.75 259.3 137.15 259 137.45 258.75 137.65 258.35 137.85 257.85 137.65 257.8 137.5 257.75 136.85 257.9 135.8 258.1 135.1 258.2 133.55 258.4 131.85 258.8 130.1 259.2 130 259.2
L 127.75 259.2
Q 127.45 259.1 127.25 259.1 126.9 259.15 126.2 259.45 125.7 259.65 125.3 260.15 125.15 260.35 124.9 260 124.4 259.3 124.4 258.3 124.3 258 124.25 257.85 124.15 257.55 124.4 257.25
L 124.95 256.55
Q 125.25 256.3 125.5 256.55 126.3 257.35 126.65 256.65
L 127.1 255.4
Q 128.9 254.45 129.4 254.1 129.9 253.65 130.1 253.5 130.4 253.3 130.4 253.9 130.4 254.4 130.2 254.8 130.15 255.05 130.3 255.1 130.8 255.3 130.9 255.3 131.25 255.35 131.55 254.85 132.25 253.7 132.45 253.55 132.75 253.35 133.1 253.5 133.4 253.7 133.55 254.2 133.65 254.55 133.65 255 133.7 255.3 134.1 255.35 135.2 255.5 135.9 255.3 136.6 255.1 137.8 255.1 138 254.55 137.4 254.15 136.7 253.7 136.7 252.7 136.8 252.05 136.85 251.8 136.9 251.3 136.55 251.05 136.2 250.8 135.5 250.65
L 134.9 250.55
Q 134.75 250.35 134.7 250.15 134.6 249.7 135.2 249.65 136 249.55 136.2 249.5 136.5 249.45 137.05 249.1
L 138.7 248.2
Q 139.55 247.9 139.65 247 139.8 246.2 139.8 245.9 139.85 245.4 139.7 245.15 139.5 244.8 139 244.6 138.5 244.35 138.1 244.55 137.55 244.85 136.6 245 135.45 245.3 135.8 244.8 136.3 244.1 137.2 243.5 138.35 242.8 139.15 242.25 140.55 241.2 140.95 240.4 141.95 238.3 142.2 238.65 142.35 238.85 142.5 239.5 142.65 240 142.9 239.55 143.4 238.6 143.55 237.85 143.65 237.35 144.35 236.4 144.5 236.2 144.7 235.4 144.9 234.65 145 234.55 145.4 234.25 145.75 233.7 145.9 233.5 145.25 233.5
L 144.55 233.5
Q 143.8 233.7 144.15 232.85
L 146.95 227.65
Q 147.25 227.35 147.6 227.1 148.25 226.65 148.35 226.85 148.5 227.2 148.85 227.4 149.3 227.65 149.65 227.45
L 150.85 226.8 152.45 226.3 154.05 227.05
Q 154.25 225.9 154.25 225.1 154.25 224.7 153.8 224.65 153.3 224.55 153.3 224.05
L 153.3 222.55 149.45 223.45
Q 144.9 224.05 144.3 224.2 143.5 224.4 142.95 223.85 142.55 223.3 142.35 223.1 142.05 222.75 141.75 223.05 141.5 223.3 141.2 223.7 140.9 224 140.25 224 139.55 224 139.15 223.75 138.8 223.55 138.8 223.3
L 139.5 221.75
Q 140.15 221.1 140.4 220.55 140.6 220.1 140.65 219.5 140.65 218.9 140.45 218.85 139.95 218.75 139.35 220 138.9 220.9 138.2 221.65 137.3 221.9 136.9 221.7 135.85 221.2 135.7 221.05 135.5 220.9 135.9 220.35 136.3 219.85 136.55 219.7 136.85 219.5 137.2 218.7 137.6 217.8 137.1 217.55 135.75 216.9 135.35 217.65
L 134.85 218.5
Q 133.55 218.95 132.85 218.75
L 131.1 218.15
Q 130.6 217.9 130.25 217.65 129.5 217.2 130.05 217.15 130.25 217.15 131.05 217.2 131.5 217.25 131.95 217.05 132.7 216.75 132.9 216.6 133.25 216.35 133.05 215.9 132.9 215.55 132.1 215.2 131.2 214.8 131 214.6 130.45 214.15 130.25 213.95 130 213.65 130.25 213.4 130.5 213.2 131 213.05 131.2 213 131.4 212.95
L 132.75 213.75
Q 134.65 213.7 133.8 213.2 132.45 212.4 132.3 211.95 132.2 211.65 132.75 211.65 133 211.65 133.3 211.7
L 136.2 211.45
Q 135.35 210.55 135.3 209.55 135.2 207.7 135.25 207.45 135.3 207.1 135.7 206.75
L 136.05 206.5 139.4 206.25
Q 140.2 206.15 141.2 206.2 141.55 206.15 142.3 206.1 142.8 206 142.4 205.65 141.5 205.15 141.3 204.75 140.9 204 141.4 203.8 142.4 203.4 142.2 202.8 142.05 202.35 141.45 202.2 140.9 202.05 140.25 202.2 139.9 202.3 138.95 202.25 138.2 202.25 137.9 202.45 137.65 202.65 137.35 203.1 137 203.45 136.45 203.45 135.9 203.45 135.25 203.3
L 134.75 203.1
Q 133.65 202.35 133.05 201.65 132.85 201.4 132.65 200.7 132.5 200.25 132 200.2 130.5 200.2 130 200.15 129.4 200.1 129.1 199.9 128.7 199.65 129.5 199.3 130.7 198.8 131.9 198.65
L 133.7 198.25
Q 134.2 198.25 134.5 199.45
L 134.3 200.05
Q 134.15 200.65 134.55 200.7 134.65 200.7 135.15 200.8 135.3 200.85 135.7 200.75 136.95 200.45 137 200.1 137.05 199.9 136 198.45
L 134.95 196.8
Q 134.55 196.35 134.4 196.15 134.15 195.75 134.35 195.45 134.55 195.15 134.65 194.65
L 134.75 194.2 134.65 191.95
Q 134.65 191.75 134.55 191.6 134.35 191.3 133.9 191.65 133.35 192.1 132.8 192.75 132.25 193.45 132.25 193.75
L 132.25 195.25
Q 132.25 195.8 132.25 195.9 132.15 196.3 131.75 196.1 131.4 195.9 131.2 195.4
L 131.05 194.9
Q 131.7 193.15 131.95 192.25
L 132.55 189.5 133.5 189.5
Q 134.5 189.55 134.7 189.75
L 136 190.85
Q 135.9 190.4 136.2 190.15 136.3 190.05 136.7 189.95 136.95 189.85 136.95 189.7 136.95 189.55 136.65 189.3 136.35 189.05 136.3 188.85 136.15 188.45 136.1 188.3 136.05 188.05 136.5 187.95 137.25 187.8 138.5 188
L 140.55 188.4 144.05 188.65 145.8 188.6
Q 145.9 188.6 146.35 188.55 146.55 188.5 146.95 188.65 147.85 189 147.9 189 148.35 189.25 148.35 189.65 148.35 189.8 148.2 190.7 148.1 191.35 148.25 191.6 148.5 192 149.4 192.9
L 149.85 193.85
Q 150.35 193.75 150.45 193.05 150.5 192.6 150.85 191.95
L 151.2 191.4 151.9 189.65
Q 152 189.5 152.7 189.45 153.05 189.4 153.4 189.4
L 154.85 190.15 155.85 190.3 157.95 190.3
Q 159.45 189.95 159.8 190.75 159.85 190.9 160 191.7 160.05 192.15 160.55 192.2 161.4 192.3 162.15 192.2 161.85 192.05 161.3 191.2
L 160.6 190 162.45 189.95
Q 162.35 188.9 162.05 188.45 161.85 188.15 161.1 188
L 160.4 187.9
Q 159.6 188.35 159.45 188 159.25 187.65 159.2 187.45 159.1 187.1 159.5 186.85
L 162.05 185.35 163.2 184.2 165.45 183.55
Q 165.95 183.45 166.45 183.4 166.75 183.3 166.8 182.9
L 166.9 181.45
Q 168.1 180.45 168.45 180
L 169.5 178.85
Q 169.75 178.55 169.95 178.05 170.1 177.6 170.05 177.35 170 177.15 169.25 177.45 168.5 177.75 168.25 178.1 167.9 178.55 166.9 179.2 166.35 178.85 166.35 178.35 166.35 178 166 178.05 165.65 178.15 165.4 178.45 165.2 178.7 164.75 178.6 164.4 178.55 164.25 178.3 164.15 178.15 163.6 178.25
L 163.05 178.4
Q 162.1 178.75 161.35 178.7
L 159.5 178.3
Q 158.45 178.3 157.9 177.8 157.15 177.3 156.9 177 156.75 176.8 156.85 176.4
L 156.95 176
Q 158.15 174.85 158.3 174.6
L 159.3 173.65 162.9 173.95
Q 163.9 173.65 163.45 173.35 162.95 173.05 162.7 172.9 162.25 172.65 162.15 172.4 162.05 172.15 162.05 171.75
L 162.1 171.4 163.4 171.35
Q 164 171.25 164.6 170.65 165.2 170 165.25 170 165.6 169.95 165.7 169.75 165.75 169.55 165.05 169.55 163.3 169.55 163.25 168.85 163.2 168.55 163.7 168.25
L 164.2 168
Q 164.45 167.6 163.95 167.15 163.4 166.75 163.25 166.55 163 166.25 163.3 165.95 163.85 165.4 164.55 165 164.9 164.8 165.3 164.3 165.8 163.65 165.8 163.15 165.8 162.6 166.25 161.5 166.45 161.05 166.8 160.9 167.15 160.7 167.4 160.9 167.6 161.05 167.85 161.3 168.15 161.55 168.4 161.55 168.65 161.55 168.9 161.6 169.1 161.55 169.4 161.35 169.65 161.2 170.45 160.7 171.2 160.25 171.55 159.85 171.75 159.65 172.2 158.9 172.5 158.45 172.7 158.55 173.05 158.75 173.5 159.75 174 160.45 174.05 160.8 174.5 161.65 174.7 160.95
L 174.95 160
Q 175.35 159.6 175.55 159.25
L 176.35 157.9
Q 176.55 157.6 176.9 157.55
L 178.05 157.15
Q 178.25 157.1 178.6 156.75 178.9 156.55 179.15 156.9 179.35 157.2 179.3 157.6 179.25 158.1 179.45 158.7 179.9 160.05 180.35 160.6 180.6 160.9 180.65 161.6 180.7 162.35 180.25 162.7 179.8 163 179.5 163.45
L 179.3 163.8 179.65 163.8
Q 180 163.85 180.05 164.2 180.25 165.25 179.5 165.7 178.85 166.1 178.25 167.1 178.15 167.3 178.6 167.05 179.05 166.8 179.25 166.6 179.55 166.3 180.9 165.45
L 181.95 164.65
Q 182.15 164.5 182.4 164.3 182.55 164.15 182.35 163.7 182 162.9 182.15 162.2 182.25 161.85 182.2 161.4
L 182.1 161 181.3 160.1 181.1 158.05
Q 181.1 156.4 182 156.2 182.1 156.2 183.2 155.75 183.75 155.55 184 155.85 184.45 156.35 185.7 156.7 185.95 156.85 185.95 156.65 185.95 156.5 185.55 156.1 185.1 155.7 184.95 155.55 184.7 155.3 184.6 154.85
L 184.45 153.55 186.2 154.05
Q 187.4 154.8 187.65 155.2 188.05 155.9 188.7 156.3 189.4 156.75 190.4 157.25
L 192.05 157.75
Q 192.4 157.9 192.35 158.25 192.3 158.65 191.9 158.9 191.7 159.05 190.3 159.55 188.95 160 188.65 160.3 188 160.9 186.75 162.6 186.35 163.15 186.3 163.3 186.15 163.6 186.3 163.9 186.55 164.4 186.65 164.45 186.85 164.7 187.15 164.55 187.6 164.35 188.15 164.45
L 188.25 164.7
Q 188.45 164.9 188.75 164.8 188.8 164.8 189.5 164.65 189.9 164.55 190.1 164.4 190.15 164.35 190.6 164.15 190.85 164 190.95 163.75
L 192.1 160.05 192.4 160.25
Q 192.75 160.45 193.15 160.5
L 195.3 160.65 199.2 158.9 199.55 158.6
Q 200.05 158.3 200.6 158.1 202.35 157.5 203 157.8
L 205.1 158.75
Q 205.35 158.9 205.65 159.05 205.85 159.15 206.3 159 207 158.75 208 158.8
L 209.15 159.95
Q 209.4 160.35 209.45 161.6
L 209.45 163 209.2 163.35
Q 209.05 163.7 209.65 163.75 210 163.8 210.6 163.55 210.8 163.45 210.8 164
L 210.75 165.55 210.95 167 211.6 167.4
Q 212.35 167.95 212.9 168.75 213.1 169.05 213.8 169.95 214.1 170.3 214.2 170.75 214.5 171.95 215.5 172.35 215.85 172.5 216.1 173.5 216.35 174.45 216.1 174.65 215.95 174.75 213.85 175.7 212.4 176.35 212.4 177.2 212.4 177.35 212.35 178.05 212.3 178.45 212.4 178.65 212.4666015625 178.75 212.475 178.775 212.7677734375 178.4849609375 213.4 177.95
L 214.5 177.4
Q 215.65 176.85 216 176.9 216.1 176.9 217.1 176.95 217.75 176.95 218 177.15 218.2 177.3 218.65 177.65 219.05 178 219.2 178.5 219.3 178.8 220.05 180.4 220.7 181.95 220.85 182.55 221.15 183.9 221 184.55 220.95 184.8 220.7 185.1 220.6 185.25 220.7 185.6 220.95 186.3 220.65 187.05 220.2 188.3 219.8 187.75 219.6 187.3 219.2 186.55 218.95 186.1 218.9 185.65
L 218.85 185.3
Q 219.35 184.7 219.3 183.9
L 219 182.15
Q 218.45 181.3 217.85 180.95 217.35 180.6 217.15 180.5 216.9 180.35 216.7 180.4 215.95 180.65 216.2 181.6 216.45 182.6 216.95 183.85
L 216.95 187.05 218.25 187.05
Q 218.45 187.05 218.65 187.4 218.85 187.75 218.85 188.2 218.85 188.95 218.85 189.1 218.75 189.55 218.35 189.9
L 217.05 190.8
Q 215.95 191.2 215.2 190.9
L 213.6 190.35 212.8 191.4 212.7 192.75
Q 212.55 195.1 211.65 196.3 210.85 197.35 210.65 197.55 210.25 197.95 209.75 198 209.35 198.05 209.3 198 209.05 197.65 208.25 197.2
L 205.85 195.65 205.7 195.9
Q 205.65 196.2 205.95 196.45 206.7 197.05 207.3 198.05 207.8 198.9 207.85 199.1 207.9 199.35 207.6 199.4 207.2 199.55 206.9 199.6 206.35 199.65 205.7 199.35
L 203.9 198.45
Q 203.7 198.35 203.5 198.4 203.1 198.55 203.2 199.35
L 203.4 201.65
Q 203.4 201.8 203.35 202.15 203.4 202.4 203.75 202.6 203.8 202.6 204.55 202.95 205 203.15 205.2 203.4 205.55 203.85 205.7 205
L 205.65 206.8
Q 205.65 208.75 205.85 209.55 206 210.2 206.05 210.6 206.1 210.7 206.8 211.15 207.35 211.5 207.8 211.7 208.1 211.85 208.35 212.35 208.75 213.1 208.8 213.35 208.9 213.75 208.75 214.25 208.45 215.1 208.05 215.45 208 215.5 207.5 215.7 207.3 215.8 207.4 216.1
L 207.9 217.6
Q 207.9 219.3 207.15 219.5 206.1 219.55 205.75 219.6 205.1 219.75 206.1 220.45 206.75 220.9 207.65 221.5 208.05 221.75 208.25 222 208.55 222.4 208.6 222.5 208.7 222.7 208.55 223.05 208.45 223.3 208.25 223.75 208.15 224.15 208.3 224.4 208.55 224.8 209.35 227 209.7 227.8 209.7 228.4 209.75 228.75 209.6 229.65 209.35 231.2 210 231.75 210.35 232.05 210.2 232.9 210.1 233.65 209.7 234.3 208.1 237 207.95 237.85 207.9 238.35 207.85 239.2 207.75 239.95 207.3 240.4 206.55 241.15 206.2 241.95
L 206.4 243.4
Q 206.6 245 206.4 245.7 206.25 246.35 205.6 247.05 204.85 247.85 204.7 248.2
L 203.75 250.25
Q 203.25 251.35 202.5 251.5 201.85 251.55 201.7 251.65 201.4 251.8 201.75 252.4 202.35 253.45 203.25 254.35 203.5 254.6 203.85 255.25 204.2 255.85 204.2 256.05 204.2 256.3 203.9 256.55 203.55 256.85 203.15 256.85
L 201.1 256.85
Q 199.3 257.1 198.2 256.5 197.5 256.15 196.8 256.15
L 196.25 256.25
Q 195.15 256.55 195.15 256.15 195.15 255.05 194.55 255.8 193.75 256.8 193.95 257.35 194.15 257.95 192.8 256.05 192.4 255.35 192.2 255.15 191.95 254.9 191.7 255.3 191.3 255.95 191.45 257.25 191.4 257.8 190.75 258.3 190.15 258.8 189.9 258.55 189.65 258.15 189.45 257.95 189.15 257.6 188.7 257.85 188.45 258 188.45 258.45 188.45 258.8 187.6 258.75
L 184.7 258.55 183.15 258.6
Q 180.85 259.9 180 260.05 179.2 260.1 178.95 260.15 178.55 260.2 178.6 260.55 178.65 260.9 179.1 261.2 179.35 261.3 179.75 261.5 180 261.65 180.05 262.1 180.15 262.55 179.85 262.85 179.45 263.3 177.65 263.95
L 173.85 265.4 172.7 266.55
Q 171.7 267.6 171.6 267.7 171.3 268.2 170.75 268.5 169.9 269 168.9 269.1 167.35 269.25 167.35 268.95 167.35 268.45 167.85 268 168.8 267.15 168.05 267.1
L 166.25 267.25 165.1 267.75 165.65 268.5
Q 166.15 269.35 166.15 269.95 166.15 270.8 166.1 270.95 165.95 271.3 165.2 271.55 165.15 271.55 163.55 272.25 162.7 272.65 162.5 272.5 162.25 272.35 162.15 272.5 162.1 272.55 161.85 273.25 161.35 274.6 160.35 274.15 159.3 273.4 158.85 273.35 158.55 273.3 157.75 273.6
L 157 273.9 158.5 274.55 158.4 275.3
Q 158.45 275.65 157.95 275.8 157.45 275.95 157 275.7
L 155.45 274.6
Q 155.3 274.55 155.15 274.6 154.85 274.7 154.85 275.35 154.85 276.1 154.1 276.55 153.35 277 152.8 276.65 152.35 276.35 152.1 276.45 151.75 276.6 151.35 276.65 150.9 276.75 150.65 276.6 150.4 276.45 150.25 276.4 149.75 276.25 149.5 276.95 149.3 277.5 148.55 278.1 Z"/>
</defs>

<g transform="matrix( 1, 0, 0, 1, 0,0) " id="103" name="United Kingdom">
<use xlink:href="#Layer0_0_1_STROKES"/>

<use xlink:href="#Layer0_0_2_STROKES"/>
</g>
</svg>
