<?xml version="1.0" encoding="UTF-8" ?>

<svg   id = 'kadist' onload="showRootChildrenCount(this)" viewBox="-6835 -4532 9192 12000" baseprofile="tiny" fill="#7c7c7c" stroke="#ffffff" stroke-linecap="round" stroke-linejoin="round" stroke-width="0" version="1.2" xmlns="http://www.w3.org/2000/svg">

 <g id="msk_26_0_Layer0_0_FILL" >

 <path id="73" next_level = '14878_9_12' fill="url(#solids73)" title="Bangalore" d="M 347.1716,1043.5094 C 347.0307,1043.3685 346.91543,1042.2507 346.91543,1041.0253 C 346.91543,1038.4651 346.21055,1037.7045 344.45598,1038.3716 C 343.39568,1038.7747 342.30448,1038.0784 342.30448,1036.9986 C 342.30448,1036.6884 341.69929,1035.5359 340.95962,1034.4376 C 340.21995,1033.3392 339.62179,1032.2653 339.63037,1032.0512 C 339.63896,1031.837 340.15769,1031.0632 340.78311,1030.3315 C 341.40853,1029.5998 341.92023,1028.6908 341.92023,1028.3116 C 341.92023,1027.9324 342.35045,1027.2481 342.87628,1026.7909 C 343.54926,1026.2057 343.90657,1025.3999 344.08309,1024.0692 C 344.36458,1021.9472 344.03835,1022.0087 348.26029,1023.2817 C 351.08452,1024.1333 351.52637,1024.406 351.52637,1025.2974 C 351.52637,1025.6817 351.78574,1026.2114 352.10274,1026.4745 C 352.41975,1026.7376 352.67911,1027.3537 352.67911,1027.8437 C 352.67911,1028.3337 352.86603,1028.8501 353.09449,1028.9913 C 353.32294,1029.1325 353.41957,1029.6182 353.30921,1030.0707 C 353.19884,1030.5231 353.36484,1031.2387 353.6781,1031.6608 C 354.09236,1032.219 354.18284,1032.9523 354.00995,1034.3505 C 353.87922,1035.4077 353.93684,1036.705 354.13802,1037.2334 C 354.38105,1037.8717 354.34839,1038.9676 354.04067,1040.4995 L 353.57758,1042.8049 L 351.46345,1042.8531 C 350.30069,1042.8796 348.98599,1043.0957 348.54189,1043.3334 C 347.59873,1043.8382 347.51157,1043.8494 347.17159,1043.5094 L 347.1716,1043.5094 z" />

 </g>

 <circle cx="347.1" cy="158.8" id="0" >
 </circle >
<circle cx="670.2" cy="431.2" id="1" >
 </circle >
<circle cx="670.6" cy="431" id="2" >
 </circle >
</svg>
