

<svg xmlns="http://www.w3.org/2000/svg" version="1.1" xmlns:xlink="http://www.w3.org/1999/xlink" preserveAspectRatio="none" x="0px" y="0px" width="500px" height="356px" id = "fotos" viewBox="-4130 -4230 7700 7556">
<defs>
<path id="Layer9_0_1_STROKES" stroke="#000000" stroke-width="1" stroke-linejoin="round" stroke-linecap="round"  d="
M 238.4 257.85
L 235.55 255.75
Q 235.1 255.7 234.6 255.75 233.6 255.9 233.4 256.35 233.05 257.1 232.3 258.05 230.35 257.15 229.65 256.45 229.2 256 228.75 255.3
L 228.35 254.7
Q 226.55 254.45 225.5 254.45
L 222.4 254.7 220.6 255.9
Q 218.6 257.35 217.85 258.3 215.4 261.45 214.85 262.35 214.65 262.65 213.65 261.25 212.35 259.4 211 259 208.55 258.3 203.35 258.3 202.6 258.3 202.95 257.4 203.45 256.1 203.15 255.55 202.65 254.5 202.25 254.1 201.65 253.5 200.6 253.15 199.2 252.3 198.35 252.4 197.55 252.5 197.35 252.65 196.95 252.9 196.65 253.95 196.2 255.45 195.7 257.9 195.6 258.4 195.85 259.1 195.9 259.6 194.9 259.6 194.5 259.6 193.35 259.25 193.1 259.15 193.1 260.15 193.1 261.85 192.95 263.4
L 192.85 265.7 191.4 266.05
Q 191.15 266.3 190.2 268.1 189.75 268.95 189.2 269.15 189 269.25 188.05 269.25 187.15 269.05 184.7 269.15 183.55 269.2 182.7 269.1 182.35 269.05 181.75 269.25 180.95 269.5 180.75 269.75 180.55 269.95 180.4 270.6 180.25 271.2 179.95 271.55 179.7 271.8 179 272.15 178.6 272.4 177.65 273.1 176.75 273.7 175.85 273.9 173.85 274.3 173.45 275.6 173.2 276.45 172.75 277.75 172.5 278.8 172.15 279.15 171.9 279.4 170.85 279.9 170.25 280.15 169.2 280.1 168.15 280.05 167.25 280.5 165.85 281 165.45 281.1 164.85 281.35 164.85 282.3 164.85 283.1 165 283.95 165.05 284.5 164.6 285.1 164.25 285.6 164.05 285.95 163.9 286.1 163.15 286.6 162.35 287.15 161.4 287.2 160.75 287.3 158.4 287.2 156.35 287.15 155.55 286.95 154.9 286.8 153.85 286.3 152.95 285.85 151.85 284 150.85 282.4 150.3 280.8 149.95 279.75 149.8 278.35 149.6 276.75 149.45 276.2 148.55 272.95 149.3 272.55 149.4 272.5 150.75 272.1 151.7 271.8 151.95 271.3 152.45 270.7 152.5 270.4 152.55 269.95 151.8 268.8 151.05 267.7 150.45 268.05 150.05 268.25 149.3 269.15 148.95 269.45 147 270.35 145.3 271.15 145 271.65 144.6 272.4 144.1 272.75 143.5 273.2 142.35 273.35 141.7 273.45 140.7 273.4 140.15 273.35 139.75 273.7 138.45 274.75 138.45 276.35 138.45 276.45 138.55 277.9 138.6 278.8 138.45 279.3 138.1 280.45 136.9 280.15 136.05 279.95 135.6 277.75 135.3 276.3 134.4 273.7 133.8 272.45 133.6 272 133.25 271.3 133.65 270.85 134.25 270.3 134.45 270.05 134.8 269.7 135.1 269.05 135.95 267.25 135.8 266.45 135.8 266 135.7 265.8 135.55 265.4 134.95 264.85 134.6 264.55 133.15 263.55 132.05 262.75 131.95 262.45
L 131.25 260.55 129.35 261.25 125.3 259.95 126.15 255.55
Q 126.45 254.75 126.65 253.6 126.95 251.25 126.25 249.45 125.15 247.1 124.65 246.1 123.85 244.35 123.5 242 123.3 240.65 122.75 238.8 122.6 238.25 123.15 237.5 124.5 235.7 123.65 234.85 123.35 234.55 124.15 233.6
L 125.05 232.7
Q 123.7 230.95 122.55 229.6 121.85 228.8 120.6 227.65
L 119.55 226.7
Q 119.6 226.7 116.35 223.5
L 114.55 222.9
Q 114.6 222.9 114.35 223.25 114.1 223.7 114.1 224.45
L 114.1 226.3
Q 114.1 226.4 111.55 223.3 111.55 223.35 110.95 224.35 110.3 225.55 110.15 226.6 110 227.6 109.25 229.6 108.5 231.6 108.45 231.8 108.4 232.15 107.15 232.05 105.5 231.9 105.1 232 104.45 232.15 103.15 232.15
L 102.05 232.1
Q 102.95 235.15 102.95 235.2 102.95 235.25 99.6 234.85
L 100.8 236.9
Q 99.95 238.5 99.95 238.55 99.95 238.6 99.45 238.85 98.95 239.2 98.9 239.65 98.8 240.4 98.25 242.05 99.36875 244.1353515625 101.95 248.4 105.35 254 105.75 254.85 106.2 255.8 107.55 258.15 108.8 260.35 109.15 261.15 109.8 262.7 110.45 273.25 110.4 273.65 110.15 277.05 109.7 279.1 109.2 279.95 108.45 281.15 107.55 281.85 105.8 283.15 105.2 283.25 104.8 283.3 104.4 282.9
L 103.85 282.35
Q 103.35 282.05 103 281.85 102.35 281.55 102.05 281.7 101.75 281.85 100.8 283 100.3 283.6 99.85 284.15 99.7 284.15 99.7 286.35 99.7 286.75 99.9 287.5 100.15 288.35 100.2 288.95 100.3 289.75 100.55 289.9 100.75 289.95 101.5 289.9
L 102.8 289.9
Q 103.3 289.9 103.6 290.05 104.05 290.25 104.75 290.95 105.35 291.55 105.35 291.9
L 105.35 292.65
Q 105.45 293.05 105.75 293.75 105.95 294.3 105.85 294.65 105.6 295.3 104.6 293.9 103.35 292.2 103 291.85 102.8 291.65 102.5 291.95 102.35 292.1 102.25 292.25
L 102.75 293
Q 103.3 293.8 103.85 294.35 104.35 294.85 104.6 295.8 104.9 296.85 105 297 105.2 297.3 105.9 298.1 106.55 298.95 106.8 299.6 107.05 300.2 109.3 302.95 111.7 305.9 111.95 306.3 112.9 307.95 113.25 308.7 113.6 309.45 113.65 309.9 113.65 310 113.65 310.9 113.65 312.05 113.1 313.25 112.75 314 111.45 314.95 109.65 316.25 109.4 316.4 108.95 316.65 109.35 317.35 109.6 317.8 110.5 319.3 111.05 320.35 111.2 321.4 111.35 322.5 111.4 322.6 112.1 324.15 113.05 324.8 113.6 325.2 113.9 325.15 114.1 325.15 114 324.8 113.9 324.55 113.95 323.9 114 323.1 114 323 114 322.85 113.55 322.05 113.05 321.15 112.9 320.6 112.75 320 113.05 319.7 113.45 319.4 113.65 319.15 114.05 318.7 115.3 318.2 115.8 318 117.65 317.85 118.05 317.75 118.95 317.7 119.5 317.7 120.65 317.7 121.35 317.65 121.5 318 121.55 318.2 121.7 318.8 122.3 319.85 122.25 321.7 122.2 323.5 121.7 324.85 121.4 325.7 122 325.85 122.45 325.95 123.15 325.75
L 125.35 325
Q 126.45 324.65 127.55 324.5 127.65 324.45 127.75 325.5 127.8 326.55 127.75 326.5 130.25 326.85 130.85 326.65 131.2 326.55 131.9 326.6 132.25 326.65 132.5 326.65 132.45 326.75 132.2 327.55 131.95 328.5 132 328.85 132.15 329.55 133.4 330.35 134.05 330.75 132.45 331.45 131.8 331.75 131.75 332.15 131.7 332.6 132.1 332.55 132.55 332.5 134.55 332 134.85 331.95 136.15 333.95 136.45 334.4 137.05 335 137.7 335.65 138.05 336.15 138.75 337.15 139.85 336.95 142.3 336.95 143 336.75 145 336.2 145.5 336.75 145.75 337 146.25 337.75 146.65 338.35 146.95 338 147.1 337.8 148.2 336.95 149.3 336 150.15 335.1 151.2 333.95 153.95 331.8 156.6 329.75 157.85 329.05 159.55 328.1 162.25 328.1 163.9 328.1 165.3 328 166.2 327.95 166.55 327.5 166.75 326.9 166.85 326.65 167.1 326 168.3 326 168.5 326 171 326.4 171.6 326.5 172.25 326.8 173.05 327.1 173.95 327.3 175.15 327.55 175.8 327.35 176.1 327.2 176.55 326.75 177.85 325.45 179.1 325.25 179.9 325.1 180.8 325.3 182.1 325.6 183.3 325.65 187.5 325.8 187.75 325.7 188.2 325.5 189.55 323.5 190.2 322.25 190.7 321.6 191 321.2 191.6 321.2 191.95 321.2 192.85 321.25 193.6 321.25 194.15 320.7 194.75 320.2 194.85 319.45 194.85 318.3 195.05 317.95 195.15 317.8 195.95 317.5 196.95 317.15 197.3 316.85 199.9 315.4 200.2 315.2 200.4 315.1 202.05 315.4 203.05 315.6 205.5 316.1 207.95 316.55 216.15 318.15 217.8 318.35 220.55 318.85 222.25 319.15 222.2 318.6 221.9 317.85 221.9 317.55 221.95 316.75 222.25 315.8 222.35 315.5 223 315.45 223.35 315.4 224.45 315.35 225.423828125 315.265234375 227.9 315.55 228.35 314.35 227.6 313.25 226.7 311.9 225.2 311.4 223.7 310.9 222.5 310.3 221.9 310 221.8 309.45 221.7 308.9 222.1 308.65 223.25 307.55 223.9 307.2 224.45 306.85 224.75 306.7 225.25 306.45 225.95 306.4 227.3 306.3 227.35 306.25 227.85 306.1 227.45 305.3 226.55 303.5 225.6 302.75 224.45 301.3 223.35 300.95 222.55 300.55 222.15 300.35 221.5 300.05 220.3 300.05 219.55 300.05 217.55 299.65 215.85 299.35 214.4 299.5 209.5 300.1 208.15 299.7 207.4 299.5 206.9 299 206.35 298.4 206.65 297.85 207.25 296.8 208.35 295.45 209.3 294.15 210 293.25 210.8 292.2 211 291.9 211.45 291.1 211.5 290.3 211.5 289.2 211.5 288.85 211.55 288.25 212.05 287.9 212.85 287.2 213.3 286.75 214.2 285.95 215.1 285.65 217.15 284.95 218.4 284.95 219.5 284.95 220.95 284.8 221.15 284.8 220.35 282.9 219.35 280.55 219.15 279.7 218.7 277.65 218.2 276.2 217.55 274.15 218.25 273.9 218.65 273.75 222.45 273.25
L 225 272.5
Q 226.6 272.1 227.6 270.8 229.15 268.55 229.4 268.3 229.85 267.85 230.7 268.45 231.1 268.75 231.55 269.05 231.85 269.25 232.35 269.15 233.25 268.95 234.2 268.45
L 236.4 267.35
Q 236.9 267.15 237 267.05 237.25 266.8 237.5 266.05 237.65 265.6 237.3 264.95 237 264.4 237.45 263.7 238.25 262.35 239 262 239.3 261.85 238.05 260.75 238.1 260.1 238.2 259.8 238 259.4 237.9 259.05 237.65 258.35 238.4 257.85 Z"/>

<path id="Layer8_0_1_STROKES" stroke="#000000" stroke-width="1" stroke-linejoin="round" stroke-linecap="round"  d="
M 345.8 211.65
L 346.55 212.25
Q 347.35 212.9 347.5 213.45 347.8 214.4 347.75 214.8 347.7 215.55 346.9 216.1 345.7 216.85 345.15 217.2 344.2 217.8 343.7 218.35 343.2 219.3 343.05 219.6 342.75 220.1 341.8 219.95 340.5 219.65 340.15 219.65 339.7 219.7 339.85 220.4 340 220.95 340.1 221.3 340.2 221.55 340.15 222.4 340.1 223.9 340.1 224 340.25 224.55 341.2 224.8 341.7 224.9 342.8 224.95 344 225 346.1 225.45 347.6 225.75 349.6 226.4 351 226.8 353 227.1 355.7 227.45 360.4 228.95 365.1 230.45 365.95 231.15 366.5 231.65 367.9 232.75 369.15 233.75 369.65 234.5 370.4 235.65 371.8 238.9 371.7578125 238.95625 371.725 239 369.378125 242.1236328125 368.15 243.45 364.7 247.4 362.65 249.4 361.5 250.5 360 251.45 358.1 252.55 357.3 253.2 355.6 254.55 352.85 257.5 349.85 260.65 349.45 261.65 348.85 263.15 339.75 272.9 338.7 274 337.85 275.6 337.15 276.8 334.9 278.75 332.6 280.75 329.5 282.1 326.35 283.4 325.75 283.9 324.55 284.9 323.95 285.75 323.65 286.2 323.05 287.35 322.65 288.45 322.4 288.95 322 289.85 320.9 290.7 318.15 292.85 316.55 293.8 313.25 296.35 310.1 298.75 303.85 303.5 301.85 304.4 292.45 309.05 290.45 309.5 289.25 309.75 287.8 309.7 285.95 309.6 284.5 309.6 278.1 309.6 276.35 309.35 274.55 309.1 273.25 310.05 272.25 310.8 272 311.05 271.5 311.5 271.45 312.05 271.35 313 271.9 314.3 272.6 315.9 272.7 316.45 272.75 316.7 272.05 316.7 271.35 316.7 268.7 316.45 265.15 316.15 263.55 316.15 263 316.15 260.45 315.65 258.15 315.15 257.65 315.25 257.2 315.35 256.9 315.85 256.5 316.65 255.95 317.2 255.2 317.9 254.6 318.9 254.3 319.4 253.85 320.2 253.15 321.35 252.9 321.5 252.15 321.9 248.35 320.85 247.55 320.6 246.1 320.05 245.35 319.8 243.15 319.4 240.9 319 237.75 318.1 234 316.95 233.8 316.9 233.45 316.8 231.5 316.15 230.25 315.7 228.85 315.65 228.35234375 315.588671875 227.9 315.55 228.35 314.35 227.6 313.25 226.7 311.9 225.2 311.4 223.7 310.9 222.5 310.3 221.9 310 221.8 309.45 221.7 308.9 222.1 308.65 223.25 307.55 223.9 307.2 224.45 306.85 224.75 306.7 225.25 306.45 225.95 306.4 227.3 306.3 227.35 306.25 227.85 306.1 227.45 305.3 226.55 303.5 225.6 302.75 224.45 301.3 223.35 300.95 222.55 300.55 222.15 300.35 221.5 300.05 220.3 300.05 219.55 300.05 217.55 299.65 215.85 299.35 214.4 299.5 209.5 300.1 208.15 299.7 207.4 299.5 206.9 299 206.35 298.4 206.65 297.85 207.25 296.8 208.35 295.45 209.3 294.15 210 293.25 210.8 292.2 211 291.9 211.45 291.1 211.5 290.3 211.5 289.2 211.5 288.85 211.55 288.25 212.05 287.9 212.85 287.2 213.3 286.75 214.2 285.95 215.1 285.65 217.15 284.95 218.4 284.95 219.5 284.95 220.95 284.8 221.15 284.8 220.35 282.9 219.35 280.55 219.15 279.7 218.7 277.65 218.2 276.2 217.55 274.15 218.25 273.9 218.65 273.75 222.45 273.25
L 225 272.5
Q 226.6 272.1 227.6 270.8 229.15 268.55 229.4 268.3 229.85 267.85 230.7 268.45 231.1 268.75 231.55 269.05 231.85 269.25 232.35 269.15 233.25 268.95 234.2 268.45
L 236.4 267.35
Q 236.9 267.15 237 267.05 237.25 266.8 237.5 266.05 237.65 265.6 237.3 264.95 237 264.4 237.45 263.7 238.25 262.35 239 262 239.3 261.85 238.05 260.75 238.1 260.1 238.2 259.8 238 259.4 237.9 259.05 237.65 258.35 238.4 257.85 239.85 256.8 240.05 256.7 240.95 256.2 241.9 256.2 242.95 256.2 245.05 255.85 245.65 255.75 245.95 254.75 246.05 254.45 246.3 252.9 246.35 251.1 246.7 249.6 247 248.25 247.25 247.85 247.6 247.2 248.5 246.85 250.15 246.25 252.75 245.7 253.5 245.55 257.85 244.8 262 244.05 262.95 243.7 264.15 243.25 264.4 243.05 264.7 242.85 265.2 242 265.9 240.85 266.6 239.1 266.9 238.55 267.3 237 267.65 235.55 267.95 235.05 268.25 234.55 269.05 233.7 269.5 232.95 268.7 232.5 267.85 232 267.55 231 267.4 230.4 267.4 229.2 267.4 228.5 267.25 227.55
L 267.125 226.875 267.45 226.975
Q 267.7677734375 227.1458984375 268.4 227.5 269.75 228.25 270.4 228.4 271.4 228.65 271.75 228.65 272.4 228.6 272.95 228.1 273.3 227.75 274.25 227.15 275.05 226.6 275.35 226.2 275.75 225.75 277.8 225 279.55 224.35 280.25 224.25 281.7 224 283.4 224.6 284.05 224.85 285.15 225.1 286.05 225.4 286.85 226 287.5 226.5 289.8 228.3 292.1 229.85 293.85 229.85 295.6 229.85 297.25 229.3 298.2 228.95 299.7 228.25 300.45 227.95 301.15 227.75 301.5 227.6 301.55 227 301.6 226 301.65 225.95 301.8 225.55 302.65 225.45 304 225.3 305.25 224.95 305.75 224.8 307.25 223.85 307.55 223.7 307.85 223.5 308.1 223.3 308.15 222.6 308.25 221.5 308.9 220.3 308.9583984375 220.19765625 309 220.075 309.85 219.6 310.75 219.9 311.75 220.3 312.35 221 316.15 225.15 317.6 226.3 318.5 227 319.15 227.25 319.45 227.4 320.35 227.6 320.6 227.65 321.7 227.6 322.6 227.5 323.4 227.85 324.8 228.45 325.9 228.4 326.15 226.2 326.15 225.4 326.15 223.55 327.85 221.85 329.55 220.15 328.775 219.7 328 219.25 328.25 219 328.5 218.75 329.35 218.05 329.8 217.7 330.55 217.15 330.8 216.95 331.2 216.35 331.65 215.8 332.45 215.6 334.25 215.1 335.9 215.25 336.2 215.25 337.95 214.9 338.4 214.8 340.6 213.75 343 212.6 344.15 212.25
L 345.8 211.65 Z"/>

<path id="Layer7_0_1_STROKES" stroke="#000000" stroke-width="1" stroke-linejoin="round" stroke-linecap="round" fill="none" d="
M 309 220.075
Q 309.0853515625 219.80390625 309.05 219.45 309 218.8 309.1 218.3 309.45 217.1 309.55 216.55 309.75 215.6 309.45 215.55 308.65 215.45 308.55 215.45 308 215.3 307.8 214.85 306.65 212.45 306.7 212.45 304.55 208 303.95 206.65 303.7 206.1 302.85 204.7 302.2 203.6 302.1 203.15 301.9 202.05 303.75 201.15 305.2 200.45 307.25 199.25 308 198.85 308.65 198.5 309.1 198.25 309.8 197.25 314.15 191.15 314.95 189.4 316.4 186.25 317.15 185.35 317.25 185.25 317.4 184.5 317.5 184 318.1 183.9 318.5 183.85 320.45 183.8 322.25 183.75 323.05 183.5 323.95 183.25 324.6 182.4 324.95 181.9 325.6 180.75 326.8 178.9 327.6 178.9 327.95 178.9 329.15 179.15 330.25 179.35 330.7 178.9 331.1 178.55 331.45 177.8 331.75 177.1 332 176.9 332.85 176.3 334.4 176.3 334.9 176.3 335.6 176.25 336.25 176.25 337.15 176.65 337.9 177 338.95 177.4 339.7 177.75 340.05 178.2 340.6 178.9 341.35 180.2 341.45 180.3 341.8 180
L 342.15 180.7
Q 342.55 181.45 343.1 182 344.9 183.8 345.75 184.5 346.2 184.85 347.4 185.9 348.65 186.95 349.8 187.75 350.85 188.45 351.55 188.7 352.2 188.9 352.65 189.2 353.25 189.65 353.4 190.75 353.6 192.6 353.7 192.85 353.85 193.4 354.8 194.8 355.45 195.85 355.2 196.45 354.95 197.05 354.15 197.2 353.1 197.45 352.8 197.65 352.2 198.05 352 199.2 351.85 200.15 352.05 201.1 352.3 202.3 350 203.4 349.2 203.75 348.9 204.1 348.5 204.45 348.25 205.2 348.05 205.8 348.35 206.6 348.85 208 348.95 208.45 349.2 209.55 348.85 209.95 348.8 210 347.55 210.7
L 345.8 211.65 344.15 212.25
Q 343 212.6 340.6 213.75 338.4 214.8 337.95 214.9 336.2 215.25 335.9 215.25 334.25 215.1 332.45 215.6 331.65 215.8 331.2 216.35 330.8 216.95 330.55 217.15 329.8 217.7 329.35 218.05 328.5 218.75 328.25 219 328 219.25 328.775 219.7 329.55 220.15 327.85 221.85 326.15 223.55 326.15 225.4 326.15 226.2 325.9 228.4 324.8 228.45 323.4 227.85 322.6 227.5 321.7 227.6 320.6 227.65 320.35 227.6 319.45 227.4 319.15 227.25 318.5 227 317.6 226.3 316.15 225.15 312.35 221 311.75 220.3 310.75 219.9 309.85 219.6 309 220.075 Z"/>

<path id="Layer6_0_1_STROKES" stroke="#000000" stroke-width="1" stroke-linejoin="round" stroke-linecap="round"  d="
M 360.925 149.275
Q 360.8744140625 148.97578125 361 148.8 361.25 148.5 361.35 147.8 361.7 147.25 363.05 147.1 366.15 146.75 367.5 146.75 368.85 146.75 370.4 146 371 145.75 372.45 144.85 373.9 144.15 375.2 144 377.2 143.8 380.8 144.2
L 385.3 144.75
Q 388.75 145.1 389.6 145.35 390.1 145.5 392.2 145.5 392.65 145.5 393.05 145.05 393.5 144.45 393.65 144.4 394.1326171875 144.15859375 395.725 142.475 396.3462890625 142.8419921875 396.8 142.95 397.45 143.1 401.6 143.75 406.1 144.4 407.05 144.4 408.5 144.4 410 144.25 410.7 144.25 410.75 141.1 411 135.95 410.95 134.35 410.9 133.3 411.6 132.65 412.15 132.1 412.75 132.15 413.05 132.2 413.4 132 414.05 131.95 415.85 132.3 418.6 132.85 428.35 132.85 428.95 132.85 429.95 132.65 430.45 132.5 430.4 132.85
L 430.15 135.4
Q 430 136.8 426 149.9
L 422.15 164.8
Q 420.4 173.2 419.8 174.35 419 175.85 418.95 175.95 418.4 176.8 417.55 177.1 416.35 177.55 414.6 178.9 412.5 180.5 412.05 181.7 411.45 183.25 411.25 183.6 411 184.15 410.6 184.2 409.3 184.75 408.2 185.15 407.25 185.5 405.5 186.75 403.5 188.15 402.15 189.65 400.7 191.25 397.8 195.05 395 198.75 394.45 199.75
L 388.9 209.7
Q 379.95 224.45 378.45 227.3 377.2 229.65 375.05 233.45 372.75 237.55 372.2 238.3 372 238.6 371.8 238.9 370.4 235.65 369.65 234.5 369.15 233.75 367.9 232.75 366.5 231.65 365.95 231.15 365.1 230.45 360.4 228.95 355.7 227.45 353 227.1 351 226.8 349.6 226.4 347.6 225.75 346.1 225.45 344 225 342.8 224.95 341.7 224.9 341.2 224.8 340.25 224.55 340.1 224 340.1 223.9 340.15 222.4 340.2 221.55 340.1 221.3 340 220.95 339.85 220.4 339.7 219.7 340.15 219.65 340.5 219.65 341.8 219.95 342.75 220.1 343.05 219.6 343.2 219.3 343.7 218.35 344.2 217.8 345.15 217.2 345.7 216.85 346.9 216.1 347.7 215.55 347.75 214.8 347.8 214.4 347.5 213.45 347.35 212.9 346.55 212.25
L 345.8 211.65 347.55 210.7
Q 348.8 210 348.85 209.95 349.2 209.55 348.95 208.45 348.85 208 348.35 206.6 348.05 205.8 348.25 205.2 348.5 204.45 348.9 204.1 349.2 203.75 350 203.4 352.3 202.3 352.05 201.1 351.85 200.15 352 199.2 352.2 198.05 352.8 197.65 353.1 197.45 354.15 197.2 354.95 197.05 355.2 196.45 355.45 195.85 354.8 194.8 353.85 193.4 353.7 192.85 353.6 192.6 353.4 190.75 353.25 189.65 352.65 189.2 352.2 188.9 351.55 188.7 350.85 188.45 349.8 187.75 348.65 186.95 347.4 185.9 346.2 184.85 345.75 184.5 344.9 183.8 343.1 182 342.55 181.45 342.15 180.7
L 341.8 180
Q 342 179.75 342.35 179.35 343.15 178.4 343.9 177.1 344.65 175.8 345 175.55 345.4 175.25 346.35 175.25 347.15 175.25 347.7 175.05 348.05 174.95 348.55 174.7 348.85 174.6 349.1 174.05 349.45 173.35 349.8 173.05 351 172.1 352.4 171.2 352.5 171.15 354.75 169.15 356.9 167.25 357.75 166.8 358.85 166.2 359.05 165.95 359.2 165.65 359 164.95 358.25 162.5 358.8 161.65 359.1 161.2 359.9 160.05 360.5 159 360.65 158.35 360.8 157.65 360.75 157.3 360.6 156.65 360.45 155.8 360.05 154.55 359.95 154.15 359.8 153.65 360.5 153.05 361.05 152.6 361.8 152.2 362.2 151.95 361.95 151.35 361.4 150.4 361.15 149.95 360.9509765625 149.5517578125 360.925 149.275 Z"/>

<path id="Layer5_0_1_STROKES" stroke="#000000" stroke-width="1" stroke-linejoin="round" stroke-linecap="round"  d="
M 254.5 161.5
Q 255.340625 162.3900390625 257.5 163.875 257.064453125 164.460546875 256.6 165.1 255.65 166.25 255.2 166.8 254.4 167.85 254.15 168.95 253 174.1 253.8 175.95 254.45 177.5 254.45 178 254.5 178.8 253.45 179.7 252.45 180.55 252.2 180.9 251.95 181.55 251.55 182.25 250.7 183.85 244.05 199.1 243.65 200.05 242.7 201.5 242.2 202.3 242.35 202.8 242.6 203.6 243.65 205.05 244.85 206.7 245.95 207.5 246.45 207.85 247.5 208.5 248.2 209 249.6 210.05 250.6 210.8 252.15 211.65 253.15 212.15 253.8 213.05 255.5 215.4 258.95 220.75 259.9 222.2 263.1 224.45
L 267.125 226.875 267.25 227.55
Q 267.4 228.5 267.4 229.2 267.4 230.4 267.55 231 267.85 232 268.7 232.5 269.5 232.95 269.05 233.7 268.25 234.55 267.95 235.05 267.65 235.55 267.3 237 266.9 238.55 266.6 239.1 265.9 240.85 265.2 242 264.7 242.85 264.4 243.05 264.15 243.25 262.95 243.7 262 244.05 257.85 244.8 253.5 245.55 252.75 245.7 250.15 246.25 248.5 246.85 247.6 247.2 247.25 247.85 247 248.25 246.7 249.6 246.35 251.1 246.3 252.9 246.05 254.45 245.95 254.75 245.65 255.75 245.05 255.85 242.95 256.2 241.9 256.2 240.95 256.2 240.05 256.7 239.85 256.8 238.4 257.85
L 235.55 255.75
Q 235.1 255.7 234.6 255.75 233.6 255.9 233.4 256.35 233.05 257.1 232.3 258.05 230.35 257.15 229.65 256.45 229.2 256 228.75 255.3
L 228.35 254.7
Q 226.55 254.45 225.5 254.45
L 222.4 254.7 220.6 255.9
Q 218.6 257.35 217.85 258.3 215.4 261.45 214.85 262.35 214.65 262.65 213.65 261.25 212.35 259.4 211 259 208.55 258.3 203.35 258.3 202.6 258.3 202.95 257.4 203.45 256.1 203.15 255.55 202.65 254.5 202.25 254.1 201.65 253.5 200.6 253.15 199.2 252.3 198.35 252.4 197.55 252.5 197.35 252.65 196.95 252.9 196.65 253.95 196.2 255.45 195.7 257.9 195.6 258.4 195.85 259.1 195.9 259.6 194.9 259.6 194.5 259.6 193.35 259.25 193.1 259.15 193.1 260.15 193.1 261.85 192.95 263.4
L 192.85 265.7 191.4 266.05
Q 191.15 266.3 190.2 268.1 189.75 268.95 189.2 269.15 189 269.25 188.05 269.25 187.15 269.05 184.7 269.15 183.55 269.2 182.7 269.1 182.35 269.05 181.75 269.25 180.95 269.5 180.75 269.75 180.55 269.95 180.4 270.6 180.25 271.2 179.95 271.55 179.7 271.8 179 272.15 178.6 272.4 177.65 273.1 176.75 273.7 175.85 273.9 173.85 274.3 173.45 275.6 173.2 276.45 172.75 277.75 172.5 278.8 172.15 279.15 171.9 279.4 170.85 279.9 170.25 280.15 169.2 280.1 168.15 280.05 167.25 280.5 165.85 281 165.45 281.1 164.85 281.35 164.85 282.3 164.85 283.1 165 283.95 165.05 284.5 164.6 285.1 164.25 285.6 164.05 285.95 163.9 286.1 163.15 286.6 162.35 287.15 161.4 287.2 160.75 287.3 158.4 287.2 156.35 287.15 155.55 286.95 154.9 286.8 153.85 286.3 152.95 285.85 151.85 284 150.85 282.4 150.3 280.8 149.95 279.75 149.8 278.35 149.6 276.75 149.45 276.2 148.55 272.95 149.3 272.55 149.4 272.5 150.75 272.1 151.7 271.8 151.95 271.3 152.45 270.7 152.5 270.4 152.55 269.95 151.8 268.8 151.05 267.7 150.45 268.05 150.05 268.25 149.3 269.15 148.95 269.45 147 270.35 145.3 271.15 145 271.65 144.6 272.4 144.1 272.75 143.5 273.2 142.35 273.35 141.7 273.45 140.7 273.4 140.15 273.35 139.75 273.7 138.45 274.75 138.45 276.35 138.45 276.45 138.55 277.9 138.6 278.8 138.45 279.3 138.1 280.45 136.9 280.15 136.05 279.95 135.6 277.75 135.3 276.3 134.4 273.7 133.8 272.45 133.6 272 133.25 271.3 133.65 270.85 134.25 270.3 134.45 270.05 134.8 269.7 135.1 269.05 135.95 267.25 135.8 266.45 135.8 266 135.7 265.8 135.55 265.4 134.95 264.85 134.6 264.55 133.15 263.55 132.05 262.75 131.95 262.45
L 131.25 260.55 129.35 261.25 125.3 259.95 126.15 255.55
Q 126.45 254.75 126.65 253.6 126.95 251.25 126.25 249.45 125.15 247.1 124.65 246.1 123.85 244.35 123.5 242 123.3 240.65 122.75 238.8 122.6 238.25 123.15 237.5 124.5 235.7 123.65 234.85 123.35 234.55 124.15 233.6
L 125.05 232.7
Q 123.7 230.95 122.55 229.6 121.85 228.8 120.6 227.65
L 119.55 226.7
Q 119.6 226.7 116.35 223.5
L 114.55 222.9
Q 114.6 222.9 114.35 223.25 114.1 223.7 114.1 224.45
L 114.1 226.3
Q 114.1 226.4 111.55 223.3 111.55 223.35 110.95 224.35 110.3 225.55 110.15 226.6 110 227.6 109.25 229.6 108.5 231.6 108.45 231.8 108.4 232.15 107.15 232.05 105.5 231.9 105.1 232 104.45 232.15 103.15 232.15
L 102.05 232.1
Q 102.95 235.15 102.95 235.2 102.95 235.25 99.6 234.85
L 100.8 236.9
Q 99.95 238.5 99.95 238.55 99.95 238.6 99.45 238.85 98.95 239.2 98.9 239.65 98.8 240.4 98.25 242.05 97.8640625 241.3533203125 97.65 240.9 93.5 232.05 91.25 228.45 88.7 224.35 86.85 220.05 86.3 218.8 85.75 216.4 85.15 213.75 84.8 212.5 83.75 208.15 82.9 204.95 81.3 198.75 80.25 196.65 79.45 195 78.6 192.15 77.85 189.8 77.25 188.95 76.65 188.15 75.3 186.85 74 185.55 73.45 184.8 72.65 183.75 70.85 180.2 70.1 178.8 69.9 178.35 69.6 177.7 69.6 177.1 69.6 175.95 69.65 175.8 69.75 175.1 70.25 175.05 70.85 175 72.9 174.5 73.8 174.3 74.35 173.95 74.65 173.8 75.45 173.1 76.6 172.15 76.55 170.85 76.55 170.45 76.1 170.15 75.7 169.85 75.8 169.2 75.9 168.45 76.35 168.1 76.9 167.85 77.05 167.75 77.25 167.65 77.35 167.1 77.5 166.25 77.65 165.9 77.85 165.05 77.95 164.7 78.15 164.15 78.7 163.9 79 163.75 80.1 163.15 81 162.7 81.35 162.6 83.7 162.05 84.25 162.4 85.4 163.15 85.55 164.4 85.6 164.85 85.15 165.85 84.8 166.6 85.2 167 85.9 167.7 87.35 168.1 88.95 168.95 89.4 169.4 89.7 169.7 90.3 169.9 90.65 170.15 90.1 171.05 89.65 171.8 89.05 172.15 88.65 172.4 88.65 172.7 88.7 173.1 89.05 173.5 89.6 174.15 89.7 174.35 90.05 174.95 90.1 175.1 90.2 175.35 90.15 176 90.05 177.85 90.1 178.35 90.15 178.85 91.25 179.3 92.65 179.95 95.1 180 98.3 180.1 99.35 180.2 100.9 180.4 101.65 180.95 101.95 181.15 103.3 182.1 104.2 182.7 104.45 182.95 105.2 183.8 105.35 183.9 106.1 184.55 107 184.65 107.8 184.75 112.65 183.8 117.7 182.8 118.35 182.8 120 182.8 120.05 182.8 120.8 182.85 122.05 183.3 123 183.65 125.3 184.7 127.4 185.6 128.85 185.5 130.05 185.4 131.2 185.3 131.8 185.15 131.6 184.2 131.45 183.5 131.05 182.5 130.7 181.7 130.7 181.25 130.7 180.65 131.3 180.3 131.85 180 132.55 180 133.45 180 133.55 180 134 179.9 134.9 179.45 135.7 179.05 135.85 178.4 136.15 177.3 136.4 176.9
L 137.25 175.45
Q 137.65 174.95 138.4 174.65 139.05 174.4 140.4 174.35 142 174.25 142.45 174.15 143.1 174 144.15 173.55 145.05 173.1 145.4 173.05 145.95 173 146.45 172.2 147 171.4 147.05 170.6 147.1 169.5 147.15 139.45
L 146.8 109.55 147 81.6 150.15 84.6
Q 151.85 86.05 152.7 86.6 153.45 87.1 154.5 87.55 155.35 88 155.8 88.8 156.6 90.2 157.5 92.3 157.55 92.45 157.95 94.45 158.2 95.6 159.35 96.7 160.3 97.6 161.05 97.8 161.35 97.9 161.55 98.65 162.05 100.55 162.05 101.65 162.05 102.25 161.95 103.1 161.9 103.8 162.25 104.4 162.55 104.9 163.35 105.7 164.05 106.45 164.1 106.6 164.55 107.8 165.1 109.45 166 112.15 166.1 112.95 166.2 113.6 166.45 114.8 166.6 115.85 166.25 116.65 165.95 117.3 163.95 119.5 161.9 121.7 161.65 122.3 160.5 124.85 160.8 125.65 161.75 128.05 161.85 129.35 161.9 130.05 162.2 133.4 162.2 133.9 162.05 134.7 162 135.15 162.6 134.7 163.05 134.35 163.6 134 164.1 133.75 164.6 133.3 166.4 131.7 167.4 131.7 168.85 131.7 169.6 132.45 170.35 133.2 173.05 133.7 174.05 133.9 178.55 133.9 183.05 133.9 183.65 133.75 185.1 133.4 185.2 132.4 185.45 130.25 186.1 129.65 187.1 128.75 188.45 128.75 189.2 128.75 189.75 128.45 190.1 128.25 191.25 127.55 194.2 126.1 194.7 124.35 195.1 122.9 196 121.7 197.1 120.1 198.6 119.45 200 118.85 201.05 118.2 201.65 117.8 202.45 117.25 202.85 117 203.85 116.55 204.75 116.05 205.2 115.35 205.352734375 115.12109375 205.425 114.875
L 206.6 115.95
Q 205.8 126.15 205.75 126.15
L 208.7 127
Q 210.75 127.65 213.8 128.4
L 213.65 134.05
Q 213.5 139.85 213.6 140.9 213.7 142.1 213.95 142.35 214.1 142.55 215.3 143.05 216.05 143.35 220.2 145.65 224.25 147.85 224.9 148.1 225.6 148.35 227.3 149.5 228.85 150.5 229.05 150.5 229.9 150.5 231.1 149.75 232.25 149 232.55 148.45 232.65 148.05 232.7 147.85 232.85 147.5 233.3 147.35 234.6 146.9 234.55 146.2 234.45 145.1 235.15 144.6 235.55 144.3 235.7 144.35 235.8 144.4 236.05 144.95 236.35 145.55 236.6 147.45 236.85 149.5 236.6 150.65 236.4 151.6 236.4 153.55 236.4 153.85 236.85 154.15 237.35 154.45 237.9 154.45 239.35 154.45 241.05 154.15 243.05 153.8 243.55 153.9 244.35 154.05 244.35 155.95 244.35 156.65 244.1 157 243.7 157.4 243.4 157.75 242.65 158.7 242.85 159.4 243 159.95 244.5 162 245.05 162.9 245.7 163.3 246.3 163.65 246.55 163.3 247.05 162.7 247.4 161.65 247.55 161.2 248.35 160.1 248.75 159.55 249.45 158.55 249.95 157.8 250.35 155.25 250.4 154.5 250.3 153.55 250.2 152.8 250.2 152.75 250.35 152.75 251.45 152.9 252.95 153.1 253.65 153.05 254.5 153 256 153.55 257.5 154.1 257.5 154.5 257.5 155.3 256.25 156.85 255.85 157.35 254.7 158.1 253.5 158.8 253.1 159.3 252.6 159.9 253.15 160.45 253.5 160.75 254.5 161.5 Z"/>

<path id="Layer4_0_1_STROKES" stroke="#000000" stroke-width="1" stroke-linejoin="round" stroke-linecap="round"  d="
M 332.15 135.6
L 328.95 134.7
Q 326.9 134.7 325.6 133.6 324.35 132.65 323.9 132.3 323.25 131.75 322.65 130.85 322.05 129.5 321.9 129.2 321.7 128.8 321 129.4 320.2 130.2 319.95 130.35 319.65 130.65 318.8 130.85 318 131.05 316.25 131.15 314.55 131.2 314.3 131.2 313.7373046875 131.240234375 313.15 131.725 312.9970703125 131.8529296875 312.85 132 312 132.85 311.85 133.05 311.55 133.5 310.95 133.65 310.35 133.85 309.7 133.6 308.7 133.2 308.4 133.15 307.75 133 307.5 133.4 306.9 134.45 306.1 134.9
L 305.45 135.25
Q 305.2 135.35 304.3 135.3 303.15 135.25 303 135.25 302.6 135.15 301.65 134.55 299 132.95 299 133.6 299 133.95 299.25 134.5 299.5 135.1 299.5 135.25 299.5 135.45 298.9 135.35 298.1 135.25 298.05 135.25 296.8 135.45 295.8 135.8 293.85 136.5 293.65 136.9 293.4 137.35 292.55 138.3 291.6 139.4 291.1 139.65
L 288.35 141.05
Q 288 141.2 288.2 141.8 288.25 142 288.9 143.3 290.05 145.65 290.1 145.9 290.15 146.15 289.55 146.3 288.6 146.5 288.35 146.6 288 146.75 286 146.95 284.15 147.1 283.9 147.3 283.65 147.5 283.2 148.6 282.65 150 282.2 150.75 281.6 151.75 281.25 153 280.95 153.95 280.95 154.35 280.95 154.65 280.4 154.6 279.6 154.5 278.15 153.7 277.15 153.15 275.5 152.1 274.4 151.35 274.15 151.35 273.7 151.25 273.35 151.25 272.7 151.35 271.65 152.05 270.35 153 269.75 153.35 268.9 153.85 267.2 154.3 265.45 154.75 264.55 155.55 264.25 155.75 262.45 157.65 260.6912109375 159.540625 257.5 163.875 257.064453125 164.460546875 256.6 165.1 255.65 166.25 255.2 166.8 254.4 167.85 254.15 168.95 253 174.1 253.8 175.95 254.45 177.5 254.45 178 254.5 178.8 253.45 179.7 252.45 180.55 252.2 180.9 251.95 181.55 251.55 182.25 250.7 183.85 244.05 199.1 243.65 200.05 242.7 201.5 242.2 202.3 242.35 202.8 242.6 203.6 243.65 205.05 244.85 206.7 245.95 207.5 246.45 207.85 247.5 208.5 248.2 209 249.6 210.05 250.6 210.8 252.15 211.65 253.15 212.15 253.8 213.05 255.5 215.4 258.95 220.75 259.9 222.2 263.1 224.45
L 267.125 226.875 267.1 226.8 267.45 226.975
Q 267.7677734375 227.1458984375 268.4 227.5 269.75 228.25 270.4 228.4 271.4 228.65 271.75 228.65 272.4 228.6 272.95 228.1 273.3 227.75 274.25 227.15 275.05 226.6 275.35 226.2 275.75 225.75 277.8 225 279.55 224.35 280.25 224.25 281.7 224 283.4 224.6 284.05 224.85 285.15 225.1 286.05 225.4 286.85 226 287.5 226.5 289.8 228.3 292.1 229.85 293.85 229.85 295.6 229.85 297.25 229.3 298.2 228.95 299.7 228.25 300.45 227.95 301.15 227.75 301.5 227.6 301.55 227 301.6 226 301.65 225.95 301.8 225.55 302.65 225.45 304 225.3 305.25 224.95 305.75 224.8 307.25 223.85 307.55 223.7 307.85 223.5 308.1 223.3 308.15 222.6 308.25 221.5 308.9 220.3 308.9583984375 220.19765625 309 220.075 309.0853515625 219.80390625 309.05 219.45 309 218.8 309.1 218.3 309.45 217.1 309.55 216.55 309.75 215.6 309.45 215.55 308.65 215.45 308.55 215.45 308 215.3 307.8 214.85 306.65 212.45 306.7 212.45 304.55 208 303.95 206.65 303.7 206.1 302.85 204.7 302.2 203.6 302.1 203.15 301.9 202.05 303.75 201.15 305.2 200.45 307.25 199.25 308 198.85 308.65 198.5 309.1 198.25 309.8 197.25 314.15 191.15 314.95 189.4 316.4 186.25 317.15 185.35 317.25 185.25 317.4 184.5 317.5 184 318.1 183.9 318.5 183.85 320.45 183.8 322.25 183.75 323.05 183.5 323.95 183.25 324.6 182.4 324.95 181.9 325.6 180.75 326.8 178.9 327.6 178.9 327.95 178.9 329.15 179.15 330.25 179.35 330.7 178.9 331.1 178.55 331.45 177.8 331.75 177.1 332 176.9 332.85 176.3 334.4 176.3 334.9 176.3 335.6 176.25 336.25 176.25 337.15 176.65 337.9 177 338.95 177.4 339.7 177.75 340.05 178.2 340.6 178.9 341.35 180.2 341.45 180.3 341.8 180 342 179.75 342.35 179.35 343.15 178.4 343.9 177.1 344.65 175.8 345 175.55 345.4 175.25 346.35 175.25 347.15 175.25 347.7 175.05 348.05 174.95 348.55 174.7 348.85 174.6 349.1 174.05 349.45 173.35 349.8 173.05 351 172.1 352.4 171.2 352.5 171.15 354.75 169.15 356.9 167.25 357.75 166.8 358.85 166.2 359.05 165.95 359.2 165.65 359 164.95 358.25 162.5 358.8 161.65 359.1 161.2 359.9 160.05 360.5 159 360.65 158.35 360.8 157.65 360.75 157.3 360.6 156.65 360.45 155.8 360.05 154.55 359.95 154.15 359.8 153.65 360.5 153.05 361.05 152.6 361.8 152.2 362.2 151.95 361.95 151.35 361.4 150.4 361.15 149.95 360.9509765625 149.5517578125 360.925 149.275 360.1796875 149.2765625 359.3 149.2 358.5 149.15 358.15 148.85 357.9 148.7 357.2 147.75 356.75 147.15 356.4 146.4 356.05 145.6 355.7 145.15 353.95 142.8 352.5 142.4 349.95 141.7 348.05 140.6 346.9 139.9 346.65 138.75 346.6 138 346.45 137.8 346.3 137.5 345.45 137.45 345.2 137.45 344.05 137.25 343.5 137.2 343.05 137.3 340.5 138 339.95 137.45
L 337.2 135.65 336.45 136.9
Q 336.1 137.5 335.3 137.9 334.65 138.2 334.35 138.2 334.2 138.2 333.95 137.55 333.55 136.65 333.5 136.55 333.55 136.25 333.45 136.15 333.35 135.95 332.15 135.6 Z"/>

<path id="Layer3_0_1_STROKES" stroke="#000000" stroke-width="1" stroke-linejoin="round" stroke-linecap="round"  d="
M 329.35 95.675
Q 329.308984375 95.1984375 329.25 95.1 328.05 94.1 327.65 93.6 327.4 93.3 326.5 92.75 325.6 92.3 325.6 92.35 325.45 92.3 325.4 92.15 325.35 91.85 325.95 92.05
L 327.45 91
Q 328.75 89 327.45 88.85 326.6 88.75 323.15 87.6 321.7 87.05 321.15 86.9 320.3 86.55 319.85 86.6 319.45 86.65 318.8 87.05 318.1 87.5 317.9 87.55 317.7 87.6 316.7 87.3 315.75 87 315.3 87.15 313.45 87.9 313.5 88.3 313.65 89.55 313.1 89.8 312.8 89.95 311.8 89.95 310.8 89.95 310 89.8 309.55 89.7 309.15 89.4 308.7 89.05 307.55 88.65 306.2 88.2 305.15 87.35 304.75 87.05 303.7 85.9 302.45 84.6 302.45 83.3 302.6 82.75 302.65 82.55 302.7 82.15 302.3 82.05 301.85 81.6 301.6 81.4 301.15 81.1 299.9 81.95 299.2 82.4 298.05 83.4 297.5 83.9 296.75 84.05 295.8 84.25 294.1 84.15 292.55 84.1 291.05 83.85 288.15 83.4 287.95 82.2
L 287.275 78.625
Q 286.237890625 79.046484375 284.3 79.8 283.6 80.05 281.7 80.35 281.2 80.45 279.9 80.9 278.6 81.35 278 81.45 277.2 81.6 276.85 82.05 276.6 82.4 276.4 83.3 276.15 84.35 276.4 86.4 276.35 87.2 276.05 87.9 275.85 88.35 275.25 89.55 274.6 91.05 272.6 96.65 271.75 98.65 271.25 100.35 270.95 101.5 270.7 101.95 270.2 102.95 269.25 103.45 268.4 103.9 267.85 104.35 266.55 105.5 266.3 105.7 265.2 106.6 263.85 106.6 263.3 106.6 261.75 106.25 261.25 106.15 260.35 105.75 259.6 105.4 259 105.35 258.3 105.3 257.55 105.6 256.6 106.1 255.85 106.4
L 252.9 107.75
Q 252.2 108.05 250.8 107.7 249.15 107.2 248.35 107 247.5 106.8 245.35 106.65 243.4 106.55 243.2 106.45 242.85 106.25 242.2 105.5 241.4 104.7 241 104.05 240.6 103.45 239.75 103.15 238.75 102.9 238.25 102.75 237.7 102.6 236.1 102.7 234.05 102.75 233.65 102.75 232.7 102.7 232.05 102.4 231.65 102.15 230.9 101.45 229.8 100.15 228.9 99.15 227.2 97.25 225.75 96.35 224.15 95.35 222.85 94.95 222.15 94.75 220.6 94.55 219.8 94.45 218.5 94.45 217.2 94.4 216.7 94.35 215.55 94.2 212.85 95.1 212.5 95.2 210.7 97.6 209.75 98.9 209 100.9 208.65 101.85 208.55 103.85 208.4 106.55 208.3 107.35 208.1 108.7 207.8 109.5 207.55 110.2 207.55 110.45 207.45 112.15 206.1 113.4 205.4 114.05 205.45 114.4 205.474609375 114.6455078125 205.425 114.875
L 206.6 115.95
Q 205.8 126.15 205.75 126.15
L 208.7 127
Q 210.75 127.65 213.8 128.4
L 213.65 134.05
Q 213.5 139.85 213.6 140.9 213.7 142.1 213.95 142.35 214.1 142.55 215.3 143.05 216.05 143.35 220.2 145.65 224.25 147.85 224.9 148.1 225.6 148.35 227.3 149.5 228.85 150.5 229.05 150.5 229.9 150.5 231.1 149.75 232.25 149 232.55 148.45 232.65 148.05 232.7 147.85 232.85 147.5 233.3 147.35 234.6 146.9 234.55 146.2 234.45 145.1 235.15 144.6 235.55 144.3 235.7 144.35 235.8 144.4 236.05 144.95 236.35 145.55 236.6 147.45 236.85 149.5 236.6 150.65 236.4 151.6 236.4 153.55 236.4 153.85 236.85 154.15 237.35 154.45 237.9 154.45 239.35 154.45 241.05 154.15 243.05 153.8 243.55 153.9 244.35 154.05 244.35 155.95 244.35 156.65 244.1 157 243.7 157.4 243.4 157.75 242.65 158.7 242.85 159.4 243 159.95 244.5 162 245.05 162.9 245.7 163.3 246.3 163.65 246.55 163.3 247.05 162.7 247.4 161.65 247.55 161.2 248.35 160.1 248.75 159.55 249.45 158.55 249.95 157.8 250.35 155.25 250.4 154.5 250.3 153.55 250.2 152.8 250.2 152.75 250.35 152.75 251.45 152.9 252.95 153.1 253.65 153.05 254.5 153 256 153.55 257.5 154.1 257.5 154.5 257.5 155.3 256.25 156.85 255.85 157.35 254.7 158.1 253.5 158.8 253.1 159.3 252.6 159.9 253.15 160.45 253.5 160.75 254.5 161.5 255.340625 162.3900390625 257.5 163.875 260.6912109375 159.540625 262.45 157.65 264.25 155.75 264.55 155.55 265.45 154.75 267.2 154.3 268.9 153.85 269.75 153.35 270.35 153 271.65 152.05 272.7 151.35 273.35 151.25 273.7 151.25 274.15 151.35 274.4 151.35 275.5 152.1 277.15 153.15 278.15 153.7 279.6 154.5 280.4 154.6 280.95 154.65 280.95 154.35 280.95 153.95 281.25 153 281.6 151.75 282.2 150.75 282.65 150 283.2 148.6 283.65 147.5 283.9 147.3 284.15 147.1 286 146.95 288 146.75 288.35 146.6 288.6 146.5 289.55 146.3 290.15 146.15 290.1 145.9 290.05 145.65 288.9 143.3 288.25 142 288.2 141.8 288 141.2 288.35 141.05
L 291.1 139.65
Q 291.6 139.4 292.55 138.3 293.4 137.35 293.65 136.9 293.85 136.5 295.8 135.8 296.8 135.45 298.05 135.25 298.1 135.25 298.9 135.35 299.5 135.45 299.5 135.25 299.5 135.1 299.25 134.5 299 133.95 299 133.6 299 132.95 301.65 134.55 302.6 135.15 303 135.25 303.15 135.25 304.3 135.3 305.2 135.35 305.45 135.25
L 306.1 134.9
Q 306.9 134.45 307.5 133.4 307.75 133 308.4 133.15 308.7 133.2 309.7 133.6 310.35 133.85 310.95 133.65 311.55 133.5 311.85 133.05 312 132.85 312.85 132 312.9970703125 131.8529296875 313.15 131.725 313.108984375 129.6603515625 313.2 128.25 313.25 127.65 313.5 126.85 313.7 126.3 313.6 125.35 313.55 123.85 313.45 123.4 313.25 122.75 312.4 122.8 311.1 122.8 310.55 122.8 309.6 122.85 309.25 123.15 308.95 123.4 308.15 123.75 307.4 124.1 307.2 124.25 306.85 124.55 306.25 124.55 305.6 124.55 305.35 124.05 304.9 123.25 304.75 122.85 304.5 122.15 305 121.85 305.4 121.6 305.85 121.35 306.25 121.1 306.65 120.7 307.45 119.9 307.4 118.7 307.4 118.6 307.05 117.65 306.9 117.1 307.35 116.7 307.75 116.4 308.55 116.25 309.25 116.1 309.45 115.75 309.65 115.4 309.65 114.55 309.65 113.6 309.8 113.2 310 112.65 310.2 111.3
L 310.35 110.1
Q 310.35 110.15 310.8 109.5 311.35 108.8 312.05 108.45 312.85 108.05 314.1 107.9 315.35 107.7 315.5 107.9 315.6 108.05 315.15 108.75 315 109.4 316.4 109.2 317.4 109.05 318.8 109.1 319.6 109.1 320.05 108.85 320.9 108.3 321.1 108.15 321.55 107.7 321.55 107 321.55 106.75 321.35 105.95 321.25 105.5 321.55 104.8 321.9 103.9 322.05 103.6 322.25 103.15 323 102.6 324.2 101.7 324.3 101.6 324.65 101.25 324.7 100.75 324.75 100.3 324.6 99.45
L 324.5 98.7
Q 324.55 98.7 325.25 98.4 326.1 98.1 326.7 98.15 327.7 98.25 329.45 98 329.4197265625 96.392578125 329.35 95.675 Z"/>

<path id="Layer2_0_1_STROKES" stroke="#000000" stroke-width="1" stroke-linejoin="round" stroke-linecap="round"  d="
M 313.15 131.725
Q 313.108984375 129.6603515625 313.2 128.25 313.25 127.65 313.5 126.85 313.7 126.3 313.6 125.35 313.55 123.85 313.45 123.4 313.25 122.75 312.4 122.8 311.1 122.8 310.55 122.8 309.6 122.85 309.25 123.15 308.95 123.4 308.15 123.75 307.4 124.1 307.2 124.25 306.85 124.55 306.25 124.55 305.6 124.55 305.35 124.05 304.9 123.25 304.75 122.85 304.5 122.15 305 121.85 305.4 121.6 305.85 121.35 306.25 121.1 306.65 120.7 307.45 119.9 307.4 118.7 307.4 118.6 307.05 117.65 306.9 117.1 307.35 116.7 307.75 116.4 308.55 116.25 309.25 116.1 309.45 115.75 309.65 115.4 309.65 114.55 309.65 113.6 309.8 113.2 310 112.65 310.2 111.3
L 310.35 110.1
Q 310.35 110.15 310.8 109.5 311.35 108.8 312.05 108.45 312.85 108.05 314.1 107.9 315.35 107.7 315.5 107.9 315.6 108.05 315.15 108.75 315 109.4 316.4 109.2 317.4 109.05 318.8 109.1 319.6 109.1 320.05 108.85 320.9 108.3 321.1 108.15 321.55 107.7 321.55 107 321.55 106.75 321.35 105.95 321.25 105.5 321.55 104.8 321.9 103.9 322.05 103.6 322.25 103.15 323 102.6 324.2 101.7 324.3 101.6 324.65 101.25 324.7 100.75 324.75 100.3 324.6 99.45
L 324.5 98.7
Q 324.55 98.7 325.25 98.4 326.1 98.1 326.7 98.15 327.7 98.25 329.45 98 329.4197265625 96.392578125 329.35 95.675
L 331.2 95.85
Q 332.4 96 333.3 95.6 334.1 95.3 336.45 94.85 336.53046875 94.8357421875 336.6 94.825 336.6716796875 95.7353515625 336.95 100.05 337 100.65 337 101.9 336.95 102.5 337.3 103.15 337.8 104.05 337.95 104.25 338.2 104.45 339 104.6 340 104.8 340.2 104.8 340.65 104.75 341.2 104.4
L 343.75 102.6
Q 345.45 101.3 346.3 101.4 346.85 101.5 346.85 102.05 346.9 102.6 346.35 103.15 345.85 103.65 345.2 104.05 343.55 105.05 343.35 105.9 343.3 106.1 343.1 107.5 342.95 108.8 342.8 109.2
L 341.95 112.1
Q 341.85 112.35 340.95 112.35 339.75 112.3 339.2 112.3 339.1 112.3 337.65 112.15 336.8 112.05 336.4 112.3 336.1 112.5 335.6 112.7 335.15 112.9 334.75 113.2 334.7 113.25 334 113.7 333.75 113.9 333.65 114.15 333.55 114.45 333.9 115.2 334.1 115.6 334.55 116.5 334.55 116.55 334.85 117.6 335 118.15 335.45 118.55 336.2 119.2 336.95 119.5 337.05 119.6 338.15 119.55 339.25 119.55 340.05 120.2 340.75 120.75 341.6 121.25 342.05 121.55 341.95 122.05 341.85 122.55 339.8 123.8 337.4 125.2 336.6 125.7 335.8 126.25 334.9 126.7 334 127.15 333.3 127.6 332.05 128.3 331.65 128.5 331 128.9 330.75 129.65 330.3 131.05 330 132.45 329.8556640625 133.1236328125 329.525 134.85
L 328.95 134.7
Q 326.9 134.7 325.6 133.6 324.35 132.65 323.9 132.3 323.25 131.75 322.65 130.85 322.05 129.5 321.9 129.2 321.7 128.8 321 129.4 320.2 130.2 319.95 130.35 319.65 130.65 318.8 130.85 318 131.05 316.25 131.15 314.55 131.2 314.3 131.2 313.7373046875 131.240234375 313.15 131.725 Z"/>

<path id="Layer1_0_1_STROKES" stroke="#000000" stroke-width="1" stroke-linejoin="round" stroke-linecap="round"  d="
M 336.6 94.825
Q 338.708984375 94.4447265625 338.95 94.3 339.25 94.15 340.05 93.75 340.65 93.35 340.25 92.8 339.85 92.2 338.65 92.1 337.55 92 336.4 92.3 336.35 92.3 334.5 92.9 333.4 93.25 332.55 93.35 331.1 93.55 331.05 93.55 330.6 93.5 330.5 92.8 330.4 92.05 330.6 91.65 330.8 91.3 331.65 90.6 332.75 89.7 334.75 88.4 335.25 88.05 335.8 87.95 336.8 87.7 337.85 87.3 338.95 86.9 340.5 86.15 341.6 85.7 341.9 85.9 342.4 86.2 343.05 85.1
L 343.8 85.85
Q 344.6 86.65 345.05 86.8 345.4 86.95 346.5 87.4 347.65 87.55 348.7 86.25 349.4 85.45 349.8 84.3 350 83.9 350.9 83.85 351.75 83.85 352.3 83.7 352.55 83.7 352.75 84.4 353.1 85.55 353.1 86.45 353.2 86.75 353.1 87.1 353.1 87.35 353.65 87.55 354.1 87.75 354.5 87.85 354.75 88 355.5 89.15 355.8 89.55 356.5 90.85 356.8 91.35 357.3 91.75 358 92.3 359.65 92.7 361.3 93.1 361.95 92.85 362.7 92.6 362.8 92.55 363 92.4 363 91.9 363 91.4 362.9 91.15 362.85 90.95 362.45 90.25 361.85 89.15 361.75 88.85 361.5 88.1 362.1 87.9 363 87.6 365.35 86.25 367.55 85.25 368.3 84.6 368.8 84.2 369.55 83.65 370.1 83.15 370 82.5 369.95 82.05 369.3 80.85 368.75 79.8 368.85 79.25 369.2 77.6 370 78.1 370.35 78.35 370.95 78.85 371.45 79.1 371.6 78.55 371.6 77.6 371.7 77.25 371.8 76.6 372.95 76.7 373.45 76.75 375.05 76.6 375.9 76.5 376.35 77 377.85 78.7 378.1 78.9 378.4 79.15 378.9 78.75 379.3 78.45 379.65 77.8 379.95 77.25 381.1 76.55 382.25 75.9 383.15 75.75 384.15 75.55 384.6 75.75 385.25 75.95 385.6 76.9 385.95 77.95 387.65 81.85 389.35 85.7 389.65 86.25 389.85 86.6 389.45 87.05 389.35 87.45 391.05 87.9 393.75 88.6 396.05 88.25 397 88.1 398.8 87.65 399.3 87.65 399.3 85.5 399.45 84.95 399.45 84.7 399.45 84.35 398.65 84.2 397.4 84 397.2 83.95 396.75 83.75 396.6 83.1 396.35 82.25 396.25 82 396.15 81.5 396.55 81.3 397.35 80.9 399.2 80.55 401.3 80.2 401.75 79.8 402.15 79.45 402.1 79.2 402 78.75 401 78 400.05 77.3 399.3 76.55 398.6 75.8 398.2 75.4 398.05 75.25 397.05 75.2 396.55 75.15 396.75 73.7 396.95 72.15 397.7 70.7
L 398.4 69.55 399.15 66.6 394.6 65.75 396.25 65.35
Q 398 64.9 398.8 64.85 399.4 64.8 400.2 64.6 401.1 64.4 402.1 64.3 403.15 64.2 404.35 63.7 405.45 63.25 405.75 63.25 406.4 63.25 408 63.15 408.25 63.6 408.4 64 408.6 64.6 408.85 65.65 409.1 66.65 409.45 67.55 410.55 70.3 410.75 71.35 411.1 73.05 411.1 74.3 410.9 91 410.95 91 410.65 108.9 410.6 110.1 410.55 111.45 409.45 111.95 408.55 112.35 407.1 111.7 406.65 111.5 405.75 110.75 404.7 109.95 404.15 109.6 403.15 109.05 402.75 108.75 402.1 108.35 401.4 107.55 400 106 399.4 105.9 398.55 105.7 397.95 105.6 396.8 105.4 396.45 105.75 394.7 107.3 394.4 107.75 393.8 108.65 392.6 110.1 392.05 110.75 389.7 115.55 387.1 120.75 386.9 121.1 385.9 122.65 385.35 123.65 384.4 125.45 384.35 126.55 384.25 129.35 384.3 130.05 384.35 130.8 384.5 131.6 384.65 132.25 384.7 132.25 384.75 132.25 386.15 131.75 387.15 131.65 387.45 132.85 387.55 133.25 387.55 133.7 387.5 134.25 387.65 135 387.85 136.05 388.9 137.3 389.9 138.45 391.1 139.2 393.2 140.5 393.85 141.05 394.9291015625 141.987109375 395.725 142.475 394.1326171875 144.15859375 393.65 144.4 393.5 144.45 393.05 145.05 392.65 145.5 392.2 145.5 390.1 145.5 389.6 145.35 388.75 145.1 385.3 144.75
L 380.8 144.2
Q 377.2 143.8 375.2 144 373.9 144.15 372.45 144.85 371 145.75 370.4 146 368.85 146.75 367.5 146.75 366.15 146.75 363.05 147.1 361.7 147.25 361.35 147.8 361.25 148.5 361 148.8 360.8744140625 148.97578125 360.925 149.275 360.1796875 149.2765625 359.3 149.2 358.5 149.15 358.15 148.85 357.9 148.7 357.2 147.75 356.75 147.15 356.4 146.4 356.05 145.6 355.7 145.15 353.95 142.8 352.5 142.4 349.95 141.7 348.05 140.6 346.9 139.9 346.65 138.75 346.6 138 346.45 137.8 346.3 137.5 345.45 137.45 345.2 137.45 344.05 137.25 343.5 137.2 343.05 137.3 340.5 138 339.95 137.45
L 337.2 135.65 336.45 136.9
Q 336.1 137.5 335.3 137.9 334.65 138.2 334.35 138.2 334.2 138.2 333.95 137.55 333.55 136.65 333.5 136.55 333.55 136.25 333.45 136.15 333.35 135.95 332.15 135.6
L 329.525 134.85
Q 329.8556640625 133.1236328125 330 132.45 330.3 131.05 330.75 129.65 331 128.9 331.65 128.5 332.05 128.3 333.3 127.6 334 127.15 334.9 126.7 335.8 126.25 336.6 125.7 337.4 125.2 339.8 123.8 341.85 122.55 341.95 122.05 342.05 121.55 341.6 121.25 340.75 120.75 340.05 120.2 339.25 119.55 338.15 119.55 337.05 119.6 336.95 119.5 336.2 119.2 335.45 118.55 335 118.15 334.85 117.6 334.55 116.55 334.55 116.5 334.1 115.6 333.9 115.2 333.55 114.45 333.65 114.15 333.75 113.9 334 113.7 334.7 113.25 334.75 113.2 335.15 112.9 335.6 112.7 336.1 112.5 336.4 112.3 336.8 112.05 337.65 112.15 339.1 112.3 339.2 112.3 339.75 112.3 340.95 112.35 341.85 112.35 341.95 112.1
L 342.8 109.2
Q 342.95 108.8 343.1 107.5 343.3 106.1 343.35 105.9 343.55 105.05 345.2 104.05 345.85 103.65 346.35 103.15 346.9 102.6 346.85 102.05 346.85 101.5 346.3 101.4 345.45 101.3 343.75 102.6
L 341.2 104.4
Q 340.65 104.75 340.2 104.8 340 104.8 339 104.6 338.2 104.45 337.95 104.25 337.8 104.05 337.3 103.15 336.95 102.5 337 101.9 337 100.65 336.95 100.05 336.6716796875 95.7353515625 336.6 94.825 Z"/>

<path id="Layer0_0_1_STROKES" stroke="#000000" stroke-width="1" stroke-linejoin="round" stroke-linecap="round"  d="
M 338.95 94.3
Q 338.708984375 94.4447265625 336.6 94.825 336.53046875 94.8357421875 336.45 94.85 334.1 95.3 333.3 95.6 332.4 96 331.2 95.85
L 329.35 95.675
Q 329.308984375 95.1984375 329.25 95.1 328.05 94.1 327.65 93.6 327.4 93.3 326.5 92.75 325.6 92.3 325.6 92.35 325.45 92.3 325.4 92.15 325.35 91.85 325.95 92.05
L 327.45 91
Q 328.75 89 327.45 88.85 326.6 88.75 323.15 87.6 321.7 87.05 321.15 86.9 320.3 86.55 319.85 86.6 319.45 86.65 318.8 87.05 318.1 87.5 317.9 87.55 317.7 87.6 316.7 87.3 315.75 87 315.3 87.15 313.45 87.9 313.5 88.3 313.65 89.55 313.1 89.8 312.8 89.95 311.8 89.95 310.8 89.95 310 89.8 309.55 89.7 309.15 89.4 308.7 89.05 307.55 88.65 306.2 88.2 305.15 87.35 304.75 87.05 303.7 85.9 302.45 84.6 302.45 83.3 302.6 82.75 302.65 82.55 302.7 82.15 302.3 82.05 301.85 81.6 301.6 81.4 301.15 81.1 299.9 81.95 299.2 82.4 298.05 83.4 297.5 83.9 296.75 84.05 295.8 84.25 294.1 84.15 292.55 84.1 291.05 83.85 288.15 83.4 287.95 82.2
L 287.275 78.625
Q 287.6818359375 78.462890625 287.95 78.35 288.8 77.95 289.45 77.35 289.85 76.95 290.85 75.8 291.4 75.25 291.85 74.35 292.15 73.75 292.75 73.4 293.8 72.85 295.5 72.1 297.55 71.2 298.2 68.95 298.5 67.8 298.7 66.65 298.85 65.7 299.15 64.9 299.5 63.9 299.7 62.6 299.85 61.2 299.9 60.7 299.95 59.6 300 58.9 300.1 57.6 300.8 56.5 301.35 55.6 302.55 53.6 303.6 52.05 304.1 51.9
L 305.5 51.7
Q 306.5 51.55 307.2 51.2 307.5 51.05 310 50.3 312.1 49.65 312.55 49.15 313.05 48.65 313.2 47.95 313.35 47.15 313.5 46.6 313.7 45.65 313.8 45.45 313.9 45.1 314.4 45.15 315.2 45.25 316.95 45.25
L 318.2 43.95
Q 319.7 42.35 320.8 41.05 321.25 40.5 325.45 36.15 328.85 32.6 329.25 31.7 329.4 31.35 329.4 30 329.45 29.35 330.6 29.15 331.6 29 332.9 28.75 333.85 28.55 334.95 28.6 336.85 28.65 341.4 27.1 343.15 26.5 343.45 26.3 344 25.95 344.15 25.15 344.25 23.65 344.35 22.8 344.65 21.3 345.6 21.2
L 349.1 20.85
Q 349.65 20.8 351.75 20.3 354.05 19.8 356 19.55 356.75 19.45 359 18.9 359.75 18.7 360.95 19.3 364.9 21.2 366.25 21.65 366.75 21.8 368.65 22.6 370.65 23.35 372.2 23.5 373.65 23.65 375.15 23.5 377.1 23.35 377.45 23.35 378.35 23.35 380.05 22.85 381.6 22.35 382 22.4 382.45 22.45 385.05 22.7 387.65 23 388.7 23.35 390.35 23.9 392.35 24.4 394.35 25.05 395.25 25.7 395.85 26.15 396.9 28.45 397 28.7 398.4 33.95 399.9 39.5 400.3 40.7 401 42.85 401.15 46.05 401.15 46.5 401.15 47.9 401.1 48.95 401.2 49.3 401.6 50.85 402.1 51.7 402.55 52.45 403.4 53.4 403.65 53.8 404 54.8 404.35 55.7 404.45 56.15 404.5 56.45 404.6 57.9 404.85 59.4 405.65 60.35 406.3 61.1 407.3 62.25 407.7 62.7 408 63.15 406.4 63.25 405.75 63.25 405.45 63.25 404.35 63.7 403.15 64.2 402.1 64.3 401.1 64.4 400.2 64.6 399.4 64.8 398.8 64.85 398 64.9 396.25 65.35
L 394.6 65.75 399.15 66.6 398.4 69.55 397.7 70.7
Q 396.95 72.15 396.75 73.7 396.55 75.15 397.05 75.2 398.05 75.25 398.2 75.4 398.6 75.8 399.3 76.55 400.05 77.3 401 78 402 78.75 402.1 79.2 402.15 79.45 401.75 79.8 401.3 80.2 399.2 80.55 397.35 80.9 396.55 81.3 396.15 81.5 396.25 82 396.35 82.25 396.6 83.1 396.75 83.75 397.2 83.95 397.4 84 398.65 84.2 399.45 84.35 399.45 84.7 399.45 84.95 399.3 85.5 399.3 87.65 398.8 87.65 397 88.1 396.05 88.25 393.75 88.6 391.05 87.9 389.35 87.45 389.45 87.05 389.85 86.6 389.65 86.25 389.35 85.7 387.65 81.85 385.95 77.95 385.6 76.9 385.25 75.95 384.6 75.75 384.15 75.55 383.15 75.75 382.25 75.9 381.1 76.55 379.95 77.25 379.65 77.8 379.3 78.45 378.9 78.75 378.4 79.15 378.1 78.9 377.85 78.7 376.35 77 375.9 76.5 375.05 76.6 373.45 76.75 372.95 76.7 371.8 76.6 371.7 77.25 371.6 77.6 371.6 78.55 371.45 79.1 370.95 78.85 370.35 78.35 370 78.1 369.2 77.6 368.85 79.25 368.75 79.8 369.3 80.85 369.95 82.05 370 82.5 370.1 83.15 369.55 83.65 368.8 84.2 368.3 84.6 367.55 85.25 365.35 86.25 363 87.6 362.1 87.9 361.5 88.1 361.75 88.85 361.85 89.15 362.45 90.25 362.85 90.95 362.9 91.15 363 91.4 363 91.9 363 92.4 362.8 92.55 362.7 92.6 361.95 92.85 361.3 93.1 359.65 92.7 358 92.3 357.3 91.75 356.8 91.35 356.5 90.85 355.8 89.55 355.5 89.15 354.75 88 354.5 87.85 354.1 87.75 353.65 87.55 353.1 87.35 353.1 87.1 353.2 86.75 353.1 86.45 353.1 85.55 352.75 84.4 352.55 83.7 352.3 83.7 351.75 83.85 350.9 83.85 350 83.9 349.8 84.3 349.4 85.45 348.7 86.25 347.65 87.55 346.5 87.4 345.4 86.95 345.05 86.8 344.6 86.65 343.8 85.85
L 343.05 85.1
Q 342.4 86.2 341.9 85.9 341.6 85.7 340.5 86.15 338.95 86.9 337.85 87.3 336.8 87.7 335.8 87.95 335.25 88.05 334.75 88.4 332.75 89.7 331.65 90.6 330.8 91.3 330.6 91.65 330.4 92.05 330.5 92.8 330.6 93.5 331.05 93.55 331.1 93.55 332.55 93.35 333.4 93.25 334.5 92.9 336.35 92.3 336.4 92.3 337.55 92 338.65 92.1 339.85 92.2 340.25 92.8 340.65 93.35 340.05 93.75 339.25 94.15 338.95 94.3 Z"/>
</defs>
<defs>
          <linearGradient id="solids17610" x1="0" y1="0" x2="0" y2="1"><stop offset="0%" style="stop-color:rgb(243, 12, 12);stop-opacity:1" />
        <stop offset="49.0%" style="stop-color:rgb(243, 12, 12);stop-opacity:1" />
        <stop offset="49.0%" style="stop-color:rgb(27, 104, 7);stop-opacity:1" />
        <stop offset="100%" style="stop-color:rgb(27, 104, 7);stop-opacity:1" /></linearGradient > </defs > 
<g id = '17610' name = "Western Cape" fill="url(#solids17610)" transform="matrix( 1, 0, 0, 1, 0,0) ">
<use xlink:href="#Layer9_0_1_STROKES"/>
</g>
<defs>
          <linearGradient id="solids17601" x1="0" y1="0" x2="0" y2="1"><stop offset="0%" style="stop-color:rgb(243, 12, 12);stop-opacity:1" />
        <stop offset="47.0%" style="stop-color:rgb(243, 12, 12);stop-opacity:1" />
        <stop offset="47.0%" style="stop-color:rgb(27, 104, 7);stop-opacity:1" />
        <stop offset="100%" style="stop-color:rgb(27, 104, 7);stop-opacity:1" /></linearGradient > </defs > 
<g id = '17601' name = "Eastern Cape" fill="url(#solids17601)" transform="matrix( 1, 0, 0, 1, 0,0) ">
<use xlink:href="#Layer8_0_1_STROKES"/>
</g>

<g transform="matrix( 1, 0, 0, 1, 0,0) ">
<use xlink:href="#Layer7_0_1_STROKES"/>
</g>
<defs>
          <linearGradient id="solids17604" x1="0" y1="0" x2="0" y2="1"><stop offset="0%" style="stop-color:rgb(243, 12, 12);stop-opacity:1" />
        <stop offset="48.0%" style="stop-color:rgb(243, 12, 12);stop-opacity:1" />
        <stop offset="48.0%" style="stop-color:rgb(27, 104, 7);stop-opacity:1" />
        <stop offset="100%" style="stop-color:rgb(27, 104, 7);stop-opacity:1" /></linearGradient > </defs >
<g id = '17604' name = "KwaZulu-Natal" fill="url(#solids17604)" transform="matrix( 1, 0, 0, 1, 0,0) ">
<use xlink:href="#Layer6_0_1_STROKES"/>
</g>
<defs>
          <linearGradient id="solids17608" x1="0" y1="0" x2="0" y2="1"><stop offset="0%" style="stop-color:rgb(243, 12, 12);stop-opacity:1" />
        <stop offset="50.0%" style="stop-color:rgb(243, 12, 12);stop-opacity:1" />
        <stop offset="50.0%" style="stop-color:rgb(27, 104, 7);stop-opacity:1" />
        <stop offset="100%" style="stop-color:rgb(27, 104, 7);stop-opacity:1" /></linearGradient > </defs >
<g id = '17608' name = "Northern Cape" fill="url(#solids17608)" transform="matrix( 1, 0, 0, 1, 0,0) ">
<use xlink:href="#Layer5_0_1_STROKES"/>
</g>
<defs>
          <linearGradient id="solids17602" x1="0" y1="0" x2="0" y2="1"><stop offset="0%" style="stop-color:rgb(243, 12, 12);stop-opacity:1" />
        <stop offset="49.0%" style="stop-color:rgb(243, 12, 12);stop-opacity:1" />
        <stop offset="49.0%" style="stop-color:rgb(27, 104, 7);stop-opacity:1" />
        <stop offset="100%" style="stop-color:rgb(27, 104, 7);stop-opacity:1" /></linearGradient > </defs >
<g id = '17602' name = "Free State" fill="url(#solids17602)" transform="matrix( 1, 0, 0, 1, 0,0) ">
<use xlink:href="#Layer4_0_1_STROKES"/>
</g>
<defs>
          <linearGradient id="solids17607" x1="0" y1="0" x2="0" y2="1"><stop offset="0%" style="stop-color:rgb(243, 12, 12);stop-opacity:1" />
        <stop offset="48.0%" style="stop-color:rgb(243, 12, 12);stop-opacity:1" />
        <stop offset="48.0%" style="stop-color:rgb(27, 104, 7);stop-opacity:1" />
        <stop offset="100%" style="stop-color:rgb(27, 104, 7);stop-opacity:1" /></linearGradient > </defs >
<g id = '17607' name = "North West" fill="url(#solids17607)" transform="matrix( 1, 0, 0, 1, 0,0) ">
<use xlink:href="#Layer3_0_1_STROKES"/>
</g>
<defs>
          <linearGradient id="solids17603" x1="0" y1="0" x2="0" y2="1"><stop offset="0%" style="stop-color:rgb(27, 104, 7);stop-opacity:1" />
        <stop offset="50.0%" style="stop-color:rgb(27, 104, 7);stop-opacity:1" />
        <stop offset="50.0%" style="stop-color:rgb(243, 12, 12);stop-opacity:1" />
        <stop offset="100%" style="stop-color:rgb(243, 12, 12);stop-opacity:1" /></linearGradient > </defs >
<g id = '17603' name = "Gauteng" fill="url(#solids17603)" transform="matrix( 1, 0, 0, 1, 0,0) ">
<use xlink:href="#Layer2_0_1_STROKES"/>
</g>
<defs>
          <linearGradient id="solids17606" x1="0" y1="0" x2="0" y2="1"><stop offset="0%" style="stop-color:rgb(243, 12, 12);stop-opacity:1" />
        <stop offset="49.0%" style="stop-color:rgb(243, 12, 12);stop-opacity:1" />
        <stop offset="49.0%" style="stop-color:rgb(27, 104, 7);stop-opacity:1" />
        <stop offset="100%" style="stop-color:rgb(27, 104, 7);stop-opacity:1" /></linearGradient > </defs >
<g id = '17606' name = "Mpumalanga" fill="url(#solids17606)" transform="matrix( 1, 0, 0, 1, 0,0) ">
<use xlink:href="#Layer1_0_1_STROKES"/>
</g>
<defs>
          <linearGradient id="solids17605" x1="0" y1="0" x2="0" y2="1"><stop offset="0%" style="stop-color:rgb(243, 12, 12);stop-opacity:1" />
        <stop offset="47.0%" style="stop-color:rgb(243, 12, 12);stop-opacity:1" />
        <stop offset="47.0%" style="stop-color:rgb(27, 104, 7);stop-opacity:1" />
        <stop offset="100%" style="stop-color:rgb(27, 104, 7);stop-opacity:1" /></linearGradient > </defs >
<g id = '17605' name = "Limpopo" fill="url(#solids17605)" transform="matrix( 1, 0, 0, 1, 0,0) ">
<use xlink:href="#Layer0_0_1_STROKES"/>
</g>
</svg>
