<?xml version="1.0" standalone="no"?>
<!DOCTYPE  svg PUBLIC "-//W3C//DTD SVG 1.1//EN" "http://www.w3.org/Graphics/SVG/1.1/DTD/svg11.dtd">
<svg xmlns="http://www.w3.org/2000/svg" xmlns:inkscape="http://www.inkscape.org/namespaces/inkscape" xmlns:xlink="http://www.w3.org/1999/xlink" viewBox = "-3790 -2270 5870 5870" version = "1.1" stroke="#000000"  stroke-width="3">
<!-- svg generated using QGIS www.qgis.org -->
<g id="fotos" inkscape:groupmode="layer" inkscape:label="1---5---5_india_polygon">
<g id = "1" fill="white" stroke-linejoin="round" stroke-width="0.26">
<g id="1---5---5_india_polygon_1" >
<path d="M 354,90 L 353,90 L 353,89 L 352,89 L 351,89 L 351,88 L 350,88 L 349,88 L 349,87 L 348,87 L 347,87 L 348,87 L 347,87 L 347,86 L 346,86 L 345,86 L 344,86 L 344,87 L 344,86 L 343,86 L 343,85 L 342,85 L 341,85 L 341,84 L 341,83 L 341,82 L 340,82 L 340,81 L 340,80 L 340,79 L 340,78 L 341,78 L 340,78 L 340,77 L 341,77 L 341,76 L 340,76 L 341,75 L 340,75 L 340,74 L 340,73 L 340,72 L 340,71 L 340,70 L 339,69 L 339,68 L 339,67 L 339,66 L 338,66 L 339,66 L 338,66 L 338,65 L 338,64 L 338,63 L 338,62 L 337,62 L 337,61 L 337,60 L 337,59 L 338,59 L 338,58 L 339,58 L 340,58 L 341,58 L 341,57 L 342,57 L 342,56 L 342,55 L 343,55 L 343,54 L 344,54 L 345,54 L 346,54 L 346,53 L 347,53 L 348,53 L 348,52 L 349,52 L 349,51 L 349,50 L 350,50 L 349,50 L 349,49 L 350,49 L 350,48 L 349,48 L 348,48 L 348,47 L 347,47 L 346,47 L 345,47 L 345,46 L 344,46 L 343,46 L 342,46 L 343,46 L 343,45 L 342,45 L 342,44 L 342,43 L 343,43 L 343,42 L 344,42 L 344,41 L 343,41 L 343,40 L 342,40 L 342,41 L 342,40 L 341,40 L 340,40 L 339,40 L 338,40 L 337,40 L 336,40 L 336,39 L 335,39 L 334,39 L 334,38 L 333,38 L 332,38 L 332,37 L 332,36 L 332,35 L 331,35 L 331,34 L 331,35 L 330,35 L 329,35 L 328,35 L 327,35 L 327,34 L 327,35 L 326,35 L 325,35 L 324,35 L 323,35 L 322,35 L 322,34 L 321,34 L 321,33 L 322,33 L 322,32 L 322,33 L 322,32 L 322,31 L 321,31 L 321,30 L 322,30 L 322,29 L 322,28 L 323,28 L 323,27 L 323,28 L 324,28 L 324,27 L 325,27 L 326,27 L 326,26 L 327,26 L 328,26 L 328,25 L 327,25 L 327,24 L 328,24 L 329,24 L 330,24 L 329,24 L 330,24 L 330,23 L 331,23 L 331,22 L 332,22 L 332,21 L 331,21 L 331,20 L 332,20 L 333,20 L 333,19 L 333,20 L 334,20 L 335,20 L 336,20 L 336,19 L 337,19 L 338,19 L 339,19 L 339,20 L 340,20 L 341,20 L 342,20 L 343,20 L 344,20 L 345,20 L 346,20 L 346,19 L 345,19 L 345,18 L 344,18 L 343,18 L 343,17 L 342,17 L 342,16 L 343,16 L 344,16 L 344,17 L 345,17 L 345,16 L 346,16 L 346,17 L 347,17 L 347,18 L 348,18 L 349,18 L 349,17 L 350,17 L 350,18 L 350,17 L 350,16 L 351,16 L 352,16 L 352,17 L 352,16 L 353,16 L 354,16 L 354,15 L 355,15 L 356,15 L 357,15 L 358,15 L 358,14 L 359,14 L 359,13 L 360,13 L 360,14 L 361,14 L 362,14 L 363,14 L 363,15 L 364,16 L 365,16 L 365,15 L 366,15 L 367,15 L 367,16 L 367,15 L 368,15 L 369,15 L 369,14 L 370,14 L 369,14 L 370,14 L 371,14 L 372,14 L 372,15 L 373,15 L 373,16 L 373,17 L 373,16 L 373,17 L 374,17 L 374,18 L 375,18 L 376,18 L 376,19 L 377,19 L 377,20 L 379,22 L 380,22 L 380,23 L 381,23 L 382,23 L 382,24 L 383,24 L 384,24 L 385,24 L 386,24 L 386,25 L 387,25 L 387,26 L 388,26 L 389,26 L 388,26 L 389,26 L 390,26 L 390,27 L 391,27 L 391,28 L 392,28 L 391,28 L 392,28 L 392,29 L 393,29 L 394,29 L 395,29 L 395,30 L 396,30 L 396,31 L 397,31 L 398,31 L 398,32 L 397,32 L 397,33 L 396,33 L 397,33 L 397,34 L 398,34 L 398,35 L 399,35 L 399,36 L 400,36 L 401,36 L 402,36 L 403,36 L 404,36 L 404,37 L 405,37 L 405,38 L 406,38 L 406,37 L 406,38 L 407,38 L 407,37 L 408,37 L 408,38 L 409,38 L 409,39 L 409,38 L 409,39 L 409,40 L 410,40 L 410,41 L 409,41 L 408,41 L 408,40 L 408,41 L 407,41 L 408,41 L 408,42 L 408,41 L 408,42 L 409,42 L 410,42 L 411,42 L 412,42 L 413,42 L 414,42 L 414,41 L 415,41 L 416,41 L 402,49 L 399,56 L 392,55 L 377,59 L 354,54 L 346,57 L 344,61 L 348,65 L 346,67 L 353,69 L 347,73 L 351,77 L 348,83 L 354,86 L 354,90 " />
</g>
<g id="1---5---5_india_polygon_2" >
<path d="M 421,41 L 419,41 L 418,41 L 419,40 L 418,40 L 418,39 L 419,40 L 420,40 L 421,40 L 421,41 L 421,40 L 421,41 L 422,41 L 422,40 L 422,39 L 423,39 L 423,38 L 423,39 L 424,39 L 424,38 L 424,37 L 425,37 L 426,37 L 427,37 L 427,36 L 428,36 L 428,37 L 429,37 L 429,36 L 430,36 L 431,36 L 431,35 L 432,35 L 433,35 L 434,35 L 435,35 L 436,35 L 436,34 L 437,34 L 437,35 L 438,35 L 439,35 L 440,35 L 441,35 L 441,34 L 441,33 L 442,33 L 443,33 L 444,33 L 444,34 L 445,34 L 446,34 L 446,35 L 447,35 L 448,35 L 449,35 L 450,36 L 451,36 L 452,36 L 453,36 L 454,36 L 454,35 L 455,35 L 455,36 L 456,36 L 456,37 L 457,37 L 457,38 L 458,38 L 458,39 L 459,39 L 460,39 L 460,40 L 461,40 L 461,41 L 461,42 L 460,42 L 460,43 L 460,44 L 460,45 L 459,45 L 459,46 L 459,47 L 458,47 L 458,48 L 458,49 L 458,50 L 458,51 L 458,52 L 457,52 L 457,53 L 456,53 L 456,54 L 456,55 L 456,56 L 455,56 L 454,56 L 453,56 L 452,56 L 452,57 L 451,57 L 451,58 L 451,59 L 452,59 L 452,60 L 451,60 L 450,60 L 449,60 L 449,59 L 449,60 L 448,59 L 448,60 L 447,60 L 446,60 L 447,60 L 447,61 L 447,62 L 447,63 L 448,63 L 448,64 L 447,64 L 447,65 L 447,64 L 446,64 L 446,65 L 446,66 L 445,66 L 445,67 L 445,68 L 444,68 L 443,68 L 442,68 L 442,67 L 441,67 L 440,67 L 440,68 L 439,68 L 438,68 L 438,67 L 437,67 L 437,68 L 436,68 L 436,69 L 436,70 L 437,71 L 437,72 L 438,72 L 437,72 L 438,72 L 438,73 L 438,74 L 439,74 L 439,75 L 438,75 L 437,75 L 436,75 L 436,76 L 436,77 L 436,78 L 434,77 L 432,67 L 437,62 L 425,57 L 420,45 L 421,41 " />
</g>
<g id="1" >
<path d="M 766,172 L 766,177 L 758,183 L 762,192 L 755,187 L 745,189 L 727,201 L 727,211 L 717,222 L 717,226 L 719,229 L 709,250 L 694,246 L 695,261 L 694,265 L 691,265 L 690,271 L 692,279 L 687,283 L 683,281 L 681,284 L 675,253 L 670,252 L 667,264 L 663,266 L 660,261 L 659,264 L 655,254 L 659,246 L 668,245 L 672,241 L 675,232 L 679,232 L 678,229 L 671,226 L 642,227 L 632,224 L 630,209 L 627,208 L 626,211 L 622,211 L 618,205 L 616,204 L 617,207 L 614,207 L 606,200 L 605,203 L 608,205 L 602,209 L 601,215 L 617,224 L 615,227 L 607,226 L 606,231 L 601,231 L 599,235 L 601,238 L 612,243 L 609,254 L 613,257 L 612,261 L 616,262 L 614,266 L 618,281 L 618,290 L 611,291 L 611,280 L 609,291 L 608,284 L 607,290 L 604,290 L 603,287 L 603,292 L 602,281 L 597,276 L 602,282 L 595,289 L 580,295 L 578,299 L 581,307 L 570,320 L 566,318 L 568,321 L 553,325 L 555,322 L 553,321 L 547,327 L 552,326 L 540,335 L 529,350 L 497,371 L 496,381 L 486,385 L 479,384 L 473,395 L 471,391 L 470,395 L 467,393 L 460,396 L 456,408 L 461,437 L 458,432 L 456,434 L 461,439 L 458,454 L 451,469 L 453,493 L 443,494 L 436,506 L 437,511 L 445,514 L 437,512 L 427,515 L 419,528 L 411,533 L 407,532 L 394,519 L 395,516 L 393,517 L 391,514 L 388,500 L 390,507 L 392,507 L 378,474 L 369,463 L 363,449 L 355,418 L 349,413 L 344,402 L 347,402 L 338,390 L 327,343 L 331,337 L 326,338 L 326,332 L 330,333 L 325,331 L 324,322 L 328,305 L 322,295 L 332,288 L 322,289 L 325,284 L 321,284 L 322,280 L 328,279 L 315,278 L 318,281 L 312,285 L 315,286 L 312,286 L 317,290 L 314,298 L 291,307 L 277,299 L 257,278 L 259,275 L 262,279 L 279,274 L 285,264 L 271,270 L 262,268 L 248,258 L 247,255 L 253,250 L 246,255 L 243,255 L 244,252 L 245,249 L 253,248 L 254,242 L 276,245 L 286,240 L 290,243 L 296,240 L 288,217 L 281,217 L 277,212 L 279,202 L 267,198 L 268,191 L 282,176 L 286,176 L 291,181 L 310,177 L 319,162 L 329,157 L 337,141 L 346,138 L 345,133 L 360,121 L 357,119 L 358,106 L 372,100 L 367,96 L 360,96 L 359,90 L 354,90 L 354,86 L 348,83 L 351,77 L 347,73 L 353,69 L 346,67 L 348,65 L 344,61 L 346,57 L 354,54 L 377,59 L 392,55 L 399,56 L 402,49 L 416,41 L 421,41 L 420,45 L 425,57 L 437,62 L 432,67 L 434,77 L 436,79 L 444,84 L 447,91 L 437,98 L 433,93 L 427,94 L 428,100 L 433,105 L 433,117 L 439,114 L 447,123 L 453,123 L 460,127 L 459,130 L 474,136 L 462,145 L 456,161 L 476,169 L 478,173 L 489,178 L 504,181 L 505,185 L 514,188 L 516,185 L 524,187 L 530,185 L 538,188 L 539,193 L 551,199 L 556,196 L 560,201 L 563,200 L 576,204 L 581,202 L 585,205 L 599,205 L 602,199 L 598,192 L 601,178 L 610,174 L 614,176 L 612,184 L 615,188 L 612,191 L 615,194 L 628,199 L 641,196 L 647,198 L 671,196 L 672,189 L 670,185 L 664,185 L 664,180 L 680,178 L 683,173 L 692,170 L 695,165 L 705,164 L 710,157 L 718,152 L 731,157 L 743,150 L 749,153 L 745,157 L 745,160 L 750,157 L 753,162 L 748,166 L 749,170 L 754,167 L 766,172 " />
<path d="M 686,457 L 683,457 L 683,448 L 687,446 L 688,453 L 686,457 " />
<path d="M 686,447 L 685,439 L 689,435 L 689,444 L 686,447 " />
<path d="M 684,461 L 683,472 L 680,465 L 682,459 L 684,461 " />
<path d="M 680,485 L 679,489 L 677,489 L 677,484 L 679,482 L 680,485 " />
<path d="M 704,549 L 703,557 L 700,550 L 704,549 " />
</g>
</g>
</g>
<!-- QGIS extent for clipping, eg in Inkscape -->
<!-- <g id="qgisviewbox" inkscape:groupmode="layer" inkscape:label="qgisviewbox" stroke="rgb(255,0,0)" stroke-width="1" fill="none" >
<path d="M 0,571 L 1010,571 L 1010,0 L 0,0 L 0,571 " />
</g> --></svg>