<?xml version="1.0" encoding="utf-8"?>
<!-- Generator: Adobe Illustrator 22.1.0, SVG Export Plug-In . SVG Version: 6.00 Build 0)  -->
<svg version="1.1" id="Layer_1" xmlns:inkscape="http://www.inkscape.org/namespaces/inkscape"
	 xmlns="http://www.w3.org/2000/svg" xmlns:xlink="http://www.w3.org/1999/xlink" x="0px" y="0px" viewBox="0 0 5870 5870"
	 style="enable-background:new 0 0 5870 5870;" xml:space="preserve">
<style type="text/css">
	.st0{fill:#FFFFE0;stroke:#000000;stroke-width:0.26;stroke-linejoin:round;}
	.st1{stroke:#000000;stroke-width:0.26;stroke-linejoin:round;}
	.st2{font-family:'MyriadPro-Bold';}
	.st3{font-size:12px;}
</style>
~~~~~MARK1~~~~~
<g id="fotos" inkscape:groupmode="layer" inkscape:label="1---5---5_india_polygon">
	<g id="1" name = "India">
		<g id="_x31_---5---5_x5F_india_x5F_polygon_x5F_1" name="PoK">
			<path id="PoK" name = "PoK" class="st0" d="M4144,2360h-1v-1h-1h-1v-1h-1h-1v-1h-1h-1h1h-1v-1h-1h-1h-1v1v-1h-1v-1h-1h-1v-1v-1v-1h-1v-1v-1v-1v-1h1h-1
				v-1h1v-1h-1l1-1h-1v-1v-1v-1v-1v-1l-1-1v-1v-1v-1h-1h1h-1v-1v-1v-1v-1h-1v-1v-1v-1h1v-1h1h1h1v-1h1v-1v-1h1v-1h1h1h1v-1h1h1v-1h1
				v-1v-1h1h-1v-1h1v-1h-1h-1v-1h-1h-1h-1v-1h-1h-1h-1h1v-1h-1v-1v-1h1v-1h1v-1h-1v-1h-1v1v-1h-1h-1h-1h-1h-1h-1v-1h-1h-1v-1h-1h-1
				v-1v-1v-1h-1v-1v1h-1h-1h-1h-1v-1v1h-1h-1h-1h-1h-1v-1h-1v-1h1v-1v1v-1v-1h-1v-1h1v-1v-1h1v-1v1h1v-1h1h1v-1h1h1v-1h-1v-1h1h1h1
				h-1h1v-1h1v-1h1v-1h-1v-1h1h1v-1v1h1h1h1v-1h1h1h1v1h1h1h1h1h1h1h1v-1h-1v-1h-1h-1v-1h-1v-1h1h1v1h1v-1h1v1h1v1h1h1v-1h1v1v-1v-1
				h1h1v1v-1h1h1v-1h1h1h1h1v-1h1v-1h1v1h1h1h1v1l1,1h1v-1h1h1v1v-1h1h1v-1h1h-1h1h1h1v1h1v1v1v-1v1h1v1h1h1v1h1v1l2,2h1v1h1h1v1h1
				h1h1h1v1h1v1h1h1h-1h1h1v1h1v1h1h-1h1v1h1h1h1v1h1v1h1h1v1h-1v1h-1h1v1h1v1h1v1h1h1h1h1h1v1h1v1h1v-1v1h1v-1h1v1h1v1v-1v1v1h1v1
				h-1h-1v-1v1h-1h1v1v-1v1h1h1h1h1h1h1v-1h1h1l-14,8l-3,7l-7-1l-15,4l-23-5l-8,3l-2,4l4,4l-2,2l7,2l-6,4l4,4l-3,6l6,3V2360"/>
		</g>
		<g id="_x31_---5---5_x5F_india_x5F_polygon_x5F_2" name="CoK">
			<path id = "CoK" name="CoK" class="st0" d="M4211,2311h-2h-1l1-1h-1v-1l1,1h1h1V2311v-1V2311h1v-1v-1h1v-1v1h1v-1v-1h1h1h1v-1h1v1h1v-1h1h1v-1h1h1h1h1
				h1v-1h1v1h1h1h1h1v-1v-1h1h1h1v1h1h1v1h1h1h1l1,1h1h1h1h1v-1h1v1h1v1h1v1h1v1h1h1v1h1v1v1h-1v1v1v1h-1v1v1h-1v1v1v1v1v1h-1v1h-1
				v1v1v1h-1h-1h-1h-1v1h-1v1v1h1v1h-1h-1h-1v-1v1l-1-1v1h-1h-1h1v1v1v1h1v1h-1v1v-1h-1v1v1h-1v1v1h-1h-1h-1v-1h-1h-1v1h-1h-1v-1h-1
				v1h-1v1v1l1,1v1h1h-1h1v1v1h1v1h-1h-1h-1v1v1v1l-2-1l-2-10l5-5l-12-5l-5-12L4211,2311"/>
		</g>
		<g id="1" name = "India">
			<path id="1" name = "India"  fill="url(#solids1)" class="st1" d="M4556,2442v5l-8,6l4,9l-7-5l-10,2l-18,12v10l-10,11v4l2,3l-10,21l-15-4l1,15l-1,4h-3l-1,6l2,8l-5,4l-4-2
				l-2,3l-6-31l-5-1l-3,12l-4,2l-3-5l-1,3l-4-10l4-8l9-1l4-4l3-9h4l-1-3l-7-3l-29,1l-10-3l-2-15l-3-1l-1,3h-4l-4-6l-2-1l1,3h-3l-8-7
				l-1,3l3,2l-6,4l-1,6l16,9l-2,3l-8-1l-1,5h-5l-2,4l2,3l11,5l-3,11l4,3l-1,4l4,1l-2,4l4,15v9l-7,1v-11l-2,11l-1-7l-1,6h-3l-1-3v5
				l-1-11l-5-5l5,6l-7,7l-15,6l-2,4l3,8l-11,13l-4-2l2,3l-15,4l2-3l-2-1l-6,6l5-1l-12,9l-11,15l-32,21l-1,10l-10,4l-7-1l-6,11l-2-4
				l-1,4l-3-2l-7,3l-4,12l5,29l-3-5l-2,2l5,5l-3,15l-7,15l2,24l-10,1l-7,12l1,5l8,3l-8-2l-10,3l-8,13l-8,5l-4-1l-13-13l1-3l-2,1
				l-2-3l-3-14l2,7h2l-14-33l-9-11l-6-14l-8-31l-6-5l-5-11h3l-9-12l-11-47l4-6l-5,1v-6l4,1l-5-2l-1-9l4-17l-6-10l10-7l-10,1l3-5h-4
				l1-4l6-1l-13-1l3,3l-6,4l3,1h-3l5,4l-3,8l-23,9l-14-8l-20-21l2-3l3,4l17-5l6-10l-14,6l-9-2l-14-10l-1-3l6-5l-7,5h-3l1-3l1-3l8-1
				l1-6l22,3l10-5l4,3l6-3l-8-23h-7l-4-5l2-10l-12-4l1-7l14-15h4l5,5l19-4l9-15l10-5l8-16l9-3l-1-5l15-12l-3-2l1-13l14-6l-5-4h-7
				l-1-6h-5v-4l-6-3l3-6l-4-4l6-4l-7-2l2-2l-4-4l2-4l8-3l23,5l15-4l7,1l3-7l14-8h5l-1,4l5,12l12,5l-5,5l2,10l2,2l8,5l3,7l-10,7l-4-5
				l-6,1l1,6l5,5v12l6-3l8,9h6l7,4l-1,3l15,6l-12,9l-6,16l20,8l2,4l11,5l15,3l1,4l9,3l2-3l8,2l6-2l8,3l1,5l12,6l5-3l4,5l3-1l13,4
				l5-2l4,3h14l3-6l-4-7l3-14l9-4l4,2l-2,8l3,4l-3,3l3,3l13,5l13-3l6,2l24-2l1-7l-2-4h-6v-5l16-2l3-5l9-3l3-5l10-1l5-7l8-5l13,5
				l12-7l6,3l-4,4v3l5-3l3,5l-5,4l1,4l5-3L4556,2442"/>
			<path class="st1" d="M4476,2727h-3v-9l4-2l1,7L4476,2727"/>
			<path class="st1" d="M4476,2717l-1-8l4-4v9L4476,2717"/>
			<path class="st1" d="M4474,2731l-1,11l-3-7l2-6L4474,2731"/>
			<path class="st1" d="M4470,2755l-1,4h-2v-5l2-2L4470,2755"/>
			<path class="st1" d="M4494,2819l-1,8l-3-7L4494,2819"/>
		</g>
	</g>
</g>
<text transform="matrix(1 0 0 1 4148.8335 2313.1665)" class="st2 st3">PoK</text>
<text transform="matrix(1 0 0 1 4218.6665 2322.0002)" class="st2 st3">CoK</text>
</svg>
